<svg width="24" height="24" viewBox="0 0 24 24" fill="none" xmlns="http://www.w3.org/2000/svg">
<g clip-path="url(#clip0)">
<path opacity="0.6" d="M24.7043 15.2752L21.9249 16.0989L22.4577 17.8966L25.237 17.0729L24.7043 15.2752Z" fill="url(#paint0_radial)"/>
<path opacity="0.6" d="M4.11396 23.3328L6.89331 22.5091L6.36055 20.7114L3.5812 21.5351L4.11396 23.3328Z" fill="url(#paint1_radial)"/>
<path opacity="0.6" d="M21.9249 16.0989L6.3606 20.7114L6.89336 22.5091L22.4577 17.8966L21.9249 16.0989Z" fill="url(#paint2_linear)"/>
<path opacity="0.35" d="M23.8609 16.3062L19.2794 0.846927C19.2794 0.846927 6.60564 4.60287 0.268738 6.48083C1.79599 11.6343 4.85049 21.9412 4.85049 21.9412L23.8609 16.3062Z" stroke="black" stroke-width="2" stroke-linejoin="round"/>
<path d="M23.8609 16.3062L19.2794 0.846927C19.2794 0.846927 6.60564 4.60287 0.268738 6.48083C1.79599 11.6343 4.85049 21.9412 4.85049 21.9412L23.8609 16.3062Z" fill="url(#paint3_linear)"/>
<path opacity="0.4" d="M0.268738 6.48083L0.37529 6.84038L19.386 1.20647L19.2794 0.846927L0.268738 6.48083Z" fill="white"/>
<path d="M5.34145 21.0134L1.18591 6.99124L18.7884 1.77466L22.944 15.7969L5.34145 21.0134Z" fill="url(#paint4_linear)"/>
<path opacity="0.1" d="M6.06707 6.66218C4.68423 7.072 3.89498 8.5633 4.31352 9.97558C4.73205 11.3879 6.20641 12.2083 7.58925 11.7985C8.97209 11.3887 9.76134 9.8974 9.3428 8.48512C8.92427 7.07285 7.44992 6.25237 6.06707 6.66218ZM6.37151 7.68945C7.21075 7.44074 8.08294 7.92611 8.33695 8.78322C8.59095 9.64032 8.12405 10.5225 7.28481 10.7713C6.44558 11.02 5.57338 10.5346 5.31937 9.67749C5.06537 8.82039 5.53227 7.93816 6.37151 7.68945Z" fill="#FED8CD"/>
<path opacity="0.1" d="M5.91479 6.14858C4.26014 6.63894 3.30972 8.43478 3.81052 10.1246C4.31132 11.8145 6.08676 12.8025 7.7414 12.3122C9.39605 11.8218 10.3465 10.026 9.84567 8.33611C9.34487 6.64624 7.56944 5.65821 5.91479 6.14858ZM6.52366 8.20311C7.09109 8.03495 7.66221 8.35277 7.83395 8.93229C8.00569 9.5118 7.69996 10.0895 7.13253 10.2576C6.5651 10.4258 5.99398 10.108 5.82224 9.52847C5.6505 8.94895 5.95623 8.37127 6.52366 8.20311Z" fill="#FED8CD"/>
<path opacity="0.1" d="M5.76263 5.63494C3.83618 6.20585 2.72459 8.30623 3.30765 10.2737C3.89071 12.2411 5.96723 13.3967 7.89367 12.8258C9.82012 12.2549 10.9317 10.1545 10.3487 8.18706C9.76559 6.2196 7.68908 5.06403 5.76263 5.63494ZM6.67593 8.71674C6.97156 8.62913 7.2416 8.7794 7.33108 9.08133C7.42056 9.38325 7.276 9.65639 6.98037 9.74401C6.68474 9.83162 6.4147 9.68134 6.32522 9.37942C6.23575 9.07749 6.3803 8.80435 6.67593 8.71674Z" fill="#FED8CD"/>
<path fill-rule="evenodd" clip-rule="evenodd" d="M6.2193 7.17585C7.33034 6.84659 8.50361 7.49952 8.83988 8.63421C9.17615 9.7689 8.54808 10.9557 7.43704 11.2849C6.326 11.6142 5.15272 10.9613 4.81645 9.82657C4.48018 8.69188 5.10826 7.50511 6.2193 7.17585Z" fill="#FCE94F"/>
<path fill-rule="evenodd" clip-rule="evenodd" d="M5.92712 8.12847C7.28814 7.72513 8.72541 8.52496 9.13734 9.91496C9.54927 11.305 8.77988 12.7587 7.41885 13.1621C6.05783 13.5654 4.62057 12.7656 4.20863 11.3756C3.7967 9.98561 4.56609 8.53182 5.92712 8.12847Z" fill="#FCE94F"/>
<path d="M4.67175 18.7535L4.51953 18.2398C4.51953 18.2398 5.53521 17.0076 5.86995 16.8272C6.20469 16.6467 6.64416 16.5827 7.10204 16.5378C7.55984 16.4926 8.23984 16.4135 8.44374 16.3607C8.64769 16.3081 9.00545 16.1747 9.42203 16.0228C9.83876 15.8713 10.5344 15.6395 10.7543 15.5771C10.9734 15.5122 11.5297 15.3808 12.1236 15.2444C12.7176 15.108 13.5367 14.9315 13.7235 14.8947C13.9102 14.8578 14.1332 14.8258 14.3857 14.7882C14.6382 14.7502 15.0731 14.677 15.2257 14.6471C15.3783 14.617 15.7369 14.5633 16.1474 14.4825C16.5579 14.4016 17.2008 14.225 17.3813 14.1565C17.5618 14.0879 17.9073 13.8336 18.3003 13.5772C18.6934 13.3208 19.1339 13.0621 19.5041 12.9841C19.8744 12.9062 22.122 13.0232 22.122 13.0232L22.2742 13.5368L19.6339 14.3193L17.4964 14.9528L15.359 15.5862L13.2215 16.2196L11.0841 16.8531L8.94663 17.4865L6.80918 18.12L4.67175 18.7535Z" fill="black"/>
<path opacity="0.9" d="M4.67169 18.7535L4.77101 19.0886C4.77101 19.0886 6.20588 19.2709 6.5772 19.2139C6.94854 19.1569 7.35827 18.9925 7.77527 18.8097C8.19232 18.627 8.81721 18.3619 9.01767 18.2976C9.21796 18.2326 9.58821 18.1413 10.0176 18.0325C10.4469 17.9237 11.1541 17.7309 11.3727 17.6639C11.5918 17.599 12.133 17.4168 12.7092 17.2203C13.2853 17.0239 14.0745 16.7466 14.253 16.6816C14.4314 16.6165 14.6391 16.5331 14.8748 16.4388C15.1107 16.3448 15.5205 16.1871 15.6663 16.1339C15.812 16.0806 16.147 15.9473 16.5391 15.8044C16.9312 15.6614 17.5679 15.4637 17.7552 15.4183C17.9425 15.3728 18.3564 15.3491 18.8124 15.3052C19.2684 15.2614 19.7666 15.1973 20.1226 15.0712C20.4786 14.945 22.3736 13.8724 22.3736 13.8724L22.2743 13.5373L19.6339 14.3197L17.4965 14.9532L15.359 15.5866L13.2216 16.2201L11.0841 16.8535L8.94669 17.487L6.80925 18.1204L4.67169 18.7535Z" fill="black"/>
<path opacity="0.3" d="M4.67169 18.7534L22.2742 13.5369L22.7309 15.0778L5.12834 20.2943L4.67169 18.7534Z" fill="#4D585E"/>
<path opacity="0.2" d="M18.4511 2.39612L1.80737 7.32856L5.67878 20.392L22.3225 15.4595L18.4511 2.39612Z" stroke="black"/>
<path opacity="0.6" d="M23.9871 17.3324L21.0485 17.6923L21.2764 19.5534L24.215 19.1935L23.9871 17.3324Z" fill="url(#paint5_radial)"/>
<path opacity="0.6" d="M1.8818 21.9285L4.82037 21.5687L4.59246 19.7076L1.65388 20.0674L1.8818 21.9285Z" fill="url(#paint6_radial)"/>
<path opacity="0.6" d="M21.0485 17.6923L4.59247 19.7076L4.82039 21.5687L21.2764 19.5534L21.0485 17.6923Z" fill="url(#paint7_linear)"/>
<path opacity="0.35" d="M22.9614 18.2125L21.0015 2.2082C21.0015 2.2082 7.60156 3.84921 0.901611 4.66971C1.55497 10.0048 2.8617 20.6751 2.8617 20.6751L22.9614 18.2125Z" stroke="black" stroke-opacity="0.9" stroke-linejoin="round"/>
<path d="M22.9614 18.2125L21.0015 2.2082C21.0015 2.2082 7.60156 3.84921 0.901611 4.66971C1.55497 10.0048 2.8617 20.6751 2.8617 20.6751L22.9614 18.2125Z" fill="white"/>
<path opacity="0.4" d="M0.901611 4.66971L0.947195 5.04193L21.047 2.58042L21.0014 2.2082L0.901611 4.66971Z" fill="white"/>
<path d="M3.515 19.8395L1.73724 5.32297L20.3482 3.04379L22.126 17.5603L3.515 19.8395Z" fill="url(#paint8_linear)"/>
<path opacity="0.1" d="M6.70638 5.79388C5.24431 5.97293 4.19421 7.31612 4.37326 8.77818C4.55231 10.2403 5.8955 11.2903 7.35757 11.1113C8.81964 10.9322 9.86973 9.58906 9.69068 8.12699C9.51163 6.66493 8.16844 5.61483 6.70638 5.79388ZM6.83662 6.85736C7.72393 6.7487 8.51853 7.36991 8.6272 8.25723C8.73586 9.14455 8.11465 9.93915 7.22733 10.0478C6.34001 10.1565 5.54541 9.53526 5.43675 8.64795C5.32808 7.76063 5.9493 6.96603 6.83662 6.85736Z" fill="#FED8CD"/>
<path opacity="0.1" d="M6.64126 5.26212C4.89181 5.47636 3.62728 7.09384 3.84152 8.84328C4.05576 10.5927 5.67325 11.8573 7.42269 11.643C9.17213 11.4288 10.4367 9.81129 10.2224 8.06185C10.0082 6.31241 8.3907 5.04787 6.64126 5.26212ZM6.90173 7.38908C7.50168 7.31561 8.02198 7.72238 8.09546 8.32233C8.16893 8.92227 7.76215 9.44258 7.16221 9.51605C6.56227 9.58952 6.04196 9.18275 5.96849 8.5828C5.89502 7.98286 6.30179 7.46256 6.90173 7.38908Z" fill="#FED8CD"/>
<path opacity="0.1" d="M6.57614 4.73038C4.53932 4.97982 3.06034 6.87159 3.30978 8.90841C3.55921 10.9452 5.45099 12.4242 7.4878 12.1748C9.52462 11.9253 11.0036 10.0336 10.7542 7.99674C10.5047 5.95993 8.61295 4.48095 6.57614 4.73038ZM6.96685 7.92083C7.27942 7.88256 7.52543 8.07489 7.56371 8.38746C7.60199 8.70002 7.40966 8.94604 7.09709 8.98432C6.78452 9.0226 6.53851 8.83026 6.50023 8.51769C6.46195 8.20513 6.65428 7.95911 6.96685 7.92083Z" fill="#FED8CD"/>
<path fill-rule="evenodd" clip-rule="evenodd" d="M6.7715 6.32561C7.94619 6.18176 9.01509 7.01741 9.15894 8.1921C9.3028 9.3668 8.46714 10.4357 7.29245 10.5795C6.11776 10.7234 5.04887 9.88775 4.90501 8.71306C4.76115 7.53837 5.59681 6.46947 6.7715 6.32561Z" fill="#FCE94F"/>
<path fill-rule="evenodd" clip-rule="evenodd" d="M6.31409 7.21821C7.75309 7.04198 9.06248 8.06566 9.23871 9.50466C9.41494 10.9437 8.39126 12.2531 6.95226 12.4293C5.51326 12.6055 4.20387 11.5818 4.02764 10.1428C3.85142 8.70383 4.87509 7.39443 6.31409 7.21821Z" fill="#FCE94F"/>
<path d="M3.22847 17.4999L3.16335 16.9681C3.16335 16.9681 4.39691 15.9176 4.76476 15.7941C5.13262 15.6705 5.58592 15.6789 6.05445 15.7093C6.52296 15.7393 7.22093 15.7721 7.4352 15.7532C7.64949 15.7346 8.03244 15.6612 8.47777 15.5791C8.92317 15.4976 9.66304 15.3822 9.89507 15.3565C10.1268 15.3281 10.7091 15.2892 11.3303 15.2513C11.9516 15.2135 12.8062 15.1729 13.0005 15.167C13.1948 15.161 13.4246 15.1658 13.6853 15.1698C13.9459 15.1735 14.3962 15.1721 14.5549 15.1675C14.7137 15.1626 15.0837 15.1681 15.5108 15.1552C15.9378 15.1423 16.6152 15.0729 16.8086 15.0346C17.002 14.9964 17.3934 14.8017 17.8329 14.6127C18.2724 14.4237 18.7602 14.2403 19.1462 14.2236C19.5322 14.2071 21.7743 14.6889 21.7743 14.6889L21.8394 15.2207L19.0478 15.5625L16.7879 15.8393L14.528 16.116L12.2681 16.3928L10.0082 16.6696L7.74827 16.9463L5.48837 17.2231L3.22847 17.4999Z" fill="black"/>
<path opacity="0.9" d="M3.22852 17.4999L3.27101 17.8468C3.27101 17.8468 4.68389 18.2606 5.06739 18.2649C5.4509 18.2692 5.89148 18.1737 6.34253 18.0612C6.79361 17.949 7.46799 17.7892 7.68079 17.7583C7.89352 17.7269 8.28181 17.6971 8.73261 17.6597C9.18341 17.6223 9.92824 17.5473 10.1597 17.5168C10.3914 17.4884 10.9673 17.3969 11.5809 17.2969C12.1945 17.1969 13.0363 17.0519 13.2271 17.0169C13.4178 16.9816 13.6411 16.9333 13.8946 16.8786C14.1481 16.8243 14.5876 16.7354 14.7435 16.7067C14.8993 16.6779 15.2593 16.6009 15.6784 16.5237C16.0976 16.4465 16.7723 16.3552 16.9686 16.3409C17.1649 16.3266 17.5855 16.3706 18.052 16.4017C18.5185 16.4327 19.0309 16.4507 19.4108 16.3842C19.7908 16.3177 21.882 15.568 21.882 15.568L21.8395 15.2211L19.0479 15.563L16.788 15.8397L14.5281 16.1165L12.2682 16.3932L10.0083 16.67L7.74837 16.9467L5.48846 17.2235L3.22852 17.4999Z" fill="black"/>
<path opacity="0.3" d="M3.22845 17.4998L21.8394 15.2207L22.0348 16.8159L3.42381 19.0951L3.22845 17.4998Z" fill="#4D585E"/>
<path opacity="0.2" d="M19.9127 3.60087L2.29431 5.75848L3.95051 19.2824L21.5689 17.1248L19.9127 3.60087Z" stroke="black"/>
<path opacity="0.6" d="M23.25 18.75H20.2895V20.625H23.25V18.75Z" fill="url(#paint9_radial)"/>
<path opacity="0.6" d="M0.749979 20.625H3.71051V18.75H0.749979V20.625Z" fill="url(#paint10_radial)"/>
<path opacity="0.6" d="M20.2895 18.75H3.71051V20.625H20.2895V18.75Z" fill="url(#paint11_linear)"/>
<path opacity="0.35" d="M22.125 19.4989L22.125 3.375C22.125 3.375 8.625 3.375 1.875 3.375C1.875 8.74999 1.875 19.5 1.875 19.5L22.125 19.4989Z" stroke="black" stroke-linejoin="round"/>
<path d="M22.125 19.4989L22.125 3.375C22.125 3.375 8.625 3.375 1.875 3.375C1.875 8.74999 1.875 19.5 1.875 19.5L22.125 19.4989Z" fill="url(#paint12_linear)"/>
<path opacity="0.4" d="M1.875 3.375V3.75H22.125V3.375H1.875Z" fill="white"/>
<path d="M2.625 18.75V4.125H21.375V18.75H2.625Z" fill="url(#paint13_linear)"/>
<path opacity="0.1" d="M7.50004 5.19644C6.02705 5.19644 4.82147 6.40202 4.82147 7.87501C4.82147 9.348 6.02705 10.5536 7.50004 10.5536C8.97303 10.5536 10.1786 9.348 10.1786 7.87501C10.1786 6.40202 8.97303 5.19644 7.50004 5.19644ZM7.50004 6.26787C8.39399 6.26787 9.10719 6.98107 9.10719 7.87501C9.10719 8.76896 8.39399 9.48216 7.50004 9.48216C6.6061 9.48216 5.8929 8.76896 5.8929 7.87501C5.8929 6.98107 6.6061 6.26787 7.50004 6.26787Z" fill="#FED8CD"/>
<path opacity="0.1" d="M7.50005 4.66071C5.73754 4.66071 4.28577 6.11248 4.28577 7.87499C4.28577 9.6375 5.73754 11.0893 7.50005 11.0893C9.26256 11.0893 10.7143 9.6375 10.7143 7.87499C10.7143 6.11248 9.26256 4.66071 7.50005 4.66071ZM7.50005 6.80356C8.10448 6.80356 8.57148 7.27057 8.57148 7.87499C8.57148 8.47942 8.10448 8.94642 7.50005 8.94642C6.89563 8.94642 6.42862 8.47942 6.42862 7.87499C6.42862 7.27057 6.89563 6.80356 7.50005 6.80356Z" fill="#FED8CD"/>
<path opacity="0.1" d="M7.5 4.125C5.44797 4.125 3.75 5.82297 3.75 7.875C3.75 9.92703 5.44797 11.625 7.5 11.625C9.55203 11.625 11.25 9.92703 11.25 7.875C11.25 5.82297 9.55203 4.125 7.5 4.125ZM7.5 7.33929C7.8149 7.33929 8.03571 7.5601 8.03571 7.875C8.03571 8.1899 7.8149 8.41071 7.5 8.41071C7.1851 8.41071 6.96429 8.1899 6.96429 7.875C6.96429 7.5601 7.1851 7.33929 7.5 7.33929Z" fill="#FED8CD"/>
<path fill-rule="evenodd" clip-rule="evenodd" d="M7.50003 5.73215C8.6835 5.73215 9.64289 6.69154 9.64289 7.87501C9.64289 9.05847 8.6835 10.0179 7.50003 10.0179C6.31657 10.0179 5.35718 9.05847 5.35718 7.87501C5.35718 6.69154 6.31657 5.73215 7.50003 5.73215Z" fill="#FCE94F"/>
<path fill-rule="evenodd" clip-rule="evenodd" d="M6.9375 6.5625C8.38725 6.5625 9.5625 7.73775 9.5625 9.1875C9.5625 10.6372 8.38725 11.8125 6.9375 11.8125C5.48775 11.8125 4.3125 10.6372 4.3125 9.1875C4.3125 7.73775 5.48775 6.5625 6.9375 6.5625Z" fill="#FCE94F"/>
<path d="M2.625 16.3929V15.8572C2.625 15.8572 3.97711 14.9643 4.35725 14.8864C4.73739 14.8086 5.18631 14.872 5.64769 14.959C6.10907 15.0458 6.79787 15.1632 7.01284 15.1705C7.22782 15.178 7.61684 15.1518 8.06885 15.1245C8.52085 15.0977 9.26927 15.073 9.50271 15.0757C9.73615 15.0757 10.3189 15.1079 10.9401 15.1458C11.5613 15.1838 12.4145 15.2474 12.6081 15.2651C12.8017 15.2828 13.0293 15.3155 13.2875 15.3511C13.5458 15.3865 13.9928 15.4399 14.151 15.4546C14.3091 15.469 14.6758 15.5194 15.1012 15.5586C15.5267 15.5977 16.2075 15.6111 16.4041 15.5966C16.6007 15.5822 17.0128 15.4366 17.4721 15.3024C17.9313 15.1682 18.4377 15.0454 18.8229 15.0758C19.2081 15.1063 21.375 15.8571 21.375 15.8571V16.3928H18.5625H16.2857H14.0089H11.7321H9.45536H7.17857H4.90179L2.625 16.3929Z" fill="black"/>
<path opacity="0.9" d="M2.625 16.3929V16.7424C2.625 16.7424 3.97711 17.3249 4.35725 17.3758C4.73739 17.4267 5.18631 17.3854 5.64769 17.3286C6.10907 17.272 6.79787 17.1954 7.01284 17.1906C7.22782 17.1853 7.61684 17.2029 8.06885 17.2206C8.52085 17.2383 9.26927 17.2544 9.50271 17.2522C9.73615 17.2522 10.3189 17.2313 10.9401 17.2067C11.5613 17.182 12.4145 17.1404 12.6081 17.1289C12.8017 17.1171 13.0293 17.0962 13.2875 17.0727C13.5458 17.0497 13.9928 17.0149 14.151 17.0053C14.3091 16.9956 14.6758 16.9629 15.1012 16.9373C15.5267 16.9116 16.2075 16.903 16.4041 16.9127C16.6007 16.9223 17.0128 17.0172 17.4721 17.1047C17.9313 17.1922 18.4377 17.2724 18.8229 17.2525C19.2081 17.2327 21.375 16.7428 21.375 16.7428V16.3933H18.5625H16.2857H14.0089H11.7321H9.45536H7.17857H4.90179L2.625 16.3929Z" fill="black"/>
<path opacity="0.3" d="M2.625 16.3929H21.375V18H2.625V16.3929Z" fill="#4D585E"/>
<path opacity="0.3" d="M20.875 4.625H3.125V18.25H20.875V4.625Z" stroke="black"/>
<path d="M12.5625 8.625H13.2868H12.5625ZM13.3931 8.625H14.0691H13.3931ZM14.1753 8.625H14.7741H14.1753ZM14.8707 8.625H15.1314H14.8707ZM15.2377 8.625H15.8171H15.2377ZM15.933 8.625H17.4589H15.933ZM17.5555 8.625H18.7241H17.5555ZM18.8207 8.625H19.178H18.8207ZM12.5625 8.8125H13.6924H12.5625ZM13.818 8.8125H14.3588H13.818ZM14.4554 8.8125H14.7258H14.4554ZM14.8321 8.8125H15.3246H14.8321ZM15.4308 8.8125H15.933H15.4308ZM16.0296 8.8125H16.8312H16.0296ZM16.9374 8.8125H17.9804H16.9374ZM18.077 8.8125H18.7724H18.077ZM18.869 8.8125H19.0428H18.869ZM12.5625 8.9986H13.5186H12.5625ZM13.6152 8.9986H15.1797H13.6152ZM15.2763 8.9986H16.0393H15.2763ZM16.1358 8.9986H16.8505H16.1358ZM16.9471 8.9986H17.5555H16.9471ZM17.6521 8.9986L18.6082 9.0014L17.6521 8.9986ZM18.6951 9.0014H20.25H18.6951ZM12.5625 9.1875H13.8856H12.5625ZM13.9918 9.1875H15.4212H13.9918ZM15.5177 9.1875H16.0875H15.5177ZM16.1841 9.1875H17.5265H16.1841ZM17.6135 9.1875H18.5309H17.6135ZM18.6372 9.1875H19.0042H18.6372ZM19.1007 9.1875H19.3035H19.1007ZM19.4098 9.1875H19.9796H19.4098ZM12.5625 9.375H13.055H12.5625ZM13.2096 9.375H15.0349H13.2096ZM12.5625 9.7486H13.5186H12.5625ZM13.6152 9.7486H15.1797H13.6152ZM15.2763 9.7486H16.0393H15.2763ZM16.1358 9.7486H16.8505H16.1358ZM16.9471 9.7486H17.5555H16.9471ZM17.6521 9.7486L18.6082 9.7514L17.6521 9.7486ZM18.6951 9.7514H20.25H18.6951ZM12.5625 9.9375H13.7794H12.5625ZM13.8759 9.9375H15.1797H13.8759ZM15.2763 9.9375H15.7785H15.2763ZM15.8751 9.9375H17.1016H15.8751ZM17.1982 9.9375H18.7434H17.1982ZM18.8496 9.9375H19.4194H18.8496ZM12.5625 10.125H13.8856H12.5625ZM13.9918 10.125H15.4212H13.9918ZM15.5177 10.125H16.0875H15.5177ZM16.1841 10.125H17.5265H16.1841ZM17.6135 10.125H18.5309H17.6135ZM18.6372 10.125H19.0042H18.6372ZM19.1007 10.125H19.3035H19.1007ZM19.4098 10.125H19.9796H19.4098ZM12.5625 10.3125H13.6924H12.5625ZM13.818 10.3125H14.3588H13.818ZM14.4554 10.3125H14.7258H14.4554ZM14.8321 10.3125H15.3246H14.8321ZM15.4308 10.3125H15.933H15.4308ZM16.0296 10.3125H16.8312H16.0296ZM16.9374 10.3125H17.9804H16.9374ZM18.077 10.3125H18.7724H18.077ZM18.869 10.3125H19.0428H18.869ZM12.5625 10.6861H13.5186H12.5625ZM13.6152 10.6861H15.1797H13.6152ZM15.2763 10.6861H16.0393H15.2763ZM16.1358 10.6861H16.8505H16.1358ZM16.9471 10.6861H17.5555H16.9471ZM17.6521 10.6861L18.6082 10.6889L17.6521 10.6861ZM18.6951 10.6889H20.25H18.6951ZM12.5625 10.875H13.6924H12.5625ZM13.818 10.875H14.3588H13.818ZM14.4554 10.875H14.7258H14.4554ZM14.8321 10.875H15.3246H14.8321ZM15.4308 10.875H15.933H15.4308ZM16.0296 10.875H16.8312H16.0296ZM16.9374 10.875H17.9804H16.9374ZM18.077 10.875H18.7724H18.077ZM18.869 10.875H19.0428H18.869ZM12.5625 11.0625H13.7601H12.5625ZM13.8663 11.0625H14.2429H13.8663ZM14.3395 11.0625H15.199H14.3395ZM15.2956 11.0625H16.5608H15.2956ZM16.667 11.0625H17.5265H16.667ZM17.6135 11.0625H17.797H17.6135ZM17.8935 11.0625H18.9848H17.8935ZM19.1007 11.0625H19.6705H19.1007ZM12.5625 11.25H13.7601H12.5625ZM13.8663 11.25H14.4071H13.8663ZM14.5037 11.25H15.3536H14.5037ZM15.4501 11.25H16.3676H15.4501ZM16.4739 11.25H16.8408H16.4739ZM16.9374 11.25H17.1402H16.9374ZM17.2465 11.25H17.8163H17.2465Z" stroke="url(#paint14_linear)"/>
<path d="M12.5625 11.8125H13.0395H12.5625ZM13.1095 11.8125H13.5546H13.1095ZM13.6246 11.8125H14.0189H13.6246ZM14.0825 11.8125H14.2542H14.0825ZM14.3242 11.8125H14.7058H14.3242ZM14.7821 11.8125H15.787H14.7821ZM15.8506 11.8125H16.6201H15.8506ZM16.6837 11.8125H16.919H16.6837ZM12.5625 12H13.3066H12.5625ZM13.3893 12H13.7454H13.3893ZM13.809 12H13.9871H13.809ZM14.0571 12H14.3814H14.0571ZM14.4514 12H14.7821H14.4514ZM14.8457 12H15.3736H14.8457ZM15.4435 12H16.1304H15.4435ZM16.194 12H16.6519H16.194ZM16.7155 12H16.83H16.7155ZM12.5625 12.1861H13.1921H12.5625ZM13.2557 12.1861H14.286H13.2557ZM14.3496 12.1861H14.8521H14.3496ZM14.9157 12.1861H15.3863H14.9157ZM15.4499 12.1861H15.8506H15.4499ZM15.9142 12.1861L16.5438 12.1889L15.9142 12.1861ZM16.6011 12.1889H17.625H16.6011ZM12.5625 12.375H13.4338H12.5625ZM13.5038 12.375H14.445H13.5038ZM14.5086 12.375H14.8839H14.5086ZM14.9475 12.375H15.8315H14.9475ZM15.8887 12.375H16.4929H15.8887ZM16.5629 12.375H16.8046H16.5629ZM16.8682 12.375H17.0017H16.8682ZM17.0717 12.375H17.4469H17.0717ZM12.5625 12.5625H12.8869H12.5625ZM12.9886 12.5625H14.1906H12.9886ZM12.5625 12.9361H13.1921H12.5625ZM13.2557 12.9361H14.286H13.2557ZM14.3496 12.9361H14.8521H14.3496ZM14.9157 12.9361H15.3863H14.9157ZM15.4499 12.9361H15.8506H15.4499ZM15.9142 12.9361L16.5438 12.9389L15.9142 12.9361ZM16.6011 12.9389H17.625H16.6011ZM12.5625 13.125H13.3639H12.5625ZM13.4274 13.125H14.286H13.4274ZM14.3496 13.125H14.6804H14.3496ZM14.744 13.125H15.5517H14.744ZM15.6153 13.125H16.6329H15.6153ZM16.7028 13.125H17.078H16.7028ZM12.5625 13.3125H13.4338H12.5625ZM13.5038 13.3125H14.445H13.5038ZM14.5086 13.3125H14.8839H14.5086ZM14.9475 13.3125H15.8315H14.9475ZM15.8887 13.3125H16.4929H15.8887ZM16.5629 13.3125H16.8046H16.5629ZM16.8682 13.3125H17.0017H16.8682ZM17.0717 13.3125H17.4469H17.0717ZM12.5625 13.5H13.3066H12.5625ZM13.3893 13.5H13.7454H13.3893ZM13.809 13.5H13.9871H13.809ZM14.0571 13.5H14.3814H14.0571ZM14.4514 13.5H14.7821H14.4514ZM14.8457 13.5H15.3736H14.8457ZM15.4435 13.5H16.1304H15.4435ZM16.194 13.5H16.6519H16.194ZM16.7155 13.5H16.83H16.7155ZM12.5625 13.8736H13.1921H12.5625ZM13.2557 13.8736H14.286H13.2557ZM14.3496 13.8736H14.8521H14.3496ZM14.9157 13.8736H15.3863H14.9157ZM15.4499 13.8736H15.8506H15.4499ZM15.9142 13.8736L16.5438 13.8764L15.9142 13.8736ZM16.6011 13.8764H17.625H16.6011ZM12.5625 14.0625H13.3066H12.5625ZM13.3893 14.0625H13.7454H13.3893ZM13.809 14.0625H13.9871H13.809ZM14.0571 14.0625H14.3814H14.0571ZM14.4514 14.0625H14.7821H14.4514ZM14.8457 14.0625H15.3736H14.8457ZM15.4435 14.0625H16.1304H15.4435ZM16.194 14.0625H16.6519H16.194ZM16.7155 14.0625H16.83H16.7155ZM12.5625 14.25H13.3511H12.5625ZM13.4211 14.25H13.6691H13.4211ZM13.7327 14.25H14.2988H13.7327ZM14.3624 14.25H15.1955H14.3624ZM15.2655 14.25H15.8315H15.2655ZM15.8887 14.25H16.0096H15.8887ZM16.0732 14.25H16.7919H16.0732ZM16.8682 14.25H17.2434H16.8682ZM12.5625 14.4375H13.3511H12.5625ZM13.4211 14.4375H13.7772H13.4211ZM13.8408 14.4375H14.4005H13.8408ZM14.4641 14.4375H15.0683H14.4641ZM15.1383 14.4375H15.3799H15.1383ZM15.4435 14.4375H15.5771H15.4435ZM15.6471 14.4375H16.0223H15.6471Z" stroke="url(#paint15_linear)"/>
<path opacity="0.6" d="M17.8125 11.625H12.375V14.625H17.8125V11.625Z" fill="#FCE94F"/>
<path fill-rule="evenodd" clip-rule="evenodd" d="M17.25 10.548L19.4457 12.75L23.2882 8.89655C23.6241 8.61917 23.2882 8.34606 23.2882 8.34606L21.6414 6.69459C21.6414 6.69459 21.3889 6.39739 21.0925 6.69459L17.25 10.548Z" stroke="#BF830A" stroke-width="2" stroke-linejoin="round"/>
<path fill-rule="evenodd" clip-rule="evenodd" d="M17.25 10.5512L19.4395 12.75L23.2711 8.90203C23.6455 8.62504 23.2711 8.35232 23.2711 8.35232L21.629 6.70319C21.629 6.70319 21.3574 6.38663 21.0816 6.70319L17.25 10.5512Z" fill="url(#paint16_linear)"/>
<path fill-rule="evenodd" clip-rule="evenodd" d="M17.1355 10.7548V11.807L18.1842 12.8592H19.2328L17.1355 10.7548Z" stroke="#838383" stroke-width="2" stroke-linejoin="round"/>
<path fill-rule="evenodd" clip-rule="evenodd" d="M17.1355 10.7548V11.807L18.1842 12.8592H19.2328L17.1355 10.7548Z" fill="#CECECE"/>
<path fill-rule="evenodd" clip-rule="evenodd" d="M15.9375 13.5364H16.9862L17.5105 13.0103L16.9862 12.4842L15.9375 13.5364Z" stroke="#BF830A" stroke-width="2" stroke-linejoin="round"/>
<path fill-rule="evenodd" clip-rule="evenodd" d="M17.1919 12.1949L16.7986 12.6717L17.323 13.1978L17.7654 12.8526L17.1919 12.1949Z" stroke="#838383" stroke-width="2"/>
<path opacity="0.1" d="M19.5842 14.25C21.3578 14.25 22.7957 13.9997 22.7957 13.691C22.7957 13.3823 21.3578 13.132 19.5842 13.132C17.8105 13.132 16.3726 13.3823 16.3726 13.691C16.3726 13.9997 17.8105 14.25 19.5842 14.25Z" fill="url(#paint17_radial)"/>
<path fill-rule="evenodd" clip-rule="evenodd" d="M17.1919 12.1949L16.7986 12.6717L17.323 13.1978L17.7654 12.8526L17.1919 12.1949Z" fill="#CECECE"/>
<path fill-rule="evenodd" clip-rule="evenodd" d="M15.9375 13.5364H16.9862L17.5105 13.0103L16.9862 12.4842L15.9375 13.5364Z" fill="#FCE94F"/>
<path opacity="0.5" d="M18.0364 10.2614L21.2971 6.98975" stroke="white" stroke-linecap="round"/>
<path opacity="0.5" d="M17.292 11.7281L17.2892 11.1341" stroke="white" stroke-linecap="round"/>
<path opacity="0.1" d="M19.7078 11.9763L22.9685 8.70465" stroke="black" stroke-linecap="round"/>
<path opacity="0.1" d="M18.3462 12.5845L18.8032 12.7508" stroke="black" stroke-linecap="round"/>
<path d="M9.22615 13.7236C9.22624 13.8328 9.15498 13.9408 9.01645 14.0416C8.87791 14.1425 8.67482 14.2341 8.41876 14.3113C8.1627 14.3884 7.85869 14.4496 7.5241 14.4914C7.18951 14.5332 6.83089 14.5547 6.46872 14.5547C6.10656 14.5547 5.74794 14.5332 5.41335 14.4914C5.07876 14.4496 4.77475 14.3884 4.51869 14.3113C4.26263 14.2341 4.05954 14.1425 3.921 14.0416C3.78247 13.9408 3.71121 13.8328 3.7113 13.7236C3.71121 13.6145 3.78247 13.5064 3.921 13.4056C4.05954 13.3048 4.26263 13.2132 4.51869 13.136C4.77475 13.0588 5.07876 12.9976 5.41335 12.9558C5.74794 12.9141 6.10656 12.8926 6.46872 12.8926C6.83089 12.8926 7.18951 12.9141 7.5241 12.9558C7.85869 12.9976 8.1627 13.0588 8.41876 13.136C8.67482 13.2132 8.87791 13.3048 9.01645 13.4056C9.15498 13.5064 9.22624 13.6145 9.22615 13.7236Z" fill="url(#paint18_radial)" fill-opacity="0.5"/>
<path d="M6.46874 6.75006C4.55483 6.75006 3 8.30487 3 10.2188C3 12.1327 4.55483 13.6875 6.46874 13.6875C8.38269 13.6875 9.9375 12.1327 9.9375 10.2188C9.9375 8.30487 8.38269 6.75006 6.46874 6.75006Z" fill="url(#paint19_radial)" fill-opacity="0.5"/>
<path opacity="0.75" d="M6.46853 8.84615C7.4643 8.84615 8.27153 8.47408 8.27153 8.0151C8.27153 7.55613 7.4643 7.18405 6.46853 7.18405C5.47276 7.18405 4.66553 7.55613 4.66553 8.0151C4.66553 8.47408 5.47276 8.84615 6.46853 8.84615Z" fill="url(#paint20_linear)"/>
<path opacity="0.25" d="M6.46874 6.75C4.55482 6.75 3 8.30481 3 10.2187C3 12.1327 4.55482 13.6875 6.46874 13.6875C8.38268 13.6875 9.9375 12.1327 9.9375 10.2187C9.9375 8.30481 8.38268 6.75 6.46874 6.75V6.75Z" stroke="black" stroke-width="0.999995" stroke-linecap="round" stroke-linejoin="round"/>
</g>
<defs>
<radialGradient id="paint0_radial" cx="0" cy="0" r="1" gradientUnits="userSpaceOnUse" gradientTransform="translate(22.1874 16.9989) rotate(-16.5074) scale(2.90431 0.9375)">
<stop stop-color="#181818"/>
<stop offset="1" stop-color="#181818" stop-opacity="0"/>
</radialGradient>
<radialGradient id="paint1_radial" cx="0" cy="0" r="1" gradientUnits="userSpaceOnUse" gradientTransform="translate(6.63083 21.6091) rotate(163.493) scale(2.90431 0.9375)">
<stop stop-color="#181818"/>
<stop offset="1" stop-color="#181818" stop-opacity="0"/>
</radialGradient>
<linearGradient id="paint2_linear" x1="15.2658" y1="20.0357" x2="14.7309" y2="18.2307" gradientUnits="userSpaceOnUse">
<stop stop-color="#181818" stop-opacity="0"/>
<stop offset="0.5" stop-color="#181818"/>
<stop offset="1" stop-color="#181818" stop-opacity="0"/>
</linearGradient>
<linearGradient id="paint3_linear" x1="15.4746" y1="22.8995" x2="8.65529" y2="-0.111327" gradientUnits="userSpaceOnUse">
<stop stop-color="#EDEDED"/>
<stop offset="1" stop-color="white"/>
</linearGradient>
<linearGradient id="paint4_linear" x1="10.872" y1="18.1376" x2="6.15492" y2="2.22055" gradientUnits="userSpaceOnUse">
<stop stop-color="#16538C"/>
<stop offset="0.362069" stop-color="#3594CA"/>
<stop offset="1" stop-color="#4EDFF3"/>
</linearGradient>
<radialGradient id="paint5_radial" cx="0" cy="0" r="1" gradientUnits="userSpaceOnUse" gradientTransform="translate(21.1584 18.6233) rotate(-6.98189) scale(2.96613 0.937499)">
<stop stop-color="#181818"/>
<stop offset="1" stop-color="#181818" stop-opacity="0"/>
</radialGradient>
<radialGradient id="paint6_radial" cx="0" cy="0" r="1" gradientUnits="userSpaceOnUse" gradientTransform="translate(4.71054 20.6376) rotate(173.018) scale(2.96613 0.9375)">
<stop stop-color="#181818"/>
<stop offset="1" stop-color="#181818" stop-opacity="0"/>
</radialGradient>
<linearGradient id="paint7_linear" x1="13.6712" y1="20.4923" x2="13.4423" y2="18.6236" gradientUnits="userSpaceOnUse">
<stop stop-color="#181818" stop-opacity="0"/>
<stop offset="0.5" stop-color="#181818"/>
<stop offset="1" stop-color="#181818" stop-opacity="0"/>
</linearGradient>
<linearGradient id="paint8_linear" x1="9.57451" y1="17.9028" x2="7.55652" y2="1.42453" gradientUnits="userSpaceOnUse">
<stop stop-color="#16538C"/>
<stop offset="0.362069" stop-color="#3594CA"/>
<stop offset="1" stop-color="#4EDFF3"/>
</linearGradient>
<radialGradient id="paint9_radial" cx="0" cy="0" r="1" gradientUnits="userSpaceOnUse" gradientTransform="translate(20.2853 19.6875) scale(2.96613 0.9375)">
<stop stop-color="#181818"/>
<stop offset="1" stop-color="#181818" stop-opacity="0"/>
</radialGradient>
<radialGradient id="paint10_radial" cx="0" cy="0" r="1" gradientUnits="userSpaceOnUse" gradientTransform="translate(3.71467 19.6875) rotate(180) scale(2.96613 0.9375)">
<stop stop-color="#181818"/>
<stop offset="1" stop-color="#181818" stop-opacity="0"/>
</radialGradient>
<linearGradient id="paint11_linear" x1="12.6265" y1="20.6324" x2="12.6265" y2="18.7499" gradientUnits="userSpaceOnUse">
<stop stop-color="#181818" stop-opacity="0"/>
<stop offset="0.5" stop-color="#181818"/>
<stop offset="1" stop-color="#181818" stop-opacity="0"/>
</linearGradient>
<linearGradient id="paint12_linear" x1="12" y1="23.4375" x2="12" y2="-0.5625" gradientUnits="userSpaceOnUse">
<stop stop-color="#EDEDED"/>
<stop offset="1" stop-color="white"/>
</linearGradient>
<linearGradient id="paint13_linear" x1="8.875" y1="17.5642" x2="8.875" y2="0.962837" gradientUnits="userSpaceOnUse">
<stop stop-color="#16538C"/>
<stop offset="0.362069" stop-color="#3594CA"/>
<stop offset="1" stop-color="#4EDFF3"/>
</linearGradient>
<linearGradient id="paint14_linear" x1="15.3507" y1="11.8107" x2="15.3507" y2="7.83346" gradientUnits="userSpaceOnUse">
<stop stop-color="#D4D4D4"/>
<stop offset="1" stop-color="#FAFAFA"/>
</linearGradient>
<linearGradient id="paint15_linear" x1="14.3986" y1="14.9982" x2="14.3986" y2="11.021" gradientUnits="userSpaceOnUse">
<stop stop-color="#D4D4D4"/>
<stop offset="1" stop-color="#FAFAFA"/>
</linearGradient>
<linearGradient id="paint16_linear" x1="19.4668" y1="8.41217" x2="21.6367" y2="10.4164" gradientUnits="userSpaceOnUse">
<stop stop-color="#FCE94F"/>
<stop offset="1" stop-color="#D7B031"/>
</linearGradient>
<radialGradient id="paint17_radial" cx="0" cy="0" r="1" gradientUnits="userSpaceOnUse" gradientTransform="translate(19.5842 13.691) scale(3.21153 0.558978)">
<stop/>
<stop offset="1" stop-opacity="0"/>
</radialGradient>
<radialGradient id="paint18_radial" cx="0" cy="0" r="1" gradientUnits="userSpaceOnUse" gradientTransform="translate(6.46873 13.7236) scale(2.75742 0.83084)">
<stop stop-color="#3D3D3D"/>
<stop offset="0.5" stop-color="#686868" stop-opacity="0.498039"/>
<stop offset="1" stop-color="#686868" stop-opacity="0"/>
</radialGradient>
<radialGradient id="paint19_radial" cx="0" cy="0" r="1" gradientUnits="userSpaceOnUse" gradientTransform="translate(6.46883 7.1168) rotate(90) scale(9.96916 13.1592)">
<stop stop-color="#C8C8C8"/>
<stop offset="0.625454" stop-color="#FCFCFC"/>
<stop offset="1" stop-color="#89898B"/>
</radialGradient>
<linearGradient id="paint20_linear" x1="6.57588" y1="8.91658" x2="6.57588" y2="7.16561" gradientUnits="userSpaceOnUse">
<stop stop-color="white" stop-opacity="0.2"/>
<stop offset="1" stop-color="white" stop-opacity="0.998934"/>
</linearGradient>
<clipPath id="clip0">
<rect width="24" height="24" fill="white"/>
</clipPath>
</defs>
</svg>
