<svg width="64" height="64" viewBox="0 0 64 64" fill="none" xmlns="http://www.w3.org/2000/svg">
<g clip-path="url(#clip0)">
<path opacity="0.6" d="M64.1491 45.7997L56.3262 46.8619L56.9989 51.8165L64.8219 50.7542L64.1491 45.7997Z" fill="url(#paint0_radial)"/>
<path opacity="0.6" d="M5.36747 58.8274L13.1904 57.7652L12.5177 52.8106L4.6947 53.8729L5.36747 58.8274Z" fill="url(#paint1_radial)"/>
<path opacity="0.6" d="M56.3263 46.8619L12.5177 52.8106L13.1905 57.7652L56.999 51.8165L56.3263 46.8619Z" fill="url(#paint2_linear)"/>
<path opacity="0.35" d="M61.445 48.1822L55.6597 5.5762C55.6597 5.5762 19.9871 10.4201 2.15076 12.8421C4.07936 27.0451 7.93657 55.4511 7.93657 55.4511L61.445 48.1822Z" stroke="black" stroke-width="2" stroke-linejoin="round"/>
<path d="M61.445 48.1822L55.6597 5.5762C55.6597 5.5762 19.9871 10.4201 2.15076 12.8421C4.07936 27.0451 7.93657 55.4511 7.93657 55.4511L61.445 48.1822Z" fill="url(#paint3_linear)"/>
<path opacity="0.4" d="M61.445 48.1822L55.6597 5.5762C55.6597 5.5762 19.9871 10.4201 2.15076 12.8421C4.07936 27.0451 7.93657 55.4511 7.93657 55.4511L61.445 48.1822Z" stroke="white" stroke-width="2" stroke-linejoin="round"/>
<path opacity="0.4" d="M2.15076 12.8421L2.28531 13.833L55.7943 6.56711L55.6597 5.5762L2.15076 12.8421Z" fill="white"/>
<path d="M9.64921 53.2002L4.40161 14.5548L53.9469 7.82712L59.1945 46.4725L9.64921 53.2002Z" fill="url(#paint4_linear)"/>
<path opacity="0.1" d="M17.668 15.6367C13.7757 16.1653 11.0227 19.7835 11.5512 23.6757C12.0797 27.568 15.6979 30.3211 19.5902 29.7925C23.4824 29.264 26.2355 25.6458 25.707 21.7535C25.1785 17.8613 21.5602 15.1082 17.668 15.6367ZM18.0524 18.4679C20.4146 18.1471 22.5551 19.7758 22.8758 22.138C23.1966 24.5002 21.5679 26.6406 19.2057 26.9614C16.8436 27.2821 14.7031 25.6535 14.3823 23.2913C14.0616 20.9291 15.6902 18.7887 18.0524 18.4679Z" fill="#FED8CD"/>
<path opacity="0.1" d="M17.4757 14.2212C12.8184 14.8536 9.50309 19.2107 10.1355 23.868C10.7679 28.5253 15.125 31.8405 19.7823 31.2081C24.4396 30.5757 27.7549 26.2186 27.1225 21.5613C26.4901 16.904 22.1329 13.5888 17.4757 14.2212ZM18.2445 19.8835C19.8417 19.6666 21.2433 20.7331 21.4601 22.3302C21.677 23.9273 20.6106 25.3289 19.0134 25.5458C17.4163 25.7627 16.0147 24.6962 15.7978 23.0991C15.5809 21.5019 16.6474 20.1004 18.2445 19.8835Z" fill="#FED8CD"/>
<path opacity="0.1" d="M17.2835 12.8056C11.8611 13.5419 7.98364 18.6379 8.71993 24.0602C9.45622 29.4825 14.5522 33.36 19.9745 32.6237C25.3969 31.8874 29.2743 26.7914 28.5381 21.3691C27.8018 15.9468 22.7058 12.0693 17.2835 12.8056ZM18.4368 21.2991C19.2689 21.1861 19.9316 21.6903 20.0446 22.5224C20.1576 23.3545 19.6533 24.0172 18.8212 24.1302C17.9891 24.2432 17.3264 23.739 17.2134 22.9069C17.1004 22.0748 17.6047 21.4121 18.4368 21.2991Z" fill="#FED8CD"/>
<path fill-rule="evenodd" clip-rule="evenodd" d="M17.8602 17.0524C20.9874 16.6277 23.8668 18.8186 24.2914 21.9458C24.716 25.073 22.5252 27.9524 19.398 28.377C16.2707 28.8017 13.3914 26.6108 12.9668 23.4836C12.5421 20.3564 14.733 17.477 17.8602 17.0524Z" fill="#FCE94F"/>
<path fill-rule="evenodd" clip-rule="evenodd" d="M16.6717 19.4483C20.5025 18.9281 24.0297 21.612 24.5499 25.4428C25.0701 29.2736 22.3863 32.8008 18.5554 33.321C14.7246 33.8412 11.1974 31.1574 10.6772 27.3265C10.157 23.4957 12.8409 19.9685 16.6717 19.4483Z" fill="#FCE94F"/>
<path d="M8.80353 46.9716L8.61131 45.556C8.61131 45.556 11.8638 42.7117 12.8403 42.3694C13.8169 42.0272 15.0259 42.0337 16.2762 42.0982C17.5265 42.162 19.3888 42.225 19.9594 42.1673C20.5302 42.11 21.5487 41.901 22.7333 41.6666C23.9181 41.4337 25.8869 41.1 26.5047 41.0233C27.1215 40.9396 28.673 40.8154 30.3281 40.6927C31.9832 40.5703 34.2606 40.4321 34.7785 40.4096C35.2964 40.3869 35.9094 40.3916 36.6046 40.393C37.2996 40.3938 38.5001 40.3745 38.9233 40.3566C39.3464 40.338 40.3334 40.3397 41.4716 40.2905C42.6098 40.2412 44.4136 40.0323 44.9279 39.9235C45.4423 39.8148 46.479 39.2822 47.6444 38.7628C48.8098 38.2435 50.1039 37.7372 51.1326 37.6793C52.1614 37.6218 58.1566 38.8282 58.1566 38.8282L58.3488 40.2438L50.917 41.2529L44.9008 42.0699L38.8846 42.8868L32.8684 43.7037L26.8522 44.5207L20.8359 45.3376L14.8197 46.1545L8.80353 46.9716Z" fill="black"/>
<path opacity="0.9" d="M8.80347 46.9716L8.92889 47.8953C8.92889 47.8953 12.7107 48.9493 13.7335 48.9472C14.7562 48.9453 15.9277 48.6752 17.1264 48.3596C18.3253 48.0445 20.1179 47.5949 20.6842 47.5051C21.2503 47.4138 22.2847 47.321 23.4854 47.2055C24.6861 47.09 26.6695 46.864 27.2856 46.7746C27.9024 46.6908 29.4348 46.4265 31.0675 46.1385C32.7001 45.8505 34.9398 45.4343 35.4471 45.3343C35.9545 45.2337 36.5483 45.0968 37.2222 44.9422C37.8963 44.7886 39.0652 44.5362 39.4797 44.4541C39.8941 44.3719 40.8513 44.154 41.9662 43.9337C43.0812 43.7131 44.8771 43.4461 45.4001 43.4011C45.9231 43.356 47.0461 43.4587 48.291 43.5252C49.536 43.5917 50.9029 43.6218 51.9136 43.4312C52.9243 43.2406 58.4743 41.1684 58.4743 41.1684L58.3489 40.2449L50.9171 41.2541L44.9009 42.071L38.8847 42.8879L32.8685 43.7049L26.8523 44.5218L20.836 45.3387L14.8198 46.1557L8.80347 46.9716Z" fill="black"/>
<path opacity="0.3" d="M8.80347 46.9716L58.3488 40.2439L58.9254 44.4906L9.38013 51.2183L8.80347 46.9716Z" fill="#4D585E"/>
<path opacity="0.2" d="M9.64921 53.2002L4.40161 14.5548L53.9469 7.82712L59.1945 46.4725L9.64921 53.2002Z" stroke="black" stroke-width="2"/>
<path opacity="0.6" d="M65.8781 40.7339L58.4666 42.9304L59.8873 47.7243L67.2988 45.5278L65.8781 40.7339Z" fill="url(#paint5_radial)"/>
<path opacity="0.6" d="M10.9707 62.2209L18.3823 60.0244L16.9616 55.2305L9.55003 57.427L10.9707 62.2209Z" fill="url(#paint6_radial)"/>
<path opacity="0.6" d="M58.4665 42.9304L16.9615 55.2305L18.3822 60.0244L59.8872 47.7243L58.4665 42.9304Z" fill="url(#paint7_linear)"/>
<path opacity="0.35" d="M63.629 43.4833L51.4119 2.25847C51.4119 2.25847 17.6151 12.2743 0.716675 17.2822C4.78934 31.0248 12.9347 58.5099 12.9347 58.5099L63.629 43.4833Z" stroke="black" stroke-width="2" stroke-linejoin="round"/>
<path d="M63.629 43.4833L51.4119 2.25847C51.4119 2.25847 17.6151 12.2743 0.716675 17.2822C4.78934 31.0248 12.9347 58.5099 12.9347 58.5099L63.629 43.4833Z" fill="url(#paint8_linear)"/>
<path opacity="0.4" d="M63.629 43.4833L51.4119 2.25847C51.4119 2.25847 17.6151 12.2743 0.716675 17.2822C4.78934 31.0248 12.9347 58.5099 12.9347 58.5099L63.629 43.4833Z" stroke="white" stroke-width="2" stroke-linejoin="round"/>
<path opacity="0.4" d="M0.716675 17.2822L1.00081 18.241L51.696 3.21726L51.4119 2.25847L0.716675 17.2822Z" fill="white"/>
<path d="M14.244 56.0359L3.1626 18.6433L50.1026 4.73246L61.1841 42.125L14.244 56.0359Z" fill="url(#paint9_linear)"/>
<path opacity="0.1" d="M16.1789 17.7659C12.4913 18.8587 10.3866 22.8355 11.5027 26.6016C12.6188 30.3677 16.5504 32.5556 20.238 31.4628C23.9256 30.3699 26.0302 26.3931 24.9141 22.6271C23.7981 18.861 19.8664 16.673 16.1789 17.7659ZM16.9907 20.5053C19.2287 19.842 21.5545 21.1364 22.2319 23.422C22.9092 25.7076 21.6641 28.0602 19.4262 28.7234C17.1882 29.3866 14.8623 28.0923 14.185 25.8067C13.5077 23.5211 14.7527 21.1685 16.9907 20.5053Z" fill="#FED8CD"/>
<path opacity="0.1" d="M15.7729 16.3962C11.3605 17.7038 8.82609 22.4927 10.1616 26.9991C11.497 31.5054 16.2315 34.1401 20.6439 32.8325C25.0563 31.5248 27.5907 26.7359 26.2553 22.2296C24.9198 17.7233 20.1853 15.0886 15.7729 16.3962ZM17.3966 21.875C18.9097 21.4265 20.4327 22.2741 20.8907 23.8194C21.3487 25.3648 20.5334 26.9053 19.0202 27.3537C17.5071 27.8021 15.9841 26.9546 15.5261 25.4092C15.0682 23.8639 15.8834 22.3234 17.3966 21.875Z" fill="#FED8CD"/>
<path opacity="0.1" d="M15.367 15.0265C10.2298 16.5489 7.26556 22.15 8.8204 27.3965C10.3752 32.6431 15.9126 35.7246 21.0498 34.2022C26.187 32.6797 29.1512 27.0787 27.5964 21.8322C26.0416 16.5856 20.5042 13.5041 15.367 15.0265ZM17.8025 23.2446C18.5908 23.011 19.3109 23.4118 19.5495 24.2169C19.7882 25.022 19.4027 25.7504 18.6143 25.984C17.826 26.2177 17.1059 25.8169 16.8673 25.0118C16.6287 24.2067 17.0141 23.4783 17.8025 23.2446Z" fill="#FED8CD"/>
<path fill-rule="evenodd" clip-rule="evenodd" d="M16.5848 19.1356C19.5476 18.2576 22.6763 19.9987 23.573 23.0246C24.4697 26.0504 22.7949 29.2151 19.8321 30.0931C16.8693 30.9712 13.7406 29.23 12.8439 26.2042C11.9471 23.1784 13.622 20.0136 16.5848 19.1356Z" fill="#FCE94F"/>
<path fill-rule="evenodd" clip-rule="evenodd" d="M15.8057 21.676C19.4351 20.6004 23.2678 22.7333 24.3663 26.4399C25.4648 30.1466 23.4131 34.0233 19.7837 35.0989C16.1543 36.1745 12.3216 34.0416 11.2231 30.335C10.1246 26.6283 12.1763 22.7515 15.8057 21.676Z" fill="#FCE94F"/>
<path d="M12.458 50.0093L12.0521 48.6396C12.0521 48.6396 14.7606 45.3537 15.6532 44.8725C16.5459 44.3913 17.7178 44.2204 18.9388 44.1007C20.1596 43.9803 21.9729 43.7694 22.5167 43.6286C23.0606 43.4883 24.0146 43.1326 25.1254 42.7274C26.2367 42.3236 28.0917 41.7053 28.6781 41.5389C29.2625 41.3658 30.7458 41.0156 32.3297 40.6517C33.9137 40.288 36.0979 39.8175 36.596 39.7193C37.094 39.6209 37.6885 39.5356 38.362 39.4351C39.0352 39.3339 40.1949 39.1388 40.602 39.059C41.0089 38.9786 41.965 38.8355 43.0598 38.62C44.1544 38.4043 45.869 37.9334 46.3502 37.7506C46.8315 37.5677 47.7529 36.8897 48.8009 36.2059C49.849 35.5222 51.0237 34.8324 52.0111 34.6243C52.9985 34.4166 58.9921 34.7286 58.9921 34.7286L59.398 36.0982L52.357 38.1849L46.6571 39.8741L40.9573 41.5632L35.2574 43.2524L29.5576 44.9416L23.8577 46.6308L18.1579 48.32L12.458 50.0093Z" fill="black"/>
<path opacity="0.9" d="M12.458 50.0093L12.7229 50.903C12.7229 50.903 16.5492 51.3891 17.5394 51.2371C18.5296 51.0851 19.6222 50.6466 20.7342 50.1591C21.8464 49.672 23.5127 48.9651 24.0473 48.7935C24.5814 48.6203 25.5687 48.3769 26.7137 48.0867C27.8587 47.7966 29.7445 47.2824 30.3273 47.1037C30.9117 46.9305 32.3548 46.4448 33.8913 45.9209C35.4277 45.397 37.5322 44.6575 38.0081 44.4843C38.4838 44.3106 39.0377 44.0883 39.6664 43.8367C40.2954 43.5862 41.3883 43.1655 41.7769 43.0237C42.1656 42.8817 43.0587 42.5261 44.1044 42.145C45.15 41.7636 46.8479 41.2366 47.3474 41.1154C47.8469 40.9942 48.9505 40.9308 50.1665 40.8139C51.3826 40.697 52.7111 40.5262 53.6604 40.1897C54.6097 39.8533 59.6631 36.9929 59.6631 36.9929L59.3983 36.0993L52.3573 38.186L46.6575 39.8751L40.9576 41.5643L35.2577 43.2535L29.5579 44.9427L23.858 46.6319L18.1582 48.321L12.458 50.0093Z" fill="black"/>
<path opacity="0.3" d="M12.458 50.0092L59.398 36.0984L60.6158 40.2074L13.6757 54.1183L12.458 50.0092Z" fill="#4D585E"/>
<path opacity="0.2" d="M14.244 56.0359L3.1626 18.6433L50.1026 4.73246L61.1841 42.125L14.244 56.0359Z" stroke="black" stroke-width="2"/>
<path opacity="0.6" d="M64.8026 44.1654L57.043 45.6197L57.9641 50.5341L65.7237 49.0798L64.8026 44.1654Z" fill="url(#paint10_radial)"/>
<path opacity="0.6" d="M6.7505 60.1329L14.5101 58.6786L13.589 53.7641L5.8294 55.2185L6.7505 60.1329Z" fill="url(#paint11_radial)"/>
<path opacity="0.6" d="M57.0429 45.6197L13.589 53.7641L14.5101 58.6786L57.964 50.5342L57.0429 45.6197Z" fill="url(#paint12_linear)"/>
<path opacity="0.35" d="M62.2217 46.6808L54.3009 4.41972C54.3009 4.41972 18.917 11.0516 1.2251 14.3675C3.86556 28.4555 9.1465 56.6316 9.1465 56.6316L62.2217 46.6808Z" stroke="black" stroke-width="2" stroke-linejoin="round"/>
<path d="M62.2217 46.6808L54.3009 4.41972C54.3009 4.41972 18.917 11.0516 1.2251 14.3675C3.86556 28.4555 9.1465 56.6316 9.1465 56.6316L62.2217 46.6808Z" fill="url(#paint13_linear)"/>
<path opacity="0.4" d="M62.2217 46.6808L54.3009 4.41972C54.3009 4.41972 18.917 11.0516 1.2251 14.3675C3.86556 28.4555 9.1465 56.6316 9.1465 56.6316L62.2217 46.6808Z" stroke="white" stroke-width="2" stroke-linejoin="round"/>
<path opacity="0.4" d="M1.2251 14.3675L1.40932 15.3504L54.4851 5.4026L54.3009 4.41972L1.2251 14.3675Z" fill="white"/>
<path d="M10.7439 54.2974L3.55933 15.9649L52.7036 6.75394L59.8881 45.0865L10.7439 54.2974Z" fill="url(#paint14_linear)"/>
<path opacity="0.1" d="M16.8631 16.3783C13.0024 17.1019 10.4348 20.854 11.1584 24.7147C11.882 28.5755 15.6341 31.1431 19.4948 30.4195C23.3556 29.6959 25.9232 25.9438 25.1996 22.083C24.476 18.2223 20.7239 15.6547 16.8631 16.3783ZM17.3895 19.1865C19.7325 18.7474 21.9522 20.2663 22.3914 22.6094C22.8305 24.9524 21.3116 27.1721 18.9685 27.6112C16.6254 28.0504 14.4058 26.5314 13.9666 24.1884C13.5275 21.8453 15.0464 19.6257 17.3895 19.1865Z" fill="#FED8CD"/>
<path opacity="0.1" d="M16.6 14.9741C11.9804 15.84 8.88848 20.3583 9.75431 24.9779C10.6201 29.5975 15.1385 32.6894 19.7581 31.8236C24.3776 30.9578 27.4696 26.4394 26.6038 21.8199C25.7379 17.2003 21.2196 14.1083 16.6 14.9741ZM17.6527 20.5906C19.2369 20.2937 20.6904 21.2883 20.9873 22.8725C21.2842 24.4568 20.2896 25.9102 18.7054 26.2071C17.1212 26.504 15.6677 25.5094 15.3708 23.9252C15.0739 22.341 16.0685 20.8876 17.6527 20.5906Z" fill="#FED8CD"/>
<path opacity="0.1" d="M16.3368 13.57C10.9584 14.5781 7.34206 19.8626 8.35012 25.2411C9.35818 30.6195 14.6427 34.2358 20.0212 33.2277C25.3996 32.2197 29.0159 26.9351 28.0078 21.5567C26.9998 16.1782 21.7152 12.562 16.3368 13.57ZM17.9158 21.9947C18.7412 21.8401 19.4284 22.3103 19.5831 23.1357C19.7378 23.9611 19.2675 24.6483 18.4421 24.803C17.6168 24.9577 16.9295 24.4874 16.7749 23.662C16.6202 22.8367 17.0904 22.1494 17.9158 21.9947Z" fill="#FED8CD"/>
<path fill-rule="evenodd" clip-rule="evenodd" d="M17.1264 17.7824C20.2283 17.201 23.2142 19.2443 23.7955 22.3462C24.3769 25.4481 22.3336 28.434 19.2317 29.0154C16.1298 29.5968 13.1439 27.5535 12.5626 24.4516C11.9812 21.3497 14.0245 18.3638 17.1264 17.7824Z" fill="#FCE94F"/>
<path fill-rule="evenodd" clip-rule="evenodd" d="M16.0599 20.2351C19.8597 19.5229 23.5174 22.0259 24.2296 25.8258C24.9418 29.6256 22.4388 33.2833 18.6389 33.9955C14.8391 34.7077 11.1814 32.2047 10.4692 28.4048C9.75703 24.605 12.2601 20.9473 16.0599 20.2351Z" fill="#FCE94F"/>
<path d="M9.58583 48.1193L9.32266 46.7152C9.32266 46.7152 12.428 43.7108 13.3861 43.3199C14.3442 42.929 15.552 42.8747 16.804 42.8763C18.0559 42.8771 19.919 42.8463 20.486 42.76C21.0532 42.674 22.0599 42.4141 23.2312 42.1205C24.4028 41.8282 26.3523 41.396 26.9654 41.2883C27.5773 41.1736 29.1205 40.9716 30.7673 40.7658C32.4142 40.5604 34.6818 40.3077 35.1979 40.2593C35.714 40.2105 36.3265 40.1844 37.0208 40.1509C37.715 40.1167 38.9131 40.0371 39.3348 39.9978C39.7564 39.9581 40.7422 39.9101 41.8765 39.8037C43.0108 39.6972 44.8018 39.3979 45.3101 39.2634C45.8183 39.1289 46.8269 38.5448 47.9647 37.9674C49.1025 37.3902 50.3695 36.8195 51.394 36.7099C52.4186 36.6007 58.4669 37.5041 58.4669 37.5041L58.7301 38.9082L51.3584 40.2899L45.3909 41.4083L39.4234 42.5268L33.4559 43.6453L27.4884 44.7637L21.5208 45.8822L15.5533 47.0007L9.58583 48.1193Z" fill="black"/>
<path opacity="0.9" d="M9.58582 48.1193L9.75753 49.0355C9.75753 49.0355 13.5876 49.8979 14.6089 49.8445C15.6303 49.7911 16.7867 49.4624 17.968 49.087C19.1495 48.7119 20.9173 48.1727 21.4784 48.0546C22.0392 47.935 23.0675 47.7902 24.2609 47.6145C25.4543 47.4388 27.4238 47.1133 28.0346 46.993C28.6465 46.8783 30.1637 46.5372 31.7797 46.1675C33.3958 45.7977 35.6117 45.2695 36.1134 45.1441C36.615 45.0181 37.2012 44.8515 37.8665 44.6632C38.5321 44.4759 39.6867 44.165 40.0966 44.0622C40.5064 43.9592 41.4513 43.6935 42.5538 43.4173C43.6563 43.141 45.4365 42.784 45.9565 42.7127C46.4766 42.6414 47.6034 42.6875 48.8501 42.6913C50.0968 42.6951 51.4635 42.6564 52.4633 42.4153C53.4632 42.1741 58.902 39.8254 58.902 39.8254L58.7303 38.9093L51.3586 40.291L45.3911 41.4094L39.4236 42.5279L33.4561 43.6464L27.4886 44.7649L21.521 45.8833L15.5535 47.0018L9.58582 48.1193Z" fill="black"/>
<path opacity="0.3" d="M9.58582 48.1193L58.7301 38.9083L59.5196 43.1207L10.3753 52.3316L9.58582 48.1193Z" fill="#4D585E"/>
<path opacity="0.2" d="M10.7439 54.2974L3.55933 15.9649L52.7036 6.75394L59.8881 45.0865L10.7439 54.2974Z" stroke="black" stroke-width="2"/>
<path opacity="0.6" d="M62.8398 48.5202L54.9543 48.904L55.1974 53.8981L63.0828 53.5143L62.8398 48.5202Z" fill="url(#paint15_radial)"/>
<path opacity="0.6" d="M3.15377 56.4313L11.0392 56.0475L10.7961 51.0534L2.91068 51.4372L3.15377 56.4313Z" fill="url(#paint16_radial)"/>
<path opacity="0.6" d="M54.9543 48.904L10.796 51.0534L11.0391 56.0475L55.1974 53.8981L54.9543 48.904Z" fill="url(#paint17_linear)"/>
<path opacity="0.35" d="M59.9403 50.6607L57.85 7.71456C57.85 7.71456 21.8925 9.46477 3.91382 10.3399C4.61066 24.6562 6.00435 53.289 6.00435 53.289L59.9403 50.6607Z" stroke="black" stroke-width="2" stroke-linejoin="round"/>
<path d="M59.9403 50.6607L57.85 7.71456C57.85 7.71456 21.8925 9.46477 3.91382 10.3399C4.61066 24.6562 6.00435 53.289 6.00435 53.289L59.9403 50.6607Z" fill="url(#paint18_linear)"/>
<path opacity="0.4" d="M59.9403 50.6607L57.85 7.71456C57.85 7.71456 21.8925 9.46477 3.91382 10.3399C4.61066 24.6562 6.00435 53.289 6.00435 53.289L59.9403 50.6607Z" stroke="white" stroke-width="2" stroke-linejoin="round"/>
<path opacity="0.4" d="M3.91382 10.3399L3.96244 11.3387L57.8986 8.71338L57.85 7.71456L3.91382 10.3399Z" fill="white"/>
<path d="M7.90485 51.1941L6.00879 12.2403L55.9497 9.80942L57.8457 48.7633L7.90485 51.1941Z" fill="url(#paint19_linear)"/>
<path opacity="0.1" d="M19.1323 14.462C15.209 14.653 12.1542 18.0203 12.3452 21.9437C12.5362 25.867 15.9035 28.9218 19.8269 28.7308C23.7502 28.5399 26.805 25.1725 26.614 21.2491C26.423 17.3258 23.0557 14.271 19.1323 14.462ZM19.2712 17.3158C21.6523 17.1999 23.6443 19.007 23.7602 21.3881C23.8761 23.7691 22.069 25.7612 19.688 25.8771C17.3069 25.993 15.3148 24.1858 15.199 21.8048C15.0831 19.4237 16.8902 17.4317 19.2712 17.3158Z" fill="#FED8CD"/>
<path opacity="0.1" d="M19.0629 13.0351C14.3684 13.2636 10.6898 17.3187 10.9183 22.0131C11.1468 26.7076 15.2018 30.3862 19.8963 30.1577C24.5908 29.9292 28.2694 25.8742 28.0409 21.1797C27.8124 16.4852 23.7573 12.8066 19.0629 13.0351ZM19.3407 18.7427C20.9506 18.6643 22.255 19.8476 22.3334 21.4575C22.4117 23.0674 21.2284 24.3718 19.6185 24.4502C18.0086 24.5285 16.7042 23.3452 16.6258 21.7353C16.5475 20.1254 17.7308 18.821 19.3407 18.7427Z" fill="#FED8CD"/>
<path opacity="0.1" d="M18.9934 11.6083C13.5278 11.8743 9.22538 16.617 9.49142 22.0826C9.75745 27.5482 14.5001 31.8506 19.9658 31.5846C25.4314 31.3186 29.7338 26.5759 29.4678 21.1103C29.2017 15.6446 24.459 11.3422 18.9934 11.6083ZM19.4101 20.1695C20.2489 20.1287 20.8656 20.6882 20.9065 21.527C20.9473 22.3657 20.3878 22.9825 19.549 23.0233C18.7103 23.0641 18.0935 22.5046 18.0527 21.6659C18.0119 20.8271 18.5714 20.2104 19.4101 20.1695Z" fill="#FED8CD"/>
<path fill-rule="evenodd" clip-rule="evenodd" d="M19.2018 15.8889C22.354 15.7355 25.0337 18.1665 25.1871 21.3187C25.3406 24.4708 22.9096 27.1506 19.7574 27.304C16.6052 27.4574 13.9255 25.0265 13.7721 21.8743C13.6186 18.7221 16.0496 16.0424 19.2018 15.8889Z" fill="#FCE94F"/>
<path fill-rule="evenodd" clip-rule="evenodd" d="M17.8112 18.1735C21.6726 17.9855 24.9553 20.9635 25.1432 24.8249C25.3312 28.6863 22.3532 31.969 18.4918 32.1569C14.6304 32.3449 11.3477 29.3669 11.1598 25.5055C10.9718 21.6441 13.9498 18.3614 17.8112 18.1735Z" fill="#FCE94F"/>
<path d="M7.59916 44.9159L7.52971 43.489C7.52971 43.489 11.0153 40.9357 12.0177 40.6789C13.0201 40.4222 14.2241 40.5329 15.4642 40.705C16.7044 40.8763 18.5542 41.0996 19.1278 41.0913C19.7013 41.0834 20.7341 40.9631 21.9345 40.8317C23.1349 40.7018 25.1252 40.5391 25.7473 40.516C26.369 40.4857 27.9254 40.4958 29.5849 40.5162C31.2444 40.537 33.5252 40.5956 34.0432 40.6179C34.5611 40.6399 35.1714 40.6974 35.8639 40.7588C36.5563 40.8195 37.754 40.9038 38.1771 40.9224C38.6002 40.9404 39.5834 41.0272 40.7216 41.0763C41.8598 41.1253 43.6749 41.0727 44.1967 41.0087C44.7185 40.9447 45.7973 40.5035 47.0032 40.0865C48.209 39.6697 49.5419 39.2768 50.5718 39.3078C51.6017 39.3392 57.4706 41.058 57.4706 41.058L57.54 42.4849L50.0489 42.8495L43.9846 43.1447L37.9204 43.4399L31.8561 43.7351L25.7919 44.0302L19.7276 44.3254L13.6634 44.6206L7.59916 44.9159Z" fill="black"/>
<path opacity="0.9" d="M7.59924 44.9159L7.64456 45.8469C7.64456 45.8469 11.3214 47.2231 12.3405 47.3092C13.3596 47.3955 14.55 47.2274 15.7715 47.0164C16.9931 46.8057 18.8178 46.5124 19.3897 46.4718C19.9616 46.4297 21.0001 46.4263 22.2063 46.4148C23.4125 46.4033 25.408 46.3491 26.0295 46.3131C26.6513 46.2828 28.2008 46.1516 29.8522 46.0055C31.5036 45.8593 33.7707 45.6378 34.2849 45.5819C34.799 45.5254 35.4024 45.4402 36.0871 45.3443C36.772 45.2494 37.9582 45.0987 38.3782 45.0527C38.7982 45.0065 39.7706 44.8719 40.9004 44.7486C42.0303 44.6249 43.8425 44.5138 44.3674 44.514C44.8924 44.5142 46.0023 44.7133 47.2369 44.8869C48.4715 45.0606 49.8307 45.2084 50.8541 45.1056C51.8775 45.0029 57.5855 43.4169 57.5855 43.4169L57.5402 42.486L50.049 42.8507L43.9848 43.1458L37.9205 43.441L31.8563 43.7362L25.792 44.0314L19.7278 44.3265L13.6635 44.6217L7.59924 44.9159Z" fill="black"/>
<path opacity="0.3" d="M7.59924 44.9159L57.5401 42.485L57.7485 46.7657L7.8076 49.1965L7.59924 44.9159Z" fill="#4D585E"/>
<path opacity="0.2" d="M7.90485 51.1941L6.00879 12.2403L55.9497 9.80942L57.8457 48.7633L7.90485 51.1941Z" stroke="black" stroke-width="2"/>
<path opacity="0.6" d="M62.0001 50H54.1053V55H62.0001V50Z" fill="url(#paint20_radial)"/>
<path opacity="0.6" d="M2.00002 55H9.89478V50H2.00002V55Z" fill="url(#paint21_radial)"/>
<path opacity="0.6" d="M54.1054 50H9.89478V55H54.1054V50Z" fill="url(#paint22_linear)"/>
<path opacity="0.35" d="M58.9999 51.997L59 9C59 9 23 9 5 9C5 23.3333 5 52 5 52L58.9999 51.997Z" stroke="black" stroke-width="2" stroke-linejoin="round"/>
<path d="M58.9999 51.997L59 9C59 9 23 9 5 9C5 23.3333 5 52 5 52L58.9999 51.997Z" fill="url(#paint23_linear)"/>
<path opacity="0.4" d="M58.9999 51.997L59 9C59 9 23 9 5 9C5 23.3333 5 52 5 52L58.9999 51.997Z" stroke="white" stroke-width="2" stroke-linejoin="round"/>
<path opacity="0.4" d="M5 9V10H59V9H5Z" fill="white"/>
<path d="M7 50V11H57V50H7Z" fill="url(#paint24_linear)"/>
<path opacity="0.1" d="M20 13.8571C16.0721 13.8571 12.8572 17.072 12.8572 21C12.8572 24.928 16.0721 28.1429 20 28.1429C23.928 28.1429 27.1429 24.928 27.1429 21C27.1429 17.072 23.928 13.8571 20 13.8571ZM20 16.7143C22.3839 16.7143 24.2857 18.6161 24.2857 21C24.2857 23.3839 22.3839 25.2857 20 25.2857C17.6162 25.2857 15.7143 23.3839 15.7143 21C15.7143 18.6161 17.6162 16.7143 20 16.7143Z" fill="#FED8CD"/>
<path opacity="0.1" d="M20.0001 12.4286C15.3001 12.4286 11.4287 16.3 11.4287 21C11.4287 25.7 15.3001 29.5714 20.0001 29.5714C24.7002 29.5714 28.5716 25.7 28.5716 21C28.5716 16.3 24.7002 12.4286 20.0001 12.4286ZM20.0001 18.1429C21.6119 18.1429 22.8573 19.3882 22.8573 21C22.8573 22.6118 21.6119 23.8572 20.0001 23.8572C18.3883 23.8572 17.143 22.6118 17.143 21C17.143 19.3882 18.3883 18.1429 20.0001 18.1429Z" fill="#FED8CD"/>
<path opacity="0.1" d="M20 11C14.5279 11 10 15.5279 10 21C10 26.4721 14.5279 31 20 31C25.4721 31 30 26.4721 30 21C30 15.5279 25.4721 11 20 11ZM20 19.5714C20.8397 19.5714 21.4286 20.1603 21.4286 21C21.4286 21.8397 20.8397 22.4286 20 22.4286C19.1603 22.4286 18.5714 21.8397 18.5714 21C18.5714 20.1603 19.1603 19.5714 20 19.5714Z" fill="#FED8CD"/>
<path fill-rule="evenodd" clip-rule="evenodd" d="M20.0002 15.2858C23.1561 15.2858 25.7145 17.8441 25.7145 21.0001C25.7145 24.156 23.1561 26.7143 20.0002 26.7143C16.8443 26.7143 14.2859 24.156 14.2859 21.0001C14.2859 17.8441 16.8443 15.2858 20.0002 15.2858Z" fill="#FCE94F"/>
<path fill-rule="evenodd" clip-rule="evenodd" d="M18.5 17.5C22.366 17.5 25.5 20.634 25.5 24.5C25.5 28.366 22.366 31.5 18.5 31.5C14.634 31.5 11.5 28.366 11.5 24.5C11.5 20.634 14.634 17.5 18.5 17.5Z" fill="#FCE94F"/>
<path d="M7 43.7143V42.2857C7 42.2857 10.6056 39.9049 11.6193 39.6972C12.633 39.4895 13.8302 39.6586 15.0605 39.8907C16.2908 40.1222 18.1277 40.4352 18.7009 40.4547C19.2742 40.4747 20.3116 40.4047 21.5169 40.3319C22.7223 40.2605 24.7181 40.1947 25.3406 40.2019C25.9631 40.2019 27.5171 40.2876 29.1736 40.3887C30.8302 40.4902 33.1055 40.6596 33.6217 40.707C34.1379 40.7542 34.7447 40.8413 35.4334 40.9363C36.122 41.0306 37.3142 41.173 37.736 41.2122C38.1577 41.2507 39.1355 41.3852 40.27 41.4896C41.4044 41.5939 43.2199 41.6296 43.7442 41.591C44.2685 41.5525 45.3675 41.1642 46.5922 40.8063C47.8169 40.4486 49.1673 40.121 50.1945 40.202C51.2217 40.2835 57 42.2856 57 42.2856V43.7142H49.5H43.4286H37.3571H31.2857H25.2143H19.1429H13.0714L7 43.7143Z" fill="black"/>
<path opacity="0.9" d="M7 43.7143V44.6464C7 44.6464 10.6056 46.1997 11.6193 46.3353C12.633 46.471 13.8302 46.361 15.0605 46.2096C16.2908 46.0586 18.1277 45.8543 18.7009 45.8416C19.2742 45.8273 20.3116 45.8744 21.5169 45.9216C22.7223 45.9687 24.7181 46.0116 25.3406 46.0059C25.9631 46.0059 27.5171 45.9502 29.1736 45.8844C30.8302 45.8187 33.1055 45.7077 33.6217 45.6769C34.1379 45.6454 34.7447 45.5897 35.4334 45.5272C36.122 45.4657 37.3142 45.3729 37.736 45.3473C38.1577 45.3216 39.1355 45.2344 40.27 45.1662C41.4044 45.0976 43.2199 45.0747 43.7442 45.1004C44.2685 45.1262 45.3675 45.379 46.5922 45.6124C47.8169 45.8459 49.1673 46.0596 50.1945 46.0067C51.2217 45.9539 57 44.6473 57 44.6473V43.7153H49.5H43.4286H37.3571H31.2857H25.2143H19.1429H13.0714L7 43.7143Z" fill="black"/>
<path opacity="0.3" d="M7 43.7143H57V48H7V43.7143Z" fill="#4D585E"/>
<path opacity="0.2" d="M7 50V11H57V50H7Z" stroke="black"/>
<path d="M33.5 23H35.4315H33.5ZM35.7148 23H37.5176H35.7148ZM37.8009 23H39.3976H37.8009ZM39.6552 23H40.3505H39.6552ZM40.6338 23H42.179H40.6338ZM42.4881 23H46.5572H42.4881ZM46.8147 23H49.9309H46.8147ZM50.1884 23H51.1413H50.1884ZM33.5 23.5H36.5132H33.5ZM36.848 23.5H38.2902H36.848ZM38.5477 23.5H39.2688H38.5477ZM39.5521 23.5H40.8656H39.5521ZM41.1489 23.5H42.4881H41.1489ZM42.7456 23.5H44.8832H42.7456ZM45.1665 23.5H47.9479H45.1665ZM48.2054 23.5H50.0597H48.2054ZM50.3172 23.5H50.7808H50.3172ZM33.5 23.9963H36.0496H33.5ZM36.3072 23.9963H40.4793H36.3072ZM40.7368 23.9963H42.7714H40.7368ZM43.0289 23.9963H44.9347H43.0289ZM45.1922 23.9963H46.8147H45.1922ZM47.0722 23.9963L49.6219 24.0037L47.0722 23.9963ZM49.8536 24.0037H54H49.8536ZM33.5 24.5H37.0283H33.5ZM37.3116 24.5H41.1231H37.3116ZM41.3807 24.5H42.9001H41.3807ZM43.1577 24.5H46.7374H43.1577ZM46.9692 24.5H49.4158H46.9692ZM49.6991 24.5H50.6778H49.6991ZM50.9353 24.5H51.4761H50.9353ZM51.7594 24.5H53.2789H51.7594ZM33.5 25H34.8134H33.5ZM35.2255 25H40.093H35.2255ZM33.5 25.9963H36.0496H33.5ZM36.3072 25.9963H40.4793H36.3072ZM40.7368 25.9963H42.7714H40.7368ZM43.0289 25.9963H44.9347H43.0289ZM45.1922 25.9963H46.8147H45.1922ZM47.0722 25.9963L49.6219 26.0037L47.0722 25.9963ZM49.8536 26.0037H54H49.8536ZM33.5 26.5H36.745H33.5ZM37.0025 26.5H40.4793H37.0025ZM40.7368 26.5H42.076H40.7368ZM42.3335 26.5H45.6043H42.3335ZM45.8618 26.5H49.9824H45.8618ZM50.2657 26.5H51.7852H50.2657ZM33.5 27H37.0283H33.5ZM37.3116 27H41.1231H37.3116ZM41.3807 27H42.9001H41.3807ZM43.1577 27H46.7374H43.1577ZM46.9692 27H49.4158H46.9692ZM49.6991 27H50.6778H49.6991ZM50.9353 27H51.4761H50.9353ZM51.7594 27H53.2789H51.7594ZM33.5 27.5H36.5132H33.5ZM36.848 27.5H38.2902H36.848ZM38.5477 27.5H39.2688H38.5477ZM39.5521 27.5H40.8656H39.5521ZM41.1489 27.5H42.4881H41.1489ZM42.7456 27.5H44.8832H42.7456ZM45.1665 27.5H47.9479H45.1665ZM48.2054 27.5H50.0597H48.2054ZM50.3172 27.5H50.7808H50.3172ZM33.5 28.4963H36.0496H33.5ZM36.3072 28.4963H40.4793H36.3072ZM40.7368 28.4963H42.7714H40.7368ZM43.0289 28.4963H44.9347H43.0289ZM45.1922 28.4963H46.8147H45.1922ZM47.0722 28.4963L49.6219 28.5037L47.0722 28.4963ZM49.8536 28.5037H54H49.8536ZM33.5 29H36.5132H33.5ZM36.848 29H38.2902H36.848ZM38.5477 29H39.2688H38.5477ZM39.5521 29H40.8656H39.5521ZM41.1489 29H42.4881H41.1489ZM42.7456 29H44.8832H42.7456ZM45.1665 29H47.9479H45.1665ZM48.2054 29H50.0597H48.2054ZM50.3172 29H50.7808H50.3172ZM33.5 29.5H36.6935H33.5ZM36.9768 29.5H37.9812H36.9768ZM38.2387 29.5H40.5308H38.2387ZM40.7883 29.5H44.1621H40.7883ZM44.4454 29.5H46.7374H44.4454ZM46.9692 29.5H47.4585H46.9692ZM47.7161 29.5H50.6263H47.7161ZM50.9353 29.5H52.4548H50.9353ZM33.5 30H36.6935H33.5ZM36.9768 30H38.419H36.9768ZM38.6765 30H40.9428H38.6765ZM41.2004 30H43.647H41.2004ZM43.9303 30H44.9089H43.9303ZM45.1665 30H45.7073H45.1665ZM45.9906 30H47.5101H45.9906Z" stroke="url(#paint25_linear)"/>
<path d="M33.5 31.5H34.772H33.5ZM34.9585 31.5H36.1457H34.9585ZM36.3323 31.5H37.3838H36.3323ZM37.5534 31.5H38.0113H37.5534ZM38.1979 31.5H39.2155H38.1979ZM39.419 31.5H42.0986H39.419ZM42.2682 31.5H44.3204H42.2682ZM44.49 31.5H45.1175H44.49ZM33.5 32H35.4843H33.5ZM35.7048 32H36.6545H35.7048ZM36.8241 32H37.299H36.8241ZM37.4856 32H38.3505H37.4856ZM38.5371 32H39.419H38.5371ZM39.5886 32H40.9962H39.5886ZM41.1828 32H43.0144H41.1828ZM43.184 32H44.4052H43.184ZM44.5748 32H44.88H44.5748ZM33.5 32.4963H35.179H33.5ZM35.3486 32.4963H38.0961H35.3486ZM38.2657 32.4963H39.6055H38.2657ZM39.7751 32.4963H41.0302H39.7751ZM41.1997 32.4963H42.2682H41.1997ZM42.4378 32.4963L44.1168 32.5037L42.4378 32.4963ZM44.2695 32.5037H47H44.2695ZM33.5 33H35.8235H33.5ZM36.0101 33H38.5201H36.0101ZM38.6897 33H39.6903H38.6897ZM39.8599 33H42.2173H39.8599ZM42.37 33H43.9812H42.37ZM44.1677 33H44.8122H44.1677ZM44.9818 33H45.3379H44.9818ZM45.5245 33H46.5251H45.5245ZM33.5 33.5H34.3649H33.5ZM34.6363 33.5H37.8417H34.6363ZM33.5 34.4963H35.179H33.5ZM35.3486 34.4963H38.0961H35.3486ZM38.2657 34.4963H39.6055H38.2657ZM39.7751 34.4963H41.0302H39.7751ZM41.1997 34.4963H42.2682H41.1997ZM42.4378 34.4963L44.1168 34.5037L42.4378 34.4963ZM44.2695 34.5037H47H44.2695ZM33.5 35H35.6369H33.5ZM35.8065 35H38.0961H35.8065ZM38.2657 35H39.1476H38.2657ZM39.3172 35H41.4711H39.3172ZM41.6407 35H44.3543H41.6407ZM44.5408 35H45.5415H44.5408ZM33.5 35.5H35.8235H33.5ZM36.0101 35.5H38.5201H36.0101ZM38.6897 35.5H39.6903H38.6897ZM39.8599 35.5H42.2173H39.8599ZM42.37 35.5H43.9812H42.37ZM44.1677 35.5H44.8122H44.1677ZM44.9818 35.5H45.3379H44.9818ZM45.5245 35.5H46.5251H45.5245ZM33.5 36H35.4843H33.5ZM35.7048 36H36.6545H35.7048ZM36.8241 36H37.299H36.8241ZM37.4856 36H38.3505H37.4856ZM38.5371 36H39.419H38.5371ZM39.5886 36H40.9962H39.5886ZM41.1828 36H43.0144H41.1828ZM43.184 36H44.4052H43.184ZM44.5748 36H44.88H44.5748ZM33.5 36.9963H35.179H33.5ZM35.3486 36.9963H38.0961H35.3486ZM38.2657 36.9963H39.6055H38.2657ZM39.7751 36.9963H41.0302H39.7751ZM41.1997 36.9963H42.2682H41.1997ZM42.4378 36.9963L44.1168 37.0037L42.4378 36.9963ZM44.2695 37.0037H47H44.2695ZM33.5 37.5H35.4843H33.5ZM35.7048 37.5H36.6545H35.7048ZM36.8241 37.5H37.299H36.8241ZM37.4856 37.5H38.3505H37.4856ZM38.5371 37.5H39.419H38.5371ZM39.5886 37.5H40.9962H39.5886ZM41.1828 37.5H43.0144H41.1828ZM43.184 37.5H44.4052H43.184ZM44.5748 37.5H44.88H44.5748ZM33.5 38H35.603H33.5ZM35.7896 38H36.451H35.7896ZM36.6206 38H38.13H36.6206ZM38.2996 38H40.5214H38.2996ZM40.7079 38H42.2173H40.7079ZM42.37 38H42.6922H42.37ZM42.8618 38H44.7783H42.8618ZM44.9818 38H45.9824H44.9818ZM33.5 38.5H35.603H33.5ZM35.7896 38.5H36.7393H35.7896ZM36.9089 38.5H38.4014H36.9089ZM38.571 38.5H40.1822H38.571ZM40.3687 38.5H41.0132H40.3687ZM41.1828 38.5H41.5389H41.1828ZM41.7255 38.5H42.7261H41.7255Z" stroke="url(#paint26_linear)"/>
<path opacity="0.6" d="M47.5 31H33V39H47.5V31Z" fill="#FCE94F"/>
<path fill-rule="evenodd" clip-rule="evenodd" d="M46 28.1281L51.8553 34L62.1019 23.7241C62.9976 22.9845 62.1019 22.2562 62.1019 22.2562L57.7105 17.8522C57.7105 17.8522 57.037 17.0597 56.2467 17.8522L46 28.1281Z" stroke="#BF830A" stroke-width="2" stroke-linejoin="round"/>
<path fill-rule="evenodd" clip-rule="evenodd" d="M46 28.1364L51.8387 34L62.0564 23.7387C63.0545 23.0001 62.0564 22.2729 62.0564 22.2729L57.6774 17.8752C57.6774 17.8752 56.9532 17.031 56.2177 17.8752L46 28.1364Z" fill="url(#paint27_linear)"/>
<path fill-rule="evenodd" clip-rule="evenodd" d="M45.6946 28.6796V31.4854L48.491 34.2913H51.2874L45.6946 28.6796Z" stroke="#838383" stroke-width="2" stroke-linejoin="round"/>
<path fill-rule="evenodd" clip-rule="evenodd" d="M45.6946 28.6796V31.4854L48.491 34.2913H51.2874L45.6946 28.6796Z" fill="#CECECE"/>
<path fill-rule="evenodd" clip-rule="evenodd" d="M42.5 36.0971H45.2964L46.6947 34.6942L45.2964 33.2913L42.5 36.0971Z" stroke="#BF830A" stroke-width="2" stroke-linejoin="round"/>
<path fill-rule="evenodd" clip-rule="evenodd" d="M45.845 32.5198L44.7964 33.7912L46.1946 35.1942L47.3743 34.2735L45.845 32.5198Z" stroke="#838383" stroke-width="2"/>
<path opacity="0.1" d="M52.2244 38C56.9542 38 60.7884 37.3326 60.7884 36.5094C60.7884 35.6862 56.9542 35.0188 52.2244 35.0188C47.4945 35.0188 43.6603 35.6862 43.6603 36.5094C43.6603 37.3326 47.4945 38 52.2244 38Z" fill="url(#paint28_radial)"/>
<path fill-rule="evenodd" clip-rule="evenodd" d="M45.845 32.5198L44.7964 33.7912L46.1946 35.1942L47.3743 34.2735L45.845 32.5198Z" fill="#CECECE"/>
<path fill-rule="evenodd" clip-rule="evenodd" d="M42.5 36.0971H45.2964L46.6947 34.6942L45.2964 33.2913L42.5 36.0971Z" fill="#FCE94F"/>
<path opacity="0.5" d="M48.097 27.3637L56.7922 18.6393" stroke="white" stroke-linecap="round"/>
<path opacity="0.5" d="M46.112 31.275L46.1045 29.6909" stroke="white" stroke-linecap="round"/>
<path opacity="0.1" d="M52.5541 31.9369L61.2492 23.2124" stroke="black" stroke-linecap="round"/>
<path opacity="0.1" d="M48.9231 33.5586L50.1417 34.0021" stroke="black" stroke-linecap="round"/>
<path d="M24.6031 36.5964C24.6033 36.8874 24.4133 37.1755 24.0439 37.4444C23.6745 37.7133 23.1329 37.9576 22.4501 38.1634C21.7672 38.3692 20.9566 38.5324 20.0643 38.6438C19.1721 38.7552 18.2158 38.8125 17.25 38.8125C16.2842 38.8125 15.3279 38.7552 14.4356 38.6438C13.5434 38.5324 12.7327 38.3692 12.0499 38.1634C11.3671 37.9576 10.8255 37.7133 10.456 37.4444C10.0866 37.1755 9.89661 36.8874 9.89685 36.5964C9.89661 36.3054 10.0866 36.0172 10.456 35.7483C10.8255 35.4795 11.3671 35.2352 12.0499 35.0294C12.7327 34.8236 13.5434 34.6603 14.4356 34.549C15.3279 34.4376 16.2842 34.3802 17.25 34.3802C18.2158 34.3802 19.1721 34.4376 20.0643 34.549C20.9566 34.6603 21.7672 34.8236 22.4501 35.0294C23.1329 35.2352 23.6745 35.4795 24.0439 35.7483C24.4133 36.0172 24.6033 36.3054 24.6031 36.5964Z" fill="url(#paint29_radial)" fill-opacity="0.5"/>
<path d="M17.25 18.0002C12.1462 18.0002 8 22.1463 8 27.2501C8 32.3539 12.1462 36.5001 17.25 36.5001C22.3538 36.5001 26.5 32.3539 26.5 27.2501C26.5 22.1463 22.3538 18.0002 17.25 18.0002Z" fill="url(#paint30_radial)" fill-opacity="0.5"/>
<path opacity="0.75" d="M17.2494 23.5898C19.9048 23.5898 22.0574 22.5976 22.0574 21.3737C22.0574 20.1497 19.9048 19.1575 17.2494 19.1575C14.594 19.1575 12.4414 20.1497 12.4414 21.3737C12.4414 22.5976 14.594 23.5898 17.2494 23.5898Z" fill="url(#paint31_linear)"/>
<path opacity="0.25" d="M17.25 18C12.1462 18 8 22.1462 8 27.25C8 32.3538 12.1462 36.5 17.25 36.5C22.3538 36.5 26.5 32.3538 26.5 27.25C26.5 22.1462 22.3538 18 17.25 18V18Z" stroke="black" stroke-width="0.999995" stroke-linecap="round" stroke-linejoin="round"/>
</g>
<defs>
<radialGradient id="paint0_radial" cx="0" cy="0" r="1" gradientUnits="userSpaceOnUse" gradientTransform="translate(56.6516 49.3407) rotate(-7.73281) scale(7.90969 2.5)">
<stop stop-color="#181818"/>
<stop offset="1" stop-color="#181818" stop-opacity="0"/>
</radialGradient>
<radialGradient id="paint1_radial" cx="0" cy="0" r="1" gradientUnits="userSpaceOnUse" gradientTransform="translate(12.865 55.2864) rotate(172.267) scale(7.90969 2.5)">
<stop stop-color="#181818"/>
<stop offset="1" stop-color="#181818" stop-opacity="0"/>
</radialGradient>
<linearGradient id="paint2_linear" x1="36.7529" y1="54.5856" x2="36.0774" y2="49.6111" gradientUnits="userSpaceOnUse">
<stop stop-color="#181818" stop-opacity="0"/>
<stop offset="0.5" stop-color="#181818"/>
<stop offset="1" stop-color="#181818" stop-opacity="0"/>
</linearGradient>
<linearGradient id="paint3_linear" x1="36.1038" y1="62.2226" x2="27.4924" y2="-1.19536" gradientUnits="userSpaceOnUse">
<stop stop-color="#EDEDED"/>
<stop offset="1" stop-color="white"/>
</linearGradient>
<linearGradient id="paint4_linear" x1="25.7388" y1="47.8242" x2="19.7821" y2="3.95649" gradientUnits="userSpaceOnUse">
<stop stop-color="#16538C"/>
<stop offset="0.362069" stop-color="#3594CA"/>
<stop offset="1" stop-color="#4EDFF3"/>
</linearGradient>
<radialGradient id="paint5_radial" cx="0" cy="0" r="1" gradientUnits="userSpaceOnUse" gradientTransform="translate(59.1665 45.3304) rotate(-16.5074) scale(7.74484 2.5)">
<stop stop-color="#181818"/>
<stop offset="1" stop-color="#181818" stop-opacity="0"/>
</radialGradient>
<radialGradient id="paint6_radial" cx="0" cy="0" r="1" gradientUnits="userSpaceOnUse" gradientTransform="translate(17.6824 57.6244) rotate(163.493) scale(7.74484 2.5)">
<stop stop-color="#181818"/>
<stop offset="1" stop-color="#181818" stop-opacity="0"/>
</radialGradient>
<linearGradient id="paint7_linear" x1="40.7088" y1="53.4285" x2="39.2823" y2="48.6152" gradientUnits="userSpaceOnUse">
<stop stop-color="#181818" stop-opacity="0"/>
<stop offset="0.5" stop-color="#181818"/>
<stop offset="1" stop-color="#181818" stop-opacity="0"/>
</linearGradient>
<linearGradient id="paint8_linear" x1="41.2658" y1="61.0652" x2="23.0808" y2="-0.29687" gradientUnits="userSpaceOnUse">
<stop stop-color="#EDEDED"/>
<stop offset="1" stop-color="white"/>
</linearGradient>
<linearGradient id="paint9_linear" x1="28.9922" y1="48.3671" x2="16.4133" y2="5.9215" gradientUnits="userSpaceOnUse">
<stop stop-color="#16538C"/>
<stop offset="0.362069" stop-color="#3594CA"/>
<stop offset="1" stop-color="#4EDFF3"/>
</linearGradient>
<radialGradient id="paint10_radial" cx="0" cy="0" r="1" gradientUnits="userSpaceOnUse" gradientTransform="translate(57.4926 48.079) rotate(-10.6156) scale(7.90969 2.5)">
<stop stop-color="#181818"/>
<stop offset="1" stop-color="#181818" stop-opacity="0"/>
</radialGradient>
<radialGradient id="paint11_radial" cx="0" cy="0" r="1" gradientUnits="userSpaceOnUse" gradientTransform="translate(14.0605 56.2193) rotate(169.384) scale(7.90969 2.5)">
<stop stop-color="#181818"/>
<stop offset="1" stop-color="#181818" stop-opacity="0"/>
</radialGradient>
<linearGradient id="paint12_linear" x1="37.8828" y1="54.3181" x2="36.958" y2="49.3838" gradientUnits="userSpaceOnUse">
<stop stop-color="#181818" stop-opacity="0"/>
<stop offset="0.5" stop-color="#181818"/>
<stop offset="1" stop-color="#181818" stop-opacity="0"/>
</linearGradient>
<linearGradient id="paint13_linear" x1="37.6187" y1="61.978" x2="25.8287" y2="-0.926675" gradientUnits="userSpaceOnUse">
<stop stop-color="#EDEDED"/>
<stop offset="1" stop-color="white"/>
</linearGradient>
<linearGradient id="paint14_linear" x1="26.5428" y1="48.119" x2="18.3873" y2="4.60645" gradientUnits="userSpaceOnUse">
<stop stop-color="#16538C"/>
<stop offset="0.362069" stop-color="#3594CA"/>
<stop offset="1" stop-color="#4EDFF3"/>
</linearGradient>
<radialGradient id="paint15_radial" cx="0" cy="0" r="1" gradientUnits="userSpaceOnUse" gradientTransform="translate(55.0648 51.4016) rotate(-2.78664) scale(7.90969 2.5)">
<stop stop-color="#181818"/>
<stop offset="1" stop-color="#181818" stop-opacity="0"/>
</radialGradient>
<radialGradient id="paint16_radial" cx="0" cy="0" r="1" gradientUnits="userSpaceOnUse" gradientTransform="translate(10.9287 53.5499) rotate(177.213) scale(7.90969 2.5)">
<stop stop-color="#181818"/>
<stop offset="1" stop-color="#181818" stop-opacity="0"/>
</radialGradient>
<linearGradient id="paint17_linear" x1="34.7879" y1="54.9114" x2="34.5439" y2="49.8971" gradientUnits="userSpaceOnUse">
<stop stop-color="#181818" stop-opacity="0"/>
<stop offset="0.5" stop-color="#181818"/>
<stop offset="1" stop-color="#181818" stop-opacity="0"/>
</linearGradient>
<linearGradient id="paint18_linear" x1="33.4829" y1="62.4639" x2="30.3714" y2="-1.46037" gradientUnits="userSpaceOnUse">
<stop stop-color="#EDEDED"/>
<stop offset="1" stop-color="white"/>
</linearGradient>
<linearGradient id="paint19_linear" x1="24.3981" y1="47.2254" x2="22.2458" y2="3.00752" gradientUnits="userSpaceOnUse">
<stop stop-color="#16538C"/>
<stop offset="0.362069" stop-color="#3594CA"/>
<stop offset="1" stop-color="#4EDFF3"/>
</linearGradient>
<radialGradient id="paint20_radial" cx="0" cy="0" r="1" gradientUnits="userSpaceOnUse" gradientTransform="translate(54.0943 52.5) scale(7.90969 2.5)">
<stop stop-color="#181818"/>
<stop offset="1" stop-color="#181818" stop-opacity="0"/>
</radialGradient>
<radialGradient id="paint21_radial" cx="0" cy="0" r="1" gradientUnits="userSpaceOnUse" gradientTransform="translate(9.90586 52.5) rotate(180) scale(7.90969 2.5)">
<stop stop-color="#181818"/>
<stop offset="1" stop-color="#181818" stop-opacity="0"/>
</radialGradient>
<linearGradient id="paint22_linear" x1="33.6708" y1="55.0198" x2="33.6708" y2="49.9996" gradientUnits="userSpaceOnUse">
<stop stop-color="#181818" stop-opacity="0"/>
<stop offset="0.5" stop-color="#181818"/>
<stop offset="1" stop-color="#181818" stop-opacity="0"/>
</linearGradient>
<linearGradient id="paint23_linear" x1="32" y1="62.5" x2="32" y2="-1.5" gradientUnits="userSpaceOnUse">
<stop stop-color="#EDEDED"/>
<stop offset="1" stop-color="white"/>
</linearGradient>
<linearGradient id="paint24_linear" x1="23.6667" y1="46.8378" x2="23.6667" y2="2.56757" gradientUnits="userSpaceOnUse">
<stop stop-color="#16538C"/>
<stop offset="0.362069" stop-color="#3594CA"/>
<stop offset="1" stop-color="#4EDFF3"/>
</linearGradient>
<linearGradient id="paint25_linear" x1="40.9352" y1="31.4951" x2="40.9352" y2="20.8892" gradientUnits="userSpaceOnUse">
<stop stop-color="#D4D4D4"/>
<stop offset="1" stop-color="#FAFAFA"/>
</linearGradient>
<linearGradient id="paint26_linear" x1="38.3964" y1="39.9951" x2="38.3964" y2="29.3892" gradientUnits="userSpaceOnUse">
<stop stop-color="#D4D4D4"/>
<stop offset="1" stop-color="#FAFAFA"/>
</linearGradient>
<linearGradient id="paint27_linear" x1="51.9115" y1="22.4325" x2="57.6979" y2="27.7771" gradientUnits="userSpaceOnUse">
<stop stop-color="#FCE94F"/>
<stop offset="1" stop-color="#D7B031"/>
</linearGradient>
<radialGradient id="paint28_radial" cx="0" cy="0" r="1" gradientUnits="userSpaceOnUse" gradientTransform="translate(52.2244 36.5094) scale(8.56408 1.49061)">
<stop/>
<stop offset="1" stop-opacity="0"/>
</radialGradient>
<radialGradient id="paint29_radial" cx="0" cy="0" r="1" gradientUnits="userSpaceOnUse" gradientTransform="translate(17.25 36.5964) scale(7.35313 2.21557)">
<stop stop-color="#3D3D3D"/>
<stop offset="0.5" stop-color="#686868" stop-opacity="0.498039"/>
<stop offset="1" stop-color="#686868" stop-opacity="0"/>
</radialGradient>
<radialGradient id="paint30_radial" cx="0" cy="0" r="1" gradientUnits="userSpaceOnUse" gradientTransform="translate(17.2502 18.9782) rotate(90) scale(26.5844 35.0912)">
<stop stop-color="#C8C8C8"/>
<stop offset="0.625454" stop-color="#FCFCFC"/>
<stop offset="1" stop-color="#89898B"/>
</radialGradient>
<linearGradient id="paint31_linear" x1="17.5357" y1="23.7776" x2="17.5357" y2="19.1083" gradientUnits="userSpaceOnUse">
<stop stop-color="white" stop-opacity="0.2"/>
<stop offset="1" stop-color="white" stop-opacity="0.998934"/>
</linearGradient>
<clipPath id="clip0">
<rect width="64" height="64" fill="white"/>
</clipPath>
</defs>
</svg>
