<svg width="32" height="32" viewBox="0 0 32 32" fill="none" xmlns="http://www.w3.org/2000/svg">
<g clip-path="url(#clip0)">
<path opacity="0.6" d="M32.939 20.3669L29.2332 21.4652L29.9435 23.8621L33.6493 22.7639L32.939 20.3669Z" fill="url(#paint0_radial)"/>
<path opacity="0.6" d="M5.48524 31.1105L9.19104 30.0122L8.48069 27.6153L4.77489 28.7135L5.48524 31.1105Z" fill="url(#paint1_radial)"/>
<path opacity="0.6" d="M29.2332 21.4652L8.48071 27.6153L9.19106 30.0122L29.9435 23.8621L29.2332 21.4652Z" fill="url(#paint2_linear)"/>
<path opacity="0.35" d="M31.8144 21.7416L25.7059 1.12924C25.7059 1.12924 8.80748 6.13715 0.358276 8.64111C2.39461 15.5124 6.46728 29.2549 6.46728 29.2549L31.8144 21.7416Z" stroke="black" stroke-width="2" stroke-linejoin="round"/>
<path d="M31.8144 21.7416L25.7059 1.12923C25.7059 1.12923 8.80748 6.13715 0.358276 8.64111C2.39461 15.5124 6.46728 29.2549 6.46728 29.2549L31.8144 21.7416Z" fill="url(#paint3_linear)"/>
<path opacity="0.4" d="M0.358276 8.64111L0.500346 9.1205L25.848 1.60863L25.7059 1.12924L0.358276 8.64111Z" fill="white"/>
<path d="M7.1219 28.018L1.58118 9.32169L25.0512 2.36624L30.5919 21.0625L7.1219 28.018Z" fill="url(#paint4_linear)"/>
<path opacity="0.1" d="M8.08937 8.88295C6.24558 9.42937 5.19325 11.4178 5.75129 13.3008C6.30934 15.1838 8.27515 16.2778 10.1189 15.7314C11.9627 15.185 13.0151 13.1966 12.457 11.3135C11.899 9.4305 9.93316 8.33654 8.08937 8.88295ZM8.49528 10.2526C9.61427 9.92103 10.7772 10.5682 11.1159 11.711C11.4545 12.8538 10.832 14.0301 9.71302 14.3617C8.59404 14.6933 7.43111 14.0462 7.09244 12.9034C6.75376 11.7606 7.3763 10.5843 8.49528 10.2526Z" fill="#FED8CD"/>
<path opacity="0.1" d="M7.88641 8.19811C5.68021 8.85193 4.41298 11.2464 5.08072 13.4995C5.74845 15.7527 8.11569 17.0701 10.3219 16.4163C12.5281 15.7624 13.7953 13.368 13.1276 11.1148C12.4598 8.86166 10.0926 7.5443 7.88641 8.19811ZM8.69823 10.9375C9.45481 10.7133 10.2163 11.137 10.4453 11.9097C10.6743 12.6824 10.2666 13.4527 9.51006 13.6769C8.75348 13.9011 7.99199 13.4773 7.763 12.7046C7.53402 11.9319 7.94166 11.1617 8.69823 10.9375Z" fill="#FED8CD"/>
<path opacity="0.1" d="M7.68344 7.51327C5.11484 8.27449 3.63272 11.075 4.41014 13.6983C5.18756 16.3215 7.95624 17.8623 10.5248 17.1011C13.0934 16.3399 14.5756 13.5394 13.7981 10.9161C13.0207 8.29282 10.252 6.75205 7.68344 7.51327ZM8.90118 11.6223C9.29536 11.5055 9.65541 11.7059 9.77471 12.1085C9.89401 12.511 9.70127 12.8752 9.3071 12.992C8.91292 13.1088 8.55287 12.9085 8.43357 12.5059C8.31427 12.1033 8.50701 11.7392 8.90118 11.6223Z" fill="#FED8CD"/>
<path fill-rule="evenodd" clip-rule="evenodd" d="M8.29233 9.56779C9.77372 9.12878 11.3381 9.99935 11.7864 11.5123C12.2348 13.0252 11.3974 14.6075 9.91599 15.0466C8.4346 15.4856 6.87023 14.615 6.42187 13.1021C5.97351 11.5892 6.81095 10.0068 8.29233 9.56779Z" fill="#FCE94F"/>
<path fill-rule="evenodd" clip-rule="evenodd" d="M7.90281 10.838C9.7175 10.3002 11.6339 11.3666 12.1831 13.22C12.7323 15.0733 11.7065 17.0117 9.89178 17.5495C8.07708 18.0872 6.16073 17.0208 5.61149 15.1675C5.06225 13.3142 6.08811 11.3758 7.90281 10.838Z" fill="#FCE94F"/>
<path d="M6.22896 25.0046L6.026 24.3198C6.026 24.3198 7.38023 22.6768 7.82655 22.4363C8.27288 22.1957 8.85884 22.1102 9.46934 22.0504C10.0797 21.9901 10.9864 21.8847 11.2583 21.8143C11.5302 21.7442 12.0072 21.5663 12.5627 21.3637C13.1183 21.1618 14.0458 20.8526 14.339 20.7695C14.6312 20.6829 15.3729 20.5078 16.1648 20.3258C16.9568 20.144 18.0489 19.9087 18.2979 19.8596C18.547 19.8104 18.8442 19.7678 19.1809 19.7175C19.5176 19.6669 20.0974 19.5694 20.3009 19.5295C20.5044 19.4893 20.9824 19.4177 21.5298 19.31C22.0772 19.2021 22.9344 18.9667 23.1751 18.8753C23.4157 18.7839 23.8764 18.4448 24.4004 18.1029C24.9244 17.7611 25.5118 17.4162 26.0055 17.3121C26.4992 17.2083 29.496 17.3643 29.496 17.3643L29.6989 18.0491L26.1784 19.0924L23.3285 19.937L20.4786 20.7816L17.6287 21.6262L14.7787 22.4708L11.9288 23.3154L9.07886 24.16L6.22896 25.0046Z" fill="black"/>
<path opacity="0.9" d="M6.22888 25.0046L6.36131 25.4515C6.36131 25.4515 8.27447 25.6946 8.76956 25.6185C9.26468 25.5426 9.81098 25.3233 10.367 25.0796C10.9231 24.836 11.7562 24.4826 12.0235 24.3967C12.2906 24.3101 12.7842 24.1884 13.3567 24.0434C13.9292 23.8983 14.8721 23.6412 15.1635 23.5519C15.4557 23.4653 16.1773 23.2224 16.9455 22.9604C17.7138 22.6985 18.766 22.3288 19.0039 22.2422C19.2418 22.1553 19.5187 22.0442 19.8331 21.9184C20.1476 21.7931 20.694 21.5828 20.8883 21.5118C21.0827 21.4409 21.5292 21.2631 22.0521 21.0725C22.5749 20.8818 23.4238 20.6183 23.6736 20.5577C23.9233 20.4971 24.4751 20.4654 25.0831 20.407C25.6912 20.3485 26.3554 20.2631 26.8301 20.0949C27.3047 19.9266 29.8314 18.4965 29.8314 18.4965L29.699 18.0497L26.1785 19.093L23.3286 19.9376L20.4787 20.7822L17.6287 21.6268L14.7788 22.4714L11.9289 23.3159L9.07895 24.1605L6.22888 25.0046Z" fill="black"/>
<path opacity="0.3" d="M6.22888 25.0046L29.6989 18.0492L30.3078 20.1037L6.83775 27.0591L6.22888 25.0046Z" fill="#4D585E"/>
<path opacity="0.2" d="M24.7139 2.9877L2.20264 9.65901L7.45922 27.3965L29.9705 20.7252L24.7139 2.9877Z" stroke="black"/>
<path opacity="0.6" d="M31.9828 23.11L28.0647 23.5898L28.3686 26.0712L32.2867 25.5914L31.9828 23.11Z" fill="url(#paint5_radial)"/>
<path opacity="0.6" d="M2.50908 29.2381L6.42719 28.7583L6.1233 26.2768L2.20519 26.7566L2.50908 29.2381Z" fill="url(#paint6_radial)"/>
<path opacity="0.6" d="M28.0647 23.5898L6.12329 26.2768L6.42718 28.7583L28.3686 26.0712L28.0647 23.5898Z" fill="url(#paint7_linear)"/>
<path opacity="0.35" d="M30.6152 24.2834L28.002 2.94428C28.002 2.94428 10.1355 5.13229 1.20221 6.22629C2.07336 13.3398 3.81566 27.5669 3.81566 27.5669L30.6152 24.2834Z" stroke="black" stroke-opacity="0.9" stroke-width="2" stroke-linejoin="round"/>
<path d="M30.6152 24.2834L28.002 2.94428C28.002 2.94428 10.1355 5.13229 1.20221 6.22629C2.07336 13.3398 3.81566 27.5669 3.81566 27.5669L30.6152 24.2834Z" fill="white"/>
<path opacity="0.4" d="M1.20221 6.22629L1.26299 6.72258L28.0628 3.44057L28.002 2.94428L1.20221 6.22629Z" fill="white"/>
<path d="M4.68668 26.4527L2.31635 7.09732L27.131 4.05842L29.5013 23.4138L4.68668 26.4527Z" fill="url(#paint8_linear)"/>
<path opacity="0.1" d="M8.9418 7.72517C6.99237 7.96391 5.59224 9.75482 5.83098 11.7042C6.06971 13.6537 7.86063 15.0538 9.81005 14.8151C11.7595 14.5763 13.1596 12.7854 12.9209 10.836C12.6821 8.88657 10.8912 7.48644 8.9418 7.72517ZM9.11545 9.14315C10.2985 8.99827 11.358 9.82655 11.5029 11.0096C11.6478 12.1927 10.8195 13.2522 9.6364 13.3971C8.45331 13.542 7.39384 12.7137 7.24896 11.5306C7.10407 10.3475 7.93236 9.28804 9.11545 9.14315Z" fill="#FED8CD"/>
<path opacity="0.1" d="M8.85501 7.01619C6.52242 7.30184 4.83637 9.45848 5.12203 11.7911C5.40769 14.1237 7.56433 15.8097 9.89692 15.5241C12.2295 15.2384 13.9156 13.0818 13.6299 10.7492C13.3442 8.41658 11.1876 6.73053 8.85501 7.01619ZM9.20231 9.85214C10.0022 9.75418 10.696 10.2965 10.7939 11.0965C10.8919 11.8964 10.3495 12.5901 9.54961 12.6881C8.74969 12.7861 8.05595 12.2437 7.95798 11.4438C7.86002 10.6438 8.40239 9.9501 9.20231 9.85214Z" fill="#FED8CD"/>
<path opacity="0.1" d="M8.76816 6.3072C6.05241 6.63978 4.08043 9.16215 4.41302 11.8779C4.7456 14.5937 7.26796 16.5656 9.98372 16.233C12.6995 15.9005 14.6714 13.3781 14.3389 10.6623C14.0063 7.94659 11.4839 5.97462 8.76816 6.3072ZM9.28911 10.5611C9.70587 10.5101 10.0339 10.7665 10.0849 11.1833C10.136 11.6001 9.87952 11.9281 9.46276 11.9791C9.04601 12.0301 8.71799 11.7737 8.66695 11.3569C8.61591 10.9402 8.87236 10.6122 9.28911 10.5611Z" fill="#FED8CD"/>
<path fill-rule="evenodd" clip-rule="evenodd" d="M9.02864 8.43419C10.5949 8.24238 12.0201 9.35659 12.2119 10.9228C12.4037 12.4891 11.2895 13.9143 9.72325 14.1061C8.15699 14.2979 6.7318 13.1837 6.53999 11.6175C6.34818 10.0512 7.46239 8.626 9.02864 8.43419Z" fill="#FCE94F"/>
<path fill-rule="evenodd" clip-rule="evenodd" d="M8.41881 9.62427C10.3375 9.3893 12.0833 10.7542 12.3183 12.6729C12.5533 14.5915 11.1884 16.3374 9.2697 16.5724C7.35104 16.8073 5.60518 15.4424 5.37021 13.5238C5.13524 11.6051 6.50014 9.85923 8.41881 9.62427Z" fill="#FCE94F"/>
<path d="M4.30467 23.3332L4.21785 22.6242C4.21785 22.6242 5.86259 21.2234 6.35306 21.0587C6.84353 20.894 7.44794 20.9052 8.07265 20.9457C8.69732 20.9857 9.62794 21.0294 9.91363 21.0043C10.1994 20.9794 10.71 20.8816 11.3037 20.7722C11.8976 20.6635 12.8841 20.5096 13.1935 20.4753C13.5024 20.4374 14.2789 20.3855 15.1072 20.335C15.9355 20.2847 17.0749 20.2305 17.334 20.2227C17.5931 20.2147 17.8996 20.2211 18.2471 20.2263C18.5946 20.2313 19.1949 20.2295 19.4066 20.2233C19.6183 20.2168 20.1117 20.2241 20.6811 20.207C21.2505 20.1898 22.1536 20.0972 22.4115 20.0462C22.6694 19.9952 23.1912 19.7357 23.7772 19.4836C24.3633 19.2317 25.0136 18.987 25.5283 18.9648C26.043 18.9428 29.0325 19.5852 29.0325 19.5852L29.1193 20.2942L25.3971 20.75L22.3839 21.119L19.3707 21.4881L16.3575 21.8571L13.3443 22.2261L10.3311 22.5951L7.31787 22.9641L4.30467 23.3332Z" fill="black"/>
<path opacity="0.9" d="M4.30469 23.3332L4.36134 23.7958C4.36134 23.7958 6.24519 24.3475 6.75652 24.3532C7.26787 24.359 7.85531 24.2316 8.45671 24.0817C9.05814 23.932 9.95732 23.7189 10.2411 23.6778C10.5247 23.6359 11.0424 23.5962 11.6435 23.5463C12.2445 23.4965 13.2376 23.3964 13.5462 23.3558C13.8552 23.3179 14.6231 23.1958 15.4412 23.0625C16.2593 22.9293 17.3818 22.7359 17.6361 22.6892C17.8904 22.6422 18.1882 22.5777 18.5261 22.5048C18.8642 22.4324 19.4502 22.3139 19.658 22.2756C19.8657 22.2372 20.3457 22.1345 20.9046 22.0317C21.4634 21.9287 22.3631 21.807 22.6248 21.7879C22.8866 21.7688 23.4474 21.8275 24.0694 21.8689C24.6913 21.9103 25.3745 21.9343 25.8811 21.8456C26.3877 21.757 29.176 20.7573 29.176 20.7573L29.1194 20.2948L25.3972 20.7506L22.384 21.1196L19.3708 21.4886L16.3576 21.8577L13.3444 22.2267L10.3312 22.5957L7.31795 22.9647L4.30469 23.3332Z" fill="black"/>
<path opacity="0.3" d="M4.30469 23.3332L29.1193 20.2943L29.3798 22.4212L4.56516 25.4601L4.30469 23.3332Z" fill="#4D585E"/>
<path opacity="0.2" d="M26.6954 4.61549L2.87342 7.53283L5.1222 25.8957L28.9442 22.9783L26.6954 4.61549Z" stroke="black"/>
<path opacity="0.6" d="M31 25H27.0526V27.5H31V25Z" fill="url(#paint9_radial)"/>
<path opacity="0.6" d="M0.999952 27.5H4.94733V25H0.999952V27.5Z" fill="url(#paint10_radial)"/>
<path opacity="0.6" d="M27.0526 25H4.94733V27.5H27.0526V25Z" fill="url(#paint11_linear)"/>
<path opacity="0.35" d="M29.4999 25.9985L29.4999 4.5C29.4999 4.5 11.4999 4.5 2.49994 4.5C2.49994 11.6667 2.49994 26 2.49994 26L29.4999 25.9985Z" stroke="black" stroke-width="3" stroke-linejoin="round"/>
<path d="M30 25.9985L30 4C30 4 11.3333 4 2 4C2 11.3333 2 26 2 26L30 25.9985Z" fill="url(#paint12_linear)"/>
<path opacity="0.4" d="M2.49994 4.5V5H29.4999V4.5H2.49994Z" fill="white"/>
<path d="M3.49994 25V5.5H28.4999V25H3.49994Z" fill="url(#paint13_linear)"/>
<path opacity="0.1" d="M10 6.92859C8.03603 6.92859 6.42859 8.53603 6.42859 10.5C6.42859 12.464 8.03603 14.0714 10 14.0714C11.964 14.0714 13.5714 12.464 13.5714 10.5C13.5714 8.53603 11.964 6.92859 10 6.92859ZM10 8.35716C11.1919 8.35716 12.1429 9.30809 12.1429 10.5C12.1429 11.6919 11.1919 12.6429 10 12.6429C8.80809 12.6429 7.85716 11.6919 7.85716 10.5C7.85716 9.30809 8.80809 8.35716 10 8.35716Z" fill="#FED8CD"/>
<path opacity="0.1" d="M9.99995 6.21429C7.64993 6.21429 5.71423 8.14999 5.71423 10.5C5.71423 12.85 7.64993 14.7857 9.99995 14.7857C12.35 14.7857 14.2857 12.85 14.2857 10.5C14.2857 8.14999 12.35 6.21429 9.99995 6.21429ZM9.99995 9.07144C10.8058 9.07144 11.4285 9.69411 11.4285 10.5C11.4285 11.3059 10.8058 11.9286 9.99995 11.9286C9.19405 11.9286 8.57138 11.3059 8.57138 10.5C8.57138 9.69411 9.19405 9.07144 9.99995 9.07144Z" fill="#FED8CD"/>
<path opacity="0.1" d="M10 5.5C7.26396 5.5 5 7.76396 5 10.5C5 13.236 7.26396 15.5 10 15.5C12.736 15.5 15 13.236 15 10.5C15 7.76396 12.736 5.5 10 5.5ZM10 9.78571C10.4199 9.78571 10.7143 10.0801 10.7143 10.5C10.7143 10.9199 10.4199 11.2143 10 11.2143C9.58013 11.2143 9.28571 10.9199 9.28571 10.5C9.28571 10.0801 9.58013 9.78571 10 9.78571Z" fill="#FED8CD"/>
<path fill-rule="evenodd" clip-rule="evenodd" d="M9.99996 7.64288C11.5779 7.64288 12.8571 8.92207 12.8571 10.5C12.8571 12.078 11.5779 13.3572 9.99996 13.3572C8.42201 13.3572 7.14282 12.078 7.14282 10.5C7.14282 8.92207 8.42201 7.64288 9.99996 7.64288Z" fill="#FCE94F"/>
<path fill-rule="evenodd" clip-rule="evenodd" d="M9.25 8.75C11.183 8.75 12.75 10.317 12.75 12.25C12.75 14.183 11.183 15.75 9.25 15.75C7.317 15.75 5.75 14.183 5.75 12.25C5.75 10.317 7.317 8.75 9.25 8.75Z" fill="#FCE94F"/>
<path d="M3.49994 21.8572V21.1429C3.49994 21.1429 5.30275 19.9525 5.8096 19.8486C6.31646 19.7447 6.91502 19.8293 7.53019 19.9454C8.14536 20.0611 9.06377 20.2176 9.3504 20.2274C9.63703 20.2374 10.1557 20.2024 10.7584 20.166C11.3611 20.1302 12.359 20.0974 12.6702 20.101C12.9815 20.101 13.7585 20.1438 14.5868 20.1944C15.415 20.2451 16.5527 20.3298 16.8108 20.3535C17.0689 20.3771 17.3723 20.4207 17.7166 20.4682C18.0609 20.5153 18.657 20.5865 18.8679 20.6061C19.0788 20.6254 19.5677 20.6926 20.1349 20.7448C20.7022 20.797 21.6099 20.8148 21.8721 20.7955C22.1342 20.7762 22.6837 20.5821 23.296 20.4032C23.9084 20.2243 24.5836 20.0605 25.0972 20.101C25.6108 20.1417 28.4999 21.1428 28.4999 21.1428V21.8571H24.7499H21.7142H18.6785H15.6428H12.6071H9.57137H6.53565L3.49994 21.8572Z" fill="black"/>
<path opacity="0.9" d="M3.49994 21.8571V22.3232C3.49994 22.3232 5.30275 23.0999 5.8096 23.1677C6.31646 23.2355 6.91502 23.1805 7.53019 23.1048C8.14536 23.0293 9.06377 22.9271 9.3504 22.9208C9.63703 22.9136 10.1557 22.9372 10.7584 22.9608C11.3611 22.9844 12.359 23.0058 12.6702 23.0029C12.9815 23.0029 13.7585 22.9751 14.5868 22.9422C15.415 22.9094 16.5527 22.8539 16.8108 22.8384C17.0689 22.8227 17.3723 22.7949 17.7166 22.7636C18.0609 22.7329 18.657 22.6864 18.8679 22.6737C19.0788 22.6608 19.5677 22.6172 20.1349 22.5831C20.7022 22.5488 21.6099 22.5374 21.8721 22.5502C22.1342 22.5631 22.6837 22.6895 23.296 22.8062C23.9084 22.9229 24.5836 23.0298 25.0972 23.0034C25.6108 22.9769 28.4999 22.3236 28.4999 22.3236V21.8576H24.7499H21.7142H18.6785H15.6428H12.6071H9.57137H6.53565L3.49994 21.8571Z" fill="black"/>
<path opacity="0.3" d="M3.49994 21.8571H28.4999V24H3.49994V21.8571Z" fill="#4D585E"/>
<path opacity="0.3" d="M3.74994 5.75V24.75H28.2499V5.75H3.74994Z" stroke="black" stroke-width="0.5"/>
<path d="M16.75 11.5H17.7158H16.75ZM17.8574 11.5H18.7588H17.8574ZM18.9004 11.5H19.6988H18.9004ZM19.8276 11.5H20.1753H19.8276ZM20.3169 11.5H21.0895H20.3169ZM21.244 11.5H23.2786H21.244ZM23.4073 11.5H24.9655H23.4073ZM25.0942 11.5H25.5707H25.0942ZM16.75 11.75H18.2566H16.75ZM18.424 11.75H19.1451H18.424ZM19.2739 11.75H19.6344H19.2739ZM19.7761 11.75H20.4328H19.7761ZM20.5744 11.75H21.244H20.5744ZM21.3728 11.75H22.4416H21.3728ZM22.5832 11.75H23.9739H22.5832ZM24.1027 11.75H25.0298H24.1027ZM25.1586 11.75H25.3904H25.1586ZM16.75 11.9981H18.0248H16.75ZM18.1536 11.9981H20.2396H18.1536ZM20.3684 11.9981H21.3857H20.3684ZM21.5144 11.9981H22.4673H21.5144ZM22.5961 11.9981H23.4073H22.5961ZM23.5361 11.9981L24.8109 12.0019L23.5361 11.9981ZM24.9268 12.0019H27H24.9268ZM16.75 12.25H18.5141H16.75ZM18.6558 12.25H20.5616H18.6558ZM20.6903 12.25H21.4501H20.6903ZM21.5788 12.25H23.3687H21.5788ZM23.4846 12.25H24.7079H23.4846ZM24.8496 12.25H25.3389H24.8496ZM25.4677 12.25H25.7381H25.4677ZM25.8797 12.25H26.6394H25.8797ZM16.75 12.5H17.4067H16.75ZM17.6128 12.5H20.0465H17.6128ZM16.75 12.9981H18.0248H16.75ZM18.1536 12.9981H20.2396H18.1536ZM20.3684 12.9981H21.3857H20.3684ZM21.5144 12.9981H22.4673H21.5144ZM22.5961 12.9981H23.4073H22.5961ZM23.5361 12.9981L24.8109 13.0019L23.5361 12.9981ZM24.9268 13.0019H27H24.9268ZM16.75 13.25H18.3725H16.75ZM18.5013 13.25H20.2396H18.5013ZM20.3684 13.25H21.038H20.3684ZM21.1668 13.25H22.8021H21.1668ZM22.9309 13.25H24.9912H22.9309ZM25.1329 13.25H25.8926H25.1329ZM16.75 13.5H18.5141H16.75ZM18.6558 13.5H20.5616H18.6558ZM20.6903 13.5H21.4501H20.6903ZM21.5788 13.5H23.3687H21.5788ZM23.4846 13.5H24.7079H23.4846ZM24.8496 13.5H25.3389H24.8496ZM25.4677 13.5H25.7381H25.4677ZM25.8797 13.5H26.6394H25.8797ZM16.75 13.75H18.2566H16.75ZM18.424 13.75H19.1451H18.424ZM19.2739 13.75H19.6344H19.2739ZM19.7761 13.75H20.4328H19.7761ZM20.5744 13.75H21.244H20.5744ZM21.3728 13.75H22.4416H21.3728ZM22.5832 13.75H23.9739H22.5832ZM24.1027 13.75H25.0298H24.1027ZM25.1586 13.75H25.3904H25.1586ZM16.75 14.2481H18.0248H16.75ZM18.1536 14.2481H20.2396H18.1536ZM20.3684 14.2481H21.3857H20.3684ZM21.5144 14.2481H22.4673H21.5144ZM22.5961 14.2481H23.4073H22.5961ZM23.5361 14.2481L24.8109 14.2519L23.5361 14.2481ZM24.9268 14.2519H27H24.9268ZM16.75 14.5H18.2566H16.75ZM18.424 14.5H19.1451H18.424ZM19.2739 14.5H19.6344H19.2739ZM19.7761 14.5H20.4328H19.7761ZM20.5744 14.5H21.244H20.5744ZM21.3728 14.5H22.4416H21.3728ZM22.5832 14.5H23.9739H22.5832ZM24.1027 14.5H25.0298H24.1027ZM25.1586 14.5H25.3904H25.1586ZM16.75 14.75H18.3467H16.75ZM18.4884 14.75H18.9906H18.4884ZM19.1193 14.75H20.2654H19.1193ZM20.3942 14.75H22.081H20.3942ZM22.2227 14.75H23.3687H22.2227ZM23.4846 14.75H23.7293H23.4846ZM23.858 14.75H25.3131H23.858ZM25.4677 14.75H26.2274H25.4677ZM16.75 15H18.3467H16.75ZM18.4884 15H19.2095H18.4884ZM19.3383 15H20.4714H19.3383ZM20.6002 15H21.8235H20.6002ZM21.9651 15H22.4545H21.9651ZM22.5832 15H22.8536H22.5832ZM22.9953 15H23.755H22.9953Z" stroke="url(#paint14_linear)"/>
<path d="M16.75 15.75H17.386H16.75ZM17.4793 15.75H18.0729H17.4793ZM18.1661 15.75H18.6919H18.1661ZM18.7767 15.75H19.0057H18.7767ZM19.0989 15.75H19.6077H19.0989ZM19.7095 15.75H21.0493H19.7095ZM21.1341 15.75H22.1602H21.1341ZM22.245 15.75H22.5587H22.245ZM16.75 16H17.7421H16.75ZM17.8524 16H18.3273H17.8524ZM18.4121 16H18.6495H18.4121ZM18.7428 16H19.1753H18.7428ZM19.2685 16H19.7095H19.2685ZM19.7943 16H20.4981H19.7943ZM20.5914 16H21.5072H20.5914ZM21.592 16H22.2026H21.592ZM22.2874 16H22.44H22.2874ZM16.75 16.2481H17.5895H16.75ZM17.6743 16.2481H19.0481H17.6743ZM19.1329 16.2481H19.8028H19.1329ZM19.8876 16.2481H20.5151H19.8876ZM20.5999 16.2481H21.1341H20.5999ZM21.2189 16.2481L22.0584 16.2519L21.2189 16.2481ZM22.1347 16.2519H23.5H22.1347ZM16.75 16.5H17.9117H16.75ZM18.005 16.5H19.2601H18.005ZM19.3448 16.5H19.8452H19.3448ZM19.93 16.5H21.1087H19.93ZM21.185 16.5H21.9906H21.185ZM22.0839 16.5H22.4061H22.0839ZM22.4909 16.5H22.669H22.4909ZM22.7622 16.5H23.2626H22.7622ZM16.75 16.75H17.1825H16.75ZM17.3182 16.75H18.9209H17.3182ZM16.75 17.2481H17.5895H16.75ZM17.6743 17.2481H19.0481H17.6743ZM19.1329 17.2481H19.8028H19.1329ZM19.8876 17.2481H20.5151H19.8876ZM20.5999 17.2481H21.1341H20.5999ZM21.2189 17.2481L22.0584 17.2519L21.2189 17.2481ZM22.1347 17.2519H23.5H22.1347ZM16.75 17.5H17.8185H16.75ZM17.9033 17.5H19.0481H17.9033ZM19.1329 17.5H19.5738H19.1329ZM19.6586 17.5H20.7356H19.6586ZM20.8204 17.5H22.1771H20.8204ZM22.2704 17.5H22.7707H22.2704ZM16.75 17.75H17.9117H16.75ZM18.005 17.75H19.2601H18.005ZM19.3448 17.75H19.8452H19.3448ZM19.93 17.75H21.1087H19.93ZM21.185 17.75H21.9906H21.185ZM22.0839 17.75H22.4061H22.0839ZM22.4909 17.75H22.669H22.4909ZM22.7622 17.75H23.2626H22.7622ZM16.75 18H17.7421H16.75ZM17.8524 18H18.3273H17.8524ZM18.4121 18H18.6495H18.4121ZM18.7428 18H19.1753H18.7428ZM19.2685 18H19.7095H19.2685ZM19.7943 18H20.4981H19.7943ZM20.5914 18H21.5072H20.5914ZM21.592 18H22.2026H21.592ZM22.2874 18H22.44H22.2874ZM16.75 18.4981H17.5895H16.75ZM17.6743 18.4981H19.0481H17.6743ZM19.1329 18.4981H19.8028H19.1329ZM19.8876 18.4981H20.5151H19.8876ZM20.5999 18.4981H21.1341H20.5999ZM21.2189 18.4981L22.0584 18.5019L21.2189 18.4981ZM22.1347 18.5019H23.5H22.1347ZM16.75 18.75H17.7421H16.75ZM17.8524 18.75H18.3273H17.8524ZM18.4121 18.75H18.6495H18.4121ZM18.7428 18.75H19.1753H18.7428ZM19.2685 18.75H19.7095H19.2685ZM19.7943 18.75H20.4981H19.7943ZM20.5914 18.75H21.5072H20.5914ZM21.592 18.75H22.2026H21.592ZM22.2874 18.75H22.44H22.2874ZM16.75 19H17.8015H16.75ZM17.8948 19H18.2255H17.8948ZM18.3103 19H19.065H18.3103ZM19.1498 19H20.2607H19.1498ZM20.354 19H21.1087H20.354ZM21.185 19H21.3461H21.185ZM21.4309 19H22.3891H21.4309ZM22.4909 19H22.9912H22.4909ZM16.75 19.25H17.8015H16.75ZM17.8948 19.25H18.3697H17.8948ZM18.4545 19.25H19.2007H18.4545ZM19.2855 19.25H20.0911H19.2855ZM20.1844 19.25H20.5066H20.1844ZM20.5914 19.25H20.7695H20.5914ZM20.8628 19.25H21.3631H20.8628Z" stroke="url(#paint15_linear)"/>
<path opacity="0.6" d="M23.75 15.5H16.5V19.5H23.75V15.5Z" fill="#FCE94F"/>
<path fill-rule="evenodd" clip-rule="evenodd" d="M23 14.064L25.9276 17L31.051 11.8621C31.4988 11.4922 31.051 11.1281 31.051 11.1281L28.8553 8.92612C28.8553 8.92612 28.5185 8.52986 28.1233 8.92612L23 14.064Z" stroke="#BF830A" stroke-width="2" stroke-linejoin="round"/>
<path fill-rule="evenodd" clip-rule="evenodd" d="M23 14.0682L25.9193 17L31.0282 11.8694C31.5273 11.5001 31.0282 11.1364 31.0282 11.1364L28.8387 8.93759C28.8387 8.93759 28.4766 8.51551 28.1088 8.93759L23 14.0682Z" fill="url(#paint16_linear)"/>
<path fill-rule="evenodd" clip-rule="evenodd" d="M22.8473 14.3398V15.7427L24.2455 17.1456H25.6437L22.8473 14.3398Z" stroke="#838383" stroke-width="2" stroke-linejoin="round"/>
<path fill-rule="evenodd" clip-rule="evenodd" d="M22.8473 14.3398V15.7427L24.2455 17.1456H25.6437L22.8473 14.3398Z" fill="#CECECE"/>
<path fill-rule="evenodd" clip-rule="evenodd" d="M21.25 18.0486H22.6482L23.3473 17.3471L22.6482 16.6456L21.25 18.0486Z" stroke="#BF830A" stroke-width="2" stroke-linejoin="round"/>
<path fill-rule="evenodd" clip-rule="evenodd" d="M22.9225 16.2599L22.3982 16.8956L23.0973 17.5971L23.6872 17.1367L22.9225 16.2599Z" stroke="#838383" stroke-width="2"/>
<path opacity="0.1" d="M26.1122 19C28.4771 19 30.3943 18.6663 30.3943 18.2547C30.3943 17.8431 28.4771 17.5094 26.1122 17.5094C23.7473 17.5094 21.8302 17.8431 21.8302 18.2547C21.8302 18.6663 23.7473 19 26.1122 19Z" fill="url(#paint17_radial)"/>
<path fill-rule="evenodd" clip-rule="evenodd" d="M22.9225 16.2599L22.3982 16.8956L23.0973 17.5971L23.6872 17.1367L22.9225 16.2599Z" fill="#CECECE"/>
<path fill-rule="evenodd" clip-rule="evenodd" d="M21.25 18.0486H22.6482L23.3473 17.3471L22.6482 16.6456L21.25 18.0486Z" fill="#FCE94F"/>
<path opacity="0.5" d="M24.0485 13.6819L28.396 9.31967" stroke="white" stroke-linecap="round"/>
<path opacity="0.5" d="M23.056 15.6375L23.0522 14.8455" stroke="white" stroke-linecap="round"/>
<path opacity="0.1" d="M26.277 15.9685L30.6246 11.6062" stroke="black" stroke-linecap="round"/>
<path opacity="0.1" d="M24.4615 16.7793L25.0709 17.0011" stroke="black" stroke-linecap="round"/>
<path d="M12.3016 18.2982C12.3017 18.4437 12.2067 18.5878 12.022 18.7222C11.8372 18.8566 11.5664 18.9788 11.225 19.0817C10.8836 19.1846 10.4783 19.2662 10.0322 19.3219C9.58604 19.3776 9.10788 19.4062 8.62499 19.4062C8.1421 19.4062 7.66394 19.3776 7.21782 19.3219C6.7717 19.2662 6.36635 19.1846 6.02494 19.0817C5.68353 18.9788 5.41273 18.8566 5.22802 18.7222C5.04331 18.5878 4.9483 18.4437 4.94843 18.2982C4.9483 18.1527 5.04331 18.0086 5.22802 17.8742C5.41273 17.7397 5.68353 17.6176 6.02494 17.5147C6.36635 17.4118 6.7717 17.3302 7.21782 17.2745C7.66394 17.2188 8.1421 17.1901 8.62499 17.1901C9.10788 17.1901 9.58604 17.2188 10.0322 17.2745C10.4783 17.3302 10.8836 17.4118 11.225 17.5147C11.5664 17.6176 11.8372 17.7397 12.022 17.8742C12.2067 18.0086 12.3017 18.1527 12.3016 18.2982Z" fill="url(#paint18_radial)" fill-opacity="0.5"/>
<path d="M8.62499 9.00009C6.0731 9.00009 4 11.0732 4 13.6251C4 16.177 6.0731 18.25 8.62499 18.25C11.1769 18.25 13.25 16.177 13.25 13.6251C13.25 11.0732 11.1769 9.00009 8.62499 9.00009Z" fill="url(#paint19_radial)" fill-opacity="0.5"/>
<path opacity="0.75" d="M8.62465 11.7949C9.95234 11.7949 11.0286 11.2988 11.0286 10.6868C11.0286 10.0749 9.95234 9.57877 8.62465 9.57877C7.29695 9.57877 6.22064 10.0749 6.22064 10.6868C6.22064 11.2988 7.29695 11.7949 8.62465 11.7949Z" fill="url(#paint20_linear)"/>
<path opacity="0.25" d="M8.62498 9C6.07309 9 4 11.0731 4 13.625C4 16.1769 6.07309 18.25 8.62498 18.25C11.1769 18.25 13.25 16.1769 13.25 13.625C13.25 11.0731 11.1769 9 8.62498 9V9Z" stroke="black" stroke-width="0.999995" stroke-linecap="round" stroke-linejoin="round"/>
</g>
<defs>
<radialGradient id="paint0_radial" cx="0" cy="0" r="1" gradientUnits="userSpaceOnUse" gradientTransform="translate(29.5831 22.6652) rotate(-16.5074) scale(3.87242 1.25)">
<stop stop-color="#181818"/>
<stop offset="1" stop-color="#181818" stop-opacity="0"/>
</radialGradient>
<radialGradient id="paint1_radial" cx="0" cy="0" r="1" gradientUnits="userSpaceOnUse" gradientTransform="translate(8.84107 28.8122) rotate(163.493) scale(3.87242 1.25)">
<stop stop-color="#181818"/>
<stop offset="1" stop-color="#181818" stop-opacity="0"/>
</radialGradient>
<linearGradient id="paint2_linear" x1="20.3543" y1="26.7143" x2="19.6411" y2="24.3076" gradientUnits="userSpaceOnUse">
<stop stop-color="#181818" stop-opacity="0"/>
<stop offset="0.5" stop-color="#181818"/>
<stop offset="1" stop-color="#181818" stop-opacity="0"/>
</linearGradient>
<linearGradient id="paint3_linear" x1="20.6328" y1="30.5326" x2="11.5403" y2="-0.148435" gradientUnits="userSpaceOnUse">
<stop stop-color="#EDEDED"/>
<stop offset="1" stop-color="white"/>
</linearGradient>
<linearGradient id="paint4_linear" x1="14.496" y1="24.1836" x2="8.20652" y2="2.96077" gradientUnits="userSpaceOnUse">
<stop stop-color="#16538C"/>
<stop offset="0.362069" stop-color="#3594CA"/>
<stop offset="1" stop-color="#4EDFF3"/>
</linearGradient>
<radialGradient id="paint5_radial" cx="0" cy="0" r="1" gradientUnits="userSpaceOnUse" gradientTransform="translate(28.2111 24.8312) rotate(-6.9819) scale(3.95484 1.25)">
<stop stop-color="#181818"/>
<stop offset="1" stop-color="#181818" stop-opacity="0"/>
</radialGradient>
<radialGradient id="paint6_radial" cx="0" cy="0" r="1" gradientUnits="userSpaceOnUse" gradientTransform="translate(6.28074 27.5168) rotate(173.018) scale(3.95484 1.25)">
<stop stop-color="#181818"/>
<stop offset="1" stop-color="#181818" stop-opacity="0"/>
</radialGradient>
<linearGradient id="paint7_linear" x1="18.2282" y1="27.323" x2="17.9231" y2="24.8315" gradientUnits="userSpaceOnUse">
<stop stop-color="#181818" stop-opacity="0"/>
<stop offset="0.5" stop-color="#181818"/>
<stop offset="1" stop-color="#181818" stop-opacity="0"/>
</linearGradient>
<linearGradient id="paint8_linear" x1="12.766" y1="23.8704" x2="10.0754" y2="1.8994" gradientUnits="userSpaceOnUse">
<stop stop-color="#16538C"/>
<stop offset="0.362069" stop-color="#3594CA"/>
<stop offset="1" stop-color="#4EDFF3"/>
</linearGradient>
<radialGradient id="paint9_radial" cx="0" cy="0" r="1" gradientUnits="userSpaceOnUse" gradientTransform="translate(27.0471 26.25) scale(3.95485 1.25)">
<stop stop-color="#181818"/>
<stop offset="1" stop-color="#181818" stop-opacity="0"/>
</radialGradient>
<radialGradient id="paint10_radial" cx="0" cy="0" r="1" gradientUnits="userSpaceOnUse" gradientTransform="translate(4.95287 26.25) rotate(180) scale(3.95484 1.25)">
<stop stop-color="#181818"/>
<stop offset="1" stop-color="#181818" stop-opacity="0"/>
</radialGradient>
<linearGradient id="paint11_linear" x1="16.8353" y1="27.5099" x2="16.8353" y2="24.9998" gradientUnits="userSpaceOnUse">
<stop stop-color="#181818" stop-opacity="0"/>
<stop offset="0.5" stop-color="#181818"/>
<stop offset="1" stop-color="#181818" stop-opacity="0"/>
</linearGradient>
<linearGradient id="paint12_linear" x1="16" y1="31.3721" x2="16" y2="-1.37209" gradientUnits="userSpaceOnUse">
<stop stop-color="#EDEDED"/>
<stop offset="1" stop-color="white"/>
</linearGradient>
<linearGradient id="paint13_linear" x1="11.8333" y1="23.4189" x2="11.8333" y2="1.28378" gradientUnits="userSpaceOnUse">
<stop stop-color="#16538C"/>
<stop offset="0.362069" stop-color="#3594CA"/>
<stop offset="1" stop-color="#4EDFF3"/>
</linearGradient>
<linearGradient id="paint14_linear" x1="20.4676" y1="15.7476" x2="20.4676" y2="10.4446" gradientUnits="userSpaceOnUse">
<stop stop-color="#D4D4D4"/>
<stop offset="1" stop-color="#FAFAFA"/>
</linearGradient>
<linearGradient id="paint15_linear" x1="19.1982" y1="19.9976" x2="19.1982" y2="14.6946" gradientUnits="userSpaceOnUse">
<stop stop-color="#D4D4D4"/>
<stop offset="1" stop-color="#FAFAFA"/>
</linearGradient>
<linearGradient id="paint16_linear" x1="25.9557" y1="11.2162" x2="28.8489" y2="13.8885" gradientUnits="userSpaceOnUse">
<stop stop-color="#FCE94F"/>
<stop offset="1" stop-color="#D7B031"/>
</linearGradient>
<radialGradient id="paint17_radial" cx="0" cy="0" r="1" gradientUnits="userSpaceOnUse" gradientTransform="translate(26.1122 18.2547) scale(4.28204 0.745304)">
<stop/>
<stop offset="1" stop-opacity="0"/>
</radialGradient>
<radialGradient id="paint18_radial" cx="0" cy="0" r="1" gradientUnits="userSpaceOnUse" gradientTransform="translate(8.62499 18.2982) scale(3.67656 1.10779)">
<stop stop-color="#3D3D3D"/>
<stop offset="0.5" stop-color="#686868" stop-opacity="0.498039"/>
<stop offset="1" stop-color="#686868" stop-opacity="0"/>
</radialGradient>
<radialGradient id="paint19_radial" cx="0" cy="0" r="1" gradientUnits="userSpaceOnUse" gradientTransform="translate(8.62511 9.48908) rotate(90) scale(13.2922 17.5456)">
<stop stop-color="#C8C8C8"/>
<stop offset="0.625454" stop-color="#FCFCFC"/>
<stop offset="1" stop-color="#89898B"/>
</radialGradient>
<linearGradient id="paint20_linear" x1="8.76778" y1="11.8888" x2="8.76778" y2="9.55417" gradientUnits="userSpaceOnUse">
<stop stop-color="white" stop-opacity="0.2"/>
<stop offset="1" stop-color="white" stop-opacity="0.998934"/>
</linearGradient>
<clipPath id="clip0">
<rect width="32" height="32" fill="white"/>
</clipPath>
</defs>
</svg>
