<svg width="16" height="16" viewBox="0 0 16 16" fill="none" xmlns="http://www.w3.org/2000/svg">
<g clip-path="url(#clip0)">
<path opacity="0.6" d="M15.9915 11.5549L14.0324 11.7949L14.1844 13.0356L16.1434 12.7957L15.9915 11.5549Z" fill="url(#paint0_radial)"/>
<path opacity="0.6" d="M1.25463 14.619L3.21368 14.3791L3.06174 13.1384L1.10269 13.3783L1.25463 14.619Z" fill="url(#paint1_radial)"/>
<path opacity="0.6" d="M14.0324 11.7949L3.06171 13.1384L3.21365 14.3791L14.1843 13.0356L14.0324 11.7949Z" fill="url(#paint2_linear)"/>
<path opacity="0.35" d="M15.3077 12.1417L14.001 1.47212C14.001 1.47212 5.06777 2.56613 0.601135 3.11313C1.03671 6.66989 1.90786 13.7834 1.90786 13.7834L15.3077 12.1417Z" stroke="black" stroke-opacity="0.5" stroke-width="2" stroke-linejoin="round"/>
<path d="M15.3076 12.1417L14.001 1.47212C14.001 1.47212 5.06777 2.56613 0.601135 3.11313C1.03671 6.66989 1.90786 13.7834 1.90786 13.7834L15.3076 12.1417Z" fill="url(#paint3_linear)"/>
<path opacity="0.4" d="M0.601135 3.11316L0.631524 3.36131L14.0314 1.7203L14.001 1.47216L0.601135 3.11316Z" fill="white"/>
<path d="M2.34337 13.2264L1.1582 3.54868L13.5655 2.02923L14.7507 11.7069L2.34337 13.2264Z" fill="url(#paint4_linear)"/>
<path opacity="0.1" d="M4.47096 3.86259C3.49625 3.98195 2.79618 4.87741 2.91555 5.85212C3.03492 6.82683 3.93038 7.5269 4.90509 7.40753C5.8798 7.28816 6.57986 6.39271 6.4605 5.41799C6.34113 4.44328 5.44567 3.74322 4.47096 3.86259ZM4.55778 4.57158C5.14933 4.49913 5.67906 4.91328 5.75151 5.50482C5.82395 6.09637 5.40981 6.6261 4.81826 6.69854C4.22672 6.77099 3.69698 6.35684 3.62454 5.7653C3.5521 5.17375 3.96624 4.64402 4.55778 4.57158Z" fill="#FED8CD"/>
<path opacity="0.1" d="M4.4275 3.50811C3.26121 3.65094 2.41818 4.72926 2.56101 5.89555C2.70384 7.06184 3.78216 7.90487 4.94846 7.76204C6.11475 7.61921 6.95778 6.54089 6.81495 5.3746C6.67212 4.2083 5.5938 3.36528 4.4275 3.50811ZM4.60116 4.92609C5.00112 4.87711 5.34799 5.14829 5.39697 5.54825C5.44595 5.94821 5.17477 6.29508 4.77481 6.34406C4.37484 6.39304 4.02797 6.12186 3.97899 5.7219C3.93001 5.32194 4.20119 4.97507 4.60116 4.92609Z" fill="#FED8CD"/>
<path opacity="0.1" d="M4.38411 3.1536C3.02623 3.31989 2.04025 4.58107 2.20654 5.93895C2.37283 7.29683 3.63401 8.28281 4.99189 8.11652C6.34977 7.95023 7.33575 6.68905 7.16946 5.33117C7.00317 3.97329 5.74199 2.98731 4.38411 3.1536ZM4.64459 5.28057C4.85297 5.25505 5.01698 5.38327 5.0425 5.59165C5.06801 5.80003 4.93979 5.96404 4.73141 5.98956C4.52303 6.01507 4.35902 5.88685 4.33351 5.67847C4.30799 5.47009 4.43621 5.30609 4.64459 5.28057Z" fill="#FED8CD"/>
<path fill-rule="evenodd" clip-rule="evenodd" d="M4.51435 4.2171C5.29748 4.12119 6.01008 4.6783 6.10598 5.46142C6.20189 6.24455 5.64478 6.95715 4.86166 7.05305C4.07853 7.14896 3.36593 6.59185 3.27003 5.80873C3.17412 5.0256 3.73122 4.313 4.51435 4.2171Z" fill="#FCE94F"/>
<path fill-rule="evenodd" clip-rule="evenodd" d="M4.20943 4.81215C5.16877 4.69467 6.0417 5.37712 6.15918 6.33645C6.27666 7.29578 5.59421 8.16871 4.63488 8.2862C3.67555 8.40368 2.80262 7.72123 2.68513 6.7619C2.56765 5.80256 3.2501 4.92963 4.20943 4.81215Z" fill="#FCE94F"/>
<path d="M2.1524 11.6666L2.10898 11.3121C2.10898 11.3121 2.93136 10.6117 3.17659 10.5294C3.42183 10.447 3.72403 10.4526 4.03638 10.4728C4.34872 10.4929 4.81403 10.5147 4.95688 10.5022C5.09974 10.4897 5.35504 10.4408 5.65193 10.3861C5.94886 10.3318 6.44211 10.2548 6.5968 10.2377C6.75127 10.2187 7.1395 10.1928 7.55364 10.1675C7.96779 10.1424 8.53754 10.1153 8.66708 10.1113C8.79661 10.1074 8.94984 10.1105 9.12361 10.1132C9.29736 10.1157 9.59752 10.1148 9.70337 10.1117C9.80919 10.1084 10.0559 10.1121 10.3406 10.1035C10.6253 10.0949 11.0769 10.0486 11.2058 10.0231C11.3347 9.99759 11.5957 9.86784 11.8887 9.74182C12.1817 9.61584 12.5069 9.49352 12.7642 9.4824C13.0216 9.47139 14.5163 9.79262 14.5163 9.79262L14.5597 10.1471L12.6986 10.375L11.192 10.5595L9.6854 10.744L8.1788 10.9285L6.6722 11.1131L5.1656 11.2976L3.65899 11.4821L2.1524 11.6666Z" fill="black" fill-opacity="0.5"/>
<path opacity="0.9" d="M2.15234 11.6666L2.18067 11.8979C2.18067 11.8979 3.1226 12.1737 3.37826 12.1766C3.63394 12.1795 3.92766 12.1158 4.22835 12.0408C4.52907 11.966 4.97866 11.8594 5.12053 11.8389C5.26235 11.8179 5.52121 11.7981 5.82174 11.7731C6.12227 11.7482 6.61882 11.6982 6.77312 11.6779C6.92759 11.6589 7.31153 11.5979 7.7206 11.5312C8.12966 11.4646 8.69089 11.3679 8.81805 11.3446C8.9452 11.3211 9.09409 11.2888 9.26307 11.2524C9.43208 11.2162 9.7251 11.1569 9.82898 11.1378C9.93285 11.1186 10.1728 11.0672 10.4523 11.0158C10.7317 10.9643 11.1815 10.9035 11.3124 10.8939C11.4433 10.8844 11.7237 10.9137 12.0347 10.9344C12.3457 10.9551 12.6873 10.9671 12.9406 10.9228C13.1938 10.8785 14.588 10.3786 14.588 10.3786L14.5597 10.1474L12.6986 10.3753L11.192 10.5598L9.68538 10.7443L8.17878 10.9288L6.67218 11.1133L5.16558 11.2978L3.65898 11.4823L2.15234 11.6666Z" fill="black" fill-opacity="0.5"/>
<path opacity="0.3" d="M2.15234 11.6666L14.5597 10.1471L14.6899 11.2106L2.28258 12.7301L2.15234 11.6666Z" fill="#4D585E"/>
<path opacity="0.2" d="M2.34337 13.2264L1.1582 3.54868L13.5655 2.02923L14.7507 11.7069L2.34337 13.2264Z" stroke="black" stroke-opacity="0.5"/>
<path opacity="0.6" d="M15.5001 12.5H13.5264V13.75H15.5001V12.5Z" fill="url(#paint5_radial)"/>
<path opacity="0.6" d="M0.500006 13.75H2.47369V12.5H0.500006V13.75Z" fill="url(#paint6_radial)"/>
<path opacity="0.6" d="M13.5263 12.5H2.47369V13.75H13.5263V12.5Z" fill="url(#paint7_linear)"/>
<path opacity="0.35" d="M14.75 12.9993L14.75 2.25C14.75 2.25 5.75 2.25 1.25 2.25C1.25 5.83333 1.25 13 1.25 13L14.75 12.9993Z" stroke="black" stroke-opacity="0.5" stroke-width="2" stroke-linejoin="round"/>
<path d="M14.75 12.9993L14.75 2.25C14.75 2.25 5.75 2.25 1.25 2.25C1.25 5.83333 1.25 13 1.25 13L14.75 12.9993Z" fill="url(#paint8_linear)"/>
<path opacity="0.4" d="M1.25 2.25V2.5H14.75V2.25H1.25Z" fill="white"/>
<path d="M1.75 12.5V2.75H14.25V12.5H1.75Z" fill="url(#paint9_linear)"/>
<path opacity="0.1" d="M5.00001 3.46429C4.01802 3.46429 3.21429 4.26801 3.21429 5.25001C3.21429 6.232 4.01802 7.03572 5.00001 7.03572C5.982 7.03572 6.78572 6.232 6.78572 5.25001C6.78572 4.26801 5.982 3.46429 5.00001 3.46429ZM5.00001 4.17858C5.59597 4.17858 6.07144 4.65404 6.07144 5.25001C6.07144 5.84597 5.59597 6.32144 5.00001 6.32144C4.40404 6.32144 3.92858 5.84597 3.92858 5.25001C3.92858 4.65404 4.40404 4.17858 5.00001 4.17858Z" fill="#FED8CD"/>
<path opacity="0.1" d="M5.00003 3.10715C3.82503 3.10715 2.85718 4.075 2.85718 5.25C2.85718 6.42501 3.82503 7.39286 5.00003 7.39286C6.17504 7.39286 7.14289 6.42501 7.14289 5.25C7.14289 4.075 6.17504 3.10715 5.00003 3.10715ZM5.00003 4.53572C5.40298 4.53572 5.71432 4.84705 5.71432 5.25C5.71432 5.65295 5.40298 5.96429 5.00003 5.96429C4.59708 5.96429 4.28575 5.65295 4.28575 5.25C4.28575 4.84705 4.59708 4.53572 5.00003 4.53572Z" fill="#FED8CD"/>
<path opacity="0.1" d="M5 2.75C3.63198 2.75 2.5 3.88198 2.5 5.25C2.5 6.61802 3.63198 7.75 5 7.75C6.36802 7.75 7.5 6.61802 7.5 5.25C7.5 3.88198 6.36802 2.75 5 2.75ZM5 4.89286C5.20994 4.89286 5.35714 5.04006 5.35714 5.25C5.35714 5.45994 5.20994 5.60714 5 5.60714C4.79006 5.60714 4.64286 5.45994 4.64286 5.25C4.64286 5.04006 4.79006 4.89286 5 4.89286Z" fill="#FED8CD"/>
<path fill-rule="evenodd" clip-rule="evenodd" d="M5.00004 3.82144C5.78902 3.82144 6.42862 4.46104 6.42862 5.25001C6.42862 6.03899 5.78902 6.67859 5.00004 6.67859C4.21106 6.67859 3.57147 6.03899 3.57147 5.25001C3.57147 4.46104 4.21106 3.82144 5.00004 3.82144Z" fill="#FCE94F"/>
<path fill-rule="evenodd" clip-rule="evenodd" d="M4.625 4.375C5.5915 4.375 6.375 5.1585 6.375 6.125C6.375 7.0915 5.5915 7.875 4.625 7.875C3.6585 7.875 2.875 7.0915 2.875 6.125C2.875 5.1585 3.6585 4.375 4.625 4.375Z" fill="#FCE94F"/>
<path d="M1.75 10.9286V10.5714C1.75 10.5714 2.65141 9.97623 2.90483 9.9243C3.15826 9.87237 3.45754 9.91466 3.76512 9.97269C4.07271 10.0305 4.53191 10.1088 4.67523 10.1137C4.81855 10.1187 5.0779 10.1012 5.37923 10.083C5.68057 10.0651 6.17951 10.0487 6.33514 10.0505C6.49076 10.0505 6.87927 10.0719 7.29341 10.0972C7.70755 10.1225 8.27636 10.1649 8.40542 10.1768C8.53448 10.1885 8.68619 10.2103 8.85835 10.2341C9.0305 10.2577 9.32855 10.2933 9.43399 10.303C9.53942 10.3127 9.78387 10.3463 10.0675 10.3724C10.3511 10.3985 10.805 10.4074 10.9361 10.3978C11.0671 10.3881 11.3419 10.291 11.6481 10.2016C11.9542 10.1122 12.2918 10.0303 12.5486 10.0505C12.8054 10.0709 14.25 10.5714 14.25 10.5714V10.9285H12.375H10.8571H9.33929H7.82143H6.30357H4.78571H3.26786L1.75 10.9286Z" fill="black" fill-opacity="0.5"/>
<path opacity="0.9" d="M1.75 10.9286V11.1616C1.75 11.1616 2.65141 11.5499 2.90483 11.5838C3.15826 11.6178 3.45754 11.5903 3.76512 11.5524C4.07271 11.5147 4.53191 11.4636 4.67523 11.4604C4.81855 11.4568 5.0779 11.4686 5.37923 11.4804C5.68057 11.4922 6.17951 11.5029 6.33514 11.5015C6.49076 11.5015 6.87927 11.4876 7.29341 11.4711C7.70755 11.4547 8.27636 11.4269 8.40542 11.4192C8.53448 11.4114 8.68619 11.3974 8.85835 11.3818C9.0305 11.3664 9.32855 11.3432 9.43399 11.3368C9.53942 11.3304 9.78387 11.3086 10.0675 11.2916C10.3511 11.2744 10.805 11.2687 10.9361 11.2751C11.0671 11.2816 11.3419 11.3448 11.6481 11.4031C11.9542 11.4615 12.2918 11.5149 12.5486 11.5017C12.8054 11.4885 14.25 11.1618 14.25 11.1618V10.9288H12.375H10.8571H9.33929H7.82143H6.30357H4.78571H3.26786L1.75 10.9286Z" fill="black" fill-opacity="0.5"/>
<path opacity="0.3" d="M1.75 10.9286H14.25V12H1.75V10.9286Z" fill="#4D585E"/>
<path opacity="0.5" d="M13.75 3.25H2.25V12H13.75V3.25Z" stroke="black" stroke-opacity="0.5"/>
<path d="M8.375 5.75H8.85788H8.375ZM8.92871 5.75H9.3794H8.92871ZM9.45022 5.75H9.8494H9.45022ZM9.91379 5.75H10.0876H9.91379ZM10.1584 5.75H10.5448H10.1584ZM10.622 5.75H11.6393H10.622ZM11.7037 5.75H12.4827H11.7037ZM12.5471 5.75H12.7853H12.5471ZM8.375 5.875H9.1283H8.375ZM9.212 5.875H9.57255H9.212ZM9.63694 5.875H9.81721H9.63694ZM9.88803 5.875H10.2164H9.88803ZM10.2872 5.875H10.622H10.2872ZM10.6864 5.875H11.2208H10.6864ZM11.2916 5.875H11.987H11.2916ZM12.0514 5.875H12.5149H12.0514ZM12.5793 5.875H12.6952H12.5793ZM8.375 5.99907H9.01241H8.375ZM9.07679 5.99907H10.1198H9.07679ZM10.1842 5.99907H10.6928H10.1842ZM10.7572 5.99907H11.2337H10.7572ZM11.2981 5.99907H11.7037H11.2981ZM11.7681 5.99907L12.4055 6.00093L11.7681 5.99907ZM12.4634 6.00093H13.5H12.4634ZM8.375 6.125H9.25707H8.375ZM9.32789 6.125H10.2808H9.32789ZM10.3452 6.125H10.725H10.3452ZM10.7894 6.125H11.6844H10.7894ZM11.7423 6.125H12.354H11.7423ZM12.4248 6.125H12.6694H12.4248ZM12.7338 6.125H12.869H12.7338ZM12.9399 6.125H13.3197H12.9399ZM8.375 6.25H8.70336H8.375ZM8.80638 6.25H10.0232H8.80638ZM8.375 6.49907H9.01241H8.375ZM9.07679 6.49907H10.1198H9.07679ZM10.1842 6.49907H10.6928H10.1842ZM10.7572 6.49907H11.2337H10.7572ZM11.2981 6.49907H11.7037H11.2981ZM11.7681 6.49907L12.4055 6.50093L11.7681 6.49907ZM12.4634 6.50093H13.5H12.4634ZM8.375 6.625H9.18624H8.375ZM9.25063 6.625H10.1198H9.25063ZM10.1842 6.625H10.519H10.1842ZM10.5834 6.625H11.4011H10.5834ZM11.4655 6.625H12.4956H11.4655ZM12.5664 6.625H12.9463H12.5664ZM8.375 6.75H9.25707H8.375ZM9.32789 6.75H10.2808H9.32789ZM10.3452 6.75H10.725H10.3452ZM10.7894 6.75H11.6844H10.7894ZM11.7423 6.75H12.354H11.7423ZM12.4248 6.75H12.6694H12.4248ZM12.7338 6.75H12.869H12.7338ZM12.9399 6.75H13.3197H12.9399ZM8.375 6.875H9.1283H8.375ZM9.212 6.875H9.57255H9.212ZM9.63694 6.875H9.81721H9.63694ZM9.88803 6.875H10.2164H9.88803ZM10.2872 6.875H10.622H10.2872ZM10.6864 6.875H11.2208H10.6864ZM11.2916 6.875H11.987H11.2916ZM12.0514 6.875H12.5149H12.0514ZM12.5793 6.875H12.6952H12.5793ZM8.375 7.12407H9.01241H8.375ZM9.07679 7.12407H10.1198H9.07679ZM10.1842 7.12407H10.6928H10.1842ZM10.7572 7.12407H11.2337H10.7572ZM11.2981 7.12407H11.7037H11.2981ZM11.7681 7.12407L12.4055 7.12593L11.7681 7.12407ZM12.4634 7.12593H13.5H12.4634ZM8.375 7.25H9.1283H8.375ZM9.212 7.25H9.57255H9.212ZM9.63694 7.25H9.81721H9.63694ZM9.88803 7.25H10.2164H9.88803ZM10.2872 7.25H10.622H10.2872ZM10.6864 7.25H11.2208H10.6864ZM11.2916 7.25H11.987H11.2916ZM12.0514 7.25H12.5149H12.0514ZM12.5793 7.25H12.6952H12.5793ZM8.375 7.375H9.17337H8.375ZM9.24419 7.375H9.49529H9.24419ZM9.55967 7.375H10.1327H9.55967ZM10.1971 7.375H11.0405H10.1971ZM11.1113 7.375H11.6844H11.1113ZM11.7423 7.375H11.8646H11.7423ZM11.929 7.375H12.6566H11.929ZM12.7338 7.375H13.1137H12.7338ZM8.375 7.5H9.17337H8.375ZM9.24419 7.5H9.60474H9.24419ZM9.66913 7.5H10.2357H9.66913ZM10.3001 7.5H10.9117H10.3001ZM10.9826 7.5H11.2272H10.9826ZM11.2916 7.5H11.4268H11.2916ZM11.4976 7.5H11.8775H11.4976Z" stroke="url(#paint10_linear)" stroke-width="0.2"/>
<path d="M8.375 7.875H8.693H8.375ZM8.73964 7.875H9.03643H8.73964ZM9.08307 7.875H9.34595H9.08307ZM9.38835 7.875H9.50283H9.38835ZM9.54947 7.875H9.80386H9.54947ZM9.85474 7.875H10.5247H9.85474ZM10.5671 7.875H11.0801H10.5671ZM11.1225 7.875H11.2794H11.1225ZM8.375 8H8.87107H8.375ZM8.92619 8H9.16363H8.92619ZM9.20603 8H9.32475H9.20603ZM9.37139 8H9.58763H9.37139ZM9.63427 8H9.85474H9.63427ZM9.89714 8H10.2491H9.89714ZM10.2957 8H10.7536H10.2957ZM10.796 8H11.1013H10.796ZM11.1437 8H11.22H11.1437ZM8.375 8.12407H8.79476H8.375ZM8.83715 8.12407H9.52403H8.83715ZM9.56643 8.12407H9.90138H9.56643ZM9.94378 8.12407H10.2575H9.94378ZM10.2999 8.12407H10.5671H10.2999ZM10.6095 8.12407L11.0292 8.12593L10.6095 8.12407ZM11.0674 8.12593H11.75H11.0674ZM8.375 8.25H8.95587H8.375ZM9.00251 8.25H9.63003H9.00251ZM9.67242 8.25H9.92258H9.67242ZM9.96498 8.25H10.5543H9.96498ZM10.5925 8.25H10.9953H10.5925ZM11.0419 8.25H11.203H11.0419ZM11.2454 8.25H11.3345H11.2454ZM11.3811 8.25H11.6313H11.3811ZM8.375 8.375H8.59124H8.375ZM8.65908 8.375H9.46043H8.65908ZM8.375 8.62407H8.79476H8.375ZM8.83715 8.62407H9.52403H8.83715ZM9.56643 8.62407H9.90138H9.56643ZM9.94378 8.62407H10.2575H9.94378ZM10.2999 8.62407H10.5671H10.2999ZM10.6095 8.62407L11.0292 8.62593L10.6095 8.62407ZM11.0674 8.62593H11.75H11.0674ZM8.375 8.75H8.90923H8.375ZM8.95163 8.75H9.52403H8.95163ZM9.56643 8.75H9.7869H9.56643ZM9.8293 8.75H10.3678H9.8293ZM10.4102 8.75H11.0886H10.4102ZM11.1352 8.75H11.3854H11.1352ZM8.375 8.875H8.95587H8.375ZM9.00251 8.875H9.63003H9.00251ZM9.67242 8.875H9.92258H9.67242ZM9.96498 8.875H10.5543H9.96498ZM10.5925 8.875H10.9953H10.5925ZM11.0419 8.875H11.203H11.0419ZM11.2454 8.875H11.3345H11.2454ZM11.3811 8.875H11.6313H11.3811ZM8.375 9H8.87107H8.375ZM8.92619 9H9.16363H8.92619ZM9.20603 9H9.32475H9.20603ZM9.37139 9H9.58763H9.37139ZM9.63427 9H9.85474H9.63427ZM9.89714 9H10.2491H9.89714ZM10.2957 9H10.7536H10.2957ZM10.796 9H11.1013H10.796ZM11.1437 9H11.22H11.1437ZM8.375 9.24907H8.79476H8.375ZM8.83715 9.24907H9.52403H8.83715ZM9.56643 9.24907H9.90138H9.56643ZM9.94378 9.24907H10.2575H9.94378ZM10.2999 9.24907H10.5671H10.2999ZM10.6095 9.24907L11.0292 9.25093L10.6095 9.24907ZM11.0674 9.25093H11.75H11.0674ZM8.375 9.375H8.87107H8.375ZM8.92619 9.375H9.16363H8.92619ZM9.20603 9.375H9.32475H9.20603ZM9.37139 9.375H9.58763H9.37139ZM9.63427 9.375H9.85474H9.63427ZM9.89714 9.375H10.2491H9.89714ZM10.2957 9.375H10.7536H10.2957ZM10.796 9.375H11.1013H10.796ZM11.1437 9.375H11.22H11.1437ZM8.375 9.5H8.90075H8.375ZM8.94739 9.5H9.11275H8.94739ZM9.15515 9.5H9.53251H9.15515ZM9.57491 9.5H10.1303H9.57491ZM10.177 9.5H10.5543H10.177ZM10.5925 9.5H10.6731H10.5925ZM10.7155 9.5H11.1946H10.7155ZM11.2454 9.5H11.4956H11.2454ZM8.375 9.625H8.90075H8.375ZM8.94739 9.625H9.18483H8.94739ZM9.22723 9.625H9.60035H9.22723ZM9.64275 9.625H10.0455H9.64275ZM10.0922 9.625H10.2533H10.0922ZM10.2957 9.625H10.3847H10.2957ZM10.4314 9.625H10.6815H10.4314Z" stroke="url(#paint11_linear)" stroke-width="0.2"/>
<path opacity="0.6" d="M11.875 7.75H8.25V9.75H11.875V7.75Z" fill="#FCE94F"/>
<path fill-rule="evenodd" clip-rule="evenodd" d="M11.5 7.03202L12.9638 8.5L15.5255 5.93104C15.7494 5.74612 15.5255 5.56404 15.5255 5.56404L14.4276 4.46306C14.4276 4.46306 14.2592 4.26493 14.0617 4.46306L11.5 7.03202Z" stroke="#BF830A" stroke-width="2" stroke-linejoin="round"/>
<path fill-rule="evenodd" clip-rule="evenodd" d="M11.5 7.03411L12.9597 8.5L15.5141 5.93469C15.7636 5.75003 15.5141 5.56821 15.5141 5.56821L14.4193 4.46879C14.4193 4.46879 14.2383 4.25776 14.0544 4.46879L11.5 7.03411Z" fill="url(#paint12_linear)"/>
<path fill-rule="evenodd" clip-rule="evenodd" d="M11.4236 7.16989V7.87135L12.1228 8.57282H12.8219L11.4236 7.16989Z" stroke="#838383" stroke-width="2" stroke-linejoin="round"/>
<path fill-rule="evenodd" clip-rule="evenodd" d="M11.4236 7.16989V7.87135L12.1228 8.57282H12.8219L11.4236 7.16989Z" fill="#CECECE"/>
<path fill-rule="evenodd" clip-rule="evenodd" d="M10.625 9.02428H11.3241L11.6737 8.67355L11.3241 8.32281L10.625 9.02428Z" stroke="#BF830A" stroke-width="2" stroke-linejoin="round"/>
<path fill-rule="evenodd" clip-rule="evenodd" d="M11.4613 8.12997L11.1991 8.44782L11.5487 8.79856L11.8436 8.56839L11.4613 8.12997Z" stroke="#838383" stroke-width="2"/>
<path opacity="0.1" d="M13.0561 9.5C14.2386 9.5 15.1971 9.33316 15.1971 9.12735C15.1971 8.92154 14.2386 8.7547 13.0561 8.7547C11.8737 8.7547 10.9151 8.92154 10.9151 9.12735C10.9151 9.33316 11.8737 9.5 13.0561 9.5Z" fill="url(#paint13_radial)"/>
<path fill-rule="evenodd" clip-rule="evenodd" d="M11.4613 8.12997L11.1991 8.44782L11.5487 8.79856L11.8436 8.56839L11.4613 8.12997Z" fill="#CECECE"/>
<path fill-rule="evenodd" clip-rule="evenodd" d="M10.625 9.02428H11.3241L11.6737 8.67355L11.3241 8.32281L10.625 9.02428Z" fill="#FCE94F"/>
<path opacity="0.5" d="M12.0242 6.84093L14.198 4.65982" stroke="white" stroke-linecap="round"/>
<path opacity="0.5" d="M11.528 7.81874L11.5261 7.42273" stroke="white" stroke-linecap="round"/>
<path opacity="0.1" d="M13.1385 7.98421L15.3123 5.8031" stroke="black" stroke-opacity="0.8" stroke-linecap="round"/>
<path opacity="0.1" d="M12.2308 8.38965L12.5354 8.50054" stroke="black" stroke-opacity="0.8" stroke-linecap="round"/>
<path d="M6.15081 9.14909C6.15087 9.22184 6.10336 9.29388 6.01101 9.3611C5.91865 9.42832 5.78325 9.4894 5.61255 9.54084C5.44184 9.59229 5.23917 9.6331 5.01611 9.66095C4.79305 9.68879 4.55397 9.70312 4.31252 9.70312C4.07108 9.70312 3.832 9.68879 3.60894 9.66095C3.38588 9.6331 3.18321 9.59229 3.0125 9.54084C2.84179 9.4894 2.7064 9.42832 2.61404 9.3611C2.52169 9.29388 2.47418 9.22184 2.47424 9.14909C2.47418 9.07634 2.52169 9.0043 2.61404 8.93709C2.7064 8.86987 2.84179 8.80879 3.0125 8.75734C3.18321 8.70589 3.38588 8.66508 3.60894 8.63724C3.832 8.60939 4.07108 8.59506 4.31252 8.59506C4.55397 8.59506 4.79305 8.60939 5.01611 8.63724C5.23917 8.66508 5.44184 8.70589 5.61255 8.75734C5.78325 8.80879 5.91865 8.86987 6.01101 8.93709C6.10336 9.0043 6.15087 9.07634 6.15081 9.14909Z" fill="url(#paint14_radial)" fill-opacity="0.5"/>
<path d="M4.31249 4.50006C3.03655 4.50006 2 5.5366 2 6.81255C2 8.0885 3.03655 9.12504 4.31249 9.12504C5.58846 9.12504 6.625 8.0885 6.625 6.81255C6.625 5.5366 5.58846 4.50006 4.31249 4.50006Z" fill="url(#paint15_radial)" fill-opacity="0.5"/>
<path opacity="0.75" d="M4.31235 5.89744C4.9762 5.89744 5.51436 5.64939 5.51436 5.3434C5.51436 5.03742 4.9762 4.78937 4.31235 4.78937C3.64851 4.78937 3.11035 5.03742 3.11035 5.3434C3.11035 5.64939 3.64851 5.89744 4.31235 5.89744Z" fill="url(#paint16_linear)"/>
<path opacity="0.25" d="M4.31249 4.5C3.03654 4.5 2 5.53654 2 6.8125C2 8.08846 3.03654 9.125 4.31249 9.125C5.58846 9.125 6.625 8.08846 6.625 6.8125C6.625 5.53654 5.58846 4.5 4.31249 4.5V4.5Z" stroke="black" stroke-opacity="0.8" stroke-width="0.999995" stroke-linecap="round" stroke-linejoin="round"/>
</g>
<defs>
<radialGradient id="paint0_radial" cx="0" cy="0" r="1" gradientUnits="userSpaceOnUse" gradientTransform="translate(14.1056 12.4156) rotate(-6.9819) scale(1.97742 0.625)">
<stop stop-color="#181818"/>
<stop offset="1" stop-color="#181818" stop-opacity="0"/>
</radialGradient>
<radialGradient id="paint1_radial" cx="0" cy="0" r="1" gradientUnits="userSpaceOnUse" gradientTransform="translate(3.14046 13.7584) rotate(173.018) scale(1.97742 0.625)">
<stop stop-color="#181818"/>
<stop offset="1" stop-color="#181818" stop-opacity="0"/>
</radialGradient>
<linearGradient id="paint2_linear" x1="9.11417" y1="13.6615" x2="8.96161" y2="12.4157" gradientUnits="userSpaceOnUse">
<stop stop-color="#181818" stop-opacity="0"/>
<stop offset="0.5" stop-color="#181818"/>
<stop offset="1" stop-color="#181818" stop-opacity="0"/>
</linearGradient>
<linearGradient id="paint3_linear" x1="8.92689" y1="15.5684" x2="6.982" y2="-0.312908" gradientUnits="userSpaceOnUse">
<stop stop-color="#EDEDED"/>
<stop offset="1" stop-color="white"/>
</linearGradient>
<linearGradient id="paint4_linear" x1="6.38305" y1="11.9352" x2="5.03772" y2="0.949716" gradientUnits="userSpaceOnUse">
<stop stop-color="#16538C"/>
<stop offset="0.362069" stop-color="#3594CA"/>
<stop offset="1" stop-color="#4EDFF3"/>
</linearGradient>
<radialGradient id="paint5_radial" cx="0" cy="0" r="1" gradientUnits="userSpaceOnUse" gradientTransform="translate(13.5236 13.125) scale(1.97742 0.625)">
<stop stop-color="#181818"/>
<stop offset="1" stop-color="#181818" stop-opacity="0"/>
</radialGradient>
<radialGradient id="paint6_radial" cx="0" cy="0" r="1" gradientUnits="userSpaceOnUse" gradientTransform="translate(2.47646 13.125) rotate(180) scale(1.97742 0.625)">
<stop stop-color="#181818"/>
<stop offset="1" stop-color="#181818" stop-opacity="0"/>
</radialGradient>
<linearGradient id="paint7_linear" x1="8.41769" y1="13.755" x2="8.41769" y2="12.4999" gradientUnits="userSpaceOnUse">
<stop stop-color="#181818" stop-opacity="0"/>
<stop offset="0.5" stop-color="#181818"/>
<stop offset="1" stop-color="#181818" stop-opacity="0"/>
</linearGradient>
<linearGradient id="paint8_linear" x1="8" y1="15.625" x2="8" y2="-0.375" gradientUnits="userSpaceOnUse">
<stop stop-color="#EDEDED"/>
<stop offset="1" stop-color="white"/>
</linearGradient>
<linearGradient id="paint9_linear" x1="5.91667" y1="11.7095" x2="5.91667" y2="0.641891" gradientUnits="userSpaceOnUse">
<stop stop-color="#16538C"/>
<stop offset="0.362069" stop-color="#3594CA"/>
<stop offset="1" stop-color="#4EDFF3"/>
</linearGradient>
<linearGradient id="paint10_linear" x1="10.2338" y1="7.87378" x2="10.2338" y2="5.22231" gradientUnits="userSpaceOnUse">
<stop stop-color="#D4D4D4"/>
<stop offset="1" stop-color="#FAFAFA"/>
</linearGradient>
<linearGradient id="paint11_linear" x1="9.59909" y1="9.99878" x2="9.59909" y2="7.34731" gradientUnits="userSpaceOnUse">
<stop stop-color="#D4D4D4"/>
<stop offset="1" stop-color="#FAFAFA"/>
</linearGradient>
<linearGradient id="paint12_linear" x1="12.9779" y1="5.60811" x2="14.4245" y2="6.94427" gradientUnits="userSpaceOnUse">
<stop stop-color="#FCE94F"/>
<stop offset="1" stop-color="#D7B031"/>
</linearGradient>
<radialGradient id="paint13_radial" cx="0" cy="0" r="1" gradientUnits="userSpaceOnUse" gradientTransform="translate(13.0561 9.12735) scale(2.14102 0.372652)">
<stop/>
<stop offset="1" stop-opacity="0"/>
</radialGradient>
<radialGradient id="paint14_radial" cx="0" cy="0" r="1" gradientUnits="userSpaceOnUse" gradientTransform="translate(4.31252 9.14909) scale(1.83828 0.553893)">
<stop stop-color="#3D3D3D"/>
<stop offset="0.5" stop-color="#686868" stop-opacity="0.498039"/>
<stop offset="1" stop-color="#686868" stop-opacity="0"/>
</radialGradient>
<radialGradient id="paint15_radial" cx="0" cy="0" r="1" gradientUnits="userSpaceOnUse" gradientTransform="translate(4.31255 4.74456) rotate(90) scale(6.64611 8.77281)">
<stop stop-color="#C8C8C8"/>
<stop offset="0.625454" stop-color="#FCFCFC"/>
<stop offset="1" stop-color="#89898B"/>
</radialGradient>
<linearGradient id="paint16_linear" x1="4.38392" y1="5.94439" x2="4.38392" y2="4.77707" gradientUnits="userSpaceOnUse">
<stop stop-color="white" stop-opacity="0.2"/>
<stop offset="1" stop-color="white" stop-opacity="0.998934"/>
</linearGradient>
<clipPath id="clip0">
<rect width="16" height="16" fill="white"/>
</clipPath>
</defs>
</svg>
