<svg width="48" height="48" viewBox="0 0 48 48" fill="none" xmlns="http://www.w3.org/2000/svg">
<g clip-path="url(#clip0)">
<path opacity="0.6" d="M48.1118 34.3498L42.2446 35.1465L42.7492 38.8624L48.6164 38.0657L48.1118 34.3498Z" fill="url(#paint0_radial)"/>
<path opacity="0.6" d="M4.0256 44.1206L9.89282 43.3239L9.38825 39.608L3.52103 40.4047L4.0256 44.1206Z" fill="url(#paint1_radial)"/>
<path opacity="0.6" d="M42.2446 35.1465L9.38818 39.608L9.89276 43.3239L42.7492 38.8624L42.2446 35.1465Z" fill="url(#paint2_linear)"/>
<path opacity="0.35" d="M46.0839 36.1366L41.7449 4.18214C41.7449 4.18214 14.9904 7.81509 1.61316 9.63156C3.05961 20.2838 5.95252 41.5883 5.95252 41.5883L46.0839 36.1366Z" stroke="black" stroke-width="2" stroke-linejoin="round"/>
<path d="M46.0839 36.1366L41.7449 4.18214C41.7449 4.18214 14.9904 7.81509 1.61316 9.63156C3.05961 20.2838 5.95252 41.5883 5.95252 41.5883L46.0839 36.1366Z" fill="url(#paint3_linear)"/>
<path opacity="0.4" d="M46.0839 36.1366L41.7449 4.18214C41.7449 4.18214 14.9904 7.81509 1.61316 9.63156C3.05961 20.2838 5.95252 41.5883 5.95252 41.5883L46.0839 36.1366Z" stroke="white" stroke-width="2" stroke-linejoin="round"/>
<path opacity="0.4" d="M1.61316 9.63156L1.71407 10.3747L41.8458 4.92532L41.7449 4.18214L1.61316 9.63156Z" fill="white"/>
<path d="M7.23697 39.9001L3.30127 10.9161L40.4603 5.87034L44.396 34.8544L7.23697 39.9001Z" fill="url(#paint4_linear)"/>
<path opacity="0.1" d="M13.2511 11.7276C10.3319 12.124 8.26706 14.8376 8.66345 17.7568C9.05984 20.676 11.7735 22.7408 14.6927 22.3444C17.6119 21.948 19.6767 19.2344 19.2803 16.3152C18.8839 13.396 16.1702 11.3312 13.2511 11.7276ZM13.5394 13.8509C15.311 13.6104 16.9164 14.8319 17.1569 16.6035C17.3975 18.3751 16.176 19.9805 14.4044 20.2211C12.6327 20.4616 11.0274 19.2401 10.7868 17.4685C10.5463 15.6969 11.7677 14.0915 13.5394 13.8509Z" fill="#FED8CD"/>
<path opacity="0.1" d="M13.1068 10.6659C9.61384 11.1402 7.12738 14.408 7.60168 17.901C8.07599 21.394 11.3438 23.8804 14.8368 23.4061C18.3297 22.9318 20.8162 19.664 20.3419 16.171C19.8676 12.6781 16.5998 10.1916 13.1068 10.6659ZM13.6835 14.9126C14.8813 14.75 15.9325 15.5498 16.0952 16.7477C16.2578 17.9455 15.458 18.9967 14.2601 19.1594C13.0623 19.322 12.0111 18.5222 11.8484 17.3243C11.6858 16.1265 12.4856 15.0753 13.6835 14.9126Z" fill="#FED8CD"/>
<path opacity="0.1" d="M12.9627 9.60419C8.89594 10.1564 5.98782 13.9784 6.54004 18.0451C7.09225 22.1119 10.9142 25.02 14.981 24.4678C19.0477 23.9156 21.9558 20.0936 21.4036 16.0268C20.8514 11.9601 17.0294 9.05197 12.9627 9.60419ZM13.8277 15.9743C14.4517 15.8896 14.9488 16.2677 15.0335 16.8918C15.1183 17.5159 14.7401 18.0129 14.116 18.0977C13.4919 18.1824 12.9949 17.8042 12.9101 17.1802C12.8254 16.5561 13.2036 16.059 13.8277 15.9743Z" fill="#FED8CD"/>
<path fill-rule="evenodd" clip-rule="evenodd" d="M13.3952 12.7893C15.7406 12.4708 17.9001 14.114 18.2186 16.4594C18.5371 18.8048 16.8939 20.9643 14.5485 21.2828C12.2031 21.6012 10.0436 19.9581 9.7251 17.6127C9.40662 15.2673 11.0498 13.1078 13.3952 12.7893Z" fill="#FCE94F"/>
<path fill-rule="evenodd" clip-rule="evenodd" d="M12.5039 14.5862C15.377 14.1961 18.0224 16.2089 18.4126 19.0821C18.8027 21.9552 16.7898 24.6006 13.9167 24.9907C11.0436 25.3809 8.39818 23.368 8.00804 20.4949C7.6179 17.6218 9.63076 14.9764 12.5039 14.5862Z" fill="#FCE94F"/>
<path d="M6.60261 35.2287L6.45845 34.167C6.45845 34.167 8.89781 32.0338 9.63021 31.7771C10.3626 31.5204 11.2694 31.5253 12.2072 31.5737C13.1449 31.6215 14.5415 31.6688 14.9696 31.6255C15.3976 31.5825 16.1615 31.4258 17.05 31.25C17.9385 31.0753 19.4151 30.825 19.8785 30.7675C20.3411 30.7047 21.5047 30.6116 22.746 30.5196C23.9874 30.4278 25.6954 30.3241 26.0838 30.3072C26.4722 30.2902 26.932 30.2937 27.4534 30.2948C27.9747 30.2954 28.8751 30.2809 29.1924 30.2675C29.5098 30.2536 30.25 30.2548 31.1037 30.2179C31.9573 30.1809 33.3102 30.0243 33.6959 29.9427C34.0817 29.8611 34.8592 29.4616 35.7333 29.0721C36.6073 28.6827 37.5779 28.3029 38.3494 28.2595C39.121 28.2163 43.6174 29.1212 43.6174 29.1212L43.7616 30.1829L38.1877 30.9397L33.6756 31.5524L29.1634 32.1651L24.6512 32.7778L20.1391 33.3905L15.6269 34.0032L11.1148 34.6159L6.60261 35.2287Z" fill="black"/>
<path opacity="0.9" d="M6.60266 35.2287L6.69673 35.9215C6.69673 35.9215 9.53311 36.712 10.3002 36.7104C11.0672 36.709 11.9458 36.5064 12.8449 36.2697C13.744 36.0334 15.0885 35.6962 15.5132 35.6289C15.9378 35.5604 16.7136 35.4908 17.6141 35.4042C18.5146 35.3176 20.0022 35.148 20.4642 35.0809C20.9269 35.0181 22.0762 34.8199 23.3007 34.6039C24.5251 34.3879 26.2049 34.0758 26.5854 34.0007C26.9659 33.9253 27.4113 33.8226 27.9167 33.7066C28.4223 33.5915 29.2989 33.4022 29.6098 33.3406C29.9206 33.279 30.6385 33.1155 31.4747 32.9503C32.3109 32.7848 33.6579 32.5846 34.0501 32.5508C34.4424 32.517 35.2846 32.594 36.2183 32.6439C37.1521 32.6938 38.1772 32.7164 38.9353 32.5734C39.6933 32.4305 43.8558 30.8763 43.8558 30.8763L43.7618 30.1837L38.1879 30.9406L33.6757 31.5533L29.1636 32.166L24.6514 32.7787L20.1393 33.3914L15.6271 34.0041L11.1149 34.6168L6.60266 35.2287Z" fill="black"/>
<path opacity="0.3" d="M6.60266 35.2287L43.7616 30.1829L44.1941 33.368L7.03516 38.4138L6.60266 35.2287Z" fill="#4D585E"/>
<path opacity="0.2" d="M7.23697 39.9001L3.30127 10.9161L40.4603 5.87034L44.396 34.8544L7.23697 39.9001Z" stroke="black" stroke-width="2"/>
<path opacity="0.6" d="M49.4086 30.5504L43.8499 32.1978L44.9154 35.7932L50.4741 34.1459L49.4086 30.5504Z" fill="url(#paint5_radial)"/>
<path opacity="0.6" d="M8.22792 46.6657L13.7866 45.0183L12.7211 41.4229L7.1624 43.0703L8.22792 46.6657Z" fill="url(#paint6_radial)"/>
<path opacity="0.6" d="M43.8499 32.1978L12.7212 41.4229L13.7867 45.0183L44.9154 35.7932L43.8499 32.1978Z" fill="url(#paint7_linear)"/>
<path opacity="0.35" d="M47.7217 32.6125L38.5589 1.69385C38.5589 1.69385 13.2113 9.20573 0.537476 12.9617C3.59197 23.2686 9.70098 43.8824 9.70098 43.8824L47.7217 32.6125Z" stroke="black" stroke-width="2" stroke-linejoin="round"/>
<path d="M47.7217 32.6125L38.5589 1.69385C38.5589 1.69385 13.2113 9.20573 0.537476 12.9617C3.59197 23.2686 9.70098 43.8824 9.70098 43.8824L47.7217 32.6125Z" fill="url(#paint8_linear)"/>
<path opacity="0.4" d="M47.7217 32.6125L38.5589 1.69385C38.5589 1.69385 13.2113 9.20573 0.537476 12.9617C3.59197 23.2686 9.70098 43.8824 9.70098 43.8824L47.7217 32.6125Z" stroke="white" stroke-width="2" stroke-linejoin="round"/>
<path opacity="0.4" d="M0.537476 12.9617L0.75058 13.6808L38.772 2.41294L38.5589 1.69385L0.537476 12.9617Z" fill="white"/>
<path d="M10.6829 42.0269L2.37183 13.9825L37.5768 3.54935L45.8879 31.5938L10.6829 42.0269Z" fill="url(#paint9_linear)"/>
<path opacity="0.1" d="M12.1341 13.3244C9.36846 14.1441 7.78996 17.1267 8.62703 19.9512C9.4641 22.7758 12.4128 24.4167 15.1785 23.5971C17.9442 22.7775 19.5227 19.7949 18.6856 16.9703C17.8485 14.1458 14.8998 12.5048 12.1341 13.3244ZM12.743 15.379C14.4215 14.8815 16.1659 15.8523 16.6739 17.5665C17.1819 19.2807 16.2481 21.0451 14.5696 21.5426C12.8912 22.04 11.1468 21.0692 10.6387 19.355C10.1307 17.6408 11.0645 15.8764 12.743 15.379Z" fill="#FED8CD"/>
<path opacity="0.1" d="M11.8296 12.2972C8.52029 13.2779 6.61945 16.8696 7.62104 20.2493C8.62264 23.6291 12.1735 25.6051 15.4828 24.6244C18.7921 23.6437 20.6929 20.052 19.6913 16.6722C18.6897 13.2925 15.1389 11.3165 11.8296 12.2972ZM13.0473 16.4063C14.1822 16.0699 15.3244 16.7056 15.6679 17.8646C16.0114 19.0236 15.3999 20.179 14.2651 20.5153C13.1302 20.8516 11.988 20.216 11.6445 19.057C11.301 17.8979 11.9125 16.7426 13.0473 16.4063Z" fill="#FED8CD"/>
<path opacity="0.1" d="M11.5253 11.2699C7.67236 12.4117 5.44917 16.6125 6.6153 20.5474C7.78143 24.4823 11.9345 26.7935 15.7873 25.6516C19.6402 24.5098 21.8634 20.309 20.6973 16.3741C19.5312 12.4392 15.3782 10.1281 11.5253 11.2699ZM13.3519 17.4335C13.9431 17.2583 14.4832 17.5588 14.6622 18.1627C14.8411 18.7665 14.552 19.3128 13.9607 19.488C13.3695 19.6633 12.8294 19.3627 12.6504 18.7589C12.4715 18.155 12.7606 17.6087 13.3519 17.4335Z" fill="#FED8CD"/>
<path fill-rule="evenodd" clip-rule="evenodd" d="M12.4386 14.3517C14.6607 13.6932 17.0072 14.999 17.6798 17.2684C18.3523 19.5378 17.0962 21.9113 14.8741 22.5698C12.652 23.2284 10.3054 21.9225 9.6329 19.6531C8.96036 17.3838 10.2165 15.0102 12.4386 14.3517Z" fill="#FCE94F"/>
<path fill-rule="evenodd" clip-rule="evenodd" d="M11.8542 16.257C14.5763 15.4503 17.4508 17.05 18.2747 19.8299C19.0985 22.6099 17.5598 25.5175 14.8377 26.3242C12.1157 27.1309 9.24113 25.5312 8.41727 22.7512C7.59341 19.9712 9.13219 17.0637 11.8542 16.257Z" fill="#FCE94F"/>
<path d="M9.34349 37.507L9.03906 36.4797C9.03906 36.4797 11.0704 34.0153 11.7399 33.6544C12.4094 33.2935 13.2883 33.1654 14.2041 33.0756C15.1197 32.9852 16.4797 32.827 16.8875 32.7215C17.2954 32.6163 18.0109 32.3495 18.8441 32.0456C19.6775 31.7427 21.0687 31.279 21.5086 31.1542C21.9469 31.0243 23.0593 30.7617 24.2473 30.4888C25.4353 30.216 27.0734 29.8631 27.447 29.7895C27.8205 29.7157 28.2663 29.6517 28.7714 29.5763C29.2764 29.5005 30.1462 29.3541 30.4515 29.2942C30.7566 29.234 31.4737 29.1266 32.2948 28.965C33.1158 28.8033 34.4017 28.4501 34.7626 28.313C35.1236 28.1758 35.8146 27.6673 36.6007 27.1544C37.3867 26.6416 38.2678 26.1243 39.0083 25.9682C39.7489 25.8124 44.244 26.0464 44.244 26.0464L44.5485 27.0737L39.2677 28.6387L34.9928 29.9056L30.7179 31.1724L26.443 32.4393L22.1681 33.7062L17.8933 34.9731L13.6184 36.24L9.34349 37.507Z" fill="black"/>
<path opacity="0.9" d="M9.34338 37.507L9.54203 38.1773C9.54203 38.1773 12.4118 38.5418 13.1544 38.4278C13.8971 38.3139 14.7165 37.985 15.5505 37.6194C16.3846 37.254 17.6344 36.7239 18.0353 36.5951C18.4359 36.4652 19.1764 36.2827 20.0351 36.065C20.8939 35.8474 22.3082 35.4618 22.7453 35.3278C23.1836 35.1979 24.266 34.8336 25.4183 34.4407C26.5707 34.0477 28.1491 33.4932 28.506 33.3633C28.8627 33.2329 29.2781 33.0663 29.7497 32.8776C30.2214 32.6897 31.0411 32.3742 31.3326 32.2678C31.624 32.1613 32.2939 31.8946 33.0782 31.6088C33.8623 31.3227 35.1358 30.9275 35.5104 30.8366C35.8851 30.7456 36.7127 30.6981 37.6248 30.6105C38.5368 30.5228 39.5332 30.3947 40.2452 30.1423C40.9571 29.89 44.7472 27.7447 44.7472 27.7447L44.5486 27.0745L39.2679 28.6395L34.993 29.9064L30.7181 31.1733L26.4432 32.4401L22.1683 33.707L17.8934 34.9739L13.6185 36.2408L9.34338 37.507Z" fill="black"/>
<path opacity="0.3" d="M9.34338 37.507L44.5484 27.0738L45.4617 30.1556L10.2567 40.5888L9.34338 37.507Z" fill="#4D585E"/>
<path opacity="0.2" d="M10.6829 42.0269L2.37183 13.9825L37.5768 3.54935L45.8879 31.5938L10.6829 42.0269Z" stroke="black" stroke-width="2"/>
<path opacity="0.6" d="M48.6018 33.124L42.7821 34.2148L43.4729 37.9006L49.2927 36.8099L48.6018 33.124Z" fill="url(#paint10_radial)"/>
<path opacity="0.6" d="M5.06272 45.0997L10.8824 44.0089L10.1916 40.3231L4.3719 41.4139L5.06272 45.0997Z" fill="url(#paint11_radial)"/>
<path opacity="0.6" d="M42.7821 34.2148L10.1917 40.3231L10.8825 44.0089L43.4729 37.9006L42.7821 34.2148Z" fill="url(#paint12_linear)"/>
<path opacity="0.35" d="M46.6663 35.0107L40.7257 3.31481C40.7257 3.31481 14.1878 8.28871 0.918823 10.7757C2.89917 21.3417 6.85987 42.4737 6.85987 42.4737L46.6663 35.0107Z" stroke="black" stroke-width="2" stroke-linejoin="round"/>
<path d="M46.6663 35.0107L40.7257 3.31481C40.7257 3.31481 14.1878 8.28871 0.918823 10.7757C2.89917 21.3417 6.85987 42.4737 6.85987 42.4737L46.6663 35.0107Z" fill="url(#paint13_linear)"/>
<path opacity="0.4" d="M46.6663 35.0107L40.7257 3.31481C40.7257 3.31481 14.1878 8.28871 0.918823 10.7757C2.89917 21.3417 6.85987 42.4737 6.85987 42.4737L46.6663 35.0107Z" stroke="white" stroke-width="2" stroke-linejoin="round"/>
<path opacity="0.4" d="M0.918823 10.7756L1.05699 11.5128L40.8638 4.05195L40.7257 3.31478L0.918823 10.7756Z" fill="white"/>
<path d="M8.05783 40.7231L2.66943 11.9737L39.5276 5.06546L44.916 33.8149L8.05783 40.7231Z" fill="url(#paint14_linear)"/>
<path opacity="0.1" d="M12.6474 12.2837C9.75186 12.8264 7.82614 15.6405 8.36884 18.5361C8.91155 21.4316 11.7256 23.3573 14.6212 22.8146C17.5167 22.2719 19.4425 19.4578 18.8998 16.5623C18.3571 13.6667 15.543 11.741 12.6474 12.2837ZM13.0422 14.3899C14.7995 14.0605 16.4642 15.1997 16.7936 16.957C17.1229 18.7143 15.9837 20.3791 14.2264 20.7084C12.4691 21.0378 10.8044 19.8986 10.475 18.1413C10.1457 16.384 11.2849 14.7193 13.0422 14.3899Z" fill="#FED8CD"/>
<path opacity="0.1" d="M12.45 11.2306C8.98533 11.88 6.66636 15.2687 7.31573 18.7334C7.96511 22.1981 11.3539 24.5171 14.8185 23.8677C18.2832 23.2183 20.6022 19.8296 19.9528 16.3649C19.3035 12.9002 15.9147 10.5812 12.45 11.2306ZM13.2395 15.443C14.4277 15.2203 15.5178 15.9663 15.7405 17.1544C15.9632 18.3426 15.2172 19.4327 14.029 19.6554C12.8409 19.878 11.7508 19.1321 11.5281 17.9439C11.3054 16.7558 12.0514 15.6657 13.2395 15.443Z" fill="#FED8CD"/>
<path opacity="0.1" d="M12.2526 10.1775C8.2188 10.9336 5.50658 14.897 6.26262 18.9308C7.01867 22.9646 10.9821 25.6769 15.0159 24.9208C19.0497 24.1648 21.7619 20.2014 21.0059 16.1675C20.2499 12.1337 16.2864 9.42149 12.2526 10.1775ZM13.4369 16.4961C14.0559 16.3801 14.5713 16.7328 14.6874 17.3518C14.8034 17.9708 14.4507 18.4862 13.8316 18.6023C13.2126 18.7183 12.6972 18.3656 12.5812 17.7465C12.4651 17.1275 12.8179 16.6121 13.4369 16.4961Z" fill="#FED8CD"/>
<path fill-rule="evenodd" clip-rule="evenodd" d="M12.8448 13.3368C15.1712 12.9008 17.4107 14.4332 17.8467 16.7597C18.2827 19.0861 16.7503 21.3255 14.4238 21.7615C12.0974 22.1976 9.85799 20.6651 9.42195 18.3387C8.98592 16.0123 10.5184 13.7728 12.8448 13.3368Z" fill="#FCE94F"/>
<path fill-rule="evenodd" clip-rule="evenodd" d="M12.0449 15.1763C14.8948 14.6422 17.6381 16.5195 18.1722 19.3693C18.7063 22.2192 16.8291 24.9625 13.9792 25.4966C11.1293 26.0308 8.38605 24.1535 7.85191 21.3036C7.31777 18.4538 9.19504 15.7105 12.0449 15.1763Z" fill="#FCE94F"/>
<path d="M7.18934 36.0895L6.99196 35.0364C6.99196 35.0364 9.32095 32.7831 10.0395 32.4899C10.7581 32.1968 11.6639 32.1561 12.603 32.1572C13.5419 32.1578 14.9392 32.1348 15.3645 32.07C15.7898 32.0055 16.5449 31.8106 17.4234 31.5903C18.302 31.3712 19.7642 31.047 20.224 30.9662C20.6829 30.8802 21.8404 30.7287 23.0755 30.5744C24.3106 30.4203 26.0113 30.2308 26.3984 30.1944C26.7855 30.1579 27.2448 30.1383 27.7656 30.1132C28.2862 30.0875 29.1848 30.0278 29.5011 29.9984C29.8173 29.9685 30.5566 29.9325 31.4074 29.8528C32.2581 29.7729 33.6013 29.5484 33.9825 29.4475C34.3637 29.3466 35.1202 28.9086 35.9735 28.4756C36.8269 28.0427 37.7771 27.6146 38.5455 27.5324C39.3139 27.4505 43.8501 28.1281 43.8501 28.1281L44.0475 29.1812L38.5188 30.2174L34.0432 31.0562L29.5675 31.8951L25.0919 32.7339L20.6162 33.5728L16.1406 34.4117L11.665 35.2505L7.18934 36.0895Z" fill="black"/>
<path opacity="0.9" d="M7.18945 36.0895L7.31824 36.7766C7.31824 36.7766 10.1908 37.4235 10.9568 37.3834C11.7228 37.3433 12.5901 37.0969 13.4761 36.8152C14.3622 36.5339 15.688 36.1296 16.1089 36.041C16.5295 35.9513 17.3007 35.8427 18.1958 35.7109C19.0908 35.5791 20.568 35.335 21.0261 35.2447C21.4849 35.1587 22.6228 34.903 23.8349 34.6256C25.047 34.3483 26.7089 33.9521 27.0852 33.8581C27.4614 33.7636 27.901 33.6387 28.4 33.4974C28.8991 33.357 29.7651 33.1238 30.0725 33.0467C30.3799 32.9694 31.0886 32.7701 31.9155 32.563C32.7423 32.3557 34.0775 32.088 34.4675 32.0346C34.8576 31.9811 35.7026 32.0156 36.6377 32.0185C37.5727 32.0214 38.5977 31.9923 39.3476 31.8115C40.0975 31.6306 44.1766 29.8691 44.1766 29.8691L44.0478 29.182L38.5191 30.2182L34.0434 31.0571L29.5678 31.8959L25.0921 32.7348L20.6165 33.5737L16.1409 34.4125L11.6652 35.2514L7.18945 36.0895Z" fill="black"/>
<path opacity="0.3" d="M7.18945 36.0894L44.0477 29.1813L44.6398 32.3405L7.78158 39.2487L7.18945 36.0894Z" fill="#4D585E"/>
<path opacity="0.2" d="M8.05783 40.7231L2.66943 11.9737L39.5276 5.06546L44.916 33.8149L8.05783 40.7231Z" stroke="black" stroke-width="2"/>
<path opacity="0.6" d="M47.1299 36.3902L41.2158 36.678L41.3981 40.4236L47.3122 40.1357L47.1299 36.3902Z" fill="url(#paint15_radial)"/>
<path opacity="0.6" d="M2.36536 42.3235L8.27942 42.0356L8.09711 38.2901L2.18304 38.5779L2.36536 42.3235Z" fill="url(#paint16_radial)"/>
<path opacity="0.6" d="M41.2158 36.678L8.09705 38.2901L8.27936 42.0356L41.3981 40.4236L41.2158 36.678Z" fill="url(#paint17_linear)"/>
<path opacity="0.35" d="M44.9552 37.9955L43.3874 5.78593C43.3874 5.78593 16.4193 7.09858 2.9353 7.75491C3.45793 18.4922 4.5032 39.9668 4.5032 39.9668L44.9552 37.9955Z" stroke="black" stroke-width="2" stroke-linejoin="round"/>
<path d="M44.9552 37.9955L43.3874 5.78593C43.3874 5.78593 16.4193 7.09858 2.9353 7.75491C3.45793 18.4922 4.5032 39.9668 4.5032 39.9668L44.9552 37.9955Z" fill="url(#paint18_linear)"/>
<path opacity="0.4" d="M44.9552 37.9955L43.3874 5.78593C43.3874 5.78593 16.4193 7.09858 2.9353 7.75491C3.45793 18.4922 4.5032 39.9668 4.5032 39.9668L44.9552 37.9955Z" stroke="white" stroke-width="2" stroke-linejoin="round"/>
<path opacity="0.4" d="M2.93542 7.75491L2.97189 8.50403L43.424 6.53504L43.3875 5.78593L2.93542 7.75491Z" fill="white"/>
<path d="M5.92851 38.3956L4.50647 9.18021L41.9621 7.35707L43.3842 36.5725L5.92851 38.3956Z" fill="url(#paint19_linear)"/>
<path opacity="0.1" d="M14.3492 10.8465C11.4067 10.9897 9.11564 13.5153 9.25886 16.4578C9.40209 19.4003 11.9276 21.6914 14.8701 21.5481C17.8126 21.4049 20.1037 18.8794 19.9605 15.9369C19.8173 12.9944 17.2917 10.7033 14.3492 10.8465ZM14.4534 12.9868C16.2392 12.8999 17.7332 14.2553 17.8202 16.0411C17.9071 17.8268 16.5517 19.3209 14.7659 19.4078C12.9802 19.4947 11.4861 18.1394 11.3992 16.3536C11.3123 14.5678 12.6676 13.0738 14.4534 12.9868Z" fill="#FED8CD"/>
<path opacity="0.1" d="M14.2971 9.77636C10.7762 9.94774 8.01726 12.989 8.18864 16.5099C8.36001 20.0307 11.4013 22.7897 14.9221 22.6183C18.443 22.4469 21.202 19.4056 21.0306 15.8848C20.8592 12.3639 17.8179 9.60498 14.2971 9.77636ZM14.5054 14.057C15.7128 13.9982 16.6912 14.8857 16.7499 16.0931C16.8087 17.3006 15.9212 18.2789 14.7138 18.3377C13.5064 18.3964 12.5281 17.5089 12.4693 16.3015C12.4105 15.0941 13.298 14.1158 14.5054 14.057Z" fill="#FED8CD"/>
<path opacity="0.1" d="M14.245 8.70617C10.1458 8.9057 6.91901 12.4627 7.11853 16.5619C7.31806 20.6611 10.8751 23.888 14.9743 23.6884C19.0735 23.4889 22.3003 19.9319 22.1008 15.8327C21.9013 11.7335 18.3442 8.50665 14.245 8.70617ZM14.5576 15.1271C15.1866 15.0965 15.6492 15.5162 15.6798 16.1452C15.7104 16.7743 15.2908 17.2368 14.6618 17.2675C14.0327 17.2981 13.5701 16.8785 13.5395 16.2494C13.5089 15.6203 13.9285 15.1578 14.5576 15.1271Z" fill="#FED8CD"/>
<path fill-rule="evenodd" clip-rule="evenodd" d="M14.4013 11.9167C16.7654 11.8016 18.7752 13.6249 18.8903 15.989C19.0053 18.3531 17.1821 20.3629 14.818 20.478C12.4538 20.5931 10.444 18.7698 10.329 16.4057C10.2139 14.0416 12.0371 12.0318 14.4013 11.9167Z" fill="#FCE94F"/>
<path fill-rule="evenodd" clip-rule="evenodd" d="M13.3583 13.6301C16.2544 13.4891 18.7164 15.7226 18.8573 18.6187C18.9983 21.5147 16.7648 23.9767 13.8688 24.1177C10.9727 24.2587 8.51071 22.0252 8.36974 19.1291C8.22878 16.2331 10.4622 13.7711 13.3583 13.6301Z" fill="#FCE94F"/>
<path d="M5.69934 33.6869L5.64725 32.6168C5.64725 32.6168 8.26146 30.7018 9.01326 30.5092C9.76508 30.3166 10.668 30.3997 11.5981 30.5287C12.5283 30.6572 13.9156 30.8247 14.3458 30.8185C14.776 30.8126 15.5505 30.7223 16.4508 30.6238C17.3512 30.5263 18.8438 30.4043 19.3104 30.387C19.7767 30.3643 20.944 30.3718 22.1886 30.3872C23.4333 30.4028 25.1439 30.4467 25.5323 30.4634C25.9208 30.4799 26.3785 30.5231 26.8979 30.5691C27.4172 30.6147 28.3154 30.6779 28.6328 30.6918C28.9501 30.7053 29.6875 30.7704 30.5412 30.8073C31.3948 30.844 32.7562 30.8046 33.1475 30.7565C33.5389 30.7085 34.348 30.3776 35.2523 30.0649C36.1567 29.7522 37.1564 29.4576 37.9288 29.4808C38.7013 29.5044 43.1029 30.7935 43.1029 30.7935L43.155 31.8637L37.5366 32.1372L32.9885 32.3585L28.4403 32.5799L23.8921 32.8013L19.3439 33.0227L14.7957 33.2441L10.2475 33.4654L5.69934 33.6869Z" fill="black"/>
<path opacity="0.9" d="M5.69934 33.6869L5.73333 34.3852C5.73333 34.3852 8.49099 35.4173 9.25531 35.4819C10.0196 35.5466 10.9124 35.4206 11.8286 35.2623C12.7447 35.1043 14.1132 34.8843 14.5422 34.8539C14.9711 34.8222 15.75 34.8197 16.6546 34.8111C17.5593 34.8025 19.0559 34.7618 19.522 34.7348C19.9884 34.7121 21.1505 34.6137 22.389 34.5041C23.6276 34.3945 25.328 34.2284 25.7136 34.1864C26.0991 34.144 26.5517 34.0802 27.0653 34.0082C27.5789 33.9371 28.4686 33.824 28.7836 33.7895C29.0986 33.7549 29.8279 33.6539 30.6752 33.5614C31.5226 33.4687 32.8818 33.3854 33.2755 33.3855C33.6692 33.3857 34.5017 33.535 35.4276 33.6652C36.3535 33.7954 37.3729 33.9063 38.1405 33.8292C38.908 33.7522 43.189 32.5627 43.189 32.5627L43.155 31.8645L37.5367 32.138L32.9885 32.3594L28.4403 32.5808L23.8921 32.8021L19.3439 33.0235L14.7958 33.2449L10.2476 33.4663L5.69934 33.6869Z" fill="black"/>
<path opacity="0.3" d="M5.69934 33.6869L43.155 31.8638L43.3113 35.0742L5.85561 36.8974L5.69934 33.6869Z" fill="#4D585E"/>
<path opacity="0.2" d="M5.92851 38.3956L4.50647 9.18021L41.9621 7.35707L43.3842 36.5725L5.92851 38.3956Z" stroke="black" stroke-width="2"/>
<path opacity="0.6" d="M46.5 37.5H40.579V41.25H46.5V37.5Z" fill="url(#paint20_radial)"/>
<path opacity="0.6" d="M1.49996 41.25H7.42102V37.5H1.49996V41.25Z" fill="url(#paint21_radial)"/>
<path opacity="0.6" d="M40.579 37.5H7.42102V41.25H40.579V37.5Z" fill="url(#paint22_linear)"/>
<path opacity="0.35" d="M44.25 38.9978L44.25 6.75C44.25 6.75 17.25 6.75 3.75 6.75C3.75 17.5 3.75 39 3.75 39L44.25 38.9978Z" stroke="black" stroke-width="2" stroke-linejoin="round"/>
<path d="M44.25 38.9977L44.25 6.75C44.25 6.75 17.25 6.75 3.75 6.75C3.75 17.5 3.75 39 3.75 39L44.25 38.9977Z" fill="url(#paint23_linear)"/>
<path opacity="0.4" d="M44.25 38.9978L44.25 6.75C44.25 6.75 17.25 6.75 3.75 6.75C3.75 17.5 3.75 39 3.75 39L44.25 38.9978Z" stroke="white" stroke-width="2" stroke-linejoin="round"/>
<path opacity="0.4" d="M3.75 6.75V7.5H44.25V6.75H3.75Z" fill="white"/>
<path d="M5.25 37.5V8.25H42.75V37.5H5.25Z" fill="url(#paint24_linear)"/>
<path opacity="0.1" d="M15.0001 10.3929C12.0541 10.3929 9.64294 12.804 9.64294 15.75C9.64294 18.696 12.0541 21.1071 15.0001 21.1071C17.9461 21.1071 20.3572 18.696 20.3572 15.75C20.3572 12.804 17.9461 10.3929 15.0001 10.3929ZM15.0001 12.5357C16.788 12.5357 18.2144 13.9621 18.2144 15.75C18.2144 17.5379 16.788 18.9643 15.0001 18.9643C13.2122 18.9643 11.7858 17.5379 11.7858 15.75C11.7858 13.9621 13.2122 12.5357 15.0001 12.5357Z" fill="#FED8CD"/>
<path opacity="0.1" d="M15.0001 9.32141C11.4751 9.32141 8.57153 12.225 8.57153 15.75C8.57153 19.275 11.4751 22.1786 15.0001 22.1786C18.5251 22.1786 21.4287 19.275 21.4287 15.75C21.4287 12.225 18.5251 9.32141 15.0001 9.32141ZM15.0001 13.6071C16.209 13.6071 17.143 14.5411 17.143 15.75C17.143 16.9588 16.209 17.8928 15.0001 17.8928C13.7913 17.8928 12.8572 16.9588 12.8572 15.75C12.8572 14.5411 13.7913 13.6071 15.0001 13.6071Z" fill="#FED8CD"/>
<path opacity="0.1" d="M15 8.25C10.8959 8.25 7.5 11.6459 7.5 15.75C7.5 19.8541 10.8959 23.25 15 23.25C19.1041 23.25 22.5 19.8541 22.5 15.75C22.5 11.6459 19.1041 8.25 15 8.25ZM15 14.6786C15.6298 14.6786 16.0714 15.1202 16.0714 15.75C16.0714 16.3798 15.6298 16.8214 15 16.8214C14.3702 16.8214 13.9286 16.3798 13.9286 15.75C13.9286 15.1202 14.3702 14.6786 15 14.6786Z" fill="#FED8CD"/>
<path fill-rule="evenodd" clip-rule="evenodd" d="M15.0001 11.4643C17.367 11.4643 19.2858 13.3831 19.2858 15.75C19.2858 18.1169 17.367 20.0357 15.0001 20.0357C12.6331 20.0357 10.7144 18.1169 10.7144 15.75C10.7144 13.3831 12.6331 11.4643 15.0001 11.4643Z" fill="#FCE94F"/>
<path fill-rule="evenodd" clip-rule="evenodd" d="M13.875 13.125C16.7745 13.125 19.125 15.4755 19.125 18.375C19.125 21.2745 16.7745 23.625 13.875 23.625C10.9755 23.625 8.625 21.2745 8.625 18.375C8.625 15.4755 10.9755 13.125 13.875 13.125Z" fill="#FCE94F"/>
<path d="M5.25 32.7857V31.7143C5.25 31.7143 7.95422 29.9287 8.7145 29.7729C9.47478 29.6171 10.3726 29.7439 11.2954 29.918C12.2181 30.0916 13.5957 30.3264 14.0257 30.341C14.4556 30.356 15.2337 30.3035 16.1377 30.2489C17.0417 30.1953 18.5385 30.146 19.0054 30.1514C19.4723 30.1514 20.6378 30.2157 21.8802 30.2915C23.1226 30.3676 24.8291 30.4947 25.2163 30.5303C25.6034 30.5656 26.0586 30.631 26.575 30.7022C27.0915 30.7729 27.9856 30.8798 28.302 30.9091C28.6183 30.938 29.3516 31.0389 30.2025 31.1172C31.0533 31.1954 32.415 31.2222 32.8082 31.1933C33.2014 31.1643 34.0256 30.8731 34.9442 30.6047C35.8627 30.3364 36.8755 30.0908 37.6459 30.1515C38.4163 30.2126 42.75 31.7142 42.75 31.7142V32.7856H37.125H32.5714H28.0179H23.4643H18.9107H14.3571H9.80357L5.25 32.7857Z" fill="black"/>
<path opacity="0.9" d="M5.25 32.7857V33.4848C5.25 33.4848 7.95422 34.6498 8.7145 34.7515C9.47478 34.8533 10.3726 34.7708 11.2954 34.6572C12.2181 34.544 13.5957 34.3907 14.0257 34.3812C14.4556 34.3705 15.2337 34.4058 16.1377 34.4412C17.0417 34.4766 18.5385 34.5087 19.0054 34.5044C19.4723 34.5044 20.6378 34.4626 21.8802 34.4133C23.1226 34.3641 24.8291 34.2808 25.2163 34.2577C25.6034 34.2341 26.0586 34.1923 26.575 34.1454C27.0915 34.0993 27.9856 34.0297 28.302 34.0105C28.6183 33.9912 29.3516 33.9258 30.2025 33.8746C31.0533 33.8232 32.415 33.8061 32.8082 33.8254C33.2014 33.8446 34.0256 34.0343 34.9442 34.2094C35.8627 34.3844 36.8755 34.5447 37.6459 34.5051C38.4163 34.4654 42.75 33.4855 42.75 33.4855V32.7865H37.125H32.5714H28.0179H23.4643H18.9107H14.3571H9.80357L5.25 32.7857Z" fill="black"/>
<path opacity="0.3" d="M5.25 32.7857H42.75V36H5.25V32.7857Z" fill="#4D585E"/>
<path opacity="0.2" d="M5.25 37.5V8.25H42.75V37.5H5.25Z" stroke="black"/>
<path d="M25.125 17.25H26.5736H25.125ZM26.7861 17.25H28.1382H26.7861ZM28.3507 17.25H29.5482H28.3507ZM29.7414 17.25H30.2629H29.7414ZM30.4753 17.25H31.6343H30.4753ZM31.8661 17.25H34.9179H31.8661ZM35.111 17.25H37.4482H35.111ZM37.6413 17.25H38.356H37.6413ZM25.125 17.625H27.3849H25.125ZM27.636 17.625H28.7177H27.636ZM28.9108 17.625H29.4516H28.9108ZM29.6641 17.625H30.6492H29.6641ZM30.8617 17.625H31.8661H30.8617ZM32.0592 17.625H33.6624H32.0592ZM33.8748 17.625H35.9609H33.8748ZM36.1541 17.625H37.5448H36.1541ZM37.7379 17.625H38.0856H37.7379ZM25.125 17.9972H27.0372H25.125ZM27.2304 17.9972H30.3595H27.2304ZM30.5526 17.9972H32.0785H30.5526ZM32.2717 17.9972H33.701H32.2717ZM33.8942 17.9972H35.111H33.8942ZM35.3042 17.9972L37.2164 18.0028L35.3042 17.9972ZM37.3902 18.0028H40.5H37.3902ZM25.125 18.375H27.7712H25.125ZM27.9837 18.375H30.8423H27.9837ZM31.0355 18.375H32.1751H31.0355ZM32.3682 18.375H35.0531H32.3682ZM35.2269 18.375H37.0619H35.2269ZM37.2743 18.375H38.0083H37.2743ZM38.2015 18.375H38.6071H38.2015ZM38.8196 18.375H39.9592H38.8196ZM25.125 18.75H26.1101H25.125ZM26.4191 18.75H30.0697H26.4191ZM25.125 19.4972H27.0372H25.125ZM27.2304 19.4972H30.3595H27.2304ZM30.5526 19.4972H32.0785H30.5526ZM32.2717 19.4972H33.701H32.2717ZM33.8942 19.4972H35.111H33.8942ZM35.3042 19.4972L37.2164 19.5028L35.3042 19.4972ZM37.3902 19.5028H40.5H37.3902ZM25.125 19.875H27.5587H25.125ZM27.7519 19.875H30.3595H27.7519ZM30.5526 19.875H31.557H30.5526ZM31.7502 19.875H34.2032H31.7502ZM34.3964 19.875H37.4868H34.3964ZM37.6993 19.875H38.8389H37.6993ZM25.125 20.25H27.7712H25.125ZM27.9837 20.25H30.8423H27.9837ZM31.0355 20.25H32.1751H31.0355ZM32.3682 20.25H35.0531H32.3682ZM35.2269 20.25H37.0619H35.2269ZM37.2743 20.25H38.0083H37.2743ZM38.2015 20.25H38.6071H38.2015ZM38.8196 20.25H39.9592H38.8196ZM25.125 20.625H27.3849H25.125ZM27.636 20.625H28.7177H27.636ZM28.9108 20.625H29.4516H28.9108ZM29.6641 20.625H30.6492H29.6641ZM30.8617 20.625H31.8661H30.8617ZM32.0592 20.625H33.6624H32.0592ZM33.8748 20.625H35.9609H33.8748ZM36.1541 20.625H37.5448H36.1541ZM37.7379 20.625H38.0856H37.7379ZM25.125 21.3722H27.0372H25.125ZM27.2304 21.3722H30.3595H27.2304ZM30.5526 21.3722H32.0785H30.5526ZM32.2717 21.3722H33.701H32.2717ZM33.8942 21.3722H35.111H33.8942ZM35.3042 21.3722L37.2164 21.3778L35.3042 21.3722ZM37.3902 21.3778H40.5H37.3902ZM25.125 21.75H27.3849H25.125ZM27.636 21.75H28.7177H27.636ZM28.9108 21.75H29.4516H28.9108ZM29.6641 21.75H30.6492H29.6641ZM30.8617 21.75H31.8661H30.8617ZM32.0592 21.75H33.6624H32.0592ZM33.8748 21.75H35.9609H33.8748ZM36.1541 21.75H37.5448H36.1541ZM37.7379 21.75H38.0856H37.7379ZM25.125 22.125H27.5201H25.125ZM27.7326 22.125H28.4859H27.7326ZM28.679 22.125H30.3981H28.679ZM30.5912 22.125H33.1215H30.5912ZM33.334 22.125H35.0531H33.334ZM35.2269 22.125H35.5939H35.2269ZM35.7871 22.125H37.9697H35.7871ZM38.2015 22.125H39.3411H38.2015ZM25.125 22.5H27.5201H25.125ZM27.7326 22.5H28.8142H27.7326ZM29.0074 22.5H30.7071H29.0074ZM30.9003 22.5H32.7352H30.9003ZM32.9477 22.5H33.6817H32.9477ZM33.8748 22.5H34.2805H33.8748ZM34.4929 22.5H35.6325H34.4929Z" stroke="url(#paint25_linear)"/>
<path d="M25.125 23.625H26.079H25.125ZM26.2189 23.625H27.1093H26.2189ZM27.2492 23.625H28.0378H27.2492ZM28.165 23.625H28.5085H28.165ZM28.6484 23.625H29.4116H28.6484ZM29.5642 23.625H31.574H29.5642ZM31.7012 23.625H33.2403H31.7012ZM33.3675 23.625H33.8381H33.3675ZM25.125 24H26.6132H25.125ZM26.7786 24H27.4909H26.7786ZM27.6181 24H27.9742H27.6181ZM28.1142 24H28.7629H28.1142ZM28.9028 24H29.5642H28.9028ZM29.6914 24H30.7472H29.6914ZM30.8871 24H32.2608H30.8871ZM32.388 24H33.3039H32.388ZM33.4311 24H33.66H33.4311ZM25.125 24.3722H26.3843H25.125ZM26.5115 24.3722H28.5721H26.5115ZM28.6993 24.3722H29.7041H28.6993ZM29.8313 24.3722H30.7726H29.8313ZM30.8998 24.3722H31.7012H30.8998ZM31.8284 24.3722L33.0876 24.3778L31.8284 24.3722ZM33.2021 24.3778H35.25H33.2021ZM25.125 24.75H26.8676H25.125ZM27.0075 24.75H28.8901H27.0075ZM29.0173 24.75H29.7677H29.0173ZM29.8949 24.75H31.663H29.8949ZM31.7775 24.75H32.9859H31.7775ZM33.1258 24.75H33.6091H33.1258ZM33.7363 24.75H34.0035H33.7363ZM34.1434 24.75H34.8938H34.1434ZM25.125 25.125H25.7737H25.125ZM25.9772 25.125H28.3813H25.9772ZM25.125 25.8722H26.3843H25.125ZM26.5115 25.8722H28.5721H26.5115ZM28.6993 25.8722H29.7041H28.6993ZM29.8313 25.8722H30.7726H29.8313ZM30.8998 25.8722H31.7012H30.8998ZM31.8284 25.8722L33.0876 25.8778L31.8284 25.8722ZM33.2021 25.8778H35.25H33.2021ZM25.125 26.25H26.7277H25.125ZM26.8549 26.25H28.5721H26.8549ZM28.6993 26.25H29.3607H28.6993ZM29.4879 26.25H31.1033H29.4879ZM31.2305 26.25H33.2657H31.2305ZM33.4056 26.25H34.1561H33.4056ZM25.125 26.625H26.8676H25.125ZM27.0075 26.625H28.8901H27.0075ZM29.0173 26.625H29.7677H29.0173ZM29.8949 26.625H31.663H29.8949ZM31.7775 26.625H32.9859H31.7775ZM33.1258 26.625H33.6091H33.1258ZM33.7363 26.625H34.0035H33.7363ZM34.1434 26.625H34.8938H34.1434ZM25.125 27H26.6132H25.125ZM26.7786 27H27.4909H26.7786ZM27.6181 27H27.9742H27.6181ZM28.1142 27H28.7629H28.1142ZM28.9028 27H29.5642H28.9028ZM29.6914 27H30.7472H29.6914ZM30.8871 27H32.2608H30.8871ZM32.388 27H33.3039H32.388ZM33.4311 27H33.66H33.4311ZM25.125 27.7472H26.3843H25.125ZM26.5115 27.7472H28.5721H26.5115ZM28.6993 27.7472H29.7041H28.6993ZM29.8313 27.7472H30.7726H29.8313ZM30.8998 27.7472H31.7012H30.8998ZM31.8284 27.7472L33.0876 27.7528L31.8284 27.7472ZM33.2021 27.7528H35.25H33.2021ZM25.125 28.125H26.6132H25.125ZM26.7786 28.125H27.4909H26.7786ZM27.6181 28.125H27.9742H27.6181ZM28.1142 28.125H28.7629H28.1142ZM28.9028 28.125H29.5642H28.9028ZM29.6914 28.125H30.7472H29.6914ZM30.8871 28.125H32.2608H30.8871ZM32.388 28.125H33.3039H32.388ZM33.4311 28.125H33.66H33.4311ZM25.125 28.5H26.7023H25.125ZM26.8422 28.5H27.3383H26.8422ZM27.4655 28.5H28.5975H27.4655ZM28.7247 28.5H30.391H28.7247ZM30.5309 28.5H31.663H30.5309ZM31.7775 28.5H32.0192H31.7775ZM32.1464 28.5H33.5837H32.1464ZM33.7363 28.5H34.4868H33.7363ZM25.125 28.875H26.7023H25.125ZM26.8422 28.875H27.5545H26.8422ZM27.6817 28.875H28.801H27.6817ZM28.9282 28.875H30.1366H28.9282ZM30.2765 28.875H30.7599H30.2765ZM30.8871 28.875H31.1542H30.8871ZM31.2941 28.875H32.0446H31.2941Z" stroke="url(#paint26_linear)"/>
<path opacity="0.6" d="M35.625 23.25H24.75V29.25H35.625V23.25Z" fill="#FCE94F"/>
<path fill-rule="evenodd" clip-rule="evenodd" d="M34.5 21.0961L38.8914 25.5L46.5765 17.7931C47.2482 17.2383 46.5765 16.6921 46.5765 16.6921L43.2829 13.3892C43.2829 13.3892 42.7777 12.7948 42.185 13.3892L34.5 21.0961Z" stroke="#BF830A" stroke-width="2" stroke-linejoin="round"/>
<path fill-rule="evenodd" clip-rule="evenodd" d="M34.5 21.1023L38.879 25.5L46.5423 17.8041C47.2909 17.2501 46.5423 16.7046 46.5423 16.7046L43.258 13.4064C43.258 13.4064 42.7149 12.7733 42.1633 13.4064L34.5 21.1023Z" fill="url(#paint27_linear)"/>
<path fill-rule="evenodd" clip-rule="evenodd" d="M34.271 21.5097V23.6141L36.3683 25.7184H38.4656L34.271 21.5097Z" stroke="#838383" stroke-width="2" stroke-linejoin="round"/>
<path fill-rule="evenodd" clip-rule="evenodd" d="M34.271 21.5097V23.6141L36.3683 25.7184H38.4656L34.271 21.5097Z" fill="#CECECE"/>
<path fill-rule="evenodd" clip-rule="evenodd" d="M31.875 27.0728H33.9723L35.021 26.0206L33.9723 24.9684L31.875 27.0728Z" stroke="#BF830A" stroke-width="2" stroke-linejoin="round"/>
<path fill-rule="evenodd" clip-rule="evenodd" d="M34.3838 24.3899L33.5973 25.3434L34.646 26.3956L35.5308 25.7051L34.3838 24.3899Z" stroke="#838383" stroke-width="2"/>
<path opacity="0.1" d="M39.1683 28.5C42.7157 28.5 45.5914 27.9995 45.5914 27.3821C45.5914 26.7646 42.7157 26.2641 39.1683 26.2641C35.6209 26.2641 32.7452 26.7646 32.7452 27.3821C32.7452 27.9995 35.6209 28.5 39.1683 28.5Z" fill="url(#paint28_radial)"/>
<path fill-rule="evenodd" clip-rule="evenodd" d="M34.3838 24.3899L33.5973 25.3434L34.646 26.3956L35.5308 25.7051L34.3838 24.3899Z" fill="#CECECE"/>
<path fill-rule="evenodd" clip-rule="evenodd" d="M31.875 27.0728H33.9723L35.021 26.0206L33.9723 24.9684L31.875 27.0728Z" fill="#FCE94F"/>
<path opacity="0.5" d="M36.0728 20.5228L42.5941 13.9795" stroke="white" stroke-linecap="round"/>
<path opacity="0.5" d="M34.584 23.4562L34.5784 22.2682" stroke="white" stroke-linecap="round"/>
<path opacity="0.1" d="M39.4155 23.9527L45.9369 17.4093" stroke="black" stroke-linecap="round"/>
<path opacity="0.1" d="M36.6924 25.1689L37.6063 25.5016" stroke="black" stroke-linecap="round"/>
<path d="M18.4523 27.4473C18.4525 27.6655 18.31 27.8817 18.0329 28.0833C17.7558 28.285 17.3496 28.4682 16.8375 28.6225C16.3254 28.7769 15.7174 28.8993 15.0482 28.9828C14.379 29.0664 13.6618 29.1094 12.9375 29.1094C12.2131 29.1094 11.4959 29.0664 10.8267 28.9828C10.1575 28.8993 9.5495 28.7769 9.03738 28.6225C8.52526 28.4682 8.11907 28.285 7.84201 28.0833C7.56494 27.8817 7.42243 27.6655 7.42261 27.4473C7.42243 27.229 7.56494 27.0129 7.84201 26.8113C8.11907 26.6096 8.52526 26.4264 9.03738 26.272C9.5495 26.1177 10.1575 25.9952 10.8267 25.9117C11.4959 25.8282 12.2131 25.7852 12.9375 25.7852C13.6618 25.7852 14.379 25.8282 15.0482 25.9117C15.7174 25.9952 16.3254 26.1177 16.8375 26.272C17.3496 26.4264 17.7558 26.6096 18.0329 26.8113C18.31 27.0129 18.4525 27.229 18.4523 27.4473Z" fill="url(#paint29_radial)" fill-opacity="0.5"/>
<path d="M12.9375 13.5001C9.10966 13.5001 6 16.6097 6 20.4376C6 24.2654 9.10966 27.375 12.9375 27.375C16.7654 27.375 19.875 24.2654 19.875 20.4376C19.875 16.6097 16.7654 13.5001 12.9375 13.5001Z" fill="url(#paint30_radial)" fill-opacity="0.5"/>
<path opacity="0.75" d="M12.9371 17.6923C14.9286 17.6923 16.5431 16.9482 16.5431 16.0302C16.5431 15.1123 14.9286 14.3681 12.9371 14.3681C10.9455 14.3681 9.33105 15.1123 9.33105 16.0302C9.33105 16.9482 10.9455 17.6923 12.9371 17.6923Z" fill="url(#paint31_linear)"/>
<path opacity="0.25" d="M12.9375 13.5C9.10963 13.5 6 16.6096 6 20.4375C6 24.2654 9.10963 27.375 12.9375 27.375C16.7654 27.375 19.875 24.2654 19.875 20.4375C19.875 16.6096 16.7654 13.5 12.9375 13.5V13.5Z" stroke="black" stroke-width="0.999995" stroke-linecap="round" stroke-linejoin="round"/>
</g>
<defs>
<radialGradient id="paint0_radial" cx="0" cy="0" r="1" gradientUnits="userSpaceOnUse" gradientTransform="translate(42.4887 37.0055) rotate(-7.73281) scale(5.93227 1.875)">
<stop stop-color="#181818"/>
<stop offset="1" stop-color="#181818" stop-opacity="0"/>
</radialGradient>
<radialGradient id="paint1_radial" cx="0" cy="0" r="1" gradientUnits="userSpaceOnUse" gradientTransform="translate(9.64877 41.4648) rotate(172.267) scale(5.93226 1.875)">
<stop stop-color="#181818"/>
<stop offset="1" stop-color="#181818" stop-opacity="0"/>
</radialGradient>
<linearGradient id="paint2_linear" x1="27.5646" y1="40.9393" x2="27.058" y2="37.2083" gradientUnits="userSpaceOnUse">
<stop stop-color="#181818" stop-opacity="0"/>
<stop offset="0.5" stop-color="#181818"/>
<stop offset="1" stop-color="#181818" stop-opacity="0"/>
</linearGradient>
<linearGradient id="paint3_linear" x1="27.078" y1="46.667" x2="20.6194" y2="-0.896538" gradientUnits="userSpaceOnUse">
<stop stop-color="#EDEDED"/>
<stop offset="1" stop-color="white"/>
</linearGradient>
<linearGradient id="paint4_linear" x1="19.3042" y1="35.8681" x2="14.8366" y2="2.96737" gradientUnits="userSpaceOnUse">
<stop stop-color="#16538C"/>
<stop offset="0.362069" stop-color="#3594CA"/>
<stop offset="1" stop-color="#4EDFF3"/>
</linearGradient>
<radialGradient id="paint5_radial" cx="0" cy="0" r="1" gradientUnits="userSpaceOnUse" gradientTransform="translate(44.3748 33.9978) rotate(-16.5074) scale(5.80863 1.875)">
<stop stop-color="#181818"/>
<stop offset="1" stop-color="#181818" stop-opacity="0"/>
</radialGradient>
<radialGradient id="paint6_radial" cx="0" cy="0" r="1" gradientUnits="userSpaceOnUse" gradientTransform="translate(13.2617 43.2183) rotate(163.493) scale(5.80863 1.875)">
<stop stop-color="#181818"/>
<stop offset="1" stop-color="#181818" stop-opacity="0"/>
</radialGradient>
<linearGradient id="paint7_linear" x1="30.5316" y1="40.0714" x2="29.4618" y2="36.4615" gradientUnits="userSpaceOnUse">
<stop stop-color="#181818" stop-opacity="0"/>
<stop offset="0.5" stop-color="#181818"/>
<stop offset="1" stop-color="#181818" stop-opacity="0"/>
</linearGradient>
<linearGradient id="paint8_linear" x1="30.9493" y1="45.7989" x2="17.3106" y2="-0.222653" gradientUnits="userSpaceOnUse">
<stop stop-color="#EDEDED"/>
<stop offset="1" stop-color="white"/>
</linearGradient>
<linearGradient id="paint9_linear" x1="21.744" y1="36.2753" x2="12.3098" y2="4.44114" gradientUnits="userSpaceOnUse">
<stop stop-color="#16538C"/>
<stop offset="0.362069" stop-color="#3594CA"/>
<stop offset="1" stop-color="#4EDFF3"/>
</linearGradient>
<radialGradient id="paint10_radial" cx="0" cy="0" r="1" gradientUnits="userSpaceOnUse" gradientTransform="translate(43.1193 36.0593) rotate(-10.6156) scale(5.93227 1.875)">
<stop stop-color="#181818"/>
<stop offset="1" stop-color="#181818" stop-opacity="0"/>
</radialGradient>
<radialGradient id="paint11_radial" cx="0" cy="0" r="1" gradientUnits="userSpaceOnUse" gradientTransform="translate(10.5452 42.1645) rotate(169.384) scale(5.93227 1.875)">
<stop stop-color="#181818"/>
<stop offset="1" stop-color="#181818" stop-opacity="0"/>
</radialGradient>
<linearGradient id="paint12_linear" x1="28.412" y1="40.7385" x2="27.7184" y2="37.0378" gradientUnits="userSpaceOnUse">
<stop stop-color="#181818" stop-opacity="0"/>
<stop offset="0.5" stop-color="#181818"/>
<stop offset="1" stop-color="#181818" stop-opacity="0"/>
</linearGradient>
<linearGradient id="paint13_linear" x1="28.214" y1="46.4835" x2="19.3715" y2="-0.694983" gradientUnits="userSpaceOnUse">
<stop stop-color="#EDEDED"/>
<stop offset="1" stop-color="white"/>
</linearGradient>
<linearGradient id="paint14_linear" x1="19.907" y1="36.0893" x2="13.7904" y2="3.45484" gradientUnits="userSpaceOnUse">
<stop stop-color="#16538C"/>
<stop offset="0.362069" stop-color="#3594CA"/>
<stop offset="1" stop-color="#4EDFF3"/>
</linearGradient>
<radialGradient id="paint15_radial" cx="0" cy="0" r="1" gradientUnits="userSpaceOnUse" gradientTransform="translate(41.2987 38.5512) rotate(-2.78664) scale(5.93226 1.875)">
<stop stop-color="#181818"/>
<stop offset="1" stop-color="#181818" stop-opacity="0"/>
</radialGradient>
<radialGradient id="paint16_radial" cx="0" cy="0" r="1" gradientUnits="userSpaceOnUse" gradientTransform="translate(8.19656 40.1624) rotate(177.213) scale(5.93226 1.875)">
<stop stop-color="#181818"/>
<stop offset="1" stop-color="#181818" stop-opacity="0"/>
</radialGradient>
<linearGradient id="paint17_linear" x1="26.091" y1="41.1835" x2="25.9079" y2="37.4228" gradientUnits="userSpaceOnUse">
<stop stop-color="#181818" stop-opacity="0"/>
<stop offset="0.5" stop-color="#181818"/>
<stop offset="1" stop-color="#181818" stop-opacity="0"/>
</linearGradient>
<linearGradient id="paint18_linear" x1="25.1121" y1="46.848" x2="22.7785" y2="-1.09527" gradientUnits="userSpaceOnUse">
<stop stop-color="#EDEDED"/>
<stop offset="1" stop-color="white"/>
</linearGradient>
<linearGradient id="paint19_linear" x1="18.2984" y1="35.4191" x2="16.6842" y2="2.25565" gradientUnits="userSpaceOnUse">
<stop stop-color="#16538C"/>
<stop offset="0.362069" stop-color="#3594CA"/>
<stop offset="1" stop-color="#4EDFF3"/>
</linearGradient>
<radialGradient id="paint20_radial" cx="0" cy="0" r="1" gradientUnits="userSpaceOnUse" gradientTransform="translate(40.5707 39.375) scale(5.93227 1.875)">
<stop stop-color="#181818"/>
<stop offset="1" stop-color="#181818" stop-opacity="0"/>
</radialGradient>
<radialGradient id="paint21_radial" cx="0" cy="0" r="1" gradientUnits="userSpaceOnUse" gradientTransform="translate(7.42933 39.375) rotate(180) scale(5.93227 1.875)">
<stop stop-color="#181818"/>
<stop offset="1" stop-color="#181818" stop-opacity="0"/>
</radialGradient>
<linearGradient id="paint22_linear" x1="25.253" y1="41.2649" x2="25.253" y2="37.4997" gradientUnits="userSpaceOnUse">
<stop stop-color="#181818" stop-opacity="0"/>
<stop offset="0.5" stop-color="#181818"/>
<stop offset="1" stop-color="#181818" stop-opacity="0"/>
</linearGradient>
<linearGradient id="paint23_linear" x1="24" y1="46.875" x2="24" y2="-1.125" gradientUnits="userSpaceOnUse">
<stop stop-color="#EDEDED"/>
<stop offset="1" stop-color="white"/>
</linearGradient>
<linearGradient id="paint24_linear" x1="17.75" y1="35.1284" x2="17.75" y2="1.92567" gradientUnits="userSpaceOnUse">
<stop stop-color="#16538C"/>
<stop offset="0.362069" stop-color="#3594CA"/>
<stop offset="1" stop-color="#4EDFF3"/>
</linearGradient>
<linearGradient id="paint25_linear" x1="30.7014" y1="23.6213" x2="30.7014" y2="15.6669" gradientUnits="userSpaceOnUse">
<stop stop-color="#D4D4D4"/>
<stop offset="1" stop-color="#FAFAFA"/>
</linearGradient>
<linearGradient id="paint26_linear" x1="28.7973" y1="29.9963" x2="28.7973" y2="22.0419" gradientUnits="userSpaceOnUse">
<stop stop-color="#D4D4D4"/>
<stop offset="1" stop-color="#FAFAFA"/>
</linearGradient>
<linearGradient id="paint27_linear" x1="38.9336" y1="16.8243" x2="43.2734" y2="20.8328" gradientUnits="userSpaceOnUse">
<stop stop-color="#FCE94F"/>
<stop offset="1" stop-color="#D7B031"/>
</linearGradient>
<radialGradient id="paint28_radial" cx="0" cy="0" r="1" gradientUnits="userSpaceOnUse" gradientTransform="translate(39.1683 27.3821) scale(6.42306 1.11796)">
<stop/>
<stop offset="1" stop-opacity="0"/>
</radialGradient>
<radialGradient id="paint29_radial" cx="0" cy="0" r="1" gradientUnits="userSpaceOnUse" gradientTransform="translate(12.9375 27.4473) scale(5.51484 1.66168)">
<stop stop-color="#3D3D3D"/>
<stop offset="0.5" stop-color="#686868" stop-opacity="0.498039"/>
<stop offset="1" stop-color="#686868" stop-opacity="0"/>
</radialGradient>
<radialGradient id="paint30_radial" cx="0" cy="0" r="1" gradientUnits="userSpaceOnUse" gradientTransform="translate(12.9377 14.2336) rotate(90) scale(19.9383 26.3184)">
<stop stop-color="#C8C8C8"/>
<stop offset="0.625454" stop-color="#FCFCFC"/>
<stop offset="1" stop-color="#89898B"/>
</radialGradient>
<linearGradient id="paint31_linear" x1="13.1518" y1="17.8332" x2="13.1518" y2="14.3312" gradientUnits="userSpaceOnUse">
<stop stop-color="white" stop-opacity="0.2"/>
<stop offset="1" stop-color="white" stop-opacity="0.998934"/>
</linearGradient>
<clipPath id="clip0">
<rect width="48" height="48" fill="white"/>
</clipPath>
</defs>
</svg>
