<svg width="48" height="48" viewBox="0 0 48 48" fill="none" xmlns="http://www.w3.org/2000/svg">
<g clip-path="url(#clip0)">
<path opacity="0.6" d="M49.4086 30.5504L43.8499 32.1978L44.9154 35.7932L50.4741 34.1459L49.4086 30.5504Z" fill="url(#paint0_radial)"/>
<path opacity="0.6" d="M8.22792 46.6657L13.7866 45.0183L12.7211 41.4229L7.1624 43.0703L8.22792 46.6657Z" fill="url(#paint1_radial)"/>
<path opacity="0.6" d="M43.8499 32.1978L12.7212 41.4229L13.7867 45.0183L44.9154 35.7932L43.8499 32.1978Z" fill="url(#paint2_linear)"/>
<path opacity="0.35" d="M47.7217 32.6125L38.5589 1.69385C38.5589 1.69385 13.2113 9.20573 0.537476 12.9617C3.59197 23.2686 9.70098 43.8824 9.70098 43.8824L47.7217 32.6125Z" stroke="black" stroke-width="2" stroke-linejoin="round"/>
<path d="M47.7217 32.6125L38.5589 1.69385C38.5589 1.69385 13.2113 9.20573 0.537476 12.9617C3.59197 23.2686 9.70098 43.8824 9.70098 43.8824L47.7217 32.6125Z" fill="url(#paint3_linear)"/>
<path opacity="0.4" d="M0.537476 12.9617L0.75058 13.6808L38.772 2.41294L38.5589 1.69385L0.537476 12.9617Z" fill="white"/>
<path d="M10.6829 42.0269L2.37183 13.9825L37.5768 3.54935L45.8879 31.5938L10.6829 42.0269Z" fill="url(#paint4_linear)"/>
<path opacity="0.1" d="M12.1341 13.3244C9.36846 14.1441 7.78996 17.1267 8.62703 19.9512C9.4641 22.7758 12.4128 24.4167 15.1785 23.5971C17.9442 22.7775 19.5227 19.7949 18.6856 16.9703C17.8485 14.1458 14.8998 12.5048 12.1341 13.3244ZM12.743 15.379C14.4215 14.8815 16.1659 15.8523 16.6739 17.5665C17.1819 19.2807 16.2481 21.0451 14.5696 21.5426C12.8912 22.04 11.1468 21.0692 10.6387 19.355C10.1307 17.6408 11.0645 15.8764 12.743 15.379Z" fill="#FED8CD"/>
<path opacity="0.1" d="M11.8296 12.2972C8.52029 13.2779 6.61945 16.8696 7.62104 20.2493C8.62264 23.6291 12.1735 25.6051 15.4828 24.6244C18.7921 23.6437 20.6929 20.052 19.6913 16.6722C18.6897 13.2925 15.1389 11.3165 11.8296 12.2972ZM13.0473 16.4063C14.1822 16.0699 15.3244 16.7056 15.6679 17.8646C16.0114 19.0236 15.3999 20.179 14.2651 20.5153C13.1302 20.8516 11.988 20.216 11.6445 19.057C11.301 17.8979 11.9125 16.7426 13.0473 16.4063Z" fill="#FED8CD"/>
<path opacity="0.1" d="M11.5253 11.2699C7.67236 12.4117 5.44917 16.6125 6.6153 20.5474C7.78143 24.4823 11.9345 26.7935 15.7873 25.6516C19.6402 24.5098 21.8634 20.309 20.6973 16.3741C19.5312 12.4392 15.3782 10.1281 11.5253 11.2699ZM13.3519 17.4335C13.9431 17.2583 14.4832 17.5588 14.6622 18.1627C14.8411 18.7665 14.552 19.3128 13.9607 19.488C13.3695 19.6633 12.8294 19.3627 12.6504 18.7589C12.4715 18.155 12.7606 17.6087 13.3519 17.4335Z" fill="#FED8CD"/>
<path fill-rule="evenodd" clip-rule="evenodd" d="M12.4386 14.3517C14.6607 13.6932 17.0072 14.999 17.6798 17.2684C18.3523 19.5378 17.0962 21.9113 14.8741 22.5698C12.652 23.2284 10.3054 21.9225 9.6329 19.6531C8.96036 17.3838 10.2165 15.0102 12.4386 14.3517Z" fill="#FCE94F"/>
<path fill-rule="evenodd" clip-rule="evenodd" d="M11.8542 16.257C14.5763 15.4503 17.4508 17.05 18.2747 19.8299C19.0985 22.6099 17.5598 25.5175 14.8377 26.3242C12.1157 27.1309 9.24113 25.5312 8.41727 22.7512C7.59341 19.9712 9.13219 17.0637 11.8542 16.257Z" fill="#FCE94F"/>
<path d="M9.34349 37.507L9.03906 36.4797C9.03906 36.4797 11.0704 34.0153 11.7399 33.6544C12.4094 33.2935 13.2883 33.1654 14.2041 33.0756C15.1197 32.9852 16.4797 32.827 16.8875 32.7215C17.2954 32.6163 18.0109 32.3495 18.8441 32.0456C19.6775 31.7427 21.0687 31.279 21.5086 31.1542C21.9469 31.0243 23.0593 30.7617 24.2473 30.4888C25.4353 30.216 27.0734 29.8631 27.447 29.7895C27.8205 29.7157 28.2663 29.6517 28.7714 29.5763C29.2764 29.5005 30.1462 29.3541 30.4515 29.2942C30.7566 29.234 31.4737 29.1266 32.2948 28.965C33.1158 28.8033 34.4017 28.4501 34.7626 28.313C35.1236 28.1758 35.8146 27.6673 36.6007 27.1544C37.3867 26.6416 38.2678 26.1243 39.0083 25.9682C39.7489 25.8124 44.244 26.0464 44.244 26.0464L44.5485 27.0737L39.2677 28.6387L34.9928 29.9056L30.7179 31.1724L26.443 32.4393L22.1681 33.7062L17.8933 34.9731L13.6184 36.24L9.34349 37.507Z" fill="black"/>
<path opacity="0.9" d="M9.34338 37.507L9.54203 38.1773C9.54203 38.1773 12.4118 38.5418 13.1544 38.4278C13.8971 38.3139 14.7165 37.985 15.5505 37.6194C16.3846 37.254 17.6344 36.7239 18.0353 36.5951C18.4359 36.4652 19.1764 36.2827 20.0351 36.065C20.8939 35.8474 22.3082 35.4618 22.7453 35.3278C23.1836 35.1979 24.266 34.8336 25.4183 34.4407C26.5707 34.0477 28.1491 33.4932 28.506 33.3633C28.8627 33.2329 29.2781 33.0663 29.7497 32.8776C30.2214 32.6897 31.0411 32.3742 31.3326 32.2678C31.624 32.1613 32.2939 31.8946 33.0782 31.6088C33.8623 31.3227 35.1358 30.9275 35.5104 30.8366C35.8851 30.7456 36.7127 30.6981 37.6248 30.6105C38.5368 30.5228 39.5332 30.3947 40.2452 30.1423C40.9571 29.89 44.7472 27.7447 44.7472 27.7447L44.5486 27.0745L39.2679 28.6395L34.993 29.9064L30.7181 31.1733L26.4432 32.4401L22.1683 33.707L17.8934 34.9739L13.6185 36.2408L9.34338 37.507Z" fill="black"/>
<path opacity="0.3" d="M9.34338 37.507L44.5484 27.0738L45.4617 30.1556L10.2567 40.5888L9.34338 37.507Z" fill="#4D585E"/>
<path opacity="0.2" d="M10.6829 42.0269L2.37183 13.9825L37.5768 3.54935L45.8879 31.5938L10.6829 42.0269Z" stroke="black" stroke-width="2"/>
<path opacity="0.6" d="M47.9741 34.6649L42.0969 35.3846L42.5528 39.1068L48.4299 38.3871L47.9741 34.6649Z" fill="url(#paint5_radial)"/>
<path opacity="0.6" d="M3.76359 43.8571L9.64075 43.1373L9.18491 39.4151L3.30776 40.1349L3.76359 43.8571Z" fill="url(#paint6_radial)"/>
<path opacity="0.6" d="M42.097 35.3846L9.18494 39.4151L9.64077 43.1373L42.5528 39.1068L42.097 35.3846Z" fill="url(#paint7_linear)"/>
<path opacity="0.35" d="M45.9228 36.425L42.0029 4.4164C42.0029 4.4164 15.2031 7.69841 1.80322 9.33942C3.10995 20.0097 5.7234 41.3503 5.7234 41.3503L45.9228 36.425Z" stroke="black" stroke-width="2" stroke-linejoin="round"/>
<path d="M45.9228 36.425L42.0029 4.4164C42.0029 4.4164 15.2031 7.69841 1.80322 9.33942C3.10995 20.0097 5.7234 41.3503 5.7234 41.3503L45.9228 36.425Z" fill="url(#paint8_linear)"/>
<path opacity="0.4" d="M1.80322 9.33939L1.89439 10.0838L42.0941 5.16081L42.0029 4.41637L1.80322 9.33939Z" fill="white"/>
<path d="M7.02999 39.6791L3.47449 10.646L40.6964 6.08762L44.2519 35.1207L7.02999 39.6791Z" fill="url(#paint9_linear)"/>
<path opacity="0.1" d="M13.4128 11.5878C10.4886 11.9459 8.38843 14.6322 8.74653 17.5564C9.10463 20.4805 11.791 22.5807 14.7151 22.2226C17.6393 21.8645 19.7395 19.1781 19.3814 16.254C19.0233 13.3299 16.3369 11.2297 13.4128 11.5878ZM13.6732 13.7147C15.4479 13.4974 17.0371 14.7398 17.2544 16.5145C17.4717 18.2891 16.2293 19.8783 14.4547 20.0956C12.68 20.313 11.0908 19.0705 10.8735 17.2959C10.6562 15.5213 11.8986 13.9321 13.6732 13.7147Z" fill="#FED8CD"/>
<path opacity="0.1" d="M13.2825 10.5243C9.78363 10.9528 7.25455 14.1877 7.68304 17.6866C8.11153 21.1855 11.3465 23.7146 14.8454 23.2861C18.3443 22.8576 20.8733 19.6226 20.4448 16.1237C20.0164 12.6249 16.7814 10.0958 13.2825 10.5243ZM13.8035 14.7782C15.0034 14.6313 16.044 15.4448 16.1909 16.6447C16.3379 17.8446 15.5243 18.8852 14.3244 19.0321C13.1245 19.1791 12.0839 18.3655 11.937 17.1656C11.79 15.9658 12.6036 14.9251 13.8035 14.7782Z" fill="#FED8CD"/>
<path opacity="0.1" d="M13.1523 9.4608C9.07864 9.95967 6.12068 13.7432 6.61955 17.8169C7.11843 21.8905 10.902 24.8484 14.9756 24.3496C19.0492 23.8507 22.0072 20.0671 21.5083 15.9935C21.0095 11.9199 17.2259 8.96193 13.1523 9.4608ZM13.9337 15.8417C14.5588 15.7651 15.0509 16.1498 15.1274 16.7749C15.204 17.4001 14.8193 17.8921 14.1942 17.9687C13.569 18.0452 13.077 17.6606 13.0005 17.0354C12.9239 16.4103 13.3086 15.9183 13.9337 15.8417Z" fill="#FED8CD"/>
<path fill-rule="evenodd" clip-rule="evenodd" d="M13.543 12.6513C15.8924 12.3635 18.0302 14.0349 18.3179 16.3842C18.6056 18.7336 16.9343 20.8714 14.5849 21.1591C12.2355 21.4468 10.0977 19.7755 9.81002 17.4261C9.5223 15.0768 11.1936 12.939 13.543 12.6513Z" fill="#FCE94F"/>
<path fill-rule="evenodd" clip-rule="evenodd" d="M12.6282 14.4364C15.5062 14.0839 18.125 16.1313 18.4774 19.0093C18.8299 21.8873 16.7825 24.5061 13.9045 24.8585C11.0265 25.211 8.40773 23.1636 8.05528 20.2856C7.70283 17.4076 9.75019 14.7888 12.6282 14.4364Z" fill="#FCE94F"/>
<path d="M6.45695 34.9997L6.32671 33.9363C6.32671 33.9363 8.79382 31.8351 9.52952 31.5881C10.2652 31.341 11.1718 31.3578 12.1089 31.4185C13.0459 31.4786 14.4419 31.5441 14.8704 31.5065C15.299 31.4691 16.0649 31.3224 16.9555 31.1583C17.8463 30.9952 19.3261 30.7643 19.7901 30.7129C20.2536 30.6561 21.4183 30.5783 22.6607 30.5026C23.9031 30.427 25.6124 30.3457 26.001 30.334C26.3896 30.322 26.8493 30.3316 27.3706 30.3395C27.8918 30.3469 28.7923 30.3443 29.1099 30.3349C29.4273 30.3252 30.1675 30.3361 31.0216 30.3105C31.8756 30.2847 33.2304 30.1457 33.6172 30.0692C34.004 29.9927 34.7867 29.6035 35.6658 29.2254C36.5449 28.8475 37.5203 28.4805 38.2924 28.4471C39.0645 28.4141 43.5486 29.3778 43.5486 29.3778L43.6789 30.4413L38.0956 31.125L33.5758 31.6786L29.056 32.2321L24.5362 32.7856L20.0163 33.3391L15.4965 33.8926L10.9767 34.4461L6.45695 34.9997Z" fill="black"/>
<path opacity="0.9" d="M6.45703 34.9998L6.54201 35.6937C6.54201 35.6937 9.36779 36.5213 10.1348 36.5298C10.9018 36.5384 11.783 36.3474 12.6851 36.1225C13.5872 35.8979 14.936 35.5784 15.3616 35.5167C15.787 35.4538 16.5636 35.3943 17.4652 35.3195C18.3668 35.2447 19.8565 35.0946 20.3194 35.0336C20.7828 34.9769 21.9346 34.7937 23.1618 34.5938C24.389 34.3939 26.0727 34.1038 26.4542 34.0338C26.8356 33.9633 27.2823 33.8665 27.7892 33.7571C28.2963 33.6486 29.1753 33.4708 29.4869 33.4133C29.7986 33.3557 30.5185 33.2017 31.3568 33.0475C32.1951 32.893 33.5446 32.7105 33.9372 32.6818C34.3299 32.6531 35.1711 32.7412 36.104 32.8033C37.037 32.8654 38.0618 32.9014 38.8217 32.7684C39.5815 32.6354 43.764 31.136 43.764 31.136L43.679 30.4422L38.0958 31.1259L33.576 31.6794L29.0561 32.2329L24.5363 32.7864L20.0165 33.34L15.4967 33.8935L10.9769 34.447L6.45703 34.9998Z" fill="black"/>
<path opacity="0.3" d="M6.45703 34.9997L43.679 30.4414L44.0697 33.6318L6.84775 38.1902L6.45703 34.9997Z" fill="#4D585E"/>
<path opacity="0.2" d="M7.02999 39.6791L3.47449 10.646L40.6964 6.08762L44.2519 35.1207L7.02999 39.6791Z" stroke="black" stroke-width="2"/>
<path opacity="0.6" d="M46.5 37.5H40.579V41.25H46.5V37.5Z" fill="url(#paint10_radial)"/>
<path opacity="0.6" d="M1.49996 41.25H7.42102V37.5H1.49996V41.25Z" fill="url(#paint11_radial)"/>
<path opacity="0.6" d="M40.579 37.5H7.42102V41.25H40.579V37.5Z" fill="url(#paint12_linear)"/>
<path opacity="0.35" d="M44.25 38.9978L44.25 6.75C44.25 6.75 17.25 6.75 3.75 6.75C3.75 17.5 3.75 39 3.75 39L44.25 38.9978Z" stroke="black" stroke-width="2" stroke-linejoin="round"/>
<path d="M44.25 38.9977L44.25 6.75C44.25 6.75 17.25 6.75 3.75 6.75C3.75 17.5 3.75 39 3.75 39L44.25 38.9977Z" fill="url(#paint13_linear)"/>
<path opacity="0.4" d="M3.75 6.75V7.5H44.25V6.75H3.75Z" fill="white"/>
<path d="M5.25 37.5V8.25H42.75V37.5H5.25Z" fill="url(#paint14_linear)"/>
<path opacity="0.1" d="M15.0001 10.3929C12.0541 10.3929 9.64294 12.804 9.64294 15.75C9.64294 18.696 12.0541 21.1071 15.0001 21.1071C17.9461 21.1071 20.3572 18.696 20.3572 15.75C20.3572 12.804 17.9461 10.3929 15.0001 10.3929ZM15.0001 12.5357C16.788 12.5357 18.2144 13.9621 18.2144 15.75C18.2144 17.5379 16.788 18.9643 15.0001 18.9643C13.2122 18.9643 11.7858 17.5379 11.7858 15.75C11.7858 13.9621 13.2122 12.5357 15.0001 12.5357Z" fill="#FED8CD"/>
<path opacity="0.1" d="M15.0001 9.32141C11.4751 9.32141 8.57153 12.225 8.57153 15.75C8.57153 19.275 11.4751 22.1786 15.0001 22.1786C18.5251 22.1786 21.4287 19.275 21.4287 15.75C21.4287 12.225 18.5251 9.32141 15.0001 9.32141ZM15.0001 13.6071C16.209 13.6071 17.143 14.5411 17.143 15.75C17.143 16.9588 16.209 17.8928 15.0001 17.8928C13.7913 17.8928 12.8572 16.9588 12.8572 15.75C12.8572 14.5411 13.7913 13.6071 15.0001 13.6071Z" fill="#FED8CD"/>
<path opacity="0.1" d="M15 8.25C10.8959 8.25 7.5 11.6459 7.5 15.75C7.5 19.8541 10.8959 23.25 15 23.25C19.1041 23.25 22.5 19.8541 22.5 15.75C22.5 11.6459 19.1041 8.25 15 8.25ZM15 14.6786C15.6298 14.6786 16.0714 15.1202 16.0714 15.75C16.0714 16.3798 15.6298 16.8214 15 16.8214C14.3702 16.8214 13.9286 16.3798 13.9286 15.75C13.9286 15.1202 14.3702 14.6786 15 14.6786Z" fill="#FED8CD"/>
<path fill-rule="evenodd" clip-rule="evenodd" d="M15.0001 11.4643C17.367 11.4643 19.2858 13.3831 19.2858 15.75C19.2858 18.1169 17.367 20.0357 15.0001 20.0357C12.6331 20.0357 10.7144 18.1169 10.7144 15.75C10.7144 13.3831 12.6331 11.4643 15.0001 11.4643Z" fill="#FCE94F"/>
<path fill-rule="evenodd" clip-rule="evenodd" d="M13.875 13.125C16.7745 13.125 19.125 15.4755 19.125 18.375C19.125 21.2745 16.7745 23.625 13.875 23.625C10.9755 23.625 8.625 21.2745 8.625 18.375C8.625 15.4755 10.9755 13.125 13.875 13.125Z" fill="#FCE94F"/>
<path d="M5.25 32.7857V31.7143C5.25 31.7143 7.95422 29.9287 8.7145 29.7729C9.47478 29.6171 10.3726 29.7439 11.2954 29.918C12.2181 30.0916 13.5957 30.3264 14.0257 30.341C14.4556 30.356 15.2337 30.3035 16.1377 30.2489C17.0417 30.1953 18.5385 30.146 19.0054 30.1514C19.4723 30.1514 20.6378 30.2157 21.8802 30.2915C23.1226 30.3676 24.8291 30.4947 25.2163 30.5303C25.6034 30.5656 26.0586 30.631 26.575 30.7022C27.0915 30.7729 27.9856 30.8798 28.302 30.9091C28.6183 30.938 29.3516 31.0389 30.2025 31.1172C31.0533 31.1954 32.415 31.2222 32.8082 31.1933C33.2014 31.1643 34.0256 30.8731 34.9442 30.6047C35.8627 30.3364 36.8755 30.0908 37.6459 30.1515C38.4163 30.2126 42.75 31.7142 42.75 31.7142V32.7856H37.125H32.5714H28.0179H23.4643H18.9107H14.3571H9.80357L5.25 32.7857Z" fill="black"/>
<path opacity="0.9" d="M5.25 32.7857V33.4848C5.25 33.4848 7.95422 34.6498 8.7145 34.7515C9.47478 34.8533 10.3726 34.7708 11.2954 34.6572C12.2181 34.544 13.5957 34.3907 14.0257 34.3812C14.4556 34.3705 15.2337 34.4058 16.1377 34.4412C17.0417 34.4766 18.5385 34.5087 19.0054 34.5044C19.4723 34.5044 20.6378 34.4626 21.8802 34.4133C23.1226 34.3641 24.8291 34.2808 25.2163 34.2577C25.6034 34.2341 26.0586 34.1923 26.575 34.1454C27.0915 34.0993 27.9856 34.0297 28.302 34.0105C28.6183 33.9912 29.3516 33.9258 30.2025 33.8746C31.0533 33.8232 32.415 33.8061 32.8082 33.8254C33.2014 33.8446 34.0256 34.0343 34.9442 34.2094C35.8627 34.3844 36.8755 34.5447 37.6459 34.5051C38.4163 34.4654 42.75 33.4855 42.75 33.4855V32.7865H37.125H32.5714H28.0179H23.4643H18.9107H14.3571H9.80357L5.25 32.7857Z" fill="black"/>
<path opacity="0.3" d="M5.25 32.7857H42.75V36H5.25V32.7857Z" fill="#4D585E"/>
<path opacity="0.5" d="M42.25 8.75H5.75V37H42.25V8.75Z" stroke="black"/>
<path d="M25.125 17.25H26.5736H25.125ZM26.7861 17.25H28.1382H26.7861ZM28.3507 17.25H29.5482H28.3507ZM29.7414 17.25H30.2629H29.7414ZM30.4753 17.25H31.6343H30.4753ZM31.8661 17.25H34.9179H31.8661ZM35.111 17.25H37.4482H35.111ZM37.6413 17.25H38.356H37.6413ZM25.125 17.625H27.3849H25.125ZM27.636 17.625H28.7177H27.636ZM28.9108 17.625H29.4516H28.9108ZM29.6641 17.625H30.6492H29.6641ZM30.8617 17.625H31.8661H30.8617ZM32.0592 17.625H33.6624H32.0592ZM33.8748 17.625H35.9609H33.8748ZM36.1541 17.625H37.5448H36.1541ZM37.7379 17.625H38.0856H37.7379ZM25.125 17.9972H27.0372H25.125ZM27.2304 17.9972H30.3595H27.2304ZM30.5526 17.9972H32.0785H30.5526ZM32.2717 17.9972H33.701H32.2717ZM33.8942 17.9972H35.111H33.8942ZM35.3042 17.9972L37.2164 18.0028L35.3042 17.9972ZM37.3902 18.0028H40.5H37.3902ZM25.125 18.375H27.7712H25.125ZM27.9837 18.375H30.8423H27.9837ZM31.0355 18.375H32.1751H31.0355ZM32.3682 18.375H35.0531H32.3682ZM35.2269 18.375H37.0619H35.2269ZM37.2743 18.375H38.0083H37.2743ZM38.2015 18.375H38.6071H38.2015ZM38.8196 18.375H39.9592H38.8196ZM25.125 18.75H26.1101H25.125ZM26.4191 18.75H30.0697H26.4191ZM25.125 19.4972H27.0372H25.125ZM27.2304 19.4972H30.3595H27.2304ZM30.5526 19.4972H32.0785H30.5526ZM32.2717 19.4972H33.701H32.2717ZM33.8942 19.4972H35.111H33.8942ZM35.3042 19.4972L37.2164 19.5028L35.3042 19.4972ZM37.3902 19.5028H40.5H37.3902ZM25.125 19.875H27.5587H25.125ZM27.7519 19.875H30.3595H27.7519ZM30.5526 19.875H31.557H30.5526ZM31.7502 19.875H34.2032H31.7502ZM34.3964 19.875H37.4868H34.3964ZM37.6993 19.875H38.8389H37.6993ZM25.125 20.25H27.7712H25.125ZM27.9837 20.25H30.8423H27.9837ZM31.0355 20.25H32.1751H31.0355ZM32.3682 20.25H35.0531H32.3682ZM35.2269 20.25H37.0619H35.2269ZM37.2743 20.25H38.0083H37.2743ZM38.2015 20.25H38.6071H38.2015ZM38.8196 20.25H39.9592H38.8196ZM25.125 20.625H27.3849H25.125ZM27.636 20.625H28.7177H27.636ZM28.9108 20.625H29.4516H28.9108ZM29.6641 20.625H30.6492H29.6641ZM30.8617 20.625H31.8661H30.8617ZM32.0592 20.625H33.6624H32.0592ZM33.8748 20.625H35.9609H33.8748ZM36.1541 20.625H37.5448H36.1541ZM37.7379 20.625H38.0856H37.7379ZM25.125 21.3722H27.0372H25.125ZM27.2304 21.3722H30.3595H27.2304ZM30.5526 21.3722H32.0785H30.5526ZM32.2717 21.3722H33.701H32.2717ZM33.8942 21.3722H35.111H33.8942ZM35.3042 21.3722L37.2164 21.3778L35.3042 21.3722ZM37.3902 21.3778H40.5H37.3902ZM25.125 21.75H27.3849H25.125ZM27.636 21.75H28.7177H27.636ZM28.9108 21.75H29.4516H28.9108ZM29.6641 21.75H30.6492H29.6641ZM30.8617 21.75H31.8661H30.8617ZM32.0592 21.75H33.6624H32.0592ZM33.8748 21.75H35.9609H33.8748ZM36.1541 21.75H37.5448H36.1541ZM37.7379 21.75H38.0856H37.7379ZM25.125 22.125H27.5201H25.125ZM27.7326 22.125H28.4859H27.7326ZM28.679 22.125H30.3981H28.679ZM30.5912 22.125H33.1215H30.5912ZM33.334 22.125H35.0531H33.334ZM35.2269 22.125H35.5939H35.2269ZM35.7871 22.125H37.9697H35.7871ZM38.2015 22.125H39.3411H38.2015ZM25.125 22.5H27.5201H25.125ZM27.7326 22.5H28.8142H27.7326ZM29.0074 22.5H30.7071H29.0074ZM30.9003 22.5H32.7352H30.9003ZM32.9477 22.5H33.6817H32.9477ZM33.8748 22.5H34.2805H33.8748ZM34.4929 22.5H35.6325H34.4929Z" stroke="url(#paint15_linear)"/>
<path d="M25.125 23.625H26.079H25.125ZM26.2189 23.625H27.1093H26.2189ZM27.2492 23.625H28.0378H27.2492ZM28.165 23.625H28.5085H28.165ZM28.6484 23.625H29.4116H28.6484ZM29.5642 23.625H31.574H29.5642ZM31.7012 23.625H33.2403H31.7012ZM33.3675 23.625H33.8381H33.3675ZM25.125 24H26.6132H25.125ZM26.7786 24H27.4909H26.7786ZM27.6181 24H27.9742H27.6181ZM28.1142 24H28.7629H28.1142ZM28.9028 24H29.5642H28.9028ZM29.6914 24H30.7472H29.6914ZM30.8871 24H32.2608H30.8871ZM32.388 24H33.3039H32.388ZM33.4311 24H33.66H33.4311ZM25.125 24.3722H26.3843H25.125ZM26.5115 24.3722H28.5721H26.5115ZM28.6993 24.3722H29.7041H28.6993ZM29.8313 24.3722H30.7726H29.8313ZM30.8998 24.3722H31.7012H30.8998ZM31.8284 24.3722L33.0876 24.3778L31.8284 24.3722ZM33.2021 24.3778H35.25H33.2021ZM25.125 24.75H26.8676H25.125ZM27.0075 24.75H28.8901H27.0075ZM29.0173 24.75H29.7677H29.0173ZM29.8949 24.75H31.663H29.8949ZM31.7775 24.75H32.9859H31.7775ZM33.1258 24.75H33.6091H33.1258ZM33.7363 24.75H34.0035H33.7363ZM34.1434 24.75H34.8938H34.1434ZM25.125 25.125H25.7737H25.125ZM25.9772 25.125H28.3813H25.9772ZM25.125 25.8722H26.3843H25.125ZM26.5115 25.8722H28.5721H26.5115ZM28.6993 25.8722H29.7041H28.6993ZM29.8313 25.8722H30.7726H29.8313ZM30.8998 25.8722H31.7012H30.8998ZM31.8284 25.8722L33.0876 25.8778L31.8284 25.8722ZM33.2021 25.8778H35.25H33.2021ZM25.125 26.25H26.7277H25.125ZM26.8549 26.25H28.5721H26.8549ZM28.6993 26.25H29.3607H28.6993ZM29.4879 26.25H31.1033H29.4879ZM31.2305 26.25H33.2657H31.2305ZM33.4056 26.25H34.1561H33.4056ZM25.125 26.625H26.8676H25.125ZM27.0075 26.625H28.8901H27.0075ZM29.0173 26.625H29.7677H29.0173ZM29.8949 26.625H31.663H29.8949ZM31.7775 26.625H32.9859H31.7775ZM33.1258 26.625H33.6091H33.1258ZM33.7363 26.625H34.0035H33.7363ZM34.1434 26.625H34.8938H34.1434ZM25.125 27H26.6132H25.125ZM26.7786 27H27.4909H26.7786ZM27.6181 27H27.9742H27.6181ZM28.1142 27H28.7629H28.1142ZM28.9028 27H29.5642H28.9028ZM29.6914 27H30.7472H29.6914ZM30.8871 27H32.2608H30.8871ZM32.388 27H33.3039H32.388ZM33.4311 27H33.66H33.4311ZM25.125 27.7472H26.3843H25.125ZM26.5115 27.7472H28.5721H26.5115ZM28.6993 27.7472H29.7041H28.6993ZM29.8313 27.7472H30.7726H29.8313ZM30.8998 27.7472H31.7012H30.8998ZM31.8284 27.7472L33.0876 27.7528L31.8284 27.7472ZM33.2021 27.7528H35.25H33.2021ZM25.125 28.125H26.6132H25.125ZM26.7786 28.125H27.4909H26.7786ZM27.6181 28.125H27.9742H27.6181ZM28.1142 28.125H28.7629H28.1142ZM28.9028 28.125H29.5642H28.9028ZM29.6914 28.125H30.7472H29.6914ZM30.8871 28.125H32.2608H30.8871ZM32.388 28.125H33.3039H32.388ZM33.4311 28.125H33.66H33.4311ZM25.125 28.5H26.7023H25.125ZM26.8422 28.5H27.3383H26.8422ZM27.4655 28.5H28.5975H27.4655ZM28.7247 28.5H30.391H28.7247ZM30.5309 28.5H31.663H30.5309ZM31.7775 28.5H32.0192H31.7775ZM32.1464 28.5H33.5837H32.1464ZM33.7363 28.5H34.4868H33.7363ZM25.125 28.875H26.7023H25.125ZM26.8422 28.875H27.5545H26.8422ZM27.6817 28.875H28.801H27.6817ZM28.9282 28.875H30.1366H28.9282ZM30.2765 28.875H30.7599H30.2765ZM30.8871 28.875H31.1542H30.8871ZM31.2941 28.875H32.0446H31.2941Z" stroke="url(#paint16_linear)"/>
<path opacity="0.6" d="M35.625 23.25H24.75V29.25H35.625V23.25Z" fill="#FCE94F"/>
<path fill-rule="evenodd" clip-rule="evenodd" d="M34.5 21.0961L38.8914 25.5L46.5765 17.7931C47.2482 17.2383 46.5765 16.6921 46.5765 16.6921L43.2829 13.3892C43.2829 13.3892 42.7777 12.7948 42.185 13.3892L34.5 21.0961Z" stroke="#BF830A" stroke-width="2" stroke-linejoin="round"/>
<path fill-rule="evenodd" clip-rule="evenodd" d="M34.5 21.1023L38.879 25.5L46.5423 17.8041C47.2909 17.2501 46.5423 16.7046 46.5423 16.7046L43.258 13.4064C43.258 13.4064 42.7149 12.7733 42.1633 13.4064L34.5 21.1023Z" fill="url(#paint17_linear)"/>
<path fill-rule="evenodd" clip-rule="evenodd" d="M34.271 21.5097V23.6141L36.3683 25.7184H38.4656L34.271 21.5097Z" stroke="#838383" stroke-width="2" stroke-linejoin="round"/>
<path fill-rule="evenodd" clip-rule="evenodd" d="M34.271 21.5097V23.6141L36.3683 25.7184H38.4656L34.271 21.5097Z" fill="#CECECE"/>
<path fill-rule="evenodd" clip-rule="evenodd" d="M31.875 27.0728H33.9723L35.021 26.0206L33.9723 24.9684L31.875 27.0728Z" stroke="#BF830A" stroke-width="2" stroke-linejoin="round"/>
<path fill-rule="evenodd" clip-rule="evenodd" d="M34.3838 24.3899L33.5973 25.3434L34.646 26.3956L35.5308 25.7051L34.3838 24.3899Z" stroke="#838383" stroke-width="2"/>
<path opacity="0.1" d="M39.1683 28.5C42.7157 28.5 45.5914 27.9995 45.5914 27.3821C45.5914 26.7646 42.7157 26.2641 39.1683 26.2641C35.6209 26.2641 32.7452 26.7646 32.7452 27.3821C32.7452 27.9995 35.6209 28.5 39.1683 28.5Z" fill="url(#paint18_radial)"/>
<path fill-rule="evenodd" clip-rule="evenodd" d="M34.3838 24.3899L33.5973 25.3434L34.646 26.3956L35.5308 25.7051L34.3838 24.3899Z" fill="#CECECE"/>
<path fill-rule="evenodd" clip-rule="evenodd" d="M31.875 27.0728H33.9723L35.021 26.0206L33.9723 24.9684L31.875 27.0728Z" fill="#FCE94F"/>
<path opacity="0.5" d="M36.0728 20.5228L42.5941 13.9795" stroke="white" stroke-linecap="round"/>
<path opacity="0.5" d="M34.584 23.4562L34.5784 22.2682" stroke="white" stroke-linecap="round"/>
<path opacity="0.1" d="M39.4155 23.9527L45.9369 17.4093" stroke="black" stroke-linecap="round"/>
<path opacity="0.1" d="M36.6924 25.1689L37.6063 25.5016" stroke="black" stroke-linecap="round"/>
<path d="M18.4523 27.4473C18.4525 27.6655 18.31 27.8817 18.0329 28.0833C17.7558 28.285 17.3496 28.4682 16.8375 28.6225C16.3254 28.7769 15.7174 28.8993 15.0482 28.9828C14.379 29.0664 13.6618 29.1094 12.9375 29.1094C12.2131 29.1094 11.4959 29.0664 10.8267 28.9828C10.1575 28.8993 9.5495 28.7769 9.03738 28.6225C8.52526 28.4682 8.11907 28.285 7.84201 28.0833C7.56494 27.8817 7.42243 27.6655 7.42261 27.4473C7.42243 27.229 7.56494 27.0129 7.84201 26.8113C8.11907 26.6096 8.52526 26.4264 9.03738 26.272C9.5495 26.1177 10.1575 25.9952 10.8267 25.9117C11.4959 25.8282 12.2131 25.7852 12.9375 25.7852C13.6618 25.7852 14.379 25.8282 15.0482 25.9117C15.7174 25.9952 16.3254 26.1177 16.8375 26.272C17.3496 26.4264 17.7558 26.6096 18.0329 26.8113C18.31 27.0129 18.4525 27.229 18.4523 27.4473Z" fill="url(#paint19_radial)" fill-opacity="0.5"/>
<path d="M12.9375 13.5001C9.10966 13.5001 6 16.6097 6 20.4376C6 24.2654 9.10966 27.375 12.9375 27.375C16.7654 27.375 19.875 24.2654 19.875 20.4376C19.875 16.6097 16.7654 13.5001 12.9375 13.5001Z" fill="url(#paint20_radial)" fill-opacity="0.5"/>
<path opacity="0.75" d="M12.9371 17.6923C14.9286 17.6923 16.5431 16.9482 16.5431 16.0302C16.5431 15.1123 14.9286 14.3681 12.9371 14.3681C10.9455 14.3681 9.33105 15.1123 9.33105 16.0302C9.33105 16.9482 10.9455 17.6923 12.9371 17.6923Z" fill="url(#paint21_linear)"/>
<path opacity="0.25" d="M12.9375 13.5C9.10963 13.5 6 16.6096 6 20.4375C6 24.2654 9.10963 27.375 12.9375 27.375C16.7654 27.375 19.875 24.2654 19.875 20.4375C19.875 16.6096 16.7654 13.5 12.9375 13.5V13.5Z" stroke="black" stroke-width="0.999995" stroke-linecap="round" stroke-linejoin="round"/>
</g>
<defs>
<radialGradient id="paint0_radial" cx="0" cy="0" r="1" gradientUnits="userSpaceOnUse" gradientTransform="translate(44.3748 33.9978) rotate(-16.5074) scale(5.80863 1.875)">
<stop stop-color="#181818"/>
<stop offset="1" stop-color="#181818" stop-opacity="0"/>
</radialGradient>
<radialGradient id="paint1_radial" cx="0" cy="0" r="1" gradientUnits="userSpaceOnUse" gradientTransform="translate(13.2617 43.2183) rotate(163.493) scale(5.80863 1.875)">
<stop stop-color="#181818"/>
<stop offset="1" stop-color="#181818" stop-opacity="0"/>
</radialGradient>
<linearGradient id="paint2_linear" x1="30.5316" y1="40.0714" x2="29.4618" y2="36.4615" gradientUnits="userSpaceOnUse">
<stop stop-color="#181818" stop-opacity="0"/>
<stop offset="0.5" stop-color="#181818"/>
<stop offset="1" stop-color="#181818" stop-opacity="0"/>
</linearGradient>
<linearGradient id="paint3_linear" x1="30.9493" y1="45.7989" x2="17.3106" y2="-0.222653" gradientUnits="userSpaceOnUse">
<stop stop-color="#EDEDED"/>
<stop offset="1" stop-color="white"/>
</linearGradient>
<linearGradient id="paint4_linear" x1="21.744" y1="36.2753" x2="12.3098" y2="4.44114" gradientUnits="userSpaceOnUse">
<stop stop-color="#16538C"/>
<stop offset="0.362069" stop-color="#3594CA"/>
<stop offset="1" stop-color="#4EDFF3"/>
</linearGradient>
<radialGradient id="paint5_radial" cx="0" cy="0" r="1" gradientUnits="userSpaceOnUse" gradientTransform="translate(42.3166 37.2467) rotate(-6.9819) scale(5.93227 1.875)">
<stop stop-color="#181818"/>
<stop offset="1" stop-color="#181818" stop-opacity="0"/>
</radialGradient>
<radialGradient id="paint6_radial" cx="0" cy="0" r="1" gradientUnits="userSpaceOnUse" gradientTransform="translate(9.42108 41.2752) rotate(173.018) scale(5.93227 1.875)">
<stop stop-color="#181818"/>
<stop offset="1" stop-color="#181818" stop-opacity="0"/>
</radialGradient>
<linearGradient id="paint7_linear" x1="27.3423" y1="40.9845" x2="26.8847" y2="37.2473" gradientUnits="userSpaceOnUse">
<stop stop-color="#181818" stop-opacity="0"/>
<stop offset="0.5" stop-color="#181818"/>
<stop offset="1" stop-color="#181818" stop-opacity="0"/>
</linearGradient>
<linearGradient id="paint8_linear" x1="26.7805" y1="46.7054" x2="20.9458" y2="-0.938693" gradientUnits="userSpaceOnUse">
<stop stop-color="#EDEDED"/>
<stop offset="1" stop-color="white"/>
</linearGradient>
<linearGradient id="paint9_linear" x1="19.149" y1="35.8056" x2="15.113" y2="2.84909" gradientUnits="userSpaceOnUse">
<stop stop-color="#16538C"/>
<stop offset="0.362069" stop-color="#3594CA"/>
<stop offset="1" stop-color="#4EDFF3"/>
</linearGradient>
<radialGradient id="paint10_radial" cx="0" cy="0" r="1" gradientUnits="userSpaceOnUse" gradientTransform="translate(40.5707 39.375) scale(5.93227 1.875)">
<stop stop-color="#181818"/>
<stop offset="1" stop-color="#181818" stop-opacity="0"/>
</radialGradient>
<radialGradient id="paint11_radial" cx="0" cy="0" r="1" gradientUnits="userSpaceOnUse" gradientTransform="translate(7.42933 39.375) rotate(180) scale(5.93227 1.875)">
<stop stop-color="#181818"/>
<stop offset="1" stop-color="#181818" stop-opacity="0"/>
</radialGradient>
<linearGradient id="paint12_linear" x1="25.253" y1="41.2649" x2="25.253" y2="37.4997" gradientUnits="userSpaceOnUse">
<stop stop-color="#181818" stop-opacity="0"/>
<stop offset="0.5" stop-color="#181818"/>
<stop offset="1" stop-color="#181818" stop-opacity="0"/>
</linearGradient>
<linearGradient id="paint13_linear" x1="24" y1="46.875" x2="24" y2="-1.125" gradientUnits="userSpaceOnUse">
<stop stop-color="#EDEDED"/>
<stop offset="1" stop-color="white"/>
</linearGradient>
<linearGradient id="paint14_linear" x1="17.75" y1="35.1284" x2="17.75" y2="1.92567" gradientUnits="userSpaceOnUse">
<stop stop-color="#16538C"/>
<stop offset="0.362069" stop-color="#3594CA"/>
<stop offset="1" stop-color="#4EDFF3"/>
</linearGradient>
<linearGradient id="paint15_linear" x1="30.7014" y1="23.6213" x2="30.7014" y2="15.6669" gradientUnits="userSpaceOnUse">
<stop stop-color="#D4D4D4"/>
<stop offset="1" stop-color="#FAFAFA"/>
</linearGradient>
<linearGradient id="paint16_linear" x1="28.7973" y1="29.9963" x2="28.7973" y2="22.0419" gradientUnits="userSpaceOnUse">
<stop stop-color="#D4D4D4"/>
<stop offset="1" stop-color="#FAFAFA"/>
</linearGradient>
<linearGradient id="paint17_linear" x1="38.9336" y1="16.8243" x2="43.2734" y2="20.8328" gradientUnits="userSpaceOnUse">
<stop stop-color="#FCE94F"/>
<stop offset="1" stop-color="#D7B031"/>
</linearGradient>
<radialGradient id="paint18_radial" cx="0" cy="0" r="1" gradientUnits="userSpaceOnUse" gradientTransform="translate(39.1683 27.3821) scale(6.42306 1.11796)">
<stop/>
<stop offset="1" stop-opacity="0"/>
</radialGradient>
<radialGradient id="paint19_radial" cx="0" cy="0" r="1" gradientUnits="userSpaceOnUse" gradientTransform="translate(12.9375 27.4473) scale(5.51484 1.66168)">
<stop stop-color="#3D3D3D"/>
<stop offset="0.5" stop-color="#686868" stop-opacity="0.498039"/>
<stop offset="1" stop-color="#686868" stop-opacity="0"/>
</radialGradient>
<radialGradient id="paint20_radial" cx="0" cy="0" r="1" gradientUnits="userSpaceOnUse" gradientTransform="translate(12.9377 14.2336) rotate(90) scale(19.9383 26.3184)">
<stop stop-color="#C8C8C8"/>
<stop offset="0.625454" stop-color="#FCFCFC"/>
<stop offset="1" stop-color="#89898B"/>
</radialGradient>
<linearGradient id="paint21_linear" x1="13.1518" y1="17.8332" x2="13.1518" y2="14.3312" gradientUnits="userSpaceOnUse">
<stop stop-color="white" stop-opacity="0.2"/>
<stop offset="1" stop-color="white" stop-opacity="0.998934"/>
</linearGradient>
<clipPath id="clip0">
<rect width="48" height="48" fill="white"/>
</clipPath>
</defs>
</svg>
