<svg width="128" height="128" viewBox="0 0 128 128" fill="none" xmlns="http://www.w3.org/2000/svg">
<g clip-path="url(#clip0)">
<path opacity="0.35" d="M118.988 100.16L114.56 14.2803C114.56 14.2803 42.6551 17.988 6.70282 19.8418C8.17902 48.4704 11.1314 105.728 11.1314 105.728L118.988 100.16Z" stroke="black" stroke-width="2" stroke-linejoin="round"/>
<path d="M118.988 100.16L114.56 14.2803C114.56 14.2803 42.6551 17.988 6.70282 19.8418C8.17902 48.4704 11.1314 105.728 11.1314 105.728L118.988 100.16Z" fill="url(#paint0_linear)"/>
<path opacity="0.4" d="M118.988 100.16L114.56 14.2803C114.56 14.2803 42.6551 17.988 6.70282 19.8418C8.17902 48.4704 11.1314 105.728 11.1314 105.728L118.988 100.16Z" stroke="white" stroke-width="2" stroke-linejoin="round"/>
<path opacity="0.4" d="M6.70282 19.8418L6.80581 21.8391L114.663 16.2776L114.56 14.2803L6.70282 19.8418Z" fill="white"/>
<path d="M14.9202 101.527L10.9035 23.6305L110.771 18.4809L114.787 96.3774L14.9202 101.527Z" fill="url(#paint1_linear)"/>
<path opacity="0.1" d="M39.9122 59.3948C32.0667 59.7994 25.9766 66.5517 26.3811 74.3972C26.7856 82.2428 33.538 88.3329 41.3835 87.9284C49.229 87.5238 55.3192 80.7715 54.9146 72.9259C54.5101 65.0804 47.7577 58.9903 39.9122 59.3948ZM40.2065 65.1015C44.9679 64.856 48.9624 68.4588 49.2079 73.2202C49.4534 77.9816 45.8506 81.9761 41.0892 82.2217C36.3279 82.4672 32.3333 78.8644 32.0878 74.103C31.8423 69.3416 35.4451 65.3471 40.2065 65.1015Z" fill="#FED8CD"/>
<path opacity="0.1" d="M39.7651 56.5415C30.3775 57.0255 23.0437 65.1568 23.5277 74.5444C24.0118 83.9319 32.143 91.2658 41.5306 90.7817C50.9182 90.2976 58.252 82.1664 57.768 72.7788C57.2839 63.3912 49.1527 56.0574 39.7651 56.5415ZM40.3536 67.9549C43.5729 67.7889 46.1886 70.148 46.3546 73.3673C46.5206 76.5866 44.1614 79.2023 40.9421 79.3683C37.7228 79.5343 35.1072 77.1752 34.9411 73.9558C34.7751 70.7365 37.1343 68.1209 40.3536 67.9549Z" fill="#FED8CD"/>
<path opacity="0.1" d="M39.6179 53.6881C28.6883 54.2517 20.1108 63.7619 20.6744 74.6915C21.238 85.6212 30.7481 94.1986 41.6778 93.6351C52.6074 93.0715 61.1849 83.5613 60.6213 72.6317C60.0577 61.702 50.5476 53.1246 39.6179 53.6881ZM40.5007 70.8082C42.178 70.7218 43.4147 71.8372 43.5012 73.5145C43.5877 75.1917 42.4722 76.4285 40.795 76.515C39.1177 76.6014 37.881 75.486 37.7945 73.8087C37.708 72.1315 38.8235 70.8947 40.5007 70.8082Z" fill="#FED8CD"/>
<path fill-rule="evenodd" clip-rule="evenodd" d="M40.0593 62.2482C46.3628 61.9232 51.7362 66.7697 52.0613 73.0731C52.3863 79.3766 47.5398 84.75 41.2364 85.0751C34.9329 85.4001 29.5595 80.5536 29.2345 74.2502C28.9094 67.9467 33.7559 62.5733 40.0593 62.2482Z" fill="url(#paint2_linear)"/>
<path d="M14.2728 88.9723L14.1256 86.119C14.1256 86.119 21.0821 80.9922 23.0854 80.4729C25.0888 79.9537 27.4973 80.1682 29.9786 80.5052C32.4598 80.8407 36.1608 81.2767 37.3078 81.2567C38.4549 81.2376 40.5198 80.991 42.9197 80.7213C45.3199 80.4545 49.2994 80.1177 50.5435 80.0679C51.7868 80.0038 54.8996 80.0149 58.2187 80.0463C61.5378 80.0783 66.0998 80.1824 67.1358 80.2239C68.1717 80.2649 69.3927 80.3765 70.778 80.4953C72.1631 80.6127 74.559 80.7744 75.4054 80.8091C76.2518 80.8427 78.2186 81.0105 80.4953 81.1023C82.772 81.1937 86.4018 81.0781 87.4451 80.947C88.4883 80.816 90.6433 79.9273 93.0526 79.0864C95.4619 78.2458 98.1254 77.4524 100.185 77.5084C102.245 77.5653 113.993 80.9691 113.993 80.9691L114.14 83.8225L99.16 84.5949L87.0332 85.2202L74.9065 85.8455L62.7797 86.4708L50.653 87.0961L38.5262 87.7214L26.3995 88.3467L14.2728 88.9723Z" fill="black"/>
<path opacity="0.9" d="M14.2728 88.9723L14.3688 90.8341C14.3688 90.8341 21.7304 93.5652 23.7691 93.7316C25.8078 93.8983 28.1876 93.5553 30.6294 93.1261C33.0712 92.6978 36.7189 92.1006 37.8626 92.0162C39.0062 91.9286 41.0831 91.9159 43.4954 91.8859C45.9078 91.8559 49.8985 91.736 51.1412 91.6605C52.3846 91.5964 55.4828 91.325 58.7847 91.0232C62.0866 90.7213 66.6197 90.2653 67.6476 90.1505C68.6755 90.0345 69.8818 89.8608 71.2508 89.6648C72.6199 89.4712 74.9915 89.163 75.8313 89.0685C76.671 88.9737 78.615 88.6989 80.8739 88.4457C83.1328 88.1919 86.7567 87.9592 87.8065 87.9566C88.8564 87.954 91.0774 88.3458 93.5476 88.6859C96.0178 89.026 98.737 89.3138 100.783 89.1025C102.829 88.8911 114.236 85.6863 114.236 85.6863L114.14 83.8248L99.1601 84.5972L87.0333 85.2225L74.9066 85.8478L62.7799 86.4731L50.6531 87.0984L38.5264 87.7237L26.3996 88.349L14.2728 88.9723Z" fill="black"/>
<path opacity="0.3" d="M14.2728 88.9723L114.14 83.8227L114.581 92.3828L14.7142 97.5323L14.2728 88.9723Z" fill="#4D585E"/>
<path opacity="0.2" d="M14.9202 101.527L10.9035 23.6305L110.771 18.4809L114.787 96.3774L14.9202 101.527Z" stroke="black" stroke-width="2"/>
<path opacity="0.35" d="M120.982 97.2146L112.135 11.6768C112.135 11.6768 40.5174 19.0839 4.70837 22.7874C7.65748 51.302 13.5557 108.331 13.5557 108.331L120.982 97.2146Z" stroke="black" stroke-width="2" stroke-linejoin="round"/>
<path d="M120.982 97.2146L112.135 11.6768C112.135 11.6768 40.5174 19.0839 4.70837 22.7874C7.65748 51.302 13.5557 108.331 13.5557 108.331L120.982 97.2146Z" fill="url(#paint3_linear)"/>
<path opacity="0.4" d="M120.982 97.2146L112.135 11.6768C112.135 11.6768 40.5174 19.0839 4.70837 22.7874C7.65748 51.302 13.5557 108.331 13.5557 108.331L120.982 97.2146Z" stroke="white" stroke-width="2" stroke-linejoin="round"/>
<path opacity="0.4" d="M4.70837 22.7874L4.91413 24.7768L112.341 13.6662L112.135 11.6768L4.70837 22.7874Z" fill="white"/>
<path d="M17.123 103.941L9.09863 26.3547L108.568 16.0671L116.592 93.6533L17.123 103.941Z" fill="url(#paint4_linear)"/>
<path opacity="0.1" d="M39.9113 60.5771C32.097 61.3853 26.3628 68.4424 27.171 76.2567C27.9792 84.071 35.0363 89.8051 42.8506 88.997C50.6648 88.1888 56.399 81.1316 55.5908 73.3174C54.7827 65.5031 47.7255 59.7689 39.9113 60.5771ZM40.4991 66.2611C45.2416 65.7706 49.4164 69.1628 49.9069 73.9052C50.3974 78.6477 47.0051 82.8225 42.2627 83.313C37.5203 83.8035 33.3455 80.4112 32.855 75.6688C32.3645 70.9264 35.7567 66.7516 40.4991 66.2611Z" fill="#FED8CD"/>
<path opacity="0.1" d="M39.6174 57.7351C30.2672 58.7022 23.362 67.2004 24.3291 76.5506C25.2961 85.9008 33.7944 92.806 43.1446 91.8389C52.4947 90.8719 59.3999 82.3736 58.4329 73.0234C57.4658 63.6733 48.9676 56.7681 39.6174 57.7351ZM40.7931 69.1031C43.9996 68.7714 46.7333 70.9927 47.0649 74.1992C47.3966 77.4057 45.1753 80.1394 41.9688 80.471C38.7623 80.8026 36.0286 78.5814 35.697 75.3749C35.3654 72.1684 37.5866 69.4347 40.7931 69.1031Z" fill="#FED8CD"/>
<path opacity="0.1" d="M39.3234 54.8931C28.4373 56.019 20.3612 65.9584 21.4871 76.8445C22.613 87.7306 32.5524 95.8068 43.4385 94.6809C54.3246 93.555 62.4007 83.6156 61.2749 72.7295C60.149 61.8434 50.2095 53.7672 39.3234 54.8931ZM41.087 71.945C42.7576 71.7723 44.0502 72.8225 44.223 74.4931C44.3957 76.1637 43.3455 77.4562 41.6749 77.629C40.0043 77.8018 38.7118 76.7515 38.539 75.0809C38.3662 73.4104 39.4165 72.1178 41.087 71.945Z" fill="#FED8CD"/>
<path fill-rule="evenodd" clip-rule="evenodd" d="M40.2052 63.4192C46.4836 62.7698 52.0995 67.333 52.7489 73.6114C53.3982 79.8897 48.835 85.5057 42.5567 86.155C36.2783 86.8044 30.6623 82.2412 30.013 75.9628C29.3637 69.6845 33.9269 64.0685 40.2052 63.4192Z" fill="url(#paint5_linear)"/>
<path d="M15.8297 91.4362L15.5358 88.5942C15.5358 88.5942 22.2189 83.1159 24.1928 82.4941C26.1667 81.8723 28.5831 81.9625 31.0784 82.1712C33.5737 82.3784 37.2922 82.6232 38.4367 82.5441C39.5813 82.466 41.6306 82.1133 44.0136 81.7203C46.3968 81.3302 50.3536 80.7889 51.5935 80.675C52.8319 80.5469 55.9411 80.3977 59.2574 80.2581C62.5738 80.119 67.1351 79.9879 68.1718 79.9761C69.2085 79.9636 70.4336 80.0121 71.8232 80.0594C73.2125 80.1053 75.6135 80.1434 76.4606 80.1345C77.3076 80.1244 79.2804 80.1907 81.5588 80.165C83.8372 80.1391 87.4563 79.8366 88.4914 79.6519C89.5265 79.4673 91.6329 78.4688 93.9956 77.5049C96.3584 76.5413 98.9775 75.6117 101.038 75.5615C103.098 75.5122 115.005 78.3063 115.005 78.3063L115.299 81.1483L100.379 82.6914L88.3002 83.9407L76.2218 85.1899L64.1434 86.4391L52.0649 87.6883L39.9865 88.9375L27.9081 90.1867L15.8297 91.4362Z" fill="black"/>
<path opacity="0.9" d="M15.8297 91.4362L16.0215 93.2906C16.0215 93.2906 23.5141 95.6388 25.5586 95.6999C27.6032 95.7614 29.9621 95.2962 32.3786 94.7418C34.7951 94.1883 38.4072 93.4039 39.5451 93.2607C40.6826 93.1143 42.7561 92.9947 45.1637 92.8405C47.5713 92.6862 51.5505 92.3609 52.7877 92.2214C54.0261 92.0933 57.1062 91.6628 60.3882 91.1912C63.6702 90.7196 68.1738 90.0307 69.1944 89.8631C70.2149 89.6943 71.4107 89.4586 72.7678 89.1924C74.1251 88.9286 76.4777 88.4985 77.3115 88.3609C78.1452 88.223 80.0724 87.8484 82.3153 87.4791C84.5581 87.1093 88.1652 86.6903 89.2135 86.6336C90.2618 86.5769 92.5001 86.8538 94.9845 87.0662C97.4689 87.2786 100.199 87.4259 102.232 87.1094C104.265 86.7929 115.491 83.0047 115.491 83.0047L115.299 81.1506L100.379 82.6937L88.3005 83.9429L76.2221 85.1921L64.1436 86.4413L52.0652 87.6905L39.9868 88.9398L27.9083 90.189L15.8297 91.4362Z" fill="black"/>
<path opacity="0.3" d="M15.8297 91.4361L115.299 81.1485L116.181 89.6745L16.7115 99.9621L15.8297 91.4361Z" fill="#4D585E"/>
<path opacity="0.2" d="M17.123 103.941L9.09863 26.3547L108.568 16.0671L116.592 93.6533L17.123 103.941Z" stroke="black" stroke-width="2"/>
<path opacity="0.35" d="M121.877 97.1025L108.506 12.1544C108.506 12.1544 38.5268 23.1694 3.53723 28.6769C7.99459 56.9949 16.9093 113.631 16.9093 113.631L121.877 97.1025Z" stroke="black" stroke-width="2" stroke-linejoin="round"/>
<path d="M121.877 97.1025L108.506 12.1544C108.506 12.1544 38.5268 23.1694 3.53723 28.6769C7.99459 56.9949 16.9093 113.631 16.9093 113.631L121.877 97.1025Z" fill="url(#paint6_linear)"/>
<path opacity="0.4" d="M121.877 97.1025L108.506 12.1544C108.506 12.1544 38.5268 23.1694 3.53723 28.6769C7.99459 56.9949 16.9093 113.631 16.9093 113.631L121.877 97.1025Z" stroke="white" stroke-width="2" stroke-linejoin="round"/>
<path opacity="0.4" d="M3.53723 28.6769L3.84821 30.6526L108.817 14.1301L108.506 12.1544L3.53723 28.6769Z" fill="white"/>
<path d="M20.1751 109.068L8.04694 32.0163L105.24 16.7177L117.368 93.769L20.1751 109.068Z" fill="url(#paint7_linear)"/>
<path opacity="0.1" d="M40.1999 64.6241C32.5644 65.826 27.3149 73.1612 28.5364 80.9216C29.7579 88.682 37.007 94.0499 44.6424 92.848C52.2779 91.6462 57.5275 84.311 56.3059 76.5506C55.0844 68.7902 47.8353 63.4223 40.1999 64.6241ZM41.0884 70.2689C45.7223 69.5395 50.0107 72.715 50.752 77.4248C51.4934 82.1345 48.3878 86.4739 43.7539 87.2033C39.12 87.9327 34.8316 84.7571 34.0903 80.0474C33.349 75.3377 36.4545 70.9983 41.0884 70.2689Z" fill="#FED8CD"/>
<path opacity="0.1" d="M39.7557 61.8017C30.6194 63.2398 24.2979 72.073 25.7595 81.3587C27.2211 90.6444 35.9505 97.1085 45.0867 95.6704C54.223 94.2324 60.5445 85.3992 59.0829 76.1135C57.6213 66.8277 48.8919 60.3637 39.7557 61.8017ZM41.5327 73.0913C44.6658 72.5981 47.4739 74.6775 47.9751 77.8619C48.4763 81.0463 46.4428 83.8877 43.3097 84.3809C40.1766 84.874 37.3685 82.7947 36.8673 79.6103C36.366 76.4259 38.3996 73.5845 41.5327 73.0913Z" fill="#FED8CD"/>
<path opacity="0.1" d="M39.3114 58.9793C28.6744 60.6536 21.2808 70.9847 22.9825 81.7958C24.6842 92.6069 34.894 100.167 45.531 98.4928C56.168 96.8185 63.5616 86.4874 61.8599 75.6764C60.1582 64.8653 49.9484 57.305 39.3114 58.9793ZM41.9769 75.9137C43.6093 75.6568 44.937 76.6399 45.1982 78.299C45.4593 79.958 44.4978 81.3015 42.8655 81.5585C41.2331 81.8154 39.9054 80.8322 39.6442 79.1732C39.3831 77.5141 40.3446 76.1706 41.9769 75.9137Z" fill="#FED8CD"/>
<path fill-rule="evenodd" clip-rule="evenodd" d="M40.6442 67.4466C46.7789 66.481 52.5476 70.7527 53.529 76.9878C54.5105 83.2228 50.3329 89.0601 44.1982 90.0257C38.0636 90.9914 32.2948 86.7196 31.3134 80.4846C30.332 74.2495 34.5095 68.4122 40.6442 67.4466Z" fill="url(#paint8_linear)"/>
<path d="M18.2204 96.6491L17.7762 93.8267C17.7762 93.8267 24.0446 88.0197 25.9505 87.2992C27.8565 86.5786 30.2361 86.5465 32.6999 86.6287C35.1635 86.7095 38.8314 86.7659 39.9518 86.6291C41.0724 86.4932 43.0672 86.0375 45.3875 85.5248C47.7083 85.0148 51.5675 84.2744 52.7797 84.098C53.9898 83.9075 57.0373 83.6014 60.2888 83.2944C63.5405 82.9879 68.016 82.6265 69.0342 82.5622C70.0524 82.4974 71.2591 82.4839 72.6272 82.4609C73.9952 82.4365 76.3569 82.3531 77.1889 82.3014C78.0207 82.2485 79.9632 82.2149 82.201 82.0741C84.4387 81.933 87.9789 81.4481 88.9861 81.2115C89.9932 80.9749 92.0087 79.8715 94.2781 78.7897C96.5475 77.7083 99.0706 76.6479 101.093 76.4937C103.115 76.3403 114.969 78.5278 114.969 78.5278L115.414 81.3502L100.835 83.645L89.0327 85.5027L77.2306 87.3604L65.4286 89.2181L53.6265 91.0758L41.8245 92.9335L30.0224 94.7912L18.2204 96.6491Z" fill="black"/>
<path opacity="0.9" d="M18.2204 96.6491L18.5103 98.4907C18.5103 98.4907 26.0022 100.456 28.0148 100.414C30.0276 100.372 32.3204 99.7883 34.6649 99.1127C37.0096 98.4379 40.5166 97.4723 41.627 97.2718C42.7369 97.0682 44.7681 96.8439 47.1258 96.5682C49.4835 96.2926 53.3764 95.7666 54.5846 95.5648C55.7947 95.3744 58.7982 94.7888 61.9979 94.1521C65.1976 93.5154 69.5859 92.6 70.5797 92.381C71.5735 92.161 72.7357 91.8653 74.0549 91.5309C75.3744 91.1989 77.663 90.6506 78.4749 90.4711C79.2867 90.2912 81.1602 89.8199 83.3443 89.3378C85.5283 88.8553 89.0502 88.2546 90.0774 88.145C91.1046 88.0354 93.3195 88.1987 95.7727 88.2851C98.2259 88.3716 100.917 88.3806 102.898 87.9619C104.878 87.5432 115.704 83.1938 115.704 83.1938L115.414 81.3525L100.835 83.6473L89.033 85.505L77.231 87.3627L65.4289 89.2203L53.6269 91.078L41.8248 92.9357L30.0228 94.7934L18.2204 96.6491Z" fill="black"/>
<path opacity="0.3" d="M18.2204 96.6491L115.414 81.3505L116.747 89.8176L19.5532 105.116L18.2204 96.6491Z" fill="#4D585E"/>
<path opacity="0.2" d="M20.1751 109.068L8.04694 32.0163L105.24 16.7177L117.368 93.769L20.1751 109.068Z" stroke="black" stroke-width="2"/>
<path opacity="0.35" d="M124.345 93.3015L104.4 9.65227C104.4 9.65227 35.8195 26.004 1.52917 34.1799C8.17783 62.0649 21.4752 117.835 21.4752 117.835L124.345 93.3015Z" stroke="black" stroke-width="2" stroke-linejoin="round"/>
<path d="M124.345 93.3015L104.4 9.65227C104.4 9.65227 35.8195 26.004 1.52917 34.1799C8.17783 62.0649 21.4752 117.835 21.4752 117.835L124.345 93.3015Z" fill="url(#paint9_linear)"/>
<path opacity="0.4" d="M124.345 93.3015L104.4 9.65227C104.4 9.65227 35.8195 26.004 1.52917 34.1799C8.17783 62.0649 21.4752 117.835 21.4752 117.835L124.345 93.3015Z" stroke="white" stroke-width="2" stroke-linejoin="round"/>
<path opacity="0.4" d="M1.52917 34.1799L1.99303 36.1254L104.864 11.5977L104.4 9.65227L1.52917 34.1799Z" fill="white"/>
<path d="M24.3574 113.036L6.26691 37.1624L101.518 14.4516L119.608 90.3248L24.3574 113.036Z" fill="url(#paint10_linear)"/>
<path opacity="0.1" d="M40.7373 67.1974C33.2545 68.9816 28.6213 76.6962 30.4434 84.338C32.2654 91.9797 39.881 96.7739 47.3639 94.9898C54.8468 93.2056 59.4799 85.4909 57.6579 77.8492C55.8358 70.2074 48.2202 65.4133 40.7373 67.1974ZM42.0626 72.7559C46.6039 71.6731 51.1092 74.5092 52.215 79.1469C53.3207 83.7846 50.5799 88.3485 46.0386 89.4313C41.4973 90.5141 36.992 87.6779 35.8863 83.0402C34.7805 78.4025 37.5214 73.8387 42.0626 72.7559Z" fill="#FED8CD"/>
<path opacity="0.1" d="M40.0747 64.4182C31.1211 66.553 25.5418 75.8431 27.7219 84.9868C29.9021 94.1306 39.0729 99.9038 48.0266 97.769C56.9802 95.6342 62.5595 86.344 60.3793 77.2003C58.1992 68.0565 49.0283 62.2833 40.0747 64.4182ZM42.7253 75.5351C45.7958 74.803 48.7459 76.6601 49.4935 79.7958C50.2412 82.9315 48.4465 85.9199 45.3759 86.652C42.3054 87.3841 39.3554 85.527 38.6077 82.3913C37.8601 79.2556 39.6548 76.2672 42.7253 75.5351Z" fill="#FED8CD"/>
<path opacity="0.1" d="M39.412 61.6389C28.9876 64.1244 22.4621 74.99 25.0004 85.6357C27.5387 96.2815 38.2648 103.034 48.6892 100.548C59.1136 98.0627 65.639 87.1971 63.1008 76.5514C60.5625 65.9056 49.8364 59.1534 39.412 61.6389ZM43.3879 78.3143C44.9876 77.9329 46.3825 78.811 46.772 80.4447C47.1616 82.0784 46.313 83.4914 44.7132 83.8728C43.1135 84.2542 41.7187 83.3761 41.3291 81.7424C40.9396 80.1087 41.7882 78.6957 43.3879 78.3143Z" fill="#FED8CD"/>
<path fill-rule="evenodd" clip-rule="evenodd" d="M41.4 69.9767C47.412 68.5432 53.4725 72.3584 54.9364 78.4981C56.4003 84.6378 52.7133 90.7771 46.7012 92.2106C40.6892 93.644 34.6287 89.8289 33.1648 83.6891C31.7009 77.5494 35.3879 71.4102 41.4 69.9767Z" fill="url(#paint11_linear)"/>
<path d="M21.4418 100.807L20.7792 98.0277C20.7792 98.0277 26.5436 91.7581 28.3783 90.8936C30.2131 90.029 32.5721 89.8144 35.0236 89.7071C37.4748 89.5985 41.1191 89.3732 42.2203 89.1509C43.3216 88.9294 45.2654 88.322 47.5278 87.6328C49.7909 86.9463 53.5624 85.9119 54.7516 85.6431C55.9375 85.3603 58.9377 84.8212 62.1404 84.2656C65.3432 83.7105 69.7562 83.0066 70.7616 82.8644C71.7669 82.7216 72.9633 82.6155 74.3193 82.4876C75.6749 82.3582 78.0121 82.0938 78.8337 81.9784C79.655 81.8619 81.58 81.6793 83.7897 81.3671C85.9993 81.0547 89.4744 80.2996 90.4553 79.9864C91.4362 79.6732 93.3497 78.4186 95.5167 77.1662C97.6838 75.914 100.104 74.6633 102.099 74.3543C104.093 74.0462 116.03 75.3167 116.03 75.3167L116.693 78.0959L102.405 81.5025L90.8388 84.2603L79.2726 87.018L67.7064 89.7757L56.1403 92.5335L44.5741 95.2912L33.0079 98.049L21.4418 100.807Z" fill="black"/>
<path opacity="0.9" d="M21.4418 100.807L21.8742 102.62C21.8742 102.62 29.4634 104.005 31.4574 103.808C33.4515 103.611 35.6811 102.854 37.9546 102C40.2284 101.148 43.6328 99.9159 44.719 99.6308C45.8044 99.3426 47.8026 98.9631 50.1206 98.5074C52.4387 98.0516 56.2606 97.2284 57.4438 96.9346C58.6297 96.6518 61.5643 95.8376 64.6896 94.9573C67.8148 94.077 72.0978 92.8276 73.0669 92.5331C74.0358 92.2375 75.1659 91.8535 76.4488 91.4189C77.7321 90.9866 79.9602 90.2645 80.7518 90.0232C81.5433 89.7816 83.3655 89.1679 85.4951 88.5198C87.6245 87.8711 91.0724 87.002 92.0832 86.8139C93.0939 86.6257 95.3047 86.6185 97.7461 86.5164C100.187 86.4142 102.859 86.2166 104.791 85.6472C106.724 85.0778 117.125 79.9113 117.125 79.9113L116.693 78.0981L102.405 81.5047L90.8393 84.2625L79.2731 87.0202L67.7069 89.778L56.1408 92.5357L44.5746 95.2934L33.0084 98.0512L21.4418 100.807Z" fill="black"/>
<path opacity="0.3" d="M21.4418 100.807L116.693 78.0961L118.681 86.4338L23.4297 109.145L21.4418 100.807Z" fill="#4D585E"/>
<path opacity="0.2" d="M24.3574 113.036L6.26691 37.1624L101.518 14.4516L119.608 90.3248L24.3574 113.036Z" stroke="black" stroke-width="2"/>
<path opacity="0.35" d="M126.536 90.0792L99.8011 8.3466C99.8011 8.3466 33.7845 29.9408 0.776245 40.7379C9.68851 67.984 27.5131 122.476 27.5131 122.476L126.536 90.0792Z" stroke="black" stroke-width="2" stroke-linejoin="round"/>
<path d="M126.536 90.0792L99.8011 8.3466C99.8011 8.3466 33.7845 29.9408 0.776245 40.7379C9.68851 67.984 27.5131 122.476 27.5131 122.476L126.536 90.0792Z" fill="url(#paint12_linear)"/>
<path opacity="0.4" d="M126.536 90.0792L99.8011 8.3466C99.8011 8.3466 33.7845 29.9408 0.776245 40.7379C9.68851 67.984 27.5131 122.476 27.5131 122.476L126.536 90.0792Z" stroke="white" stroke-width="2" stroke-linejoin="round"/>
<path opacity="0.4" d="M0.776245 40.7379L1.39803 42.6388L100.423 10.2475L99.8011 8.3466L0.776245 40.7379Z" fill="white"/>
<path d="M29.937 117.475L5.68738 43.34L97.3771 13.3481L121.627 87.4828L29.937 117.475Z" fill="#45C4E4"/>
<path opacity="0.1" d="M42.13 70.5704C34.9269 72.9265 31.0305 80.9661 33.4728 88.4327C35.9152 95.8993 43.8096 100.082 51.0127 97.7259C58.2158 95.3698 62.1122 87.3302 59.6699 79.8636C57.2275 72.3969 49.3331 68.2142 42.13 70.5704ZM43.9066 76.0015C48.2781 74.5715 52.9482 77.0459 54.4305 81.5774C55.9127 86.1088 53.6077 90.8649 49.2362 92.2948C44.8646 93.7247 40.1945 91.2503 38.7122 86.7189C37.23 82.1874 39.535 77.4314 43.9066 76.0015Z" fill="#FED8CD"/>
<path opacity="0.1" d="M41.2417 67.8548C32.6228 70.6741 27.9307 80.3554 30.8531 89.2896C33.7755 98.2238 43.282 103.261 51.9009 100.441C60.5198 97.6222 65.212 87.9409 62.2896 79.0067C59.3671 70.0724 49.8606 65.0355 41.2417 67.8548ZM44.7948 78.717C47.7505 77.7502 50.8085 79.3705 51.8107 82.4343C52.8129 85.4982 51.3036 88.6124 48.3479 89.5792C45.3922 90.5461 42.3341 88.9258 41.3319 85.862C40.3297 82.7981 41.8391 79.6838 44.7948 78.717Z" fill="#FED8CD"/>
<path opacity="0.1" d="M40.3534 65.1392C30.3188 68.4216 24.8309 79.7447 28.2334 90.1465C31.6358 100.548 42.7545 106.439 52.7892 103.157C62.8238 99.8747 68.3117 88.5516 64.9092 78.1497C61.5068 67.7479 50.3881 61.8569 40.3534 65.1392ZM45.683 81.4326C47.223 80.9289 48.6689 81.695 49.191 83.2912C49.7131 84.8875 48.9995 86.36 47.4596 86.8637C45.9197 87.3674 44.4737 86.6013 43.9516 85.005C43.4295 83.4088 44.1431 81.9363 45.683 81.4326Z" fill="#FED8CD"/>
<path fill-rule="evenodd" clip-rule="evenodd" d="M43.0182 73.286C48.8055 71.3929 55.0878 74.7215 57.0501 80.7205C59.0124 86.7196 55.9117 93.1174 50.1244 95.0104C44.3371 96.9035 38.0548 93.5749 36.0925 87.5759C34.1302 81.5768 37.231 75.179 43.0182 73.286Z" fill="url(#paint13_linear)"/>
<path d="M26.0287 105.526L25.1405 102.811C25.1405 102.811 30.2721 96.1222 32.0018 95.1193C33.7316 94.1164 36.0321 93.7198 38.4326 93.4231C40.8327 93.125 44.3956 92.6182 45.459 92.3116C46.5227 92.0057 48.3816 91.2504 50.5466 90.3889C52.7126 89.5301 56.3316 88.208 57.4776 87.8482C58.6191 87.4748 61.5222 86.7055 64.6228 85.9042C67.7237 85.1033 72.0014 84.0606 72.9775 83.8411C73.9535 83.621 75.1205 83.4227 76.4424 83.1902C77.7638 82.9564 80.0386 82.512 80.8364 82.3334C81.6337 82.1537 83.5103 81.8228 85.6557 81.3408C87.801 80.8585 91.1524 79.8374 92.0899 79.4495C93.0274 79.0617 94.8012 77.6644 96.8245 76.2496C98.8479 74.835 101.121 73.4023 103.055 72.9401C104.989 72.4787 116.83 72.8185 116.83 72.8185L117.718 75.5341L103.965 80.0329L92.8312 83.6748L81.6974 87.3166L70.5636 90.9585L59.4299 94.6004L48.2961 98.2423L37.1624 101.884L26.0287 105.526Z" fill="black"/>
<path opacity="0.9" d="M26.0287 105.526L26.6083 107.298C26.6083 107.298 34.1861 108.088 36.1293 107.738C38.0726 107.388 40.1995 106.46 42.3615 105.435C44.5238 104.41 47.7651 102.919 48.8085 102.551C49.8508 102.18 51.7825 101.648 54.0222 101.014C56.2619 100.381 59.9484 99.2652 61.0864 98.881C62.2279 98.5076 65.043 97.4695 68.0399 96.3509C71.0368 95.2323 75.1402 93.6565 76.0677 93.2882C76.9948 92.9188 78.073 92.4489 79.2969 91.9169C80.5215 91.3871 82.65 90.4954 83.4075 90.1938C84.1649 89.892 85.9037 89.1398 87.9417 88.3295C89.9795 87.5187 93.2945 86.3862 94.272 86.1206C95.2494 85.855 97.4219 85.6764 99.8129 85.3855C102.204 85.0946 104.813 84.6909 106.664 83.9742C108.515 83.2576 118.299 77.3079 118.299 77.3079L117.719 75.5362L103.966 80.035L92.8318 83.6769L81.698 87.3188L70.5643 90.9607L59.4306 94.6026L48.2968 98.2444L37.1631 101.886L26.0287 105.526Z" fill="black"/>
<path opacity="0.3" d="M26.0287 105.526L117.718 75.5343L120.383 83.681L28.6935 113.673L26.0287 105.526Z" fill="#4D585E"/>
<path opacity="0.2" d="M29.937 117.475L5.68738 43.34L97.3771 13.3481L121.627 87.4828L29.937 117.475Z" stroke="black" stroke-width="2"/>
<path opacity="0.6" d="M124 100H108.211V110H124V100Z" fill="url(#paint14_radial)"/>
<path opacity="0.6" d="M3.99987 110H19.7894V100H3.99987V110Z" fill="url(#paint15_radial)"/>
<path opacity="0.6" d="M108.211 100H19.7894V110H108.211V100Z" fill="url(#paint16_linear)"/>
<path opacity="0.35" d="M118 103.994L118 18C118 18 46 18 10 18C10 46.6666 10 104 10 104L118 103.994Z" stroke="black" stroke-width="2" stroke-linejoin="round"/>
<path d="M118 103.994L118 18C118 18 46 18 10 18C10 46.6666 10 104 10 104L118 103.994Z" fill="url(#paint17_linear)"/>
<path opacity="0.4" d="M118 103.994L118 18C118 18 46 18 10 18C10 46.6666 10 104 10 104L118 103.994Z" stroke="white" stroke-width="2" stroke-linejoin="round"/>
<path opacity="0.4" d="M10 18V20H118V18H10Z" fill="white"/>
<path d="M14 100V22H114V100H14Z" fill="url(#paint18_linear)"/>
<path opacity="0.1" d="M41.1285 59.2107C33.2725 59.2107 26.8428 65.6405 26.8428 73.4964C26.8428 81.3523 33.2725 87.7821 41.1285 87.7821C48.9844 87.7821 55.4142 81.3523 55.4142 73.4964C55.4142 65.6405 48.9844 59.2107 41.1285 59.2107ZM41.1285 64.925C45.8962 64.925 49.6999 68.7287 49.6999 73.4964C49.6999 78.2641 45.8962 82.0678 41.1285 82.0678C36.3608 82.0678 32.5571 78.2641 32.5571 73.4964C32.5571 68.7287 36.3608 64.925 41.1285 64.925Z" fill="#FED8CD"/>
<path opacity="0.1" d="M41.1285 56.3535C31.7284 56.3535 23.9856 64.0963 23.9856 73.4964C23.9856 82.8965 31.7284 90.6393 41.1285 90.6393C50.5285 90.6393 58.2713 82.8965 58.2713 73.4964C58.2713 64.0963 50.5285 56.3535 41.1285 56.3535ZM41.1285 67.7821C44.3521 67.7821 46.8427 70.2728 46.8427 73.4964C46.8427 76.72 44.3521 79.2107 41.1285 79.2107C37.9049 79.2107 35.4142 76.72 35.4142 73.4964C35.4142 70.2728 37.9049 67.7821 41.1285 67.7821Z" fill="#FED8CD"/>
<path opacity="0.1" d="M41.1285 53.4964C30.1843 53.4964 21.1285 62.5522 21.1285 73.4964C21.1285 84.4406 30.1843 93.4964 41.1285 93.4964C52.0726 93.4964 61.1285 84.4406 61.1285 73.4964C61.1285 62.5522 52.0726 53.4964 41.1285 53.4964ZM41.1285 70.6393C42.808 70.6393 43.9856 71.8169 43.9856 73.4964C43.9856 75.1759 42.808 76.3535 41.1285 76.3535C39.449 76.3535 38.2713 75.1759 38.2713 73.4964C38.2713 71.8169 39.449 70.6393 41.1285 70.6393Z" fill="#FED8CD"/>
<path fill-rule="evenodd" clip-rule="evenodd" d="M41.1285 62.0679C47.4403 62.0679 52.557 67.1846 52.557 73.4965C52.557 79.8083 47.4403 84.9251 41.1285 84.9251C34.8166 84.9251 29.6999 79.8083 29.6999 73.4965C29.6999 67.1846 34.8166 62.0679 41.1285 62.0679Z" fill="url(#paint19_linear)"/>
<path d="M14 87.4286V84.5715C14 84.5715 21.2113 79.8098 23.2387 79.3943C25.2661 78.9789 27.6603 79.3172 30.121 79.7815C32.5817 80.2443 36.2553 80.8703 37.4018 80.9095C38.5484 80.9495 40.6232 80.8095 43.0339 80.6638C45.4445 80.5209 49.4361 80.3895 50.6811 80.4038C51.9261 80.4038 55.0342 80.5752 58.3473 80.7775C61.6604 80.9803 66.2109 81.3192 67.2434 81.414C68.2759 81.5083 69.4895 81.6826 70.8668 81.8726C72.244 82.0612 74.6284 82.346 75.4719 82.4243C76.3154 82.5015 78.271 82.7703 80.5399 82.9792C82.8089 83.1878 86.4399 83.2592 87.4885 83.182C88.5371 83.1049 90.735 82.3283 93.1844 81.6126C95.6338 80.8972 98.3346 80.242 100.389 80.404C102.443 80.5669 114 84.5712 114 84.5712V87.4283H99H86.8571H74.7143H62.5714H50.4286H38.2857H26.1429L14 87.4286Z" fill="black"/>
<path opacity="0.9" d="M14 87.4286V89.2929C14 89.2929 21.2113 92.3995 23.2387 92.6706C25.2661 92.9421 27.6603 92.722 30.121 92.4192C32.5817 92.1172 36.2553 91.7086 37.4018 91.6832C38.5484 91.6546 40.6232 91.7489 43.0339 91.8432C45.4445 91.9375 49.4361 92.0232 50.6811 92.0118C51.9261 92.0118 55.0342 91.9003 58.3473 91.7689C61.6604 91.6375 66.2109 91.4155 67.2434 91.3538C68.2759 91.2909 69.4895 91.1795 70.8668 91.0543C72.244 90.9315 74.6284 90.7458 75.4719 90.6946C76.3154 90.6432 78.271 90.4689 80.5399 90.3323C82.8089 90.1952 86.4399 90.1495 87.4885 90.2009C88.5371 90.2523 90.735 90.7581 93.1844 91.2249C95.6338 91.6918 98.3346 92.1192 100.389 92.0135C102.443 91.9078 114 89.2946 114 89.2946V87.4306H99H86.8571H74.7143H62.5714H50.4286H38.2857H26.1429L14 87.4286Z" fill="black"/>
<path opacity="0.3" d="M14 87.4286H114V96H14V87.4286Z" fill="#4D585E"/>
<path opacity="0.2" d="M14 100V22H114V100H14Z" stroke="black" stroke-width="2"/>
<path opacity="0.3" d="M19.7639 98.3584H7.26936C7.24591 102.511 10.0687 108.398 13.5174 108.398C16.9661 108.398 19.7639 103.764 19.7639 98.3584Z" fill="url(#paint20_radial)"/>
<path opacity="0.8" fill-rule="evenodd" clip-rule="evenodd" d="M8.75 43.2469L78.75 113.247H8.75V43.2469ZM22.75 75.9135V99.2469H46.0833L22.75 75.9135Z" fill="url(#paint21_linear)"/>
<path opacity="0.8" d="M12.25 51.9986L70 109.749H12.25V51.9986Z" stroke="url(#paint22_linear)"/>
<path opacity="0.3" d="M12.25 81.7469H8.75" stroke="#83899A" stroke-linecap="square"/>
<path opacity="0.3" d="M12.25 92.2469H8.75" stroke="#83899A" stroke-linecap="square"/>
<path opacity="0.3" d="M12.25 102.747H8.75" stroke="#83899A" stroke-linecap="square"/>
<path opacity="0.3" d="M40.25 113.249V109.747" stroke="#83899A" stroke-linecap="square"/>
<path opacity="0.3" d="M19.5192 113.249V109.747" stroke="#83899A" stroke-linecap="square"/>
<path opacity="0.3" d="M50.75 113.249V109.747" stroke="#83899A" stroke-linecap="square"/>
<path opacity="0.3" d="M30.0192 113.249V109.747" stroke="#83899A" stroke-linecap="square"/>
<path opacity="0.3" d="M61.25 113.249V109.747" stroke="#83899A" stroke-linecap="square"/>
<path opacity="0.3" d="M8.75 43.2469L78.75 113.247H8.75V43.2469ZM22.75 75.9135V99.2469H46.0833L22.75 75.9135Z" stroke="black"/>
<path opacity="0.3" d="M12.25 60.7469H8.75" stroke="#83899A" stroke-linecap="square"/>
<path opacity="0.3" d="M12.25 71.2469H8.75" stroke="#83899A" stroke-linecap="square"/>
<path opacity="0.3" d="M19.25 71.2486V101.099V71.2486Z" stroke="white"/>
<path opacity="0.15" fill-rule="evenodd" clip-rule="evenodd" d="M103.244 80.2912C103.243 80.1526 103.183 80.0402 103.124 79.9471L87.6561 55.1792L84.8088 50.5999L84.7609 50.477L72.7247 45.0026L72.2453 58.3369L72.3178 58.4354L75.1649 63.0392L90.1272 86.8231L95.201 86.7099C96.0224 86.2952 96.9134 85.8044 97.8206 85.2319C100.406 83.6004 102.45 81.8636 103.094 80.7805C103.201 80.6 103.245 80.4298 103.244 80.2912L103.244 80.2912Z" fill="#0C0C0C"/>
<path d="M88.5333 52.3652C89.2234 53.3027 87.8996 55.9115 85.5027 58.3009C83.1114 60.6845 80.5614 61.9319 79.6289 61.2415C79.6254 61.2389 79.5764 61.3 79.5729 61.2973L112.83 95.0141C113.675 95.8702 116.37 94.5669 118.843 92.1016C121.316 89.6364 122.635 86.9381 121.791 86.082L88.5333 52.3652V52.3652Z" fill="url(#paint23_linear)"/>
<path opacity="0.6" d="M88.5332 52.3652C89.2234 53.3028 87.8996 55.9115 85.5026 58.3009C83.1114 60.6846 80.5614 61.9319 79.6289 61.2415C79.6254 61.239 79.5764 61.3 79.5729 61.2973L102.476 84.517L102.559 84.601C102.562 84.6034 102.611 84.5425 102.615 84.5452C103.547 85.2356 106.097 83.9882 108.489 81.6045C110.886 79.2151 112.209 76.6064 111.519 75.6689L111.436 75.5849L88.5332 52.3653L88.5332 52.3653L88.5332 52.3652Z" fill="#F9C440"/>
<path d="M88.5333 52.3652C89.2234 53.3027 87.8996 55.9115 85.5027 58.3009C83.1114 60.6845 80.5614 61.9319 79.6289 61.2415C79.6254 61.2389 79.5764 61.3 79.5729 61.2973L112.83 95.0141C113.675 95.8702 116.37 94.5669 118.843 92.1016C121.316 89.6364 122.635 86.9381 121.791 86.082L88.5333 52.3652V52.3652Z" stroke="#AD5F00" stroke-width="0.5" stroke-linejoin="round"/>
<path d="M122.044 86.744C122.032 86.4676 121.95 86.2424 121.791 86.0818L111.52 75.6699C112.208 76.6083 110.885 79.2157 108.489 81.6042C106.098 83.9879 103.547 85.2358 102.615 84.5453C102.611 84.5426 102.563 84.604 102.559 84.6017L112.831 95.0137C113.675 95.8697 116.369 94.5663 118.843 92.1011C120.852 90.098 122.1 87.9416 122.044 86.744Z" fill="url(#paint24_linear)" stroke="#555761" stroke-width="0.5" stroke-linejoin="round"/>
<path opacity="0.9" d="M117.732 81.9672C118.422 82.9047 117.098 85.5134 114.701 87.9028C112.31 90.2865 109.76 91.5339 108.827 90.8435C108.824 90.8411 108.775 90.9019 108.771 90.8993L112.83 95.0141L112.913 95.0981C112.916 95.1005 112.965 95.0396 112.969 95.0423C113.901 95.7327 116.452 94.4854 118.843 92.1017C121.24 89.7123 122.563 87.1035 121.873 86.166L121.791 86.082L117.732 81.9672L117.732 81.9672Z" fill="#FE9AB8" stroke="#DE3E80" stroke-width="0.5" stroke-linejoin="round"/>
<path d="M113.182 77.3549C113.872 78.2924 112.549 80.9012 110.152 83.2906C107.76 85.6742 105.21 86.9216 104.278 86.2312C104.274 86.2288 104.225 86.2897 104.222 86.287L104.636 86.7069C104.64 86.7092 104.689 86.6484 104.692 86.6511C105.625 87.3415 108.175 86.0941 110.566 83.7104C112.963 81.321 114.287 78.7123 113.596 77.7748L113.182 77.3549L113.182 77.3549L113.182 77.3549Z" fill="url(#paint25_linear)"/>
<path d="M112.803 76.9701C113.493 77.9076 112.169 80.5163 109.772 82.9057C107.381 85.2894 104.831 86.5368 103.898 85.8463C103.895 85.844 103.846 85.9048 103.842 85.9021L104.257 86.322C104.26 86.3244 104.309 86.2635 104.313 86.2662C105.245 86.9566 107.795 85.7093 110.186 83.3256C112.583 80.9362 113.907 78.3275 113.217 77.3899L112.803 76.9701L112.803 76.9701L112.803 76.9701Z" fill="url(#paint26_linear)"/>
<path d="M114.501 78.6921C115.191 79.6296 113.868 82.2383 111.471 84.6277C109.079 87.0114 106.529 88.2588 105.597 87.5684C105.593 87.566 105.544 87.6268 105.541 87.6241L105.955 88.044C105.959 88.0464 106.008 87.9855 106.011 87.9882C106.944 88.6787 109.494 87.4313 111.885 85.0476C114.282 82.6582 115.606 80.0495 114.915 79.112L114.501 78.6921L114.501 78.6921Z" fill="url(#paint27_linear)"/>
<path d="M114.122 78.3073C114.812 79.2448 113.488 81.8535 111.091 84.2429C108.7 86.6266 106.15 87.874 105.217 87.1835C105.214 87.1812 105.165 87.242 105.161 87.2393L105.576 87.6592C105.579 87.6616 105.628 87.6007 105.632 87.6034C106.564 88.2939 109.114 87.0465 111.505 84.6628C113.902 82.2734 115.226 79.6647 114.536 78.7272L114.122 78.3073L114.122 78.3073Z" fill="url(#paint28_linear)"/>
<path d="M115.827 80.0356C116.517 80.9731 115.193 83.5819 112.796 85.9713C110.405 88.355 107.855 89.6023 106.922 88.9119C106.919 88.9095 106.87 88.9704 106.866 88.9677L107.28 89.3876C107.284 89.3899 107.333 89.3291 107.336 89.3318C108.269 90.0222 110.819 88.7748 113.21 86.3912C115.607 84.0017 116.931 81.393 116.241 80.4555L115.827 80.0356V80.0356Z" fill="url(#paint29_linear)"/>
<path d="M115.447 79.6509C116.137 80.5884 114.813 83.1971 112.416 85.5865C110.025 87.9702 107.475 89.2176 106.543 88.5271C106.539 88.5248 106.49 88.5856 106.487 88.5829L106.901 89.0028C106.904 89.0052 106.953 88.9443 106.957 88.947C107.889 89.6375 110.439 88.3901 112.831 86.0064C115.228 83.617 116.551 81.0083 115.861 80.0708L115.447 79.6509L115.447 79.6509Z" fill="url(#paint30_linear)"/>
<path fill-rule="evenodd" clip-rule="evenodd" d="M73.422 45.8454L79.5026 61.1242L79.6308 61.2549C80.5634 61.9453 83.1137 60.6815 85.5049 58.2978C87.9019 55.9084 89.2184 53.3027 88.5283 52.3652L73.422 45.8454L73.422 45.8454V45.8454Z" fill="url(#paint31_linear)" stroke="url(#paint32_linear)" stroke-width="0.5"/>
<path fill-rule="evenodd" clip-rule="evenodd" d="M77.5134 47.6114L73.4383 45.8445L75.1053 50.0119C75.5045 49.6815 75.9097 49.3767 76.3082 48.9794C76.7671 48.522 77.1399 48.0716 77.5134 47.6114V47.6114Z" fill="#333333" stroke="#1A1A1A" stroke-width="0.5"/>
<path opacity="0.15" d="M69 118.5V111.5C71.1716 111.486 74.25 113.068 74.25 115C74.25 116.932 71.8266 118.5 69 118.5Z" fill="url(#paint33_radial)"/>
<path opacity="0.15" d="M10.25 118.5V111.5C8.07836 111.486 5 113.068 5 115C5 116.932 7.4234 118.5 10.25 118.5Z" fill="url(#paint34_radial)"/>
<path opacity="0.15" d="M69.25 118L9.75 118L9.75 111L69.25 111V118Z" fill="url(#paint35_linear)"/>
</g>
<defs>
<linearGradient id="paint0_linear" x1="66.1412" y1="123.919" x2="59.5498" y2="-3.9111" gradientUnits="userSpaceOnUse">
<stop stop-color="#EDEDED"/>
<stop offset="1" stop-color="white"/>
</linearGradient>
<linearGradient id="paint1_linear" x1="47.8836" y1="93.4945" x2="43.3242" y2="5.07148" gradientUnits="userSpaceOnUse">
<stop stop-color="#8C166C"/>
<stop offset="0.362069" stop-color="#CA3561"/>
<stop offset="1" stop-color="#F38F4E"/>
</linearGradient>
<linearGradient id="paint2_linear" x1="41.2364" y1="85.0751" x2="40.0594" y2="62.2483" gradientUnits="userSpaceOnUse">
<stop stop-color="#E28192"/>
<stop offset="0.258621" stop-color="#F7D6C7"/>
<stop offset="1" stop-color="#FFFEE4"/>
</linearGradient>
<linearGradient id="paint3_linear" x1="69.4296" y1="123.664" x2="56.2615" y2="-3.65644" gradientUnits="userSpaceOnUse">
<stop stop-color="#EDEDED"/>
<stop offset="1" stop-color="white"/>
</linearGradient>
<linearGradient id="paint4_linear" x1="49.6288" y1="94.2209" x2="40.5201" y2="6.15012" gradientUnits="userSpaceOnUse">
<stop stop-color="#8C166C"/>
<stop offset="0.362069" stop-color="#CA3561"/>
<stop offset="1" stop-color="#F38F4E"/>
</linearGradient>
<linearGradient id="paint5_linear" x1="42.5567" y1="86.155" x2="40.2052" y2="63.4192" gradientUnits="userSpaceOnUse">
<stop stop-color="#E28192"/>
<stop offset="0.258621" stop-color="#F7D6C7"/>
<stop offset="1" stop-color="#FFFEE4"/>
</linearGradient>
<linearGradient id="paint6_linear" x1="72.659" y1="126.114" x2="52.7564" y2="-0.328958" gradientUnits="userSpaceOnUse">
<stop stop-color="#EDEDED"/>
<stop offset="1" stop-color="white"/>
</linearGradient>
<linearGradient id="paint7_linear" x1="51.5896" y1="97.7207" x2="37.8224" y2="10.257" gradientUnits="userSpaceOnUse">
<stop stop-color="#8C166C"/>
<stop offset="0.362069" stop-color="#CA3561"/>
<stop offset="1" stop-color="#F38F4E"/>
</linearGradient>
<linearGradient id="paint8_linear" x1="44.1983" y1="90.0257" x2="40.6442" y2="67.4466" gradientUnits="userSpaceOnUse">
<stop stop-color="#E28192"/>
<stop offset="0.258621" stop-color="#F7D6C7"/>
<stop offset="1" stop-color="#FFFEE4"/>
</linearGradient>
<linearGradient id="paint9_linear" x1="77.7811" y1="125.998" x2="48.0941" y2="1.48872" gradientUnits="userSpaceOnUse">
<stop stop-color="#EDEDED"/>
<stop offset="1" stop-color="white"/>
</linearGradient>
<linearGradient id="paint10_linear" x1="54.6409" y1="99.3134" x2="34.1057" y2="13.1872" gradientUnits="userSpaceOnUse">
<stop stop-color="#8C166C"/>
<stop offset="0.362069" stop-color="#CA3561"/>
<stop offset="1" stop-color="#F38F4E"/>
</linearGradient>
<linearGradient id="paint11_linear" x1="46.7013" y1="92.2106" x2="41.4" y2="69.9767" gradientUnits="userSpaceOnUse">
<stop stop-color="#E28192"/>
<stop offset="0.258621" stop-color="#F7D6C7"/>
<stop offset="1" stop-color="#FFFEE4"/>
</linearGradient>
<linearGradient id="paint12_linear" x1="83.5543" y1="126.24" x2="43.7599" y2="4.58292" gradientUnits="userSpaceOnUse">
<stop stop-color="#EDEDED"/>
<stop offset="1" stop-color="white"/>
</linearGradient>
<linearGradient id="paint13_linear" x1="50.1244" y1="95.0104" x2="43.0183" y2="73.286" gradientUnits="userSpaceOnUse">
<stop stop-color="#E28192"/>
<stop offset="0.258621" stop-color="#F7D6C7"/>
<stop offset="1" stop-color="#FFFEE4"/>
</linearGradient>
<radialGradient id="paint14_radial" cx="0" cy="0" r="1" gradientUnits="userSpaceOnUse" gradientTransform="translate(108.188 105) scale(15.8194 5)">
<stop stop-color="#181818"/>
<stop offset="1" stop-color="#181818" stop-opacity="0"/>
</radialGradient>
<radialGradient id="paint15_radial" cx="0" cy="0" r="1" gradientUnits="userSpaceOnUse" gradientTransform="translate(19.8115 105) rotate(180) scale(15.8194 5)">
<stop stop-color="#181818"/>
<stop offset="1" stop-color="#181818" stop-opacity="0"/>
</radialGradient>
<linearGradient id="paint16_linear" x1="67.3413" y1="110.04" x2="67.3413" y2="99.9992" gradientUnits="userSpaceOnUse">
<stop stop-color="#181818" stop-opacity="0"/>
<stop offset="0.5" stop-color="#181818"/>
<stop offset="1" stop-color="#181818" stop-opacity="0"/>
</linearGradient>
<linearGradient id="paint17_linear" x1="64" y1="125" x2="64" y2="-3" gradientUnits="userSpaceOnUse">
<stop stop-color="#EDEDED"/>
<stop offset="1" stop-color="white"/>
</linearGradient>
<linearGradient id="paint18_linear" x1="47.3333" y1="93.6757" x2="47.3333" y2="5.13513" gradientUnits="userSpaceOnUse">
<stop stop-color="#16538C"/>
<stop offset="0.362069" stop-color="#3594CA"/>
<stop offset="1" stop-color="#4EDFF3"/>
</linearGradient>
<linearGradient id="paint19_linear" x1="41.1285" y1="84.9251" x2="41.1285" y2="62.0679" gradientUnits="userSpaceOnUse">
<stop stop-color="#E28192"/>
<stop offset="0.258621" stop-color="#F7D6C7"/>
<stop offset="1" stop-color="#FFFEE4"/>
</linearGradient>
<radialGradient id="paint20_radial" cx="0" cy="0" r="1" gradientUnits="userSpaceOnUse" gradientTransform="translate(13.5902 98.6047) rotate(90) scale(9.44638 6.02709)">
<stop/>
<stop offset="1" stop-opacity="0"/>
</radialGradient>
<linearGradient id="paint21_linear" x1="74.258" y1="100.572" x2="6.99562" y2="82.7843" gradientUnits="userSpaceOnUse">
<stop stop-color="#FCFCFC"/>
<stop offset="1" stop-color="#CBCDD9"/>
</linearGradient>
<linearGradient id="paint22_linear" x1="70" y1="90.4986" x2="10.5" y2="90.4986" gradientUnits="userSpaceOnUse">
<stop stop-color="white"/>
<stop offset="1" stop-color="white" stop-opacity="0"/>
</linearGradient>
<linearGradient id="paint23_linear" x1="105.459" y1="69.5445" x2="96.4475" y2="78.4327" gradientUnits="userSpaceOnUse">
<stop stop-color="#AD5F00"/>
<stop offset="0.134829" stop-color="#FFE16B"/>
<stop offset="0.202244" stop-color="#F9C440"/>
<stop offset="0.269659" stop-color="#FFF394"/>
<stop offset="0.446503" stop-color="#F9C440"/>
<stop offset="0.571141" stop-color="#F9C440"/>
<stop offset="0.720381" stop-color="#FFE16B"/>
<stop offset="1" stop-color="#AD5F00"/>
</linearGradient>
<linearGradient id="paint24_linear" x1="105.459" y1="69.5445" x2="96.4475" y2="78.4328" gradientUnits="userSpaceOnUse">
<stop stop-color="#555761"/>
<stop offset="0.134829" stop-color="#D4D4D4"/>
<stop offset="0.202244" stop-color="#ABACAE"/>
<stop offset="0.269659" stop-color="#FAFAFA"/>
<stop offset="0.446503" stop-color="#ABACAE"/>
<stop offset="0.571141" stop-color="#ABACAE"/>
<stop offset="0.720381" stop-color="#D4D4D4"/>
<stop offset="1" stop-color="#555761"/>
</linearGradient>
<linearGradient id="paint25_linear" x1="114.218" y1="78.2549" x2="105.192" y2="87.1582" gradientUnits="userSpaceOnUse">
<stop stop-color="#555761"/>
<stop offset="0.5" stop-color="#ABACAE"/>
<stop offset="1" stop-color="#555761"/>
</linearGradient>
<linearGradient id="paint26_linear" x1="113.839" y1="77.8701" x2="104.812" y2="86.7733" gradientUnits="userSpaceOnUse">
<stop stop-color="#ABACAE"/>
<stop offset="0.5" stop-color="#FAFAFA"/>
<stop offset="1" stop-color="#ABACAE"/>
</linearGradient>
<linearGradient id="paint27_linear" x1="115.537" y1="79.5921" x2="106.511" y2="88.4954" gradientUnits="userSpaceOnUse">
<stop stop-color="#555761"/>
<stop offset="0.5" stop-color="#ABACAE"/>
<stop offset="1" stop-color="#555761"/>
</linearGradient>
<linearGradient id="paint28_linear" x1="115.158" y1="79.2073" x2="106.131" y2="88.1105" gradientUnits="userSpaceOnUse">
<stop stop-color="#ABACAE"/>
<stop offset="0.5" stop-color="#FAFAFA"/>
<stop offset="1" stop-color="#ABACAE"/>
</linearGradient>
<linearGradient id="paint29_linear" x1="116.862" y1="80.9356" x2="107.836" y2="89.8389" gradientUnits="userSpaceOnUse">
<stop stop-color="#555761"/>
<stop offset="0.5" stop-color="#ABACAE"/>
<stop offset="1" stop-color="#555761"/>
</linearGradient>
<linearGradient id="paint30_linear" x1="116.483" y1="80.5509" x2="107.457" y2="89.4541" gradientUnits="userSpaceOnUse">
<stop stop-color="#ABACAE"/>
<stop offset="0.5" stop-color="#FAFAFA"/>
<stop offset="1" stop-color="#ABACAE"/>
</linearGradient>
<linearGradient id="paint31_linear" x1="78.5443" y1="56.7432" x2="83.9974" y2="51.3644" gradientUnits="userSpaceOnUse">
<stop stop-color="#FFF394"/>
<stop offset="1" stop-color="#FAFAFA"/>
</linearGradient>
<linearGradient id="paint32_linear" x1="82.0491" y1="49.4081" x2="77.0999" y2="54.2388" gradientUnits="userSpaceOnUse">
<stop stop-color="#D48E15"/>
<stop offset="1" stop-color="#AD5F00"/>
</linearGradient>
<radialGradient id="paint33_radial" cx="0" cy="0" r="1" gradientUnits="userSpaceOnUse" gradientTransform="translate(69.1288 115.041) scale(4.93992 3.37647)">
<stop/>
<stop offset="1" stop-opacity="0"/>
</radialGradient>
<radialGradient id="paint34_radial" cx="0" cy="0" r="1" gradientUnits="userSpaceOnUse" gradientTransform="translate(10.1212 115.041) rotate(180) scale(4.93992 3.37647)">
<stop/>
<stop offset="1" stop-opacity="0"/>
</radialGradient>
<linearGradient id="paint35_linear" x1="32.2826" y1="118" x2="32.2826" y2="111" gradientUnits="userSpaceOnUse">
<stop stop-opacity="0"/>
<stop offset="0.5"/>
<stop offset="1" stop-opacity="0"/>
</linearGradient>
<clipPath id="clip0">
<rect width="128" height="128" fill="white"/>
</clipPath>
</defs>
</svg>
