<svg width="128" height="128" viewBox="0 0 128 128" fill="none" xmlns="http://www.w3.org/2000/svg">
<g clip-path="url(#clip0)">
<path opacity="0.35" d="M118.988 100.16L114.56 14.2803C114.56 14.2803 42.6551 17.9879 6.70285 19.8418C8.17905 48.4704 11.1315 105.728 11.1315 105.728L118.988 100.16Z" stroke="black" stroke-width="2" stroke-linejoin="round"/>
<path d="M118.988 100.16L114.56 14.2803C114.56 14.2803 42.6551 17.9879 6.70285 19.8418C8.17905 48.4704 11.1315 105.728 11.1315 105.728L118.988 100.16Z" fill="url(#paint0_linear)"/>
<path opacity="0.4" d="M118.988 100.16L114.56 14.2803C114.56 14.2803 42.6551 17.9879 6.70285 19.8418C8.17905 48.4704 11.1315 105.728 11.1315 105.728L118.988 100.16Z" stroke="white" stroke-width="2" stroke-linejoin="round"/>
<path opacity="0.4" d="M6.70285 19.8418L6.80584 21.8391L114.663 16.2776L114.56 14.2803L6.70285 19.8418Z" fill="white"/>
<path d="M14.9202 101.527L10.9035 23.6305L110.771 18.4809L114.787 96.3775L14.9202 101.527Z" fill="url(#paint1_linear)"/>
<path opacity="0.1" d="M39.9122 59.3948C32.0667 59.7994 25.9766 66.5517 26.3811 74.3972C26.7857 82.2428 33.538 88.3329 41.3835 87.9284C49.229 87.5238 55.3192 80.7715 54.9146 72.9259C54.5101 65.0804 47.7577 58.9903 39.9122 59.3948ZM40.2065 65.1015C44.9679 64.856 48.9624 68.4588 49.2079 73.2202C49.4534 77.9816 45.8506 81.9761 41.0893 82.2217C36.3279 82.4672 32.3333 78.8644 32.0878 74.103C31.8423 69.3416 35.4451 65.3471 40.2065 65.1015Z" fill="#FED8CD"/>
<path opacity="0.1" d="M39.7651 56.5415C30.3775 57.0255 23.0437 65.1568 23.5278 74.5444C24.0118 83.9319 32.1431 91.2658 41.5306 90.7817C50.9182 90.2976 58.252 82.1664 57.768 72.7788C57.2839 63.3912 49.1527 56.0574 39.7651 56.5415ZM40.3536 67.9549C43.5729 67.7889 46.1886 70.148 46.3546 73.3673C46.5206 76.5866 44.1614 79.2023 40.9421 79.3683C37.7228 79.5343 35.1072 77.1752 34.9412 73.9558C34.7752 70.7365 37.1343 68.1209 40.3536 67.9549Z" fill="#FED8CD"/>
<path opacity="0.1" d="M39.6179 53.6881C28.6883 54.2517 20.1108 63.7618 20.6744 74.6915C21.238 85.6211 30.7481 94.1986 41.6778 93.6351C52.6074 93.0715 61.1849 83.5613 60.6213 72.6317C60.0577 61.702 50.5476 53.1246 39.6179 53.6881ZM40.5007 70.8082C42.178 70.7218 43.4147 71.8372 43.5012 73.5145C43.5877 75.1917 42.4722 76.4285 40.795 76.5149C39.1177 76.6014 37.881 75.486 37.7945 73.8087C37.708 72.1315 38.8235 70.8947 40.5007 70.8082Z" fill="#FED8CD"/>
<path fill-rule="evenodd" clip-rule="evenodd" d="M40.0593 62.2482C46.3628 61.9232 51.7362 66.7697 52.0613 73.0731C52.3863 79.3766 47.5398 84.75 41.2364 85.0751C34.9329 85.4001 29.5595 80.5536 29.2345 74.2502C28.9094 67.9467 33.7559 62.5733 40.0593 62.2482Z" fill="url(#paint2_linear)"/>
<path d="M14.2728 88.9723L14.1257 86.119C14.1257 86.119 21.0822 80.9922 23.0855 80.4729C25.0888 79.9536 27.4973 80.1682 29.9786 80.5051C32.4599 80.8407 36.1609 81.2767 37.3079 81.2567C38.455 81.2376 40.5198 80.991 42.9198 80.7213C45.3199 80.4545 49.2994 80.1177 50.5435 80.0679C51.7869 80.0037 54.8996 80.0149 58.2187 80.0463C61.5379 80.0783 66.0998 80.1824 67.1358 80.2239C68.1718 80.2649 69.3928 80.3765 70.778 80.4953C72.1632 80.6127 74.559 80.7744 75.4055 80.8091C76.2518 80.8427 78.2186 81.0105 80.4953 81.1023C82.772 81.1937 86.4019 81.0781 87.4451 80.947C88.4883 80.816 90.6434 79.9273 93.0527 79.0864C95.4619 78.2458 98.1254 77.4524 100.185 77.5084C102.245 77.5653 113.993 80.9691 113.993 80.9691L114.14 83.8225L99.16 84.5949L87.0333 85.2202L74.9065 85.8455L62.7798 86.4708L50.653 87.0961L38.5263 87.7214L26.3995 88.3467L14.2728 88.9723Z" fill="black"/>
<path opacity="0.9" d="M14.2728 88.9723L14.3688 90.8341C14.3688 90.8341 21.7305 93.5652 23.7691 93.7316C25.8079 93.8983 28.1876 93.5553 30.6294 93.1261C33.0713 92.6978 36.719 92.1006 37.8627 92.0161C39.0062 91.9286 41.0831 91.9159 43.4955 91.8859C45.9078 91.8559 49.8985 91.736 51.1413 91.6605C52.3846 91.5964 55.4828 91.325 58.7848 91.0232C62.0867 90.7213 66.6198 90.2653 67.6477 90.1505C68.6755 90.0345 69.8818 89.8607 71.2508 89.6648C72.6199 89.4712 74.9916 89.163 75.8313 89.0685C76.6711 88.9737 78.615 88.6989 80.874 88.4457C83.1329 88.1919 86.7567 87.9592 87.8066 87.9566C88.8564 87.954 91.0775 88.3458 93.5476 88.6859C96.0178 89.026 98.7371 89.3138 100.783 89.1025C102.829 88.8911 114.236 85.6863 114.236 85.6863L114.14 83.8247L99.1601 84.5972L87.0334 85.2225L74.9066 85.8478L62.7799 86.4731L50.6532 87.0984L38.5264 87.7237L26.3997 88.349L14.2728 88.9723Z" fill="black"/>
<path opacity="0.3" d="M14.2728 88.9723L114.14 83.8227L114.582 92.3828L14.7142 97.5323L14.2728 88.9723Z" fill="#4D585E"/>
<path opacity="0.2" d="M14.9202 101.527L10.9035 23.6305L110.771 18.4809L114.787 96.3775L14.9202 101.527Z" stroke="black" stroke-width="2"/>
<path opacity="0.35" d="M120.982 97.2146L112.135 11.6768C112.135 11.6768 40.5173 19.0839 4.70835 22.7874C7.65747 51.302 13.5557 108.331 13.5557 108.331L120.982 97.2146Z" stroke="black" stroke-width="2" stroke-linejoin="round"/>
<path d="M120.982 97.2146L112.135 11.6768C112.135 11.6768 40.5173 19.0839 4.70835 22.7874C7.65747 51.302 13.5557 108.331 13.5557 108.331L120.982 97.2146Z" fill="url(#paint3_linear)"/>
<path opacity="0.4" d="M120.982 97.2146L112.135 11.6768C112.135 11.6768 40.5173 19.0839 4.70835 22.7874C7.65747 51.302 13.5557 108.331 13.5557 108.331L120.982 97.2146Z" stroke="white" stroke-width="2" stroke-linejoin="round"/>
<path opacity="0.4" d="M4.70835 22.7874L4.91411 24.7768L112.341 13.6662L112.135 11.6768L4.70835 22.7874Z" fill="white"/>
<path d="M17.123 103.941L9.09864 26.3547L108.568 16.0671L116.592 93.6532L17.123 103.941Z" fill="url(#paint4_linear)"/>
<path opacity="0.1" d="M39.9113 60.5771C32.097 61.3853 26.3628 68.4424 27.171 76.2567C27.9792 84.0709 35.0363 89.8051 42.8506 88.9969C50.6649 88.1887 56.399 81.1316 55.5909 73.3174C54.7827 65.5031 47.7255 59.7689 39.9113 60.5771ZM40.4991 66.2611C45.2416 65.7706 49.4164 69.1628 49.9069 73.9052C50.3974 78.6476 47.0051 82.8225 42.2627 83.313C37.5203 83.8034 33.3455 80.4112 32.855 75.6688C32.3645 70.9264 35.7567 66.7515 40.4991 66.2611Z" fill="#FED8CD"/>
<path opacity="0.1" d="M39.6173 57.7351C30.2672 58.7021 23.362 67.2004 24.329 76.5506C25.2961 85.9008 33.7943 92.8059 43.1445 91.8389C52.4947 90.8719 59.3999 82.3736 58.4328 73.0234C57.4658 63.6732 48.9675 56.7681 39.6173 57.7351ZM40.7931 69.103C43.9996 68.7714 46.7333 70.9926 47.0649 74.1991C47.3965 77.4056 45.1753 80.1393 41.9688 80.471C38.7623 80.8026 36.0286 78.5814 35.697 75.3749C35.3653 72.1684 37.5866 69.4347 40.7931 69.103Z" fill="#FED8CD"/>
<path opacity="0.1" d="M39.3234 54.8931C28.4373 56.019 20.3612 65.9584 21.4871 76.8445C22.6129 87.7306 32.5524 95.8068 43.4385 94.6809C54.3246 93.555 62.4007 83.6156 61.2748 72.7295C60.1489 61.8434 50.2095 53.7672 39.3234 54.8931ZM41.087 71.945C42.7576 71.7723 44.0501 72.8225 44.2229 74.4931C44.3957 76.1637 43.3454 77.4562 41.6749 77.629C40.0043 77.8018 38.7117 76.7515 38.539 75.0809C38.3662 73.4104 39.4164 72.1178 41.087 71.945Z" fill="#FED8CD"/>
<path fill-rule="evenodd" clip-rule="evenodd" d="M40.2052 63.4191C46.4836 62.7698 52.0995 67.333 52.7489 73.6113C53.3982 79.8897 48.835 85.5057 42.5567 86.155C36.2783 86.8043 30.6624 82.2411 30.013 75.9628C29.3637 69.6845 33.9269 64.0685 40.2052 63.4191Z" fill="url(#paint5_linear)"/>
<path d="M15.8297 91.4362L15.5357 88.5942C15.5357 88.5942 22.2189 83.1159 24.1928 82.4941C26.1667 81.8723 28.5831 81.9625 31.0784 82.1711C33.5737 82.3784 37.2922 82.6231 38.4367 82.5441C39.5812 82.466 41.6306 82.1133 44.0135 81.7203C46.3967 81.3302 50.3536 80.7888 51.5935 80.675C52.8319 80.5469 55.9411 80.3977 59.2574 80.258C62.5738 80.119 67.135 79.9879 68.1718 79.976C69.2085 79.9636 70.4336 80.0121 71.8231 80.0594C73.2125 80.1053 75.6135 80.1434 76.4606 80.1344C77.3076 80.1244 79.2804 80.1907 81.5588 80.165C83.8372 80.139 87.4563 79.8365 88.4914 79.6519C89.5265 79.4673 91.6329 78.4687 93.9956 77.5048C96.3584 76.5412 98.9775 75.6117 101.038 75.5615C103.098 75.5122 115.005 78.3063 115.005 78.3063L115.299 81.1483L100.379 82.6914L88.3002 83.9406L76.2218 85.1898L64.1434 86.4391L52.0649 87.6883L39.9865 88.9375L27.9081 90.1867L15.8297 91.4362Z" fill="black"/>
<path opacity="0.9" d="M15.8297 91.4362L16.0215 93.2906C16.0215 93.2906 23.5141 95.6388 25.5586 95.6999C27.6032 95.7613 29.9621 95.2962 32.3786 94.7418C34.7951 94.1883 38.4072 93.4039 39.545 93.2607C40.6825 93.1143 42.756 92.9947 45.1636 92.8404C47.5712 92.6862 51.5504 92.3608 52.7877 92.2214C54.0261 92.0933 57.1062 91.6627 60.3882 91.1912C63.6702 90.7196 68.1737 90.0306 69.1943 89.863C70.2149 89.6943 71.4106 89.4586 72.7677 89.1924C74.125 88.9285 76.4776 88.4985 77.3114 88.3609C78.1451 88.2229 80.0724 87.8484 82.3153 87.4791C84.5581 87.1093 88.1651 86.6903 89.2135 86.6336C90.2618 86.5768 92.5001 86.8538 94.9845 87.0662C97.4689 87.2785 100.199 87.4259 102.232 87.1094C104.265 86.7928 115.491 83.0047 115.491 83.0047L115.299 81.1506L100.379 82.6937L88.3005 83.9429L76.222 85.1921L64.1436 86.4413L52.0652 87.6905L39.9867 88.9397L27.9083 90.1889L15.8297 91.4362Z" fill="black"/>
<path opacity="0.3" d="M15.8297 91.4361L115.299 81.1485L116.181 89.6745L16.7115 99.9621L15.8297 91.4361Z" fill="#4D585E"/>
<path opacity="0.2" d="M17.123 103.941L9.09864 26.3547L108.568 16.0671L116.592 93.6532L17.123 103.941Z" stroke="black" stroke-width="2"/>
<path opacity="0.35" d="M121.877 97.1025L108.506 12.1544C108.506 12.1544 38.5269 23.1694 3.53726 28.6769C7.99462 56.9949 16.9094 113.631 16.9094 113.631L121.877 97.1025Z" stroke="black" stroke-width="2" stroke-linejoin="round"/>
<path d="M121.877 97.1025L108.506 12.1544C108.506 12.1544 38.5269 23.1694 3.53726 28.6769C7.99462 56.9949 16.9094 113.631 16.9094 113.631L121.877 97.1025Z" fill="url(#paint6_linear)"/>
<path opacity="0.4" d="M121.877 97.1025L108.506 12.1544C108.506 12.1544 38.5269 23.1694 3.53726 28.6769C7.99462 56.9949 16.9094 113.631 16.9094 113.631L121.877 97.1025Z" stroke="white" stroke-width="2" stroke-linejoin="round"/>
<path opacity="0.4" d="M3.53726 28.6769L3.84824 30.6526L108.817 14.1301L108.506 12.1544L3.53726 28.6769Z" fill="white"/>
<path d="M20.1751 109.068L8.04696 32.0163L105.24 16.7177L117.369 93.769L20.1751 109.068Z" fill="url(#paint7_linear)"/>
<path opacity="0.1" d="M40.1999 64.6241C32.5645 65.826 27.3149 73.1612 28.5364 80.9216C29.7579 88.682 37.007 94.0499 44.6425 92.8481C52.2779 91.6462 57.5275 84.311 56.306 76.5506C55.0845 68.7902 47.8354 63.4223 40.1999 64.6241ZM41.0884 70.2689C45.7223 69.5395 50.0107 72.7151 50.7521 77.4248C51.4934 82.1345 48.3879 86.4739 43.754 87.2033C39.1201 87.9327 34.8317 84.7571 34.0903 80.0474C33.349 75.3377 36.4545 70.9983 41.0884 70.2689Z" fill="#FED8CD"/>
<path opacity="0.1" d="M39.7557 61.8017C30.6194 63.2398 24.2979 72.073 25.7595 81.3587C27.2211 90.6444 35.9505 97.1085 45.0867 95.6704C54.223 94.2324 60.5445 85.3992 59.0829 76.1135C57.6213 66.8277 48.8919 60.3637 39.7557 61.8017ZM41.5327 73.0913C44.6658 72.5981 47.4739 74.6775 47.9751 77.8619C48.4763 81.0463 46.4428 83.8877 43.3097 84.3809C40.1766 84.874 37.3685 82.7947 36.8673 79.6103C36.3661 76.4259 38.3996 73.5845 41.5327 73.0913Z" fill="#FED8CD"/>
<path opacity="0.1" d="M39.3114 58.9794C28.6744 60.6537 21.2808 70.9848 22.9825 81.7958C24.6842 92.6069 34.894 100.167 45.531 98.4929C56.168 96.8185 63.5616 86.4874 61.8599 75.6764C60.1582 64.8653 49.9484 57.3051 39.3114 58.9794ZM41.9769 75.9137C43.6093 75.6568 44.937 76.6399 45.1982 78.299C45.4593 79.9581 44.4978 81.3016 42.8655 81.5585C41.2331 81.8154 39.9054 80.8323 39.6442 79.1732C39.3831 77.5141 40.3446 76.1707 41.9769 75.9137Z" fill="#FED8CD"/>
<path fill-rule="evenodd" clip-rule="evenodd" d="M40.6442 67.4466C46.7789 66.481 52.5476 70.7527 53.529 76.9877C54.5105 83.2228 50.3329 89.0601 44.1982 90.0257C38.0636 90.9914 32.2948 86.7196 31.3134 80.4846C30.332 74.2495 34.5095 68.4122 40.6442 67.4466Z" fill="url(#paint8_linear)"/>
<path d="M18.2204 96.6491L17.7762 93.8267C17.7762 93.8267 24.0446 88.0197 25.9505 87.2992C27.8565 86.5786 30.2361 86.5465 32.6999 86.6287C35.1635 86.7095 38.8314 86.7659 39.9518 86.6291C41.0724 86.4932 43.0672 86.0375 45.3875 85.5248C47.7084 85.0149 51.5675 84.2744 52.7797 84.098C53.9898 83.9076 57.0373 83.6014 60.2889 83.2944C63.5405 82.9879 68.016 82.6265 69.0342 82.5622C70.0524 82.4974 71.2591 82.4839 72.6273 82.4609C73.9952 82.4365 76.3569 82.3531 77.1889 82.3014C78.0207 82.2485 79.9632 82.2149 82.201 82.0741C84.4387 81.9331 87.9789 81.4481 88.9861 81.2115C89.9932 80.9749 92.0088 79.8715 94.2781 78.7898C96.5475 77.7083 99.0706 76.6479 101.093 76.4937C103.115 76.3403 114.969 78.5279 114.969 78.5279L115.414 81.3502L100.835 83.645L89.0327 85.5027L77.2306 87.3604L65.4286 89.2181L53.6265 91.0758L41.8245 92.9335L30.0224 94.7912L18.2204 96.6491Z" fill="black"/>
<path opacity="0.9" d="M18.2204 96.6491L18.5103 98.4907C18.5103 98.4907 26.0022 100.456 28.0149 100.414C30.0276 100.372 32.3204 99.7883 34.6649 99.1127C37.0096 98.4379 40.5166 97.4723 41.627 97.2718C42.7369 97.0682 44.7681 96.8439 47.1258 96.5682C49.4835 96.2926 53.3764 95.7666 54.5847 95.5648C55.7947 95.3744 58.7982 94.7888 61.9979 94.1521C65.1976 93.5154 69.5859 92.6 70.5798 92.3811C71.5735 92.161 72.7357 91.8653 74.0549 91.5309C75.3744 91.1989 77.663 90.6506 78.4749 90.4711C79.2867 90.2912 81.1603 89.8199 83.3443 89.3379C85.5283 88.8553 89.0503 88.2546 90.0774 88.145C91.1046 88.0354 93.3195 88.1987 95.7727 88.2852C98.2259 88.3716 100.917 88.3807 102.898 87.9619C104.878 87.5432 115.704 83.1938 115.704 83.1938L115.414 81.3525L100.835 83.6473L89.0331 85.505L77.231 87.3627L65.4289 89.2204L53.6269 91.078L41.8248 92.9357L30.0228 94.7934L18.2204 96.6491Z" fill="black"/>
<path opacity="0.3" d="M18.2204 96.6491L115.414 81.3505L116.747 89.8177L19.5532 105.116L18.2204 96.6491Z" fill="#4D585E"/>
<path opacity="0.2" d="M20.1751 109.068L8.04696 32.0163L105.24 16.7177L117.369 93.769L20.1751 109.068Z" stroke="black" stroke-width="2"/>
<path opacity="0.35" d="M124.345 93.3014L104.4 9.65226C104.4 9.65226 35.8195 26.004 1.52917 34.1799C8.17782 62.0649 21.4752 117.835 21.4752 117.835L124.345 93.3014Z" stroke="black" stroke-width="2" stroke-linejoin="round"/>
<path d="M124.345 93.3014L104.4 9.65226C104.4 9.65226 35.8195 26.004 1.52917 34.1799C8.17782 62.0649 21.4752 117.835 21.4752 117.835L124.345 93.3014Z" fill="url(#paint9_linear)"/>
<path opacity="0.4" d="M124.345 93.3014L104.4 9.65226C104.4 9.65226 35.8195 26.004 1.52917 34.1799C8.17782 62.0649 21.4752 117.835 21.4752 117.835L124.345 93.3014Z" stroke="white" stroke-width="2" stroke-linejoin="round"/>
<path opacity="0.4" d="M1.52917 34.1799L1.99303 36.1254L104.864 11.5977L104.4 9.65226L1.52917 34.1799Z" fill="white"/>
<path d="M24.3575 113.036L6.26692 37.1624L101.518 14.4516L119.608 90.3248L24.3575 113.036Z" fill="url(#paint10_linear)"/>
<path opacity="0.1" d="M40.7373 67.1974C33.2545 68.9815 28.6213 76.6962 30.4433 84.338C32.2654 91.9797 39.881 96.7739 47.3639 94.9897C54.8467 93.2056 59.4799 85.4909 57.6579 77.8492C55.8358 70.2074 48.2202 65.4132 40.7373 67.1974ZM42.0626 72.7558C46.6039 71.6731 51.1092 74.5092 52.215 79.1469C53.3207 83.7846 50.5799 88.3485 46.0386 89.4313C41.4973 90.5141 36.992 87.6779 35.8862 83.0402C34.7805 78.4025 37.5213 73.8386 42.0626 72.7558Z" fill="#FED8CD"/>
<path opacity="0.1" d="M40.0747 64.4181C31.121 66.553 25.5417 75.8431 27.7219 84.9868C29.902 94.1306 39.0729 99.9038 48.0265 97.769C56.9802 95.6341 62.5595 86.344 60.3793 77.2003C58.1992 68.0565 49.0283 62.2833 40.0747 64.4181ZM42.7253 75.5351C45.7958 74.803 48.7459 76.6601 49.4935 79.7958C50.2412 82.9315 48.4464 85.9199 45.3759 86.652C42.3054 87.3841 39.3553 85.527 38.6077 82.3913C37.86 79.2556 39.6548 76.2672 42.7253 75.5351Z" fill="#FED8CD"/>
<path opacity="0.1" d="M39.412 61.6389C28.9876 64.1244 22.4622 74.99 25.0004 85.6357C27.5387 96.2815 38.2648 103.034 48.6892 100.548C59.1136 98.0627 65.6391 87.1971 63.1008 76.5514C60.5625 65.9056 49.8364 59.1534 39.412 61.6389ZM43.3879 78.3143C44.9877 77.9329 46.3825 78.811 46.7721 80.4447C47.1616 82.0784 46.313 83.4914 44.7133 83.8728C43.1135 84.2542 41.7187 83.3761 41.3292 81.7424C40.9396 80.1087 41.7882 78.6957 43.3879 78.3143Z" fill="#FED8CD"/>
<path fill-rule="evenodd" clip-rule="evenodd" d="M41.4 69.9767C47.4121 68.5432 53.4725 72.3584 54.9364 78.4981C56.4003 84.6378 52.7133 90.7771 46.7013 92.2106C40.6892 93.644 34.6287 89.8289 33.1648 83.6891C31.7009 77.5494 35.3879 71.4101 41.4 69.9767Z" fill="url(#paint11_linear)"/>
<path d="M21.4418 100.807L20.7791 98.0277C20.7791 98.0277 26.5435 91.7581 28.3783 90.8936C30.2131 90.029 32.5721 89.8143 35.0236 89.7071C37.4747 89.5985 41.1191 89.3731 42.2202 89.1508C43.3216 88.9294 45.2654 88.322 47.5278 87.6327C49.7909 86.9463 53.5624 85.9119 54.7516 85.6431C55.9374 85.3603 58.9377 84.8212 62.1403 84.2656C65.3431 83.7105 69.7562 83.0066 70.7616 82.8644C71.7669 82.7216 72.9633 82.6155 74.3193 82.4876C75.6748 82.3582 78.012 82.0938 78.8337 81.9784C79.655 81.8618 81.58 81.6793 83.7897 81.3671C85.9992 81.0547 89.4744 80.2995 90.4553 79.9864C91.4362 79.6732 93.3496 78.4186 95.5167 77.1661C97.6838 75.9139 100.104 74.6633 102.099 74.3543C104.093 74.0462 116.03 75.3166 116.03 75.3166L116.693 78.0959L102.405 81.5025L90.8388 84.2602L79.2726 87.018L67.7064 89.7757L56.1402 92.5335L44.5741 95.2912L33.0079 98.0489L21.4418 100.807Z" fill="black"/>
<path opacity="0.9" d="M21.4418 100.807L21.8742 102.62C21.8742 102.62 29.4635 104.005 31.4575 103.808C33.4516 103.611 35.6811 102.854 37.9546 102C40.2284 101.148 43.6328 99.9159 44.719 99.6308C45.8044 99.3426 47.8026 98.9631 50.1206 98.5073C52.4387 98.0516 56.2606 97.2284 57.4438 96.9346C58.6297 96.6518 61.5643 95.8376 64.6896 94.9573C67.8149 94.077 72.0978 92.8276 73.0669 92.5331C74.0358 92.2375 75.1659 91.8535 76.4488 91.4189C77.7321 90.9866 79.9602 90.2645 80.7518 90.0232C81.5433 89.7816 83.3655 89.1679 85.4951 88.5198C87.6245 87.8711 91.0724 87.002 92.0832 86.8139C93.0939 86.6257 95.3048 86.6185 97.7461 86.5163C100.187 86.4142 102.859 86.2166 104.791 85.6472C106.724 85.0778 117.125 79.9113 117.125 79.9113L116.693 78.0981L102.405 81.5047L90.8393 84.2625L79.2731 87.0202L67.7069 89.7779L56.1408 92.5357L44.5746 95.2934L33.0084 98.0512L21.4418 100.807Z" fill="black"/>
<path opacity="0.3" d="M21.4418 100.807L116.693 78.0961L118.681 86.4338L23.4297 109.145L21.4418 100.807Z" fill="#4D585E"/>
<path opacity="0.2" d="M24.3575 113.036L6.26692 37.1624L101.518 14.4516L119.608 90.3248L24.3575 113.036Z" stroke="black" stroke-width="2"/>
<path opacity="0.35" d="M126.536 90.0792L99.8011 8.34662C99.8011 8.34662 33.7845 29.9408 0.776253 40.7379C9.68851 67.984 27.5131 122.476 27.5131 122.476L126.536 90.0792Z" stroke="black" stroke-width="2" stroke-linejoin="round"/>
<path d="M126.536 90.0792L99.8011 8.34662C99.8011 8.34662 33.7845 29.9408 0.776253 40.7379C9.68851 67.984 27.5131 122.476 27.5131 122.476L126.536 90.0792Z" fill="url(#paint12_linear)"/>
<path opacity="0.4" d="M126.536 90.0792L99.8011 8.34662C99.8011 8.34662 33.7845 29.9408 0.776253 40.7379C9.68851 67.984 27.5131 122.476 27.5131 122.476L126.536 90.0792Z" stroke="white" stroke-width="2" stroke-linejoin="round"/>
<path opacity="0.4" d="M0.776253 40.7379L1.39804 42.6388L100.423 10.2475L99.8011 8.34662L0.776253 40.7379Z" fill="white"/>
<path d="M29.9371 117.475L5.68741 43.34L97.3771 13.3481L121.627 87.4828L29.9371 117.475Z" fill="url(#paint13_linear)"/>
<path opacity="0.1" d="M42.13 70.5704C34.9269 72.9265 31.0304 80.9661 33.4728 88.4327C35.9152 95.8994 43.8096 100.082 51.0127 97.726C58.2157 95.3698 62.1122 87.3302 59.6699 79.8636C57.2275 72.397 49.3331 68.2142 42.13 70.5704ZM43.9065 76.0015C48.278 74.5716 52.9482 77.046 54.4304 81.5774C55.9127 86.1089 53.6076 90.8649 49.2361 92.2948C44.8646 93.7248 40.1945 91.2504 38.7122 86.7189C37.23 82.1875 39.535 77.4314 43.9065 76.0015Z" fill="#FED8CD"/>
<path opacity="0.1" d="M41.2417 67.8548C32.6228 70.6741 27.9307 80.3554 30.8531 89.2896C33.7755 98.2239 43.282 103.261 51.9009 100.442C60.5198 97.6222 65.212 87.9409 62.2896 79.0067C59.3671 70.0724 49.8606 65.0356 41.2417 67.8548ZM44.7948 78.7171C47.7505 77.7502 50.8085 79.3705 51.8107 82.4343C52.8129 85.4982 51.3036 88.6125 48.3479 89.5793C45.3922 90.5461 42.3341 88.9258 41.3319 85.862C40.3297 82.7981 41.8391 79.6839 44.7948 78.7171Z" fill="#FED8CD"/>
<path opacity="0.1" d="M40.3535 65.1393C30.3188 68.4216 24.8309 79.7447 28.2334 90.1466C31.6359 100.548 42.7545 106.439 52.7892 103.157C62.8239 99.8747 68.3117 88.5516 64.9093 78.1498C61.5068 67.7479 50.3881 61.8569 40.3535 65.1393ZM45.6831 81.4326C47.223 80.9289 48.6689 81.695 49.191 83.2913C49.7132 84.8875 48.9995 86.36 47.4596 86.8637C45.9197 87.3674 44.4738 86.6013 43.9516 85.0051C43.4295 83.4088 44.1431 81.9363 45.6831 81.4326Z" fill="#FED8CD"/>
<path fill-rule="evenodd" clip-rule="evenodd" d="M43.0183 73.286C48.8056 71.393 55.0879 74.7215 57.0502 80.7206C59.0125 86.7196 55.9117 93.1174 50.1244 95.0104C44.3371 96.9035 38.0548 93.5749 36.0925 87.5759C34.1302 81.5768 37.231 75.179 43.0183 73.286Z" fill="url(#paint14_linear)"/>
<path d="M26.0287 105.526L25.1405 102.811C25.1405 102.811 30.2721 96.1222 32.0018 95.1193C33.7316 94.1164 36.0321 93.7199 38.4326 93.4231C40.8327 93.125 44.3956 92.6182 45.459 92.3116C46.5227 92.0057 48.3816 91.2504 50.5466 90.3889C52.7126 89.5301 56.3316 88.208 57.4775 87.8482C58.6191 87.4748 61.5222 86.7056 64.6228 85.9042C67.7236 85.1033 72.0014 84.0606 72.9775 83.8411C73.9535 83.621 75.1205 83.4227 76.4424 83.1902C77.7638 82.9564 80.0386 82.512 80.8363 82.3334C81.6337 82.1537 83.5103 81.8228 85.6557 81.3408C87.8009 80.8585 91.1524 79.8374 92.0899 79.4496C93.0273 79.0617 94.8012 77.6644 96.8245 76.2496C98.8479 74.835 101.121 73.4023 103.055 72.9401C104.989 72.4788 116.83 72.8185 116.83 72.8185L117.718 75.5341L103.965 80.0329L92.8311 83.6748L81.6974 87.3167L70.5636 90.9585L59.4299 94.6004L48.2961 98.2423L37.1624 101.884L26.0287 105.526Z" fill="black"/>
<path opacity="0.9" d="M26.0287 105.526L26.6083 107.298C26.6083 107.298 34.1861 108.088 36.1293 107.738C38.0727 107.388 40.1995 106.46 42.3616 105.435C44.5239 104.41 47.7652 102.919 48.8085 102.551C49.8509 102.18 51.7826 101.648 54.0222 101.014C56.2619 100.381 59.9484 99.2652 61.0864 98.881C62.2279 98.5076 65.0431 97.4695 68.04 96.3509C71.0369 95.2323 75.1402 93.6565 76.0677 93.2882C76.9949 92.9188 78.073 92.4489 79.2969 91.9169C80.5215 91.3871 82.65 90.4955 83.4075 90.1939C84.1649 89.892 85.9038 89.1398 87.9417 88.3295C89.9795 87.5187 93.2945 86.3862 94.272 86.1206C95.2494 85.855 97.4219 85.6764 99.8129 85.3855C102.204 85.0947 104.813 84.6909 106.664 83.9743C108.515 83.2576 118.299 77.3079 118.299 77.3079L117.719 75.5363L103.966 80.0351L92.8318 83.6769L81.6981 87.3188L70.5643 90.9607L59.4306 94.6026L48.2968 98.2445L37.1631 101.886L26.0287 105.526Z" fill="black"/>
<path opacity="0.3" d="M26.0287 105.526L117.718 75.5343L120.383 83.681L28.6935 113.673L26.0287 105.526Z" fill="#4D585E"/>
<path opacity="0.2" d="M29.9371 117.475L5.68741 43.34L97.3771 13.3481L121.627 87.4828L29.9371 117.475Z" stroke="black" stroke-width="2"/>
<path opacity="0.6" d="M124 100H108.211V110H124V100Z" fill="url(#paint15_radial)"/>
<path opacity="0.6" d="M3.99989 110H19.7894V100H3.99989V110Z" fill="url(#paint16_radial)"/>
<path opacity="0.6" d="M108.211 100H19.7894V110H108.211V100Z" fill="url(#paint17_linear)"/>
<path opacity="0.35" d="M118 103.994L118 18C118 18 46 18 10 18C10 46.6666 10 104 10 104L118 103.994Z" stroke="black" stroke-width="2" stroke-linejoin="round"/>
<path d="M118 103.994L118 18C118 18 46 18 10 18C10 46.6666 10 104 10 104L118 103.994Z" fill="url(#paint18_linear)"/>
<path opacity="0.4" d="M118 103.994L118 18C118 18 46 18 10 18C10 46.6666 10 104 10 104L118 103.994Z" stroke="white" stroke-width="2" stroke-linejoin="round"/>
<path opacity="0.4" d="M10 18V20H118V18H10Z" fill="white"/>
<path d="M14 100V22H114V100H14Z" fill="url(#paint19_linear)"/>
<path opacity="0.1" d="M41.1285 59.2107C33.2726 59.2107 26.8428 65.6405 26.8428 73.4964C26.8428 81.3523 33.2726 87.7821 41.1285 87.7821C48.9844 87.7821 55.4142 81.3523 55.4142 73.4964C55.4142 65.6405 48.9844 59.2107 41.1285 59.2107ZM41.1285 64.925C45.8962 64.925 49.6999 68.7287 49.6999 73.4964C49.6999 78.2641 45.8962 82.0678 41.1285 82.0678C36.3608 82.0678 32.5571 78.2641 32.5571 73.4964C32.5571 68.7287 36.3608 64.925 41.1285 64.925Z" fill="#FED8CD"/>
<path opacity="0.1" d="M41.1285 56.3535C31.7284 56.3535 23.9856 64.0963 23.9856 73.4964C23.9856 82.8965 31.7284 90.6393 41.1285 90.6393C50.5286 90.6393 58.2714 82.8965 58.2714 73.4964C58.2714 64.0963 50.5286 56.3535 41.1285 56.3535ZM41.1285 67.7821C44.3521 67.7821 46.8428 70.2728 46.8428 73.4964C46.8428 76.72 44.3521 79.2107 41.1285 79.2107C37.9049 79.2107 35.4142 76.72 35.4142 73.4964C35.4142 70.2728 37.9049 67.7821 41.1285 67.7821Z" fill="#FED8CD"/>
<path opacity="0.1" d="M41.1285 53.4964C30.1843 53.4964 21.1285 62.5522 21.1285 73.4964C21.1285 84.4406 30.1843 93.4964 41.1285 93.4964C52.0727 93.4964 61.1285 84.4406 61.1285 73.4964C61.1285 62.5522 52.0727 53.4964 41.1285 53.4964ZM41.1285 70.6393C42.808 70.6393 43.9856 71.8169 43.9856 73.4964C43.9856 75.1759 42.808 76.3536 41.1285 76.3536C39.449 76.3536 38.2713 75.1759 38.2713 73.4964C38.2713 71.8169 39.449 70.6393 41.1285 70.6393Z" fill="#FED8CD"/>
<path fill-rule="evenodd" clip-rule="evenodd" d="M41.1285 62.0679C47.4403 62.0679 52.5571 67.1846 52.5571 73.4965C52.5571 79.8083 47.4403 84.9251 41.1285 84.9251C34.8167 84.9251 29.6999 79.8083 29.6999 73.4965C29.6999 67.1846 34.8167 62.0679 41.1285 62.0679Z" fill="url(#paint20_linear)"/>
<path d="M14 87.4286V84.5715C14 84.5715 21.2113 79.8098 23.2387 79.3943C25.2661 78.9789 27.6603 79.3172 30.121 79.7815C32.5817 80.2443 36.2553 80.8703 37.4018 80.9095C38.5484 80.9495 40.6232 80.8095 43.0339 80.6638C45.4445 80.5209 49.4361 80.3895 50.6811 80.4038C51.9261 80.4038 55.0342 80.5752 58.3473 80.7775C61.6604 80.9803 66.2109 81.3192 67.2434 81.414C68.2759 81.5083 69.4895 81.6826 70.8668 81.8726C72.244 82.0612 74.6284 82.346 75.4719 82.4243C76.3154 82.5015 78.271 82.7703 80.5399 82.9792C82.8089 83.1878 86.4399 83.2592 87.4885 83.182C88.5371 83.1049 90.735 82.3283 93.1844 81.6126C95.6338 80.8972 98.3346 80.242 100.389 80.404C102.443 80.5669 114 84.5712 114 84.5712V87.4283H99H86.8572H74.7143H62.5714H50.4286H38.2857H26.1429L14 87.4286Z" fill="black"/>
<path opacity="0.9" d="M14 87.4286V89.2929C14 89.2929 21.2113 92.3995 23.2387 92.6706C25.2661 92.9421 27.6603 92.722 30.121 92.4192C32.5817 92.1172 36.2553 91.7086 37.4018 91.6832C38.5484 91.6546 40.6232 91.7489 43.0339 91.8432C45.4445 91.9375 49.4361 92.0232 50.6811 92.0118C51.9261 92.0118 55.0342 91.9003 58.3473 91.7689C61.6604 91.6375 66.2109 91.4155 67.2434 91.3538C68.2759 91.2909 69.4895 91.1795 70.8668 91.0543C72.244 90.9315 74.6284 90.7458 75.4719 90.6946C76.3154 90.6432 78.271 90.4689 80.5399 90.3323C82.8089 90.1952 86.4399 90.1495 87.4885 90.2009C88.5371 90.2523 90.735 90.7581 93.1844 91.2249C95.6338 91.6918 98.3346 92.1192 100.389 92.0135C102.443 91.9078 114 89.2946 114 89.2946V87.4306H99H86.8572H74.7143H62.5714H50.4286H38.2857H26.1429L14 87.4286Z" fill="black"/>
<path opacity="0.3" d="M14 87.4286H114V96H14V87.4286Z" fill="#4D585E"/>
<path opacity="0.2" d="M14 100V22H114V100H14Z" stroke="black" stroke-width="2"/>
<path opacity="0.3" d="M19.7639 98.3584H7.26937C7.24592 102.511 10.0688 108.398 13.5174 108.398C16.9661 108.398 19.7639 103.764 19.7639 98.3584Z" fill="url(#paint21_radial)"/>
<path opacity="0.8" fill-rule="evenodd" clip-rule="evenodd" d="M8.75 43.2469L78.75 113.247H8.75V43.2469ZM22.75 75.9135V99.2469H46.0833L22.75 75.9135Z" fill="url(#paint22_linear)"/>
<path opacity="0.8" d="M12.25 51.9986L70 109.749H12.25V51.9986Z" stroke="url(#paint23_linear)"/>
<path opacity="0.3" d="M12.25 81.7469H8.75" stroke="#83899A" stroke-linecap="square"/>
<path opacity="0.3" d="M12.25 92.2469H8.75" stroke="#83899A" stroke-linecap="square"/>
<path opacity="0.3" d="M12.25 102.747H8.75" stroke="#83899A" stroke-linecap="square"/>
<path opacity="0.3" d="M40.25 113.249V109.747" stroke="#83899A" stroke-linecap="square"/>
<path opacity="0.3" d="M19.5192 113.249V109.747" stroke="#83899A" stroke-linecap="square"/>
<path opacity="0.3" d="M50.75 113.249V109.747" stroke="#83899A" stroke-linecap="square"/>
<path opacity="0.3" d="M30.0192 113.249V109.747" stroke="#83899A" stroke-linecap="square"/>
<path opacity="0.3" d="M61.25 113.249V109.747" stroke="#83899A" stroke-linecap="square"/>
<path opacity="0.3" d="M8.75 43.2469L78.75 113.247H8.75V43.2469ZM22.75 75.9135V99.2469H46.0833L22.75 75.9135Z" stroke="black"/>
<path opacity="0.3" d="M12.25 60.7469H8.75" stroke="#83899A" stroke-linecap="square"/>
<path opacity="0.3" d="M12.25 71.2469H8.75" stroke="#83899A" stroke-linecap="square"/>
<path opacity="0.3" d="M19.25 71.2486V101.099V71.2486Z" stroke="white"/>
<path opacity="0.15" fill-rule="evenodd" clip-rule="evenodd" d="M104.134 74.1686C103.912 74.1719 103.733 74.2692 103.585 74.3637L64.1223 99.377L56.8261 103.982L56.6299 104.06L48 123.376L69.3394 124L69.4964 123.883L76.8318 119.278L114.725 95.0846L114.49 86.968C113.817 85.6583 113.022 84.2378 112.097 82.7926C109.459 78.674 106.658 75.4216 104.918 74.4028C104.628 74.233 104.355 74.1654 104.134 74.1687V74.1686Z" fill="#0C0C0C"/>
<path d="M59.6107 98.0037C61.1033 96.8895 65.2913 98.9796 69.14 102.789C72.9794 106.589 75.0024 110.656 73.9077 112.155C73.9037 112.161 74.0019 112.239 73.9976 112.244L127.587 58.673C128.948 57.3129 126.834 53.0147 122.863 49.0843C118.892 45.1539 114.561 43.0722 113.2 44.4324L59.6107 98.0037Z" fill="url(#paint24_linear)"/>
<path opacity="0.6" d="M59.6107 98.0037C61.1033 96.8895 65.2913 98.9795 69.14 102.789C72.9794 106.589 75.0024 110.656 73.9077 112.155C73.9037 112.161 74.0019 112.239 73.9977 112.244L110.903 75.3515L111.037 75.2181C111.04 75.2124 110.942 75.1347 110.947 75.1291C112.041 73.6297 110.018 69.5631 106.179 65.7627C102.33 61.9532 98.1423 59.8632 96.6497 60.9774L96.5162 61.1108L59.6107 98.0037H59.6107H59.6107Z" fill="#F9C440"/>
<path d="M59.6107 98.0037C61.1033 96.8895 65.2913 98.9796 69.14 102.789C72.9794 106.589 75.0024 110.656 73.9077 112.155C73.9037 112.161 74.0019 112.239 73.9976 112.244L127.587 58.673C128.948 57.3129 126.834 53.0147 122.863 49.0843C118.892 45.1539 114.561 43.0722 113.2 44.4324L59.6107 98.0037V98.0037Z" stroke="#AD5F00" stroke-width="0.5" stroke-linejoin="round"/>
<path d="M114.257 44.0191C113.815 44.0426 113.455 44.1762 113.2 44.4313L96.6512 60.9767C98.1453 59.8653 102.331 61.9537 106.178 65.7618C110.018 69.5622 112.042 73.6302 110.947 75.1296C110.943 75.1352 111.041 75.2117 111.038 75.2174L127.587 58.6719C128.947 57.3118 126.833 53.0151 122.862 49.0847C119.636 45.8912 116.172 43.9171 114.257 44.0191Z" fill="url(#paint25_linear)" stroke="#555761" stroke-width="0.5" stroke-linejoin="round"/>
<path opacity="0.9" d="M106.66 50.9703C108.153 49.8561 112.341 51.9461 116.189 55.7556C120.029 59.556 122.052 63.6226 120.957 65.122C120.953 65.1276 121.051 65.2053 121.047 65.211L127.587 58.673L127.721 58.5396C127.725 58.5339 127.627 58.4562 127.631 58.4505C128.726 56.9512 126.703 52.8846 122.863 49.0842C119.015 45.2747 114.826 43.1847 113.334 44.2989L113.2 44.4323L106.66 50.9703H106.66Z" fill="#FE9AB8" stroke="#DE3E80" stroke-width="0.5" stroke-linejoin="round"/>
<path d="M99.3295 58.2986C100.822 57.1844 105.01 59.2744 108.859 63.0839C112.698 66.8843 114.721 70.9509 113.627 72.4503C113.623 72.4559 113.721 72.5336 113.716 72.5393L114.384 71.8721C114.388 71.8665 114.29 71.7888 114.294 71.7831C115.389 70.2837 113.366 66.2172 109.526 62.4168C105.678 58.6073 101.489 56.5172 99.9969 57.6314L99.3295 58.2986V58.2986V58.2986Z" fill="url(#paint26_linear)"/>
<path d="M98.7178 58.9099C100.21 57.7957 104.398 59.8858 108.247 63.6953C112.086 67.4957 114.11 71.5622 113.015 73.0616C113.011 73.0672 113.109 73.145 113.105 73.1506L113.772 72.4835C113.776 72.4778 113.678 72.4001 113.682 72.3945C114.777 70.8951 112.754 66.8285 108.914 63.0281C105.066 59.2186 100.878 57.1286 99.3852 58.2428L98.7178 58.9099V58.9099H98.7178Z" fill="url(#paint27_linear)"/>
<path d="M101.455 56.174C102.947 55.0598 107.135 57.1499 110.984 60.9594C114.823 64.7597 116.847 68.8263 115.752 70.3257C115.748 70.3313 115.846 70.4091 115.842 70.4147L116.509 69.7476C116.513 69.7419 116.415 69.6642 116.419 69.6586C117.514 68.1592 115.491 64.0926 111.651 60.2922C107.803 56.4827 103.615 54.3927 102.122 55.5069L101.455 56.174H101.455Z" fill="url(#paint28_linear)"/>
<path d="M100.843 56.7853C102.336 55.6711 106.524 57.7612 110.372 61.5707C114.212 65.3711 116.235 69.4377 115.14 70.937C115.136 70.9426 115.234 71.0204 115.23 71.026L115.897 70.3589C115.901 70.3533 115.803 70.2756 115.808 70.2699C116.902 68.7705 114.879 64.7039 111.04 60.9035C107.191 57.0941 103.003 55.004 101.51 56.1182L100.843 56.7853L100.843 56.7853Z" fill="url(#paint29_linear)"/>
<path d="M103.59 54.0392C105.083 52.925 109.271 55.015 113.119 58.8245C116.959 62.6249 118.982 66.6915 117.887 68.1908C117.883 68.1965 117.981 68.2742 117.977 68.2798L118.644 67.6127C118.648 67.6071 118.55 67.5294 118.555 67.5237C119.649 66.0243 117.626 61.9577 113.787 58.1574C109.938 54.3479 105.75 52.2578 104.258 53.372L103.59 54.0392Z" fill="url(#paint30_linear)"/>
<path d="M102.979 54.6506C104.471 53.5364 108.659 55.6264 112.508 59.4359C116.347 63.2363 118.37 67.3029 117.276 68.8022C117.272 68.8078 117.37 68.8856 117.366 68.8912L118.033 68.2241C118.037 68.2185 117.939 68.1408 117.943 68.1351C119.038 66.6357 117.015 62.5691 113.175 58.7688C109.327 54.9593 105.139 52.8692 103.646 53.9834L102.979 54.6506H102.979Z" fill="url(#paint31_linear)"/>
<path fill-rule="evenodd" clip-rule="evenodd" d="M49.3409 122.251L73.7214 112.359L73.9292 112.152C75.0239 110.653 72.9744 106.586 69.135 102.785C65.2864 98.9759 61.1033 96.8974 59.6107 98.0116L49.3409 122.251H49.3409Z" fill="url(#paint32_linear)" stroke="url(#paint33_linear)" stroke-width="0.5"/>
<path fill-rule="evenodd" clip-rule="evenodd" d="M52.1227 115.686L49.3394 122.225L55.9892 119.513C55.4562 118.878 54.9642 118.233 54.3243 117.6C53.5876 116.87 52.863 116.279 52.1227 115.686Z" fill="#333333" stroke="#1A1A1A" stroke-width="0.5"/>
<path opacity="0.15" d="M69 118.5V111.5C71.1716 111.486 74.25 113.068 74.25 115C74.25 116.932 71.8266 118.5 69 118.5Z" fill="url(#paint34_radial)"/>
<path opacity="0.15" d="M10.25 118.5V111.5C8.07836 111.486 5 113.068 5 115C5 116.932 7.4234 118.5 10.25 118.5Z" fill="url(#paint35_radial)"/>
<path opacity="0.15" d="M69.25 118L9.75001 118L9.75001 111L69.25 111V118Z" fill="url(#paint36_linear)"/>
</g>
<defs>
<linearGradient id="paint0_linear" x1="66.1412" y1="123.919" x2="59.5498" y2="-3.91111" gradientUnits="userSpaceOnUse">
<stop stop-color="#EDEDED"/>
<stop offset="1" stop-color="white"/>
</linearGradient>
<linearGradient id="paint1_linear" x1="47.8836" y1="93.4946" x2="43.3242" y2="5.07149" gradientUnits="userSpaceOnUse">
<stop stop-color="#8C166C"/>
<stop offset="0.362069" stop-color="#CA3561"/>
<stop offset="1" stop-color="#F38F4E"/>
</linearGradient>
<linearGradient id="paint2_linear" x1="41.2364" y1="85.0751" x2="40.0594" y2="62.2483" gradientUnits="userSpaceOnUse">
<stop stop-color="#E28192"/>
<stop offset="0.258621" stop-color="#F7D6C7"/>
<stop offset="1" stop-color="#FFFEE4"/>
</linearGradient>
<linearGradient id="paint3_linear" x1="69.4296" y1="123.664" x2="56.2614" y2="-3.65645" gradientUnits="userSpaceOnUse">
<stop stop-color="#EDEDED"/>
<stop offset="1" stop-color="white"/>
</linearGradient>
<linearGradient id="paint4_linear" x1="49.6288" y1="94.2209" x2="40.5201" y2="6.15011" gradientUnits="userSpaceOnUse">
<stop stop-color="#8C166C"/>
<stop offset="0.362069" stop-color="#CA3561"/>
<stop offset="1" stop-color="#F38F4E"/>
</linearGradient>
<linearGradient id="paint5_linear" x1="42.5567" y1="86.155" x2="40.2053" y2="63.4191" gradientUnits="userSpaceOnUse">
<stop stop-color="#E28192"/>
<stop offset="0.258621" stop-color="#F7D6C7"/>
<stop offset="1" stop-color="#FFFEE4"/>
</linearGradient>
<linearGradient id="paint6_linear" x1="72.6591" y1="126.114" x2="52.7564" y2="-0.32895" gradientUnits="userSpaceOnUse">
<stop stop-color="#EDEDED"/>
<stop offset="1" stop-color="white"/>
</linearGradient>
<linearGradient id="paint7_linear" x1="51.5896" y1="97.7207" x2="37.8225" y2="10.257" gradientUnits="userSpaceOnUse">
<stop stop-color="#8C166C"/>
<stop offset="0.362069" stop-color="#CA3561"/>
<stop offset="1" stop-color="#F38F4E"/>
</linearGradient>
<linearGradient id="paint8_linear" x1="44.1983" y1="90.0257" x2="40.6442" y2="67.4466" gradientUnits="userSpaceOnUse">
<stop stop-color="#E28192"/>
<stop offset="0.258621" stop-color="#F7D6C7"/>
<stop offset="1" stop-color="#FFFEE4"/>
</linearGradient>
<linearGradient id="paint9_linear" x1="77.7811" y1="125.998" x2="48.0941" y2="1.48871" gradientUnits="userSpaceOnUse">
<stop stop-color="#EDEDED"/>
<stop offset="1" stop-color="white"/>
</linearGradient>
<linearGradient id="paint10_linear" x1="54.641" y1="99.3134" x2="34.1057" y2="13.1871" gradientUnits="userSpaceOnUse">
<stop stop-color="#8C166C"/>
<stop offset="0.362069" stop-color="#CA3561"/>
<stop offset="1" stop-color="#F38F4E"/>
</linearGradient>
<linearGradient id="paint11_linear" x1="46.7013" y1="92.2106" x2="41.4" y2="69.9767" gradientUnits="userSpaceOnUse">
<stop stop-color="#E28192"/>
<stop offset="0.258621" stop-color="#F7D6C7"/>
<stop offset="1" stop-color="#FFFEE4"/>
</linearGradient>
<linearGradient id="paint12_linear" x1="83.5543" y1="126.24" x2="43.7599" y2="4.58293" gradientUnits="userSpaceOnUse">
<stop stop-color="#EDEDED"/>
<stop offset="1" stop-color="white"/>
</linearGradient>
<linearGradient id="paint13_linear" x1="58.5341" y1="101.466" x2="31.0075" y2="17.3136" gradientUnits="userSpaceOnUse">
<stop stop-color="#8C166C"/>
<stop offset="0.362069" stop-color="#CA3561"/>
<stop offset="1" stop-color="#F38F4E"/>
</linearGradient>
<linearGradient id="paint14_linear" x1="50.1245" y1="95.0105" x2="43.0183" y2="73.286" gradientUnits="userSpaceOnUse">
<stop stop-color="#E28192"/>
<stop offset="0.258621" stop-color="#F7D6C7"/>
<stop offset="1" stop-color="#FFFEE4"/>
</linearGradient>
<radialGradient id="paint15_radial" cx="0" cy="0" r="1" gradientUnits="userSpaceOnUse" gradientTransform="translate(108.188 105) scale(15.8194 5)">
<stop stop-color="#181818"/>
<stop offset="1" stop-color="#181818" stop-opacity="0"/>
</radialGradient>
<radialGradient id="paint16_radial" cx="0" cy="0" r="1" gradientUnits="userSpaceOnUse" gradientTransform="translate(19.8116 105) rotate(180) scale(15.8194 5)">
<stop stop-color="#181818"/>
<stop offset="1" stop-color="#181818" stop-opacity="0"/>
</radialGradient>
<linearGradient id="paint17_linear" x1="67.3414" y1="110.04" x2="67.3414" y2="99.9992" gradientUnits="userSpaceOnUse">
<stop stop-color="#181818" stop-opacity="0"/>
<stop offset="0.5" stop-color="#181818"/>
<stop offset="1" stop-color="#181818" stop-opacity="0"/>
</linearGradient>
<linearGradient id="paint18_linear" x1="64" y1="125" x2="64" y2="-3" gradientUnits="userSpaceOnUse">
<stop stop-color="#EDEDED"/>
<stop offset="1" stop-color="white"/>
</linearGradient>
<linearGradient id="paint19_linear" x1="47.3333" y1="93.6757" x2="47.3333" y2="5.13513" gradientUnits="userSpaceOnUse">
<stop stop-color="#8C166C"/>
<stop offset="0.362069" stop-color="#CA3561"/>
<stop offset="1" stop-color="#F38F4E"/>
</linearGradient>
<linearGradient id="paint20_linear" x1="41.1285" y1="84.9251" x2="41.1285" y2="62.0679" gradientUnits="userSpaceOnUse">
<stop stop-color="#E28192"/>
<stop offset="0.258621" stop-color="#F7D6C7"/>
<stop offset="1" stop-color="#FFFEE4"/>
</linearGradient>
<radialGradient id="paint21_radial" cx="0" cy="0" r="1" gradientUnits="userSpaceOnUse" gradientTransform="translate(13.5902 98.6047) rotate(90) scale(9.44638 6.02709)">
<stop/>
<stop offset="1" stop-opacity="0"/>
</radialGradient>
<linearGradient id="paint22_linear" x1="74.258" y1="100.572" x2="6.99562" y2="82.7843" gradientUnits="userSpaceOnUse">
<stop stop-color="#FCFCFC"/>
<stop offset="1" stop-color="#CBCDD9"/>
</linearGradient>
<linearGradient id="paint23_linear" x1="70" y1="90.4986" x2="10.5" y2="90.4986" gradientUnits="userSpaceOnUse">
<stop stop-color="white"/>
<stop offset="1" stop-color="white" stop-opacity="0"/>
</linearGradient>
<linearGradient id="paint24_linear" x1="86.9158" y1="70.7399" x2="101.233" y2="85.0622" gradientUnits="userSpaceOnUse">
<stop stop-color="#AD5F00"/>
<stop offset="0.134829" stop-color="#FFE16B"/>
<stop offset="0.202244" stop-color="#F9C440"/>
<stop offset="0.269659" stop-color="#FFF394"/>
<stop offset="0.446503" stop-color="#F9C440"/>
<stop offset="0.571141" stop-color="#F9C440"/>
<stop offset="0.720381" stop-color="#FFE16B"/>
<stop offset="1" stop-color="#AD5F00"/>
</linearGradient>
<linearGradient id="paint25_linear" x1="86.9158" y1="70.7399" x2="101.233" y2="85.0622" gradientUnits="userSpaceOnUse">
<stop stop-color="#555761"/>
<stop offset="0.134829" stop-color="#D4D4D4"/>
<stop offset="0.202244" stop-color="#ABACAE"/>
<stop offset="0.269659" stop-color="#FAFAFA"/>
<stop offset="0.446503" stop-color="#ABACAE"/>
<stop offset="0.571141" stop-color="#ABACAE"/>
<stop offset="0.720381" stop-color="#D4D4D4"/>
<stop offset="1" stop-color="#555761"/>
</linearGradient>
<linearGradient id="paint26_linear" x1="100.758" y1="56.6317" x2="115.1" y2="70.9782" gradientUnits="userSpaceOnUse">
<stop stop-color="#555761"/>
<stop offset="0.5" stop-color="#ABACAE"/>
<stop offset="1" stop-color="#555761"/>
</linearGradient>
<linearGradient id="paint27_linear" x1="100.147" y1="57.2431" x2="114.488" y2="71.5895" gradientUnits="userSpaceOnUse">
<stop stop-color="#ABACAE"/>
<stop offset="0.5" stop-color="#FAFAFA"/>
<stop offset="1" stop-color="#ABACAE"/>
</linearGradient>
<linearGradient id="paint28_linear" x1="102.884" y1="54.5072" x2="117.225" y2="68.8536" gradientUnits="userSpaceOnUse">
<stop stop-color="#555761"/>
<stop offset="0.5" stop-color="#ABACAE"/>
<stop offset="1" stop-color="#555761"/>
</linearGradient>
<linearGradient id="paint29_linear" x1="102.272" y1="55.1185" x2="116.614" y2="69.4649" gradientUnits="userSpaceOnUse">
<stop stop-color="#ABACAE"/>
<stop offset="0.5" stop-color="#FAFAFA"/>
<stop offset="1" stop-color="#ABACAE"/>
</linearGradient>
<linearGradient id="paint30_linear" x1="105.019" y1="52.3723" x2="119.361" y2="66.7187" gradientUnits="userSpaceOnUse">
<stop stop-color="#555761"/>
<stop offset="0.5" stop-color="#ABACAE"/>
<stop offset="1" stop-color="#555761"/>
</linearGradient>
<linearGradient id="paint31_linear" x1="104.408" y1="52.9837" x2="118.749" y2="67.3301" gradientUnits="userSpaceOnUse">
<stop stop-color="#ABACAE"/>
<stop offset="0.5" stop-color="#FAFAFA"/>
<stop offset="1" stop-color="#ABACAE"/>
</linearGradient>
<linearGradient id="paint32_linear" x1="66.7222" y1="113.939" x2="58.058" y2="105.272" gradientUnits="userSpaceOnUse">
<stop stop-color="#FFF394"/>
<stop offset="1" stop-color="#FAFAFA"/>
</linearGradient>
<linearGradient id="paint33_linear" x1="54.9488" y1="108.41" x2="62.7308" y2="116.277" gradientUnits="userSpaceOnUse">
<stop stop-color="#D48E15"/>
<stop offset="1" stop-color="#AD5F00"/>
</linearGradient>
<radialGradient id="paint34_radial" cx="0" cy="0" r="1" gradientUnits="userSpaceOnUse" gradientTransform="translate(69.1288 115.041) scale(4.93992 3.37647)">
<stop/>
<stop offset="1" stop-opacity="0"/>
</radialGradient>
<radialGradient id="paint35_radial" cx="0" cy="0" r="1" gradientUnits="userSpaceOnUse" gradientTransform="translate(10.1212 115.041) rotate(180) scale(4.93992 3.37647)">
<stop/>
<stop offset="1" stop-opacity="0"/>
</radialGradient>
<linearGradient id="paint36_linear" x1="32.2826" y1="118" x2="32.2826" y2="111" gradientUnits="userSpaceOnUse">
<stop stop-opacity="0"/>
<stop offset="0.5"/>
<stop offset="1" stop-opacity="0"/>
</linearGradient>
<clipPath id="clip0">
<rect width="128" height="128" fill="white"/>
</clipPath>
</defs>
</svg>
