<svg width="16" height="16" viewBox="0 0 16 16" fill="none" xmlns="http://www.w3.org/2000/svg">
<g clip-path="url(#clip0)">
<path opacity="0.6" d="M16.2021 10.0996L14.4407 10.6643L14.8224 11.8546L16.5837 11.2899L16.2021 10.0996Z" fill="url(#paint0_radial)"/>
<path opacity="0.6" d="M3.19738 15.5816L4.95874 15.0169L4.57712 13.8266L2.81576 14.3913L3.19738 15.5816Z" fill="url(#paint1_radial)"/>
<path opacity="0.6" d="M14.4407 10.6643L4.57715 13.8266L4.95877 15.0169L14.8224 11.8546L14.4407 10.6643Z" fill="url(#paint2_linear)"/>
<path opacity="0.35" d="M15.6853 10.7896L12.4036 0.55357C12.4036 0.55357 4.37178 3.12859 0.355896 4.41611C1.44988 7.82836 3.63785 14.6529 3.63785 14.6529L15.6853 10.7896Z" stroke="black" stroke-linejoin="round"/>
<path d="M15.6853 10.7896L12.4036 0.55357C12.4036 0.55357 4.37178 3.12859 0.355896 4.41611C1.44988 7.82836 3.63785 14.6529 3.63785 14.6529L15.6853 10.7896Z" fill="url(#paint3_linear)"/>
<path opacity="0.4" d="M15.6853 10.7896L12.4036 0.55357C12.4036 0.55357 4.37178 3.12859 0.355896 4.41611C1.44988 7.82836 3.63785 14.6529 3.63785 14.6529L15.6853 10.7896Z" stroke="white" stroke-linejoin="round"/>
<path opacity="0.4" d="M0.355896 4.41611L0.43222 4.65417L12.4799 0.791635L12.4036 0.553571L0.355896 4.41611Z" fill="white"/>
<path d="M3.93137 14.0337L0.954712 4.74918L12.11 1.17275L15.0866 10.4573L3.93137 14.0337Z" fill="url(#paint4_linear)"/>
<path opacity="0.1" d="M4.07316 4.49949C3.19681 4.78045 2.72493 5.77575 3.02473 6.71086C3.32453 7.64597 4.28716 8.18137 5.16351 7.90041C6.03986 7.61944 6.51174 6.62414 6.21194 5.68903C5.91214 4.75392 4.94951 4.21853 4.07316 4.49949ZM4.29123 5.17967C4.82308 5.00916 5.39255 5.32589 5.5745 5.8934C5.75644 6.46091 5.47729 7.04971 4.94544 7.22022C4.41359 7.39074 3.84412 7.07401 3.66217 6.5065C3.48022 5.93899 3.75938 5.35019 4.29123 5.17967Z" fill="#FED8CD"/>
<path opacity="0.1" d="M3.96409 4.15939C2.91549 4.49558 2.34724 5.69413 2.70597 6.81304C3.06469 7.93195 4.22391 8.57668 5.2725 8.24049C6.3211 7.90431 6.88935 6.70575 6.53062 5.58684C6.1719 4.46793 5.01268 3.8232 3.96409 4.15939ZM4.40023 5.51976C4.75983 5.40447 5.13272 5.61186 5.25574 5.99557C5.37876 6.37929 5.19597 6.76483 4.83637 6.88012C4.47676 6.99541 4.10387 6.78802 3.98085 6.40431C3.85783 6.0206 4.04062 5.63505 4.40023 5.51976Z" fill="#FED8CD"/>
<path opacity="0.1" d="M3.85513 3.81929C2.63428 4.2107 1.96967 5.61251 2.38733 6.91522C2.80498 8.21792 4.16077 8.97198 5.38162 8.58057C6.60247 8.18917 7.26708 6.78736 6.84943 5.48465C6.43177 4.18194 5.07598 3.42788 3.85513 3.81929ZM4.50934 5.85984C4.69669 5.79978 4.87301 5.89784 4.9371 6.09775C5.00119 6.29766 4.91476 6.47996 4.72741 6.54003C4.54006 6.60009 4.36375 6.50203 4.29966 6.30212C4.23556 6.1022 4.32199 5.91991 4.50934 5.85984Z" fill="#FED8CD"/>
<path fill-rule="evenodd" clip-rule="evenodd" d="M4.18223 4.83959C4.88633 4.61385 5.65239 5.03991 5.89326 5.79122C6.13413 6.54253 5.75861 7.33459 5.05451 7.56032C4.35041 7.78606 3.58436 7.36 3.34349 6.60869C3.10262 5.85738 3.47813 5.06533 4.18223 4.83959Z" fill="#FCE94F"/>
<path fill-rule="evenodd" clip-rule="evenodd" d="M4.01657 5.474C4.87909 5.19747 5.8175 5.7194 6.11257 6.63975C6.40764 7.56011 5.94763 8.53037 5.08511 8.8069C4.22259 9.08343 3.28418 8.56151 2.98911 7.64115C2.69404 6.7208 3.15405 5.75053 4.01657 5.474Z" fill="#FCE94F"/>
<path d="M3.45159 12.5373L3.34256 12.1972C3.34256 12.1972 3.96527 11.3725 4.17558 11.2505C4.38589 11.1286 4.66589 11.0832 4.9581 11.0505C5.25026 11.0176 5.68395 10.9607 5.81334 10.9244C5.94276 10.8881 6.16887 10.7972 6.43223 10.6937C6.69569 10.5905 7.13595 10.4321 7.27537 10.3892C7.41426 10.3447 7.76751 10.254 8.14482 10.1595C8.52214 10.0652 9.0427 9.94279 9.16149 9.91716C9.28026 9.89145 9.4223 9.8688 9.58319 9.84215C9.74402 9.81534 10.0209 9.76397 10.118 9.74313C10.215 9.72214 10.4434 9.68421 10.7045 9.62792C10.9655 9.5716 11.3733 9.45024 11.4874 9.40355C11.6014 9.35687 11.8169 9.18582 12.0629 9.01303C12.3088 8.84027 12.5851 8.6657 12.8204 8.61151C13.0558 8.55742 14.4978 8.62074 14.4978 8.62074L14.6068 8.96084L12.9335 9.4973L11.579 9.93158L10.2244 10.3659L8.86984 10.8001L7.51528 11.2344L6.16071 11.6687L4.80615 12.103L3.45159 12.5373Z" fill="black"/>
<path opacity="0.9" d="M3.4516 12.5373L3.52274 12.7592C3.52274 12.7592 4.44573 12.8711 4.68224 12.8308C4.91876 12.7906 5.17745 12.6788 5.44039 12.5548C5.70336 12.4308 6.09757 12.2508 6.22449 12.2068C6.3513 12.1624 6.58635 12.0994 6.85887 12.0244C7.13138 11.9494 7.57992 11.8168 7.71837 11.771C7.85725 11.7264 8.19972 11.602 8.56428 11.4679C8.92885 11.3337 9.428 11.1446 9.54082 11.1003C9.6536 11.0559 9.78473 10.9992 9.93359 10.9351C10.0825 10.8712 10.3414 10.7638 10.4336 10.7276C10.5257 10.6913 10.7372 10.6006 10.9851 10.5032C11.233 10.4057 11.6363 10.2704 11.7552 10.239C11.8742 10.2076 12.1386 10.1892 12.4297 10.1572C12.7207 10.1252 13.0383 10.0795 13.2635 9.99341C13.4886 9.90735 14.6781 9.18298 14.6781 9.18298L14.6069 8.96111L12.9336 9.49757L11.5791 9.93185L10.2245 10.3661L8.86994 10.8004L7.51537 11.2347L6.16081 11.669L4.80624 12.1033L3.4516 12.5373Z" fill="black"/>
<path opacity="0.3" d="M3.4516 12.5373L14.6068 8.96087L14.934 9.98115L3.7787 13.5576L3.4516 12.5373Z" fill="#4D585E"/>
<path opacity="0.2" d="M3.93137 14.0337L0.954712 4.74918L12.11 1.17275L15.0866 10.4573L3.93137 14.0337Z" stroke="black"/>
<path opacity="0.6" d="M16.2007 11.0413L14.2607 11.4049L14.491 12.6335L16.4309 12.27L16.2007 11.0413Z" fill="url(#paint5_radial)"/>
<path opacity="0.6" d="M1.68759 15.0332L3.6275 14.6696L3.39723 13.441L1.45732 13.8046L1.68759 15.0332Z" fill="url(#paint6_radial)"/>
<path opacity="0.6" d="M14.2607 11.4049L3.39722 13.441L3.62749 14.6696L14.491 12.6335L14.2607 11.4049Z" fill="url(#paint7_linear)"/>
<path opacity="0.35" d="M15.5554 11.6702L13.5752 1.10491C13.5752 1.10491 4.72926 2.76287 0.306274 3.59186C0.96639 7.11386 2.28662 14.1579 2.28662 14.1579L15.5554 11.6702Z" stroke="black" stroke-linejoin="round"/>
<path d="M15.5554 11.6702L13.5752 1.10491C13.5752 1.10491 4.72926 2.76287 0.306274 3.59186C0.96639 7.11386 2.28662 14.1579 2.28662 14.1579L15.5554 11.6702Z" fill="url(#paint8_linear)"/>
<path opacity="0.4" d="M15.5554 11.6702L13.5752 1.10491C13.5752 1.10491 4.72926 2.76287 0.306274 3.59186C0.96639 7.11386 2.28662 14.1579 2.28662 14.1579L15.5554 11.6702Z" stroke="white" stroke-linejoin="round"/>
<path opacity="0.4" d="M0.306274 3.59189L0.352329 3.83761L13.6213 1.35066L13.5752 1.10494L0.306274 3.59189Z" fill="white"/>
<path d="M2.68596 13.5743L0.889832 3.99121L13.1759 1.68848L14.972 11.2716L2.68596 13.5743Z" fill="url(#paint9_linear)"/>
<path opacity="0.1" d="M4.21578 4.09456C3.2506 4.27546 2.60869 5.21349 2.78959 6.17868C2.9705 7.14386 3.90852 7.78577 4.87371 7.60487C5.83889 7.42397 6.4808 6.48594 6.2999 5.52075C6.119 4.55556 5.18097 3.91366 4.21578 4.09456ZM4.34737 4.79662C4.93313 4.68683 5.48805 5.06657 5.59784 5.65234C5.70763 6.2381 5.32789 6.79302 4.74212 6.90281C4.15636 7.01259 3.60144 6.63286 3.49166 6.04709C3.38187 5.46133 3.7616 4.90641 4.34737 4.79662Z" fill="#FED8CD"/>
<path opacity="0.1" d="M4.15001 3.74352C2.99511 3.95998 2.22212 5.08956 2.43858 6.24446C2.65504 7.39935 3.78462 8.17235 4.93951 7.95589C6.09441 7.73943 6.8674 6.60985 6.65094 5.45495C6.43449 4.30005 5.3049 3.52706 4.15001 3.74352ZM4.41318 5.14764C4.80923 5.07341 5.17259 5.32207 5.24682 5.71812C5.32105 6.11417 5.0724 6.47753 4.67635 6.55176C4.28029 6.626 3.91693 6.37734 3.8427 5.98129C3.76847 5.58523 4.01712 5.22187 4.41318 5.14764Z" fill="#FED8CD"/>
<path opacity="0.1" d="M4.08423 3.39251C2.73962 3.64453 1.83555 4.96566 2.08756 6.31027C2.33958 7.65488 3.66071 8.55895 5.00532 8.30694C6.34993 8.05492 7.254 6.73379 7.00199 5.38918C6.74997 4.04457 5.42884 3.1405 4.08423 3.39251ZM4.47898 5.49869C4.68532 5.46002 4.85713 5.57759 4.8958 5.78393C4.93448 5.99028 4.81691 6.16208 4.61057 6.20076C4.40422 6.23943 4.23242 6.12186 4.19374 5.91552C4.15507 5.70917 4.27264 5.53737 4.47898 5.49869Z" fill="#FED8CD"/>
<path fill-rule="evenodd" clip-rule="evenodd" d="M4.28156 4.4456C5.05704 4.30026 5.80351 4.81108 5.94885 5.58655C6.0942 6.36203 5.58338 7.1085 4.8079 7.25385C4.03243 7.39919 3.28596 6.88837 3.14061 6.11289C2.99527 5.33742 3.50609 4.59095 4.28156 4.4456Z" fill="#FCE94F"/>
<path fill-rule="evenodd" clip-rule="evenodd" d="M4.01497 5.05878C4.96493 4.88074 5.87935 5.50649 6.0574 6.45645C6.23545 7.40641 5.60969 8.32083 4.65974 8.49888C3.70978 8.67693 2.79535 8.05117 2.6173 7.10121C2.43926 6.15126 3.06501 5.23683 4.01497 5.05878Z" fill="#FCE94F"/>
<path d="M2.39649 12.0298L2.33069 11.6788C2.33069 11.6788 3.10703 10.9277 3.34655 10.83C3.58607 10.7322 3.88802 10.7187 4.20103 10.719C4.51401 10.7192 4.97977 10.7116 5.12153 10.69C5.26332 10.6685 5.51501 10.6035 5.80783 10.5301C6.10072 10.457 6.5881 10.349 6.74139 10.3221C6.89435 10.2934 7.28016 10.2429 7.69187 10.1914C8.10358 10.1401 8.67047 10.0769 8.7995 10.0648C8.92853 10.0526 9.08165 10.0461 9.25524 10.0377C9.42879 10.0292 9.72829 10.0092 9.83373 9.99944C9.93914 9.98949 10.1856 9.97749 10.4692 9.9509C10.7527 9.92428 11.2005 9.84944 11.3275 9.81582C11.4546 9.7822 11.7068 9.63617 11.9912 9.49184C12.2757 9.34754 12.5924 9.20485 12.8485 9.17745C13.1047 9.15015 14.6168 9.376 14.6168 9.376L14.6825 9.72703L12.8396 10.0724L11.3478 10.3521L9.85588 10.6317L8.364 10.9113L6.87212 11.1909L5.38024 11.4705L3.88836 11.7501L2.39649 12.0298Z" fill="black"/>
<path opacity="0.9" d="M2.39648 12.0298L2.43941 12.2589C2.43941 12.2589 3.39693 12.4745 3.65226 12.4611C3.9076 12.4478 4.1967 12.3656 4.49204 12.2717C4.78741 12.178 5.22934 12.0432 5.36962 12.0137C5.50983 11.9837 5.76691 11.9475 6.06526 11.9036C6.36361 11.8597 6.85599 11.7783 7.00869 11.7482C7.16165 11.7196 7.54094 11.6343 7.94497 11.5419C8.34899 11.4494 8.90296 11.3174 9.02838 11.286C9.15379 11.2545 9.30033 11.2129 9.46666 11.1658C9.63304 11.119 9.92171 11.0413 10.0242 11.0155C10.1266 10.9898 10.3629 10.9234 10.6385 10.8543C10.9141 10.7852 11.3591 10.696 11.4892 10.6782C11.6192 10.6604 11.9009 10.6719 12.2125 10.6728C12.5242 10.6738 12.8659 10.6641 13.1159 10.6038C13.3658 10.5435 14.7255 9.95634 14.7255 9.95634L14.6826 9.72733L12.8397 10.0727L11.3478 10.3524L9.85593 10.632L8.36405 10.9116L6.87217 11.1912L5.38029 11.4708L3.88841 11.7504L2.39648 12.0298Z" fill="black"/>
<path opacity="0.3" d="M2.39648 12.0298L14.6825 9.72708L14.8799 10.7802L2.59386 13.0829L2.39648 12.0298Z" fill="#4D585E"/>
<path opacity="0.2" d="M2.68596 13.5743L0.889832 3.99121L13.1759 1.68848L14.972 11.2716L2.68596 13.5743Z" stroke="black"/>
<path opacity="0.6" d="M15.8758 11.8041L13.9102 11.9824L14.0231 13.2273L15.9888 13.049L15.8758 11.8041Z" fill="url(#paint10_radial)"/>
<path opacity="0.6" d="M1.05007 14.404L3.01569 14.2257L2.90277 12.9808L0.93715 13.1591L1.05007 14.404Z" fill="url(#paint11_radial)"/>
<path opacity="0.6" d="M13.9102 11.9824L2.90277 12.9808L3.01569 14.2257L14.0232 13.2273L13.9102 11.9824Z" fill="url(#paint12_linear)"/>
<path opacity="0.35" d="M15.174 12.3691L14.203 1.66376C14.203 1.66376 5.23978 2.47677 0.758179 2.88327C1.08188 6.45195 1.72927 13.5893 1.72927 13.5893L15.174 12.3691Z" stroke="black" stroke-linejoin="round"/>
<path d="M15.174 12.3691L14.203 1.66376C14.203 1.66376 5.23978 2.47677 0.758179 2.88327C1.08188 6.45195 1.72927 13.5893 1.72927 13.5893L15.174 12.3691Z" fill="url(#paint13_linear)"/>
<path opacity="0.4" d="M15.174 12.3691L14.203 1.66376C14.203 1.66376 5.23978 2.47677 0.758179 2.88327C1.08188 6.45195 1.72927 13.5893 1.72927 13.5893L15.174 12.3691Z" stroke="white" stroke-linejoin="round"/>
<path opacity="0.4" d="M0.758179 2.88327L0.780762 3.13225L14.2256 1.91273L14.203 1.66376L0.758179 2.88327Z" fill="white"/>
<path d="M2.18203 13.0462L1.30127 3.33606L13.7502 2.20688L14.6309 11.917L2.18203 13.0462Z" fill="url(#paint14_linear)"/>
<path opacity="0.1" d="M4.60257 3.75382C3.62459 3.84253 2.89676 4.71557 2.98547 5.69354C3.07418 6.67152 3.94722 7.39935 4.92519 7.31065C5.90317 7.22194 6.631 6.3489 6.5423 5.37092C6.45359 4.39294 5.58055 3.66511 4.60257 3.75382ZM4.6671 4.46518C5.26062 4.41135 5.77709 4.84192 5.83093 5.43545C5.88477 6.02897 5.4542 6.54544 4.86067 6.59928C4.26714 6.65312 3.75067 6.22255 3.69683 5.62902C3.643 5.03549 4.07357 4.51902 4.6671 4.46518Z" fill="#FED8CD"/>
<path opacity="0.1" d="M4.57025 3.39816C3.40005 3.50431 2.52359 4.55563 2.62973 5.72583C2.73587 6.89603 3.7872 7.7725 4.9574 7.66635C6.1276 7.56021 7.00407 6.50889 6.89792 5.33868C6.79178 4.16848 5.74046 3.29202 4.57025 3.39816ZM4.6993 4.82089C5.10061 4.78449 5.43879 5.06643 5.47519 5.46773C5.51159 5.86904 5.22965 6.20722 4.82835 6.24362C4.42705 6.28002 4.08886 5.99809 4.05246 5.59678C4.01606 5.19548 4.298 4.85729 4.6993 4.82089Z" fill="#FED8CD"/>
<path opacity="0.1" d="M4.538 3.04247C3.17557 3.16605 2.15047 4.39566 2.27405 5.75809C2.39763 7.12052 3.62724 8.14561 4.98967 8.02203C6.3521 7.89845 7.37719 6.66885 7.25361 5.30642C7.13003 3.94399 5.90042 2.9189 4.538 3.04247ZM4.73157 5.17657C4.94065 5.15761 5.10055 5.29091 5.11952 5.49999C5.13848 5.70907 5.00517 5.86897 4.79609 5.88794C4.58702 5.9069 4.42711 5.77359 4.40815 5.56452C4.38919 5.35544 4.52249 5.19554 4.73157 5.17657Z" fill="#FED8CD"/>
<path fill-rule="evenodd" clip-rule="evenodd" d="M4.63483 4.10951C5.42058 4.03824 6.11533 4.61744 6.18661 5.40319C6.25788 6.18894 5.67868 6.8837 4.89293 6.95497C4.10717 7.02624 3.41242 6.44704 3.34115 5.66129C3.26987 4.87553 3.84907 4.18078 4.63483 4.10951Z" fill="#FCE94F"/>
<path fill-rule="evenodd" clip-rule="evenodd" d="M4.31133 4.6947C5.27387 4.60739 6.12495 5.31691 6.21226 6.27946C6.29956 7.24201 5.59004 8.09308 4.6275 8.18039C3.66495 8.2677 2.81387 7.55818 2.72657 6.59563C2.63926 5.63308 3.34878 4.78201 4.31133 4.6947Z" fill="#FCE94F"/>
<path d="M2.04011 11.4812L2.00785 11.1255C2.00785 11.1255 2.8518 10.4513 3.0995 10.3767C3.3472 10.3021 3.64908 10.3171 3.96064 10.3472C4.2722 10.377 4.73659 10.4134 4.87976 10.4054C5.02295 10.3974 5.27966 10.3565 5.57811 10.3112C5.87661 10.2662 6.37203 10.2047 6.52718 10.1925C6.68217 10.1784 7.07102 10.1647 7.48575 10.1524C7.90048 10.1403 8.4708 10.1311 8.6004 10.1312C8.73 10.1313 8.88305 10.1393 9.05665 10.1474C9.23024 10.1553 9.53028 10.1638 9.63617 10.1641C9.74205 10.1641 9.98853 10.1755 10.2733 10.1759C10.5582 10.1763 11.011 10.1442 11.1407 10.1227C11.2703 10.1013 11.5352 9.97977 11.832 9.86301C12.1289 9.74629 12.4577 9.63424 12.7153 9.63121C12.9728 9.62829 14.4567 9.99628 14.4567 9.99628L14.489 10.352L12.6217 10.5213L11.11 10.6585L9.59836 10.7956L8.08671 10.9327L6.57506 11.0698L5.06341 11.2069L3.55176 11.344L2.04011 11.4812Z" fill="black"/>
<path opacity="0.9" d="M2.0401 11.4812L2.06115 11.7133C2.06115 11.7133 2.99395 12.0186 3.2494 12.0295C3.50486 12.0403 3.80043 11.9859 4.10334 11.9204C4.40626 11.8551 4.85897 11.7627 5.00141 11.7466C5.14382 11.7301 5.40317 11.7184 5.70434 11.7029C6.00551 11.6874 6.50338 11.653 6.65824 11.6376C6.81323 11.6235 7.1989 11.5745 7.60985 11.5208C8.02081 11.467 8.5848 11.388 8.71263 11.3686C8.84045 11.3491 8.99028 11.3216 9.16032 11.2904C9.33039 11.2596 9.62512 11.2095 9.72955 11.1937C9.83397 11.1777 10.0755 11.1339 10.3564 11.0913C10.6373 11.0486 11.0888 11.0019 11.2199 10.9965C11.351 10.9911 11.6304 11.0292 11.9405 11.0597C12.2507 11.0901 12.5918 11.1128 12.8463 11.0765C13.1009 11.0401 14.5101 10.5843 14.5101 10.5843L14.489 10.3523L12.6217 10.5216L11.11 10.6588L9.59838 10.7959L8.08673 10.933L6.57508 11.0701L5.06342 11.2072L3.55177 11.3443L2.0401 11.4812Z" fill="black"/>
<path opacity="0.3" d="M2.0401 11.4812L14.489 10.352L14.5858 11.4191L2.13689 12.5482L2.0401 11.4812Z" fill="#4D585E"/>
<path opacity="0.2" d="M2.18203 13.0462L1.30127 3.33606L13.7502 2.20688L14.6309 11.917L2.18203 13.0462Z" stroke="black"/>
<path opacity="0.6" d="M15.5001 12.5H13.5264V13.75H15.5001V12.5Z" fill="url(#paint15_radial)"/>
<path opacity="0.6" d="M0.500006 13.75H2.47369V12.5H0.500006V13.75Z" fill="url(#paint16_radial)"/>
<path opacity="0.6" d="M13.5263 12.5H2.47369V13.75H13.5263V12.5Z" fill="url(#paint17_linear)"/>
<path opacity="0.35" d="M14.75 12.9993L14.75 2.25C14.75 2.25 5.75 2.25 1.25 2.25C1.25 5.83333 1.25 13 1.25 13L14.75 12.9993Z" stroke="black" stroke-linejoin="round"/>
<path d="M14.75 12.9993L14.75 2.25C14.75 2.25 5.75 2.25 1.25 2.25C1.25 5.83333 1.25 13 1.25 13L14.75 12.9993Z" fill="url(#paint18_linear)"/>
<path opacity="0.4" d="M14.75 12.9993L14.75 2.25C14.75 2.25 5.75 2.25 1.25 2.25C1.25 5.83333 1.25 13 1.25 13L14.75 12.9993Z" stroke="white" stroke-linejoin="round"/>
<path opacity="0.4" d="M1.25 2.25V2.5H14.75V2.25H1.25Z" fill="white"/>
<path d="M1.75 12.5V2.75H14.25V12.5H1.75Z" fill="url(#paint19_linear)"/>
<path opacity="0.1" d="M5.00001 3.46429C4.01802 3.46429 3.21429 4.26801 3.21429 5.25001C3.21429 6.232 4.01802 7.03572 5.00001 7.03572C5.982 7.03572 6.78572 6.232 6.78572 5.25001C6.78572 4.26801 5.982 3.46429 5.00001 3.46429ZM5.00001 4.17858C5.59597 4.17858 6.07144 4.65404 6.07144 5.25001C6.07144 5.84597 5.59597 6.32144 5.00001 6.32144C4.40404 6.32144 3.92858 5.84597 3.92858 5.25001C3.92858 4.65404 4.40404 4.17858 5.00001 4.17858Z" fill="#FED8CD"/>
<path opacity="0.1" d="M5.00003 3.10715C3.82503 3.10715 2.85718 4.075 2.85718 5.25C2.85718 6.42501 3.82503 7.39286 5.00003 7.39286C6.17504 7.39286 7.14289 6.42501 7.14289 5.25C7.14289 4.075 6.17504 3.10715 5.00003 3.10715ZM5.00003 4.53572C5.40298 4.53572 5.71432 4.84705 5.71432 5.25C5.71432 5.65295 5.40298 5.96429 5.00003 5.96429C4.59708 5.96429 4.28575 5.65295 4.28575 5.25C4.28575 4.84705 4.59708 4.53572 5.00003 4.53572Z" fill="#FED8CD"/>
<path opacity="0.1" d="M5 2.75C3.63198 2.75 2.5 3.88198 2.5 5.25C2.5 6.61802 3.63198 7.75 5 7.75C6.36802 7.75 7.5 6.61802 7.5 5.25C7.5 3.88198 6.36802 2.75 5 2.75ZM5 4.89286C5.20994 4.89286 5.35714 5.04006 5.35714 5.25C5.35714 5.45994 5.20994 5.60714 5 5.60714C4.79006 5.60714 4.64286 5.45994 4.64286 5.25C4.64286 5.04006 4.79006 4.89286 5 4.89286Z" fill="#FED8CD"/>
<path fill-rule="evenodd" clip-rule="evenodd" d="M5.00004 3.82144C5.78902 3.82144 6.42862 4.46104 6.42862 5.25001C6.42862 6.03899 5.78902 6.67859 5.00004 6.67859C4.21106 6.67859 3.57147 6.03899 3.57147 5.25001C3.57147 4.46104 4.21106 3.82144 5.00004 3.82144Z" fill="#FCE94F"/>
<path fill-rule="evenodd" clip-rule="evenodd" d="M4.625 4.375C5.5915 4.375 6.375 5.1585 6.375 6.125C6.375 7.0915 5.5915 7.875 4.625 7.875C3.6585 7.875 2.875 7.0915 2.875 6.125C2.875 5.1585 3.6585 4.375 4.625 4.375Z" fill="#FCE94F"/>
<path d="M1.75 10.9286V10.5714C1.75 10.5714 2.65141 9.97623 2.90483 9.9243C3.15826 9.87237 3.45754 9.91466 3.76512 9.97269C4.07271 10.0305 4.53191 10.1088 4.67523 10.1137C4.81855 10.1187 5.0779 10.1012 5.37923 10.083C5.68057 10.0651 6.17951 10.0487 6.33514 10.0505C6.49076 10.0505 6.87927 10.0719 7.29341 10.0972C7.70755 10.1225 8.27636 10.1649 8.40542 10.1768C8.53448 10.1885 8.68619 10.2103 8.85835 10.2341C9.0305 10.2577 9.32855 10.2933 9.43399 10.303C9.53942 10.3127 9.78387 10.3463 10.0675 10.3724C10.3511 10.3985 10.805 10.4074 10.9361 10.3978C11.0671 10.3881 11.3419 10.291 11.6481 10.2016C11.9542 10.1122 12.2918 10.0303 12.5486 10.0505C12.8054 10.0709 14.25 10.5714 14.25 10.5714V10.9285H12.375H10.8571H9.33929H7.82143H6.30357H4.78571H3.26786L1.75 10.9286Z" fill="black"/>
<path opacity="0.9" d="M1.75 10.9286V11.1616C1.75 11.1616 2.65141 11.5499 2.90483 11.5838C3.15826 11.6178 3.45754 11.5903 3.76512 11.5524C4.07271 11.5147 4.53191 11.4636 4.67523 11.4604C4.81855 11.4568 5.0779 11.4686 5.37923 11.4804C5.68057 11.4922 6.17951 11.5029 6.33514 11.5015C6.49076 11.5015 6.87927 11.4876 7.29341 11.4711C7.70755 11.4547 8.27636 11.4269 8.40542 11.4192C8.53448 11.4114 8.68619 11.3974 8.85835 11.3818C9.0305 11.3664 9.32855 11.3432 9.43399 11.3368C9.53942 11.3304 9.78387 11.3086 10.0675 11.2916C10.3511 11.2744 10.805 11.2687 10.9361 11.2751C11.0671 11.2816 11.3419 11.3448 11.6481 11.4031C11.9542 11.4615 12.2918 11.5149 12.5486 11.5017C12.8054 11.4885 14.25 11.1618 14.25 11.1618V10.9288H12.375H10.8571H9.33929H7.82143H6.30357H4.78571H3.26786L1.75 10.9286Z" fill="black"/>
<path opacity="0.3" d="M1.75 10.9286H14.25V12H1.75V10.9286Z" fill="#4D585E"/>
<path opacity="0.2" d="M1.75 12.5V2.75H14.25V12.5H1.75Z" stroke="black" stroke-width="0.5"/>
<path d="M8 4H8.56533H8ZM8.64824 4H9.17588H8.64824ZM9.25879 4H9.72613H9.25879ZM9.80151 4H10.005H9.80151ZM10.0879 4H10.5402H10.0879ZM10.6307 4H11.8216H10.6307ZM11.897 4H12.809H11.897ZM12.8844 4H13.1633H12.8844ZM8 4.21429H8.88191H8ZM8.9799 4.21429H9.40201H8.9799ZM9.47739 4.21429H9.68844H9.47739ZM9.77136 4.21429H10.1558H9.77136ZM10.2387 4.21429H10.6307H10.2387ZM10.706 4.21429H11.3317H10.706ZM11.4146 4.21429H12.2286H11.4146ZM12.304 4.21429H12.8467H12.304ZM12.9221 4.21429H13.0578H12.9221ZM8 4.42697H8.74623H8ZM8.82161 4.42697H10.0427H8.82161ZM10.1181 4.42697H10.7136H10.1181ZM10.7889 4.42697H11.3467H10.7889ZM11.4221 4.42697H11.897H11.4221ZM11.9724 4.42697L12.7186 4.43017L11.9724 4.42697ZM12.7864 4.43017H14H12.7864ZM8 4.64286H9.03266H8ZM9.11558 4.64286H10.2312H9.11558ZM10.3065 4.64286H10.7513H10.3065ZM10.8266 4.64286H11.8744H10.8266ZM11.9422 4.64286H12.6583H11.9422ZM12.7412 4.64286H13.0276H12.7412ZM13.103 4.64286H13.2613H13.103ZM13.3442 4.64286H13.7889H13.3442ZM8 4.85714H8.38442H8ZM8.50503 4.85714H9.92965H8.50503ZM8 5.28412H8.74623H8ZM8.82161 5.28412H10.0427H8.82161ZM10.1181 5.28412H10.7136H10.1181ZM10.7889 5.28412H11.3467H10.7889ZM11.4221 5.28412H11.897H11.4221ZM11.9724 5.28412L12.7186 5.28731L11.9724 5.28412ZM12.7864 5.28731H14H12.7864ZM8 5.5H8.94975H8ZM9.02513 5.5H10.0427H9.02513ZM10.1181 5.5H10.5101H10.1181ZM10.5854 5.5H11.5427H10.5854ZM11.6181 5.5H12.8241H11.6181ZM12.907 5.5H13.3518H12.907ZM8 5.71429H9.03266H8ZM9.11558 5.71429H10.2312H9.11558ZM10.3065 5.71429H10.7513H10.3065ZM10.8266 5.71429H11.8744H10.8266ZM11.9422 5.71429H12.6583H11.9422ZM12.7412 5.71429H13.0276H12.7412ZM13.103 5.71429H13.2613H13.103ZM13.3442 5.71429H13.7889H13.3442ZM8 5.92857H8.88191H8ZM8.9799 5.92857H9.40201H8.9799ZM9.47739 5.92857H9.68844H9.47739ZM9.77136 5.92857H10.1558H9.77136ZM10.2387 5.92857H10.6307H10.2387ZM10.706 5.92857H11.3317H10.706ZM11.4146 5.92857H12.2286H11.4146ZM12.304 5.92857H12.8467H12.304ZM12.9221 5.92857H13.0578H12.9221ZM8 6.35555H8.74623H8ZM8.82161 6.35555H10.0427H8.82161ZM10.1181 6.35555H10.7136H10.1181ZM10.7889 6.35555H11.3467H10.7889ZM11.4221 6.35555H11.897H11.4221ZM11.9724 6.35555L12.7186 6.35874L11.9724 6.35555ZM12.7864 6.35874H14H12.7864ZM8 6.57143H8.88191H8ZM8.9799 6.57143H9.40201H8.9799ZM9.47739 6.57143H9.68844H9.47739ZM9.77136 6.57143H10.1558H9.77136ZM10.2387 6.57143H10.6307H10.2387ZM10.706 6.57143H11.3317H10.706ZM11.4146 6.57143H12.2286H11.4146ZM12.304 6.57143H12.8467H12.304ZM12.9221 6.57143H13.0578H12.9221ZM8 6.78571H8.93467H8ZM9.01759 6.78571H9.31156H9.01759ZM9.38694 6.78571H10.0578H9.38694ZM10.1332 6.78571H11.1206H10.1332ZM11.2035 6.78571H11.8744H11.2035ZM11.9422 6.78571H12.0854H11.9422ZM12.1608 6.78571H13.0126H12.1608ZM13.103 6.78571H13.5477H13.103ZM8 7H8.93467H8ZM9.01759 7H9.4397H9.01759ZM9.51508 7H10.1784H9.51508ZM10.2538 7H10.9698H10.2538ZM11.0528 7H11.3392H11.0528ZM11.4146 7H11.5729H11.4146ZM11.6558 7H12.1005H11.6558Z" stroke="url(#paint20_linear)" stroke-width="0.2"/>
<path d="M8 8H8.37688H8ZM8.43216 8H8.78392H8.43216ZM8.8392 8H9.15075H8.8392ZM9.20101 8H9.33668H9.20101ZM9.39196 8H9.69347H9.39196ZM9.75377 8H10.5477H9.75377ZM10.598 8H11.206H10.598ZM11.2563 8H11.4422H11.2563ZM8 8.14286H8.58794H8ZM8.65327 8.14286H8.93467H8.65327ZM8.98492 8.14286H9.12563H8.98492ZM9.1809 8.14286H9.43719H9.1809ZM9.49246 8.14286H9.75377H9.49246ZM9.80402 8.14286H10.2211H9.80402ZM10.2764 8.14286H10.8191H10.2764ZM10.8693 8.14286H11.2312H10.8693ZM11.2814 8.14286H11.3719H11.2814ZM8 8.28465H8.49749H8ZM8.54774 8.28465H9.36181H8.54774ZM9.41206 8.28465H9.80905H9.41206ZM9.8593 8.28465H10.2312H9.8593ZM10.2814 8.28465H10.598H10.2814ZM10.6482 8.28465L11.1457 8.28678L10.6482 8.28465ZM11.191 8.28678H12H11.191ZM8 8.42857H8.68844H8ZM8.74372 8.42857H9.48744H8.74372ZM9.53769 8.42857H9.83417H9.53769ZM9.88442 8.42857H10.5829H9.88442ZM10.6281 8.42857H11.1055H10.6281ZM11.1608 8.42857H11.3518H11.1608ZM11.402 8.42857H11.5075H11.402ZM11.5628 8.42857H11.8593H11.5628ZM8 8.57143H8.25628H8ZM8.33668 8.57143H9.28643H8.33668ZM8 8.85608H8.49749H8ZM8.54774 8.85608H9.36181H8.54774ZM9.41206 8.85608H9.80905H9.41206ZM9.8593 8.85608H10.2312H9.8593ZM10.2814 8.85608H10.598H10.2814ZM10.6482 8.85608L11.1457 8.85821L10.6482 8.85608ZM11.191 8.85821H12H11.191ZM8 9H8.63317H8ZM8.68342 9H9.36181H8.68342ZM9.41206 9H9.67337H9.41206ZM9.72362 9H10.3618H9.72362ZM10.4121 9H11.2161H10.4121ZM11.2714 9H11.5678H11.2714ZM8 9.14286H8.68844H8ZM8.74372 9.14286H9.48744H8.74372ZM9.53769 9.14286H9.83417H9.53769ZM9.88442 9.14286H10.5829H9.88442ZM10.6281 9.14286H11.1055H10.6281ZM11.1608 9.14286H11.3518H11.1608ZM11.402 9.14286H11.5075H11.402ZM11.5628 9.14286H11.8593H11.5628ZM8 9.28571H8.58794H8ZM8.65327 9.28571H8.93467H8.65327ZM8.98492 9.28571H9.12563H8.98492ZM9.1809 9.28571H9.43719H9.1809ZM9.49246 9.28571H9.75377H9.49246ZM9.80402 9.28571H10.2211H9.80402ZM10.2764 9.28571H10.8191H10.2764ZM10.8693 9.28571H11.2312H10.8693ZM11.2814 9.28571H11.3719H11.2814ZM8 9.57036H8.49749H8ZM8.54774 9.57036H9.36181H8.54774ZM9.41206 9.57036H9.80905H9.41206ZM9.8593 9.57036H10.2312H9.8593ZM10.2814 9.57036H10.598H10.2814ZM10.6482 9.57036L11.1457 9.57249L10.6482 9.57036ZM11.191 9.57249H12H11.191ZM8 9.71429H8.58794H8ZM8.65327 9.71429H8.93467H8.65327ZM8.98492 9.71429H9.12563H8.98492ZM9.1809 9.71429H9.43719H9.1809ZM9.49246 9.71429H9.75377H9.49246ZM9.80402 9.71429H10.2211H9.80402ZM10.2764 9.71429H10.8191H10.2764ZM10.8693 9.71429H11.2312H10.8693ZM11.2814 9.71429H11.3719H11.2814ZM8 9.85714H8.62312H8ZM8.67839 9.85714H8.87437H8.67839ZM8.92462 9.85714H9.37186H8.92462ZM9.42211 9.85714H10.0804H9.42211ZM10.1357 9.85714H10.5829H10.1357ZM10.6281 9.85714H10.7236H10.6281ZM10.7739 9.85714H11.3417H10.7739ZM11.402 9.85714H11.6985H11.402ZM8 10H8.62312H8ZM8.67839 10H8.9598H8.67839ZM9.01005 10H9.45226H9.01005ZM9.50251 10H9.9799H9.50251ZM10.0352 10H10.2261H10.0352ZM10.2764 10H10.3819H10.2764ZM10.4372 10H10.7337H10.4372Z" stroke="url(#paint21_linear)" stroke-width="0.2"/>
<path opacity="0.6" d="M12 7H7V11H12V7Z" fill="#FCE94F"/>
<path fill-rule="evenodd" clip-rule="evenodd" d="M10.6749 6.48566L12.4315 8.20427L15.5055 5.1967C15.7742 4.98021 15.5055 4.76705 15.5055 4.76705L14.1881 3.47809C14.1881 3.47809 13.986 3.24614 13.7489 3.47809L10.6749 6.48566Z" stroke="#BF830A" stroke-linejoin="round"/>
<path fill-rule="evenodd" clip-rule="evenodd" d="M10.6749 6.4881L12.4265 8.20427L15.4918 5.20097C15.7913 4.98479 15.4918 4.77193 15.4918 4.77193L14.1781 3.48481C14.1781 3.48481 13.9609 3.23774 13.7402 3.48481L10.6749 6.4881Z" fill="url(#paint22_linear)"/>
<path fill-rule="evenodd" clip-rule="evenodd" d="M10.5834 6.64709V7.46832L11.4223 8.28954H12.2612L10.5834 6.64709Z" stroke="#838383" stroke-linejoin="round"/>
<path fill-rule="evenodd" clip-rule="evenodd" d="M10.5834 6.64709V7.46832L11.4223 8.28954H12.2612L10.5834 6.64709Z" fill="#CECECE"/>
<path fill-rule="evenodd" clip-rule="evenodd" d="M9.625 8.81808H10.4639L10.8834 8.40747L10.4639 7.99686L9.625 8.81808Z" stroke="#BF830A" stroke-linejoin="round"/>
<path fill-rule="evenodd" clip-rule="evenodd" d="M10.6284 7.77109L10.3138 8.14321L10.7333 8.55382L11.0872 8.28435L10.6284 7.77109Z" stroke="#838383"/>
<path opacity="0.1" d="M12.5423 9.37505C13.9613 9.37505 15.1115 9.17973 15.1115 8.93878C15.1115 8.69783 13.9613 8.5025 12.5423 8.5025C11.1234 8.5025 9.97308 8.69783 9.97308 8.93878C9.97308 9.17973 11.1234 9.37505 12.5423 9.37505Z" fill="url(#paint23_radial)"/>
<path fill-rule="evenodd" clip-rule="evenodd" d="M10.6284 7.77109L10.3138 8.14321L10.7333 8.55382L11.0872 8.28435L10.6284 7.77109Z" fill="#CECECE"/>
<path fill-rule="evenodd" clip-rule="evenodd" d="M9.625 8.81808H10.4639L10.8834 8.40747L10.4639 7.99686L9.625 8.81808Z" fill="#FCE94F"/>
<path opacity="0.5" d="M11.3041 6.26193L13.9126 3.70844" stroke="white" stroke-linecap="round"/>
<path opacity="0.5" d="M10.7087 7.4067L10.7064 6.94308" stroke="white" stroke-linecap="round"/>
<path opacity="0.1" d="M12.6411 7.60043L15.2497 5.04694" stroke="black" stroke-linecap="round"/>
<path opacity="0.1" d="M11.552 8.07504L11.9176 8.20486" stroke="black" stroke-linecap="round"/>
<path d="M6.15081 9.14909C6.15087 9.22184 6.10336 9.29388 6.01101 9.3611C5.91865 9.42832 5.78325 9.4894 5.61255 9.54084C5.44184 9.59229 5.23917 9.6331 5.01611 9.66095C4.79305 9.68879 4.55397 9.70312 4.31252 9.70312C4.07108 9.70312 3.832 9.68879 3.60894 9.66095C3.38588 9.6331 3.18321 9.59229 3.0125 9.54084C2.84179 9.4894 2.7064 9.42832 2.61404 9.3611C2.52169 9.29388 2.47418 9.22184 2.47424 9.14909C2.47418 9.07634 2.52169 9.0043 2.61404 8.93709C2.7064 8.86987 2.84179 8.80879 3.0125 8.75734C3.18321 8.70589 3.38588 8.66508 3.60894 8.63724C3.832 8.60939 4.07108 8.59506 4.31252 8.59506C4.55397 8.59506 4.79305 8.60939 5.01611 8.63724C5.23917 8.66508 5.44184 8.70589 5.61255 8.75734C5.78325 8.80879 5.91865 8.86987 6.01101 8.93709C6.10336 9.0043 6.15087 9.07634 6.15081 9.14909Z" fill="url(#paint24_radial)" fill-opacity="0.5"/>
<path d="M4.31249 4.50006C3.03655 4.50006 2 5.5366 2 6.81255C2 8.0885 3.03655 9.12504 4.31249 9.12504C5.58846 9.12504 6.625 8.0885 6.625 6.81255C6.625 5.5366 5.58846 4.50006 4.31249 4.50006Z" fill="url(#paint25_radial)" fill-opacity="0.5"/>
<path opacity="0.75" d="M4.31235 5.89744C4.9762 5.89744 5.51436 5.64939 5.51436 5.3434C5.51436 5.03742 4.9762 4.78937 4.31235 4.78937C3.64851 4.78937 3.11035 5.03742 3.11035 5.3434C3.11035 5.64939 3.64851 5.89744 4.31235 5.89744Z" fill="url(#paint26_linear)"/>
<path opacity="0.25" d="M4.31249 4.5C3.03654 4.5 2 5.53654 2 6.8125C2 8.08846 3.03654 9.125 4.31249 9.125C5.58846 9.125 6.625 8.08846 6.625 6.8125C6.625 5.53654 5.58846 4.5 4.31249 4.5V4.5Z" stroke="black" stroke-width="0.5" stroke-linecap="round" stroke-linejoin="round"/>
</g>
<defs>
<radialGradient id="paint0_radial" cx="0" cy="0" r="1" gradientUnits="userSpaceOnUse" gradientTransform="translate(14.6291 11.2603) rotate(-17.7761) scale(1.85317 0.625)">
<stop stop-color="#181818"/>
<stop offset="1" stop-color="#181818" stop-opacity="0"/>
</radialGradient>
<radialGradient id="paint1_radial" cx="0" cy="0" r="1" gradientUnits="userSpaceOnUse" gradientTransform="translate(4.7704 14.421) rotate(162.224) scale(1.85317 0.625)">
<stop stop-color="#181818"/>
<stop offset="1" stop-color="#181818" stop-opacity="0"/>
</radialGradient>
<linearGradient id="paint2_linear" x1="10.2648" y1="13.321" x2="9.88165" y2="12.1258" gradientUnits="userSpaceOnUse">
<stop stop-color="#181818" stop-opacity="0"/>
<stop offset="0.5" stop-color="#181818"/>
<stop offset="1" stop-color="#181818" stop-opacity="0"/>
</linearGradient>
<linearGradient id="paint3_linear" x1="10.4631" y1="15.2213" x2="5.57832" y2="-0.0148356" gradientUnits="userSpaceOnUse">
<stop stop-color="#EDEDED"/>
<stop offset="1" stop-color="white"/>
</linearGradient>
<linearGradient id="paint4_linear" x1="7.40843" y1="12.0887" x2="4.02953" y2="1.54957" gradientUnits="userSpaceOnUse">
<stop stop-color="#16538C"/>
<stop offset="0.362069" stop-color="#3594CA"/>
<stop offset="1" stop-color="#4EDFF3"/>
</linearGradient>
<radialGradient id="paint5_radial" cx="0" cy="0" r="1" gradientUnits="userSpaceOnUse" gradientTransform="translate(14.3732 12.0198) rotate(-10.6156) scale(1.97742 0.624999)">
<stop stop-color="#181818"/>
<stop offset="1" stop-color="#181818" stop-opacity="0"/>
</radialGradient>
<radialGradient id="paint6_radial" cx="0" cy="0" r="1" gradientUnits="userSpaceOnUse" gradientTransform="translate(3.51509 14.0548) rotate(169.384) scale(1.97742 0.625)">
<stop stop-color="#181818"/>
<stop offset="1" stop-color="#181818" stop-opacity="0"/>
</radialGradient>
<linearGradient id="paint7_linear" x1="9.47067" y1="13.5795" x2="9.23946" y2="12.3459" gradientUnits="userSpaceOnUse">
<stop stop-color="#181818" stop-opacity="0"/>
<stop offset="0.5" stop-color="#181818"/>
<stop offset="1" stop-color="#181818" stop-opacity="0"/>
</linearGradient>
<linearGradient id="paint8_linear" x1="9.40467" y1="15.4945" x2="6.45718" y2="-0.231692" gradientUnits="userSpaceOnUse">
<stop stop-color="#EDEDED"/>
<stop offset="1" stop-color="white"/>
</linearGradient>
<linearGradient id="paint9_linear" x1="6.63569" y1="12.0298" x2="4.59684" y2="1.1516" gradientUnits="userSpaceOnUse">
<stop stop-color="#16538C"/>
<stop offset="0.362069" stop-color="#3594CA"/>
<stop offset="1" stop-color="#4EDFF3"/>
</linearGradient>
<radialGradient id="paint10_radial" cx="0" cy="0" r="1" gradientUnits="userSpaceOnUse" gradientTransform="translate(13.9639 12.6051) rotate(-5.18283) scale(1.97742 0.625)">
<stop stop-color="#181818"/>
<stop offset="1" stop-color="#181818" stop-opacity="0"/>
</radialGradient>
<radialGradient id="paint11_radial" cx="0" cy="0" r="1" gradientUnits="userSpaceOnUse" gradientTransform="translate(2.96199 13.603) rotate(174.817) scale(1.97742 0.625)">
<stop stop-color="#181818"/>
<stop offset="1" stop-color="#181818" stop-opacity="0"/>
</radialGradient>
<linearGradient id="paint12_linear" x1="8.93583" y1="13.6937" x2="8.82246" y2="12.4438" gradientUnits="userSpaceOnUse">
<stop stop-color="#181818" stop-opacity="0"/>
<stop offset="0.5" stop-color="#181818"/>
<stop offset="1" stop-color="#181818" stop-opacity="0"/>
</linearGradient>
<linearGradient id="paint13_linear" x1="8.6888" y1="15.5938" x2="7.24345" y2="-0.340754" gradientUnits="userSpaceOnUse">
<stop stop-color="#EDEDED"/>
<stop offset="1" stop-color="white"/>
</linearGradient>
<linearGradient id="paint14_linear" x1="6.26025" y1="11.8825" x2="5.26047" y2="0.860177" gradientUnits="userSpaceOnUse">
<stop stop-color="#16538C"/>
<stop offset="0.362069" stop-color="#3594CA"/>
<stop offset="1" stop-color="#4EDFF3"/>
</linearGradient>
<radialGradient id="paint15_radial" cx="0" cy="0" r="1" gradientUnits="userSpaceOnUse" gradientTransform="translate(13.5236 13.125) scale(1.97742 0.625)">
<stop stop-color="#181818"/>
<stop offset="1" stop-color="#181818" stop-opacity="0"/>
</radialGradient>
<radialGradient id="paint16_radial" cx="0" cy="0" r="1" gradientUnits="userSpaceOnUse" gradientTransform="translate(2.47646 13.125) rotate(180) scale(1.97742 0.625)">
<stop stop-color="#181818"/>
<stop offset="1" stop-color="#181818" stop-opacity="0"/>
</radialGradient>
<linearGradient id="paint17_linear" x1="8.41769" y1="13.755" x2="8.41769" y2="12.4999" gradientUnits="userSpaceOnUse">
<stop stop-color="#181818" stop-opacity="0"/>
<stop offset="0.5" stop-color="#181818"/>
<stop offset="1" stop-color="#181818" stop-opacity="0"/>
</linearGradient>
<linearGradient id="paint18_linear" x1="8" y1="15.625" x2="8" y2="-0.375" gradientUnits="userSpaceOnUse">
<stop stop-color="#EDEDED"/>
<stop offset="1" stop-color="white"/>
</linearGradient>
<linearGradient id="paint19_linear" x1="5.91667" y1="11.7095" x2="5.91667" y2="0.641891" gradientUnits="userSpaceOnUse">
<stop stop-color="#16538C"/>
<stop offset="0.362069" stop-color="#3594CA"/>
<stop offset="1" stop-color="#4EDFF3"/>
</linearGradient>
<linearGradient id="paint20_linear" x1="10.1762" y1="7.64077" x2="10.1762" y2="3.09539" gradientUnits="userSpaceOnUse">
<stop stop-color="#D4D4D4"/>
<stop offset="1" stop-color="#FAFAFA"/>
</linearGradient>
<linearGradient id="paint21_linear" x1="9.45077" y1="10.4272" x2="9.45077" y2="7.39693" gradientUnits="userSpaceOnUse">
<stop stop-color="#D4D4D4"/>
<stop offset="1" stop-color="#FAFAFA"/>
</linearGradient>
<linearGradient id="paint22_linear" x1="12.4484" y1="4.81864" x2="14.1448" y2="6.42469" gradientUnits="userSpaceOnUse">
<stop stop-color="#FCE94F"/>
<stop offset="1" stop-color="#D7B031"/>
</linearGradient>
<radialGradient id="paint23_radial" cx="0" cy="0" r="1" gradientUnits="userSpaceOnUse" gradientTransform="translate(12.5423 8.93878) scale(2.56922 0.436275)">
<stop/>
<stop offset="1" stop-opacity="0"/>
</radialGradient>
<radialGradient id="paint24_radial" cx="0" cy="0" r="1" gradientUnits="userSpaceOnUse" gradientTransform="translate(4.31252 9.14909) scale(1.83828 0.553893)">
<stop stop-color="#3D3D3D"/>
<stop offset="0.5" stop-color="#686868" stop-opacity="0.498039"/>
<stop offset="1" stop-color="#686868" stop-opacity="0"/>
</radialGradient>
<radialGradient id="paint25_radial" cx="0" cy="0" r="1" gradientUnits="userSpaceOnUse" gradientTransform="translate(4.31255 4.74456) rotate(90) scale(6.64611 8.77281)">
<stop stop-color="#C8C8C8"/>
<stop offset="0.625454" stop-color="#FCFCFC"/>
<stop offset="1" stop-color="#89898B"/>
</radialGradient>
<linearGradient id="paint26_linear" x1="4.38392" y1="5.94439" x2="4.38392" y2="4.77707" gradientUnits="userSpaceOnUse">
<stop stop-color="white" stop-opacity="0.2"/>
<stop offset="1" stop-color="white" stop-opacity="0.998934"/>
</linearGradient>
<clipPath id="clip0">
<rect width="16" height="16" fill="white"/>
</clipPath>
</defs>
</svg>
