<svg width="24" height="24" viewBox="0 0 24 24" fill="none" xmlns="http://www.w3.org/2000/svg">
<g clip-path="url(#clip0)">
<path opacity="0.6" d="M24.3032 15.1494L21.6612 15.9965L22.2336 17.7819L24.8757 16.9349L24.3032 15.1494Z" fill="url(#paint0_radial)"/>
<path opacity="0.6" d="M4.7962 23.3724L7.43823 22.5254L6.8658 20.7399L4.22376 21.587L4.7962 23.3724Z" fill="url(#paint1_radial)"/>
<path opacity="0.6" d="M21.6612 15.9964L6.86584 20.7399L7.43828 22.5254L22.2337 17.7819L21.6612 15.9964Z" fill="url(#paint2_linear)"/>
<path opacity="0.35" d="M23.5279 16.1844L18.6053 0.83031C18.6053 0.83031 6.55765 4.69285 0.533813 6.62411C2.17479 11.7425 5.45674 21.9793 5.45674 21.9793L23.5279 16.1844Z" stroke="black" stroke-linejoin="round"/>
<path d="M23.5279 16.1844L18.6053 0.83031C18.6053 0.83031 6.55765 4.69285 0.533813 6.62411C2.17479 11.7425 5.45674 21.9793 5.45674 21.9793L23.5279 16.1844Z" fill="url(#paint3_linear)"/>
<path opacity="0.4" d="M23.5279 16.1844L18.6053 0.83031C18.6053 0.83031 6.55765 4.69285 0.533813 6.62411C2.17479 11.7425 5.45674 21.9793 5.45674 21.9793L23.5279 16.1844Z" stroke="white" stroke-linejoin="round"/>
<path opacity="0.4" d="M0.533813 6.62411L0.6483 6.98121L18.7198 1.18741L18.6053 0.830311L0.533813 6.62411Z" fill="white"/>
<path d="M5.89705 21.0505L1.43207 7.12372L18.1649 1.75908L22.6299 15.6858L5.89705 21.0505Z" fill="url(#paint4_linear)"/>
<path opacity="0.1" d="M6.10977 6.74919C4.79524 7.17063 4.08742 8.66359 4.53712 10.0663C4.98682 11.4689 6.43077 12.272 7.74529 11.8506C9.05982 11.4291 9.76764 9.93616 9.31794 8.5335C8.86824 7.13083 7.42429 6.32775 6.10977 6.74919ZM6.43687 7.76946C7.23465 7.51369 8.08886 7.98878 8.36178 8.84005C8.6347 9.69131 8.21596 10.5745 7.41819 10.8303C6.62041 11.0861 5.76621 10.611 5.49329 9.7597C5.22037 8.90843 5.6391 8.02523 6.43687 7.76946Z" fill="#FED8CD"/>
<path opacity="0.1" d="M5.94619 6.23904C4.37329 6.74332 3.52092 8.54115 4.05901 10.2195C4.5971 11.8979 6.33592 12.865 7.90882 12.3607C9.48172 11.8564 10.3341 10.0586 9.79599 8.38021C9.2579 6.70185 7.51909 5.73476 5.94619 6.23904ZM6.6004 8.27959C7.1398 8.10666 7.69914 8.41775 7.88367 8.99331C8.0682 9.56888 7.79401 10.1472 7.25461 10.3201C6.71521 10.4931 6.15587 10.182 5.97134 9.60642C5.78681 9.03085 6.061 8.45253 6.6004 8.27959Z" fill="#FED8CD"/>
<path opacity="0.1" d="M5.78267 5.72892C3.9514 6.31604 2.95448 8.41875 3.58096 10.3728C4.20744 12.3269 6.24113 13.458 8.0724 12.8708C9.90368 12.2837 10.9006 10.181 10.2741 8.22696C9.64763 6.2729 7.61394 5.14181 5.78267 5.72892ZM6.76398 8.78975C7.04501 8.69965 7.30948 8.84674 7.40562 9.14661C7.50176 9.44648 7.37211 9.71993 7.09109 9.81002C6.81006 9.90012 6.54559 9.75303 6.44945 9.45316C6.35331 9.15329 6.48296 8.87985 6.76398 8.78975Z" fill="#FED8CD"/>
<path fill-rule="evenodd" clip-rule="evenodd" d="M6.27335 7.25934C7.3295 6.92073 8.47858 7.55982 8.83989 8.68679C9.2012 9.81375 8.63792 11.0018 7.58177 11.3404C6.52562 11.679 5.37654 11.04 5.01523 9.91299C4.65392 8.78602 5.2172 7.59794 6.27335 7.25934Z" fill="#FCE94F"/>
<path fill-rule="evenodd" clip-rule="evenodd" d="M6.02485 8.21096C7.31864 7.79616 8.72626 8.57905 9.16886 9.95958C9.61147 11.3401 8.92145 12.7955 7.62767 13.2103C6.33388 13.6251 4.92626 12.8422 4.48366 11.4617C4.04105 10.0811 4.73107 8.62575 6.02485 8.21096Z" fill="#FCE94F"/>
<path d="M5.17745 18.8059L5.0139 18.2957C5.0139 18.2957 5.94797 17.0587 6.26343 16.8757C6.5789 16.6928 6.99889 16.6248 7.43721 16.5757C7.87544 16.5263 8.52598 16.441 8.72007 16.3865C8.91421 16.3321 9.25337 16.1958 9.6484 16.0405C10.0436 15.8856 10.704 15.648 10.9131 15.5838C11.1214 15.517 11.6513 15.3809 12.2173 15.2393C12.7833 15.0977 13.5641 14.9141 13.7423 14.8757C13.9205 14.8371 14.1335 14.8031 14.3748 14.7632C14.6161 14.723 15.0314 14.6459 15.177 14.6146C15.3226 14.5832 15.6652 14.5262 16.0568 14.4418C16.4484 14.3573 17.06 14.1753 17.2311 14.1053C17.4021 14.0352 17.7255 13.7787 18.0943 13.5195C18.4632 13.2603 18.8777 12.9985 19.2307 12.9172C19.5838 12.8361 21.7467 12.9311 21.7467 12.9311L21.9103 13.4412L19.4004 14.2459L17.3685 14.8973L15.3367 15.5487L13.3048 16.2001L11.273 16.8516L9.24113 17.503L7.20928 18.1544L5.17745 18.8059Z" fill="black"/>
<path opacity="0.9" d="M5.17743 18.8059L5.28415 19.1387C5.28415 19.1387 6.66863 19.3066 7.02339 19.2462C7.37818 19.1859 7.76621 19.0182 8.16061 18.8321C8.55507 18.6462 9.14638 18.3761 9.33677 18.3101C9.52698 18.2435 9.87956 18.149 10.2883 18.0365C10.6971 17.924 11.3699 17.7252 11.5776 17.6564C11.7859 17.5896 12.2996 17.403 12.8465 17.2018C13.3933 17.0006 14.142 16.7168 14.3113 16.6504C14.4804 16.5838 14.6771 16.4988 14.9004 16.4026C15.1238 16.3067 15.5122 16.1457 15.6504 16.0913C15.7886 16.0368 16.1058 15.9008 16.4777 15.7547C16.8495 15.6085 17.4545 15.4055 17.6329 15.3585C17.8113 15.3114 18.208 15.2838 18.6446 15.2357C19.0811 15.1877 19.5575 15.1191 19.8952 14.99C20.2329 14.861 22.0171 13.7744 22.0171 13.7744L21.9104 13.4416L19.4005 14.2463L17.3686 14.8977L15.3368 15.5491L13.3049 16.2006L11.2731 16.852L9.24124 17.5034L7.20939 18.1548L5.17743 18.8059Z" fill="black"/>
<path opacity="0.3" d="M5.17743 18.8059L21.9103 13.4412L22.401 14.9717L5.66809 20.3363L5.17743 18.8059Z" fill="#4D585E"/>
<path opacity="0.2" d="M5.89705 21.0505L1.43207 7.12372L18.1649 1.75908L22.6299 15.6858L5.89705 21.0505Z" stroke="black"/>
<path opacity="0.6" d="M24.301 16.562L21.3911 17.1074L21.7365 18.9503L24.6464 18.4049L24.301 16.562Z" fill="url(#paint5_radial)"/>
<path opacity="0.6" d="M2.53136 22.5499L5.44122 22.0045L5.09581 20.1616L2.18595 20.707L2.53136 22.5499Z" fill="url(#paint6_radial)"/>
<path opacity="0.6" d="M21.3911 17.1074L5.09583 20.1616L5.44124 22.0045L21.7365 18.9503L21.3911 17.1074Z" fill="url(#paint7_linear)"/>
<path opacity="0.35" d="M23.3331 17.5053L20.3628 1.65742C20.3628 1.65742 7.09389 4.14437 0.459412 5.38785C1.44959 10.6709 3.42994 21.2369 3.42994 21.2369L23.3331 17.5053Z" stroke="black" stroke-linejoin="round"/>
<path d="M23.3331 17.5053L20.3628 1.65742C20.3628 1.65742 7.09389 4.14437 0.459412 5.38785C1.44959 10.6709 3.42994 21.2369 3.42994 21.2369L23.3331 17.5053Z" fill="url(#paint8_linear)"/>
<path opacity="0.4" d="M23.3331 17.5053L20.3628 1.65742C20.3628 1.65742 7.09389 4.14437 0.459412 5.38785C1.44959 10.6709 3.42994 21.2369 3.42994 21.2369L23.3331 17.5053Z" stroke="white" stroke-linejoin="round"/>
<path opacity="0.4" d="M0.459412 5.38785L0.528494 5.75643L20.4319 2.026L20.3628 1.65742L0.459412 5.38785Z" fill="white"/>
<path d="M4.02891 20.3615L1.33472 5.98685L19.7638 2.53275L22.458 16.9074L4.02891 20.3615Z" fill="url(#paint9_linear)"/>
<path opacity="0.1" d="M6.32371 6.14187C4.87593 6.41322 3.91307 7.82026 4.18442 9.26804C4.45577 10.7158 5.86281 11.6787 7.31059 11.4073C8.75837 11.136 9.72123 9.72894 9.44988 8.28116C9.17853 6.83338 7.77149 5.87052 6.32371 6.14187ZM6.52108 7.19496C7.39973 7.03028 8.23211 7.59989 8.39679 8.47853C8.56147 9.35718 7.99186 10.1896 7.11322 10.3542C6.23457 10.5189 5.40219 9.94931 5.23751 9.07067C5.07283 8.19202 5.64244 7.35964 6.52108 7.19496Z" fill="#FED8CD"/>
<path opacity="0.1" d="M6.22501 5.61533C4.49266 5.94001 3.33318 7.63439 3.65787 9.36673C3.98255 11.0991 5.67693 12.2586 7.40927 11.9339C9.14162 11.6092 10.3011 9.91482 9.97641 8.18247C9.65173 6.45012 7.95736 5.29064 6.22501 5.61533ZM6.61976 7.72151C7.21384 7.61016 7.75889 7.98314 7.87023 8.57722C7.98158 9.1713 7.6086 9.71635 7.01452 9.82769C6.42044 9.93904 5.8754 9.56606 5.76405 8.97198C5.6527 8.3779 6.02568 7.83286 6.61976 7.72151Z" fill="#FED8CD"/>
<path opacity="0.1" d="M6.12631 5.08878C4.1094 5.4668 2.75329 7.44851 3.13131 9.46542C3.50933 11.4823 5.49104 12.8384 7.50795 12.4604C9.52486 12.0824 10.881 10.1007 10.503 8.08378C10.1249 6.06687 8.14322 4.71076 6.12631 5.08878ZM6.71844 8.24806C7.02796 8.19005 7.28566 8.3664 7.34368 8.67591C7.40169 8.98543 7.22533 9.24314 6.91582 9.30115C6.6063 9.35916 6.3486 9.1828 6.29058 8.87329C6.23257 8.56378 6.40893 8.30607 6.71844 8.24806Z" fill="#FED8CD"/>
<path fill-rule="evenodd" clip-rule="evenodd" d="M6.42241 6.66842C7.58562 6.4504 8.70533 7.21663 8.92334 8.37985C9.14136 9.54306 8.37513 10.6628 7.21191 10.8808C6.0487 11.0988 4.92899 10.3326 4.71098 9.16935C4.49296 8.00614 5.25919 6.88643 6.42241 6.66842Z" fill="#FCE94F"/>
<path fill-rule="evenodd" clip-rule="evenodd" d="M6.02246 7.58817C7.44739 7.3211 8.81903 8.25974 9.0861 9.68467C9.35317 11.1096 8.41454 12.4813 6.9896 12.7483C5.56467 13.0154 4.19303 12.0768 3.92596 10.6518C3.65889 9.22689 4.59752 7.85524 6.02246 7.58817Z" fill="#FCE94F"/>
<path d="M3.59467 18.0447L3.49598 17.5182C3.49598 17.5182 4.66048 16.3916 5.01976 16.245C5.37905 16.0984 5.83197 16.078 6.30148 16.0786C6.77095 16.0789 7.46959 16.0674 7.68224 16.035C7.89492 16.0028 8.27245 15.9053 8.71168 15.7952C9.15102 15.6856 9.88209 15.5235 10.112 15.4831C10.3415 15.4401 10.9202 15.3644 11.5377 15.2872C12.1553 15.2101 13.0056 15.1154 13.1992 15.0972C13.3927 15.0789 13.6224 15.0691 13.8828 15.0566C14.1431 15.0438 14.5924 15.0139 14.7505 14.9992C14.9086 14.9843 15.2783 14.9663 15.7037 14.9264C16.129 14.8865 16.8007 14.7742 16.9913 14.7238C17.1818 14.6733 17.5601 14.4543 17.9868 14.2378C18.4134 14.0214 18.8885 13.8073 19.2727 13.7662C19.657 13.7253 21.9251 14.064 21.9251 14.064L22.0238 14.5906L19.2594 15.1087L17.0216 15.5281L14.7838 15.9476L12.5459 16.367L10.3081 16.7864L8.0703 17.2058L5.83248 17.6253L3.59467 18.0447Z" fill="black"/>
<path opacity="0.9" d="M3.59473 18.0447L3.65912 18.3883C3.65912 18.3883 5.09539 18.7117 5.47839 18.6917C5.8614 18.6717 6.29504 18.5484 6.73806 18.4076C7.18111 18.267 7.84402 18.0648 8.05443 18.0205C8.26474 17.9756 8.65036 17.9213 9.09789 17.8554C9.54541 17.7896 10.284 17.6675 10.513 17.6224C10.7425 17.5794 11.3114 17.4515 11.9174 17.3128C12.5235 17.1742 13.3544 16.9761 13.5426 16.929C13.7307 16.8818 13.9505 16.8193 14.2 16.7487C14.4496 16.6785 14.8826 16.5619 15.0363 16.5233C15.1899 16.4847 15.5443 16.3851 15.9577 16.2815C16.3711 16.1779 17.0387 16.044 17.2337 16.0173C17.4288 15.9905 17.8513 16.0078 18.3188 16.0093C18.7863 16.0107 19.2988 15.9962 19.6738 15.9057C20.0488 15.8153 22.0883 14.9345 22.0883 14.9345L22.0239 14.591L19.2595 15.1091L17.0217 15.5285L14.7839 15.948L12.5461 16.3674L10.3083 16.7868L8.07043 17.2063L5.83261 17.6257L3.59473 18.0447Z" fill="black"/>
<path opacity="0.3" d="M3.59473 18.0447L22.0238 14.5906L22.3199 16.1703L3.89079 19.6244L3.59473 18.0447Z" fill="#4D585E"/>
<path opacity="0.2" d="M4.02891 20.3615L1.33472 5.98685L19.7638 2.53275L22.458 16.9074L4.02891 20.3615Z" stroke="black"/>
<path opacity="0.6" d="M23.8138 17.7061L20.8654 17.9736L21.0347 19.8409L23.9832 19.5735L23.8138 17.7061Z" fill="url(#paint10_radial)"/>
<path opacity="0.6" d="M1.57507 21.606L4.5235 21.3386L4.35412 19.4712L1.40569 19.7387L1.57507 21.606Z" fill="url(#paint11_radial)"/>
<path opacity="0.6" d="M20.8653 17.9736L4.35413 19.4712L4.5235 21.3386L21.0347 19.8409L20.8653 17.9736Z" fill="url(#paint12_linear)"/>
<path opacity="0.35" d="M22.761 18.5536L21.3045 2.49565C21.3045 2.49565 7.85967 3.71516 1.13727 4.32492C1.62281 9.67794 2.59391 20.384 2.59391 20.384L22.761 18.5536Z" stroke="black" stroke-linejoin="round"/>
<path d="M22.761 18.5536L21.3045 2.49565C21.3045 2.49565 7.85967 3.71516 1.13727 4.32492C1.62281 9.67794 2.59391 20.384 2.59391 20.384L22.761 18.5536Z" fill="url(#paint13_linear)"/>
<path opacity="0.4" d="M22.761 18.5536L21.3045 2.49565C21.3045 2.49565 7.85967 3.71516 1.13727 4.32492C1.62281 9.67794 2.59391 20.384 2.59391 20.384L22.761 18.5536Z" stroke="white" stroke-linejoin="round"/>
<path opacity="0.4" d="M1.13727 4.32492L1.17114 4.69839L21.3383 2.86912L21.3045 2.49565L1.13727 4.32492Z" fill="white"/>
<path d="M3.27311 19.5693L1.95197 5.00409L20.6253 3.31032L21.9464 17.8755L3.27311 19.5693Z" fill="url(#paint14_linear)"/>
<path opacity="0.1" d="M6.90383 5.63077C5.43686 5.76384 4.34511 7.07339 4.47817 8.54036C4.61123 10.0073 5.92079 11.0991 7.38776 10.966C8.85473 10.833 9.94647 9.52339 9.81341 8.05643C9.68035 6.58946 8.37079 5.49771 6.90383 5.63077ZM7.00061 6.69782C7.8909 6.61707 8.66561 7.26292 8.74636 8.15321C8.82712 9.04351 8.18126 9.81821 7.29097 9.89897C6.40068 9.97972 5.62598 9.33387 5.54522 8.44357C5.46447 7.55328 6.11032 6.77858 7.00061 6.69782Z" fill="#FED8CD"/>
<path opacity="0.1" d="M6.85544 5.09724C5.10014 5.25646 3.78544 6.83344 3.94466 8.58875C4.10387 10.3441 5.68086 11.6587 7.43616 11.4995C9.19147 11.3403 10.5062 9.76333 10.3469 8.00803C10.1877 6.25272 8.61075 4.93803 6.85544 5.09724ZM7.04901 7.23134C7.65097 7.17674 8.15825 7.59965 8.21285 8.2016C8.26745 8.80355 7.84454 9.31084 7.24259 9.36544C6.64063 9.42004 6.13335 8.99713 6.07875 8.39517C6.02415 7.79322 6.44706 7.28594 7.04901 7.23134Z" fill="#FED8CD"/>
<path opacity="0.1" d="M6.80706 4.56371C4.76341 4.74908 3.22577 6.59349 3.41114 8.63713C3.59651 10.6808 5.44092 12.2184 7.48456 12.033C9.52821 11.8477 11.0658 10.0033 10.8805 7.95963C10.6951 5.91598 8.8507 4.37834 6.80706 4.56371ZM7.09742 7.76486C7.41103 7.73641 7.65089 7.93637 7.67933 8.24999C7.70778 8.5636 7.50782 8.80346 7.1942 8.8319C6.88059 8.86035 6.64073 8.66039 6.61229 8.34677C6.58384 8.03316 6.7838 7.7933 7.09742 7.76486Z" fill="#FED8CD"/>
<path fill-rule="evenodd" clip-rule="evenodd" d="M6.95221 6.16431C8.13084 6.0574 9.17297 6.9262 9.27988 8.10483C9.38679 9.28346 8.51799 10.3256 7.33936 10.4325C6.16073 10.5394 5.1186 9.67061 5.01169 8.49198C4.90478 7.31335 5.77358 6.27121 6.95221 6.16431Z" fill="#FCE94F"/>
<path fill-rule="evenodd" clip-rule="evenodd" d="M6.46705 7.04208C7.91087 6.91112 9.18748 7.9754 9.31845 9.41922C9.44941 10.863 8.38513 12.1397 6.94131 12.2706C5.49748 12.4016 4.22087 11.3373 4.08991 9.89347C3.95895 8.44965 5.02323 7.17304 6.46705 7.04208Z" fill="#FCE94F"/>
<path d="M3.06016 17.2218L3.01177 16.6883C3.01177 16.6883 4.2777 15.677 4.64925 15.5651C5.0208 15.4531 5.47362 15.4758 5.94097 15.5208C6.4083 15.5655 7.10489 15.6202 7.31965 15.6081C7.53442 15.5961 7.91948 15.5349 8.36717 15.4668C8.81491 15.3993 9.55804 15.3072 9.79077 15.2887C10.0232 15.2677 10.6065 15.247 11.2286 15.2287C11.8507 15.2104 12.7062 15.1966 12.9006 15.1969C13.095 15.197 13.3246 15.209 13.585 15.2211C13.8454 15.233 14.2954 15.2458 14.4543 15.2462C14.6131 15.2463 14.9828 15.2634 15.41 15.2639C15.8373 15.2644 16.5165 15.2163 16.711 15.1841C16.9055 15.1519 17.3028 14.9697 17.748 14.7946C18.1933 14.6195 18.6865 14.4514 19.0729 14.4469C19.4593 14.4425 21.6851 14.9945 21.6851 14.9945L21.7335 15.528L18.9325 15.7821L16.665 15.9877L14.3975 16.1934L12.1301 16.3991L9.86259 16.6047L7.59511 16.8104L5.32763 17.0161L3.06016 17.2218Z" fill="black"/>
<path opacity="0.9" d="M3.06018 17.2218L3.09176 17.5699C3.09176 17.5699 4.49096 18.0279 4.87413 18.0442C5.25732 18.0605 5.70068 17.9789 6.15504 17.8807C6.60942 17.7826 7.28848 17.6441 7.50215 17.6199C7.71576 17.5951 8.10479 17.5776 8.55654 17.5544C9.0083 17.5312 9.75511 17.4796 9.9874 17.4563C10.2199 17.4352 10.7984 17.3618 11.4148 17.2811C12.0313 17.2005 12.8772 17.082 13.069 17.0529C13.2607 17.0237 13.4855 16.9824 13.7405 16.9357C13.9956 16.8894 14.4377 16.8143 14.5944 16.7905C14.751 16.7666 15.1132 16.7009 15.5346 16.637C15.956 16.573 16.6332 16.5029 16.8299 16.4948C17.0266 16.4866 17.4456 16.5438 17.9109 16.5895C18.3761 16.6352 18.8877 16.6693 19.2695 16.6147C19.6514 16.5602 21.7651 15.8765 21.7651 15.8765L21.7336 15.5284L18.9326 15.7825L16.6651 15.9881L14.3976 16.1938L12.1301 16.3995L9.86264 16.6052L7.59517 16.8108L5.32769 17.0165L3.06018 17.2218Z" fill="black"/>
<path opacity="0.3" d="M3.06018 17.2218L21.7335 15.528L21.8787 17.1286L3.20536 18.8224L3.06018 17.2218Z" fill="#4D585E"/>
<path opacity="0.2" d="M3.27311 19.5693L1.95197 5.00409L20.6253 3.31032L21.9464 17.8755L3.27311 19.5693Z" stroke="black"/>
<path opacity="0.6" d="M23.25 18.75H20.2895V20.625H23.25V18.75Z" fill="url(#paint15_radial)"/>
<path opacity="0.6" d="M0.749979 20.625H3.71051V18.75H0.749979V20.625Z" fill="url(#paint16_radial)"/>
<path opacity="0.6" d="M20.2895 18.75H3.71051V20.625H20.2895V18.75Z" fill="url(#paint17_linear)"/>
<path opacity="0.35" d="M22.125 19.4989L22.125 3.375C22.125 3.375 8.625 3.375 1.875 3.375C1.875 8.74999 1.875 19.5 1.875 19.5L22.125 19.4989Z" stroke="black" stroke-linejoin="round"/>
<path d="M22.125 19.4989L22.125 3.375C22.125 3.375 8.625 3.375 1.875 3.375C1.875 8.74999 1.875 19.5 1.875 19.5L22.125 19.4989Z" fill="url(#paint18_linear)"/>
<path opacity="0.4" d="M22.125 19.4989L22.125 3.375C22.125 3.375 8.625 3.375 1.875 3.375C1.875 8.74999 1.875 19.5 1.875 19.5L22.125 19.4989Z" stroke="white" stroke-linejoin="round"/>
<path opacity="0.4" d="M1.875 3.375V3.75H22.125V3.375H1.875Z" fill="white"/>
<path d="M2.625 18.75V4.125H21.375V18.75H2.625Z" fill="url(#paint19_linear)"/>
<path opacity="0.1" d="M7.50004 5.19644C6.02705 5.19644 4.82147 6.40202 4.82147 7.87501C4.82147 9.348 6.02705 10.5536 7.50004 10.5536C8.97303 10.5536 10.1786 9.348 10.1786 7.87501C10.1786 6.40202 8.97303 5.19644 7.50004 5.19644ZM7.50004 6.26787C8.39399 6.26787 9.10719 6.98107 9.10719 7.87501C9.10719 8.76896 8.39399 9.48216 7.50004 9.48216C6.6061 9.48216 5.8929 8.76896 5.8929 7.87501C5.8929 6.98107 6.6061 6.26787 7.50004 6.26787Z" fill="#FED8CD"/>
<path opacity="0.1" d="M7.50005 4.66071C5.73754 4.66071 4.28577 6.11248 4.28577 7.87499C4.28577 9.6375 5.73754 11.0893 7.50005 11.0893C9.26256 11.0893 10.7143 9.6375 10.7143 7.87499C10.7143 6.11248 9.26256 4.66071 7.50005 4.66071ZM7.50005 6.80356C8.10448 6.80356 8.57148 7.27057 8.57148 7.87499C8.57148 8.47942 8.10448 8.94642 7.50005 8.94642C6.89563 8.94642 6.42862 8.47942 6.42862 7.87499C6.42862 7.27057 6.89563 6.80356 7.50005 6.80356Z" fill="#FED8CD"/>
<path opacity="0.1" d="M7.5 4.125C5.44797 4.125 3.75 5.82297 3.75 7.875C3.75 9.92703 5.44797 11.625 7.5 11.625C9.55203 11.625 11.25 9.92703 11.25 7.875C11.25 5.82297 9.55203 4.125 7.5 4.125ZM7.5 7.33929C7.8149 7.33929 8.03571 7.5601 8.03571 7.875C8.03571 8.1899 7.8149 8.41071 7.5 8.41071C7.1851 8.41071 6.96429 8.1899 6.96429 7.875C6.96429 7.5601 7.1851 7.33929 7.5 7.33929Z" fill="#FED8CD"/>
<path fill-rule="evenodd" clip-rule="evenodd" d="M7.50003 5.73215C8.6835 5.73215 9.64289 6.69154 9.64289 7.87501C9.64289 9.05847 8.6835 10.0179 7.50003 10.0179C6.31657 10.0179 5.35718 9.05847 5.35718 7.87501C5.35718 6.69154 6.31657 5.73215 7.50003 5.73215Z" fill="#FCE94F"/>
<path fill-rule="evenodd" clip-rule="evenodd" d="M6.9375 6.5625C8.38725 6.5625 9.5625 7.73775 9.5625 9.1875C9.5625 10.6372 8.38725 11.8125 6.9375 11.8125C5.48775 11.8125 4.3125 10.6372 4.3125 9.1875C4.3125 7.73775 5.48775 6.5625 6.9375 6.5625Z" fill="#FCE94F"/>
<path d="M2.625 16.3929V15.8572C2.625 15.8572 3.97711 14.9643 4.35725 14.8864C4.73739 14.8086 5.18631 14.872 5.64769 14.959C6.10907 15.0458 6.79787 15.1632 7.01284 15.1705C7.22782 15.178 7.61684 15.1518 8.06885 15.1245C8.52085 15.0977 9.26927 15.073 9.50271 15.0757C9.73615 15.0757 10.3189 15.1079 10.9401 15.1458C11.5613 15.1838 12.4145 15.2474 12.6081 15.2651C12.8017 15.2828 13.0293 15.3155 13.2875 15.3511C13.5458 15.3865 13.9928 15.4399 14.151 15.4546C14.3091 15.469 14.6758 15.5194 15.1012 15.5586C15.5267 15.5977 16.2075 15.6111 16.4041 15.5966C16.6007 15.5822 17.0128 15.4366 17.4721 15.3024C17.9313 15.1682 18.4377 15.0454 18.8229 15.0758C19.2081 15.1063 21.375 15.8571 21.375 15.8571V16.3928H18.5625H16.2857H14.0089H11.7321H9.45536H7.17857H4.90179L2.625 16.3929Z" fill="black"/>
<path opacity="0.9" d="M2.625 16.3929V16.7424C2.625 16.7424 3.97711 17.3249 4.35725 17.3758C4.73739 17.4267 5.18631 17.3854 5.64769 17.3286C6.10907 17.272 6.79787 17.1954 7.01284 17.1906C7.22782 17.1853 7.61684 17.2029 8.06885 17.2206C8.52085 17.2383 9.26927 17.2544 9.50271 17.2522C9.73615 17.2522 10.3189 17.2313 10.9401 17.2067C11.5613 17.182 12.4145 17.1404 12.6081 17.1289C12.8017 17.1171 13.0293 17.0962 13.2875 17.0727C13.5458 17.0497 13.9928 17.0149 14.151 17.0053C14.3091 16.9956 14.6758 16.9629 15.1012 16.9373C15.5267 16.9116 16.2075 16.903 16.4041 16.9127C16.6007 16.9223 17.0128 17.0172 17.4721 17.1047C17.9313 17.1922 18.4377 17.2724 18.8229 17.2525C19.2081 17.2327 21.375 16.7428 21.375 16.7428V16.3933H18.5625H16.2857H14.0089H11.7321H9.45536H7.17857H4.90179L2.625 16.3929Z" fill="black"/>
<path opacity="0.3" d="M2.625 16.3929H21.375V18H2.625V16.3929Z" fill="#4D585E"/>
<path opacity="0.2" d="M2.625 18.75V4.125H21.375V18.75H2.625Z" stroke="black" stroke-width="0.5"/>
<path d="M12.5625 8.625H13.2868H12.5625ZM13.3931 8.625H14.0691H13.3931ZM14.1753 8.625H14.7741H14.1753ZM14.8707 8.625H15.1314H14.8707ZM15.2377 8.625H15.8171H15.2377ZM15.933 8.625H17.4589H15.933ZM17.5555 8.625H18.7241H17.5555ZM18.8207 8.625H19.178H18.8207ZM12.5625 8.8125H13.6924H12.5625ZM13.818 8.8125H14.3588H13.818ZM14.4554 8.8125H14.7258H14.4554ZM14.8321 8.8125H15.3246H14.8321ZM15.4308 8.8125H15.933H15.4308ZM16.0296 8.8125H16.8312H16.0296ZM16.9374 8.8125H17.9804H16.9374ZM18.077 8.8125H18.7724H18.077ZM18.869 8.8125H19.0428H18.869ZM12.5625 8.9986H13.5186H12.5625ZM13.6152 8.9986H15.1797H13.6152ZM15.2763 8.9986H16.0393H15.2763ZM16.1358 8.9986H16.8505H16.1358ZM16.9471 8.9986H17.5555H16.9471ZM17.6521 8.9986L18.6082 9.0014L17.6521 8.9986ZM18.6951 9.0014H20.25H18.6951ZM12.5625 9.1875H13.8856H12.5625ZM13.9918 9.1875H15.4212H13.9918ZM15.5177 9.1875H16.0875H15.5177ZM16.1841 9.1875H17.5265H16.1841ZM17.6135 9.1875H18.5309H17.6135ZM18.6372 9.1875H19.0042H18.6372ZM19.1007 9.1875H19.3035H19.1007ZM19.4098 9.1875H19.9796H19.4098ZM12.5625 9.375H13.055H12.5625ZM13.2096 9.375H15.0349H13.2096ZM12.5625 9.7486H13.5186H12.5625ZM13.6152 9.7486H15.1797H13.6152ZM15.2763 9.7486H16.0393H15.2763ZM16.1358 9.7486H16.8505H16.1358ZM16.9471 9.7486H17.5555H16.9471ZM17.6521 9.7486L18.6082 9.7514L17.6521 9.7486ZM18.6951 9.7514H20.25H18.6951ZM12.5625 9.9375H13.7794H12.5625ZM13.8759 9.9375H15.1797H13.8759ZM15.2763 9.9375H15.7785H15.2763ZM15.8751 9.9375H17.1016H15.8751ZM17.1982 9.9375H18.7434H17.1982ZM18.8496 9.9375H19.4194H18.8496ZM12.5625 10.125H13.8856H12.5625ZM13.9918 10.125H15.4212H13.9918ZM15.5177 10.125H16.0875H15.5177ZM16.1841 10.125H17.5265H16.1841ZM17.6135 10.125H18.5309H17.6135ZM18.6372 10.125H19.0042H18.6372ZM19.1007 10.125H19.3035H19.1007ZM19.4098 10.125H19.9796H19.4098ZM12.5625 10.3125H13.6924H12.5625ZM13.818 10.3125H14.3588H13.818ZM14.4554 10.3125H14.7258H14.4554ZM14.8321 10.3125H15.3246H14.8321ZM15.4308 10.3125H15.933H15.4308ZM16.0296 10.3125H16.8312H16.0296ZM16.9374 10.3125H17.9804H16.9374ZM18.077 10.3125H18.7724H18.077ZM18.869 10.3125H19.0428H18.869ZM12.5625 10.6861H13.5186H12.5625ZM13.6152 10.6861H15.1797H13.6152ZM15.2763 10.6861H16.0393H15.2763ZM16.1358 10.6861H16.8505H16.1358ZM16.9471 10.6861H17.5555H16.9471ZM17.6521 10.6861L18.6082 10.6889L17.6521 10.6861ZM18.6951 10.6889H20.25H18.6951ZM12.5625 10.875H13.6924H12.5625ZM13.818 10.875H14.3588H13.818ZM14.4554 10.875H14.7258H14.4554ZM14.8321 10.875H15.3246H14.8321ZM15.4308 10.875H15.933H15.4308ZM16.0296 10.875H16.8312H16.0296ZM16.9374 10.875H17.9804H16.9374ZM18.077 10.875H18.7724H18.077ZM18.869 10.875H19.0428H18.869ZM12.5625 11.0625H13.7601H12.5625ZM13.8663 11.0625H14.2429H13.8663ZM14.3395 11.0625H15.199H14.3395ZM15.2956 11.0625H16.5608H15.2956ZM16.667 11.0625H17.5265H16.667ZM17.6135 11.0625H17.797H17.6135ZM17.8935 11.0625H18.9848H17.8935ZM19.1007 11.0625H19.6705H19.1007ZM12.5625 11.25H13.7601H12.5625ZM13.8663 11.25H14.4071H13.8663ZM14.5037 11.25H15.3536H14.5037ZM15.4501 11.25H16.3676H15.4501ZM16.4739 11.25H16.8408H16.4739ZM16.9374 11.25H17.1402H16.9374ZM17.2465 11.25H17.8163H17.2465Z" stroke="url(#paint20_linear)" stroke-width="0.3"/>
<path d="M12.5625 11.8125H13.0395H12.5625ZM13.1095 11.8125H13.5546H13.1095ZM13.6246 11.8125H14.0189H13.6246ZM14.0825 11.8125H14.2542H14.0825ZM14.3242 11.8125H14.7058H14.3242ZM14.7821 11.8125H15.787H14.7821ZM15.8506 11.8125H16.6201H15.8506ZM16.6837 11.8125H16.919H16.6837ZM12.5625 12H13.3066H12.5625ZM13.3893 12H13.7454H13.3893ZM13.809 12H13.9871H13.809ZM14.0571 12H14.3814H14.0571ZM14.4514 12H14.7821H14.4514ZM14.8457 12H15.3736H14.8457ZM15.4435 12H16.1304H15.4435ZM16.194 12H16.6519H16.194ZM16.7155 12H16.83H16.7155ZM12.5625 12.1861H13.1921H12.5625ZM13.2557 12.1861H14.286H13.2557ZM14.3496 12.1861H14.8521H14.3496ZM14.9157 12.1861H15.3863H14.9157ZM15.4499 12.1861H15.8506H15.4499ZM15.9142 12.1861L16.5438 12.1889L15.9142 12.1861ZM16.6011 12.1889H17.625H16.6011ZM12.5625 12.375H13.4338H12.5625ZM13.5038 12.375H14.445H13.5038ZM14.5086 12.375H14.8839H14.5086ZM14.9475 12.375H15.8315H14.9475ZM15.8887 12.375H16.4929H15.8887ZM16.5629 12.375H16.8046H16.5629ZM16.8682 12.375H17.0017H16.8682ZM17.0717 12.375H17.4469H17.0717ZM12.5625 12.5625H12.8869H12.5625ZM12.9886 12.5625H14.1906H12.9886ZM12.5625 12.9361H13.1921H12.5625ZM13.2557 12.9361H14.286H13.2557ZM14.3496 12.9361H14.8521H14.3496ZM14.9157 12.9361H15.3863H14.9157ZM15.4499 12.9361H15.8506H15.4499ZM15.9142 12.9361L16.5438 12.9389L15.9142 12.9361ZM16.6011 12.9389H17.625H16.6011ZM12.5625 13.125H13.3639H12.5625ZM13.4274 13.125H14.286H13.4274ZM14.3496 13.125H14.6804H14.3496ZM14.744 13.125H15.5517H14.744ZM15.6153 13.125H16.6329H15.6153ZM16.7028 13.125H17.078H16.7028ZM12.5625 13.3125H13.4338H12.5625ZM13.5038 13.3125H14.445H13.5038ZM14.5086 13.3125H14.8839H14.5086ZM14.9475 13.3125H15.8315H14.9475ZM15.8887 13.3125H16.4929H15.8887ZM16.5629 13.3125H16.8046H16.5629ZM16.8682 13.3125H17.0017H16.8682ZM17.0717 13.3125H17.4469H17.0717ZM12.5625 13.5H13.3066H12.5625ZM13.3893 13.5H13.7454H13.3893ZM13.809 13.5H13.9871H13.809ZM14.0571 13.5H14.3814H14.0571ZM14.4514 13.5H14.7821H14.4514ZM14.8457 13.5H15.3736H14.8457ZM15.4435 13.5H16.1304H15.4435ZM16.194 13.5H16.6519H16.194ZM16.7155 13.5H16.83H16.7155ZM12.5625 13.8736H13.1921H12.5625ZM13.2557 13.8736H14.286H13.2557ZM14.3496 13.8736H14.8521H14.3496ZM14.9157 13.8736H15.3863H14.9157ZM15.4499 13.8736H15.8506H15.4499ZM15.9142 13.8736L16.5438 13.8764L15.9142 13.8736ZM16.6011 13.8764H17.625H16.6011ZM12.5625 14.0625H13.3066H12.5625ZM13.3893 14.0625H13.7454H13.3893ZM13.809 14.0625H13.9871H13.809ZM14.0571 14.0625H14.3814H14.0571ZM14.4514 14.0625H14.7821H14.4514ZM14.8457 14.0625H15.3736H14.8457ZM15.4435 14.0625H16.1304H15.4435ZM16.194 14.0625H16.6519H16.194ZM16.7155 14.0625H16.83H16.7155ZM12.5625 14.25H13.3511H12.5625ZM13.4211 14.25H13.6691H13.4211ZM13.7327 14.25H14.2988H13.7327ZM14.3624 14.25H15.1955H14.3624ZM15.2655 14.25H15.8315H15.2655ZM15.8887 14.25H16.0096H15.8887ZM16.0732 14.25H16.7919H16.0732ZM16.8682 14.25H17.2434H16.8682ZM12.5625 14.4375H13.3511H12.5625ZM13.4211 14.4375H13.7772H13.4211ZM13.8408 14.4375H14.4005H13.8408ZM14.4641 14.4375H15.0683H14.4641ZM15.1383 14.4375H15.3799H15.1383ZM15.4435 14.4375H15.5771H15.4435ZM15.6471 14.4375H16.0223H15.6471Z" stroke="url(#paint21_linear)" stroke-width="0.3"/>
<path opacity="0.6" d="M17.8125 11.625H12.375V14.625H17.8125V11.625Z" fill="#FCE94F"/>
<path fill-rule="evenodd" clip-rule="evenodd" d="M17.25 10.548L19.4457 12.75L23.2882 8.89655C23.6241 8.61917 23.2882 8.34606 23.2882 8.34606L21.6414 6.69459C21.6414 6.69459 21.3889 6.39739 21.0925 6.69459L17.25 10.548Z" stroke="#BF830A" stroke-width="2" stroke-linejoin="round"/>
<path fill-rule="evenodd" clip-rule="evenodd" d="M17.25 10.5512L19.4395 12.75L23.2711 8.90203C23.6455 8.62504 23.2711 8.35232 23.2711 8.35232L21.629 6.70319C21.629 6.70319 21.3574 6.38663 21.0816 6.70319L17.25 10.5512Z" fill="url(#paint22_linear)"/>
<path fill-rule="evenodd" clip-rule="evenodd" d="M17.1355 10.7548V11.807L18.1842 12.8592H19.2328L17.1355 10.7548Z" stroke="#838383" stroke-width="2" stroke-linejoin="round"/>
<path fill-rule="evenodd" clip-rule="evenodd" d="M17.1355 10.7548V11.807L18.1842 12.8592H19.2328L17.1355 10.7548Z" fill="#CECECE"/>
<path fill-rule="evenodd" clip-rule="evenodd" d="M15.9375 13.5364H16.9862L17.5105 13.0103L16.9862 12.4842L15.9375 13.5364Z" stroke="#BF830A" stroke-width="2" stroke-linejoin="round"/>
<path fill-rule="evenodd" clip-rule="evenodd" d="M17.1919 12.1949L16.7986 12.6717L17.323 13.1978L17.7654 12.8526L17.1919 12.1949Z" stroke="#838383" stroke-width="2"/>
<path opacity="0.1" d="M19.5842 14.25C21.3578 14.25 22.7957 13.9997 22.7957 13.691C22.7957 13.3823 21.3578 13.132 19.5842 13.132C17.8105 13.132 16.3726 13.3823 16.3726 13.691C16.3726 13.9997 17.8105 14.25 19.5842 14.25Z" fill="url(#paint23_radial)"/>
<path fill-rule="evenodd" clip-rule="evenodd" d="M17.1919 12.1949L16.7986 12.6717L17.323 13.1978L17.7654 12.8526L17.1919 12.1949Z" fill="#CECECE"/>
<path fill-rule="evenodd" clip-rule="evenodd" d="M15.9375 13.5364H16.9862L17.5105 13.0103L16.9862 12.4842L15.9375 13.5364Z" fill="#FCE94F"/>
<path opacity="0.5" d="M18.0364 10.2614L21.2971 6.98975" stroke="white" stroke-linecap="round"/>
<path opacity="0.5" d="M17.292 11.7281L17.2892 11.1341" stroke="white" stroke-linecap="round"/>
<path opacity="0.1" d="M19.7078 11.9763L22.9685 8.70465" stroke="black" stroke-linecap="round"/>
<path opacity="0.1" d="M18.3462 12.5845L18.8032 12.7508" stroke="black" stroke-linecap="round"/>
<path d="M9.22615 13.7236C9.22624 13.8328 9.15498 13.9408 9.01645 14.0416C8.87791 14.1425 8.67482 14.2341 8.41876 14.3113C8.1627 14.3884 7.85869 14.4496 7.5241 14.4914C7.18951 14.5332 6.83089 14.5547 6.46872 14.5547C6.10656 14.5547 5.74794 14.5332 5.41335 14.4914C5.07876 14.4496 4.77475 14.3884 4.51869 14.3113C4.26263 14.2341 4.05954 14.1425 3.921 14.0416C3.78247 13.9408 3.71121 13.8328 3.7113 13.7236C3.71121 13.6145 3.78247 13.5064 3.921 13.4056C4.05954 13.3048 4.26263 13.2132 4.51869 13.136C4.77475 13.0588 5.07876 12.9976 5.41335 12.9558C5.74794 12.9141 6.10656 12.8926 6.46872 12.8926C6.83089 12.8926 7.18951 12.9141 7.5241 12.9558C7.85869 12.9976 8.1627 13.0588 8.41876 13.136C8.67482 13.2132 8.87791 13.3048 9.01645 13.4056C9.15498 13.5064 9.22624 13.6145 9.22615 13.7236Z" fill="url(#paint24_radial)" fill-opacity="0.5"/>
<path d="M6.46874 6.75006C4.55483 6.75006 3 8.30487 3 10.2188C3 12.1327 4.55483 13.6875 6.46874 13.6875C8.38269 13.6875 9.9375 12.1327 9.9375 10.2188C9.9375 8.30487 8.38269 6.75006 6.46874 6.75006Z" fill="url(#paint25_radial)" fill-opacity="0.5"/>
<path opacity="0.75" d="M6.46853 8.84615C7.4643 8.84615 8.27153 8.47408 8.27153 8.0151C8.27153 7.55613 7.4643 7.18405 6.46853 7.18405C5.47276 7.18405 4.66553 7.55613 4.66553 8.0151C4.66553 8.47408 5.47276 8.84615 6.46853 8.84615Z" fill="url(#paint26_linear)"/>
<path opacity="0.25" d="M6.46874 6.75C4.55482 6.75 3 8.30481 3 10.2187C3 12.1327 4.55482 13.6875 6.46874 13.6875C8.38268 13.6875 9.9375 12.1327 9.9375 10.2187C9.9375 8.30481 8.38268 6.75 6.46874 6.75V6.75Z" stroke="black" stroke-width="0.999995" stroke-linecap="round" stroke-linejoin="round"/>
</g>
<defs>
<radialGradient id="paint0_radial" cx="0" cy="0" r="1" gradientUnits="userSpaceOnUse" gradientTransform="translate(21.9437 16.8904) rotate(-17.7761) scale(2.77975 0.9375)">
<stop stop-color="#181818"/>
<stop offset="1" stop-color="#181818" stop-opacity="0"/>
</radialGradient>
<radialGradient id="paint1_radial" cx="0" cy="0" r="1" gradientUnits="userSpaceOnUse" gradientTransform="translate(7.15572 21.6315) rotate(162.224) scale(2.77975 0.9375)">
<stop stop-color="#181818"/>
<stop offset="1" stop-color="#181818" stop-opacity="0"/>
</radialGradient>
<linearGradient id="paint2_linear" x1="15.3973" y1="19.9815" x2="14.8226" y2="18.1888" gradientUnits="userSpaceOnUse">
<stop stop-color="#181818" stop-opacity="0"/>
<stop offset="0.5" stop-color="#181818"/>
<stop offset="1" stop-color="#181818" stop-opacity="0"/>
</linearGradient>
<linearGradient id="paint3_linear" x1="15.6946" y1="22.8319" x2="8.36745" y2="-0.0222988" gradientUnits="userSpaceOnUse">
<stop stop-color="#EDEDED"/>
<stop offset="1" stop-color="white"/>
</linearGradient>
<linearGradient id="paint4_linear" x1="11.1126" y1="18.1331" x2="6.04429" y2="2.32431" gradientUnits="userSpaceOnUse">
<stop stop-color="#16538C"/>
<stop offset="0.362069" stop-color="#3594CA"/>
<stop offset="1" stop-color="#4EDFF3"/>
</linearGradient>
<radialGradient id="paint5_radial" cx="0" cy="0" r="1" gradientUnits="userSpaceOnUse" gradientTransform="translate(21.5597 18.0296) rotate(-10.6156) scale(2.96614 0.9375)">
<stop stop-color="#181818"/>
<stop offset="1" stop-color="#181818" stop-opacity="0"/>
</radialGradient>
<radialGradient id="paint6_radial" cx="0" cy="0" r="1" gradientUnits="userSpaceOnUse" gradientTransform="translate(5.2726 21.0823) rotate(169.384) scale(2.96613 0.9375)">
<stop stop-color="#181818"/>
<stop offset="1" stop-color="#181818" stop-opacity="0"/>
</radialGradient>
<linearGradient id="paint7_linear" x1="14.206" y1="20.3693" x2="13.8592" y2="18.519" gradientUnits="userSpaceOnUse">
<stop stop-color="#181818" stop-opacity="0"/>
<stop offset="0.5" stop-color="#181818"/>
<stop offset="1" stop-color="#181818" stop-opacity="0"/>
</linearGradient>
<linearGradient id="paint8_linear" x1="14.107" y1="23.2418" x2="9.68576" y2="-0.347477" gradientUnits="userSpaceOnUse">
<stop stop-color="#EDEDED"/>
<stop offset="1" stop-color="white"/>
</linearGradient>
<linearGradient id="paint9_linear" x1="9.9535" y1="18.0447" x2="6.89523" y2="1.72744" gradientUnits="userSpaceOnUse">
<stop stop-color="#16538C"/>
<stop offset="0.362069" stop-color="#3594CA"/>
<stop offset="1" stop-color="#4EDFF3"/>
</linearGradient>
<radialGradient id="paint10_radial" cx="0" cy="0" r="1" gradientUnits="userSpaceOnUse" gradientTransform="translate(20.9459 18.9076) rotate(-5.18283) scale(2.96614 0.9375)">
<stop stop-color="#181818"/>
<stop offset="1" stop-color="#181818" stop-opacity="0"/>
</radialGradient>
<radialGradient id="paint11_radial" cx="0" cy="0" r="1" gradientUnits="userSpaceOnUse" gradientTransform="translate(4.44295 20.4045) rotate(174.817) scale(2.96613 0.9375)">
<stop stop-color="#181818"/>
<stop offset="1" stop-color="#181818" stop-opacity="0"/>
</radialGradient>
<linearGradient id="paint12_linear" x1="13.4037" y1="20.5405" x2="13.2337" y2="18.6657" gradientUnits="userSpaceOnUse">
<stop stop-color="#181818" stop-opacity="0"/>
<stop offset="0.5" stop-color="#181818"/>
<stop offset="1" stop-color="#181818" stop-opacity="0"/>
</linearGradient>
<linearGradient id="paint13_linear" x1="13.0332" y1="23.3908" x2="10.8652" y2="-0.511117" gradientUnits="userSpaceOnUse">
<stop stop-color="#EDEDED"/>
<stop offset="1" stop-color="white"/>
</linearGradient>
<linearGradient id="paint14_linear" x1="9.39044" y1="17.8237" x2="7.89077" y2="1.29027" gradientUnits="userSpaceOnUse">
<stop stop-color="#16538C"/>
<stop offset="0.362069" stop-color="#3594CA"/>
<stop offset="1" stop-color="#4EDFF3"/>
</linearGradient>
<radialGradient id="paint15_radial" cx="0" cy="0" r="1" gradientUnits="userSpaceOnUse" gradientTransform="translate(20.2853 19.6875) scale(2.96613 0.9375)">
<stop stop-color="#181818"/>
<stop offset="1" stop-color="#181818" stop-opacity="0"/>
</radialGradient>
<radialGradient id="paint16_radial" cx="0" cy="0" r="1" gradientUnits="userSpaceOnUse" gradientTransform="translate(3.71467 19.6875) rotate(180) scale(2.96613 0.9375)">
<stop stop-color="#181818"/>
<stop offset="1" stop-color="#181818" stop-opacity="0"/>
</radialGradient>
<linearGradient id="paint17_linear" x1="12.6265" y1="20.6324" x2="12.6265" y2="18.7499" gradientUnits="userSpaceOnUse">
<stop stop-color="#181818" stop-opacity="0"/>
<stop offset="0.5" stop-color="#181818"/>
<stop offset="1" stop-color="#181818" stop-opacity="0"/>
</linearGradient>
<linearGradient id="paint18_linear" x1="12" y1="23.4375" x2="12" y2="-0.5625" gradientUnits="userSpaceOnUse">
<stop stop-color="#EDEDED"/>
<stop offset="1" stop-color="white"/>
</linearGradient>
<linearGradient id="paint19_linear" x1="8.875" y1="17.5642" x2="8.875" y2="0.962837" gradientUnits="userSpaceOnUse">
<stop stop-color="#16538C"/>
<stop offset="0.362069" stop-color="#3594CA"/>
<stop offset="1" stop-color="#4EDFF3"/>
</linearGradient>
<linearGradient id="paint20_linear" x1="15.3507" y1="11.8107" x2="15.3507" y2="7.83346" gradientUnits="userSpaceOnUse">
<stop stop-color="#D4D4D4"/>
<stop offset="1" stop-color="#FAFAFA"/>
</linearGradient>
<linearGradient id="paint21_linear" x1="14.3986" y1="14.9982" x2="14.3986" y2="11.021" gradientUnits="userSpaceOnUse">
<stop stop-color="#D4D4D4"/>
<stop offset="1" stop-color="#FAFAFA"/>
</linearGradient>
<linearGradient id="paint22_linear" x1="19.4668" y1="8.41217" x2="21.6367" y2="10.4164" gradientUnits="userSpaceOnUse">
<stop stop-color="#FCE94F"/>
<stop offset="1" stop-color="#D7B031"/>
</linearGradient>
<radialGradient id="paint23_radial" cx="0" cy="0" r="1" gradientUnits="userSpaceOnUse" gradientTransform="translate(19.5842 13.691) scale(3.21153 0.558978)">
<stop/>
<stop offset="1" stop-opacity="0"/>
</radialGradient>
<radialGradient id="paint24_radial" cx="0" cy="0" r="1" gradientUnits="userSpaceOnUse" gradientTransform="translate(6.46873 13.7236) scale(2.75742 0.83084)">
<stop stop-color="#3D3D3D"/>
<stop offset="0.5" stop-color="#686868" stop-opacity="0.498039"/>
<stop offset="1" stop-color="#686868" stop-opacity="0"/>
</radialGradient>
<radialGradient id="paint25_radial" cx="0" cy="0" r="1" gradientUnits="userSpaceOnUse" gradientTransform="translate(6.46883 7.1168) rotate(90) scale(9.96916 13.1592)">
<stop stop-color="#C8C8C8"/>
<stop offset="0.625454" stop-color="#FCFCFC"/>
<stop offset="1" stop-color="#89898B"/>
</radialGradient>
<linearGradient id="paint26_linear" x1="6.57588" y1="8.91658" x2="6.57588" y2="7.16561" gradientUnits="userSpaceOnUse">
<stop stop-color="white" stop-opacity="0.2"/>
<stop offset="1" stop-color="white" stop-opacity="0.998934"/>
</linearGradient>
<clipPath id="clip0">
<rect width="24" height="24" fill="white"/>
</clipPath>
</defs>
</svg>
