<svg width="32" height="32" viewBox="0 0 32 32" fill="none" xmlns="http://www.w3.org/2000/svg">
<g clip-path="url(#clip0)">
<path opacity="0.6" d="M31.4198 24.2601L27.4771 24.452L27.5986 26.9491L31.5413 26.7572L31.4198 24.2601Z" fill="url(#paint0_radial)"/>
<path opacity="0.6" d="M1.57682 28.2157L5.51953 28.0238L5.39799 25.5267L1.45528 25.7186L1.57682 28.2157Z" fill="url(#paint1_radial)"/>
<path opacity="0.6" d="M27.4771 24.452L5.39795 25.5267L5.51949 28.0238L27.5987 26.9491L27.4771 24.452Z" fill="url(#paint2_linear)"/>
<path opacity="0.35" d="M29.9701 25.3303L28.9249 3.85726C28.9249 3.85726 10.9462 4.73237 1.95685 5.16992C2.30527 12.3281 3.00211 26.6445 3.00211 26.6445L29.9701 25.3303Z" stroke="black" stroke-linejoin="round"/>
<path d="M29.9701 25.3303L28.9249 3.85726C28.9249 3.85726 10.9462 4.73237 1.95685 5.16992C2.30527 12.3281 3.00211 26.6445 3.00211 26.6445L29.9701 25.3303Z" fill="url(#paint3_linear)"/>
<path opacity="0.4" d="M29.9701 25.3303L28.9249 3.85726C28.9249 3.85726 10.9462 4.73237 1.95685 5.16992C2.30527 12.3281 3.00211 26.6445 3.00211 26.6445L29.9701 25.3303Z" stroke="white" stroke-linejoin="round"/>
<path opacity="0.4" d="M1.95685 5.16992L1.98116 5.66933L28.9492 4.35667L28.9249 3.85726L1.95685 5.16992Z" fill="white"/>
<path d="M3.9523 25.5971L3.00427 6.12012L27.9747 4.90469L28.9227 24.3816L3.9523 25.5971Z" fill="url(#paint4_linear)"/>
<path opacity="0.1" d="M9.56605 7.231C7.60438 7.32648 6.07699 9.01017 6.17247 10.9718C6.26796 12.9335 7.95165 14.4609 9.91331 14.3654C11.875 14.2699 13.4024 12.5862 13.3069 10.6246C13.2114 8.66291 11.5277 7.13552 9.56605 7.231ZM9.6355 8.65788C10.826 8.59993 11.8221 9.50351 11.88 10.694C11.9379 11.8845 11.0344 12.8806 9.84386 12.9385C8.65334 12.9965 7.6573 12.0929 7.59935 10.9024C7.54141 9.71186 8.44498 8.71583 9.6355 8.65788Z" fill="#FED8CD"/>
<path opacity="0.1" d="M9.53138 6.51756C7.18414 6.63181 5.34484 8.65933 5.45909 11.0066C5.57334 13.3538 7.60086 15.1931 9.9481 15.0789C12.2953 14.9646 14.1346 12.9371 14.0204 10.5898C13.9061 8.24261 11.8786 6.40331 9.53138 6.51756ZM9.67028 9.37133C10.4752 9.33215 11.1274 9.92381 11.1666 10.7288C11.2058 11.5337 10.6141 12.1859 9.80919 12.2251C9.00424 12.2643 8.35204 11.6726 8.31286 10.8677C8.27368 10.0627 8.86534 9.41051 9.67028 9.37133Z" fill="#FED8CD"/>
<path opacity="0.1" d="M9.49665 5.80413C6.76384 5.93714 4.61263 8.30849 4.74565 11.0413C4.87867 13.7741 7.25001 15.9253 9.98282 15.7923C12.7156 15.6593 14.8668 13.2879 14.7338 10.5551C14.6008 7.82232 12.2295 5.67111 9.49665 5.80413ZM9.70501 10.0848C10.1244 10.0644 10.4328 10.3441 10.4532 10.7635C10.4736 11.1829 10.1938 11.4912 9.77446 11.5117C9.35509 11.5321 9.04671 11.2523 9.02629 10.8329C9.00588 10.4136 9.28563 10.1052 9.70501 10.0848Z" fill="#FED8CD"/>
<path fill-rule="evenodd" clip-rule="evenodd" d="M9.60083 7.94447C11.1769 7.86775 12.5168 9.08324 12.5935 10.6593C12.6702 12.2354 11.4547 13.5753 9.87865 13.652C8.30255 13.7287 6.96269 12.5132 6.88598 10.9371C6.80926 9.36105 8.02474 8.02118 9.60083 7.94447Z" fill="#FCE94F"/>
<path fill-rule="evenodd" clip-rule="evenodd" d="M8.90547 9.08674C10.8362 8.99276 12.4775 10.4817 12.5715 12.4124C12.6655 14.3432 11.1765 15.9845 9.24579 16.0785C7.31507 16.1724 5.67374 14.6835 5.57977 12.7528C5.48579 10.822 6.97476 9.18071 8.90547 9.08674Z" fill="#FCE94F"/>
<path d="M3.79952 22.4579L3.76479 21.7445C3.76479 21.7445 5.5076 20.4678 6.0088 20.3395C6.51001 20.2111 7.11198 20.2665 7.73206 20.3525C8.35213 20.4382 9.27705 20.5498 9.56382 20.5457C9.8506 20.5417 10.367 20.4815 10.9672 20.4159C11.5674 20.3509 12.5625 20.2695 12.8736 20.258C13.1844 20.2428 13.9626 20.2479 14.7924 20.2581C15.6221 20.2685 16.7626 20.2978 17.0215 20.309C17.2805 20.3199 17.5856 20.3487 17.9319 20.3794C18.2781 20.4098 18.8769 20.4519 19.0885 20.4612C19.3001 20.4702 19.7916 20.5136 20.3607 20.5382C20.9298 20.5627 21.8374 20.5364 22.0983 20.5044C22.3592 20.4724 22.8986 20.2517 23.5015 20.0432C24.1044 19.8348 24.7709 19.6384 25.2858 19.6539C25.8008 19.6696 28.7352 20.529 28.7352 20.529L28.7699 21.2425L25.0244 21.4248L21.9923 21.5724L18.9601 21.7199L15.928 21.8675L12.8959 22.0151L9.86376 22.1627L6.83164 22.3103L3.79952 22.4579Z" fill="black"/>
<path opacity="0.9" d="M3.79956 22.4579L3.82222 22.9235C3.82222 22.9235 5.66066 23.6115 6.17021 23.6546C6.67976 23.6977 7.27495 23.6137 7.8857 23.5082C8.49647 23.4029 9.40883 23.2562 9.69481 23.2359C9.98076 23.2148 10.5 23.2132 11.1031 23.2074C11.7062 23.2016 12.704 23.1745 13.0147 23.1565C13.3256 23.1414 14.1003 23.0758 14.926 23.0027C15.7517 22.9296 16.8853 22.8189 17.1424 22.7909C17.3994 22.7627 17.7011 22.7201 18.0435 22.6721C18.3859 22.6247 18.9791 22.5494 19.1891 22.5263C19.3991 22.5032 19.8853 22.436 20.4502 22.3743C21.0151 22.3125 21.9212 22.2569 22.1837 22.257C22.4461 22.2571 23.0011 22.3567 23.6184 22.4435C24.2357 22.5303 24.9153 22.6042 25.427 22.5528C25.9387 22.5014 28.7927 21.7085 28.7927 21.7085L28.77 21.243L25.0245 21.4253L21.9923 21.5729L18.9602 21.7205L15.9281 21.8681L12.896 22.0157L9.86383 22.1633L6.83171 22.3109L3.79956 22.4579Z" fill="black"/>
<path opacity="0.3" d="M3.79956 22.4579L28.77 21.2425L28.8742 23.3828L3.90374 24.5983L3.79956 22.4579Z" fill="#4D585E"/>
<path opacity="0.2" d="M3.9523 25.5971L3.00427 6.12012L27.9747 4.90469L28.9227 24.3816L3.9523 25.5971Z" stroke="black"/>
<path opacity="0.6" d="M31.9885 23.0971L28.0708 23.58L28.3767 26.0613L32.2944 25.5783L31.9885 23.0971Z" fill="url(#paint5_radial)"/>
<path opacity="0.6" d="M2.51978 29.2489L6.4375 28.7659L6.13161 26.2847L2.2139 26.7677L2.51978 29.2489Z" fill="url(#paint6_radial)"/>
<path opacity="0.6" d="M28.0708 23.58L6.13159 26.2847L6.43748 28.7659L28.3767 26.0613L28.0708 23.58Z" fill="url(#paint7_linear)"/>
<path opacity="0.35" d="M30.6219 24.2716L27.9915 2.93462C27.9915 2.93462 10.1268 5.137 1.1944 6.23819C2.07127 13.351 3.82502 27.5766 3.82502 27.5766L30.6219 24.2716Z" stroke="black" stroke-linejoin="round"/>
<path d="M30.6219 24.2716L27.9915 2.93462C27.9915 2.93462 10.1268 5.137 1.1944 6.23819C2.07127 13.351 3.82502 27.5766 3.82502 27.5766L30.6219 24.2716Z" fill="url(#paint8_linear)"/>
<path opacity="0.4" d="M30.6219 24.2716L27.9915 2.93462C27.9915 2.93462 10.1268 5.137 1.1944 6.23819C2.07127 13.351 3.82502 27.5766 3.82502 27.5766L30.6219 24.2716Z" stroke="white" stroke-linejoin="round"/>
<path opacity="0.4" d="M1.1944 6.23819L1.25557 6.73443L28.0527 3.43086L27.9915 2.93462L1.1944 6.23819Z" fill="white"/>
<path d="M4.69511 26.4618L2.3092 7.10831L27.1214 4.04945L29.5073 23.4029L4.69511 26.4618Z" fill="url(#paint9_linear)"/>
<path opacity="0.1" d="M8.93516 7.73084C6.98593 7.97114 5.58724 9.76318 5.82754 11.7124C6.06785 13.6616 7.85989 15.0603 9.80912 14.82C11.7583 14.5797 13.157 12.7877 12.9167 10.8384C12.6764 8.88922 10.8844 7.49053 8.93516 7.73084ZM9.10995 9.14867C10.2929 9.00284 11.3531 9.83027 11.4989 11.0132C11.6447 12.1962 10.8173 13.2563 9.63433 13.4022C8.45135 13.548 7.39122 12.7206 7.24538 11.5376C7.09954 10.3546 7.92698 9.29451 9.10995 9.14867Z" fill="#FED8CD"/>
<path opacity="0.1" d="M8.84781 7.02192C6.51546 7.30945 4.83114 9.46745 5.11868 11.7998C5.40621 14.1322 7.56421 15.8165 9.89657 15.5289C12.2289 15.2414 13.9132 13.0834 13.6257 10.7511C13.3382 8.4187 11.1802 6.73438 8.84781 7.02192ZM9.1974 9.8576C9.99724 9.75899 10.6914 10.3008 10.79 11.1006C10.8886 11.9005 10.3468 12.5947 9.54698 12.6933C8.74714 12.7919 8.05296 12.2501 7.95435 11.4502C7.85575 10.6504 8.39755 9.9562 9.1974 9.8576Z" fill="#FED8CD"/>
<path opacity="0.1" d="M8.76041 6.313C6.04492 6.64777 4.07498 9.17172 4.40975 11.8872C4.74451 14.6027 7.26846 16.5726 9.98395 16.2379C12.6994 15.9031 14.6694 13.3791 14.3346 10.6637C13.9998 7.94818 11.4759 5.97824 8.76041 6.313ZM9.28478 10.5665C9.7015 10.5151 10.0297 10.7713 10.0811 11.188C10.1325 11.6048 9.87629 11.933 9.45957 11.9844C9.04286 12.0357 8.71463 11.7795 8.66326 11.3628C8.61189 10.9461 8.86807 10.6179 9.28478 10.5665Z" fill="#FED8CD"/>
<path fill-rule="evenodd" clip-rule="evenodd" d="M9.02257 8.43978C10.5887 8.24671 12.0148 9.35978 12.2078 10.9259C12.4009 12.492 11.2878 13.9181 9.72173 14.1111C8.15563 14.3042 6.72954 13.1911 6.53647 11.625C6.3434 10.0589 7.45646 8.63285 9.02257 8.43978Z" fill="#FCE94F"/>
<path fill-rule="evenodd" clip-rule="evenodd" d="M8.41364 9.63035C10.3321 9.39384 12.0791 10.7573 12.3156 12.6758C12.5521 14.5943 11.1886 16.3412 9.27012 16.5778C7.35165 16.8143 5.60469 15.4508 5.36818 13.5323C5.13167 11.6138 6.49517 9.86686 8.41364 9.63035Z" fill="#FCE94F"/>
<path d="M4.31059 23.3426L4.22319 22.6337C4.22319 22.6337 5.8668 21.2316 6.35714 21.0665C6.84748 20.9014 7.45189 20.9121 8.07664 20.952C8.70134 20.9916 9.632 21.0346 9.91767 21.0092C10.2034 20.9841 10.7139 20.8859 11.3076 20.776C11.9014 20.6668 12.8877 20.5121 13.1971 20.4775C13.506 20.4395 14.2824 20.3869 15.1107 20.3358C15.9389 20.2848 17.0784 20.2296 17.3374 20.2216C17.5965 20.2134 17.903 20.2195 18.2505 20.2245C18.598 20.2292 19.1983 20.2269 19.41 20.2206C19.6217 20.2139 20.1151 20.2208 20.6845 20.2032C21.2538 20.1856 22.1569 20.0922 22.4148 20.041C22.6726 19.9898 23.1942 19.7299 23.78 19.4774C24.3659 19.2249 25.016 18.9798 25.5307 18.9571C26.0454 18.9347 29.0353 19.5747 29.0353 19.5747L29.1227 20.2836L25.4009 20.7425L22.388 21.1139L19.3751 21.4853L16.3622 21.8568L13.3493 22.2282L10.3364 22.5996L7.32348 22.9711L4.31059 23.3426Z" fill="black"/>
<path opacity="0.9" d="M4.31061 23.3426L4.36763 23.8051C4.36763 23.8051 6.25193 24.3554 6.76326 24.3606C7.27462 24.3659 7.86195 24.2381 8.46323 24.0877C9.06454 23.9375 9.96355 23.7238 10.2472 23.6824C10.5309 23.6402 11.0485 23.6002 11.6496 23.5498C12.2506 23.4995 13.2436 23.3986 13.5522 23.3577C13.8611 23.3196 14.6289 23.1969 15.4469 23.063C16.2649 22.929 17.3872 22.7347 17.6415 22.6878C17.8958 22.6407 18.1935 22.5759 18.5314 22.5027C18.8694 22.4301 19.4553 22.3111 19.663 22.2726C19.8707 22.234 20.3506 22.131 20.9094 22.0277C21.4682 21.9242 22.3677 21.8018 22.6295 21.7825C22.8912 21.7632 23.4521 21.8214 24.0741 21.8624C24.6961 21.9033 25.3793 21.9267 25.8858 21.8376C26.3923 21.7486 29.1799 20.7467 29.1799 20.7467L29.1228 20.2842L25.401 20.743L22.3881 21.1145L19.3752 21.4859L16.3623 21.8573L13.3494 22.2288L10.3365 22.6002L7.32357 22.9716L4.31061 23.3426Z" fill="black"/>
<path opacity="0.3" d="M4.31061 23.3426L29.1228 20.2837L29.385 22.4105L4.5728 25.4693L4.31061 23.3426Z" fill="#4D585E"/>
<path opacity="0.2" d="M4.69511 26.4618L2.3092 7.10831L27.1214 4.04945L29.5073 23.4029L4.69511 26.4618Z" stroke="black"/>
<path opacity="0.6" d="M32.6153 21.4711L28.8196 22.3292L29.3708 24.7676L33.1665 23.9096L32.6153 21.4711Z" fill="url(#paint10_radial)"/>
<path opacity="0.6" d="M4.31937 30.4306L8.11505 29.5726L7.56382 27.1341L3.76814 27.9922L4.31937 30.4306Z" fill="url(#paint11_radial)"/>
<path opacity="0.6" d="M28.8196 22.3291L7.56378 27.1341L8.11501 29.5726L29.3708 24.7676L28.8196 22.3291Z" fill="url(#paint12_linear)"/>
<path opacity="0.35" d="M31.393 22.7711L26.6528 1.8017C26.6528 1.8017 9.34456 5.71431 0.69043 7.67062C2.27062 14.6609 5.43099 28.6415 5.43099 28.6415L31.393 22.7711Z" stroke="black" stroke-linejoin="round"/>
<path d="M31.393 22.7711L26.6528 1.8017C26.6528 1.8017 9.34456 5.71431 0.69043 7.67062C2.27062 14.6609 5.43099 28.6415 5.43099 28.6415L31.393 22.7711Z" fill="url(#paint13_linear)"/>
<path opacity="0.4" d="M31.393 22.7711L26.6528 1.8017C26.6528 1.8017 9.34456 5.71431 0.69043 7.67062C2.27062 14.6609 5.43099 28.6415 5.43099 28.6415L31.393 22.7711Z" stroke="white" stroke-linejoin="round"/>
<path opacity="0.4" d="M0.69043 7.67062L0.800675 8.15832L26.7631 2.28939L26.6528 1.8017L0.69043 7.67062Z" fill="white"/>
<path d="M6.17208 27.4487L1.8725 8.42865L25.9118 2.99446L30.2113 22.0145L6.17208 27.4487Z" fill="url(#paint14_linear)"/>
<path opacity="0.1" d="M8.43772 8.40917C6.54921 8.83608 5.35797 10.7534 5.79101 12.669C6.22405 14.5847 8.12415 15.8031 10.0127 15.3762C11.9012 14.9493 13.0924 13.032 12.6594 11.1164C12.2263 9.20074 10.3262 7.98227 8.43772 8.40917ZM8.75271 9.80258C9.89883 9.5435 11.0229 10.2643 11.2857 11.4269C11.5485 12.5895 10.8438 13.7237 9.69767 13.9828C8.55155 14.2419 7.42749 13.5211 7.16468 12.3585C6.90187 11.1959 7.60658 10.0617 8.75271 9.80258Z" fill="#FED8CD"/>
<path opacity="0.1" d="M8.2802 7.71247C6.02049 8.22328 4.58598 10.5321 5.10414 12.8243C5.6223 15.1165 7.91042 16.5838 10.1701 16.0729C12.4298 15.5621 13.8643 13.2533 13.3462 10.9611C12.828 8.66895 10.5399 7.20165 8.2802 7.71247ZM8.91017 10.4993C9.6851 10.3241 10.4211 10.7961 10.5988 11.5822C10.7765 12.3682 10.3151 13.1109 9.54015 13.2861C8.76522 13.4613 8.02918 12.9893 7.85149 12.2032C7.67379 11.4172 8.13524 10.6745 8.91017 10.4993Z" fill="#FED8CD"/>
<path opacity="0.1" d="M8.12267 7.01576C5.49177 7.61049 3.814 10.3108 4.41728 12.9795C5.02055 15.6483 7.69669 17.3644 10.3276 16.7697C12.9585 16.1749 14.6363 13.4746 14.033 10.8059C13.4297 8.13716 10.7536 6.42103 8.12267 7.01576ZM9.06763 11.196C9.47137 11.1047 9.81939 11.3279 9.91196 11.7374C10.0045 12.147 9.78636 12.4981 9.38262 12.5894C8.97889 12.6807 8.63087 12.4575 8.53829 12.048C8.44571 11.6384 8.6639 11.2873 9.06763 11.196Z" fill="#FED8CD"/>
<path fill-rule="evenodd" clip-rule="evenodd" d="M8.59518 9.10588C10.1125 8.76288 11.6246 9.73253 11.9725 11.2717C12.3204 12.8108 11.3725 14.3365 9.85513 14.6795C8.33782 15.0225 6.82574 14.0529 6.47782 12.5138C6.12989 10.9746 7.07787 9.44888 8.59518 9.10588Z" fill="#FCE94F"/>
<path fill-rule="evenodd" clip-rule="evenodd" d="M8.11812 10.3488C9.97683 9.9286 11.8291 11.1164 12.2553 13.0018C12.6815 14.8873 11.5203 16.7563 9.66156 17.1765C7.80285 17.5967 5.95055 16.4088 5.52434 14.5234C5.09814 12.638 6.25941 10.7689 8.11812 10.3488Z" fill="#FCE94F"/>
<path d="M5.47911 24.3832L5.32161 23.6865C5.32161 23.6865 6.79267 22.1335 7.25714 21.922C7.72162 21.7106 8.31582 21.6629 8.93294 21.6424C9.54999 21.6216 10.4676 21.5746 10.7454 21.5218C11.0232 21.4693 11.5143 21.3224 12.0857 21.1559C12.6574 20.99 13.6097 20.7411 13.9097 20.6769C14.209 20.6092 14.9656 20.4821 15.7732 20.3514C16.5809 20.2209 17.6934 20.0562 17.9469 20.0232C18.2003 19.9901 18.5016 19.9667 18.8432 19.9381C19.1847 19.9093 19.7736 19.8492 19.9806 19.8224C20.1877 19.7954 20.6726 19.7547 21.2295 19.6823C21.7865 19.6099 22.6633 19.43 22.9111 19.3542C23.1589 19.2784 23.6445 18.9696 24.1938 18.662C24.7432 18.3544 25.3564 18.0479 25.8592 17.9757C26.362 17.9038 29.3608 18.2522 29.3608 18.2522L29.5183 18.949L25.9125 19.7641L22.9934 20.4239L20.0743 21.0838L17.1553 21.7437L14.2362 22.4035L11.3172 23.0634L8.39814 23.7233L5.47911 24.3832Z" fill="black"/>
<path opacity="0.9" d="M5.47913 24.3832L5.58189 24.8378C5.58189 24.8378 7.48667 25.2035 7.98898 25.1594C8.49133 25.1155 9.05476 24.9317 9.62959 24.7241C10.2045 24.5168 11.0651 24.2175 11.3393 24.149C11.6133 24.0797 12.1173 23.99 12.702 23.882C13.2867 23.774 14.251 23.5779 14.5496 23.5075C14.8489 23.4399 15.5899 23.2438 16.3791 23.0317C17.1683 22.8196 18.25 22.5182 18.4948 22.447C18.7395 22.3756 19.0251 22.2825 19.3493 22.1771C19.6736 22.0723 20.2366 21.8975 20.4366 21.8391C20.6365 21.7808 21.097 21.632 21.6349 21.4754C22.1728 21.3187 23.0431 21.1102 23.298 21.0658C23.5529 21.0213 24.1092 21.0252 24.7237 21.0059C25.3383 20.9867 26.0111 20.9441 26.4991 20.8067C26.9872 20.6693 29.6212 19.4041 29.6212 19.4041L29.5185 18.9495L25.9126 19.7647L22.9936 20.4245L20.0745 21.0844L17.1554 21.7443L14.2364 22.4041L11.3173 23.064L8.39829 23.7239L5.47913 24.3832Z" fill="black"/>
<path opacity="0.3" d="M5.47913 24.3832L29.5184 18.949L29.9909 21.0391L5.95161 26.4733L5.47913 24.3832Z" fill="#4D585E"/>
<path opacity="0.2" d="M6.17208 27.4487L1.8725 8.42865L25.9118 2.99446L30.2113 22.0145L6.17208 27.4487Z" stroke="black"/>
<path opacity="0.6" d="M31 25H27.0526V27.5H31V25Z" fill="url(#paint15_radial)"/>
<path opacity="0.6" d="M0.999952 27.5H4.94733V25H0.999952V27.5Z" fill="url(#paint16_radial)"/>
<path opacity="0.6" d="M27.0526 25H4.94733V27.5H27.0526V25Z" fill="url(#paint17_linear)"/>
<path opacity="0.35" d="M29.4999 25.9985L29.4999 4.5C29.4999 4.5 11.4999 4.5 2.49994 4.5C2.49994 11.6667 2.49994 26 2.49994 26L29.4999 25.9985Z" stroke="black" stroke-linejoin="round"/>
<path d="M29.4999 25.9985L29.4999 4.5C29.4999 4.5 11.4999 4.5 2.49994 4.5C2.49994 11.6667 2.49994 26 2.49994 26L29.4999 25.9985Z" fill="url(#paint18_linear)"/>
<path opacity="0.4" d="M29.4999 25.9985L29.4999 4.5C29.4999 4.5 11.4999 4.5 2.49994 4.5C2.49994 11.6667 2.49994 26 2.49994 26L29.4999 25.9985Z" stroke="white" stroke-linejoin="round"/>
<path opacity="0.4" d="M2.49994 4.5V5H29.4999V4.5H2.49994Z" fill="white"/>
<path d="M3.49994 25V5.5H28.4999V25H3.49994Z" fill="url(#paint19_linear)"/>
<path opacity="0.1" d="M10 6.92859C8.03603 6.92859 6.42859 8.53603 6.42859 10.5C6.42859 12.464 8.03603 14.0714 10 14.0714C11.964 14.0714 13.5714 12.464 13.5714 10.5C13.5714 8.53603 11.964 6.92859 10 6.92859ZM10 8.35716C11.1919 8.35716 12.1429 9.30809 12.1429 10.5C12.1429 11.6919 11.1919 12.6429 10 12.6429C8.80809 12.6429 7.85716 11.6919 7.85716 10.5C7.85716 9.30809 8.80809 8.35716 10 8.35716Z" fill="#FED8CD"/>
<path opacity="0.1" d="M9.99995 6.21429C7.64993 6.21429 5.71423 8.14999 5.71423 10.5C5.71423 12.85 7.64993 14.7857 9.99995 14.7857C12.35 14.7857 14.2857 12.85 14.2857 10.5C14.2857 8.14999 12.35 6.21429 9.99995 6.21429ZM9.99995 9.07144C10.8058 9.07144 11.4285 9.69411 11.4285 10.5C11.4285 11.3059 10.8058 11.9286 9.99995 11.9286C9.19405 11.9286 8.57138 11.3059 8.57138 10.5C8.57138 9.69411 9.19405 9.07144 9.99995 9.07144Z" fill="#FED8CD"/>
<path opacity="0.1" d="M10 5.5C7.26396 5.5 5 7.76396 5 10.5C5 13.236 7.26396 15.5 10 15.5C12.736 15.5 15 13.236 15 10.5C15 7.76396 12.736 5.5 10 5.5ZM10 9.78571C10.4199 9.78571 10.7143 10.0801 10.7143 10.5C10.7143 10.9199 10.4199 11.2143 10 11.2143C9.58013 11.2143 9.28571 10.9199 9.28571 10.5C9.28571 10.0801 9.58013 9.78571 10 9.78571Z" fill="#FED8CD"/>
<path fill-rule="evenodd" clip-rule="evenodd" d="M9.99996 7.64288C11.5779 7.64288 12.8571 8.92207 12.8571 10.5C12.8571 12.078 11.5779 13.3572 9.99996 13.3572C8.42201 13.3572 7.14282 12.078 7.14282 10.5C7.14282 8.92207 8.42201 7.64288 9.99996 7.64288Z" fill="#FCE94F"/>
<path fill-rule="evenodd" clip-rule="evenodd" d="M9.25 8.75C11.183 8.75 12.75 10.317 12.75 12.25C12.75 14.183 11.183 15.75 9.25 15.75C7.317 15.75 5.75 14.183 5.75 12.25C5.75 10.317 7.317 8.75 9.25 8.75Z" fill="#FCE94F"/>
<path d="M3.49994 21.8572V21.1429C3.49994 21.1429 5.30275 19.9525 5.8096 19.8486C6.31646 19.7447 6.91502 19.8293 7.53019 19.9454C8.14536 20.0611 9.06377 20.2176 9.3504 20.2274C9.63703 20.2374 10.1557 20.2024 10.7584 20.166C11.3611 20.1302 12.359 20.0974 12.6702 20.101C12.9815 20.101 13.7585 20.1438 14.5868 20.1944C15.415 20.2451 16.5527 20.3298 16.8108 20.3535C17.0689 20.3771 17.3723 20.4207 17.7166 20.4682C18.0609 20.5153 18.657 20.5865 18.8679 20.6061C19.0788 20.6254 19.5677 20.6926 20.1349 20.7448C20.7022 20.797 21.6099 20.8148 21.8721 20.7955C22.1342 20.7762 22.6837 20.5821 23.296 20.4032C23.9084 20.2243 24.5836 20.0605 25.0972 20.101C25.6108 20.1417 28.4999 21.1428 28.4999 21.1428V21.8571H24.7499H21.7142H18.6785H15.6428H12.6071H9.57137H6.53565L3.49994 21.8572Z" fill="black"/>
<path opacity="0.9" d="M3.49994 21.8571V22.3232C3.49994 22.3232 5.30275 23.0999 5.8096 23.1677C6.31646 23.2355 6.91502 23.1805 7.53019 23.1048C8.14536 23.0293 9.06377 22.9271 9.3504 22.9208C9.63703 22.9136 10.1557 22.9372 10.7584 22.9608C11.3611 22.9844 12.359 23.0058 12.6702 23.0029C12.9815 23.0029 13.7585 22.9751 14.5868 22.9422C15.415 22.9094 16.5527 22.8539 16.8108 22.8384C17.0689 22.8227 17.3723 22.7949 17.7166 22.7636C18.0609 22.7329 18.657 22.6864 18.8679 22.6737C19.0788 22.6608 19.5677 22.6172 20.1349 22.5831C20.7022 22.5488 21.6099 22.5374 21.8721 22.5502C22.1342 22.5631 22.6837 22.6895 23.296 22.8062C23.9084 22.9229 24.5836 23.0298 25.0972 23.0034C25.6108 22.9769 28.4999 22.3236 28.4999 22.3236V21.8576H24.7499H21.7142H18.6785H15.6428H12.6071H9.57137H6.53565L3.49994 21.8571Z" fill="black"/>
<path opacity="0.3" d="M3.49994 21.8571H28.4999V24H3.49994V21.8571Z" fill="#4D585E"/>
<path opacity="0.2" d="M3.49994 25V5.5H28.4999V25H3.49994Z" stroke="black"/>
<path d="M16.75 11.5H17.7158H16.75ZM17.8574 11.5H18.7588H17.8574ZM18.9004 11.5H19.6988H18.9004ZM19.8276 11.5H20.1753H19.8276ZM20.3169 11.5H21.0895H20.3169ZM21.244 11.5H23.2786H21.244ZM23.4073 11.5H24.9655H23.4073ZM25.0942 11.5H25.5707H25.0942ZM16.75 11.75H18.2566H16.75ZM18.424 11.75H19.1451H18.424ZM19.2739 11.75H19.6344H19.2739ZM19.7761 11.75H20.4328H19.7761ZM20.5744 11.75H21.244H20.5744ZM21.3728 11.75H22.4416H21.3728ZM22.5832 11.75H23.9739H22.5832ZM24.1027 11.75H25.0298H24.1027ZM25.1586 11.75H25.3904H25.1586ZM16.75 11.9981H18.0248H16.75ZM18.1536 11.9981H20.2396H18.1536ZM20.3684 11.9981H21.3857H20.3684ZM21.5144 11.9981H22.4673H21.5144ZM22.5961 11.9981H23.4073H22.5961ZM23.5361 11.9981L24.8109 12.0019L23.5361 11.9981ZM24.9268 12.0019H27H24.9268ZM16.75 12.25H18.5141H16.75ZM18.6558 12.25H20.5616H18.6558ZM20.6903 12.25H21.4501H20.6903ZM21.5788 12.25H23.3687H21.5788ZM23.4846 12.25H24.7079H23.4846ZM24.8496 12.25H25.3389H24.8496ZM25.4677 12.25H25.7381H25.4677ZM25.8797 12.25H26.6394H25.8797ZM16.75 12.5H17.4067H16.75ZM17.6128 12.5H20.0465H17.6128ZM16.75 12.9981H18.0248H16.75ZM18.1536 12.9981H20.2396H18.1536ZM20.3684 12.9981H21.3857H20.3684ZM21.5144 12.9981H22.4673H21.5144ZM22.5961 12.9981H23.4073H22.5961ZM23.5361 12.9981L24.8109 13.0019L23.5361 12.9981ZM24.9268 13.0019H27H24.9268ZM16.75 13.25H18.3725H16.75ZM18.5013 13.25H20.2396H18.5013ZM20.3684 13.25H21.038H20.3684ZM21.1668 13.25H22.8021H21.1668ZM22.9309 13.25H24.9912H22.9309ZM25.1329 13.25H25.8926H25.1329ZM16.75 13.5H18.5141H16.75ZM18.6558 13.5H20.5616H18.6558ZM20.6903 13.5H21.4501H20.6903ZM21.5788 13.5H23.3687H21.5788ZM23.4846 13.5H24.7079H23.4846ZM24.8496 13.5H25.3389H24.8496ZM25.4677 13.5H25.7381H25.4677ZM25.8797 13.5H26.6394H25.8797ZM16.75 13.75H18.2566H16.75ZM18.424 13.75H19.1451H18.424ZM19.2739 13.75H19.6344H19.2739ZM19.7761 13.75H20.4328H19.7761ZM20.5744 13.75H21.244H20.5744ZM21.3728 13.75H22.4416H21.3728ZM22.5832 13.75H23.9739H22.5832ZM24.1027 13.75H25.0298H24.1027ZM25.1586 13.75H25.3904H25.1586ZM16.75 14.2481H18.0248H16.75ZM18.1536 14.2481H20.2396H18.1536ZM20.3684 14.2481H21.3857H20.3684ZM21.5144 14.2481H22.4673H21.5144ZM22.5961 14.2481H23.4073H22.5961ZM23.5361 14.2481L24.8109 14.2519L23.5361 14.2481ZM24.9268 14.2519H27H24.9268ZM16.75 14.5H18.2566H16.75ZM18.424 14.5H19.1451H18.424ZM19.2739 14.5H19.6344H19.2739ZM19.7761 14.5H20.4328H19.7761ZM20.5744 14.5H21.244H20.5744ZM21.3728 14.5H22.4416H21.3728ZM22.5832 14.5H23.9739H22.5832ZM24.1027 14.5H25.0298H24.1027ZM25.1586 14.5H25.3904H25.1586ZM16.75 14.75H18.3467H16.75ZM18.4884 14.75H18.9906H18.4884ZM19.1193 14.75H20.2654H19.1193ZM20.3942 14.75H22.081H20.3942ZM22.2227 14.75H23.3687H22.2227ZM23.4846 14.75H23.7293H23.4846ZM23.858 14.75H25.3131H23.858ZM25.4677 14.75H26.2274H25.4677ZM16.75 15H18.3467H16.75ZM18.4884 15H19.2095H18.4884ZM19.3383 15H20.4714H19.3383ZM20.6002 15H21.8235H20.6002ZM21.9651 15H22.4545H21.9651ZM22.5832 15H22.8536H22.5832ZM22.9953 15H23.755H22.9953Z" stroke="url(#paint20_linear)" stroke-width="0.2"/>
<path d="M16.75 15.75H17.386H16.75ZM17.4793 15.75H18.0729H17.4793ZM18.1661 15.75H18.6919H18.1661ZM18.7767 15.75H19.0057H18.7767ZM19.0989 15.75H19.6077H19.0989ZM19.7095 15.75H21.0493H19.7095ZM21.1341 15.75H22.1602H21.1341ZM22.245 15.75H22.5587H22.245ZM16.75 16H17.7421H16.75ZM17.8524 16H18.3273H17.8524ZM18.4121 16H18.6495H18.4121ZM18.7428 16H19.1753H18.7428ZM19.2685 16H19.7095H19.2685ZM19.7943 16H20.4981H19.7943ZM20.5914 16H21.5072H20.5914ZM21.592 16H22.2026H21.592ZM22.2874 16H22.44H22.2874ZM16.75 16.2481H17.5895H16.75ZM17.6743 16.2481H19.0481H17.6743ZM19.1329 16.2481H19.8028H19.1329ZM19.8876 16.2481H20.5151H19.8876ZM20.5999 16.2481H21.1341H20.5999ZM21.2189 16.2481L22.0584 16.2519L21.2189 16.2481ZM22.1347 16.2519H23.5H22.1347ZM16.75 16.5H17.9117H16.75ZM18.005 16.5H19.2601H18.005ZM19.3448 16.5H19.8452H19.3448ZM19.93 16.5H21.1087H19.93ZM21.185 16.5H21.9906H21.185ZM22.0839 16.5H22.4061H22.0839ZM22.4909 16.5H22.669H22.4909ZM22.7622 16.5H23.2626H22.7622ZM16.75 16.75H17.1825H16.75ZM17.3182 16.75H18.9209H17.3182ZM16.75 17.2481H17.5895H16.75ZM17.6743 17.2481H19.0481H17.6743ZM19.1329 17.2481H19.8028H19.1329ZM19.8876 17.2481H20.5151H19.8876ZM20.5999 17.2481H21.1341H20.5999ZM21.2189 17.2481L22.0584 17.2519L21.2189 17.2481ZM22.1347 17.2519H23.5H22.1347ZM16.75 17.5H17.8185H16.75ZM17.9033 17.5H19.0481H17.9033ZM19.1329 17.5H19.5738H19.1329ZM19.6586 17.5H20.7356H19.6586ZM20.8204 17.5H22.1771H20.8204ZM22.2704 17.5H22.7707H22.2704ZM16.75 17.75H17.9117H16.75ZM18.005 17.75H19.2601H18.005ZM19.3448 17.75H19.8452H19.3448ZM19.93 17.75H21.1087H19.93ZM21.185 17.75H21.9906H21.185ZM22.0839 17.75H22.4061H22.0839ZM22.4909 17.75H22.669H22.4909ZM22.7622 17.75H23.2626H22.7622ZM16.75 18H17.7421H16.75ZM17.8524 18H18.3273H17.8524ZM18.4121 18H18.6495H18.4121ZM18.7428 18H19.1753H18.7428ZM19.2685 18H19.7095H19.2685ZM19.7943 18H20.4981H19.7943ZM20.5914 18H21.5072H20.5914ZM21.592 18H22.2026H21.592ZM22.2874 18H22.44H22.2874ZM16.75 18.4981H17.5895H16.75ZM17.6743 18.4981H19.0481H17.6743ZM19.1329 18.4981H19.8028H19.1329ZM19.8876 18.4981H20.5151H19.8876ZM20.5999 18.4981H21.1341H20.5999ZM21.2189 18.4981L22.0584 18.5019L21.2189 18.4981ZM22.1347 18.5019H23.5H22.1347ZM16.75 18.75H17.7421H16.75ZM17.8524 18.75H18.3273H17.8524ZM18.4121 18.75H18.6495H18.4121ZM18.7428 18.75H19.1753H18.7428ZM19.2685 18.75H19.7095H19.2685ZM19.7943 18.75H20.4981H19.7943ZM20.5914 18.75H21.5072H20.5914ZM21.592 18.75H22.2026H21.592ZM22.2874 18.75H22.44H22.2874ZM16.75 19H17.8015H16.75ZM17.8948 19H18.2255H17.8948ZM18.3103 19H19.065H18.3103ZM19.1498 19H20.2607H19.1498ZM20.354 19H21.1087H20.354ZM21.185 19H21.3461H21.185ZM21.4309 19H22.3891H21.4309ZM22.4909 19H22.9912H22.4909ZM16.75 19.25H17.8015H16.75ZM17.8948 19.25H18.3697H17.8948ZM18.4545 19.25H19.2007H18.4545ZM19.2855 19.25H20.0911H19.2855ZM20.1844 19.25H20.5066H20.1844ZM20.5914 19.25H20.7695H20.5914ZM20.8628 19.25H21.3631H20.8628Z" stroke="url(#paint21_linear)" stroke-width="0.2"/>
<path opacity="0.6" d="M23.75 15.5H16.5V19.5H23.75V15.5Z" fill="#FCE94F"/>
<path fill-rule="evenodd" clip-rule="evenodd" d="M23 14.064L25.9276 17L31.051 11.8621C31.4988 11.4922 31.051 11.1281 31.051 11.1281L28.8553 8.92612C28.8553 8.92612 28.5185 8.52986 28.1233 8.92612L23 14.064Z" stroke="#BF830A" stroke-width="2" stroke-linejoin="round"/>
<path fill-rule="evenodd" clip-rule="evenodd" d="M23 14.0682L25.9193 17L31.0282 11.8694C31.5273 11.5001 31.0282 11.1364 31.0282 11.1364L28.8387 8.93759C28.8387 8.93759 28.4766 8.51551 28.1088 8.93759L23 14.0682Z" fill="url(#paint22_linear)"/>
<path fill-rule="evenodd" clip-rule="evenodd" d="M22.8473 14.3398V15.7427L24.2455 17.1456H25.6437L22.8473 14.3398Z" stroke="#838383" stroke-width="2" stroke-linejoin="round"/>
<path fill-rule="evenodd" clip-rule="evenodd" d="M22.8473 14.3398V15.7427L24.2455 17.1456H25.6437L22.8473 14.3398Z" fill="#CECECE"/>
<path fill-rule="evenodd" clip-rule="evenodd" d="M21.25 18.0486H22.6482L23.3473 17.3471L22.6482 16.6456L21.25 18.0486Z" stroke="#BF830A" stroke-width="2" stroke-linejoin="round"/>
<path fill-rule="evenodd" clip-rule="evenodd" d="M22.9225 16.2599L22.3982 16.8956L23.0973 17.5971L23.6872 17.1367L22.9225 16.2599Z" stroke="#838383" stroke-width="2"/>
<path opacity="0.1" d="M26.1122 19C28.4771 19 30.3943 18.6663 30.3943 18.2547C30.3943 17.8431 28.4771 17.5094 26.1122 17.5094C23.7473 17.5094 21.8302 17.8431 21.8302 18.2547C21.8302 18.6663 23.7473 19 26.1122 19Z" fill="url(#paint23_radial)"/>
<path fill-rule="evenodd" clip-rule="evenodd" d="M22.9225 16.2599L22.3982 16.8956L23.0973 17.5971L23.6872 17.1367L22.9225 16.2599Z" fill="#CECECE"/>
<path fill-rule="evenodd" clip-rule="evenodd" d="M21.25 18.0486H22.6482L23.3473 17.3471L22.6482 16.6456L21.25 18.0486Z" fill="#FCE94F"/>
<path opacity="0.5" d="M24.0485 13.6819L28.396 9.31967" stroke="white" stroke-linecap="round"/>
<path opacity="0.5" d="M23.056 15.6375L23.0522 14.8455" stroke="white" stroke-linecap="round"/>
<path opacity="0.1" d="M26.277 15.9685L30.6246 11.6062" stroke="black" stroke-linecap="round"/>
<path opacity="0.1" d="M24.4615 16.7793L25.0709 17.0011" stroke="black" stroke-linecap="round"/>
<path d="M12.3016 18.2982C12.3017 18.4437 12.2067 18.5878 12.022 18.7222C11.8372 18.8566 11.5664 18.9788 11.225 19.0817C10.8836 19.1846 10.4783 19.2662 10.0322 19.3219C9.58604 19.3776 9.10788 19.4062 8.62499 19.4062C8.1421 19.4062 7.66394 19.3776 7.21782 19.3219C6.7717 19.2662 6.36635 19.1846 6.02494 19.0817C5.68353 18.9788 5.41273 18.8566 5.22802 18.7222C5.04331 18.5878 4.9483 18.4437 4.94843 18.2982C4.9483 18.1527 5.04331 18.0086 5.22802 17.8742C5.41273 17.7397 5.68353 17.6176 6.02494 17.5147C6.36635 17.4118 6.7717 17.3302 7.21782 17.2745C7.66394 17.2188 8.1421 17.1901 8.62499 17.1901C9.10788 17.1901 9.58604 17.2188 10.0322 17.2745C10.4783 17.3302 10.8836 17.4118 11.225 17.5147C11.5664 17.6176 11.8372 17.7397 12.022 17.8742C12.2067 18.0086 12.3017 18.1527 12.3016 18.2982Z" fill="url(#paint24_radial)" fill-opacity="0.5"/>
<path d="M8.62499 9.00009C6.0731 9.00009 4 11.0732 4 13.6251C4 16.177 6.0731 18.25 8.62499 18.25C11.1769 18.25 13.25 16.177 13.25 13.6251C13.25 11.0732 11.1769 9.00009 8.62499 9.00009Z" fill="url(#paint25_radial)" fill-opacity="0.5"/>
<path opacity="0.75" d="M8.62465 11.7949C9.95234 11.7949 11.0286 11.2988 11.0286 10.6868C11.0286 10.0749 9.95234 9.57877 8.62465 9.57877C7.29695 9.57877 6.22064 10.0749 6.22064 10.6868C6.22064 11.2988 7.29695 11.7949 8.62465 11.7949Z" fill="url(#paint26_linear)"/>
<path opacity="0.25" d="M8.62498 9C6.07309 9 4 11.0731 4 13.625C4 16.1769 6.07309 18.25 8.62498 18.25C11.1769 18.25 13.25 16.1769 13.25 13.625C13.25 11.0731 11.1769 9 8.62498 9V9Z" stroke="black" stroke-width="0.999995" stroke-linecap="round" stroke-linejoin="round"/>
</g>
<defs>
<radialGradient id="paint0_radial" cx="0" cy="0" r="1" gradientUnits="userSpaceOnUse" gradientTransform="translate(27.5323 25.7008) rotate(-2.78664) scale(3.95484 1.25)">
<stop stop-color="#181818"/>
<stop offset="1" stop-color="#181818" stop-opacity="0"/>
</radialGradient>
<radialGradient id="paint1_radial" cx="0" cy="0" r="1" gradientUnits="userSpaceOnUse" gradientTransform="translate(5.46429 26.775) rotate(177.213) scale(3.95484 1.25)">
<stop stop-color="#181818"/>
<stop offset="1" stop-color="#181818" stop-opacity="0"/>
</radialGradient>
<linearGradient id="paint2_linear" x1="17.3939" y1="27.4557" x2="17.2719" y2="24.9486" gradientUnits="userSpaceOnUse">
<stop stop-color="#181818" stop-opacity="0"/>
<stop offset="0.5" stop-color="#181818"/>
<stop offset="1" stop-color="#181818" stop-opacity="0"/>
</linearGradient>
<linearGradient id="paint3_linear" x1="16.7414" y1="31.232" x2="15.1856" y2="-0.730197" gradientUnits="userSpaceOnUse">
<stop stop-color="#EDEDED"/>
<stop offset="1" stop-color="white"/>
</linearGradient>
<linearGradient id="paint4_linear" x1="12.1989" y1="23.6127" x2="11.1228" y2="1.50374" gradientUnits="userSpaceOnUse">
<stop stop-color="#16538C"/>
<stop offset="0.362069" stop-color="#3594CA"/>
<stop offset="1" stop-color="#4EDFF3"/>
</linearGradient>
<radialGradient id="paint5_radial" cx="0" cy="0" r="1" gradientUnits="userSpaceOnUse" gradientTransform="translate(28.2182 24.8213) rotate(-7.028) scale(3.95484 1.25)">
<stop stop-color="#181818"/>
<stop offset="1" stop-color="#181818" stop-opacity="0"/>
</radialGradient>
<radialGradient id="paint6_radial" cx="0" cy="0" r="1" gradientUnits="userSpaceOnUse" gradientTransform="translate(6.29006 27.5246) rotate(172.972) scale(3.95484 1.25)">
<stop stop-color="#181818"/>
<stop offset="1" stop-color="#181818" stop-opacity="0"/>
</radialGradient>
<linearGradient id="paint7_linear" x1="18.2374" y1="27.3212" x2="17.9302" y2="24.83" gradientUnits="userSpaceOnUse">
<stop stop-color="#181818" stop-opacity="0"/>
<stop offset="0.5" stop-color="#181818"/>
<stop offset="1" stop-color="#181818" stop-opacity="0"/>
</linearGradient>
<linearGradient id="paint8_linear" x1="17.8659" y1="31.1354" x2="13.9506" y2="-0.624147" gradientUnits="userSpaceOnUse">
<stop stop-color="#EDEDED"/>
<stop offset="1" stop-color="white"/>
</linearGradient>
<linearGradient id="paint9_linear" x1="12.7724" y1="23.873" x2="10.0641" y2="1.90415" gradientUnits="userSpaceOnUse">
<stop stop-color="#16538C"/>
<stop offset="0.362069" stop-color="#3594CA"/>
<stop offset="1" stop-color="#4EDFF3"/>
</linearGradient>
<radialGradient id="paint10_radial" cx="0" cy="0" r="1" gradientUnits="userSpaceOnUse" gradientTransform="translate(29.0899 23.5496) rotate(-12.7379) scale(3.89882 1.25)">
<stop stop-color="#181818"/>
<stop offset="1" stop-color="#181818" stop-opacity="0"/>
</radialGradient>
<radialGradient id="paint11_radial" cx="0" cy="0" r="1" gradientUnits="userSpaceOnUse" gradientTransform="translate(7.84477 28.3522) rotate(167.262) scale(3.89881 1.25)">
<stop stop-color="#181818"/>
<stop offset="1" stop-color="#181818" stop-opacity="0"/>
</radialGradient>
<linearGradient id="paint12_linear" x1="19.5483" y1="26.9982" x2="18.9949" y2="24.5499" gradientUnits="userSpaceOnUse">
<stop stop-color="#181818" stop-opacity="0"/>
<stop offset="0.5" stop-color="#181818"/>
<stop offset="1" stop-color="#181818" stop-opacity="0"/>
</linearGradient>
<linearGradient id="paint13_linear" x1="19.5698" y1="30.8278" x2="12.5141" y2="-0.38463" gradientUnits="userSpaceOnUse">
<stop stop-color="#EDEDED"/>
<stop offset="1" stop-color="white"/>
</linearGradient>
<linearGradient id="paint14_linear" x1="13.8366" y1="24.0952" x2="8.95595" y2="2.5048" gradientUnits="userSpaceOnUse">
<stop stop-color="#16538C"/>
<stop offset="0.362069" stop-color="#3594CA"/>
<stop offset="1" stop-color="#4EDFF3"/>
</linearGradient>
<radialGradient id="paint15_radial" cx="0" cy="0" r="1" gradientUnits="userSpaceOnUse" gradientTransform="translate(27.0471 26.25) scale(3.95485 1.25)">
<stop stop-color="#181818"/>
<stop offset="1" stop-color="#181818" stop-opacity="0"/>
</radialGradient>
<radialGradient id="paint16_radial" cx="0" cy="0" r="1" gradientUnits="userSpaceOnUse" gradientTransform="translate(4.95287 26.25) rotate(180) scale(3.95484 1.25)">
<stop stop-color="#181818"/>
<stop offset="1" stop-color="#181818" stop-opacity="0"/>
</radialGradient>
<linearGradient id="paint17_linear" x1="16.8353" y1="27.5099" x2="16.8353" y2="24.9998" gradientUnits="userSpaceOnUse">
<stop stop-color="#181818" stop-opacity="0"/>
<stop offset="0.5" stop-color="#181818"/>
<stop offset="1" stop-color="#181818" stop-opacity="0"/>
</linearGradient>
<linearGradient id="paint18_linear" x1="15.9999" y1="31.25" x2="15.9999" y2="-0.75" gradientUnits="userSpaceOnUse">
<stop stop-color="#EDEDED"/>
<stop offset="1" stop-color="white"/>
</linearGradient>
<linearGradient id="paint19_linear" x1="11.8333" y1="23.4189" x2="11.8333" y2="1.28378" gradientUnits="userSpaceOnUse">
<stop stop-color="#16538C"/>
<stop offset="0.362069" stop-color="#3594CA"/>
<stop offset="1" stop-color="#4EDFF3"/>
</linearGradient>
<linearGradient id="paint20_linear" x1="20.4676" y1="15.7476" x2="20.4676" y2="10.4446" gradientUnits="userSpaceOnUse">
<stop stop-color="#D4D4D4"/>
<stop offset="1" stop-color="#FAFAFA"/>
</linearGradient>
<linearGradient id="paint21_linear" x1="19.1982" y1="19.9976" x2="19.1982" y2="14.6946" gradientUnits="userSpaceOnUse">
<stop stop-color="#D4D4D4"/>
<stop offset="1" stop-color="#FAFAFA"/>
</linearGradient>
<linearGradient id="paint22_linear" x1="25.9557" y1="11.2162" x2="28.8489" y2="13.8885" gradientUnits="userSpaceOnUse">
<stop stop-color="#FCE94F"/>
<stop offset="1" stop-color="#D7B031"/>
</linearGradient>
<radialGradient id="paint23_radial" cx="0" cy="0" r="1" gradientUnits="userSpaceOnUse" gradientTransform="translate(26.1122 18.2547) scale(4.28204 0.745304)">
<stop/>
<stop offset="1" stop-opacity="0"/>
</radialGradient>
<radialGradient id="paint24_radial" cx="0" cy="0" r="1" gradientUnits="userSpaceOnUse" gradientTransform="translate(8.62499 18.2982) scale(3.67656 1.10779)">
<stop stop-color="#3D3D3D"/>
<stop offset="0.5" stop-color="#686868" stop-opacity="0.498039"/>
<stop offset="1" stop-color="#686868" stop-opacity="0"/>
</radialGradient>
<radialGradient id="paint25_radial" cx="0" cy="0" r="1" gradientUnits="userSpaceOnUse" gradientTransform="translate(8.62511 9.48908) rotate(90) scale(13.2922 17.5456)">
<stop stop-color="#C8C8C8"/>
<stop offset="0.625454" stop-color="#FCFCFC"/>
<stop offset="1" stop-color="#89898B"/>
</radialGradient>
<linearGradient id="paint26_linear" x1="8.76778" y1="11.8888" x2="8.76778" y2="9.55417" gradientUnits="userSpaceOnUse">
<stop stop-color="white" stop-opacity="0.2"/>
<stop offset="1" stop-color="white" stop-opacity="0.998934"/>
</linearGradient>
<clipPath id="clip0">
<rect width="32" height="32" fill="white"/>
</clipPath>
</defs>
</svg>
