<svg width="32" height="32" viewBox="0 0 32 32" fill="none" xmlns="http://www.w3.org/2000/svg">
<g clip-path="url(#clip0)">
<path opacity="0.6" d="M32.163 22.6902L28.2588 23.2721L28.6273 25.7448L32.5316 25.1628L32.163 22.6902Z" fill="url(#paint0_radial)"/>
<path opacity="0.6" d="M2.85936 29.5858L6.7636 29.0038L6.39502 26.5312L2.49078 27.1131L2.85936 29.5858Z" fill="url(#paint1_radial)"/>
<path opacity="0.6" d="M28.2588 23.2721L6.39502 26.5312L6.7636 29.0038L28.6273 25.7448L28.2588 23.2721Z" fill="url(#paint2_linear)"/>
<path opacity="0.35" d="M30.8265 23.8989L27.657 2.63533C27.657 2.63533 9.8537 5.28912 0.952053 6.61601C2.00865 13.7044 4.12185 27.8811 4.12185 27.8811L30.8265 23.8989Z" stroke="black" stroke-width="2" stroke-linejoin="round"/>
<path d="M30.8265 23.8989L27.657 2.63533C27.657 2.63533 9.8537 5.28912 0.952053 6.61601C2.00865 13.7044 4.12185 27.8811 4.12185 27.8811L30.8265 23.8989Z" fill="url(#paint3_linear)"/>
<path opacity="0.4" d="M30.8265 23.8989L27.657 2.63533C27.657 2.63533 9.8537 5.28912 0.952053 6.61601C2.00865 13.7044 4.12185 27.8811 4.12185 27.8811L30.8265 23.8989Z" stroke="white" stroke-width="2" stroke-linejoin="round"/>
<path opacity="0.4" d="M0.952053 6.61601L1.02577 7.11054L27.7307 3.12987L27.657 2.63533L0.952053 6.61601Z" fill="white"/>
<path d="M4.96349 26.7446L2.08855 7.45765L26.8154 3.77184L29.6903 23.0587L4.96349 26.7446Z" fill="url(#paint4_linear)"/>
<path opacity="0.1" d="M10.1681 15.6588C8.22556 15.9483 6.87267 17.7752 7.16223 19.7177C7.45178 21.6602 9.27865 23.0131 11.2212 22.7236C13.1637 22.434 14.5166 20.6071 14.227 18.6646C13.9375 16.7221 12.1106 15.3692 10.1681 15.6588ZM10.3787 17.0717C11.5576 16.896 12.6383 17.6963 12.8141 18.8752C12.9898 20.0541 12.1895 21.1349 11.0106 21.3106C9.83165 21.4863 8.75092 20.686 8.57519 19.5071C8.39946 18.3282 9.1998 17.2474 10.3787 17.0717Z" fill="#FED8CD"/>
<path opacity="0.1" d="M10.0628 14.9523C7.73844 15.2987 6.10928 17.4987 6.45575 19.823C6.80222 22.1473 9.00215 23.7765 11.3265 23.43C13.6508 23.0836 15.28 20.8836 14.9335 18.5593C14.587 16.235 12.3871 14.6058 10.0628 14.9523ZM10.484 17.7782C11.2811 17.6594 11.9888 18.1834 12.1076 18.9805C12.2264 19.7776 11.7023 20.4853 10.9052 20.6041C10.1082 20.7229 9.40048 20.1989 9.28167 19.4018C9.16285 18.6047 9.68692 17.897 10.484 17.7782Z" fill="#FED8CD"/>
<path opacity="0.1" d="M9.95746 14.2458C7.25132 14.6492 5.34588 17.2222 5.74927 19.9283C6.15265 22.6345 8.72564 24.5399 11.4318 24.1365C14.1379 23.7331 16.0434 21.1601 15.64 18.454C15.2366 15.7479 12.6636 13.8424 9.95746 14.2458ZM10.5893 18.4847C11.0046 18.4228 11.3392 18.6706 11.4011 19.0859C11.463 19.5011 11.2152 19.8357 10.7999 19.8976C10.3847 19.9595 10.05 19.7118 9.98815 19.2965C9.92624 18.8812 10.174 18.5466 10.5893 18.4847Z" fill="#FED8CD"/>
<path fill-rule="evenodd" clip-rule="evenodd" d="M10.2734 16.3653C11.8341 16.1326 13.2879 17.2092 13.5206 18.7699C13.7532 20.3307 12.6766 21.7845 11.1159 22.0171C9.55515 22.2497 8.10135 21.1731 7.86871 19.6124C7.63607 18.0517 8.71268 16.5979 10.2734 16.3653Z" fill="url(#paint5_linear)"/>
<path d="M4.50013 23.6361L4.39482 22.9296C4.39482 22.9296 6.00243 21.4864 6.48843 21.3089C6.97443 21.1315 7.57892 21.1269 8.20448 21.151C8.82999 21.1747 9.76143 21.1941 10.0464 21.1615C10.3313 21.1292 10.8392 21.0181 11.4299 20.8932C12.0208 20.769 13.0029 20.5894 13.3113 20.547C13.6191 20.5011 14.394 20.429 15.2206 20.3569C16.0473 20.2849 17.185 20.201 17.4438 20.1864C17.7026 20.1717 18.0091 20.17 18.3567 20.1662C18.7042 20.1621 19.3043 20.1447 19.5157 20.1329C19.7271 20.1209 20.2206 20.1153 20.7893 20.0833C21.3581 20.0513 22.2585 19.9351 22.515 19.8774C22.7714 19.8196 23.2863 19.5466 23.8655 19.2794C24.4448 19.0122 25.0885 18.7506 25.6024 18.715C26.1164 18.6795 29.1216 19.2437 29.1216 19.2437L29.2269 19.9502L25.5179 20.503L22.5154 20.9506L19.5128 21.3982L16.5103 21.8457L13.5077 22.2933L10.5052 22.7409L7.50266 23.1884L4.50013 23.6361Z" fill="black"/>
<path opacity="0.9" d="M4.50013 23.6361L4.56885 24.097C4.56885 24.097 6.46646 24.5994 6.97777 24.5917C7.48909 24.5841 8.073 24.4415 8.67028 24.2759C9.2676 24.1105 10.1609 23.8741 10.4435 23.8255C10.7259 23.7762 11.2424 23.723 11.842 23.6575C12.4416 23.592 13.4317 23.466 13.7391 23.4173C14.047 23.3714 14.8114 23.2293 15.6258 23.0747C16.4402 22.9201 17.5572 22.6975 17.8102 22.6442C18.0632 22.5906 18.3592 22.5183 18.6951 22.4366C19.0311 22.3554 19.6139 22.2216 19.8206 22.1779C20.0272 22.1341 20.5043 22.0189 21.0604 21.9015C21.6163 21.784 22.5125 21.6388 22.7737 21.6129C23.0349 21.587 23.597 21.631 24.2198 21.6562C24.8427 21.6813 25.5263 21.6875 26.0304 21.5856C26.5344 21.4838 29.2957 20.4116 29.2957 20.4116L29.227 19.9507L25.518 20.5036L22.5155 20.9512L19.5129 21.3987L16.5104 21.8463L13.5078 22.2939L10.5053 22.7414L7.50275 23.189L4.50013 23.6361Z" fill="black"/>
<path opacity="0.3" d="M4.50013 23.636L29.2269 19.9502L29.5429 22.0697L4.81606 25.7555L4.50013 23.636Z" fill="#4D585E"/>
<path opacity="0.6" d="M31.4387 20.9654L28.0239 21.9368L28.7079 24.3414L32.1227 23.37L31.4387 20.9654Z" fill="url(#paint6_radial)"/>
<path opacity="0.6" d="M6.17021 30.7524L9.585 29.781L8.901 27.3764L5.4862 28.3478L6.17021 30.7524Z" fill="url(#paint7_radial)"/>
<path opacity="0.6" d="M28.0239 21.9368L8.901 27.3764L9.585 29.781L28.7079 24.3414L28.0239 21.9368Z" fill="url(#paint8_linear)"/>
<path opacity="0.35" d="M30.4142 22.2949L24.5321 1.61676C24.5321 1.61676 8.96071 6.04616 1.17499 8.26086C3.13581 15.1541 7.05745 28.9405 7.05745 28.9405L30.4142 22.2949Z" stroke="black" stroke-width="2" stroke-linejoin="round"/>
<path d="M30.4142 22.2949L24.5321 1.61676C24.5321 1.61676 8.96071 6.04616 1.17499 8.26086C3.13581 15.1541 7.05745 28.9405 7.05745 28.9405L30.4142 22.2949Z" fill="url(#paint9_linear)"/>
<path opacity="0.4" d="M30.4142 22.2949L24.5321 1.61676C24.5321 1.61676 8.96071 6.04616 1.17499 8.26086C3.13581 15.1541 7.05745 28.9405 7.05745 28.9405L30.4142 22.2949Z" stroke="white" stroke-width="2" stroke-linejoin="round"/>
<path opacity="0.4" d="M1.17499 8.26086L1.31179 8.74179L24.6689 2.09768L24.5321 1.61675L1.17499 8.26086Z" fill="white"/>
<path d="M7.64893 27.7326L2.31367 8.97663L23.9407 2.82467L29.2759 21.5806L7.64893 27.7326Z" fill="url(#paint10_linear)"/>
<path opacity="0.1" d="M10.726 16.2554C9.02698 16.7387 8.07622 18.6804 8.61357 20.5694C9.15092 22.4585 10.9813 23.609 12.6803 23.1257C14.3793 22.6424 15.3301 20.7008 14.7927 18.8117C14.2554 16.9227 12.425 15.7721 10.726 16.2554ZM11.1169 17.6295C12.148 17.3362 13.2308 18.0168 13.5569 19.1632C13.883 20.3097 13.3205 21.4583 12.2894 21.7516C11.2583 22.045 10.1755 21.3643 9.8494 20.2179C9.52328 19.0714 10.0857 17.9228 11.1169 17.6295Z" fill="#FED8CD"/>
<path opacity="0.1" d="M10.5306 15.5684C8.49761 16.1467 7.35268 18.4848 7.99565 20.7452C8.63863 23.0055 10.8428 24.391 12.8757 23.8127C14.9087 23.2345 16.0536 20.8963 15.4106 18.6359C14.7677 16.3756 12.5635 14.9901 10.5306 15.5684ZM11.3123 18.3165C12.0094 18.1182 12.7185 18.5639 12.939 19.339C13.1595 20.1142 12.7912 20.8663 12.094 21.0646C11.3968 21.2629 10.6878 20.8172 10.4673 20.0421C10.2468 19.2669 10.6151 18.5148 11.3123 18.3165Z" fill="#FED8CD"/>
<path opacity="0.1" d="M10.3351 14.8813C7.96823 15.5546 6.62915 18.2893 7.37774 20.921C8.12633 23.5526 10.7043 25.1731 13.0712 24.4998C15.4381 23.8265 16.7771 21.0918 16.0285 18.4602C15.28 15.8285 12.702 14.2081 10.3351 14.8813ZM11.5077 19.0035C11.8709 18.9002 12.2062 19.1109 12.3211 19.5148C12.4359 19.9186 12.2618 20.2743 11.8986 20.3776C11.5353 20.4809 11.2001 20.2702 11.0852 19.8663C10.9703 19.4625 11.1445 19.1069 11.5077 19.0035Z" fill="#FED8CD"/>
<path fill-rule="evenodd" clip-rule="evenodd" d="M10.9214 16.9425C12.2865 16.5541 13.7431 17.4697 14.1748 18.9875C14.6065 20.5052 13.8499 22.0504 12.4849 22.4387C11.1198 22.827 9.66323 21.9114 9.23149 20.3937C8.79976 18.8759 9.55637 17.3308 10.9214 16.9425Z" fill="url(#paint11_linear)"/>
<path d="M6.78904 24.7096L6.59361 24.0226C6.59361 24.0226 7.82748 22.434 8.23753 22.2094C8.64759 21.9847 9.18853 21.9188 9.75246 21.879C10.3163 21.839 11.1536 21.7635 11.4042 21.7024C11.6549 21.6415 12.0941 21.4802 12.6055 21.2968C13.1171 21.1142 13.9713 20.837 14.2416 20.7638C14.5108 20.6872 15.1947 20.5373 15.9251 20.3821C16.6555 20.227 17.6628 20.0286 17.8926 19.9879C18.1223 19.947 18.3967 19.9143 18.7076 19.8752C19.0183 19.8358 19.5535 19.7577 19.7413 19.7246C19.929 19.6912 20.3703 19.6356 20.8753 19.5462C21.3803 19.4568 22.1704 19.2506 22.3919 19.1675C22.6134 19.0845 23.0357 18.7625 23.5164 18.4397C23.9972 18.117 24.5365 17.7933 24.9919 17.7059C25.4473 17.6187 28.2206 17.8706 28.2206 17.8706L28.416 18.5576L25.172 19.4804L22.5458 20.2274L19.9197 20.9745L17.2936 21.7215L14.6674 22.4685L12.0413 23.2155L9.41515 23.9625L6.78904 24.7096Z" fill="black"/>
<path opacity="0.9" d="M6.78904 24.7096L6.91656 25.1579C6.91656 25.1579 8.68863 25.4613 9.14564 25.4018C9.60268 25.3423 10.1054 25.1421 10.6169 24.9179C11.1284 24.6939 11.895 24.3697 12.1412 24.293C12.3872 24.2156 12.8423 24.1107 13.3702 23.985C13.898 23.8594 14.7671 23.6344 15.0356 23.5551C15.3048 23.4785 15.9694 23.2605 16.6769 23.0251C17.3844 22.7897 18.3534 22.4563 18.5725 22.378C18.7915 22.2993 19.0463 22.1979 19.3356 22.0831C19.6251 21.9688 20.128 21.7775 20.307 21.7133C20.4859 21.649 20.8969 21.4868 21.3782 21.3144C21.8596 21.1418 22.6417 20.9074 22.872 20.8553C23.1023 20.8031 23.6123 20.7895 24.1739 20.7511C24.7356 20.7127 25.3489 20.6493 25.786 20.4975C26.2231 20.3457 28.5437 19.0064 28.5437 19.0064L28.4162 18.5582L25.1721 19.481L22.546 20.228L19.9199 20.975L17.2937 21.722L14.6676 22.4691L12.0414 23.2161L9.41531 23.9631L6.78904 24.7096Z" fill="black"/>
<path opacity="0.3" d="M6.78903 24.7096L28.416 18.5577L29.0023 20.6188L7.37532 26.7707L6.78903 24.7096Z" fill="#4D585E"/>
<path opacity="0.6" d="M32.0212 18.8952L28.7425 20.3083L29.732 22.6042L33.0107 21.1911L32.0212 18.8952Z" fill="url(#paint12_radial)"/>
<path opacity="0.6" d="M8.09271 31.9307L11.3714 30.5176L10.3819 28.2217L7.10321 29.6348L8.09271 31.9307Z" fill="url(#paint13_radial)"/>
<path opacity="0.6" d="M28.7425 20.3083L10.3819 28.2217L11.3714 30.5176L29.732 22.6042L28.7425 20.3083Z" fill="url(#paint14_linear)"/>
<path opacity="0.35" d="M31.1705 20.3492L22.6614 0.606326C22.6614 0.606326 7.7106 7.05007 0.235218 10.2719C3.07179 16.8533 8.74493 30.0162 8.74493 30.0162L31.1705 20.3492Z" stroke="black" stroke-width="2" stroke-linejoin="round"/>
<path d="M31.1705 20.3492L22.6614 0.606326C22.6614 0.606326 7.7106 7.05007 0.235218 10.2719C3.07179 16.8533 8.74493 30.0162 8.74493 30.0162L31.1705 20.3492Z" fill="url(#paint15_linear)"/>
<path opacity="0.4" d="M31.1705 20.3492L22.6614 0.606326C22.6614 0.606326 7.7106 7.05007 0.235218 10.2719C3.07179 16.8533 8.74493 30.0162 8.74493 30.0162L31.1705 20.3492Z" stroke="white" stroke-width="2" stroke-linejoin="round"/>
<path opacity="0.4" d="M0.235218 10.2719L0.433118 10.7311L22.8593 1.06549L22.6614 0.606325L0.235218 10.2719Z" fill="white"/>
<path d="M9.17973 28.7399L1.46162 10.8323L22.2266 1.88265L29.9447 19.7902L9.17973 28.7399Z" fill="url(#paint16_linear)"/>
<path opacity="0.1" d="M10.7768 16.9474C9.14555 17.6504 8.44664 19.7021 9.22399 21.5057C10.0013 23.3093 11.9727 24.21 13.604 23.5069C15.2353 22.8038 15.9342 20.7522 15.1568 18.9486C14.3795 17.145 12.4081 16.2443 10.7768 16.9474ZM11.3423 18.2593C12.3323 17.8326 13.4985 18.3654 13.9703 19.46C14.442 20.5546 14.0286 21.7683 13.0386 22.195C12.0485 22.6217 10.8823 22.0888 10.4106 20.9943C9.93879 19.8997 10.3523 18.686 11.3423 18.2593Z" fill="#FED8CD"/>
<path opacity="0.1" d="M10.4941 16.2914C8.54221 17.1327 7.70057 19.6033 8.63071 21.7614C9.56084 23.9195 11.9348 25.0041 13.8867 24.1629C15.8386 23.3216 16.6803 20.851 15.7501 18.6929C14.82 16.5348 12.446 15.4501 10.4941 16.2914ZM11.625 18.9152C12.2944 18.6267 13.058 18.9756 13.377 19.7157C13.696 20.4558 13.4252 21.2506 12.7558 21.5391C12.0865 21.8276 11.3228 21.4786 11.0038 20.7386C10.6849 19.9985 10.9556 19.2037 11.625 18.9152Z" fill="#FED8CD"/>
<path opacity="0.1" d="M10.2114 15.6355C7.93886 16.6149 6.9545 19.5045 8.03742 22.0171C9.12035 24.5297 11.8969 25.7983 14.1694 24.8188C16.442 23.8394 17.4263 20.9498 16.3434 18.4372C15.2605 15.9246 12.484 14.656 10.2114 15.6355ZM11.9077 19.5712C12.2564 19.4209 12.6175 19.5859 12.7837 19.9714C12.9499 20.357 12.8219 20.7328 12.4731 20.8831C12.1244 21.0334 11.7633 20.8684 11.5971 20.4829C11.4309 20.0973 11.559 19.7215 11.9077 19.5712Z" fill="#FED8CD"/>
<path fill-rule="evenodd" clip-rule="evenodd" d="M11.0596 17.6033C12.3702 17.0385 13.939 17.7552 14.5636 19.2043C15.1881 20.6534 14.6319 22.2861 13.3213 22.851C12.0106 23.4159 10.4418 22.6991 9.81728 21.25C9.19273 19.8009 9.74891 18.1682 11.0596 17.6033Z" fill="url(#paint17_linear)"/>
<path d="M7.93579 25.8537L7.65307 25.1977C7.65307 25.1977 8.67932 23.4591 9.0592 23.1823C9.43909 22.9055 9.96973 22.7689 10.5266 22.6552C11.0834 22.5413 11.9082 22.3562 12.1501 22.2626C12.3921 22.1692 12.8091 21.9513 13.2953 21.7021C13.7817 21.4536 14.5976 21.0662 14.8575 20.958C15.116 20.8466 15.7784 20.6078 16.4864 20.3577C17.1944 20.1078 18.1728 19.7783 18.3966 19.7077C18.6203 19.637 18.8896 19.5684 19.1944 19.4887C19.499 19.4088 20.0223 19.2608 20.2052 19.2032C20.388 19.1455 20.8207 19.0322 21.3125 18.8771C21.8043 18.7219 22.5653 18.4133 22.7754 18.3018C22.9856 18.1902 23.3651 17.8152 23.8029 17.4317C24.2407 17.0482 24.7367 16.6561 25.1793 16.5094C25.622 16.363 28.418 16.248 28.418 16.248L28.7007 16.904L25.586 18.2464L23.0645 19.3331L20.5431 20.4199L18.0216 21.5066L15.5001 22.5934L12.9787 23.6801L10.4572 24.7669L7.93579 25.8537Z" fill="black"/>
<path opacity="0.9" d="M7.93579 25.8537L8.12026 26.2817C8.12026 26.2817 9.92507 26.3495 10.3729 26.2303C10.8207 26.1112 11.2961 25.8464 11.7771 25.5566C12.2582 25.2671 12.9806 24.8445 13.2162 24.7361C13.4514 24.6269 13.8916 24.4629 14.4015 24.2688C14.9114 24.0746 15.7487 23.7371 16.0061 23.6231C16.2646 23.5116 16.899 23.2079 17.574 22.8812C18.2489 22.5545 19.1719 22.0963 19.3801 21.9897C19.5883 21.8829 19.8293 21.7487 20.1029 21.5967C20.3767 21.4452 20.8535 21.1892 21.0236 21.102C21.1936 21.0147 21.5825 20.7996 22.0401 20.5652C22.4977 20.3307 23.2471 19.9952 23.47 19.9132C23.6928 19.8311 24.1992 19.7505 24.754 19.6385C25.3088 19.5265 25.912 19.3829 26.3281 19.1748C26.7442 18.9666 28.8854 17.3324 28.8854 17.3324L28.7009 16.9045L25.5862 18.2469L23.0647 19.3337L20.5433 20.4204L18.0218 21.5072L15.5004 22.5939L12.9789 23.6806L10.4574 24.7674L7.93579 25.8537Z" fill="black"/>
<path opacity="0.3" d="M7.93578 25.8537L28.7007 16.904L29.5489 18.8719L8.78393 27.8215L7.93578 25.8537Z" fill="#4D585E"/>
<path opacity="0.6" d="M31 25H27.0527V27.5H31V25Z" fill="url(#paint18_radial)"/>
<path opacity="0.6" d="M0.999974 27.5H4.94735V25H0.999974V27.5Z" fill="url(#paint19_radial)"/>
<path opacity="0.6" d="M27.0527 25H4.94735V27.5H27.0527V25Z" fill="url(#paint20_linear)"/>
<path opacity="0.35" d="M29.5 25.9985L29.5 4.5C29.5 4.5 11.5 4.5 2.5 4.5C2.5 11.6667 2.5 26 2.5 26L29.5 25.9985Z" stroke="black" stroke-width="2" stroke-linejoin="round"/>
<path d="M29.5 25.9985L29.5 4.5C29.5 4.5 11.5 4.5 2.5 4.5C2.5 11.6667 2.5 26 2.5 26L29.5 25.9985Z" fill="url(#paint21_linear)"/>
<path opacity="0.4" d="M29.5 25.9985L29.5 4.5C29.5 4.5 11.5 4.5 2.5 4.5C2.5 11.6667 2.5 26 2.5 26L29.5 25.9985Z" stroke="white" stroke-linejoin="round"/>
<path opacity="0.4" d="M2.5 4.5V5H29.5V4.5H2.5Z" fill="white"/>
<path d="M3.5 25V5.5H28.5V25H3.5Z" fill="url(#paint22_linear)"/>
<path opacity="0.1" d="M10.2821 14.8027C8.31814 14.8027 6.71069 16.4101 6.71069 18.3741C6.71069 20.3381 8.31814 21.9455 10.2821 21.9455C12.2461 21.9455 13.8536 20.3381 13.8536 18.3741C13.8536 16.4101 12.2461 14.8027 10.2821 14.8027ZM10.2821 16.2312C11.4741 16.2312 12.425 17.1822 12.425 18.3741C12.425 19.566 11.4741 20.517 10.2821 20.517C9.09019 20.517 8.13927 19.566 8.13927 18.3741C8.13927 17.1822 9.09019 16.2312 10.2821 16.2312Z" fill="#FED8CD"/>
<path opacity="0.1" d="M10.2821 14.0884C7.93211 14.0884 5.99641 16.0241 5.99641 18.3741C5.99641 20.7241 7.93211 22.6598 10.2821 22.6598C12.6321 22.6598 14.5678 20.7241 14.5678 18.3741C14.5678 16.0241 12.6321 14.0884 10.2821 14.0884ZM10.2821 16.9455C11.088 16.9455 11.7107 17.5682 11.7107 18.3741C11.7107 19.18 11.088 19.8027 10.2821 19.8027C9.47622 19.8027 8.85355 19.18 8.85355 18.3741C8.85355 17.5682 9.47622 16.9455 10.2821 16.9455Z" fill="#FED8CD"/>
<path opacity="0.1" d="M10.2821 13.3741C7.54608 13.3741 5.28212 15.6381 5.28212 18.3741C5.28212 21.1101 7.54608 23.3741 10.2821 23.3741C13.0182 23.3741 15.2821 21.1101 15.2821 18.3741C15.2821 15.6381 13.0182 13.3741 10.2821 13.3741ZM10.2821 17.6598C10.702 17.6598 10.9964 17.9542 10.9964 18.3741C10.9964 18.794 10.702 19.0884 10.2821 19.0884C9.86225 19.0884 9.56784 18.794 9.56784 18.3741C9.56784 17.9542 9.86225 17.6598 10.2821 17.6598Z" fill="#FED8CD"/>
<path fill-rule="evenodd" clip-rule="evenodd" d="M10.2821 15.517C11.8601 15.517 13.1393 16.7962 13.1393 18.3741C13.1393 19.9521 11.8601 21.2313 10.2821 21.2313C8.70416 21.2313 7.42498 19.9521 7.42498 18.3741C7.42498 16.7962 8.70416 15.517 10.2821 15.517Z" fill="url(#paint23_linear)"/>
<path d="M3.5 21.8572V21.1429C3.5 21.1429 5.30281 19.9524 5.80966 19.8486C6.31652 19.7447 6.91509 19.8293 7.53025 19.9454C8.14542 20.0611 9.06383 20.2176 9.35046 20.2274C9.63709 20.2374 10.1558 20.2024 10.7585 20.1659C11.3611 20.1302 12.359 20.0974 12.6703 20.1009C12.9815 20.1009 13.7585 20.1438 14.5868 20.1944C15.4151 20.2451 16.5527 20.3298 16.8108 20.3535C17.069 20.3771 17.3724 20.4207 17.7167 20.4682C18.061 20.5153 18.6571 20.5865 18.868 20.6061C19.0788 20.6254 19.5677 20.6926 20.135 20.7448C20.7022 20.7969 21.61 20.8148 21.8721 20.7955C22.1343 20.7762 22.6838 20.5821 23.2961 20.4032C23.9084 20.2243 24.5836 20.0605 25.0972 20.101C25.6108 20.1417 28.5 21.1428 28.5 21.1428V21.8571H24.75H21.7143H18.6786H15.6429H12.6071H9.57143H6.53571L3.5 21.8572Z" fill="black"/>
<path opacity="0.9" d="M3.5 21.8572V22.3232C3.5 22.3232 5.30281 23.0999 5.80966 23.1677C6.31652 23.2355 6.91509 23.1805 7.53025 23.1048C8.14542 23.0293 9.06383 22.9272 9.35046 22.9208C9.63709 22.9137 10.1558 22.9372 10.7585 22.9608C11.3611 22.9844 12.359 23.0058 12.6703 23.0029C12.9815 23.0029 13.7585 22.9751 14.5868 22.9422C15.4151 22.9094 16.5527 22.8539 16.8108 22.8384C17.069 22.8227 17.3724 22.7949 17.7167 22.7636C18.061 22.7329 18.6571 22.6864 18.868 22.6737C19.0788 22.6608 19.5677 22.6172 20.135 22.5831C20.7022 22.5488 21.61 22.5374 21.8721 22.5502C22.1343 22.5631 22.6838 22.6895 23.2961 22.8062C23.9084 22.9229 24.5836 23.0298 25.0972 23.0034C25.6108 22.9769 28.5 22.3237 28.5 22.3237V21.8577H24.75H21.7143H18.6786H15.6429H12.6071H9.57143H6.53571L3.5 21.8572Z" fill="black"/>
<path opacity="0.3" d="M3.5 21.8571H28.5V24H3.5V21.8571Z" fill="#4D585E"/>
<g clip-path="url(#clip1)">
<path opacity="0.15" d="M2.625 12.5622L2.625 27.4371H0.875L0.875 12.5622H2.625Z" fill="url(#paint24_linear)"/>
<path opacity="0.15" d="M2.62492 27.4371H0.875015C0.871515 27.9801 1.26709 28.7496 1.75009 28.7496C2.23309 28.7496 2.62492 28.1438 2.62492 27.4371Z" fill="url(#paint25_radial)"/>
<path opacity="0.15" d="M2.62493 12.5621H0.875027C0.871527 12.0192 1.2671 11.2496 1.7501 11.2496C2.2331 11.2496 2.62493 11.8555 2.62493 12.5621Z" fill="url(#paint26_radial)"/>
<path opacity="0.3" d="M4.94097 24.5896H1.81735C1.81148 25.6278 2.51719 27.0994 3.37936 27.0994C4.24152 27.0994 4.94097 25.9409 4.94097 24.5896Z" fill="url(#paint27_radial)"/>
<path opacity="0.8" fill-rule="evenodd" clip-rule="evenodd" d="M2.1875 10.8117L19.6875 28.3117H2.1875V10.8117ZM5.6875 18.9784V24.8117H11.5208L5.6875 18.9784Z" fill="url(#paint28_linear)"/>
<path opacity="0.8" d="M3.0625 12.9997L17.5 27.4371H3.0625V12.9997Z" stroke="url(#paint29_linear)"/>
<path opacity="0.3" d="M3.0625 20.4367H2.1875" stroke="#83899A" stroke-linecap="square"/>
<path opacity="0.3" d="M3.0625 23.0617H2.1875" stroke="#83899A" stroke-linecap="square"/>
<path opacity="0.3" d="M3.0625 25.6867H2.1875" stroke="#83899A" stroke-linecap="square"/>
<path opacity="0.3" d="M10.0625 28.3121V27.4367" stroke="#83899A" stroke-linecap="square"/>
<path opacity="0.3" d="M4.87981 28.3121V27.4367" stroke="#83899A" stroke-linecap="square"/>
<path opacity="0.3" d="M12.6875 28.3121V27.4367" stroke="#83899A" stroke-linecap="square"/>
<path opacity="0.3" d="M7.50481 28.3121V27.4367" stroke="#83899A" stroke-linecap="square"/>
<path opacity="0.3" d="M15.3125 28.3121V27.4367" stroke="#83899A" stroke-linecap="square"/>
<path opacity="0.3" d="M2.1875 10.8117L19.6875 28.3117H2.1875V10.8117ZM5.6875 18.9784V24.8117H11.5208L5.6875 18.9784Z" stroke="black"/>
<path opacity="0.3" d="M3.0625 15.1867H2.1875" stroke="#83899A" stroke-linecap="square"/>
<path opacity="0.3" d="M3.0625 17.8117H2.1875" stroke="#83899A" stroke-linecap="square"/>
<path opacity="0.3" d="M4.8125 17.8122V25.2747V17.8122Z" stroke="white"/>
</g>
<path opacity="0.15" fill-rule="evenodd" clip-rule="evenodd" d="M26.0334 18.5422C25.978 18.543 25.9332 18.5673 25.8961 18.5909L16.0306 24.8442L14.2065 25.9954L14.1575 26.0149L12 30.8439L17.3349 31L17.3741 30.9707L19.2079 29.8196L28.6812 23.7712L28.6224 21.742C28.4543 21.4146 28.2556 21.0595 28.0242 20.6982C27.3647 19.6685 26.6645 18.8554 26.2296 18.6007C26.1571 18.5583 26.0889 18.5414 26.0334 18.5422V18.5422Z" fill="#0C0C0C"/>
<path d="M14.9027 24.5009C15.2758 24.2224 16.3228 24.7449 17.285 25.6973C18.2448 26.6474 18.7506 27.664 18.4769 28.0389C18.4759 28.0403 18.5005 28.0597 18.4994 28.0611L31.8968 14.6683C32.237 14.3282 31.7085 13.2537 30.7158 12.2711C29.7231 11.2885 28.6403 10.7681 28.3001 11.1081L14.9027 24.5009Z" fill="url(#paint30_linear)"/>
<path opacity="0.6" d="M14.9027 24.5009C15.2758 24.2224 16.3228 24.7449 17.285 25.6973C18.2448 26.6473 18.7506 27.664 18.4769 28.0388C18.4759 28.0402 18.5005 28.0597 18.4994 28.0611L27.7258 18.8379L27.7592 18.8045C27.7601 18.8031 27.7356 18.7837 27.7367 18.7823C28.0104 18.4074 27.5046 17.3908 26.5447 16.4407C25.5826 15.4883 24.5356 14.9658 24.1624 15.2443L24.1291 15.2777L14.9027 24.5009H14.9027L14.9027 24.5009Z" fill="#F9C440"/>
<path d="M14.9027 24.5009C15.2758 24.2224 16.3228 24.7449 17.285 25.6973C18.2448 26.6474 18.7506 27.664 18.4769 28.0389C18.4759 28.0403 18.5005 28.0597 18.4994 28.0611L31.8968 14.6683C32.237 14.3282 31.7085 13.2537 30.7158 12.2711C29.7231 11.2885 28.6403 10.7681 28.3001 11.1081L14.9027 24.5009V24.5009Z" stroke="#AD5F00" stroke-width="0.5" stroke-linejoin="round"/>
<path d="M28.5642 11.0048C28.4537 11.0107 28.3638 11.0441 28.3 11.1078L24.1628 15.2442C24.5363 14.9663 25.5828 15.4884 26.5446 16.4404C27.5045 17.3905 28.0104 18.4075 27.7367 18.7824C27.7357 18.7838 27.7604 18.8029 27.7594 18.8043L31.8966 14.668C32.2368 14.328 31.7082 13.2538 30.7155 12.2712C29.909 11.4728 29.043 10.9793 28.5642 11.0048Z" fill="url(#paint31_linear)" stroke="#555761" stroke-width="0.5" stroke-linejoin="round"/>
<path opacity="0.9" d="M26.6651 12.7426C27.0382 12.464 28.0852 12.9865 29.0474 13.9389C30.0072 14.889 30.513 15.9056 30.2393 16.2805C30.2384 16.2819 30.2628 16.3013 30.2618 16.3027L31.8968 14.6682L31.9302 14.6349C31.9311 14.6335 31.9067 14.6141 31.9077 14.6126C32.1814 14.2378 31.6756 13.2212 30.7158 12.2711C29.7536 11.3187 28.7066 10.7962 28.3335 11.0747L28.3001 11.1081L26.665 12.7426H26.6651Z" fill="#FE9AB8" stroke="#DE3E80" stroke-width="0.5" stroke-linejoin="round"/>
<path d="M24.8324 14.5747C25.2055 14.2961 26.2525 14.8186 27.2147 15.771C28.1745 16.7211 28.6803 17.7377 28.4066 18.1126C28.4057 18.114 28.4302 18.1334 28.4291 18.1348L28.5959 17.968C28.5969 17.9666 28.5724 17.9472 28.5735 17.9458C28.8471 17.5709 28.3414 16.5543 27.3815 15.6042C26.4194 14.6518 25.3724 14.1293 24.9992 14.4079L24.8324 14.5747V14.5747V14.5747Z" fill="url(#paint32_linear)"/>
<path d="M24.6795 14.7275C25.0526 14.4489 26.0996 14.9714 27.0618 15.9238C28.0216 16.8739 28.5274 17.8906 28.2537 18.2654C28.2528 18.2668 28.2772 18.2862 28.2762 18.2877L28.443 18.1209C28.444 18.1195 28.4195 18.1 28.4206 18.0986C28.6942 17.7238 28.1885 16.7071 27.2286 15.757C26.2665 14.8047 25.2194 14.2821 24.8463 14.5607L24.6795 14.7275V14.7275H24.6795Z" fill="url(#paint33_linear)"/>
<path d="M25.3637 14.0435C25.7369 13.765 26.7839 14.2875 27.746 15.2398C28.7059 16.1899 29.2116 17.2066 28.938 17.5814C28.937 17.5828 28.9615 17.6023 28.9604 17.6037L29.1273 17.4369C29.1282 17.4355 29.1037 17.4161 29.1048 17.4146C29.3785 17.0398 28.8727 16.0231 27.9129 15.0731C26.9507 14.1207 25.9037 13.5982 25.5305 13.8767L25.3637 14.0435H25.3637Z" fill="url(#paint34_linear)"/>
<path d="M25.2108 14.1963C25.5839 13.9178 26.6309 14.4403 27.5931 15.3927C28.5529 16.3428 29.0587 17.3594 28.785 17.7343C28.7841 17.7357 28.8086 17.7551 28.8075 17.7565L28.9743 17.5897C28.9753 17.5883 28.9508 17.5689 28.9519 17.5675C29.2256 17.1926 28.7198 16.176 27.7599 15.2259C26.7978 14.2735 25.7508 13.751 25.3776 14.0296L25.2108 14.1963L25.2108 14.1963Z" fill="url(#paint35_linear)"/>
<path d="M25.8976 13.5098C26.2707 13.2312 27.3177 13.7538 28.2799 14.7061C29.2397 15.6562 29.7455 16.6729 29.4718 17.0477C29.4709 17.0491 29.4953 17.0686 29.4943 17.07L29.6611 16.9032C29.6621 16.9018 29.6376 16.8823 29.6386 16.8809C29.9123 16.5061 29.4066 15.4894 28.4467 14.5393C27.4846 13.587 26.4375 13.0645 26.0644 13.343L25.8976 13.5098Z" fill="url(#paint36_linear)"/>
<path d="M25.7447 13.6626C26.1178 13.3841 27.1648 13.9066 28.127 14.859C29.0868 15.8091 29.5926 16.8257 29.3189 17.2006C29.318 17.202 29.3425 17.2214 29.3414 17.2228L29.5082 17.056C29.5092 17.0546 29.4847 17.0352 29.4858 17.0338C29.7594 16.6589 29.2537 15.6423 28.2938 14.6922C27.3317 13.7398 26.2847 13.2173 25.9115 13.4959L25.7447 13.6626H25.7447Z" fill="url(#paint37_linear)"/>
<path fill-rule="evenodd" clip-rule="evenodd" d="M12.3352 30.5627L18.4304 28.0897L18.4823 28.038C18.756 27.6632 18.2436 26.6464 17.2838 25.6963C16.3216 24.744 15.2758 24.2243 14.9027 24.5029L12.3352 30.5627H12.3352Z" fill="url(#paint38_linear)" stroke="url(#paint39_linear)" stroke-width="0.5"/>
<path fill-rule="evenodd" clip-rule="evenodd" d="M13.0307 28.9215L12.3348 30.5562L13.9973 29.8783C13.8641 29.7195 13.741 29.5582 13.5811 29.3999C13.3969 29.2176 13.2157 29.0697 13.0307 28.9215Z" fill="#333333" stroke="#1A1A1A" stroke-width="0.5"/>
</g>
<defs>
<radialGradient id="paint0_radial" cx="0" cy="0" r="1" gradientUnits="userSpaceOnUse" gradientTransform="translate(28.4376 24.5093) rotate(-8.47815) scale(3.95485 1.25)">
<stop stop-color="#181818"/>
<stop offset="1" stop-color="#181818" stop-opacity="0"/>
</radialGradient>
<radialGradient id="paint1_radial" cx="0" cy="0" r="1" gradientUnits="userSpaceOnUse" gradientTransform="translate(6.58479 27.7667) rotate(171.522) scale(3.95484 1.25)">
<stop stop-color="#181818"/>
<stop offset="1" stop-color="#181818" stop-opacity="0"/>
</radialGradient>
<linearGradient id="paint2_linear" x1="18.5231" y1="27.261" x2="18.1531" y2="24.7783" gradientUnits="userSpaceOnUse">
<stop stop-color="#181818" stop-opacity="0"/>
<stop offset="0.5" stop-color="#181818"/>
<stop offset="1" stop-color="#181818" stop-opacity="0"/>
</linearGradient>
<linearGradient id="paint3_linear" x1="18.2483" y1="31.0834" x2="13.5305" y2="-0.566957" gradientUnits="userSpaceOnUse">
<stop stop-color="#EDEDED"/>
<stop offset="1" stop-color="white"/>
</linearGradient>
<linearGradient id="paint4_linear" x1="12.9727" y1="23.9522" x2="9.70922" y2="2.0589" gradientUnits="userSpaceOnUse">
<stop stop-color="#8C166C"/>
<stop offset="0.362069" stop-color="#CA3561"/>
<stop offset="1" stop-color="#F38F4E"/>
</linearGradient>
<linearGradient id="paint5_linear" x1="11.1159" y1="22.0171" x2="10.2734" y2="16.3653" gradientUnits="userSpaceOnUse">
<stop stop-color="#E28192"/>
<stop offset="0.258621" stop-color="#F7D6C7"/>
<stop offset="1" stop-color="#FFFEE4"/>
</linearGradient>
<radialGradient id="paint6_radial" cx="0" cy="0" r="1" gradientUnits="userSpaceOnUse" gradientTransform="translate(28.3611 23.1404) rotate(-15.8788) scale(3.55698 1.25)">
<stop stop-color="#181818"/>
<stop offset="1" stop-color="#181818" stop-opacity="0"/>
</radialGradient>
<radialGradient id="paint7_radial" cx="0" cy="0" r="1" gradientUnits="userSpaceOnUse" gradientTransform="translate(9.24779 28.5773) rotate(164.121) scale(3.55698 1.25)">
<stop stop-color="#181818"/>
<stop offset="1" stop-color="#181818" stop-opacity="0"/>
</radialGradient>
<linearGradient id="paint8_linear" x1="19.8718" y1="26.8652" x2="19.185" y2="24.4508" gradientUnits="userSpaceOnUse">
<stop stop-color="#181818" stop-opacity="0"/>
<stop offset="0.5" stop-color="#181818"/>
<stop offset="1" stop-color="#181818" stop-opacity="0"/>
</linearGradient>
<linearGradient id="paint9_linear" x1="20.1724" y1="30.6681" x2="11.4172" y2="-0.110865" gradientUnits="userSpaceOnUse">
<stop stop-color="#EDEDED"/>
<stop offset="1" stop-color="white"/>
</linearGradient>
<linearGradient id="paint10_linear" x1="14.4253" y1="24.1612" x2="8.3691" y2="2.87064" gradientUnits="userSpaceOnUse">
<stop stop-color="#8C166C"/>
<stop offset="0.362069" stop-color="#CA3561"/>
<stop offset="1" stop-color="#F38F4E"/>
</linearGradient>
<linearGradient id="paint11_linear" x1="12.4849" y1="22.4387" x2="10.9214" y2="16.9425" gradientUnits="userSpaceOnUse">
<stop stop-color="#E28192"/>
<stop offset="0.258621" stop-color="#F7D6C7"/>
<stop offset="1" stop-color="#FFFEE4"/>
</linearGradient>
<radialGradient id="paint12_radial" cx="0" cy="0" r="1" gradientUnits="userSpaceOnUse" gradientTransform="translate(29.2327 21.4582) rotate(-23.3159) scale(3.577 1.25)">
<stop stop-color="#181818"/>
<stop offset="1" stop-color="#181818" stop-opacity="0"/>
</radialGradient>
<radialGradient id="paint13_radial" cx="0" cy="0" r="1" gradientUnits="userSpaceOnUse" gradientTransform="translate(10.8812 29.3677) rotate(156.684) scale(3.577 1.25)">
<stop stop-color="#181818"/>
<stop offset="1" stop-color="#181818" stop-opacity="0"/>
</radialGradient>
<linearGradient id="paint14_linear" x1="21.2495" y1="26.2709" x2="20.256" y2="23.9658" gradientUnits="userSpaceOnUse">
<stop stop-color="#181818" stop-opacity="0"/>
<stop offset="0.5" stop-color="#181818"/>
<stop offset="1" stop-color="#181818" stop-opacity="0"/>
</linearGradient>
<linearGradient id="paint15_linear" x1="22.036" y1="30.0046" x2="9.37034" y2="0.617865" gradientUnits="userSpaceOnUse">
<stop stop-color="#EDEDED"/>
<stop offset="1" stop-color="white"/>
</linearGradient>
<linearGradient id="paint16_linear" x1="15.4756" y1="24.3047" x2="6.71449" y2="3.97717" gradientUnits="userSpaceOnUse">
<stop stop-color="#8C166C"/>
<stop offset="0.362069" stop-color="#CA3561"/>
<stop offset="1" stop-color="#F38F4E"/>
</linearGradient>
<linearGradient id="paint17_linear" x1="13.3213" y1="22.851" x2="11.0596" y2="17.6033" gradientUnits="userSpaceOnUse">
<stop stop-color="#E28192"/>
<stop offset="0.258621" stop-color="#F7D6C7"/>
<stop offset="1" stop-color="#FFFEE4"/>
</linearGradient>
<radialGradient id="paint18_radial" cx="0" cy="0" r="1" gradientUnits="userSpaceOnUse" gradientTransform="translate(27.0471 26.25) scale(3.95484 1.25)">
<stop stop-color="#181818"/>
<stop offset="1" stop-color="#181818" stop-opacity="0"/>
</radialGradient>
<radialGradient id="paint19_radial" cx="0" cy="0" r="1" gradientUnits="userSpaceOnUse" gradientTransform="translate(4.95289 26.25) rotate(180) scale(3.95484 1.25)">
<stop stop-color="#181818"/>
<stop offset="1" stop-color="#181818" stop-opacity="0"/>
</radialGradient>
<linearGradient id="paint20_linear" x1="16.8353" y1="27.5099" x2="16.8353" y2="24.9998" gradientUnits="userSpaceOnUse">
<stop stop-color="#181818" stop-opacity="0"/>
<stop offset="0.5" stop-color="#181818"/>
<stop offset="1" stop-color="#181818" stop-opacity="0"/>
</linearGradient>
<linearGradient id="paint21_linear" x1="16" y1="31.25" x2="16" y2="-0.75" gradientUnits="userSpaceOnUse">
<stop stop-color="#EDEDED"/>
<stop offset="1" stop-color="white"/>
</linearGradient>
<linearGradient id="paint22_linear" x1="11.8333" y1="23.4189" x2="11.8333" y2="1.28378" gradientUnits="userSpaceOnUse">
<stop stop-color="#8C166C"/>
<stop offset="0.362069" stop-color="#CA3561"/>
<stop offset="1" stop-color="#F38F4E"/>
</linearGradient>
<linearGradient id="paint23_linear" x1="10.2821" y1="21.2313" x2="10.2821" y2="15.517" gradientUnits="userSpaceOnUse">
<stop stop-color="#E28192"/>
<stop offset="0.258621" stop-color="#F7D6C7"/>
<stop offset="1" stop-color="#FFFEE4"/>
</linearGradient>
<linearGradient id="paint24_linear" x1="2.625" y1="21.804" x2="0.875002" y2="21.804" gradientUnits="userSpaceOnUse">
<stop stop-opacity="0"/>
<stop offset="0.5"/>
<stop offset="1" stop-opacity="0"/>
</linearGradient>
<radialGradient id="paint25_radial" cx="0" cy="0" r="1" gradientUnits="userSpaceOnUse" gradientTransform="translate(1.76028 27.4693) rotate(90) scale(1.23498 0.844119)">
<stop/>
<stop offset="1" stop-opacity="0"/>
</radialGradient>
<radialGradient id="paint26_radial" cx="0" cy="0" r="1" gradientUnits="userSpaceOnUse" gradientTransform="translate(1.76029 12.53) rotate(-90) scale(1.23498 0.844119)">
<stop/>
<stop offset="1" stop-opacity="0"/>
</radialGradient>
<radialGradient id="paint27_radial" cx="0" cy="0" r="1" gradientUnits="userSpaceOnUse" gradientTransform="translate(3.39755 24.6512) rotate(90) scale(2.3616 1.50677)">
<stop/>
<stop offset="1" stop-opacity="0"/>
</radialGradient>
<linearGradient id="paint28_linear" x1="18.5645" y1="25.143" x2="1.7489" y2="20.6961" gradientUnits="userSpaceOnUse">
<stop stop-color="#FCFCFC"/>
<stop offset="1" stop-color="#CBCDD9"/>
</linearGradient>
<linearGradient id="paint29_linear" x1="17.5" y1="22.6247" x2="2.625" y2="22.6247" gradientUnits="userSpaceOnUse">
<stop stop-color="white"/>
<stop offset="1" stop-color="white" stop-opacity="0"/>
</linearGradient>
<linearGradient id="paint30_linear" x1="21.7289" y1="17.685" x2="25.3083" y2="21.2655" gradientUnits="userSpaceOnUse">
<stop stop-color="#AD5F00"/>
<stop offset="0.134829" stop-color="#FFE16B"/>
<stop offset="0.202244" stop-color="#F9C440"/>
<stop offset="0.269659" stop-color="#FFF394"/>
<stop offset="0.446503" stop-color="#F9C440"/>
<stop offset="0.571141" stop-color="#F9C440"/>
<stop offset="0.720381" stop-color="#FFE16B"/>
<stop offset="1" stop-color="#AD5F00"/>
</linearGradient>
<linearGradient id="paint31_linear" x1="21.7289" y1="17.685" x2="25.3083" y2="21.2655" gradientUnits="userSpaceOnUse">
<stop stop-color="#555761"/>
<stop offset="0.134829" stop-color="#D4D4D4"/>
<stop offset="0.202244" stop-color="#ABACAE"/>
<stop offset="0.269659" stop-color="#FAFAFA"/>
<stop offset="0.446503" stop-color="#ABACAE"/>
<stop offset="0.571141" stop-color="#ABACAE"/>
<stop offset="0.720381" stop-color="#D4D4D4"/>
<stop offset="1" stop-color="#555761"/>
</linearGradient>
<linearGradient id="paint32_linear" x1="25.1896" y1="14.1579" x2="28.775" y2="17.7445" gradientUnits="userSpaceOnUse">
<stop stop-color="#555761"/>
<stop offset="0.5" stop-color="#ABACAE"/>
<stop offset="1" stop-color="#555761"/>
</linearGradient>
<linearGradient id="paint33_linear" x1="25.0367" y1="14.3108" x2="28.6221" y2="17.8974" gradientUnits="userSpaceOnUse">
<stop stop-color="#ABACAE"/>
<stop offset="0.5" stop-color="#FAFAFA"/>
<stop offset="1" stop-color="#ABACAE"/>
</linearGradient>
<linearGradient id="paint34_linear" x1="25.7209" y1="13.6268" x2="29.3063" y2="17.2134" gradientUnits="userSpaceOnUse">
<stop stop-color="#555761"/>
<stop offset="0.5" stop-color="#ABACAE"/>
<stop offset="1" stop-color="#555761"/>
</linearGradient>
<linearGradient id="paint35_linear" x1="25.568" y1="13.7796" x2="29.1534" y2="17.3662" gradientUnits="userSpaceOnUse">
<stop stop-color="#ABACAE"/>
<stop offset="0.5" stop-color="#FAFAFA"/>
<stop offset="1" stop-color="#ABACAE"/>
</linearGradient>
<linearGradient id="paint36_linear" x1="26.2548" y1="13.0931" x2="29.8402" y2="16.6797" gradientUnits="userSpaceOnUse">
<stop stop-color="#555761"/>
<stop offset="0.5" stop-color="#ABACAE"/>
<stop offset="1" stop-color="#555761"/>
</linearGradient>
<linearGradient id="paint37_linear" x1="26.1019" y1="13.2459" x2="29.6873" y2="16.8325" gradientUnits="userSpaceOnUse">
<stop stop-color="#ABACAE"/>
<stop offset="0.5" stop-color="#FAFAFA"/>
<stop offset="1" stop-color="#ABACAE"/>
</linearGradient>
<linearGradient id="paint38_linear" x1="16.6806" y1="28.4847" x2="14.5145" y2="26.3179" gradientUnits="userSpaceOnUse">
<stop stop-color="#FFF394"/>
<stop offset="1" stop-color="#FAFAFA"/>
</linearGradient>
<linearGradient id="paint39_linear" x1="13.7372" y1="27.1024" x2="15.6827" y2="29.0692" gradientUnits="userSpaceOnUse">
<stop stop-color="#D48E15"/>
<stop offset="1" stop-color="#AD5F00"/>
</linearGradient>
<clipPath id="clip0">
<rect width="32" height="32" fill="white"/>
</clipPath>
<clipPath id="clip1">
<rect width="21" height="21" fill="white" transform="translate(21 9.5) rotate(90)"/>
</clipPath>
</defs>
</svg>
