<svg width="48" height="48" viewBox="0 0 48 48" fill="none" xmlns="http://www.w3.org/2000/svg">
<g clip-path="url(#clip0)">
<path opacity="0.35" d="M46.3097 36.7163L41.3663 4.84968C41.3663 4.84968 14.6855 8.98863 1.34502 11.0581C2.99293 21.681 6.28875 42.9269 6.28875 42.9269L46.3097 36.7163Z" stroke="black" stroke-width="2" stroke-linejoin="round"/>
<path d="M46.3097 36.7163L41.3663 4.84968C41.3663 4.84968 14.6855 8.98863 1.34502 11.0581C2.99293 21.681 6.28875 42.9269 6.28875 42.9269L46.3097 36.7163Z" fill="url(#paint0_linear)"/>
<path opacity="0.4" d="M46.3097 36.7163L41.3663 4.84968C41.3663 4.84968 14.6855 8.98863 1.34502 11.0581C2.99293 21.681 6.28875 42.9269 6.28875 42.9269L46.3097 36.7163Z" stroke="white" stroke-width="2" stroke-linejoin="round"/>
<path opacity="0.4" d="M1.34502 11.0581L1.45999 11.7992L41.4813 5.59082L41.3663 4.84968L1.34502 11.0581Z" fill="white"/>
<path d="M7.54109 41.2147L3.05724 12.3104L40.114 6.5619L44.5979 35.4662L7.54109 41.2147Z" fill="url(#paint1_linear)"/>
<path opacity="0.1" d="M15.2492 24.54C12.3381 24.9916 10.325 27.7439 10.7766 30.6551C11.2282 33.5662 13.9805 35.5793 16.8917 35.1277C19.8028 34.6761 21.8159 31.9238 21.3643 29.0126C20.9127 26.1015 18.1604 24.0884 15.2492 24.54ZM15.5777 26.6576C17.3445 26.3835 18.9727 27.5744 19.2468 29.3411C19.5208 31.1079 18.33 32.7361 16.5632 33.0101C14.7964 33.2842 13.1682 32.0933 12.8942 30.3266C12.6201 28.5598 13.811 26.9316 15.5777 26.6576Z" fill="#FED8CD"/>
<path opacity="0.1" d="M15.085 23.4813C11.6016 24.0216 9.1775 27.3359 9.71787 30.8193C10.2582 34.3027 13.5726 36.7268 17.0559 36.1864C20.5393 35.6461 22.9634 32.3317 22.423 28.8484C21.8827 25.365 18.5684 22.9409 15.085 23.4813ZM15.742 27.7163C16.9365 27.531 18.0027 28.3108 18.188 29.5054C18.3733 30.6999 17.5935 31.7661 16.3989 31.9514C15.2044 32.1367 14.1382 31.3569 13.9529 30.1623C13.7676 28.9678 14.5474 27.9016 15.742 27.7163Z" fill="#FED8CD"/>
<path opacity="0.1" d="M14.9208 22.4225C10.8652 23.0516 8.02998 26.928 8.65911 30.9836C9.28823 35.0391 13.1646 37.8743 17.2202 37.2452C21.2757 36.6161 24.1109 32.7397 23.4818 28.6841C22.8527 24.6286 18.9763 21.7934 14.9208 22.4225ZM15.9062 28.7751C16.5286 28.6785 17.0327 29.0472 17.1292 29.6696C17.2258 30.292 16.8571 30.7961 16.2347 30.8926C15.6123 30.9892 15.1082 30.6205 15.0117 29.9981C14.9151 29.3757 15.2839 28.8716 15.9062 28.7751Z" fill="#FED8CD"/>
<path fill-rule="evenodd" clip-rule="evenodd" d="M15.4135 25.5988C17.7525 25.236 19.9427 26.8379 20.3055 29.1769C20.6684 31.5159 19.0664 33.7061 16.7274 34.0689C14.3885 34.4318 12.1982 32.8298 11.8354 30.4908C11.4726 28.1519 13.0745 25.9616 15.4135 25.5988Z" fill="url(#paint2_linear)"/>
<path d="M6.81842 36.5562L6.65417 35.4974C6.65417 35.4974 9.0527 33.3183 9.78011 33.0478C10.5075 32.7773 11.4142 32.7651 12.3527 32.7957C13.2912 32.8257 14.6885 32.8465 15.1156 32.7951C15.5428 32.744 16.3036 32.5729 17.1885 32.3803C18.0737 32.1888 19.5452 31.9106 20.0074 31.8444C20.4688 31.7728 21.6304 31.6576 22.8697 31.5421C24.1091 31.4269 25.8149 31.2908 26.2029 31.2666C26.591 31.2422 27.0507 31.237 27.572 31.2283C28.0932 31.219 28.9932 31.1875 29.3103 31.168C29.6273 31.1481 30.3674 31.1353 31.2202 31.0823C32.073 31.0291 33.4226 30.8469 33.8068 30.758C34.1909 30.6691 34.9608 30.255 35.8273 29.849C36.6938 29.4431 37.657 29.045 38.4276 28.987C39.1982 28.9292 43.7109 29.7488 43.7109 29.7488L43.8752 30.8075L38.3167 31.6698L33.8169 32.3678L29.3172 33.0659L24.8174 33.7639L20.3177 34.4619L15.8179 35.16L11.3182 35.858L6.81842 36.5562Z" fill="black"/>
<path opacity="0.9" d="M6.81842 36.5562L6.92559 37.247C6.92559 37.247 9.77643 37.9837 10.5433 37.9676C11.3102 37.9516 12.1848 37.7325 13.0792 37.4788C13.9737 37.2254 15.3116 36.8628 15.735 36.7875C16.1582 36.711 16.9325 36.6267 17.8312 36.523C18.7299 36.4194 20.214 36.2217 20.6747 36.1459C21.1361 36.0743 22.2814 35.8544 23.5016 35.6152C24.7218 35.3761 26.3953 35.0322 26.7743 34.95C27.1533 34.8673 27.5967 34.7563 28.0998 34.6307C28.6031 34.506 29.476 34.3002 29.7857 34.2327C30.0953 34.1652 30.8099 33.9882 31.6429 33.8071C32.4758 33.6259 33.8187 33.4002 34.2102 33.359C34.6018 33.3178 35.4453 33.3788 36.3798 33.411C37.3143 33.4432 38.3397 33.4463 39.0949 33.2891C39.8502 33.1318 43.9825 31.4991 43.9825 31.4991L43.8753 30.8084L38.3168 31.6707L33.817 32.3687L29.3173 33.0667L24.8175 33.7648L20.3178 34.4628L15.818 35.1608L11.3183 35.8589L6.81842 36.5562Z" fill="black"/>
<path opacity="0.3" d="M6.81842 36.5561L43.8752 30.8076L44.3679 33.9839L7.31115 39.7324L6.81842 36.5561Z" fill="#4D585E"/>
<path opacity="0.2" d="M7.54109 41.2147L3.05724 12.3104L40.114 6.5619L44.5979 35.4662L7.54109 41.2147Z" stroke="black" stroke-width="2"/>
<path opacity="0.35" d="M46.8141 34.3845L38.4122 3.25055C38.4122 3.25055 13.6399 9.93574 1.25381 13.2783C4.05468 23.657 9.65641 44.4145 9.65641 44.4145L46.8141 34.3845Z" stroke="black" stroke-width="2" stroke-linejoin="round"/>
<path d="M46.8141 34.3845L38.4122 3.25055C38.4122 3.25055 13.6399 9.93574 1.25381 13.2783C4.05468 23.657 9.65641 44.4145 9.65641 44.4145L46.8141 34.3845Z" fill="url(#paint3_linear)"/>
<path opacity="0.4" d="M46.8141 34.3845L38.4122 3.25055C38.4122 3.25055 13.6399 9.93574 1.25381 13.2783C4.05468 23.657 9.65641 44.4145 9.65641 44.4145L46.8141 34.3845Z" stroke="white" stroke-width="2" stroke-linejoin="round"/>
<path opacity="0.4" d="M1.25381 13.2783L1.44922 14.0024L38.6076 3.97465L38.4122 3.25055L1.25381 13.2783Z" fill="white"/>
<path d="M10.6418 42.5949L3.02086 14.3551L37.4267 5.07014L45.0477 33.3099L10.6418 42.5949Z" fill="url(#paint4_linear)"/>
<path opacity="0.1" d="M15.9903 25.3083C13.2874 26.0377 11.7034 28.9626 12.471 31.8069C13.2385 34.6511 16.079 36.382 18.7819 35.6525C21.4848 34.9231 23.0688 31.9982 22.3012 29.154C21.5337 26.3098 18.6932 24.5789 15.9903 25.3083ZM16.5486 27.3772C18.189 26.9345 19.8693 27.9584 20.3352 29.6846C20.801 31.4107 19.8639 33.141 18.2236 33.5837C16.5832 34.0264 14.9029 33.0024 14.437 31.2763C13.9712 29.5501 14.9083 27.8198 16.5486 27.3772Z" fill="#FED8CD"/>
<path opacity="0.1" d="M15.7112 24.2739C12.477 25.1467 10.5695 28.6689 11.4879 32.0721C12.4064 35.4754 15.8269 37.5598 19.061 36.687C22.2952 35.8142 24.2027 32.292 23.2842 28.8887C22.3658 25.4854 18.9453 23.4011 15.7112 24.2739ZM16.8278 28.4116C17.9369 28.1123 19.0372 28.7828 19.3521 29.9499C19.6671 31.117 19.0535 32.25 17.9444 32.5493C16.8353 32.8486 15.735 32.1781 15.42 31.011C15.1051 29.8439 15.7187 28.7109 16.8278 28.4116Z" fill="#FED8CD"/>
<path opacity="0.1" d="M15.432 23.2395C11.6666 24.2556 9.43562 28.3751 10.5049 32.3374C11.5742 36.2997 15.5747 38.7376 19.3402 37.7214C23.1056 36.7052 25.3366 32.5857 24.2673 28.6234C23.198 24.6611 19.1974 22.2233 15.432 23.2395ZM17.1069 29.446C17.6848 29.2901 18.205 29.6071 18.3691 30.2151C18.5332 30.8232 18.2431 31.3589 17.6652 31.5149C17.0874 31.6708 16.5672 31.3538 16.4031 30.7457C16.239 30.1377 16.5291 29.6019 17.1069 29.446Z" fill="#FED8CD"/>
<path fill-rule="evenodd" clip-rule="evenodd" d="M16.2695 26.3428C18.4411 25.7567 20.7015 27.1341 21.3182 29.4193C21.9349 31.7045 20.6744 34.0321 18.5027 34.6181C16.3311 35.2042 14.0707 33.8268 13.454 31.5416C12.8373 29.2564 14.0978 26.9288 16.2695 26.3428Z" fill="url(#paint5_linear)"/>
<path d="M9.41354 38.0434L9.13438 37.009C9.13438 37.009 11.1502 34.6155 11.8072 34.2768C12.4642 33.9382 13.321 33.8383 14.2129 33.778C15.1048 33.7171 16.4299 33.6026 16.8282 33.5103C17.2266 33.4184 17.9268 33.175 18.7419 32.8984C19.5574 32.6229 20.9179 32.2047 21.3476 32.0943C21.776 31.9787 22.8621 31.7521 24.0218 31.5178C25.1815 31.2836 26.7802 30.9838 27.1447 30.9222C27.5092 30.8605 27.9438 30.8109 28.4362 30.7518C28.9285 30.6922 29.7767 30.574 30.0745 30.524C30.3723 30.4736 31.0714 30.3894 31.8724 30.2543C32.6735 30.1191 33.9297 29.8079 34.283 29.6826C34.6362 29.5573 35.3166 29.0721 36.0894 28.5855C36.8622 28.0991 37.7274 27.6111 38.4501 27.479C39.1728 27.3472 43.5402 27.7239 43.5402 27.7239L43.8194 28.7583L38.6585 30.1511L34.4806 31.2786L30.3028 32.406L26.1249 33.5335L21.9471 34.6609L17.7692 35.7884L13.5914 36.9159L9.41354 38.0434Z" fill="black"/>
<path opacity="0.9" d="M9.41354 38.0434L9.59569 38.7184C9.59569 38.7184 12.3803 39.1736 13.1044 39.0835C13.8284 38.9935 14.6307 38.6915 15.4477 38.3534C16.2648 38.0156 17.4889 37.5266 17.8808 37.4109C18.2725 37.2941 18.9956 37.1356 19.8342 36.9459C20.6728 36.7562 22.0546 36.4167 22.4818 36.2969C22.9101 36.1813 23.9686 35.8524 25.0957 35.4972C26.2227 35.142 27.7667 34.6391 28.1159 34.5209C28.465 34.4023 28.8717 34.2492 29.3333 34.0761C29.7952 33.9037 30.5974 33.6151 30.8826 33.5182C31.1678 33.4213 31.8236 33.1766 32.5909 32.9165C33.3581 32.6562 34.603 32.3025 34.9688 32.2238C35.3346 32.145 36.1402 32.124 37.0285 32.0656C37.9169 32.0072 38.8879 31.9112 39.5844 31.6822C40.2809 31.4532 44.0017 29.434 44.0017 29.434L43.8196 28.7592L38.6587 30.1519L34.4809 31.2794L30.303 32.4068L26.1252 33.5343L21.9473 34.6618L17.7694 35.7892L13.5916 36.9167L9.41354 38.0434Z" fill="black"/>
<path opacity="0.3" d="M9.41354 38.0434L43.8194 28.7584L44.6569 31.8617L10.251 41.1467L9.41354 38.0434Z" fill="#4D585E"/>
<path opacity="0.2" d="M10.6418 42.5949L3.02086 14.3551L37.4267 5.07014L45.0477 33.3099L10.6418 42.5949Z" stroke="black" stroke-width="2"/>
<path opacity="0.6" d="M46.5 37.5H40.579V41.25H46.5V37.5Z" fill="url(#paint6_radial)"/>
<path opacity="0.6" d="M1.49997 41.25H7.42104V37.5H1.49997V41.25Z" fill="url(#paint7_radial)"/>
<path opacity="0.6" d="M40.579 37.5H7.42104V41.25H40.579V37.5Z" fill="url(#paint8_linear)"/>
<path opacity="0.35" d="M44.25 38.9978L44.25 6.75C44.25 6.75 17.25 6.75 3.75002 6.75C3.75002 17.5 3.75002 39 3.75002 39L44.25 38.9978Z" stroke="black" stroke-width="2" stroke-linejoin="round"/>
<path d="M44.25 38.9977L44.25 6.75C44.25 6.75 17.25 6.75 3.75002 6.75C3.75002 17.5 3.75002 39 3.75002 39L44.25 38.9977Z" fill="url(#paint9_linear)"/>
<path opacity="0.4" d="M44.25 38.9978L44.25 6.75C44.25 6.75 17.25 6.75 3.75002 6.75C3.75002 17.5 3.75002 39 3.75002 39L44.25 38.9978Z" stroke="white" stroke-width="2" stroke-linejoin="round"/>
<path opacity="0.4" d="M3.75 6.75V7.5H44.25V6.75H3.75Z" fill="white"/>
<path d="M5.25 37.5V8.25H42.75V37.5H5.25Z" fill="url(#paint10_linear)"/>
<path opacity="0.1" d="M15.4232 22.204C12.4772 22.204 10.0661 24.6152 10.0661 27.5612C10.0661 30.5071 12.4772 32.9183 15.4232 32.9183C18.3692 32.9183 20.7803 30.5071 20.7803 27.5612C20.7803 24.6152 18.3692 22.204 15.4232 22.204ZM15.4232 24.3469C17.2111 24.3469 18.6375 25.7733 18.6375 27.5612C18.6375 29.349 17.2111 30.7754 15.4232 30.7754C13.6353 30.7754 12.2089 29.349 12.2089 27.5612C12.2089 25.7733 13.6353 24.3469 15.4232 24.3469Z" fill="#FED8CD"/>
<path opacity="0.1" d="M15.4232 21.1326C11.8982 21.1326 8.99463 24.0361 8.99463 27.5612C8.99463 31.0862 11.8982 33.9897 15.4232 33.9897C18.9482 33.9897 21.8518 31.0862 21.8518 27.5612C21.8518 24.0361 18.9482 21.1326 15.4232 21.1326ZM15.4232 25.4183C16.6321 25.4183 17.5661 26.3523 17.5661 27.5612C17.5661 28.77 16.6321 29.704 15.4232 29.704C14.2144 29.704 13.2803 28.77 13.2803 27.5612C13.2803 26.3523 14.2144 25.4183 15.4232 25.4183Z" fill="#FED8CD"/>
<path opacity="0.1" d="M15.4232 20.0612C11.3191 20.0612 7.9232 23.4571 7.9232 27.5612C7.9232 31.6652 11.3191 35.0612 15.4232 35.0612C19.5273 35.0612 22.9232 31.6652 22.9232 27.5612C22.9232 23.4571 19.5273 20.0612 15.4232 20.0612ZM15.4232 26.4897C16.053 26.4897 16.4946 26.9313 16.4946 27.5612C16.4946 28.191 16.053 28.6326 15.4232 28.6326C14.7934 28.6326 14.3518 28.191 14.3518 27.5612C14.3518 26.9313 14.7934 26.4897 15.4232 26.4897Z" fill="#FED8CD"/>
<path fill-rule="evenodd" clip-rule="evenodd" d="M15.4232 23.2755C17.7901 23.2755 19.7089 25.1942 19.7089 27.5612C19.7089 29.9281 17.7901 31.8469 15.4232 31.8469C13.0563 31.8469 11.1375 29.9281 11.1375 27.5612C11.1375 25.1942 13.0563 23.2755 15.4232 23.2755Z" fill="url(#paint11_linear)"/>
<path d="M5.25002 32.7857V31.7143C5.25002 31.7143 7.95424 29.9287 8.71451 29.7729C9.4748 29.6171 10.3726 29.7439 11.2954 29.9181C12.2181 30.0916 13.5958 30.3264 14.0257 30.3411C14.4557 30.3561 15.2337 30.3036 16.1377 30.2489C17.0417 30.1953 18.5386 30.1461 19.0054 30.1514C19.4723 30.1514 20.6378 30.2157 21.8802 30.2916C23.1227 30.3676 24.8291 30.4947 25.2163 30.5303C25.6035 30.5656 26.0586 30.631 26.5751 30.7022C27.0915 30.7729 27.9857 30.8798 28.302 30.9091C28.6183 30.9381 29.3516 31.0389 30.2025 31.1172C31.0533 31.1954 32.415 31.2222 32.8082 31.1933C33.2014 31.1643 34.0257 30.8731 34.9442 30.6047C35.8627 30.3364 36.8755 30.0908 37.6459 30.1515C38.4163 30.2126 42.75 31.7142 42.75 31.7142V32.7856H37.125H32.5714H28.0179H23.4643H18.9107H14.3572H9.80359L5.25002 32.7857Z" fill="black"/>
<path opacity="0.9" d="M5.25002 32.7857V33.4848C5.25002 33.4848 7.95424 34.6498 8.71451 34.7515C9.4748 34.8533 10.3726 34.7708 11.2954 34.6572C12.2181 34.5439 13.5958 34.3907 14.0257 34.3812C14.4557 34.3705 15.2337 34.4058 16.1377 34.4412C17.0417 34.4766 18.5386 34.5087 19.0054 34.5044C19.4723 34.5044 20.6378 34.4626 21.8802 34.4133C23.1227 34.3641 24.8291 34.2808 25.2163 34.2577C25.6035 34.2341 26.0586 34.1923 26.5751 34.1454C27.0915 34.0993 27.9857 34.0297 28.302 34.0105C28.6183 33.9912 29.3516 33.9258 30.2025 33.8746C31.0533 33.8232 32.415 33.8061 32.8082 33.8253C33.2014 33.8446 34.0257 34.0343 34.9442 34.2093C35.8627 34.3844 36.8755 34.5447 37.6459 34.5051C38.4163 34.4654 42.75 33.4855 42.75 33.4855V32.7865H37.125H32.5714H28.0179H23.4643H18.9107H14.3572H9.80359L5.25002 32.7857Z" fill="black"/>
<path opacity="0.3" d="M5.25002 32.7857H42.75V36H5.25002V32.7857Z" fill="#4D585E"/>
<path opacity="0.2" d="M5.25 37.5V8.25H42.75V37.5H5.25Z" stroke="black" stroke-width="2"/>
<path opacity="0.15" d="M3.9375 18.8432L3.9375 41.1557H1.3125L1.3125 18.8432H3.9375Z" fill="url(#paint12_linear)"/>
<path opacity="0.15" d="M3.93742 41.1557H1.31257C1.30732 41.9701 1.90067 43.1245 2.62517 43.1245C3.34967 43.1245 3.93742 42.2157 3.93742 41.1557Z" fill="url(#paint13_radial)"/>
<path opacity="0.15" d="M3.93739 18.8432H1.31253C1.30728 18.0288 1.90064 16.8745 2.62514 16.8745C3.34964 16.8745 3.93739 17.7832 3.93739 18.8432Z" fill="url(#paint14_radial)"/>
<path opacity="0.3" d="M7.41145 36.8844H2.72602C2.71722 38.4417 3.77579 40.6491 5.06904 40.6491C6.36229 40.6491 7.41145 38.9113 7.41145 36.8844Z" fill="url(#paint15_radial)"/>
<path opacity="0.8" fill-rule="evenodd" clip-rule="evenodd" d="M3.28125 16.2176L29.5312 42.4676H3.28125V16.2176ZM8.53125 28.4676V37.2176H17.2812L8.53125 28.4676Z" fill="url(#paint16_linear)"/>
<path opacity="0.8" d="M4.59375 19.4995L26.25 41.1557H4.59375V19.4995Z" stroke="url(#paint17_linear)"/>
<path opacity="0.3" d="M4.59375 30.6551H3.28125" stroke="#83899A" stroke-linecap="square"/>
<path opacity="0.3" d="M4.59375 34.5926H3.28125" stroke="#83899A" stroke-linecap="square"/>
<path opacity="0.3" d="M4.59375 38.5301H3.28125" stroke="#83899A" stroke-linecap="square"/>
<path opacity="0.3" d="M15.0938 42.4682V41.1551" stroke="#83899A" stroke-linecap="square"/>
<path opacity="0.3" d="M7.31972 42.4682V41.1551" stroke="#83899A" stroke-linecap="square"/>
<path opacity="0.3" d="M19.0312 42.4682V41.1551" stroke="#83899A" stroke-linecap="square"/>
<path opacity="0.3" d="M11.2572 42.4682V41.1551" stroke="#83899A" stroke-linecap="square"/>
<path opacity="0.3" d="M22.9688 42.4682V41.1551" stroke="#83899A" stroke-linecap="square"/>
<path opacity="0.3" d="M3.28125 16.2176L29.5312 42.4676H3.28125V16.2176ZM8.53125 28.4676V37.2176H17.2812L8.53125 28.4676Z" stroke="black"/>
<path opacity="0.3" d="M4.59375 22.7801H3.28125" stroke="#83899A" stroke-linecap="square"/>
<path opacity="0.3" d="M4.59375 26.7176H3.28125" stroke="#83899A" stroke-linecap="square"/>
<path opacity="0.3" d="M7.21875 26.7182V37.912V26.7182Z" stroke="white"/>
<path opacity="0.15" fill-rule="evenodd" clip-rule="evenodd" d="M39.0501 27.8132C38.967 27.8145 38.8998 27.851 38.8442 27.8864L24.0458 37.2664L21.3098 38.9931L21.2362 39.0224L18 46.2659L26.0023 46.5L26.0611 46.4561L28.8119 44.7294L43.0219 35.6567L42.9336 32.613C42.6815 32.1219 42.3834 31.5892 42.0363 31.0472C41.047 29.5027 39.9968 28.2831 39.3443 27.9011C39.2356 27.8374 39.1333 27.812 39.0501 27.8133V27.8132Z" fill="#0C0C0C"/>
<path d="M22.354 36.7514C22.9137 36.3336 24.4843 37.1173 25.9275 38.5459C27.3673 39.971 28.1259 41.496 27.7154 42.0583C27.7139 42.0604 27.7507 42.0895 27.7491 42.0917L47.8453 22.0024C48.3555 21.4923 47.5627 19.8805 46.0737 18.4066C44.5846 16.9327 42.9604 16.1521 42.4502 16.6621L22.354 36.7514Z" fill="url(#paint18_linear)"/>
<path opacity="0.6" d="M22.354 36.7514C22.9137 36.3336 24.4843 37.1173 25.9275 38.5459C27.3673 39.971 28.1259 41.496 27.7154 42.0583C27.7139 42.0604 27.7507 42.0895 27.7491 42.0916L41.5887 28.2568L41.6387 28.2068C41.6402 28.2047 41.6034 28.1755 41.605 28.1734C42.0155 27.6111 41.2569 26.0862 39.8171 24.661C38.3739 23.2325 36.8034 22.4487 36.2436 22.8665L36.1936 22.9166L22.354 36.7514H22.354L22.354 36.7514Z" fill="#F9C440"/>
<path d="M22.354 36.7514C22.9137 36.3336 24.4843 37.1173 25.9275 38.5459C27.3673 39.971 28.1259 41.496 27.7154 42.0583C27.7139 42.0604 27.7507 42.0895 27.7491 42.0917L47.8453 22.0024C48.3555 21.4923 47.5627 19.8805 46.0737 18.4066C44.5846 16.9327 42.9604 16.1521 42.4502 16.6621L22.354 36.7514V36.7514Z" stroke="#AD5F00" stroke-width="0.5" stroke-linejoin="round"/>
<path d="M42.8463 16.5072C42.6805 16.516 42.5457 16.5661 42.45 16.6617L36.2442 22.8663C36.8045 22.4495 38.3742 23.2327 39.8169 24.6607C41.2567 26.0858 42.0156 27.6113 41.6051 28.1736C41.6035 28.1757 41.6405 28.2044 41.6391 28.2065L47.8449 22.002C48.3552 21.4919 47.5623 19.8807 46.0733 18.4068C44.8634 17.2092 43.5646 16.4689 42.8463 16.5072Z" fill="url(#paint19_linear)" stroke="#555761" stroke-width="0.5" stroke-linejoin="round"/>
<path opacity="0.9" d="M39.9976 19.1139C40.5573 18.696 42.1278 19.4798 43.571 20.9084C45.0108 22.3335 45.7695 23.8585 45.359 24.4207C45.3575 24.4228 45.3943 24.452 45.3927 24.4541L47.8452 22.0024L47.8953 21.9523C47.8967 21.9502 47.86 21.9211 47.8616 21.919C48.2721 21.3567 47.5135 19.8317 46.0737 18.4066C44.6304 16.978 43.0599 16.1943 42.5002 16.6121L42.4501 16.6621L39.9976 19.1139H39.9976Z" fill="#FE9AB8" stroke="#DE3E80" stroke-width="0.5" stroke-linejoin="round"/>
<path d="M37.2486 21.862C37.8083 21.4441 39.3788 22.2279 40.822 23.6565C42.2618 25.0816 43.0205 26.6066 42.61 27.1688C42.6085 27.171 42.6453 27.2001 42.6437 27.2022L42.8939 26.952C42.8953 26.9499 42.8586 26.9208 42.8602 26.9187C43.2707 26.3564 42.5121 24.8314 41.0723 23.4063C39.6291 21.9777 38.0586 21.194 37.4988 21.6118L37.2486 21.862V21.862V21.862Z" fill="url(#paint20_linear)"/>
<path d="M37.0192 22.0912C37.5789 21.6734 39.1494 22.4572 40.5927 23.8857C42.0324 25.3109 42.7911 26.8358 42.3806 27.3981C42.3792 27.4002 42.4159 27.4294 42.4143 27.4315L42.6645 27.1813C42.6659 27.1792 42.6292 27.1501 42.6308 27.1479C43.0413 26.5857 42.2827 25.0607 40.8429 23.6355C39.3997 22.207 37.8292 21.4232 37.2694 21.841L37.0192 22.0912V22.0912H37.0192Z" fill="url(#paint21_linear)"/>
<path d="M38.0455 21.0653C38.6053 20.6474 40.1758 21.4312 41.619 22.8598C43.0588 24.2849 43.8174 25.8099 43.4069 26.3721C43.4055 26.3742 43.4422 26.4034 43.4406 26.4055L43.6909 26.1553C43.6923 26.1532 43.6556 26.1241 43.6572 26.122C44.0677 25.5597 43.3091 24.0347 41.8693 22.6096C40.4261 21.181 38.8555 20.3973 38.2958 20.8151L38.0456 21.0653H38.0455Z" fill="url(#paint22_linear)"/>
<path d="M37.8162 21.2945C38.3759 20.8767 39.9464 21.6604 41.3896 23.089C42.8294 24.5141 43.5881 26.0391 43.1775 26.6014C43.1761 26.6035 43.2129 26.6326 43.2113 26.6348L43.4615 26.3846C43.4629 26.3825 43.4262 26.3533 43.4278 26.3512C43.8383 25.7889 43.0797 24.264 41.6399 22.8388C40.1967 21.4103 38.6262 20.6265 38.0664 21.0443L37.8162 21.2945L37.8162 21.2945Z" fill="url(#paint23_linear)"/>
<path d="M38.8463 20.2647C39.4061 19.8469 40.9766 20.6306 42.4198 22.0592C43.8596 23.4843 44.6182 25.0093 44.2077 25.5716C44.2063 25.5737 44.243 25.6028 44.2414 25.6049L44.4917 25.3548C44.4931 25.3527 44.4564 25.3235 44.458 25.3214C44.8685 24.7591 44.1098 23.2342 42.6701 21.809C41.2268 20.3805 39.6563 19.5967 39.0966 20.0145L38.8463 20.2647Z" fill="url(#paint24_linear)"/>
<path d="M38.617 20.494C39.1767 20.0761 40.7472 20.8599 42.1905 22.2885C43.6303 23.7136 44.3889 25.2386 43.9784 25.8008C43.977 25.8029 44.0137 25.8321 44.0121 25.8342L44.2624 25.584C44.2638 25.5819 44.2271 25.5528 44.2287 25.5507C44.6392 24.9884 43.8805 23.4634 42.4407 22.0383C40.9975 20.6097 39.427 19.826 38.8673 20.2438L38.617 20.494H38.617Z" fill="url(#paint25_linear)"/>
<path fill-rule="evenodd" clip-rule="evenodd" d="M18.5028 45.8441L27.6455 42.1345L27.7234 42.057C28.1339 41.4948 27.3654 39.9697 25.9256 38.5445C24.4824 37.116 22.9137 36.3365 22.354 36.7544L18.5028 45.8441H18.5028Z" fill="url(#paint26_linear)" stroke="url(#paint27_linear)" stroke-width="0.5"/>
<path fill-rule="evenodd" clip-rule="evenodd" d="M19.546 43.3822L18.5023 45.8344L20.9959 44.8174C20.7961 44.5792 20.6116 44.3373 20.3716 44.0998C20.0953 43.8264 19.8236 43.6045 19.546 43.3822Z" fill="#333333" stroke="#1A1A1A" stroke-width="0.5"/>
</g>
<defs>
<linearGradient id="paint0_linear" x1="27.5066" y1="47.6046" x2="20.1485" y2="0.171968" gradientUnits="userSpaceOnUse">
<stop stop-color="#EDEDED"/>
<stop offset="1" stop-color="white"/>
</linearGradient>
<linearGradient id="paint1_linear" x1="19.5298" y1="36.9549" x2="14.44" y2="4.14467" gradientUnits="userSpaceOnUse">
<stop stop-color="#8C166C"/>
<stop offset="0.362069" stop-color="#CA3561"/>
<stop offset="1" stop-color="#F38F4E"/>
</linearGradient>
<linearGradient id="paint2_linear" x1="16.7275" y1="34.0689" x2="15.4135" y2="25.5988" gradientUnits="userSpaceOnUse">
<stop stop-color="#E28192"/>
<stop offset="0.258621" stop-color="#F7D6C7"/>
<stop offset="1" stop-color="#FFFEE4"/>
</linearGradient>
<linearGradient id="paint3_linear" x1="30.2874" y1="47.0036" x2="17.7812" y2="0.661434" gradientUnits="userSpaceOnUse">
<stop stop-color="#EDEDED"/>
<stop offset="1" stop-color="white"/>
</linearGradient>
<linearGradient id="paint4_linear" x1="21.4925" y1="37.2102" x2="12.8417" y2="5.15424" gradientUnits="userSpaceOnUse">
<stop stop-color="#8C166C"/>
<stop offset="0.362069" stop-color="#CA3561"/>
<stop offset="1" stop-color="#F38F4E"/>
</linearGradient>
<linearGradient id="paint5_linear" x1="18.5027" y1="34.6181" x2="16.2695" y2="26.3428" gradientUnits="userSpaceOnUse">
<stop stop-color="#E28192"/>
<stop offset="0.258621" stop-color="#F7D6C7"/>
<stop offset="1" stop-color="#FFFEE4"/>
</linearGradient>
<radialGradient id="paint6_radial" cx="0" cy="0" r="1" gradientUnits="userSpaceOnUse" gradientTransform="translate(40.5707 39.375) scale(5.93226 1.875)">
<stop stop-color="#181818"/>
<stop offset="1" stop-color="#181818" stop-opacity="0"/>
</radialGradient>
<radialGradient id="paint7_radial" cx="0" cy="0" r="1" gradientUnits="userSpaceOnUse" gradientTransform="translate(7.42935 39.375) rotate(180) scale(5.93227 1.875)">
<stop stop-color="#181818"/>
<stop offset="1" stop-color="#181818" stop-opacity="0"/>
</radialGradient>
<linearGradient id="paint8_linear" x1="25.253" y1="41.2649" x2="25.253" y2="37.4997" gradientUnits="userSpaceOnUse">
<stop stop-color="#181818" stop-opacity="0"/>
<stop offset="0.5" stop-color="#181818"/>
<stop offset="1" stop-color="#181818" stop-opacity="0"/>
</linearGradient>
<linearGradient id="paint9_linear" x1="24" y1="46.875" x2="24" y2="-1.125" gradientUnits="userSpaceOnUse">
<stop stop-color="#EDEDED"/>
<stop offset="1" stop-color="white"/>
</linearGradient>
<linearGradient id="paint10_linear" x1="17.75" y1="35.1284" x2="17.75" y2="1.92567" gradientUnits="userSpaceOnUse">
<stop stop-color="#8C166C"/>
<stop offset="0.362069" stop-color="#CA3561"/>
<stop offset="1" stop-color="#F38F4E"/>
</linearGradient>
<linearGradient id="paint11_linear" x1="15.4232" y1="31.8469" x2="15.4232" y2="23.2755" gradientUnits="userSpaceOnUse">
<stop stop-color="#E28192"/>
<stop offset="0.258621" stop-color="#F7D6C7"/>
<stop offset="1" stop-color="#FFFEE4"/>
</linearGradient>
<linearGradient id="paint12_linear" x1="3.93751" y1="32.706" x2="1.3125" y2="32.706" gradientUnits="userSpaceOnUse">
<stop stop-opacity="0"/>
<stop offset="0.5"/>
<stop offset="1" stop-opacity="0"/>
</linearGradient>
<radialGradient id="paint13_radial" cx="0" cy="0" r="1" gradientUnits="userSpaceOnUse" gradientTransform="translate(2.64046 41.204) rotate(90) scale(1.85247 1.26618)">
<stop/>
<stop offset="1" stop-opacity="0"/>
</radialGradient>
<radialGradient id="paint14_radial" cx="0" cy="0" r="1" gradientUnits="userSpaceOnUse" gradientTransform="translate(2.64043 18.7949) rotate(-90) scale(1.85247 1.26618)">
<stop/>
<stop offset="1" stop-opacity="0"/>
</radialGradient>
<radialGradient id="paint15_radial" cx="0" cy="0" r="1" gradientUnits="userSpaceOnUse" gradientTransform="translate(5.09633 36.9767) rotate(90) scale(3.54239 2.26016)">
<stop/>
<stop offset="1" stop-opacity="0"/>
</radialGradient>
<linearGradient id="paint16_linear" x1="27.8467" y1="37.7146" x2="2.62335" y2="31.0441" gradientUnits="userSpaceOnUse">
<stop stop-color="#FCFCFC"/>
<stop offset="1" stop-color="#CBCDD9"/>
</linearGradient>
<linearGradient id="paint17_linear" x1="26.25" y1="33.937" x2="3.9375" y2="33.937" gradientUnits="userSpaceOnUse">
<stop stop-color="white"/>
<stop offset="1" stop-color="white" stop-opacity="0"/>
</linearGradient>
<linearGradient id="paint18_linear" x1="32.5934" y1="26.5275" x2="37.9624" y2="31.8983" gradientUnits="userSpaceOnUse">
<stop stop-color="#AD5F00"/>
<stop offset="0.134829" stop-color="#FFE16B"/>
<stop offset="0.202244" stop-color="#F9C440"/>
<stop offset="0.269659" stop-color="#FFF394"/>
<stop offset="0.446503" stop-color="#F9C440"/>
<stop offset="0.571141" stop-color="#F9C440"/>
<stop offset="0.720381" stop-color="#FFE16B"/>
<stop offset="1" stop-color="#AD5F00"/>
</linearGradient>
<linearGradient id="paint19_linear" x1="32.5934" y1="26.5275" x2="37.9624" y2="31.8983" gradientUnits="userSpaceOnUse">
<stop stop-color="#555761"/>
<stop offset="0.134829" stop-color="#D4D4D4"/>
<stop offset="0.202244" stop-color="#ABACAE"/>
<stop offset="0.269659" stop-color="#FAFAFA"/>
<stop offset="0.446503" stop-color="#ABACAE"/>
<stop offset="0.571141" stop-color="#ABACAE"/>
<stop offset="0.720381" stop-color="#D4D4D4"/>
<stop offset="1" stop-color="#555761"/>
</linearGradient>
<linearGradient id="paint20_linear" x1="37.7844" y1="21.2369" x2="43.1625" y2="26.6168" gradientUnits="userSpaceOnUse">
<stop stop-color="#555761"/>
<stop offset="0.5" stop-color="#ABACAE"/>
<stop offset="1" stop-color="#555761"/>
</linearGradient>
<linearGradient id="paint21_linear" x1="37.555" y1="21.4661" x2="42.9331" y2="26.8461" gradientUnits="userSpaceOnUse">
<stop stop-color="#ABACAE"/>
<stop offset="0.5" stop-color="#FAFAFA"/>
<stop offset="1" stop-color="#ABACAE"/>
</linearGradient>
<linearGradient id="paint22_linear" x1="38.5814" y1="20.4402" x2="43.9595" y2="25.8201" gradientUnits="userSpaceOnUse">
<stop stop-color="#555761"/>
<stop offset="0.5" stop-color="#ABACAE"/>
<stop offset="1" stop-color="#555761"/>
</linearGradient>
<linearGradient id="paint23_linear" x1="38.352" y1="20.6694" x2="43.7301" y2="26.0493" gradientUnits="userSpaceOnUse">
<stop stop-color="#ABACAE"/>
<stop offset="0.5" stop-color="#FAFAFA"/>
<stop offset="1" stop-color="#ABACAE"/>
</linearGradient>
<linearGradient id="paint24_linear" x1="39.3822" y1="19.6396" x2="44.7602" y2="25.0195" gradientUnits="userSpaceOnUse">
<stop stop-color="#555761"/>
<stop offset="0.5" stop-color="#ABACAE"/>
<stop offset="1" stop-color="#555761"/>
</linearGradient>
<linearGradient id="paint25_linear" x1="39.1528" y1="19.8689" x2="44.5309" y2="25.2488" gradientUnits="userSpaceOnUse">
<stop stop-color="#ABACAE"/>
<stop offset="0.5" stop-color="#FAFAFA"/>
<stop offset="1" stop-color="#ABACAE"/>
</linearGradient>
<linearGradient id="paint26_linear" x1="25.0208" y1="42.727" x2="21.7718" y2="39.4769" gradientUnits="userSpaceOnUse">
<stop stop-color="#FFF394"/>
<stop offset="1" stop-color="#FAFAFA"/>
</linearGradient>
<linearGradient id="paint27_linear" x1="20.6058" y1="40.6536" x2="23.524" y2="43.6037" gradientUnits="userSpaceOnUse">
<stop stop-color="#D48E15"/>
<stop offset="1" stop-color="#AD5F00"/>
</linearGradient>
<clipPath id="clip0">
<rect width="48" height="48" fill="white"/>
</clipPath>
</defs>
</svg>
