<svg width="64" height="64" viewBox="0 0 64 64" fill="none" xmlns="http://www.w3.org/2000/svg">
<g clip-path="url(#clip0)">
<path opacity="0.35" d="M60.9329 50.0811L56.462 7.31714C56.462 7.31714 20.6572 11.0605 2.75475 12.9322C4.24517 27.1878 7.22602 55.6991 7.22602 55.6991L60.9329 50.0811Z" stroke="black" stroke-width="2" stroke-linejoin="round"/>
<path d="M60.9329 50.0811L56.462 7.31714C56.462 7.31714 20.6572 11.0605 2.75475 12.9322C4.24517 27.1878 7.22602 55.6991 7.22602 55.6991L60.9329 50.0811Z" fill="url(#paint0_linear)"/>
<path opacity="0.4" d="M60.9329 50.0811L56.462 7.31714C56.462 7.31714 20.6572 11.0605 2.75475 12.9322C4.24517 27.1878 7.22602 55.6991 7.22602 55.6991L60.9329 50.0811Z" stroke="white" stroke-width="2" stroke-linejoin="round"/>
<path opacity="0.4" d="M2.75475 12.9322L2.85874 13.9268L56.566 8.31172L56.462 7.31714L2.75475 12.9322Z" fill="white"/>
<path d="M9.00722 53.502L4.95188 14.7134L54.6808 9.51426L58.7362 48.3028L9.00722 53.502Z" fill="url(#paint1_linear)"/>
<path opacity="0.1" d="M20.3772 31.8075C16.4706 32.2159 13.6074 35.7476 14.0158 39.6543C14.4243 43.561 17.956 46.4242 21.8627 46.0157C25.7694 45.6073 28.6326 42.0755 28.2241 38.1688C27.8157 34.2622 24.2839 31.399 20.3772 31.8075ZM20.6743 34.6491C23.0453 34.4012 25.1346 36.095 25.3825 38.4659C25.6303 40.8369 23.9365 42.9262 21.5656 43.1741C19.1947 43.4219 17.1054 41.7282 16.8575 39.3572C16.6096 36.9863 18.3034 34.897 20.6743 34.6491Z" fill="#FED8CD"/>
<path opacity="0.1" d="M20.2287 30.3866C15.5541 30.8753 12.1063 35.1283 12.595 39.8029C13.0837 44.4774 17.3367 47.9253 22.0112 47.4366C26.6858 46.9478 30.1337 42.6949 29.6449 38.0203C29.1562 33.3458 24.9032 29.8979 20.2287 30.3866ZM20.8229 36.0699C22.4259 35.9023 23.794 37.0114 23.9616 38.6145C24.1292 40.2176 23.0201 41.5856 21.4171 41.7532C19.814 41.9208 18.4459 40.8117 18.2783 39.2087C18.1107 37.6056 19.2198 36.2375 20.8229 36.0699Z" fill="#FED8CD"/>
<path opacity="0.1" d="M20.0801 28.9658C14.6377 29.5348 10.6052 34.509 11.1742 39.9514C11.7432 45.3938 16.7174 49.4264 22.1598 48.8574C27.6022 48.2884 31.6348 43.3142 31.0658 37.8718C30.4968 32.4293 25.5226 28.3968 20.0801 28.9658ZM20.9714 37.4908C21.8066 37.4034 22.4535 37.9279 22.5408 38.763C22.6281 39.5982 22.1037 40.2451 21.2685 40.3324C20.4333 40.4197 19.7865 39.8953 19.6991 39.0601C19.6118 38.2249 20.1362 37.5781 20.9714 37.4908Z" fill="#FED8CD"/>
<path fill-rule="evenodd" clip-rule="evenodd" d="M20.5258 33.2283C23.6646 32.9001 26.4751 35.1786 26.8033 38.3174C27.1314 41.4562 24.853 44.2668 21.7142 44.5949C18.5754 44.9231 15.7648 42.6446 15.4367 39.5058C15.1085 36.367 17.387 33.5565 20.5258 33.2283Z" fill="url(#paint2_linear)"/>
<path d="M8.35361 47.2504L8.20507 45.8296C8.20507 45.8296 11.5436 43.0867 12.5302 42.7747C13.5168 42.4627 14.725 42.5064 15.9728 42.6094C17.2206 42.7116 19.08 42.8319 19.6522 42.7918C20.2244 42.7521 21.2489 42.5746 22.4401 42.3768C23.6315 42.1804 25.6096 41.9075 26.2295 41.8499C26.8486 41.7852 28.4032 41.7088 30.0613 41.6372C31.7194 41.5658 33.9999 41.4977 34.5183 41.4912C35.0366 41.4844 35.6492 41.508 36.344 41.5309C37.0387 41.553 38.2392 41.5707 38.6628 41.5658C39.0862 41.5603 40.0727 41.5923 41.2119 41.5782C42.3511 41.564 44.1604 41.4107 44.6779 41.3178C45.1953 41.2249 46.248 40.7245 47.4288 40.2412C48.6097 39.7581 49.9187 39.2919 50.9487 39.2656C51.9788 39.2398 57.934 40.6303 57.934 40.6303L58.0826 42.0511L50.6232 42.831L44.5847 43.4623L38.5462 44.0936L32.5077 44.7249L26.4691 45.3563L20.4306 45.9876L14.3921 46.6189L8.35361 47.2504Z" fill="black"/>
<path opacity="0.9" d="M8.35361 47.2504L8.45053 48.1775C8.45053 48.1775 12.1981 49.3474 13.2204 49.3768C14.2428 49.4064 15.422 49.1725 16.6299 48.894C17.8379 48.6159 19.6435 48.2217 20.2123 48.1494C20.781 48.0756 21.8176 48.0146 23.0214 47.9362C24.2251 47.8577 26.2145 47.6928 26.833 47.6224C27.4521 47.5577 28.992 47.3407 30.6327 47.1031C32.2734 46.8655 34.5248 46.5185 35.0351 46.4341C35.5452 46.3492 36.143 46.2307 36.8214 46.0968C37.4999 45.9641 38.6759 45.7478 39.0928 45.6785C39.5095 45.6091 40.4729 45.4207 41.5942 45.2349C42.7154 45.0487 44.5187 44.8372 45.0428 44.8082C45.5669 44.7793 46.6862 44.9165 47.9286 45.0213C49.1709 45.1261 50.5362 45.1983 51.5523 45.0389C52.5684 44.8795 58.1796 42.9792 58.1796 42.9792L58.0827 42.0522L50.6233 42.8321L44.5848 43.4634L38.5463 44.0947L32.5078 44.7261L26.4693 45.3574L20.4307 45.9887L14.3922 46.6201L8.35361 47.2504Z" fill="black"/>
<path opacity="0.3" d="M8.35361 47.2504L58.0826 42.0512L58.5282 46.3137L8.79925 51.5128L8.35361 47.2504Z" fill="#4D585E"/>
<path opacity="0.2" d="M9.00722 53.502L4.95188 14.7134L54.6808 9.51426L58.7362 48.3028L9.00722 53.502Z" stroke="black" stroke-width="2"/>
<path opacity="0.35" d="M62.6177 47.1319L53.965 5.01448C53.965 5.01448 18.7015 12.2591 1.06972 15.8815C3.95416 29.9216 9.72306 58.0018 9.72306 58.0018L62.6177 47.1319Z" stroke="black" stroke-width="2" stroke-linejoin="round"/>
<path d="M62.6177 47.1319L53.965 5.01448C53.965 5.01448 18.7015 12.2591 1.06972 15.8815C3.95416 29.9216 9.72306 58.0018 9.72306 58.0018L62.6177 47.1319Z" fill="url(#paint3_linear)"/>
<path opacity="0.4" d="M62.6177 47.1319L53.965 5.01448C53.965 5.01448 18.7015 12.2591 1.06972 15.8815C3.95416 29.9216 9.72306 58.0018 9.72306 58.0018L62.6177 47.1319Z" stroke="white" stroke-width="2" stroke-linejoin="round"/>
<path opacity="0.4" d="M1.06972 15.8815L1.27096 16.861L54.1662 5.99403L53.965 5.01448L1.06972 15.8815Z" fill="white"/>
<path d="M11.2797 55.6402L3.43128 17.4381L52.4084 7.37605L60.2568 45.5782L11.2797 55.6402Z" fill="url(#paint4_linear)"/>
<path opacity="0.1" d="M20.4622 32.9331C16.6146 33.7236 14.1124 37.5197 14.9029 41.3673C15.6934 45.2149 19.4894 47.717 23.337 46.9266C27.1847 46.1361 29.6868 42.34 28.8963 38.4924C28.1059 34.6448 24.3098 32.1427 20.4622 32.9331ZM21.0372 35.7318C23.3722 35.2521 25.6179 36.7323 26.0977 39.0674C26.5774 41.4025 25.0972 43.6482 22.7621 44.1279C20.427 44.6076 18.1813 43.1274 17.7016 40.7923C17.2218 38.4572 18.7021 36.2115 21.0372 35.7318Z" fill="#FED8CD"/>
<path opacity="0.1" d="M20.1747 31.5338C15.5708 32.4796 12.5577 37.0509 13.5035 41.6548C14.4494 46.2586 19.0207 49.2718 23.6245 48.3259C28.2284 47.3801 31.2415 42.8088 30.2957 38.2049C29.3499 33.601 24.7786 30.5879 20.1747 31.5338ZM21.3246 37.1312C22.9035 36.8068 24.3739 37.776 24.6983 39.3549C25.0227 40.9337 24.0534 42.4042 22.4746 42.7285C20.8958 43.0529 19.4253 42.0836 19.1009 40.5048C18.7766 38.926 19.7458 37.4555 21.3246 37.1312Z" fill="#FED8CD"/>
<path opacity="0.1" d="M19.8872 30.1344C14.5271 31.2356 11.003 36.5821 12.1042 41.9423C13.2054 47.3024 18.5519 50.8265 23.912 49.7253C29.2722 48.6241 32.7962 43.2776 31.695 37.9174C30.5938 32.5573 25.2473 29.0332 19.8872 30.1344ZM21.6121 38.5305C22.4347 38.3615 23.13 38.8198 23.299 39.6424C23.4679 40.4649 23.0097 41.1602 22.1871 41.3292C21.3645 41.4982 20.6693 41.0399 20.5003 40.2173C20.3313 39.3948 20.7896 38.6995 21.6121 38.5305Z" fill="#FED8CD"/>
<path fill-rule="evenodd" clip-rule="evenodd" d="M20.7497 34.3325C23.841 33.6974 26.8619 35.6886 27.497 38.7799C28.1321 41.8713 26.1409 44.8922 23.0496 45.5273C19.9582 46.1624 16.9373 44.1712 16.3022 41.0798C15.6671 37.9885 17.6583 34.9676 20.7497 34.3325Z" fill="url(#paint5_linear)"/>
<path d="M10.0147 49.4831L9.72724 48.0838C9.72724 48.0838 12.78 45.026 13.7311 44.6186C14.6823 44.2111 15.889 44.1359 17.1409 44.1157C18.3926 44.0948 20.2548 44.0317 20.8203 43.9355C21.3859 43.8398 22.388 43.5624 23.554 43.2485C24.7203 42.936 26.662 42.47 27.2732 42.3517C27.883 42.2264 29.4225 41.9976 31.0655 41.7633C32.7086 41.5293 34.9714 41.2374 35.4866 41.18C36.0018 41.1223 36.6137 41.0855 37.3074 41.04C38.0009 40.9938 39.1973 40.8934 39.6184 40.8468C40.0392 40.7997 41.0241 40.7347 42.1563 40.6087C43.2886 40.4825 45.0742 40.1521 45.58 40.0088C46.0858 39.8655 47.0841 39.264 48.2117 38.667C49.3394 38.0702 50.5962 37.4776 51.6187 37.3502C52.6413 37.2233 58.7043 38.0216 58.7043 38.0216L58.9918 39.4209L51.6452 40.9303L45.698 42.1521L39.7508 43.3739L33.8036 44.5957L27.8564 45.8175L21.9091 47.0393L15.9619 48.2612L10.0147 49.4831Z" fill="black"/>
<path opacity="0.9" d="M10.0147 49.4831L10.2023 50.3962C10.2023 50.3962 14.0468 51.1921 15.067 51.1209C16.0873 51.0498 17.2378 50.7012 18.4125 50.3053C19.5873 49.9097 21.3454 49.34 21.9044 49.2122C22.463 49.0828 23.4887 48.9202 24.6789 48.7239C25.869 48.5275 27.8326 48.1678 28.4412 48.0369C29.051 47.9117 30.562 47.5444 32.1715 47.1466C33.7809 46.7489 35.9873 46.1823 36.4867 46.0482C36.9861 45.9135 37.5693 45.7368 38.2312 45.5369C38.8934 45.3382 40.0425 45.0073 40.4505 44.8974C40.8585 44.7873 41.7987 44.5052 42.8962 44.21C43.9937 43.9145 45.7675 43.5268 46.2862 43.4465C46.805 43.3662 47.9323 43.3927 49.1789 43.3749C50.4255 43.3571 51.7913 43.2947 52.7869 43.0362C53.7824 42.7777 59.1796 40.335 59.1796 40.335L58.992 39.4221L51.6455 40.9314L45.6982 42.1532L39.751 43.375L33.8038 44.5968L27.8566 45.8186L21.9094 47.0405L15.9622 48.2623L10.0147 49.4831Z" fill="black"/>
<path opacity="0.3" d="M10.0147 49.4831L58.9918 39.4211L59.8543 43.6191L10.8772 53.6811L10.0147 49.4831Z" fill="#4D585E"/>
<path opacity="0.2" d="M11.2797 55.6402L3.43128 17.4381L52.4084 7.37605L60.2568 45.5782L11.2797 55.6402Z" stroke="black" stroke-width="2"/>
<path opacity="0.35" d="M64.3809 43.0176L50.35 2.37434C50.35 2.37434 16.3207 14.122 -0.693909 19.9958C3.98339 33.5445 13.338 60.6419 13.338 60.6419L64.3809 43.0176Z" stroke="black" stroke-width="2" stroke-linejoin="round"/>
<path d="M64.3809 43.0176L50.35 2.37434C50.35 2.37434 16.3207 14.122 -0.693909 19.9958C3.98339 33.5445 13.338 60.6419 13.338 60.6419L64.3809 43.0176Z" fill="url(#paint6_linear)"/>
<path opacity="0.4" d="M64.3809 43.0176L50.35 2.37434C50.35 2.37434 16.3207 14.122 -0.693909 19.9958C3.98339 33.5445 13.338 60.6419 13.338 60.6419L64.3809 43.0176Z" stroke="white" stroke-width="2" stroke-linejoin="round"/>
<path opacity="0.4" d="M-0.693909 19.9958L-0.367585 20.9411L50.6764 3.3196L50.35 2.37434L-0.693909 19.9958Z" fill="white"/>
<path d="M14.5759 58.0987L1.84926 21.2337L49.1122 4.91751L61.8388 41.7826L14.5759 58.0987Z" fill="url(#paint7_linear)"/>
<path opacity="0.1" d="M20.7423 34.3942C17.0294 35.676 15.0396 39.764 16.3214 43.4769C17.6032 47.1899 21.6911 49.1797 25.4041 47.8979C29.117 46.6161 31.1068 42.5281 29.8251 38.8152C28.5433 35.1022 24.4553 33.1124 20.7423 34.3942ZM21.6747 37.0949C23.928 36.317 26.3464 37.4942 27.1243 39.7475C27.9022 42.0009 26.7251 44.4193 24.4717 45.1972C22.2184 45.9751 19.8 44.7979 19.0221 42.5446C18.2442 40.2912 19.4213 37.8729 21.6747 37.0949Z" fill="#FED8CD"/>
<path opacity="0.1" d="M20.2762 33.0438C15.8334 34.5776 13.4373 39.5004 14.971 43.9431C16.5047 48.3858 21.4275 50.782 25.8703 49.2483C30.313 47.7145 32.7092 42.7917 31.1754 38.349C29.6417 33.9062 24.7189 31.5101 20.2762 33.0438ZM22.1409 38.4453C23.6644 37.9193 25.248 38.6901 25.774 40.2137C26.2999 41.7373 25.5291 43.3208 24.0056 43.8468C22.482 44.3728 20.8984 43.602 20.3725 42.0784C19.8465 40.5548 20.6173 38.9713 22.1409 38.4453Z" fill="#FED8CD"/>
<path opacity="0.1" d="M19.81 31.6935C14.6374 33.4791 11.835 39.2367 13.6206 44.4093C15.4063 49.5818 21.1639 52.3843 26.3364 50.5986C31.509 48.813 34.3115 43.0553 32.5258 37.8828C30.7401 32.7103 24.9825 29.9078 19.81 31.6935ZM22.607 39.7957C23.4008 39.5217 24.1496 39.8861 24.4236 40.6799C24.6976 41.4736 24.3332 42.2224 23.5394 42.4964C22.7456 42.7704 21.9969 42.406 21.7228 41.6122C21.4488 40.8185 21.8133 40.0697 22.607 39.7957Z" fill="#FED8CD"/>
<path fill-rule="evenodd" clip-rule="evenodd" d="M21.2085 35.7446C24.1917 34.7148 27.4449 36.2982 28.4747 39.2814C29.5046 42.2645 27.9211 45.5177 24.9379 46.5476C21.9548 47.5774 18.7016 45.9939 17.6718 43.0108C16.6419 40.0276 18.2254 36.7745 21.2085 35.7446Z" fill="url(#paint8_linear)"/>
<path d="M12.5247 52.1571L12.0585 50.8068C12.0585 50.8068 14.6898 47.3797 15.5803 46.8525C16.4707 46.3254 17.6575 46.0946 18.8962 45.9126C20.1347 45.7298 21.9731 45.4263 22.5214 45.2577C23.0698 45.0896 24.0276 44.6849 25.1432 44.2227C26.2592 43.7618 28.1243 43.0484 28.7151 42.852C29.3035 42.6489 30.8004 42.2228 32.3993 41.7778C33.9983 41.3332 36.2043 40.7508 36.7077 40.6272C37.2111 40.5033 37.8131 40.3877 38.4951 40.2527C39.1768 40.1171 40.3502 39.8627 40.7616 39.7621C41.1728 39.6609 42.141 39.4689 43.2474 39.1974C44.3538 38.9258 46.0816 38.3671 46.5646 38.1596C47.0476 37.952 47.9597 37.2264 49.0006 36.4885C50.0415 35.7507 51.2111 35.0004 52.2085 34.7418C53.206 34.4835 59.3214 34.4905 59.3214 34.4905L59.7876 35.8408L52.6981 38.2883L46.9591 40.2695L41.22 42.2508L35.4809 44.232L29.7419 46.2133L24.0028 48.1945L18.2637 50.1758L12.5247 52.1571Z" fill="black"/>
<path opacity="0.9" d="M12.5247 52.1572L12.8289 53.0383C12.8289 53.0383 16.744 53.3299 17.7465 53.1273C18.749 52.9248 19.8447 52.4301 20.9582 51.8855C22.0719 51.3413 23.7415 50.5488 24.2793 50.3497C24.8165 50.1491 25.8125 49.8552 26.9672 49.5064C28.122 49.1576 30.0225 48.5469 30.6091 48.3383C31.1975 48.1352 32.6483 47.5754 34.1927 46.9727C35.7371 46.37 37.8516 45.5226 38.3295 45.325C38.8072 45.1268 39.3626 44.8762 39.9932 44.5923C40.6241 44.3095 41.7207 43.8327 42.111 43.6709C42.5013 43.509 43.3971 43.1075 44.4472 42.6728C45.4972 42.2377 47.2058 41.6237 47.7098 41.4769C48.2138 41.3301 49.3351 41.2105 50.569 41.0315C51.8028 40.8525 53.149 40.6139 54.1027 40.2287C55.0564 39.8436 60.0921 36.7229 60.0921 36.7229L59.7879 35.8419L52.6985 38.2893L46.9594 40.2706L41.2204 42.2518L35.4813 44.2331L29.7422 46.2143L24.0032 48.1956L18.2641 50.1768L12.5247 52.1572Z" fill="black"/>
<path opacity="0.3" d="M12.5247 52.1571L59.7876 35.841L61.1861 39.8921L13.9232 56.2082L12.5247 52.1571Z" fill="#4D585E"/>
<path opacity="0.2" d="M14.5759 58.0987L1.84926 21.2337L49.1122 4.91751L61.8388 41.7826L14.5759 58.0987Z" stroke="black" stroke-width="2"/>
<path opacity="0.6" d="M62.0001 50H54.1053V55H62.0001V50Z" fill="url(#paint9_radial)"/>
<path opacity="0.6" d="M1.99995 55H9.8947V50H1.99995V55Z" fill="url(#paint10_radial)"/>
<path opacity="0.6" d="M54.1053 50H9.8947V55H54.1053V50Z" fill="url(#paint11_linear)"/>
<path opacity="0.35" d="M58.9999 51.997L59 9C59 9 23 9 5 9C5 23.3333 5 52 5 52L58.9999 51.997Z" stroke="black" stroke-width="2" stroke-linejoin="round"/>
<path d="M58.9999 51.997L59 9C59 9 23 9 5 9C5 23.3333 5 52 5 52L58.9999 51.997Z" fill="url(#paint12_linear)"/>
<path opacity="0.4" d="M58.9999 51.997L59 9C59 9 23 9 5 9C5 23.3333 5 52 5 52L58.9999 51.997Z" stroke="white" stroke-width="2" stroke-linejoin="round"/>
<path opacity="0.4" d="M5 9V10H59V9H5Z" fill="white"/>
<path d="M7 50V11H57V50H7Z" fill="url(#paint13_linear)"/>
<path opacity="0.1" d="M20.5642 29.6053C16.6363 29.6053 13.4214 32.8202 13.4214 36.7482C13.4214 40.6762 16.6363 43.8911 20.5642 43.8911C24.4922 43.8911 27.7071 40.6762 27.7071 36.7482C27.7071 32.8202 24.4922 29.6053 20.5642 29.6053ZM20.5642 32.4625C22.9481 32.4625 24.85 34.3643 24.85 36.7482C24.85 39.1321 22.9481 41.0339 20.5642 41.0339C18.1804 41.0339 16.2785 39.1321 16.2785 36.7482C16.2785 34.3643 18.1804 32.4625 20.5642 32.4625Z" fill="#FED8CD"/>
<path opacity="0.1" d="M20.5642 28.1768C15.8642 28.1768 11.9928 32.0482 11.9928 36.7482C11.9928 41.4482 15.8642 45.3196 20.5642 45.3196C25.2643 45.3196 29.1357 41.4482 29.1357 36.7482C29.1357 32.0482 25.2643 28.1768 20.5642 28.1768ZM20.5642 33.8911C22.176 33.8911 23.4214 35.1364 23.4214 36.7482C23.4214 38.36 22.176 39.6053 20.5642 39.6053C18.9524 39.6053 17.7071 38.36 17.7071 36.7482C17.7071 35.1364 18.9524 33.8911 20.5642 33.8911Z" fill="#FED8CD"/>
<path opacity="0.1" d="M20.5642 26.7482C15.0922 26.7482 10.5642 31.2761 10.5642 36.7482C10.5642 42.2203 15.0922 46.7482 20.5642 46.7482C26.0363 46.7482 30.5642 42.2203 30.5642 36.7482C30.5642 31.2761 26.0363 26.7482 20.5642 26.7482ZM20.5642 35.3196C21.404 35.3196 21.9928 35.9085 21.9928 36.7482C21.9928 37.5879 21.404 38.1768 20.5642 38.1768C19.7245 38.1768 19.1357 37.5879 19.1357 36.7482C19.1357 35.9085 19.7245 35.3196 20.5642 35.3196Z" fill="#FED8CD"/>
<path fill-rule="evenodd" clip-rule="evenodd" d="M20.5642 31.034C23.7202 31.034 26.2785 33.5923 26.2785 36.7482C26.2785 39.9042 23.7202 42.4625 20.5642 42.4625C17.4083 42.4625 14.85 39.9042 14.85 36.7482C14.85 33.5923 17.4083 31.034 20.5642 31.034Z" fill="url(#paint14_linear)"/>
<path d="M7 43.7143V42.2857C7 42.2857 10.6056 39.9049 11.6193 39.6972C12.633 39.4895 13.8302 39.6586 15.0605 39.8907C16.2908 40.1222 18.1277 40.4352 18.7009 40.4547C19.2742 40.4747 20.3116 40.4047 21.5169 40.3319C22.7223 40.2605 24.7181 40.1947 25.3406 40.2019C25.9631 40.2019 27.5171 40.2876 29.1736 40.3887C30.8302 40.4902 33.1055 40.6596 33.6217 40.707C34.1379 40.7542 34.7447 40.8413 35.4334 40.9363C36.122 41.0306 37.3142 41.173 37.736 41.2122C38.1577 41.2507 39.1355 41.3852 40.27 41.4896C41.4044 41.5939 43.2199 41.6296 43.7442 41.591C44.2685 41.5525 45.3675 41.1642 46.5922 40.8063C47.8169 40.4486 49.1673 40.121 50.1945 40.202C51.2217 40.2834 57 42.2856 57 42.2856V43.7142H49.5H43.4286H37.3571H31.2857H25.2143H19.1429H13.0714L7 43.7143Z" fill="black"/>
<path opacity="0.9" d="M7 43.7143V44.6465C7 44.6465 10.6056 46.1997 11.6193 46.3353C12.633 46.471 13.8302 46.361 15.0605 46.2096C16.2908 46.0586 18.1277 45.8543 18.7009 45.8416C19.2742 45.8273 20.3116 45.8745 21.5169 45.9216C22.7223 45.9687 24.7181 46.0116 25.3406 46.0059C25.9631 46.0059 27.5171 45.9502 29.1736 45.8845C30.8302 45.8187 33.1055 45.7077 33.6217 45.6769C34.1379 45.6455 34.7447 45.5897 35.4334 45.5272C36.122 45.4657 37.3142 45.3729 37.736 45.3473C38.1577 45.3216 39.1355 45.2345 40.27 45.1662C41.4044 45.0976 43.2199 45.0747 43.7442 45.1005C44.2685 45.1262 45.3675 45.379 46.5922 45.6125C47.8169 45.8459 49.1673 46.0596 50.1945 46.0067C51.2217 45.9539 57 44.6473 57 44.6473V43.7153H49.5H43.4286H37.3571H31.2857H25.2143H19.1429H13.0714L7 43.7143Z" fill="black"/>
<path opacity="0.3" d="M7 43.7143H57V48H7V43.7143Z" fill="#4D585E"/>
<path opacity="0.2" d="M7 50V11H57V50H7Z" stroke="black" stroke-width="2"/>
<path opacity="0.15" d="M5.25 25.1243L5.25 54.8743H1.75L1.75 25.1243H5.25Z" fill="url(#paint15_linear)"/>
<path opacity="0.15" d="M5.24992 54.8743H1.75012C1.74312 55.9601 2.53426 57.4993 3.50026 57.4993C4.46626 57.4993 5.24992 56.2876 5.24992 54.8743Z" fill="url(#paint16_radial)"/>
<path opacity="0.15" d="M5.24986 25.1243H1.75005C1.74305 24.0385 2.53419 22.4993 3.50019 22.4993C4.46619 22.4993 5.24986 23.711 5.24986 25.1243Z" fill="url(#paint17_radial)"/>
<path opacity="0.3" d="M9.88194 49.1792H3.63469C3.62296 51.2556 5.03438 54.1989 6.75872 54.1989C8.48305 54.1989 9.88193 51.8818 9.88194 49.1792Z" fill="url(#paint18_radial)"/>
<path opacity="0.8" fill-rule="evenodd" clip-rule="evenodd" d="M4.375 21.6234L39.375 56.6234H4.375V21.6234ZM11.375 37.9568V49.6234H23.0417L11.375 37.9568Z" fill="url(#paint19_linear)"/>
<path opacity="0.8" d="M6.125 25.9993L35 54.8743H6.125V25.9993Z" stroke="url(#paint20_linear)"/>
<path opacity="0.3" d="M6.125 40.8734H4.375" stroke="#83899A" stroke-linecap="square"/>
<path opacity="0.3" d="M6.125 46.1234H4.375" stroke="#83899A" stroke-linecap="square"/>
<path opacity="0.3" d="M6.125 51.3734H4.375" stroke="#83899A" stroke-linecap="square"/>
<path opacity="0.3" d="M20.125 56.6243V54.8734" stroke="#83899A" stroke-linecap="square"/>
<path opacity="0.3" d="M9.75961 56.6243V54.8734" stroke="#83899A" stroke-linecap="square"/>
<path opacity="0.3" d="M25.375 56.6243V54.8734" stroke="#83899A" stroke-linecap="square"/>
<path opacity="0.3" d="M15.0096 56.6243V54.8734" stroke="#83899A" stroke-linecap="square"/>
<path opacity="0.3" d="M30.625 56.6243V54.8734" stroke="#83899A" stroke-linecap="square"/>
<path opacity="0.3" d="M4.375 21.6234L39.375 56.6234H4.375V21.6234ZM11.375 37.9568V49.6234H23.0417L11.375 37.9568Z" stroke="black"/>
<path opacity="0.3" d="M6.125 30.3734H4.375" stroke="#83899A" stroke-linecap="square"/>
<path opacity="0.3" d="M6.125 35.6234H4.375" stroke="#83899A" stroke-linecap="square"/>
<path opacity="0.3" d="M9.625 35.6243V50.5493V35.6243Z" stroke="white"/>
<path opacity="0.15" fill-rule="evenodd" clip-rule="evenodd" d="M52.0669 37.0843C51.956 37.0859 51.8664 37.1346 51.7923 37.1819L32.0611 49.6885L28.413 51.9908L28.315 52.0298L24 61.6878L34.6697 62L34.7482 61.9415L38.4159 59.6392L57.3625 47.5423L57.2448 43.484C56.9086 42.8291 56.5112 42.1189 56.0484 41.3963C54.7294 39.337 53.329 37.7108 52.4591 37.2014C52.3141 37.1165 52.1777 37.0827 52.0669 37.0843V37.0843Z" fill="#0C0C0C"/>
<path d="M29.8054 49.0019C30.5517 48.4448 32.6457 49.4898 34.57 51.3945C36.4897 53.2947 37.5012 55.328 36.9539 56.0777C36.9519 56.0805 37.001 56.1194 36.9988 56.1222L63.7937 29.3365C64.474 28.6564 63.417 26.5074 61.4316 24.5421C59.4462 22.5769 57.2805 21.5361 56.6002 22.2162L29.8054 49.0019Z" fill="url(#paint21_linear)"/>
<path opacity="0.6" d="M29.8054 49.0018C30.5517 48.4447 32.6457 49.4898 34.57 51.3945C36.4897 53.2947 37.5012 55.328 36.9539 56.0777C36.9519 56.0805 37.001 56.1194 36.9988 56.1222L55.4516 37.6757L55.5183 37.609C55.5202 37.6062 55.4712 37.5674 55.4734 37.5645C56.0207 36.8148 55.0092 34.7815 53.0895 32.8814C51.1652 30.9766 49.0711 29.9316 48.3248 30.4887L48.2581 30.5554L29.8054 49.0018H29.8054H29.8054Z" fill="#F9C440"/>
<path d="M29.8054 49.0019C30.5517 48.4448 32.6457 49.4898 34.57 51.3945C36.4897 53.2947 37.5012 55.328 36.9539 56.0777C36.9519 56.0805 37.001 56.1194 36.9988 56.1222L63.7937 29.3365C64.474 28.6564 63.417 26.5074 61.4316 24.5421C59.4462 22.5769 57.2805 21.5361 56.6002 22.2162L29.8054 49.0019V49.0019Z" stroke="#AD5F00" stroke-width="0.5" stroke-linejoin="round"/>
<path d="M57.1284 22.0096C56.9073 22.0213 56.7276 22.0881 56.6 22.2156L48.3256 30.4883C49.0726 29.9327 51.1656 30.9769 53.0892 32.8809C55.0089 34.7811 56.0208 36.8151 55.4735 37.5648C55.4713 37.5676 55.5207 37.6059 55.5188 37.6087L63.7933 29.336C64.4736 28.6559 63.4165 26.5075 61.4311 24.5423C59.8179 22.9456 58.0861 21.9586 57.1284 22.0096Z" fill="url(#paint22_linear)" stroke="#555761" stroke-width="0.5" stroke-linejoin="round"/>
<path opacity="0.9" d="M53.3301 25.4851C54.0764 24.928 56.1704 25.9731 58.0947 27.8778C60.0144 29.778 61.026 31.8113 60.4786 32.561C60.4767 32.5638 60.5257 32.6027 60.5236 32.6055L63.7937 29.3365L63.8604 29.2698C63.8623 29.267 63.8133 29.2281 63.8155 29.2253C64.3628 28.4756 63.3513 26.4423 61.4316 24.5421C59.5073 22.6374 57.4132 21.5923 56.6669 22.1494L56.6002 22.2162L53.3301 25.4851H53.3301Z" fill="#FE9AB8" stroke="#DE3E80" stroke-width="0.5" stroke-linejoin="round"/>
<path d="M49.6647 29.1493C50.4111 28.5922 52.5051 29.6372 54.4294 31.542C56.3491 33.4422 57.3606 35.4754 56.8133 36.2251C56.8114 36.2279 56.8603 36.2668 56.8582 36.2696L57.1919 35.9361C57.1938 35.9332 57.1448 35.8944 57.1469 35.8916C57.6943 35.1419 56.6828 33.1086 54.7631 31.2084C52.8388 29.3036 50.7447 28.2586 49.9984 28.8157L49.6647 29.1493V29.1493V29.1493Z" fill="url(#paint23_linear)"/>
<path d="M49.3589 29.455C50.1052 28.8979 52.1992 29.9429 54.1235 31.8476C56.0432 33.7478 57.0548 35.7811 56.5074 36.5308C56.5055 36.5336 56.5545 36.5725 56.5524 36.5753L56.886 36.2417C56.8879 36.2389 56.839 36.2001 56.8411 36.1972C57.3885 35.4475 56.3769 33.4143 54.4572 31.5141C52.5329 29.6093 50.4389 28.5643 49.6926 29.1214L49.3589 29.455V29.455H49.3589Z" fill="url(#paint24_linear)"/>
<path d="M50.7274 28.087C51.4737 27.5299 53.5677 28.5749 55.492 30.4797C57.4117 32.3799 58.4233 34.4132 57.8759 35.1628C57.874 35.1657 57.923 35.2045 57.9208 35.2073L58.2545 34.8738C58.2564 34.871 58.2075 34.8321 58.2096 34.8293C58.7569 34.0796 57.7454 32.0463 55.8257 30.1461C53.9014 28.2414 51.8074 27.1963 51.0611 27.7534L50.7274 28.087H50.7274Z" fill="url(#paint25_linear)"/>
<path d="M50.4216 28.3927C51.1679 27.8356 53.2619 28.8806 55.1862 30.7853C57.1059 32.6855 58.1174 34.7188 57.5701 35.4685C57.5682 35.4713 57.6171 35.5102 57.615 35.513L57.9487 35.1794C57.9506 35.1766 57.9016 35.1378 57.9038 35.1349C58.4511 34.3853 57.4396 32.352 55.5199 30.4518C53.5956 28.547 51.5016 27.502 50.7552 28.0591L50.4216 28.3927L50.4216 28.3927Z" fill="url(#paint26_linear)"/>
<path d="M51.7951 27.0196C52.5414 26.4625 54.6354 27.5075 56.5597 29.4123C58.4794 31.3124 59.491 33.3457 58.9436 34.0954C58.9417 34.0982 58.9907 34.1371 58.9886 34.1399L59.3222 33.8063C59.3241 33.8035 59.2752 33.7647 59.2773 33.7618C59.8246 33.0122 58.8131 30.9789 56.8934 29.0787C54.9691 27.1739 52.8751 26.1289 52.1288 26.686L51.7951 27.0196Z" fill="url(#paint27_linear)"/>
<path d="M51.4893 27.3253C52.2356 26.7682 54.3297 27.8132 56.254 29.718C58.1737 31.6181 59.1852 33.6514 58.6379 34.4011C58.636 34.4039 58.6849 34.4428 58.6828 34.4456L59.0165 34.112C59.0184 34.1092 58.9694 34.0704 58.9715 34.0675C59.5189 33.3179 58.5074 31.2846 56.5877 29.3844C54.6634 27.4796 52.5693 26.4346 51.823 26.9917L51.4893 27.3253H51.4893Z" fill="url(#paint28_linear)"/>
<path fill-rule="evenodd" clip-rule="evenodd" d="M24.6705 61.1255L36.8607 56.1793L36.9646 56.076C37.5119 55.3263 36.4872 53.2929 34.5675 51.3927C32.6432 49.488 30.5517 48.4487 29.8054 49.0058L24.6705 61.1255H24.6705Z" fill="url(#paint29_linear)" stroke="url(#paint30_linear)" stroke-width="0.5"/>
<path fill-rule="evenodd" clip-rule="evenodd" d="M26.0613 57.8429L24.6697 61.1125L27.9946 59.7565C27.7281 59.439 27.4821 59.1165 27.1621 58.7998C26.7938 58.4352 26.4315 58.1393 26.0613 57.8429Z" fill="#333333" stroke="#1A1A1A" stroke-width="0.5"/>
</g>
<defs>
<linearGradient id="paint0_linear" x1="35.1715" y1="63.3347" x2="28.5166" y2="-0.3184" gradientUnits="userSpaceOnUse">
<stop stop-color="#EDEDED"/>
<stop offset="1" stop-color="white"/>
</linearGradient>
<linearGradient id="paint1_linear" x1="25.2547" y1="48.6239" x2="20.6514" y2="4.59364" gradientUnits="userSpaceOnUse">
<stop stop-color="#8C166C"/>
<stop offset="0.362069" stop-color="#CA3561"/>
<stop offset="1" stop-color="#F38F4E"/>
</linearGradient>
<linearGradient id="paint2_linear" x1="21.7142" y1="44.5949" x2="20.5258" y2="33.2283" gradientUnits="userSpaceOnUse">
<stop stop-color="#E28192"/>
<stop offset="0.258621" stop-color="#F7D6C7"/>
<stop offset="1" stop-color="#FFFEE4"/>
</linearGradient>
<linearGradient id="paint3_linear" x1="38.2837" y1="62.8535" x2="25.4043" y2="0.162791" gradientUnits="userSpaceOnUse">
<stop stop-color="#EDEDED"/>
<stop offset="1" stop-color="white"/>
</linearGradient>
<linearGradient id="paint4_linear" x1="26.969" y1="49.1887" x2="18.06" y2="5.82415" gradientUnits="userSpaceOnUse">
<stop stop-color="#8C166C"/>
<stop offset="0.362069" stop-color="#CA3561"/>
<stop offset="1" stop-color="#F38F4E"/>
</linearGradient>
<linearGradient id="paint5_linear" x1="23.0496" y1="45.5273" x2="20.7497" y2="34.3325" gradientUnits="userSpaceOnUse">
<stop stop-color="#E28192"/>
<stop offset="0.258621" stop-color="#F7D6C7"/>
<stop offset="1" stop-color="#FFFEE4"/>
</linearGradient>
<linearGradient id="paint6_linear" x1="42.2864" y1="61.7564" x2="21.4017" y2="1.25987" gradientUnits="userSpaceOnUse">
<stop stop-color="#EDEDED"/>
<stop offset="1" stop-color="white"/>
</linearGradient>
<linearGradient id="paint7_linear" x1="29.2983" y1="49.671" x2="14.8519" y2="7.82413" gradientUnits="userSpaceOnUse">
<stop stop-color="#8C166C"/>
<stop offset="0.362069" stop-color="#CA3561"/>
<stop offset="1" stop-color="#F38F4E"/>
</linearGradient>
<linearGradient id="paint8_linear" x1="24.9379" y1="46.5476" x2="21.2085" y2="35.7446" gradientUnits="userSpaceOnUse">
<stop stop-color="#E28192"/>
<stop offset="0.258621" stop-color="#F7D6C7"/>
<stop offset="1" stop-color="#FFFEE4"/>
</linearGradient>
<radialGradient id="paint9_radial" cx="0" cy="0" r="1" gradientUnits="userSpaceOnUse" gradientTransform="translate(54.0942 52.5) scale(7.90969 2.5)">
<stop stop-color="#181818"/>
<stop offset="1" stop-color="#181818" stop-opacity="0"/>
</radialGradient>
<radialGradient id="paint10_radial" cx="0" cy="0" r="1" gradientUnits="userSpaceOnUse" gradientTransform="translate(9.90578 52.5) rotate(180) scale(7.90969 2.5)">
<stop stop-color="#181818"/>
<stop offset="1" stop-color="#181818" stop-opacity="0"/>
</radialGradient>
<linearGradient id="paint11_linear" x1="33.6707" y1="55.0198" x2="33.6707" y2="49.9996" gradientUnits="userSpaceOnUse">
<stop stop-color="#181818" stop-opacity="0"/>
<stop offset="0.5" stop-color="#181818"/>
<stop offset="1" stop-color="#181818" stop-opacity="0"/>
</linearGradient>
<linearGradient id="paint12_linear" x1="32" y1="62.5" x2="32" y2="-1.5" gradientUnits="userSpaceOnUse">
<stop stop-color="#EDEDED"/>
<stop offset="1" stop-color="white"/>
</linearGradient>
<linearGradient id="paint13_linear" x1="23.6667" y1="46.8378" x2="23.6667" y2="2.56757" gradientUnits="userSpaceOnUse">
<stop stop-color="#8C166C"/>
<stop offset="0.362069" stop-color="#CA3561"/>
<stop offset="1" stop-color="#F38F4E"/>
</linearGradient>
<linearGradient id="paint14_linear" x1="20.5643" y1="42.4625" x2="20.5643" y2="31.034" gradientUnits="userSpaceOnUse">
<stop stop-color="#E28192"/>
<stop offset="0.258621" stop-color="#F7D6C7"/>
<stop offset="1" stop-color="#FFFEE4"/>
</linearGradient>
<linearGradient id="paint15_linear" x1="5.25001" y1="43.608" x2="1.75" y2="43.608" gradientUnits="userSpaceOnUse">
<stop stop-opacity="0"/>
<stop offset="0.5"/>
<stop offset="1" stop-opacity="0"/>
</linearGradient>
<radialGradient id="paint16_radial" cx="0" cy="0" r="1" gradientUnits="userSpaceOnUse" gradientTransform="translate(3.52064 54.9387) rotate(90) scale(2.46996 1.68824)">
<stop/>
<stop offset="1" stop-opacity="0"/>
</radialGradient>
<radialGradient id="paint17_radial" cx="0" cy="0" r="1" gradientUnits="userSpaceOnUse" gradientTransform="translate(3.52057 25.0599) rotate(-90) scale(2.46996 1.68824)">
<stop/>
<stop offset="1" stop-opacity="0"/>
</radialGradient>
<radialGradient id="paint18_radial" cx="0" cy="0" r="1" gradientUnits="userSpaceOnUse" gradientTransform="translate(6.7951 49.3023) rotate(90) scale(4.72319 3.01354)">
<stop/>
<stop offset="1" stop-opacity="0"/>
</radialGradient>
<linearGradient id="paint19_linear" x1="37.129" y1="50.2861" x2="3.49781" y2="41.3922" gradientUnits="userSpaceOnUse">
<stop stop-color="#FCFCFC"/>
<stop offset="1" stop-color="#CBCDD9"/>
</linearGradient>
<linearGradient id="paint20_linear" x1="35" y1="45.2493" x2="5.25" y2="45.2493" gradientUnits="userSpaceOnUse">
<stop stop-color="white"/>
<stop offset="1" stop-color="white" stop-opacity="0"/>
</linearGradient>
<linearGradient id="paint21_linear" x1="43.4579" y1="35.37" x2="50.6166" y2="42.5311" gradientUnits="userSpaceOnUse">
<stop stop-color="#AD5F00"/>
<stop offset="0.134829" stop-color="#FFE16B"/>
<stop offset="0.202244" stop-color="#F9C440"/>
<stop offset="0.269659" stop-color="#FFF394"/>
<stop offset="0.446503" stop-color="#F9C440"/>
<stop offset="0.571141" stop-color="#F9C440"/>
<stop offset="0.720381" stop-color="#FFE16B"/>
<stop offset="1" stop-color="#AD5F00"/>
</linearGradient>
<linearGradient id="paint22_linear" x1="43.4579" y1="35.3699" x2="50.6166" y2="42.5311" gradientUnits="userSpaceOnUse">
<stop stop-color="#555761"/>
<stop offset="0.134829" stop-color="#D4D4D4"/>
<stop offset="0.202244" stop-color="#ABACAE"/>
<stop offset="0.269659" stop-color="#FAFAFA"/>
<stop offset="0.446503" stop-color="#ABACAE"/>
<stop offset="0.571141" stop-color="#ABACAE"/>
<stop offset="0.720381" stop-color="#D4D4D4"/>
<stop offset="1" stop-color="#555761"/>
</linearGradient>
<linearGradient id="paint23_linear" x1="50.3792" y1="28.3159" x2="57.55" y2="35.4891" gradientUnits="userSpaceOnUse">
<stop stop-color="#555761"/>
<stop offset="0.5" stop-color="#ABACAE"/>
<stop offset="1" stop-color="#555761"/>
</linearGradient>
<linearGradient id="paint24_linear" x1="50.0734" y1="28.6215" x2="57.2441" y2="35.7948" gradientUnits="userSpaceOnUse">
<stop stop-color="#ABACAE"/>
<stop offset="0.5" stop-color="#FAFAFA"/>
<stop offset="1" stop-color="#ABACAE"/>
</linearGradient>
<linearGradient id="paint25_linear" x1="51.4418" y1="27.2536" x2="58.6126" y2="34.4268" gradientUnits="userSpaceOnUse">
<stop stop-color="#555761"/>
<stop offset="0.5" stop-color="#ABACAE"/>
<stop offset="1" stop-color="#555761"/>
</linearGradient>
<linearGradient id="paint26_linear" x1="51.136" y1="27.5592" x2="58.3068" y2="34.7325" gradientUnits="userSpaceOnUse">
<stop stop-color="#ABACAE"/>
<stop offset="0.5" stop-color="#FAFAFA"/>
<stop offset="1" stop-color="#ABACAE"/>
</linearGradient>
<linearGradient id="paint27_linear" x1="52.5095" y1="26.1862" x2="59.6803" y2="33.3594" gradientUnits="userSpaceOnUse">
<stop stop-color="#555761"/>
<stop offset="0.5" stop-color="#ABACAE"/>
<stop offset="1" stop-color="#555761"/>
</linearGradient>
<linearGradient id="paint28_linear" x1="52.2038" y1="26.4918" x2="59.3746" y2="33.6651" gradientUnits="userSpaceOnUse">
<stop stop-color="#ABACAE"/>
<stop offset="0.5" stop-color="#FAFAFA"/>
<stop offset="1" stop-color="#ABACAE"/>
</linearGradient>
<linearGradient id="paint29_linear" x1="33.3611" y1="56.9694" x2="29.029" y2="52.6358" gradientUnits="userSpaceOnUse">
<stop stop-color="#FFF394"/>
<stop offset="1" stop-color="#FAFAFA"/>
</linearGradient>
<linearGradient id="paint30_linear" x1="27.4744" y1="54.2048" x2="31.3654" y2="58.1383" gradientUnits="userSpaceOnUse">
<stop stop-color="#D48E15"/>
<stop offset="1" stop-color="#AD5F00"/>
</linearGradient>
<clipPath id="clip0">
<rect width="64" height="64" fill="white"/>
</clipPath>
</defs>
</svg>
