<?xml version="1.0" encoding="UTF-8" standalone="no"?>
<svg
   width="128"
   height="128"
   viewBox="0 0 128 128"
   fill="none"
   version="1.1"
   id="svg180"
   sodipodi:docname="application-com.github.phase1geo.annotator.svg"
   inkscape:version="1.4.3 (0d15f75042, 2025-12-25)"
   xmlns:inkscape="http://www.inkscape.org/namespaces/inkscape"
   xmlns:sodipodi="http://sodipodi.sourceforge.net/DTD/sodipodi-0.dtd"
   xmlns:xlink="http://www.w3.org/1999/xlink"
   xmlns="http://www.w3.org/2000/svg"
   xmlns:svg="http://www.w3.org/2000/svg">
  <sodipodi:namedview
     id="namedview180"
     pagecolor="#ffffff"
     bordercolor="#000000"
     borderopacity="0.25"
     inkscape:showpageshadow="2"
     inkscape:pageopacity="0.0"
     inkscape:pagecheckerboard="0"
     inkscape:deskcolor="#d1d1d1"
     inkscape:zoom="6.8984375"
     inkscape:cx="63.92752"
     inkscape:cy="64"
     inkscape:window-width="1920"
     inkscape:window-height="1138"
     inkscape:window-x="0"
     inkscape:window-y="30"
     inkscape:window-maximized="1"
     inkscape:current-layer="svg180" />
  <g
     inkscape:groupmode="layer"
     id="layer1"
     inkscape:label="Rectangle">
    <rect
       style="display:inline;fill:url(#linearGradient2);stroke:#313131;stroke-width:0.935414;stroke-opacity:1"
       id="rect1-3"
       width="94.369202"
       height="126.26048"
       x="16.815399"
       y="0.63644767" />
  </g>
  <g
     clip-path="url(#clip0)"
     id="g105"
     transform="matrix(0.50169862,0,0,0.50169862,31.782577,14.235554)">
    <path
       opacity="0.6"
       d="m 128.299,91.5994 -15.646,2.1245 1.345,9.9091 15.646,-2.125 z"
       fill="url(#paint0_radial)"
       id="path1"
       style="fill:url(#paint0_radial)" />
    <path
       opacity="0.6"
       d="M 10.7351,117.655 26.381,115.53 25.0354,105.621 9.38953,107.746 Z"
       fill="url(#paint1_radial)"
       id="path2"
       style="fill:url(#paint1_radial)" />
    <path
       opacity="0.6"
       d="m 112.653,93.7239 -87.6176,11.8971 1.3455,9.909 87.6171,-11.897 z"
       fill="url(#paint2_linear)"
       id="path3"
       style="fill:url(#paint2_linear)" />
    <path
       opacity="0.35"
       d="m 122.89,96.3644 -11.57,-85.212 c 0,0 -71.3457,9.6879 -107.01836,14.5318 3.8572,28.406 11.57166,85.2178 11.57166,85.2178 z"
       stroke="#000000"
       stroke-width="2"
       stroke-linejoin="round"
       id="path4" />
    <path
       d="m 122.89,96.3644 -11.57,-85.212 c 0,0 -71.3457,9.6879 -107.01836,14.5318 3.8572,28.406 11.57166,85.2178 11.57166,85.2178 z"
       fill="url(#paint3_linear)"
       id="path5"
       style="fill:url(#paint3_linear)" />
    <path
       opacity="0.4"
       d="m 122.89,96.3644 -11.57,-85.212 c 0,0 -71.3457,9.6879 -107.01836,14.5318 3.8572,28.406 11.57166,85.2178 11.57166,85.2178 z"
       stroke="#ffffff"
       stroke-width="2"
       stroke-linejoin="round"
       id="path6" />
    <path
       opacity="0.4"
       d="M 4.30164,25.6842 4.57074,27.666 111.589,13.1342 111.32,11.1524 Z"
       fill="#ffffff"
       id="path7" />
    <path
       d="M 19.2987,106.4 8.80347,29.1096 107.894,15.6543 118.389,92.9449 Z"
       fill="url(#paint4_linear)"
       id="path8"
       style="fill:url(#paint4_linear)" />
    <path
       opacity="0.1"
       d="m 35.336,31.2735 c -7.7845,1.0571 -13.2907,8.2935 -12.2336,16.078 1.057,7.7845 8.2935,13.2907 16.078,12.2337 C 46.9649,58.5281 52.471,51.2916 51.414,43.5071 50.3569,35.7226 43.1205,30.2165 35.336,31.2735 Z m 0.7689,5.6624 c 4.7243,-0.6416 9.0052,2.6158 9.6468,7.3401 0.6415,4.7244 -2.6159,9.0053 -7.3402,9.6468 -4.7244,0.6415 -9.0053,-2.6158 -9.6468,-7.3401 -0.6415,-4.7244 2.6158,-9.0053 7.3402,-9.6468 z"
       fill="#fed8cd"
       id="path9" />
    <path
       opacity="0.1"
       d="M 34.9516,28.4424 C 25.637,29.7072 19.0064,38.4214 20.2712,47.736 21.536,57.0506 30.2503,63.6811 39.5648,62.4163 48.8794,61.1515 55.51,52.4373 54.2452,43.1227 52.9804,33.8081 44.2661,27.1776 34.9516,28.4424 Z m 1.5377,11.3246 c 3.1943,-0.4337 5.9975,1.6992 6.4312,4.8935 0.4338,3.1943 -1.6991,5.9974 -4.8934,6.4312 -3.1943,0.4337 -5.9975,-1.6992 -6.4312,-4.8935 -0.4338,-3.1943 1.6991,-5.9974 4.8934,-6.4312 z"
       fill="#fed8cd"
       id="path10" />
    <path
       opacity="0.1"
       d="M 34.567,25.6112 C 23.7224,27.0838 15.9674,37.2758 17.44,48.1204 18.9126,58.9651 29.1045,66.7201 39.9492,65.2475 50.7938,63.7749 58.5488,53.5829 57.0762,42.7383 55.6036,31.8936 45.4117,24.1387 34.567,25.6112 Z m 2.3067,16.987 c 1.6642,-0.226 2.9896,0.7825 3.2156,2.4467 0.2259,1.6642 -0.7826,2.9896 -2.4468,3.2156 -1.6642,0.226 -2.9896,-0.7825 -3.2156,-2.4467 -0.2259,-1.6642 0.7825,-2.9896 2.4468,-3.2156 z"
       fill="#fed8cd"
       id="path11" />
    <path
       fill-rule="evenodd"
       clip-rule="evenodd"
       d="m 35.7205,34.1048 c 6.2544,-0.8493 12.0131,3.5324 12.8624,9.7869 0.8493,6.2544 -3.5324,12.0131 -9.7869,12.8624 -6.2544,0.8492 -12.0131,-3.5325 -12.8624,-9.7869 -0.8492,-6.2545 3.5325,-12.0132 9.7869,-12.8624 z"
       fill="#fce94f"
       id="path12" />
    <path
       fill-rule="evenodd"
       clip-rule="evenodd"
       d="M 33.3435,38.8967 C 41.0052,37.8563 48.0596,43.2239 49.1,50.8856 50.1403,58.5473 44.7727,65.6017 37.111,66.6421 29.4493,67.6824 22.3949,62.3148 21.3546,54.6531 20.3142,46.9914 25.6818,39.937 33.3435,38.8967 Z"
       fill="#fce94f"
       id="path13" />
    <path
       d="m 17.6072,93.9433 -0.3845,-2.8312 c 0,0 6.505,-5.6887 8.4581,-6.3732 1.9531,-0.6844 4.3711,-0.6714 6.8718,-0.5424 2.5006,0.1276 6.2251,0.2536 7.3664,0.1381 1.1415,-0.1146 3.1786,-0.5325 5.5478,-1.0013 2.3695,-0.4659 6.3071,-1.1332 7.5427,-1.2866 1.2337,-0.1675 4.3366,-0.4159 7.6467,-0.6612 3.3103,-0.2448 7.865,-0.5213 8.9009,-0.5662 1.0358,-0.0455 2.2618,-0.0361 3.6521,-0.0332 1.3901,0.0016 3.7912,-0.037 4.6375,-0.0729 0.8462,-0.0371 2.8202,-0.0338 5.0966,-0.1321 2.2764,-0.0986 5.884,-0.5164 6.9127,-0.734 1.0287,-0.2175 3.1021,-1.2827 5.4329,-2.3215 2.3309,-1.0385 4.9191,-2.0511 6.9761,-2.167 2.058,-0.115 14.048,2.2978 14.048,2.2978 l 0.385,2.8312 -14.864,2.0183 -12.0323,1.6339 -12.0324,1.6338 -12.0324,1.6339 -12.0325,1.6339 -12.0324,1.6338 -12.0324,1.6339 z"
       fill="#000000"
       id="path14" />
    <path
       opacity="0.9"
       d="m 17.6072,93.9433 0.2508,1.8473 c 0,0 7.5637,2.108 9.6092,2.1039 2.0455,-0.0038 4.3883,-0.544 6.7859,-1.1752 2.3976,-0.6303 5.9829,-1.5295 7.1156,-1.709 1.1322,-0.1826 3.2009,-0.3683 5.6023,-0.5992 2.4015,-0.231 6.3683,-0.6831 7.6004,-0.862 1.2337,-0.1675 4.2985,-0.6961 7.5638,-1.2721 3.2653,-0.576 7.7445,-1.4083 8.7593,-1.6084 1.0146,-0.2012 2.2023,-0.4749 3.5502,-0.7842 1.3482,-0.3071 3.6859,-0.8119 4.5148,-0.9761 0.8289,-0.1645 2.7433,-0.6003 4.9732,-1.0409 2.2299,-0.4412 5.8217,-0.9751 6.8677,-1.0652 1.046,-0.0901 3.292,0.1152 5.7819,0.2483 2.4899,0.133 5.2237,0.1932 7.2447,-0.188 2.022,-0.3812 13.122,-4.5256 13.122,-4.5256 l -0.251,-1.847 -14.864,2.0183 -12.0319,1.6338 -12.0325,1.6339 -12.0324,1.6339 -12.0325,1.6338 -12.0324,1.6339 -12.0324,1.6339 z"
       fill="#000000"
       id="path15" />
    <path
       opacity="0.3"
       d="m 17.6072,93.9432 99.0908,-13.4554 1.153,8.4935 -99.0905,13.4557 z"
       fill="#4d585e"
       id="path16" />
    <path
       opacity="0.2"
       d="M 19.2987,106.4 8.80347,29.1096 107.894,15.6543 118.389,92.9449 Z"
       stroke="#000000"
       stroke-width="2"
       id="path17" />
    <path
       opacity="0.6"
       d="m 131.756,81.4678 -14.823,4.3929 2.841,9.5878 14.824,-4.3929 z"
       fill="url(#paint5_radial)"
       id="path18"
       style="fill:url(#paint5_radial)" />
    <path
       opacity="0.6"
       d="m 21.9413,124.442 14.8232,-4.393 -2.8414,-9.588 -14.8232,4.393 z"
       fill="url(#paint6_radial)"
       id="path19"
       style="fill:url(#paint6_radial)" />
    <path
       opacity="0.6"
       d="m 116.933,85.8607 -83.0099,24.6003 2.8414,9.588 83.0095,-24.6005 z"
       fill="url(#paint7_linear)"
       id="path20"
       style="fill:url(#paint7_linear)" />
    <path
       opacity="0.35"
       d="M 127.258,86.9665 102.824,4.51692 c 0,0 -67.5938,20.03168 -101.39065,30.04748 C 9.57868,62.0495 25.8694,117.02 25.8694,117.02 Z"
       stroke="#000000"
       stroke-width="2"
       stroke-linejoin="round"
       id="path21" />
    <path
       d="M 127.258,86.9665 102.824,4.51692 c 0,0 -67.5938,20.03168 -101.39065,30.04748 C 9.57868,62.0495 25.8694,117.02 25.8694,117.02 Z"
       fill="url(#paint8_linear)"
       id="path22"
       style="fill:url(#paint8_linear)" />
    <path
       opacity="0.4"
       d="M 127.258,86.9665 102.824,4.51692 c 0,0 -67.5938,20.03168 -101.39065,30.04748 C 9.57868,62.0495 25.8694,117.02 25.8694,117.02 Z"
       stroke="#ffffff"
       stroke-width="2"
       stroke-linejoin="round"
       id="path23" />
    <path
       opacity="0.4"
       d="M 1.43335,34.5644 2.00163,36.482 103.392,6.43448 102.824,4.51692 Z"
       fill="#ffffff"
       id="path24" />
    <path
       d="M 28.4881,112.072 6.3252,37.2867 100.205,9.46495 122.368,84.25 Z"
       fill="url(#paint9_linear)"
       id="path25"
       style="fill:url(#paint9_linear)" />
    <path
       opacity="0.1"
       d="m 32.3577,35.5318 c -7.3751,2.1856 -11.5845,10.1393 -9.3523,17.6714 2.2322,7.5322 10.0954,11.908 17.4706,9.7224 C 47.8512,60.7399 52.0605,52.7863 49.8283,45.2541 47.5961,37.722 39.7329,33.3461 32.3577,35.5318 Z m 1.6237,5.4787 c 4.4759,-1.3264 9.1276,1.2622 10.4823,5.8334 1.3547,4.5713 -1.1354,9.2765 -5.6114,10.6029 -4.4759,1.3265 -9.1276,-1.2622 -10.4823,-5.8334 -1.3547,-4.5712 1.1354,-9.2764 5.6114,-10.6029 z"
       fill="#fed8cd"
       id="path26" />
    <path
       opacity="0.1"
       d="M 31.5459,32.7924 C 22.7211,35.4076 17.6522,44.9855 20.3231,53.9981 22.994,63.0107 32.463,68.2802 41.2878,65.6649 50.1126,63.0497 55.1815,53.4718 52.5106,44.4592 49.8396,35.4466 40.3706,30.1771 31.5459,32.7924 Z m 3.2473,10.9575 c 3.0263,-0.8969 6.0723,0.7982 6.9882,3.8889 0.916,3.0908 -0.7146,6.1718 -3.7409,7.0686 -3.0263,0.8969 -6.0723,-0.7982 -6.9882,-3.8889 -0.916,-3.0908 0.7146,-6.1717 3.7409,-7.0686 z"
       fill="#fed8cd"
       id="path27" />
    <path
       opacity="0.1"
       d="M 30.7339,30.053 C 20.4595,33.0979 14.531,44.3 17.6407,54.7931 20.7503,65.2861 31.8251,71.4492 42.0995,68.4044 52.3739,65.3595 58.3024,54.1574 55.1927,43.6644 52.083,33.1713 41.0083,27.0082 30.7339,30.053 Z m 4.871,16.4363 c 1.5767,-0.4672 3.0169,0.3342 3.4941,1.9445 0.4772,1.6103 -0.2938,3.067 -1.8705,3.5343 -1.5767,0.4673 -3.0169,-0.3342 -3.4941,-1.9445 -0.4772,-1.6102 0.2938,-3.067 1.8705,-3.5343 z"
       fill="#fed8cd"
       id="path28" />
    <path
       fill-rule="evenodd"
       clip-rule="evenodd"
       d="m 33.1696,38.2712 c 5.9255,-1.7561 12.183,1.7262 13.9764,7.7779 1.7935,6.0517 -1.5563,12.3811 -7.4818,14.1372 -5.9256,1.756 -12.183,-1.7263 -13.9765,-7.7779 -1.7934,-6.0517 1.5563,-12.3811 7.4819,-14.1372 z"
       fill="#fce94f"
       id="path29" />
    <path
       fill-rule="evenodd"
       clip-rule="evenodd"
       d="m 31.6113,43.3519 c 7.2588,-2.1512 14.9242,2.1146 17.1212,9.5279 2.197,7.4133 -1.9065,15.1668 -9.1652,17.318 -7.2588,2.1512 -14.9242,-2.1146 -17.1212,-9.5279 -2.197,-7.4133 1.9064,-15.1669 9.1652,-17.318 z"
       fill="#fce94f"
       id="path30" />
    <path
       d="m 24.9161,100.019 -0.8119,-2.7398 c 0,0 5.417,-6.5718 7.2023,-7.5342 1.7853,-0.9623 4.1291,-1.3041 6.5711,-1.5436 2.4416,-0.2408 6.0683,-0.6627 7.1558,-0.9441 1.0877,-0.2807 2.9958,-0.9921 5.2175,-1.8025 2.2226,-0.8077 5.9325,-2.0442 7.1054,-2.3769 1.1688,-0.3464 4.1354,-1.0468 7.3032,-1.7746 3.1679,-0.7272 7.5363,-1.6684 8.5325,-1.8647 0.9961,-0.1968 2.185,-0.3674 3.5319,-0.5684 1.3466,-0.2024 3.666,-0.5926 4.4801,-0.7523 0.8138,-0.1607 2.7261,-0.447 4.9155,-0.878 2.1894,-0.4313 5.6185,-1.373 6.581,-1.7387 0.9625,-0.3657 2.8053,-1.7218 4.9014,-3.0895 2.0962,-1.3674 4.4451,-2.7469 6.4201,-3.1632 1.975,-0.4154 13.962,0.2086 13.962,0.2086 l 0.812,2.7394 -14.082,4.1733 -11.3997,3.3783 -11.3997,3.3784 -11.3997,3.3783 -11.3998,3.3784 -11.3997,3.3783 -11.3997,3.3784 z"
       fill="#000000"
       id="path31" />
    <path
       opacity="0.9"
       d="m 24.916,100.019 0.5297,1.787 c 0,0 7.6527,0.972 9.633,0.668 1.9805,-0.304 4.1657,-1.181 6.3897,-2.156 2.2243,-0.9739 5.557,-2.3877 6.6261,-2.7311 1.0683,-0.3464 3.0429,-0.8332 5.3329,-1.4135 2.2899,-0.5803 6.0615,-1.6086 7.2271,-1.966 1.1688,-0.3463 4.055,-1.3179 7.128,-2.3657 3.073,-1.0477 7.282,-2.5266 8.2337,-2.873 0.9514,-0.3476 2.0591,-0.7921 3.3166,-1.2952 1.258,-0.501 3.4437,-1.3424 4.2211,-1.6261 0.7772,-0.284 2.5636,-0.9952 4.6549,-1.7574 2.0911,-0.7628 5.4869,-1.8168 6.486,-2.0592 0.999,-0.2425 3.2061,-0.3691 5.6382,-0.6029 2.432,-0.2339 5.089,-0.5755 6.988,-1.2484 1.898,-0.6729 12.005,-6.3937 12.005,-6.3937 l -0.529,-1.7871 -14.082,4.1732 -11.4001,3.3784 -11.3997,3.3784 -11.3997,3.3783 -11.3998,3.3784 -11.3997,3.3783 -11.3997,3.3784 z"
       fill="#000000"
       id="path32" />
    <path
       opacity="0.3"
       d="m 24.916,100.018 93.88,-27.8213 2.436,8.2182 -93.8805,27.8221 z"
       fill="#4d585e"
       id="path33" />
    <path
       opacity="0.2"
       d="M 28.4881,112.072 6.3252,37.2867 100.205,9.46495 122.368,84.25 Z"
       stroke="#000000"
       stroke-width="2"
       id="path34" />
    <path
       opacity="0.6"
       d="m 129.605,88.3307 -15.519,2.9088 1.842,9.8285 15.519,-2.9084 z"
       fill="url(#paint10_radial)"
       id="path35"
       style="fill:url(#paint10_radial)" />
    <path
       opacity="0.6"
       d="m 13.501,120.266 15.5193,-2.909 -1.8422,-9.829 -15.5193,2.909 z"
       fill="url(#paint11_radial)"
       id="path36"
       style="fill:url(#paint11_radial)" />
    <path
       opacity="0.6"
       d="m 114.086,91.2395 -86.9079,16.2885 1.8422,9.829 86.9077,-16.289 z"
       fill="url(#paint12_linear)"
       id="path37"
       style="fill:url(#paint12_linear)" />
    <path
       opacity="0.35"
       d="M 124.444,93.3618 108.602,8.8395 c 0,0 -70.7678,13.2637 -106.15168,19.8956 5.28093,28.176 15.84278,84.5279 15.84278,84.5279 z"
       stroke="#000000"
       stroke-width="2"
       stroke-linejoin="round"
       id="path38" />
    <path
       d="M 124.444,93.3618 108.602,8.8395 c 0,0 -70.7678,13.2637 -106.15168,19.8956 5.28093,28.176 15.84278,84.5279 15.84278,84.5279 z"
       fill="url(#paint13_linear)"
       id="path39"
       style="fill:url(#paint13_linear)" />
    <path
       opacity="0.4"
       d="M 124.444,93.3618 108.602,8.8395 c 0,0 -70.7678,13.2637 -106.15168,19.8956 5.28093,28.176 15.84278,84.5279 15.84278,84.5279 z"
       stroke="#ffffff"
       stroke-width="2"
       stroke-linejoin="round"
       id="path40" />
    <path
       opacity="0.4"
       d="M 2.45032,28.7351 2.81875,30.7009 108.97,10.8053 108.602,8.8395 Z"
       fill="#ffffff"
       id="path41" />
    <path
       d="M 21.4877,108.595 7.11865,31.9297 105.407,13.5079 l 14.369,76.665 z"
       fill="url(#paint14_linear)"
       id="path42"
       style="fill:url(#paint14_linear)" />
    <path
       opacity="0.1"
       d="M 33.7265,32.7566 C 26.005,34.2038 20.8698,41.708 22.317,49.4295 23.7642,57.1509 31.2684,62.2862 38.9899,60.839 46.7114,59.3918 51.8466,51.8876 50.3994,44.1661 48.9522,36.4446 41.448,31.3093 33.7265,32.7566 Z m 1.0527,5.6164 c 4.6861,-0.8783 9.1254,2.1596 10.0037,6.8457 0.8783,4.6862 -2.1596,9.1255 -6.8457,10.0038 -4.6861,0.8783 -9.1254,-2.1596 -10.0037,-6.8457 -0.8783,-4.6861 2.1596,-9.1255 6.8457,-10.0038 z"
       fill="#fed8cd"
       id="path43" />
    <path
       opacity="0.1"
       d="M 33.2,29.9483 C 23.9609,31.68 17.777,40.7166 19.5086,49.9558 21.2403,59.195 30.2769,65.3789 39.5161,63.6472 48.7553,61.9156 54.9392,52.8789 53.2075,43.6397 51.4759,34.4006 42.4392,28.2167 33.2,29.9483 Z m 2.1054,11.233 c 3.1684,-0.5938 6.0753,1.3954 6.6692,4.5638 0.5938,3.1684 -1.3954,6.0753 -4.5638,6.6692 -3.1685,0.5938 -6.0754,-1.3954 -6.6692,-4.5638 -0.5939,-3.1685 1.3954,-6.0754 4.5638,-6.6692 z"
       fill="#fed8cd"
       id="path44" />
    <path
       opacity="0.1"
       d="M 32.6737,27.1401 C 21.9168,29.1562 14.6842,39.7253 16.7004,50.4821 18.7165,61.239 29.2856,68.4716 40.0424,66.4555 50.7993,64.4394 58.0319,53.8703 56.0158,43.1134 53.9997,32.3565 43.4306,25.1239 32.6737,27.1401 Z m 3.158,16.8494 c 1.6508,-0.3094 3.0252,0.6312 3.3346,2.2819 0.3094,1.6508 -0.6312,3.0252 -2.2819,3.3346 -1.6507,0.3094 -3.0252,-0.6312 -3.3346,-2.2819 -0.3094,-1.6507 0.6312,-3.0252 2.2819,-3.3346 z"
       fill="#fed8cd"
       id="path45" />
    <path
       fill-rule="evenodd"
       clip-rule="evenodd"
       d="m 34.2529,35.5649 c 6.2038,-1.1628 12.1755,2.9238 13.3383,9.1276 1.1628,6.2038 -2.9238,12.1756 -9.1276,13.3383 C 32.2598,59.1936 26.288,55.107 25.1253,48.9032 23.9625,42.6994 28.0491,36.7276 34.2529,35.5649 Z"
       fill="#fce94f"
       id="path46" />
    <path
       fill-rule="evenodd"
       clip-rule="evenodd"
       d="M 32.1199,40.4702 C 39.7195,39.0458 47.035,44.0519 48.4593,51.6516 49.8837,59.2512 44.8777,66.5666 37.278,67.991 29.6783,69.4154 22.3629,64.4093 20.9386,56.8097 19.5142,49.21 24.5202,41.8946 32.1199,40.4702 Z"
       fill="#fce94f"
       id="path47" />
    <path
       d="m 19.1719,96.2386 -0.5263,-2.8083 c 0,0 6.2106,-6.0086 8.1268,-6.7904 1.9162,-0.7818 4.3318,-0.8904 6.8358,-0.8874 2.5039,0.0017 6.23,-0.0598 7.3641,-0.2325 1.1342,-0.1719 3.1477,-0.6918 5.4903,-1.2791 2.3431,-0.5845 6.2422,-1.449 7.4685,-1.6643 1.2237,-0.2293 4.3102,-0.6334 7.6038,-1.0449 3.2938,-0.411 7.8289,-0.9162 8.8611,-1.0132 1.0322,-0.0975 2.2572,-0.1498 3.6459,-0.2167 1.3884,-0.0684 3.7845,-0.2277 4.628,-0.3061 0.8432,-0.0796 2.8148,-0.1756 5.0834,-0.3883 2.2686,-0.213 5.8506,-0.8117 6.8671,-1.0807 1.0164,-0.269 3.0337,-1.4371 5.3093,-2.5918 2.2756,-1.1544 4.8093,-2.2959 6.8583,-2.5151 2.05,-0.2184 14.146,1.5884 14.146,1.5884 l 0.526,2.8082 -14.743,2.7633 -11.9349,2.237 -11.9351,2.2369 -11.935,2.2369 -11.935,2.237 -11.9351,2.2369 -11.935,2.237 z"
       fill="#000000"
       id="path48" />
    <path
       opacity="0.9"
       d="m 19.1719,96.2386 0.3434,1.8324 c 0,0 7.6601,1.7249 9.7028,1.6179 2.0427,-0.1067 4.3555,-0.764 6.7182,-1.5149 2.363,-0.7502 5.8984,-1.8285 7.0207,-2.0647 1.1216,-0.2393 3.1783,-0.5288 5.5651,-0.8803 2.3868,-0.3514 6.3258,-1.0025 7.5474,-1.243 1.2237,-0.2294 4.2581,-0.9115 7.4902,-1.651 3.2322,-0.7395 7.664,-1.796 8.6674,-2.0469 1.0032,-0.2519 2.1756,-0.585 3.5062,-0.9618 1.3311,-0.3744 3.6404,-0.9962 4.4601,-1.2019 0.8195,-0.2059 2.7095,-0.7375 4.9145,-1.2897 2.2049,-0.5528 5.7653,-1.2666 6.8054,-1.4092 1.0402,-0.1426 3.2937,-0.0505 5.7871,-0.0428 2.4936,0.0076 5.2266,-0.0698 7.2266,-0.5522 2,-0.4823 12.877,-5.1797 12.877,-5.1797 l -0.343,-1.8321 -14.744,2.7633 -11.9345,2.2369 -11.9351,2.237 -11.935,2.2369 -11.9351,2.2369 -11.935,2.237 -11.935,2.2369 z"
       fill="#000000"
       id="path49" />
    <path
       opacity="0.3"
       d="M 19.1719,96.2385 117.46,77.8167 119.039,86.2414 20.7509,104.663 Z"
       fill="#4d585e"
       id="path50" />
    <path
       opacity="0.2"
       d="M 21.4877,108.595 7.11865,31.9297 105.407,13.5079 l 14.369,76.665 z"
       stroke="#000000"
       stroke-width="2"
       id="path51" />
    <path
       opacity="0.6"
       d="m 125.68,97.0404 -15.771,0.7677 0.486,9.9879 15.771,-0.767 z"
       fill="url(#paint15_radial)"
       id="path52"
       style="fill:url(#paint15_radial)" />
    <path
       opacity="0.6"
       d="M 6.30729,112.863 22.0781,112.095 21.592,102.107 5.82113,102.874 Z"
       fill="url(#paint16_radial)"
       id="path53"
       style="fill:url(#paint16_radial)" />
    <path
       opacity="0.6"
       d="m 109.909,97.8081 -88.317,4.2989 0.4862,9.988 88.3168,-4.299 z"
       fill="url(#paint17_linear)"
       id="path54"
       style="fill:url(#paint17_linear)" />
    <path
       opacity="0.35"
       d="M 119.881,101.321 115.7,15.4291 c 0,0 -71.9149,3.5004 -107.87236,5.2506 1.39368,28.6328 4.18106,85.8983 4.18106,85.8983 z"
       stroke="#000000"
       stroke-width="2"
       stroke-linejoin="round"
       id="path55" />
    <path
       d="M 119.881,101.321 115.7,15.4291 c 0,0 -71.9149,3.5004 -107.87236,5.2506 1.39368,28.6328 4.18106,85.8983 4.18106,85.8983 z"
       fill="url(#paint18_linear)"
       id="path56"
       style="fill:url(#paint18_linear)" />
    <path
       opacity="0.4"
       d="M 119.881,101.321 115.7,15.4291 c 0,0 -71.9149,3.5004 -107.87236,5.2506 1.39368,28.6328 4.18106,85.8983 4.18106,85.8983 z"
       stroke="#ffffff"
       stroke-width="2"
       stroke-linejoin="round"
       id="path57" />
    <path
       opacity="0.4"
       d="M 7.82764,20.6797 7.92487,22.6774 115.797,17.4267 115.7,15.4291 Z"
       fill="#ffffff"
       id="path58" />
    <path
       d="m 15.8095,102.388 -3.7922,-77.9075 99.8817,-4.8617 3.792,77.9078 z"
       fill="url(#paint19_linear)"
       id="path59"
       style="fill:url(#paint19_linear)" />
    <path
       opacity="0.1"
       d="M 38.2645,28.924 C 30.4179,29.306 24.3083,36.0407 24.6903,43.8874 25.0722,51.734 31.8069,57.8436 39.6536,57.4617 47.5003,57.0797 53.6098,50.345 53.2279,42.4983 52.846,34.6517 46.1112,28.5421 38.2645,28.924 Z m 0.2779,5.7076 c 4.762,-0.2318 8.7462,3.3825 8.978,8.1445 0.2318,4.7621 -3.3825,8.7463 -8.1446,8.978 -4.7621,0.2318 -8.7462,-3.3825 -8.978,-8.1445 -0.2318,-4.7621 3.3825,-8.7462 8.1446,-8.978 z"
       fill="#fed8cd"
       id="path60" />
    <path
       opacity="0.1"
       d="m 38.1255,26.0703 c -9.3889,0.457 -16.7461,8.567 -16.2891,17.956 0.457,9.3889 8.567,16.7461 17.956,16.2891 9.3889,-0.457 16.7461,-8.5671 16.2891,-17.956 -0.457,-9.3889 -8.567,-16.7461 -17.956,-16.2891 z m 0.5556,11.415 c 3.2198,-0.1567 5.8287,2.2099 5.9854,5.4297 0.1567,3.2198 -2.21,5.8286 -5.4297,5.9854 -3.2198,0.1567 -5.8287,-2.21 -5.9854,-5.4298 -0.1567,-3.2197 2.2099,-5.8286 5.4297,-5.9853 z"
       fill="#fed8cd"
       id="path61" />
    <path
       opacity="0.1"
       d="M 37.9866,23.2165 C 27.0554,23.7486 18.4505,33.234 18.9826,44.1652 19.5147,55.0964 29,63.7013 39.9313,63.1692 50.8625,62.6371 59.4674,53.1517 58.9353,42.2205 58.4032,31.2893 48.9178,22.6844 37.9866,23.2165 Z M 38.82,40.3391 c 1.6775,-0.0817 2.9111,1.0373 2.9927,2.7148 0.0817,1.6775 -1.0374,2.9111 -2.7149,2.9927 -1.6775,0.0817 -2.911,-1.0373 -2.9926,-2.7148 -0.0817,-1.6775 1.0373,-2.9111 2.7148,-2.9927 z"
       fill="#fed8cd"
       id="path62" />
    <path
       fill-rule="evenodd"
       clip-rule="evenodd"
       d="M 38.4035,31.7778 C 44.7078,31.471 50.0673,36.3329 50.3741,42.6373 50.681,48.9416 45.8191,54.3011 39.5147,54.608 33.2103,54.9148 27.8509,50.0529 27.544,43.7485 27.2372,37.4442 32.0991,32.0847 38.4035,31.7778 Z"
       fill="#fce94f"
       id="path63" />
    <path
       fill-rule="evenodd"
       clip-rule="evenodd"
       d="m 35.6222,36.347 c 7.7229,-0.3759 14.2882,5.5799 14.6641,13.3028 0.3759,7.7228 -5.5799,14.2882 -13.3028,14.6641 -7.7228,0.3759 -14.2882,-5.58 -14.6641,-13.3028 -0.3759,-7.7229 5.58,-14.2882 13.3028,-14.6641 z"
       fill="#fce94f"
       id="path64" />
    <path
       d="M 15.1983,89.8318 15.0594,86.978 c 0,0 6.9712,-5.1067 8.976,-5.6202 2.0049,-0.5135 4.4128,-0.292 6.8931,0.0521 2.4803,0.3427 6.18,0.7894 7.327,0.7727 1.1472,-0.0158 3.2127,-0.2565 5.6135,-0.5192 2.4008,-0.2599 6.3813,-0.5852 7.6255,-0.6315 1.2436,-0.0605 4.3563,-0.0404 7.6753,6e-4 3.319,0.0415 7.8807,0.1587 8.9165,0.2033 1.0359,0.044 2.2565,0.159 3.6414,0.2819 1.3848,0.1214 3.7802,0.29 4.6265,0.3271 0.8463,0.0361 2.8126,0.2096 5.089,0.3079 2.2765,0.098 5.9066,-0.0072 6.9503,-0.1353 1.0436,-0.128 3.2012,-1.0105 5.6128,-1.8444 2.4117,-0.8337 5.0775,-1.6194 7.1377,-1.5575 2.059,0.0628 13.797,3.5005 13.797,3.5005 l 0.139,2.8538 -14.982,0.7293 -12.1287,0.5903 -12.1285,0.5904 -12.1285,0.5903 -12.1285,0.5904 -12.1285,0.5903 -12.1285,0.5904 z"
       fill="#000000"
       id="path65" />
    <path
       opacity="0.9"
       d="m 15.1982,89.8318 0.0907,1.8621 c 0,0 7.3537,2.7523 9.3919,2.9245 2.0383,0.1726 4.419,-0.1636 6.862,-0.5857 2.4431,-0.4213 6.0925,-1.008 7.2364,-1.0891 1.1438,-0.0843 3.2208,-0.091 5.6332,-0.114 2.4124,-0.023 6.4034,-0.1315 7.6464,-0.2034 1.2435,-0.0605 4.3425,-0.3229 7.6453,-0.6153 3.3028,-0.2923 7.8371,-0.7353 8.8654,-0.8471 1.0282,-0.113 2.235,-0.2833 3.6045,-0.4753 1.3697,-0.1896 3.7422,-0.491 4.5822,-0.5831 0.84,-0.0924 2.7848,-0.3616 5.0444,-0.6083 2.2597,-0.2473 5.8842,-0.4695 6.934,-0.4691 1.0499,4e-4 3.2698,0.3987 5.739,0.7459 2.4691,0.3472 5.1876,0.6428 7.2344,0.4374 2.047,-0.2055 13.463,-3.3774 13.463,-3.3774 l -0.091,-1.8618 -14.982,0.7292 -12.1287,0.5904 -12.1285,0.5903 -12.1285,0.5904 -12.1285,0.5903 -12.1285,0.5904 -12.1285,0.5903 z"
       fill="#000000"
       id="path66" />
    <path
       opacity="0.3"
       d="M 15.1982,89.8317 115.08,84.97 l 0.417,8.5613 -99.882,4.8617 z"
       fill="#4d585e"
       id="path67" />
    <path
       opacity="0.2"
       d="m 15.8095,102.388 -3.7922,-77.9075 99.8817,-4.8617 3.792,77.9078 z"
       stroke="#000000"
       stroke-width="2"
       id="path68" />
    <path
       opacity="0.6"
       d="m 124,100 h -15.789 v 10 H 124 Z"
       fill="url(#paint20_radial)"
       id="path69"
       style="fill:url(#paint20_radial)" />
    <path
       opacity="0.6"
       d="M 3.99993,110 H 19.7894 V 100 H 3.99993 Z"
       fill="url(#paint21_radial)"
       id="path70"
       style="fill:url(#paint21_radial)" />
    <path
       opacity="0.6"
       d="M 108.211,100 H 19.7894 v 10 h 88.4216 z"
       fill="url(#paint22_linear)"
       id="path71"
       style="fill:url(#paint22_linear)" />
    <path
       opacity="0.35"
       d="M 118,103.994 V 18 c 0,0 -72,0 -108,0 0,28.6666 0,86 0,86 z"
       stroke="#000000"
       stroke-width="2"
       stroke-linejoin="round"
       id="path72" />
    <path
       d="M 118,103.994 V 18 c 0,0 -72,0 -108,0 0,28.6666 0,86 0,86 z"
       fill="url(#paint23_linear)"
       id="path73"
       style="fill:url(#paint23_linear)" />
    <path
       opacity="0.4"
       d="M 118,103.994 V 18 c 0,0 -72,0 -108,0 0,28.6666 0,86 0,86 z"
       stroke="#ffffff"
       stroke-width="2"
       stroke-linejoin="round"
       id="path74" />
    <path
       opacity="0.4"
       d="m 10,18 v 2 h 108 v -2 z"
       fill="#ffffff"
       id="path75" />
    <path
       d="M 14,100 V 22 h 100 v 78 z"
       fill="url(#paint24_linear)"
       id="path76"
       style="fill:url(#paint24_linear)" />
    <path
       opacity="0.1"
       d="m 40.0001,27.7143 c -7.856,0 -14.2857,6.4298 -14.2857,14.2857 0,7.8559 6.4297,14.2857 14.2857,14.2857 7.8559,0 14.2857,-6.4298 14.2857,-14.2857 0,-7.8559 -6.4298,-14.2857 -14.2857,-14.2857 z m 0,5.7143 c 4.7677,0 8.5714,3.8037 8.5714,8.5714 0,4.7677 -3.8037,8.5714 -8.5714,8.5714 -4.7677,0 -8.5715,-3.8037 -8.5715,-8.5714 0,-4.7677 3.8038,-8.5714 8.5715,-8.5714 z"
       fill="#fed8cd"
       id="path77" />
    <path
       opacity="0.1"
       d="M 40,24.8571 C 30.6,24.8571 22.8572,32.5999 22.8572,42 22.8572,51.4001 30.6,59.1429 40,59.1429 49.4001,59.1429 57.1429,51.4001 57.1429,42 57.1429,32.5999 49.4001,24.8571 40,24.8571 Z m 0,11.4286 c 3.2236,0 5.7143,2.4907 5.7143,5.7143 0,3.2236 -2.4907,5.7143 -5.7143,5.7143 -3.2236,0 -5.7142,-2.4907 -5.7142,-5.7143 0,-3.2236 2.4906,-5.7143 5.7142,-5.7143 z"
       fill="#fed8cd"
       id="path78" />
    <path
       opacity="0.1"
       d="M 40,22 C 29.0558,22 20,31.0558 20,42 20,52.9442 29.0558,62 40,62 50.9442,62 60,52.9442 60,42 60,31.0558 50.9442,22 40,22 Z m 0,17.1429 c 1.6795,0 2.8571,1.1776 2.8571,2.8571 0,1.6795 -1.1776,2.8571 -2.8571,2.8571 -1.6795,0 -2.8571,-1.1776 -2.8571,-2.8571 0,-1.6795 1.1776,-2.8571 2.8571,-2.8571 z"
       fill="#fed8cd"
       id="path79" />
    <path
       fill-rule="evenodd"
       clip-rule="evenodd"
       d="m 40.0001,30.5715 c 6.3118,0 11.4286,5.1167 11.4286,11.4286 0,6.3118 -5.1168,11.4286 -11.4286,11.4286 -6.3118,0 -11.4286,-5.1168 -11.4286,-11.4286 0,-6.3119 5.1168,-11.4286 11.4286,-11.4286 z"
       fill="#fce94f"
       id="path80" />
    <path
       fill-rule="evenodd"
       clip-rule="evenodd"
       d="m 37,35 c 7.732,0 14,6.268 14,14 0,7.732 -6.268,14 -14,14 -7.732,0 -14,-6.268 -14,-14 0,-7.732 6.268,-14 14,-14 z"
       fill="#fce94f"
       id="path81" />
    <path
       d="m 14,87.4286 v -2.8571 c 0,0 7.2113,-4.7617 9.2387,-5.1772 2.0274,-0.4154 4.4216,-0.0771 6.8823,0.3872 2.4607,0.4628 6.1343,1.0888 7.2808,1.128 1.1466,0.04 3.2214,-0.1 5.6321,-0.2457 2.4106,-0.1429 6.4022,-0.2743 7.6472,-0.26 1.245,0 4.3531,0.1714 7.6662,0.3737 3.3131,0.2028 7.8636,0.5417 8.8961,0.6365 1.0325,0.0943 2.2461,0.2686 3.6234,0.4586 1.3772,0.1886 3.7616,0.4734 4.6051,0.5517 0.8435,0.0772 2.7991,0.346 5.068,0.5549 2.269,0.2086 5.9,0.28 6.9486,0.2028 1.0486,-0.0771 3.2465,-0.8537 5.6959,-1.5694 2.4494,-0.7154 5.1502,-1.3706 7.2046,-1.2086 2.054,0.1629 13.611,4.1672 13.611,4.1672 v 2.8571 H 99 86.8571 74.7143 62.5714 50.4286 38.2857 26.1429 Z"
       fill="#000000"
       id="path82" />
    <path
       opacity="0.9"
       d="m 14,87.4286 v 1.8643 c 0,0 7.2113,3.1066 9.2387,3.3777 2.0274,0.2715 4.4216,0.0514 6.8823,-0.2514 2.4607,-0.302 6.1343,-0.7106 7.2808,-0.736 1.1466,-0.0286 3.2214,0.0657 5.6321,0.16 2.4106,0.0943 6.4022,0.18 7.6472,0.1686 1.245,0 4.3531,-0.1115 7.6662,-0.2429 3.3131,-0.1314 7.8636,-0.3534 8.8961,-0.4151 1.0325,-0.0629 2.2461,-0.1743 3.6234,-0.2995 1.3772,-0.1228 3.7616,-0.3085 4.6051,-0.3597 0.8435,-0.0514 2.7991,-0.2257 5.068,-0.3623 2.269,-0.1371 5.9,-0.1828 6.9486,-0.1314 1.0486,0.0514 3.2465,0.5572 5.6959,1.024 2.4494,0.4669 5.1502,0.8943 7.2046,0.7886 C 102.443,91.9078 114,89.2946 114,89.2946 v -1.864 H 99 86.8571 74.7143 62.5714 50.4286 38.2857 26.1429 Z"
       fill="#000000"
       id="path83" />
    <path
       opacity="0.3"
       d="M 14,87.4286 H 114 V 96 H 14 Z"
       fill="#4d585e"
       id="path84" />
    <path
       opacity="0.2"
       d="M 14,100 V 22 h 100 v 78 z"
       stroke="#000000"
       stroke-width="2"
       id="path85" />
    <path
       d="m 67,46 h 3.8631 z m 4.4296,0 h 3.6056 z m 4.1722,0 h 3.1934 z m 3.7085,0 h 1.3907 z m 1.9573,0 h 3.0904 z m 3.7085,0 h 8.1382 z m 8.6533,0 h 6.2324 z m 6.7476,0 h 1.906 z M 67,47 h 6.0264 z m 6.696,0 h 2.8844 z m 3.3995,0 h 1.4422 z m 2.0088,0 h 2.6269 z m 3.1934,0 h 2.6784 z m 3.1935,0 h 4.2751 z m 4.8417,0 h 5.5628 z m 6.0779,0 h 3.7082 z m 4.2232,0 h 0.928 z M 67,47.9925 h 5.0992 z m 5.6143,0 h 8.3442 z m 8.8593,0 h 4.0691 z m 4.5842,0 h 3.8115 z m 4.3266,0 h 3.245 z m 3.7601,0 5.0992,0.015 z m 5.5628,0.015 H 108 Z M 67,49 h 7.0565 z m 7.6231,0 h 7.6231 z m 8.1382,0 h 3.039 z m 3.554,0 h 7.1596 z m 7.6231,0 h 4.8933 z m 5.4598,0 h 1.9578 z m 2.4728,0 h 1.081 z m 1.648,0 h 3.039 z M 67,50 h 2.6269 z m 3.451,0 h 9.7349 z M 67,51.9925 h 5.0992 z m 5.6143,0 h 8.3442 z m 8.8593,0 h 4.0691 z m 4.5842,0 h 3.8115 z m 4.3266,0 h 3.245 z m 3.7601,0 5.0992,0.015 z m 5.5628,0.015 H 108 Z M 67,53 h 6.4899 z m 7.005,0 h 6.9535 z m 7.4686,0 h 2.6784 z m 3.1935,0 h 6.5414 z m 7.0565,0 h 8.2412 z m 8.8074,0 h 3.039 z M 67,54 h 7.0565 z m 7.6231,0 h 7.6231 z m 8.1382,0 h 3.039 z m 3.554,0 h 7.1596 z m 7.6231,0 h 4.8933 z m 5.4598,0 h 1.9578 z m 2.4728,0 h 1.081 z m 1.648,0 h 3.039 z M 67,55 h 6.0264 z m 6.696,0 h 2.8844 z m 3.3995,0 h 1.4422 z m 2.0088,0 h 2.6269 z m 3.1934,0 h 2.6784 z m 3.1935,0 h 4.2751 z m 4.8417,0 h 5.5628 z m 6.0779,0 h 3.7082 z m 4.2232,0 h 0.928 z M 67,56.9925 h 5.0992 z m 5.6143,0 h 8.3442 z m 8.8593,0 h 4.0691 z m 4.5842,0 h 3.8115 z m 4.3266,0 h 3.245 z m 3.7601,0 5.0992,0.015 z m 5.5628,0.015 H 108 Z M 67,58 h 6.0264 z m 6.696,0 h 2.8844 z m 3.3995,0 h 1.4422 z m 2.0088,0 h 2.6269 z m 3.1934,0 h 2.6784 z m 3.1935,0 h 4.2751 z m 4.8417,0 h 5.5628 z m 6.0779,0 h 3.7082 z m 4.2232,0 h 0.928 z M 67,59 h 6.3869 z m 6.9535,0 h 2.0088 z m 2.5239,0 h 4.5842 z m 5.0992,0 h 6.7475 z m 7.3141,0 h 4.5842 z m 5.0477,0 h 0.9787 z m 1.4938,0 h 5.8208 z m 6.4388,0 h 3.039 z M 67,60 h 6.3869 z m 6.9535,0 h 2.8844 z m 3.3995,0 h 4.5327 z m 5.0478,0 h 4.8932 z m 5.4598,0 h 1.9572 z m 2.4723,0 h 1.0817 z m 1.6483,0 h 3.0389 z"
       stroke="url(#paint25_linear)"
       id="path86"
       style="stroke:url(#paint25_linear)" />
    <path
       d="m 67,63 h 2.544 z m 2.9171,0 h 2.3744 z m 2.7475,0 h 2.103 z m 2.4422,0 h 0.9158 z m 1.2889,0 h 2.0352 z m 2.4422,0 h 5.3593 z m 5.6985,0 h 4.1043 z m 4.4435,0 h 1.255 z M 67,64 h 3.9686 z m 4.4095,0 h 1.8995 z m 2.2387,0 h 0.9498 z m 1.3229,0 h 1.7299 z m 2.103,0 h 1.7638 z m 2.103,0 h 2.8154 z m 3.1885,0 h 3.6633 z m 4.0025,0 h 2.4422 z m 2.7814,0 h 0.6106 z M 67,64.9925 h 3.358 z m 3.6972,0 h 5.495 z m 5.8342,0 h 2.6797 z m 3.0189,0 h 2.51 z m 2.8492,0 h 2.1369 z m 2.4761,0 3.3581,0.015 z m 3.6633,0.015 H 94 Z M 67,66 h 4.647 z m 5.0201,0 h 5.0201 z m 5.3593,0 h 2.0013 z m 2.3405,0 h 4.7148 z m 5.0201,0 h 3.2223 z m 3.5954,0 h 1.289 z m 1.6282,0 h 0.7123 z m 1.0854,0 h 2.0013 z M 67,67 h 1.7299 z m 2.2726,0 h 6.4108 z M 67,68.9925 h 3.358 z m 3.6972,0 h 5.495 z m 5.8342,0 h 2.6797 z m 3.0189,0 h 2.51 z m 2.8492,0 h 2.1369 z m 2.4761,0 3.3581,0.015 z m 3.6633,0.015 H 94 Z M 67,70 h 4.2739 z m 4.6131,0 h 4.5791 z m 4.9183,0 h 1.7638 z m 2.103,0 h 4.3078 z m 4.647,0 h 5.4271 z m 5.8003,0 h 2.0012 z M 67,71 h 4.647 z m 5.0201,0 h 5.0201 z m 5.3593,0 h 2.0013 z m 2.3405,0 h 4.7148 z m 5.0201,0 h 3.2223 z m 3.5954,0 h 1.289 z m 1.6282,0 h 0.7123 z m 1.0854,0 h 2.0013 z M 67,72 h 3.9686 z m 4.4095,0 h 1.8995 z m 2.2387,0 h 0.9498 z m 1.3229,0 h 1.7299 z m 2.103,0 h 1.7638 z m 2.103,0 h 2.8154 z m 3.1885,0 h 3.6633 z m 4.0025,0 h 2.4422 z m 2.7814,0 h 0.6106 z M 67,73.9925 h 3.358 z m 3.6972,0 h 5.495 z m 5.8342,0 h 2.6797 z m 3.0189,0 h 2.51 z m 2.8492,0 h 2.1369 z m 2.4761,0 3.3581,0.015 z m 3.6633,0.015 H 94 Z M 67,75 h 3.9686 z m 4.4095,0 h 1.8995 z m 2.2387,0 h 0.9498 z m 1.3229,0 h 1.7299 z m 2.103,0 h 1.7638 z m 2.103,0 h 2.8154 z m 3.1885,0 h 3.6633 z m 4.0025,0 h 2.4422 z m 2.7814,0 h 0.6106 z M 67,76 h 4.206 z m 4.5791,0 h 1.3229 z m 1.6621,0 h 3.0189 z m 3.358,0 h 4.4435 z m 4.8166,0 h 3.0189 z m 3.3242,0 h 0.6444 z m 0.9836,0 h 3.8329 z m 4.24,0 h 2.0012 z M 67,77 h 4.206 z m 4.5791,0 h 1.8995 z m 2.2387,0 h 2.985 z m 3.3242,0 h 3.2223 z m 3.5954,0 h 1.289 z m 1.6282,0 h 0.7123 z m 1.0854,0 h 2.0013 z"
       stroke="url(#paint26_linear)"
       id="path87"
       style="stroke:url(#paint26_linear)" />
    <path
       opacity="0.6"
       d="M 95,62 H 66 v 16 h 29 z"
       fill="#fce94f"
       id="path88" />
    <path
       fill-rule="evenodd"
       clip-rule="evenodd"
       d="M 92,56.2562 103.711,68 124.204,47.4483 c 1.791,-1.4794 0,-2.936 0,-2.936 l -8.783,-8.8078 c 0,0 -1.347,-1.5851 -2.928,0 z"
       stroke="#bf830a"
       stroke-width="2"
       stroke-linejoin="round"
       id="path89" />
    <path
       fill-rule="evenodd"
       clip-rule="evenodd"
       d="M 92,56.2729 103.677,68 124.113,47.4775 c 1.996,-1.4773 0,-2.9318 0,-2.9318 l -8.758,-8.7953 c 0,0 -1.449,-1.6883 -2.92,0 z"
       fill="url(#paint27_linear)"
       id="path90"
       style="fill:url(#paint27_linear)" />
    <path
       fill-rule="evenodd"
       clip-rule="evenodd"
       d="m 91.3893,57.3591 v 5.6117 l 5.5929,5.6117 h 5.5928 z"
       stroke="#838383"
       stroke-width="2"
       stroke-linejoin="round"
       id="path91" />
    <path
       fill-rule="evenodd"
       clip-rule="evenodd"
       d="m 91.3893,57.3591 v 5.6117 l 5.5929,5.6117 h 5.5928 z"
       fill="#cecece"
       id="path92" />
    <path
       fill-rule="evenodd"
       clip-rule="evenodd"
       d="m 85,72.1942 h 5.5929 l 2.7964,-2.8058 -2.7964,-2.8059 z"
       stroke="#bf830a"
       stroke-width="2"
       stroke-linejoin="round"
       id="path93" />
    <path
       fill-rule="evenodd"
       clip-rule="evenodd"
       d="m 91.6901,65.0397 -2.0973,2.5428 2.7964,2.8059 2.3595,-1.8414 z"
       stroke="#838383"
       stroke-width="2"
       id="path94" />
    <path
       opacity="0.1"
       d="m 104.449,76 c 9.459,0 17.128,-1.3347 17.128,-2.9812 0,-1.6465 -7.669,-2.9812 -17.128,-2.9812 -9.4598,0 -17.1283,1.3347 -17.1283,2.9812 0,1.6465 7.6685,2.9812 17.1283,2.9812 z"
       fill="url(#paint28_radial)"
       id="path95"
       style="fill:url(#paint28_radial)" />
    <path
       fill-rule="evenodd"
       clip-rule="evenodd"
       d="m 91.6901,65.0397 -2.0973,2.5428 2.7964,2.8059 2.3595,-1.8414 z"
       fill="#cecece"
       id="path96" />
    <path
       fill-rule="evenodd"
       clip-rule="evenodd"
       d="m 85,72.1942 h 5.5929 l 2.7964,-2.8058 -2.7964,-2.8059 z"
       fill="#fce94f"
       id="path97" />
    <path
       opacity="0.5"
       d="m 96.194,54.7275 17.39,-17.4488"
       stroke="#ffffff"
       stroke-linecap="round"
       id="path98" />
    <path
       opacity="0.5"
       d="M 92.2239,62.5499 92.209,59.3818"
       stroke="#ffffff"
       stroke-linecap="round"
       id="path99" />
    <path
       opacity="0.1"
       d="m 105.108,63.8738 17.39,-17.4489"
       stroke="#000000"
       stroke-linecap="round"
       id="path100" />
    <path
       opacity="0.1"
       d="m 97.8463,67.1172 2.4377,0.8871"
       stroke="#000000"
       stroke-linecap="round"
       id="path101" />
    <path
       d="m 49.2062,73.1927 c 5e-4,0.582 -0.3796,1.1584 -1.1184,1.6961 -0.7388,0.5378 -1.822,1.0264 -3.1877,1.438 -1.3656,0.4115 -2.987,0.738 -4.7715,0.9608 -1.7844,0.2227 -3.6971,0.3374 -5.6286,0.3374 -1.9316,0 -3.8443,-0.1147 -5.6287,-0.3374 -1.7845,-0.2228 -3.4059,-0.5493 -4.7715,-0.9608 -1.3657,-0.4116 -2.4489,-0.9002 -3.1877,-1.438 -0.7388,-0.5377 -1.1189,-1.1141 -1.1184,-1.6961 -5e-4,-0.582 0.3796,-1.1583 1.1184,-1.696 0.7388,-0.5378 1.822,-1.0264 3.1877,-1.438 1.3656,-0.4115 2.987,-0.738 4.7715,-0.9608 1.7844,-0.2228 3.6971,-0.3374 5.6287,-0.3374 1.9315,0 3.8442,0.1146 5.6286,0.3374 1.7845,0.2228 3.4059,0.5493 4.7715,0.9608 1.3657,0.4116 2.4489,0.9002 3.1877,1.438 0.7388,0.5377 1.1189,1.114 1.1184,1.696 z"
       fill="url(#paint29_radial)"
       fill-opacity="0.5"
       id="path102"
       style="fill:url(#paint29_radial)" />
    <path
       d="m 34.5,36.0004 c -10.2076,0 -18.5,8.2923 -18.5,18.4999 0,10.2076 8.2924,18.4999 18.5,18.4999 10.2077,0 18.5,-8.2923 18.5,-18.4999 C 53,44.2927 44.7077,36.0004 34.5,36.0004 Z"
       fill="url(#paint30_radial)"
       fill-opacity="0.5"
       id="path103"
       style="fill:url(#paint30_radial)" />
    <path
       opacity="0.75"
       d="m 34.4987,47.1796 c 5.3108,0 9.616,-1.9844 9.616,-4.4323 0,-2.4479 -4.3052,-4.4323 -9.616,-4.4323 -5.3108,0 -9.616,1.9844 -9.616,4.4323 0,2.4479 4.3052,4.4323 9.616,4.4323 z"
       fill="url(#paint31_linear)"
       id="path104"
       style="fill:url(#paint31_linear)" />
    <path
       opacity="0.25"
       d="M 34.4999,36 C 24.2924,36 16,44.2923 16,54.5 16,64.7077 24.2924,73 34.4999,73 44.7076,73 53,64.7077 53,54.5 53,44.2923 44.7076,36 34.4999,36 Z"
       stroke="#000000"
       stroke-width="0.999995"
       stroke-linecap="round"
       stroke-linejoin="round"
       id="path105" />
  </g>
  <defs
     id="defs180">
    <linearGradient
       id="linearGradient1"
       inkscape:collect="always">
      <stop
         style="stop-color:#ffffff;stop-opacity:1;"
         offset="0"
         id="stop1" />
      <stop
         style="stop-color:#c0c0c0;stop-opacity:1;"
         offset="1"
         id="stop2" />
    </linearGradient>
    <radialGradient
       id="paint0_radial"
       cx="0"
       cy="0"
       r="1"
       gradientUnits="userSpaceOnUse"
       gradientTransform="matrix(15.675543,-2.1285579,0.67276821,4.9545316,113.303,98.6814)">
      <stop
         stop-color="#181818"
         id="stop105" />
      <stop
         offset="1"
         stop-color="#181818"
         stop-opacity="0"
         id="stop106" />
    </radialGradient>
    <radialGradient
       id="paint1_radial"
       cx="0"
       cy="0"
       r="1"
       gradientUnits="userSpaceOnUse"
       gradientTransform="matrix(-15.675536,2.1286099,-0.67278464,-4.9545293,25.7302,110.573)">
      <stop
         stop-color="#181818"
         id="stop107" />
      <stop
         offset="1"
         stop-color="#181818"
         stop-opacity="0"
         id="stop108" />
    </radialGradient>
    <linearGradient
       id="paint2_linear"
       x1="73.5058"
       y1="109.171"
       x2="72.1548"
       y2="99.2222"
       gradientUnits="userSpaceOnUse">
      <stop
         stop-color="#181818"
         stop-opacity="0"
         id="stop109" />
      <stop
         offset="0.5"
         stop-color="#181818"
         id="stop110" />
      <stop
         offset="1"
         stop-color="#181818"
         stop-opacity="0"
         id="stop111" />
    </linearGradient>
    <linearGradient
       id="paint3_linear"
       x1="72.2078"
       y1="124.445"
       x2="54.9849"
       y2="-2.39073"
       gradientUnits="userSpaceOnUse">
      <stop
         stop-color="#EDEDED"
         id="stop112" />
      <stop
         offset="1"
         stop-color="white"
         id="stop113" />
    </linearGradient>
    <linearGradient
       id="paint4_linear"
       x1="51.4779"
       y1="95.6484"
       x2="39.5645"
       y2="7.91299"
       gradientUnits="userSpaceOnUse">
      <stop
         stop-color="#16538C"
         id="stop114" />
      <stop
         offset="0.362069"
         stop-color="#3594CA"
         id="stop115" />
      <stop
         offset="1"
         stop-color="#4EDFF3"
         id="stop116" />
    </linearGradient>
    <radialGradient
       id="paint5_radial"
       cx="0"
       cy="0"
       r="1"
       gradientUnits="userSpaceOnUse"
       gradientTransform="matrix(14.851262,-4.4012306,1.4206959,4.7939152,118.333,90.6608)">
      <stop
         stop-color="#181818"
         id="stop117" />
      <stop
         offset="1"
         stop-color="#181818"
         stop-opacity="0"
         id="stop118" />
    </radialGradient>
    <radialGradient
       id="paint6_radial"
       cx="0"
       cy="0"
       r="1"
       gradientUnits="userSpaceOnUse"
       gradientTransform="matrix(-14.851292,4.4011269,-1.4206624,-4.7939251,35.3646,115.249)">
      <stop
         stop-color="#181818"
         id="stop119" />
      <stop
         offset="1"
         stop-color="#181818"
         stop-opacity="0"
         id="stop120" />
    </radialGradient>
    <linearGradient
       id="paint7_linear"
       x1="81.4176"
       y1="106.857"
       x2="78.5647"
       y2="97.2305"
       gradientUnits="userSpaceOnUse">
      <stop
         stop-color="#181818"
         stop-opacity="0"
         id="stop121" />
      <stop
         offset="0.5"
         stop-color="#181818"
         id="stop122" />
      <stop
         offset="1"
         stop-color="#181818"
         stop-opacity="0"
         id="stop123" />
    </linearGradient>
    <linearGradient
       id="paint8_linear"
       x1="82.5315"
       y1="122.13"
       x2="46.1616"
       y2="-0.593772"
       gradientUnits="userSpaceOnUse">
      <stop
         stop-color="#EDEDED"
         id="stop124" />
      <stop
         offset="1"
         stop-color="white"
         id="stop125" />
    </linearGradient>
    <linearGradient
       id="paint9_linear"
       x1="57.9845"
       y1="96.7342"
       x2="32.8266"
       y2="11.843"
       gradientUnits="userSpaceOnUse">
      <stop
         stop-color="#16538C"
         id="stop126" />
      <stop
         offset="0.362069"
         stop-color="#3594CA"
         id="stop127" />
      <stop
         offset="1"
         stop-color="#4EDFF3"
         id="stop128" />
    </linearGradient>
    <radialGradient
       id="paint10_radial"
       cx="0"
       cy="0"
       r="1"
       gradientUnits="userSpaceOnUse"
       gradientTransform="matrix(15.548655,-2.9142336,0.92109484,4.9144261,114.985,96.158)">
      <stop
         stop-color="#181818"
         id="stop129" />
      <stop
         offset="1"
         stop-color="#181818"
         stop-opacity="0"
         id="stop130" />
    </radialGradient>
    <radialGradient
       id="paint11_radial"
       cx="0"
       cy="0"
       r="1"
       gradientUnits="userSpaceOnUse"
       gradientTransform="matrix(-15.548634,2.9143421,-0.92112915,-4.9144197,28.121,112.439)">
      <stop
         stop-color="#181818"
         id="stop131" />
      <stop
         offset="1"
         stop-color="#181818"
         stop-opacity="0"
         id="stop132" />
    </radialGradient>
    <linearGradient
       id="paint12_linear"
       x1="75.7657"
       y1="108.636"
       x2="73.9161"
       y2="98.7675"
       gradientUnits="userSpaceOnUse">
      <stop
         stop-color="#181818"
         stop-opacity="0"
         id="stop133" />
      <stop
         offset="0.5"
         stop-color="#181818"
         id="stop134" />
      <stop
         offset="1"
         stop-color="#181818"
         stop-opacity="0"
         id="stop135" />
    </linearGradient>
    <linearGradient
       id="paint13_linear"
       x1="75.2375"
       y1="123.956"
       x2="51.6575"
       y2="-1.85329"
       gradientUnits="userSpaceOnUse">
      <stop
         stop-color="#EDEDED"
         id="stop136" />
      <stop
         offset="1"
         stop-color="white"
         id="stop137" />
    </linearGradient>
    <linearGradient
       id="paint14_linear"
       x1="53.0855"
       y1="96.2381"
       x2="36.7747"
       y2="9.21289"
       gradientUnits="userSpaceOnUse">
      <stop
         stop-color="#16538C"
         id="stop138" />
      <stop
         offset="0.362069"
         stop-color="#3594CA"
         id="stop139" />
      <stop
         offset="1"
         stop-color="#4EDFF3"
         id="stop140" />
    </linearGradient>
    <radialGradient
       id="paint15_radial"
       cx="0"
       cy="0"
       r="1"
       gradientUnits="userSpaceOnUse"
       gradientTransform="matrix(15.800694,-0.76908973,0.24308435,4.9940875,110.13,102.803)">
      <stop
         stop-color="#181818"
         id="stop141" />
      <stop
         offset="1"
         stop-color="#181818"
         stop-opacity="0"
         id="stop142" />
    </radialGradient>
    <radialGradient
       id="paint16_radial"
       cx="0"
       cy="0"
       r="1"
       gradientUnits="userSpaceOnUse"
       gradientTransform="matrix(-15.800689,0.76918901,-0.24311573,-4.994086,21.8572,107.1)">
      <stop
         stop-color="#181818"
         id="stop143" />
      <stop
         offset="1"
         stop-color="#181818"
         stop-opacity="0"
         id="stop144" />
    </radialGradient>
    <linearGradient
       id="paint17_linear"
       x1="69.5759"
       y1="109.823"
       x2="69.0877"
       y2="99.7942"
       gradientUnits="userSpaceOnUse">
      <stop
         stop-color="#181818"
         stop-opacity="0"
         id="stop145" />
      <stop
         offset="0.5"
         stop-color="#181818"
         id="stop146" />
      <stop
         offset="1"
         stop-color="#181818"
         stop-opacity="0"
         id="stop147" />
    </linearGradient>
    <linearGradient
       id="paint18_linear"
       x1="66.9658"
       y1="124.928"
       x2="60.7428"
       y2="-2.92076"
       gradientUnits="userSpaceOnUse">
      <stop
         stop-color="#EDEDED"
         id="stop148" />
      <stop
         offset="1"
         stop-color="white"
         id="stop149" />
    </linearGradient>
    <linearGradient
       id="paint19_linear"
       x1="48.7959"
       y1="94.4509"
       x2="44.4913"
       y2="6.01504"
       gradientUnits="userSpaceOnUse">
      <stop
         stop-color="#16538C"
         id="stop150" />
      <stop
         offset="0.362069"
         stop-color="#3594CA"
         id="stop151" />
      <stop
         offset="1"
         stop-color="#4EDFF3"
         id="stop152" />
    </linearGradient>
    <radialGradient
       id="paint20_radial"
       cx="0"
       cy="0"
       r="1"
       gradientUnits="userSpaceOnUse"
       gradientTransform="matrix(15.8194,0,0,5,108.188,105)">
      <stop
         stop-color="#181818"
         id="stop153" />
      <stop
         offset="1"
         stop-color="#181818"
         stop-opacity="0"
         id="stop154" />
    </radialGradient>
    <radialGradient
       id="paint21_radial"
       cx="0"
       cy="0"
       r="1"
       gradientUnits="userSpaceOnUse"
       gradientTransform="matrix(-15.8194,0,0,-5,19.8116,105)">
      <stop
         stop-color="#181818"
         id="stop155" />
      <stop
         offset="1"
         stop-color="#181818"
         stop-opacity="0"
         id="stop156" />
    </radialGradient>
    <linearGradient
       id="paint22_linear"
       x1="67.3414"
       y1="110.04"
       x2="67.3414"
       y2="99.9992"
       gradientUnits="userSpaceOnUse">
      <stop
         stop-color="#181818"
         stop-opacity="0"
         id="stop157" />
      <stop
         offset="0.5"
         stop-color="#181818"
         id="stop158" />
      <stop
         offset="1"
         stop-color="#181818"
         stop-opacity="0"
         id="stop159" />
    </linearGradient>
    <linearGradient
       id="paint23_linear"
       x1="64"
       y1="125"
       x2="64"
       y2="-3"
       gradientUnits="userSpaceOnUse">
      <stop
         stop-color="#EDEDED"
         id="stop160" />
      <stop
         offset="1"
         stop-color="white"
         id="stop161" />
    </linearGradient>
    <linearGradient
       id="paint24_linear"
       x1="47.3333"
       y1="93.6757"
       x2="47.3333"
       y2="5.13513"
       gradientUnits="userSpaceOnUse">
      <stop
         stop-color="#16538C"
         id="stop162" />
      <stop
         offset="0.362069"
         stop-color="#3594CA"
         id="stop163" />
      <stop
         offset="1"
         stop-color="#4EDFF3"
         id="stop164" />
    </linearGradient>
    <linearGradient
       id="paint25_linear"
       x1="81.8704"
       y1="62.9903"
       x2="81.8704"
       y2="41.7785"
       gradientUnits="userSpaceOnUse">
      <stop
         stop-color="#D4D4D4"
         id="stop165" />
      <stop
         offset="1"
         stop-color="#FAFAFA"
         id="stop166" />
    </linearGradient>
    <linearGradient
       id="paint26_linear"
       x1="76.7927"
       y1="79.9903"
       x2="76.7927"
       y2="58.7785"
       gradientUnits="userSpaceOnUse">
      <stop
         stop-color="#D4D4D4"
         id="stop167" />
      <stop
         offset="1"
         stop-color="#FAFAFA"
         id="stop168" />
    </linearGradient>
    <linearGradient
       id="paint27_linear"
       x1="103.823"
       y1="44.8649"
       x2="115.396"
       y2="55.5542"
       gradientUnits="userSpaceOnUse">
      <stop
         stop-color="#FCE94F"
         id="stop169" />
      <stop
         offset="1"
         stop-color="#D7B031"
         id="stop170" />
    </linearGradient>
    <radialGradient
       id="paint28_radial"
       cx="0"
       cy="0"
       r="1"
       gradientUnits="userSpaceOnUse"
       gradientTransform="matrix(17.1282,0,0,2.98121,104.449,73.0188)">
      <stop
         id="stop171" />
      <stop
         offset="1"
         stop-opacity="0"
         id="stop172" />
    </radialGradient>
    <radialGradient
       id="paint29_radial"
       cx="0"
       cy="0"
       r="1"
       gradientUnits="userSpaceOnUse"
       gradientTransform="matrix(14.7063,0,0,4.43115,34.5,73.1928)">
      <stop
         stop-color="#3D3D3D"
         id="stop173" />
      <stop
         offset="0.5"
         stop-color="#686868"
         stop-opacity="0.498039"
         id="stop174" />
      <stop
         offset="1"
         stop-color="#686868"
         stop-opacity="0"
         id="stop175" />
    </radialGradient>
    <radialGradient
       id="paint30_radial"
       cx="0"
       cy="0"
       r="1"
       gradientUnits="userSpaceOnUse"
       gradientTransform="matrix(0,53.1689,-70.1825,0,34.5004,37.9563)">
      <stop
         stop-color="#C8C8C8"
         id="stop176" />
      <stop
         offset="0.625454"
         stop-color="#FCFCFC"
         id="stop177" />
      <stop
         offset="1"
         stop-color="#89898B"
         id="stop178" />
    </radialGradient>
    <linearGradient
       id="paint31_linear"
       x1="35.0713"
       y1="47.5552"
       x2="35.0713"
       y2="38.2167"
       gradientUnits="userSpaceOnUse">
      <stop
         stop-color="white"
         stop-opacity="0.2"
         id="stop179" />
      <stop
         offset="1"
         stop-color="white"
         stop-opacity="0.998934"
         id="stop180" />
    </linearGradient>
    <clipPath
       id="clip0">
      <rect
         width="128"
         height="128"
         fill="white"
         id="rect180" />
    </clipPath>
    <linearGradient
       inkscape:collect="always"
       xlink:href="#linearGradient1"
       id="linearGradient2"
       x1="64.901443"
       y1="16.114403"
       x2="64.901443"
       y2="111.41904"
       gradientUnits="userSpaceOnUse"
       gradientTransform="translate(-0.90145683)" />
  </defs>
</svg>
