<?xml version="1.0" encoding="UTF-8" standalone="no"?>
<!-- Created with Inkscape (http://www.inkscape.org/) -->

<svg
   width="128"
   height="128"
   viewBox="0 0 33.866666 33.866668"
   version="1.1"
   id="svg8"
   inkscape:version="1.1.2 (0a00cf5339, 2022-02-04)"
   sodipodi:docname="arrow-symbolic.svg"
   xmlns:inkscape="http://www.inkscape.org/namespaces/inkscape"
   xmlns:sodipodi="http://sodipodi.sourceforge.net/DTD/sodipodi-0.dtd"
   xmlns="http://www.w3.org/2000/svg"
   xmlns:svg="http://www.w3.org/2000/svg"
   xmlns:rdf="http://www.w3.org/1999/02/22-rdf-syntax-ns#"
   xmlns:cc="http://creativecommons.org/ns#"
   xmlns:dc="http://purl.org/dc/elements/1.1/">
  <defs
     id="defs2">
    <marker
       inkscape:stockid="Arrow1Lend"
       orient="auto"
       refY="0.0"
       refX="0.0"
       id="Arrow1Lend"
       style="overflow:visible;"
       inkscape:isstock="true">
      <path
         id="path822"
         d="M 0.0,0.0 L 5.0,-5.0 L -12.5,0.0 L 5.0,5.0 L 0.0,0.0 z "
         style="fill-rule:evenodd;stroke:#000000;stroke-width:1pt;stroke-opacity:1;fill:#000000;fill-opacity:1"
         transform="scale(0.8) rotate(180) translate(12.5,0)" />
    </marker>
    <marker
       inkscape:stockid="Arrow1Lstart"
       orient="auto"
       refY="0.0"
       refX="0.0"
       id="Arrow1Lstart"
       style="overflow:visible"
       inkscape:isstock="true">
      <path
         id="path819"
         d="M 0.0,0.0 L 5.0,-5.0 L -12.5,0.0 L 5.0,5.0 L 0.0,0.0 z "
         style="fill-rule:evenodd;stroke:#000000;stroke-width:1pt;stroke-opacity:1;fill:#000000;fill-opacity:1"
         transform="scale(0.8) translate(12.5,0)" />
    </marker>
  </defs>
  <sodipodi:namedview
     id="base"
     pagecolor="#ffffff"
     bordercolor="#666666"
     borderopacity="1.0"
     inkscape:pageopacity="0.0"
     inkscape:pageshadow="2"
     inkscape:zoom="2"
     inkscape:cx="84"
     inkscape:cy="19.75"
     inkscape:document-units="mm"
     inkscape:current-layer="layer1"
     showgrid="false"
     units="px"
     inkscape:window-width="1920"
     inkscape:window-height="1019"
     inkscape:window-x="0"
     inkscape:window-y="30"
     inkscape:window-maximized="1"
     inkscape:pagecheckerboard="0" />
  <metadata
     id="metadata5">
    <rdf:RDF>
      <cc:Work
         rdf:about="">
        <dc:format>image/svg+xml</dc:format>
        <dc:type
           rdf:resource="http://purl.org/dc/dcmitype/StillImage" />
        <dc:title />
      </cc:Work>
    </rdf:RDF>
  </metadata>
  <g
     inkscape:label="Layer 1"
     inkscape:groupmode="layer"
     id="layer1"
     transform="translate(0,-263.13332)">
    <g
       id="path817">
      <g
         id="g1150">
        <path
           style="color:#000000;fill:#000000;fill-rule:evenodd;stroke-width:1.3418pt;-inkscape-stroke:none"
           d="m 19.422996,277.75526 0.0084,9.48795 11.841143,-21.35834 -21.3374544,11.87874 z"
           id="path1142" />
        <path
           style="color:#000000;fill:#000000;fill-rule:evenodd;-inkscape-stroke:none"
           d="m 33.572266,263.58008 -27.087891,15.08203 12.044922,-0.0117 0.0098,12.04492 z m -4.59961,4.60742 -8.65039,15.60156 -0.0059,-6.92969 -0.894531,0.002 -6.035156,0.006 z"
           id="path1146" />
      </g>
      <g
         id="g1162">
        <path
           style="color:#000000;fill:#000000;fill-rule:evenodd;stroke-width:1.3418pt;-inkscape-stroke:none"
           d="m 19.422996,277.75526 0.0084,9.48795 11.841143,-21.35834 -21.3374544,11.87874 z"
           id="path1154" />
        <path
           style="color:#000000;fill:#000000;fill-rule:evenodd;-inkscape-stroke:none"
           d="m 33.572266,263.58008 -27.087891,15.08203 12.044922,-0.0117 0.0098,12.04492 z m -4.59961,4.60742 -8.65039,15.60156 -0.0059,-6.92969 -0.894531,0.002 -6.035156,0.006 z"
           id="path1158" />
      </g>
    </g>
    <path
       id="path2653"
       style="fill:#485a6c;stroke:#323232;stroke-width:4.35024;stroke-opacity:0.392157"
       transform="matrix(0.26458333,0,0,0.26458333,0,263.13332)"
       d="M 1,0 H 0 L 0.30901699,0.95105652 0,0 -0.80901699,0.58778525 0,0 -0.80901699,-0.58778525 0,0 0.30901699,-0.95105652 0,0 Z" />
    <path
       style="fill:#020000;fill-opacity:1;stroke:#000000;stroke-width:0.252517px;stroke-linecap:butt;stroke-linejoin:miter;stroke-opacity:1"
       d="m 1.078296,296.03262 19.807611,-25.23548 5.713733,5.14754 z"
       id="path2675"
       inkscape:connector-curvature="0"
       sodipodi:nodetypes="cccc" />
  </g>
</svg>
