<svg width="128" height="128" viewBox="0 0 128 128" fill="none" xmlns="http://www.w3.org/2000/svg">
<g clip-path="url(#clip0)">
<path opacity="0.6" d="M128.299 91.5994L112.653 93.7239L113.998 103.633L129.644 101.508L128.299 91.5994Z" fill="url(#paint0_radial)"/>
<path opacity="0.6" d="M10.7351 117.655L26.381 115.53L25.0354 105.621L9.38953 107.746L10.7351 117.655Z" fill="url(#paint1_radial)"/>
<path opacity="0.6" d="M112.653 93.7239L25.0354 105.621L26.3809 115.53L113.998 103.633L112.653 93.7239Z" fill="url(#paint2_linear)"/>
<path opacity="0.35" d="M122.89 96.3644L111.32 11.1524C111.32 11.1524 39.9743 20.8403 4.30164 25.6842C8.15884 54.0902 15.8733 110.902 15.8733 110.902L122.89 96.3644Z" stroke="black" stroke-width="2" stroke-linejoin="round"/>
<path d="M122.89 96.3644L111.32 11.1524C111.32 11.1524 39.9743 20.8403 4.30164 25.6842C8.15884 54.0902 15.8733 110.902 15.8733 110.902L122.89 96.3644Z" fill="url(#paint3_linear)"/>
<path opacity="0.4" d="M122.89 96.3644L111.32 11.1524C111.32 11.1524 39.9743 20.8403 4.30164 25.6842C8.15884 54.0902 15.8733 110.902 15.8733 110.902L122.89 96.3644Z" stroke="white" stroke-width="2" stroke-linejoin="round"/>
<path opacity="0.4" d="M4.30164 25.6842L4.57074 27.666L111.589 13.1342L111.32 11.1524L4.30164 25.6842Z" fill="white"/>
<path d="M19.2987 106.4L8.80347 29.1096L107.894 15.6543L118.389 92.9449L19.2987 106.4Z" fill="url(#paint4_linear)"/>
<path opacity="0.1" d="M35.336 31.2735C27.5515 32.3306 22.0453 39.567 23.1024 47.3515C24.1594 55.136 31.3959 60.6422 39.1804 59.5852C46.9649 58.5281 52.471 51.2916 51.414 43.5071C50.3569 35.7226 43.1205 30.2165 35.336 31.2735ZM36.1049 36.9359C40.8292 36.2943 45.1101 39.5517 45.7517 44.276C46.3932 49.0004 43.1358 53.2813 38.4115 53.9228C33.6871 54.5643 29.4062 51.307 28.7647 46.5827C28.1232 41.8583 31.3805 37.5774 36.1049 36.9359Z" fill="#FED8CD"/>
<path opacity="0.1" d="M34.9516 28.4424C25.637 29.7072 19.0064 38.4214 20.2712 47.736C21.536 57.0506 30.2503 63.6811 39.5648 62.4163C48.8794 61.1515 55.51 52.4373 54.2452 43.1227C52.9804 33.8081 44.2661 27.1776 34.9516 28.4424ZM36.4893 39.767C39.6836 39.3333 42.4868 41.4662 42.9205 44.6605C43.3543 47.8548 41.2214 50.6579 38.0271 51.0917C34.8328 51.5254 32.0296 49.3925 31.5959 46.1982C31.1621 43.0039 33.295 40.2008 36.4893 39.767Z" fill="#FED8CD"/>
<path opacity="0.1" d="M34.567 25.6112C23.7224 27.0838 15.9674 37.2758 17.44 48.1204C18.9126 58.9651 29.1045 66.7201 39.9492 65.2475C50.7938 63.7749 58.5488 53.5829 57.0762 42.7383C55.6036 31.8936 45.4117 24.1387 34.567 25.6112ZM36.8737 42.5982C38.5379 42.3722 39.8633 43.3807 40.0893 45.0449C40.3152 46.7091 39.3067 48.0345 37.6425 48.2605C35.9783 48.4865 34.6529 47.478 34.4269 45.8138C34.201 44.1496 35.2094 42.8242 36.8737 42.5982Z" fill="#FED8CD"/>
<path fill-rule="evenodd" clip-rule="evenodd" d="M35.7205 34.1048C41.9749 33.2555 47.7336 37.6372 48.5829 43.8917C49.4322 50.1461 45.0505 55.9048 38.796 56.7541C32.5416 57.6033 26.7829 53.2216 25.9336 46.9672C25.0844 40.7127 29.4661 34.954 35.7205 34.1048Z" fill="#FCE94F"/>
<path fill-rule="evenodd" clip-rule="evenodd" d="M33.3435 38.8967C41.0052 37.8563 48.0596 43.2239 49.1 50.8856C50.1403 58.5473 44.7727 65.6017 37.111 66.6421C29.4493 67.6824 22.3949 62.3148 21.3546 54.6531C20.3142 46.9914 25.6818 39.937 33.3435 38.8967Z" fill="#FCE94F"/>
<path d="M17.6072 93.9433L17.2227 91.1121C17.2227 91.1121 23.7277 85.4234 25.6808 84.7389C27.6339 84.0545 30.0519 84.0675 32.5526 84.1965C35.0532 84.3241 38.7777 84.4501 39.919 84.3346C41.0605 84.22 43.0976 83.8021 45.4668 83.3333C47.8363 82.8674 51.7739 82.2001 53.0095 82.0467C54.2432 81.8792 57.3461 81.6308 60.6562 81.3855C63.9665 81.1407 68.5212 80.8642 69.5571 80.8193C70.5929 80.7738 71.8189 80.7832 73.2092 80.7861C74.5993 80.7877 77.0004 80.7491 77.8467 80.7132C78.6929 80.6761 80.6669 80.6794 82.9433 80.5811C85.2197 80.4825 88.8273 80.0647 89.856 79.8471C90.8847 79.6296 92.9581 78.5644 95.2889 77.5256C97.6198 76.4871 100.208 75.4745 102.265 75.3586C104.323 75.2436 116.313 77.6564 116.313 77.6564L116.698 80.4876L101.834 82.5059L89.8017 84.1398L77.7693 85.7736L65.7369 87.4075L53.7044 89.0414L41.672 90.6752L29.6396 92.3091L17.6072 93.9433Z" fill="black"/>
<path opacity="0.9" d="M17.6072 93.9433L17.858 95.7906C17.858 95.7906 25.4217 97.8986 27.4672 97.8945C29.5127 97.8907 31.8555 97.3505 34.2531 96.7193C36.6507 96.089 40.236 95.1898 41.3687 95.0103C42.5009 94.8277 44.5696 94.642 46.971 94.4111C49.3725 94.1801 53.3393 93.728 54.5714 93.5491C55.8051 93.3816 58.8699 92.853 62.1352 92.277C65.4005 91.701 69.8797 90.8687 70.8945 90.6686C71.9091 90.4674 73.0968 90.1937 74.4447 89.8844C75.7929 89.5773 78.1306 89.0725 78.9595 88.9083C79.7884 88.7438 81.7028 88.308 83.9327 87.8674C86.1626 87.4262 89.7544 86.8923 90.8004 86.8022C91.8464 86.7121 94.0924 86.9174 96.5823 87.0505C99.0722 87.1835 101.806 87.2437 103.827 86.8625C105.849 86.4813 116.949 82.3369 116.949 82.3369L116.698 80.4899L101.834 82.5082L89.8021 84.142L77.7696 85.7759L65.7372 87.4098L53.7047 89.0436L41.6723 90.6775L29.6399 92.3114L17.6072 93.9433Z" fill="black"/>
<path opacity="0.3" d="M17.6072 93.9432L116.698 80.4878L117.851 88.9813L18.7605 102.437L17.6072 93.9432Z" fill="#4D585E"/>
<path opacity="0.2" d="M19.2987 106.4L8.80347 29.1096L107.894 15.6543L118.389 92.9449L19.2987 106.4Z" stroke="black" stroke-width="2"/>
<path opacity="0.6" d="M131.756 81.4678L116.933 85.8607L119.774 95.4485L134.598 91.0556L131.756 81.4678Z" fill="url(#paint5_radial)"/>
<path opacity="0.6" d="M21.9413 124.442L36.7645 120.049L33.9231 110.461L19.0999 114.854L21.9413 124.442Z" fill="url(#paint6_radial)"/>
<path opacity="0.6" d="M116.933 85.8607L33.9231 110.461L36.7645 120.049L119.774 95.4485L116.933 85.8607Z" fill="url(#paint7_linear)"/>
<path opacity="0.35" d="M127.258 86.9665L102.824 4.51692C102.824 4.51692 35.2302 24.5486 1.43335 34.5644C9.57868 62.0495 25.8694 117.02 25.8694 117.02L127.258 86.9665Z" stroke="black" stroke-width="2" stroke-linejoin="round"/>
<path d="M127.258 86.9665L102.824 4.51692C102.824 4.51692 35.2302 24.5486 1.43335 34.5644C9.57868 62.0495 25.8694 117.02 25.8694 117.02L127.258 86.9665Z" fill="url(#paint8_linear)"/>
<path opacity="0.4" d="M127.258 86.9665L102.824 4.51692C102.824 4.51692 35.2302 24.5486 1.43335 34.5644C9.57868 62.0495 25.8694 117.02 25.8694 117.02L127.258 86.9665Z" stroke="white" stroke-width="2" stroke-linejoin="round"/>
<path opacity="0.4" d="M1.43335 34.5644L2.00163 36.482L103.392 6.43448L102.824 4.51692L1.43335 34.5644Z" fill="white"/>
<path d="M28.4881 112.072L6.3252 37.2867L100.205 9.46495L122.368 84.25L28.4881 112.072Z" fill="url(#paint9_linear)"/>
<path opacity="0.1" d="M32.3577 35.5318C24.9826 37.7174 20.7732 45.6711 23.0054 53.2032C25.2376 60.7354 33.1008 65.1112 40.476 62.9256C47.8512 60.7399 52.0605 52.7863 49.8283 45.2541C47.5961 37.722 39.7329 33.3461 32.3577 35.5318ZM33.9814 41.0105C38.4573 39.6841 43.109 42.2727 44.4637 46.8439C45.8184 51.4152 43.3283 56.1204 38.8523 57.4468C34.3764 58.7733 29.7247 56.1846 28.37 51.6134C27.0153 47.0422 29.5054 42.337 33.9814 41.0105Z" fill="#FED8CD"/>
<path opacity="0.1" d="M31.5459 32.7924C22.7211 35.4076 17.6522 44.9855 20.3231 53.9981C22.994 63.0107 32.463 68.2802 41.2878 65.6649C50.1126 63.0497 55.1815 53.4718 52.5106 44.4592C49.8396 35.4466 40.3706 30.1771 31.5459 32.7924ZM34.7932 43.7499C37.8195 42.853 40.8655 44.5481 41.7814 47.6388C42.6974 50.7296 41.0668 53.8106 38.0405 54.7074C35.0142 55.6043 31.9682 53.9092 31.0523 50.8185C30.1363 47.7277 31.7669 44.6468 34.7932 43.7499Z" fill="#FED8CD"/>
<path opacity="0.1" d="M30.7339 30.053C20.4595 33.0979 14.531 44.3 17.6407 54.7931C20.7503 65.2861 31.8251 71.4492 42.0995 68.4044C52.3739 65.3595 58.3024 54.1574 55.1927 43.6644C52.083 33.1713 41.0083 27.0082 30.7339 30.053ZM35.6049 46.4893C37.1816 46.0221 38.6218 46.8235 39.099 48.4338C39.5762 50.0441 38.8052 51.5008 37.2285 51.9681C35.6518 52.4354 34.2116 51.6339 33.7344 50.0236C33.2572 48.4134 34.0282 46.9566 35.6049 46.4893Z" fill="#FED8CD"/>
<path fill-rule="evenodd" clip-rule="evenodd" d="M33.1696 38.2712C39.0951 36.5151 45.3526 39.9974 47.146 46.0491C48.9395 52.1008 45.5897 58.4302 39.6642 60.1863C33.7386 61.9423 27.4812 58.46 25.6877 52.4084C23.8943 46.3567 27.244 40.0273 33.1696 38.2712Z" fill="#FCE94F"/>
<path fill-rule="evenodd" clip-rule="evenodd" d="M31.6113 43.3519C38.8701 41.2007 46.5355 45.4665 48.7325 52.8798C50.9295 60.2931 46.826 68.0466 39.5673 70.1978C32.3085 72.349 24.6431 68.0832 22.4461 60.6699C20.2491 53.2566 24.3525 45.503 31.6113 43.3519Z" fill="#FCE94F"/>
<path d="M24.9161 100.019L24.1042 97.2792C24.1042 97.2792 29.5212 90.7074 31.3065 89.745C33.0918 88.7827 35.4356 88.4409 37.8776 88.2014C40.3192 87.9606 43.9459 87.5387 45.0334 87.2573C46.1211 86.9766 48.0292 86.2652 50.2509 85.4548C52.4735 84.6471 56.1834 83.4106 57.3563 83.0779C58.5251 82.7315 61.4917 82.0311 64.6595 81.3033C67.8274 80.5761 72.1958 79.6349 73.192 79.4386C74.1881 79.2418 75.377 79.0712 76.7239 78.8702C78.0705 78.6678 80.3899 78.2776 81.204 78.1179C82.0178 77.9572 83.9301 77.6709 86.1195 77.2399C88.3089 76.8086 91.738 75.8669 92.7005 75.5012C93.663 75.1355 95.5058 73.7794 97.6019 72.4117C99.6981 71.0443 102.047 69.6648 104.022 69.2485C105.997 68.8331 117.984 69.4571 117.984 69.4571L118.796 72.1965L104.714 76.3698L93.3143 79.7481L81.9146 83.1265L70.5149 86.5048L59.1151 89.8832L47.7154 93.2615L36.3157 96.6399L24.9161 100.019Z" fill="black"/>
<path opacity="0.9" d="M24.916 100.019L25.4457 101.806C25.4457 101.806 33.0984 102.778 35.0787 102.474C37.0592 102.17 39.2444 101.293 41.4684 100.318C43.6927 99.3441 47.0254 97.9303 48.0945 97.5869C49.1628 97.2405 51.1374 96.7537 53.4274 96.1734C55.7173 95.5931 59.4889 94.5648 60.6545 94.2074C61.8233 93.8611 64.7095 92.8895 67.7825 91.8417C70.8555 90.794 75.0645 89.3151 76.0162 88.9687C76.9676 88.6211 78.0753 88.1766 79.3328 87.6735C80.5908 87.1725 82.7765 86.3311 83.5539 86.0474C84.3311 85.7634 86.1175 85.0522 88.2088 84.29C90.2999 83.5272 93.6957 82.4732 94.6948 82.2308C95.6938 81.9883 97.9009 81.8617 100.333 81.6279C102.765 81.394 105.422 81.0524 107.321 80.3795C109.219 79.7066 119.326 73.9858 119.326 73.9858L118.797 72.1987L104.715 76.3719L93.3149 79.7503L81.9152 83.1287L70.5155 86.507L59.1157 89.8854L47.716 93.2637L36.3163 96.6421L24.916 100.019Z" fill="black"/>
<path opacity="0.3" d="M24.916 100.018L118.796 72.1967L121.232 80.4149L27.3515 108.237L24.916 100.018Z" fill="#4D585E"/>
<path opacity="0.2" d="M28.4881 112.072L6.3252 37.2867L100.205 9.46495L122.368 84.25L28.4881 112.072Z" stroke="black" stroke-width="2"/>
<path opacity="0.6" d="M129.605 88.3307L114.086 91.2395L115.928 101.068L131.447 98.1596L129.605 88.3307Z" fill="url(#paint10_radial)"/>
<path opacity="0.6" d="M13.501 120.266L29.0203 117.357L27.1781 107.528L11.6588 110.437L13.501 120.266Z" fill="url(#paint11_radial)"/>
<path opacity="0.6" d="M114.086 91.2395L27.1781 107.528L29.0203 117.357L115.928 101.068L114.086 91.2395Z" fill="url(#paint12_linear)"/>
<path opacity="0.35" d="M124.444 93.3618L108.602 8.8395C108.602 8.8395 37.8342 22.1032 2.45032 28.7351C7.73125 56.9111 18.2931 113.263 18.2931 113.263L124.444 93.3618Z" stroke="black" stroke-width="2" stroke-linejoin="round"/>
<path d="M124.444 93.3618L108.602 8.8395C108.602 8.8395 37.8342 22.1032 2.45032 28.7351C7.73125 56.9111 18.2931 113.263 18.2931 113.263L124.444 93.3618Z" fill="url(#paint13_linear)"/>
<path opacity="0.4" d="M124.444 93.3618L108.602 8.8395C108.602 8.8395 37.8342 22.1032 2.45032 28.7351C7.73125 56.9111 18.2931 113.263 18.2931 113.263L124.444 93.3618Z" stroke="white" stroke-width="2" stroke-linejoin="round"/>
<path opacity="0.4" d="M2.45032 28.7351L2.81875 30.7009L108.97 10.8053L108.602 8.8395L2.45032 28.7351Z" fill="white"/>
<path d="M21.4877 108.595L7.11865 31.9297L105.407 13.5079L119.776 90.1729L21.4877 108.595Z" fill="url(#paint14_linear)"/>
<path opacity="0.1" d="M33.7265 32.7566C26.005 34.2038 20.8698 41.708 22.317 49.4295C23.7642 57.1509 31.2684 62.2862 38.9899 60.839C46.7114 59.3918 51.8466 51.8876 50.3994 44.1661C48.9522 36.4446 41.448 31.3093 33.7265 32.7566ZM34.7792 38.373C39.4653 37.4947 43.9046 40.5326 44.7829 45.2187C45.6612 49.9049 42.6233 54.3442 37.9372 55.2225C33.2511 56.1008 28.8118 53.0629 27.9335 48.3768C27.0552 43.6907 30.0931 39.2513 34.7792 38.373Z" fill="#FED8CD"/>
<path opacity="0.1" d="M33.2 29.9483C23.9609 31.68 17.777 40.7166 19.5086 49.9558C21.2403 59.195 30.2769 65.3789 39.5161 63.6472C48.7553 61.9156 54.9392 52.8789 53.2075 43.6397C51.4759 34.4006 42.4392 28.2167 33.2 29.9483ZM35.3054 41.1813C38.4738 40.5875 41.3807 42.5767 41.9746 45.7451C42.5684 48.9135 40.5792 51.8204 37.4108 52.4143C34.2423 53.0081 31.3354 51.0189 30.7416 47.8505C30.1477 44.682 32.137 41.7751 35.3054 41.1813Z" fill="#FED8CD"/>
<path opacity="0.1" d="M32.6737 27.1401C21.9168 29.1562 14.6842 39.7253 16.7004 50.4821C18.7165 61.239 29.2856 68.4716 40.0424 66.4555C50.7993 64.4394 58.0319 53.8703 56.0158 43.1134C53.9997 32.3565 43.4306 25.1239 32.6737 27.1401ZM35.8317 43.9895C37.4825 43.6801 38.8569 44.6207 39.1663 46.2714C39.4757 47.9222 38.5351 49.2966 36.8844 49.606C35.2337 49.9154 33.8592 48.9748 33.5498 47.3241C33.2404 45.6734 34.181 44.2989 35.8317 43.9895Z" fill="#FED8CD"/>
<path fill-rule="evenodd" clip-rule="evenodd" d="M34.2529 35.5649C40.4567 34.4021 46.4284 38.4887 47.5912 44.6925C48.754 50.8963 44.6674 56.8681 38.4636 58.0308C32.2598 59.1936 26.288 55.107 25.1253 48.9032C23.9625 42.6994 28.0491 36.7276 34.2529 35.5649Z" fill="#FCE94F"/>
<path fill-rule="evenodd" clip-rule="evenodd" d="M32.1199 40.4702C39.7195 39.0458 47.035 44.0519 48.4593 51.6516C49.8837 59.2512 44.8777 66.5666 37.278 67.991C29.6783 69.4154 22.3629 64.4093 20.9386 56.8097C19.5142 49.21 24.5202 41.8946 32.1199 40.4702Z" fill="#FCE94F"/>
<path d="M19.1719 96.2386L18.6456 93.4303C18.6456 93.4303 24.8562 87.4217 26.7724 86.6399C28.6886 85.8581 31.1042 85.7495 33.6082 85.7525C36.1121 85.7542 39.8382 85.6927 40.9723 85.52C42.1065 85.3481 44.12 84.8282 46.4626 84.2409C48.8057 83.6564 52.7048 82.7919 53.9311 82.5766C55.1548 82.3473 58.2413 81.9432 61.5349 81.5317C64.8287 81.1207 69.3638 80.6155 70.396 80.5185C71.4282 80.421 72.6532 80.3687 74.0419 80.3018C75.4303 80.2334 77.8264 80.0741 78.6699 79.9957C79.5131 79.9161 81.4847 79.8201 83.7533 79.6074C86.0219 79.3944 89.6039 78.7957 90.6204 78.5267C91.6368 78.2577 93.6541 77.0896 95.9297 75.9349C98.2053 74.7805 100.739 73.639 102.788 73.4198C104.838 73.2014 116.934 75.0082 116.934 75.0082L117.46 77.8164L102.717 80.5797L90.7821 82.8167L78.847 85.0536L66.912 87.2905L54.977 89.5275L43.0419 91.7644L31.1069 94.0014L19.1719 96.2386Z" fill="black"/>
<path opacity="0.9" d="M19.1719 96.2386L19.5153 98.071C19.5153 98.071 27.1754 99.7959 29.2181 99.6889C31.2608 99.5822 33.5736 98.9249 35.9363 98.174C38.2993 97.4238 41.8347 96.3455 42.957 96.1093C44.0786 95.87 46.1353 95.5805 48.5221 95.229C50.9089 94.8776 54.8479 94.2265 56.0695 93.986C57.2932 93.7566 60.3276 93.0745 63.5597 92.335C66.7919 91.5955 71.2237 90.539 72.2271 90.2881C73.2303 90.0362 74.4027 89.7031 75.7333 89.3263C77.0644 88.9519 79.3737 88.3301 80.1934 88.1244C81.0129 87.9185 82.9029 87.3869 85.1079 86.8347C87.3128 86.2819 90.8732 85.5681 91.9133 85.4255C92.9535 85.2829 95.207 85.375 97.7004 85.3827C100.194 85.3903 102.927 85.3129 104.927 84.8305C106.927 84.3482 117.804 79.6508 117.804 79.6508L117.461 77.8187L102.717 80.582L90.7825 82.8189L78.8474 85.0559L66.9124 87.2928L54.9773 89.5297L43.0423 91.7667L31.1073 94.0036L19.1719 96.2386Z" fill="black"/>
<path opacity="0.3" d="M19.1719 96.2385L117.46 77.8167L119.039 86.2414L20.7509 104.663L19.1719 96.2385Z" fill="#4D585E"/>
<path opacity="0.2" d="M21.4877 108.595L7.11865 31.9297L105.407 13.5079L119.776 90.1729L21.4877 108.595Z" stroke="black" stroke-width="2"/>
<path opacity="0.6" d="M125.68 97.0404L109.909 97.8081L110.395 107.796L126.166 107.029L125.68 97.0404Z" fill="url(#paint15_radial)"/>
<path opacity="0.6" d="M6.30729 112.863L22.0781 112.095L21.592 102.107L5.82113 102.874L6.30729 112.863Z" fill="url(#paint16_radial)"/>
<path opacity="0.6" d="M109.909 97.8081L21.592 102.107L22.0782 112.095L110.395 107.796L109.909 97.8081Z" fill="url(#paint17_linear)"/>
<path opacity="0.35" d="M119.881 101.321L115.7 15.4291C115.7 15.4291 43.7851 18.9295 7.82764 20.6797C9.22132 49.3125 12.0087 106.578 12.0087 106.578L119.881 101.321Z" stroke="black" stroke-width="2" stroke-linejoin="round"/>
<path d="M119.881 101.321L115.7 15.4291C115.7 15.4291 43.7851 18.9295 7.82764 20.6797C9.22132 49.3125 12.0087 106.578 12.0087 106.578L119.881 101.321Z" fill="url(#paint18_linear)"/>
<path opacity="0.4" d="M119.881 101.321L115.7 15.4291C115.7 15.4291 43.7851 18.9295 7.82764 20.6797C9.22132 49.3125 12.0087 106.578 12.0087 106.578L119.881 101.321Z" stroke="white" stroke-width="2" stroke-linejoin="round"/>
<path opacity="0.4" d="M7.82764 20.6797L7.92487 22.6774L115.797 17.4267L115.7 15.4291L7.82764 20.6797Z" fill="white"/>
<path d="M15.8095 102.388L12.0173 24.4805L111.899 19.6188L115.691 97.5266L15.8095 102.388Z" fill="url(#paint19_linear)"/>
<path opacity="0.1" d="M38.2645 28.924C30.4179 29.306 24.3083 36.0407 24.6903 43.8874C25.0722 51.734 31.8069 57.8436 39.6536 57.4617C47.5003 57.0797 53.6098 50.345 53.2279 42.4983C52.846 34.6517 46.1112 28.5421 38.2645 28.924ZM38.5424 34.6316C43.3044 34.3998 47.2886 38.0141 47.5204 42.7761C47.7522 47.5382 44.1379 51.5224 39.3758 51.7541C34.6137 51.9859 30.6296 48.3716 30.3978 43.6096C30.166 38.8475 33.7803 34.8634 38.5424 34.6316Z" fill="#FED8CD"/>
<path opacity="0.1" d="M38.1255 26.0703C28.7366 26.5273 21.3794 34.6373 21.8364 44.0263C22.2934 53.4152 30.4034 60.7724 39.7924 60.3154C49.1813 59.8584 56.5385 51.7483 56.0815 42.3594C55.6245 32.9705 47.5145 25.6133 38.1255 26.0703ZM38.6811 37.4853C41.9009 37.3286 44.5098 39.6952 44.6665 42.915C44.8232 46.1348 42.4565 48.7436 39.2368 48.9004C36.017 49.0571 33.4081 46.6904 33.2514 43.4706C33.0947 40.2509 35.4613 37.642 38.6811 37.4853Z" fill="#FED8CD"/>
<path opacity="0.1" d="M37.9866 23.2165C27.0554 23.7486 18.4505 33.234 18.9826 44.1652C19.5147 55.0964 29 63.7013 39.9313 63.1692C50.8625 62.6371 59.4674 53.1517 58.9353 42.2205C58.4032 31.2893 48.9178 22.6844 37.9866 23.2165ZM38.82 40.3391C40.4975 40.2574 41.7311 41.3764 41.8127 43.0539C41.8944 44.7314 40.7753 45.965 39.0978 46.0466C37.4203 46.1283 36.1868 45.0093 36.1052 43.3318C36.0235 41.6543 37.1425 40.4207 38.82 40.3391Z" fill="#FED8CD"/>
<path fill-rule="evenodd" clip-rule="evenodd" d="M38.4035 31.7778C44.7078 31.471 50.0673 36.3329 50.3741 42.6373C50.681 48.9416 45.8191 54.3011 39.5147 54.608C33.2103 54.9148 27.8509 50.0529 27.544 43.7485C27.2372 37.4442 32.0991 32.0847 38.4035 31.7778Z" fill="#FCE94F"/>
<path fill-rule="evenodd" clip-rule="evenodd" d="M35.6222 36.347C43.3451 35.9711 49.9104 41.9269 50.2863 49.6498C50.6622 57.3726 44.7064 63.938 36.9835 64.3139C29.2607 64.6898 22.6953 58.7339 22.3194 51.0111C21.9435 43.2882 27.8994 36.7229 35.6222 36.347Z" fill="#FCE94F"/>
<path d="M15.1983 89.8318L15.0594 86.978C15.0594 86.978 22.0306 81.8713 24.0354 81.3578C26.0403 80.8443 28.4482 81.0658 30.9285 81.4099C33.4088 81.7526 37.1085 82.1993 38.2555 82.1826C39.4027 82.1668 41.4682 81.9261 43.869 81.6634C46.2698 81.4035 50.2503 81.0782 51.4945 81.0319C52.7381 80.9714 55.8508 80.9915 59.1698 81.0325C62.4888 81.074 67.0505 81.1912 68.0863 81.2358C69.1222 81.2798 70.3428 81.3948 71.7277 81.5177C73.1125 81.6391 75.5079 81.8077 76.3542 81.8448C77.2005 81.8809 79.1668 82.0544 81.4432 82.1527C83.7197 82.2507 87.3498 82.1455 88.3935 82.0174C89.4371 81.8894 91.5947 81.0069 94.0063 80.173C96.418 79.3393 99.0838 78.5536 101.144 78.6155C103.203 78.6783 114.941 82.116 114.941 82.116L115.08 84.9698L100.098 85.6991L87.9693 86.2894L75.8408 86.8798L63.7123 87.4701L51.5838 88.0605L39.4553 88.6508L27.3268 89.2412L15.1983 89.8318Z" fill="black"/>
<path opacity="0.9" d="M15.1982 89.8318L15.2889 91.6939C15.2889 91.6939 22.6426 94.4462 24.6808 94.6184C26.7191 94.791 29.0998 94.4548 31.5428 94.0327C33.9859 93.6114 37.6353 93.0247 38.7792 92.9436C39.923 92.8593 42 92.8526 44.4124 92.8296C46.8248 92.8066 50.8158 92.6981 52.0588 92.6262C53.3023 92.5657 56.4013 92.3033 59.7041 92.0109C63.0069 91.7186 67.5412 91.2756 68.5695 91.1638C69.5977 91.0508 70.8045 90.8805 72.174 90.6885C73.5437 90.4989 75.9162 90.1975 76.7562 90.1054C77.5962 90.013 79.541 89.7438 81.8006 89.4971C84.0603 89.2498 87.6848 89.0276 88.7346 89.028C89.7845 89.0284 92.0044 89.4267 94.4736 89.7739C96.9427 90.1211 99.6612 90.4167 101.708 90.2113C103.755 90.0058 115.171 86.8339 115.171 86.8339L115.08 84.9721L100.098 85.7013L87.9693 86.2917L75.8408 86.882L63.7123 87.4724L51.5838 88.0627L39.4553 88.6531L27.3268 89.2434L15.1982 89.8318Z" fill="black"/>
<path opacity="0.3" d="M15.1982 89.8317L115.08 84.97L115.497 93.5313L15.615 98.393L15.1982 89.8317Z" fill="#4D585E"/>
<path opacity="0.2" d="M15.8095 102.388L12.0173 24.4805L111.899 19.6188L115.691 97.5266L15.8095 102.388Z" stroke="black" stroke-width="2"/>
<path opacity="0.6" d="M124 100H108.211V110H124V100Z" fill="url(#paint20_radial)"/>
<path opacity="0.6" d="M3.99993 110H19.7894V100H3.99993V110Z" fill="url(#paint21_radial)"/>
<path opacity="0.6" d="M108.211 100H19.7894V110H108.211V100Z" fill="url(#paint22_linear)"/>
<path opacity="0.35" d="M118 103.994L118 18C118 18 46 18 10 18C10 46.6666 10 104 10 104L118 103.994Z" stroke="black" stroke-width="2" stroke-linejoin="round"/>
<path d="M118 103.994L118 18C118 18 46 18 10 18C10 46.6666 10 104 10 104L118 103.994Z" fill="url(#paint23_linear)"/>
<path opacity="0.4" d="M118 103.994L118 18C118 18 46 18 10 18C10 46.6666 10 104 10 104L118 103.994Z" stroke="white" stroke-width="2" stroke-linejoin="round"/>
<path opacity="0.4" d="M10 18V20H118V18H10Z" fill="white"/>
<path d="M14 100V22H114V100H14Z" fill="url(#paint24_linear)"/>
<path opacity="0.1" d="M40.0001 27.7143C32.1441 27.7143 25.7144 34.1441 25.7144 42C25.7144 49.8559 32.1441 56.2857 40.0001 56.2857C47.856 56.2857 54.2858 49.8559 54.2858 42C54.2858 34.1441 47.856 27.7143 40.0001 27.7143ZM40.0001 33.4286C44.7678 33.4286 48.5715 37.2323 48.5715 42C48.5715 46.7677 44.7678 50.5714 40.0001 50.5714C35.2324 50.5714 31.4286 46.7677 31.4286 42C31.4286 37.2323 35.2324 33.4286 40.0001 33.4286Z" fill="#FED8CD"/>
<path opacity="0.1" d="M40 24.8571C30.6 24.8571 22.8572 32.5999 22.8572 42C22.8572 51.4001 30.6 59.1429 40 59.1429C49.4001 59.1429 57.1429 51.4001 57.1429 42C57.1429 32.5999 49.4001 24.8571 40 24.8571ZM40 36.2857C43.2236 36.2857 45.7143 38.7764 45.7143 42C45.7143 45.2236 43.2236 47.7143 40 47.7143C36.7764 47.7143 34.2858 45.2236 34.2858 42C34.2858 38.7764 36.7764 36.2857 40 36.2857Z" fill="#FED8CD"/>
<path opacity="0.1" d="M40 22C29.0558 22 20 31.0558 20 42C20 52.9442 29.0558 62 40 62C50.9442 62 60 52.9442 60 42C60 31.0558 50.9442 22 40 22ZM40 39.1429C41.6795 39.1429 42.8571 40.3205 42.8571 42C42.8571 43.6795 41.6795 44.8571 40 44.8571C38.3205 44.8571 37.1429 43.6795 37.1429 42C37.1429 40.3205 38.3205 39.1429 40 39.1429Z" fill="#FED8CD"/>
<path fill-rule="evenodd" clip-rule="evenodd" d="M40.0001 30.5715C46.3119 30.5715 51.4287 35.6882 51.4287 42.0001C51.4287 48.3119 46.3119 53.4287 40.0001 53.4287C33.6883 53.4287 28.5715 48.3119 28.5715 42.0001C28.5715 35.6882 33.6883 30.5715 40.0001 30.5715Z" fill="#FCE94F"/>
<path fill-rule="evenodd" clip-rule="evenodd" d="M37 35C44.732 35 51 41.268 51 49C51 56.732 44.732 63 37 63C29.268 63 23 56.732 23 49C23 41.268 29.268 35 37 35Z" fill="#FCE94F"/>
<path d="M14 87.4286V84.5715C14 84.5715 21.2113 79.8098 23.2387 79.3943C25.2661 78.9789 27.6603 79.3172 30.121 79.7815C32.5817 80.2443 36.2553 80.8703 37.4018 80.9095C38.5484 80.9495 40.6232 80.8095 43.0339 80.6638C45.4445 80.5209 49.4361 80.3895 50.6811 80.4038C51.9261 80.4038 55.0342 80.5752 58.3473 80.7775C61.6604 80.9803 66.2109 81.3192 67.2434 81.414C68.2759 81.5083 69.4895 81.6826 70.8668 81.8726C72.244 82.0612 74.6284 82.346 75.4719 82.4243C76.3154 82.5015 78.271 82.7703 80.5399 82.9792C82.8089 83.1878 86.4399 83.2592 87.4885 83.182C88.5371 83.1049 90.735 82.3283 93.1844 81.6126C95.6338 80.8972 98.3346 80.242 100.389 80.404C102.443 80.5669 114 84.5712 114 84.5712V87.4283H99H86.8571H74.7143H62.5714H50.4286H38.2857H26.1429L14 87.4286Z" fill="black"/>
<path opacity="0.9" d="M14 87.4286V89.2929C14 89.2929 21.2113 92.3995 23.2387 92.6706C25.2661 92.9421 27.6603 92.722 30.121 92.4192C32.5817 92.1172 36.2553 91.7086 37.4018 91.6832C38.5484 91.6546 40.6232 91.7489 43.0339 91.8432C45.4445 91.9375 49.4361 92.0232 50.6811 92.0118C51.9261 92.0118 55.0342 91.9003 58.3473 91.7689C61.6604 91.6375 66.2109 91.4155 67.2434 91.3538C68.2759 91.2909 69.4895 91.1795 70.8668 91.0543C72.244 90.9315 74.6284 90.7458 75.4719 90.6946C76.3154 90.6432 78.271 90.4689 80.5399 90.3323C82.8089 90.1952 86.4399 90.1495 87.4885 90.2009C88.5371 90.2523 90.735 90.7581 93.1844 91.2249C95.6338 91.6918 98.3346 92.1192 100.389 92.0135C102.443 91.9078 114 89.2946 114 89.2946V87.4306H99H86.8571H74.7143H62.5714H50.4286H38.2857H26.1429L14 87.4286Z" fill="black"/>
<path opacity="0.3" d="M14 87.4286H114V96H14V87.4286Z" fill="#4D585E"/>
<path opacity="0.2" d="M14 100V22H114V100H14Z" stroke="black" stroke-width="2"/>
<path d="M67 46H70.8631H67ZM71.4296 46H75.0352H71.4296ZM75.6018 46H78.7952H75.6018ZM79.3103 46H80.701H79.3103ZM81.2676 46H84.358H81.2676ZM84.9761 46H93.1143H84.9761ZM93.6294 46H99.8618H93.6294ZM100.377 46H102.283H100.377ZM67 47H73.0264H67ZM73.696 47H76.5804H73.696ZM77.0955 47H78.5377H77.0955ZM79.1043 47H81.7312H79.1043ZM82.2977 47H84.9761H82.2977ZM85.4912 47H89.7663H85.4912ZM90.3329 47H95.8957H90.3329ZM96.4108 47H100.119H96.4108ZM100.634 47H101.562H100.634ZM67 47.9925H72.0992H67ZM72.6143 47.9925H80.9585H72.6143ZM81.4736 47.9925H85.5427H81.4736ZM86.0578 47.9925H89.8693H86.0578ZM90.3844 47.9925H93.6294H90.3844ZM94.1445 47.9925L99.2437 48.0075L94.1445 47.9925ZM99.7073 48.0075H108H99.7073ZM67 49H74.0565H67ZM74.6231 49H82.2462H74.6231ZM82.7613 49H85.8003H82.7613ZM86.3153 49H93.4749H86.3153ZM93.9384 49H98.8317H93.9384ZM99.3982 49H101.356H99.3982ZM101.871 49H102.952H101.871ZM103.519 49H106.558H103.519ZM67 50H69.6269H67ZM70.451 50H80.1859H70.451ZM67 51.9925H72.0992H67ZM72.6143 51.9925H80.9585H72.6143ZM81.4736 51.9925H85.5427H81.4736ZM86.0578 51.9925H89.8693H86.0578ZM90.3844 51.9925H93.6294H90.3844ZM94.1445 51.9925L99.2437 52.0075L94.1445 51.9925ZM99.7073 52.0075H108H99.7073ZM67 53H73.4899H67ZM74.005 53H80.9585H74.005ZM81.4736 53H84.152H81.4736ZM84.6671 53H91.2085H84.6671ZM91.7236 53H99.9648H91.7236ZM100.531 53H103.57H100.531ZM67 54H74.0565H67ZM74.6231 54H82.2462H74.6231ZM82.7613 54H85.8003H82.7613ZM86.3153 54H93.4749H86.3153ZM93.9384 54H98.8317H93.9384ZM99.3982 54H101.356H99.3982ZM101.871 54H102.952H101.871ZM103.519 54H106.558H103.519ZM67 55H73.0264H67ZM73.696 55H76.5804H73.696ZM77.0955 55H78.5377H77.0955ZM79.1043 55H81.7312H79.1043ZM82.2977 55H84.9761H82.2977ZM85.4912 55H89.7663H85.4912ZM90.3329 55H95.8957H90.3329ZM96.4108 55H100.119H96.4108ZM100.634 55H101.562H100.634ZM67 56.9925H72.0992H67ZM72.6143 56.9925H80.9585H72.6143ZM81.4736 56.9925H85.5427H81.4736ZM86.0578 56.9925H89.8693H86.0578ZM90.3844 56.9925H93.6294H90.3844ZM94.1445 56.9925L99.2437 57.0075L94.1445 56.9925ZM99.7073 57.0075H108H99.7073ZM67 58H73.0264H67ZM73.696 58H76.5804H73.696ZM77.0955 58H78.5377H77.0955ZM79.1043 58H81.7312H79.1043ZM82.2977 58H84.9761H82.2977ZM85.4912 58H89.7663H85.4912ZM90.3329 58H95.8957H90.3329ZM96.4108 58H100.119H96.4108ZM100.634 58H101.562H100.634ZM67 59H73.3869H67ZM73.9535 59H75.9623H73.9535ZM76.4774 59H81.0616H76.4774ZM81.5766 59H88.3241H81.5766ZM88.8907 59H93.4749H88.8907ZM93.9384 59H94.9171H93.9384ZM95.4322 59H101.253H95.4322ZM101.871 59H104.91H101.871ZM67 60H73.3869H67ZM73.9535 60H76.8379H73.9535ZM77.353 60H81.8857H77.353ZM82.4008 60H87.294H82.4008ZM87.8606 60H89.8178H87.8606ZM90.3329 60H91.4146H90.3329ZM91.9812 60H95.0201H91.9812Z" stroke="url(#paint25_linear)"/>
<path d="M67 63H69.544H67ZM69.9171 63H72.2915H69.9171ZM72.6646 63H74.7676H72.6646ZM75.1068 63H76.0226H75.1068ZM76.3957 63H78.4309H76.3957ZM78.8379 63H84.1972H78.8379ZM84.5364 63H88.6407H84.5364ZM88.9799 63H90.2349H88.9799ZM67 64H70.9686H67ZM71.4095 64H73.309H71.4095ZM73.6482 64H74.598H73.6482ZM74.9711 64H76.701H74.9711ZM77.0741 64H78.8379H77.0741ZM79.1771 64H81.9925H79.1771ZM82.3656 64H86.0289H82.3656ZM86.3681 64H88.8103H86.3681ZM89.1495 64H89.7601H89.1495ZM67 64.9925H70.358H67ZM70.6972 64.9925H76.1922H70.6972ZM76.5314 64.9925H79.2111H76.5314ZM79.5503 64.9925H82.0603H79.5503ZM82.3995 64.9925H84.5364H82.3995ZM84.8756 64.9925L88.2337 65.0075L84.8756 64.9925ZM88.5389 65.0075H94H88.5389ZM67 66H71.647H67ZM72.0201 66H77.0402H72.0201ZM77.3794 66H79.3807H77.3794ZM79.7199 66H84.4347H79.7199ZM84.74 66H87.9623H84.74ZM88.3354 66H89.6244H88.3354ZM89.9636 66H90.6759H89.9636ZM91.049 66H93.0503H91.049ZM67 67H68.7299H67ZM69.2726 67H75.6834H69.2726ZM67 68.9925H70.358H67ZM70.6972 68.9925H76.1922H70.6972ZM76.5314 68.9925H79.2111H76.5314ZM79.5503 68.9925H82.0603H79.5503ZM82.3995 68.9925H84.5364H82.3995ZM84.8756 68.9925L88.2337 69.0075L84.8756 68.9925ZM88.5389 69.0075H94H88.5389ZM67 70H71.2739H67ZM71.6131 70H76.1922H71.6131ZM76.5314 70H78.2952H76.5314ZM78.6344 70H82.9422H78.6344ZM83.2814 70H88.7085H83.2814ZM89.0817 70H91.0829H89.0817ZM67 71H71.647H67ZM72.0201 71H77.0402H72.0201ZM77.3794 71H79.3807H77.3794ZM79.7199 71H84.4347H79.7199ZM84.74 71H87.9623H84.74ZM88.3354 71H89.6244H88.3354ZM89.9636 71H90.6759H89.9636ZM91.049 71H93.0503H91.049ZM67 72H70.9686H67ZM71.4095 72H73.309H71.4095ZM73.6482 72H74.598H73.6482ZM74.9711 72H76.701H74.9711ZM77.0741 72H78.8379H77.0741ZM79.1771 72H81.9925H79.1771ZM82.3656 72H86.0289H82.3656ZM86.3681 72H88.8103H86.3681ZM89.1495 72H89.7601H89.1495ZM67 73.9925H70.358H67ZM70.6972 73.9925H76.1922H70.6972ZM76.5314 73.9925H79.2111H76.5314ZM79.5503 73.9925H82.0603H79.5503ZM82.3995 73.9925H84.5364H82.3995ZM84.8756 73.9925L88.2337 74.0075L84.8756 73.9925ZM88.5389 74.0075H94H88.5389ZM67 75H70.9686H67ZM71.4095 75H73.309H71.4095ZM73.6482 75H74.598H73.6482ZM74.9711 75H76.701H74.9711ZM77.0741 75H78.8379H77.0741ZM79.1771 75H81.9925H79.1771ZM82.3656 75H86.0289H82.3656ZM86.3681 75H88.8103H86.3681ZM89.1495 75H89.7601H89.1495ZM67 76H71.206H67ZM71.5791 76H72.902H71.5791ZM73.2412 76H76.2601H73.2412ZM76.5992 76H81.0427H76.5992ZM81.4158 76H84.4347H81.4158ZM84.74 76H85.3844H84.74ZM85.7236 76H89.5565H85.7236ZM89.9636 76H91.9648H89.9636ZM67 77H71.206H67ZM71.5791 77H73.4786H71.5791ZM73.8178 77H76.8028H73.8178ZM77.142 77H80.3643H77.142ZM80.7374 77H82.0264H80.7374ZM82.3656 77H83.0779H82.3656ZM83.451 77H85.4523H83.451Z" stroke="url(#paint26_linear)"/>
<path opacity="0.6" d="M95 62H66V78H95V62Z" fill="#FCE94F"/>
<path fill-rule="evenodd" clip-rule="evenodd" d="M92 56.2562L103.711 68L124.204 47.4483C125.995 45.9689 124.204 44.5123 124.204 44.5123L115.421 35.7045C115.421 35.7045 114.074 34.1194 112.493 35.7045L92 56.2562Z" stroke="#BF830A" stroke-width="2" stroke-linejoin="round"/>
<path fill-rule="evenodd" clip-rule="evenodd" d="M92 56.2729L103.677 68L124.113 47.4775C126.109 46.0002 124.113 44.5457 124.113 44.5457L115.355 35.7504C115.355 35.7504 113.906 34.0621 112.435 35.7504L92 56.2729Z" fill="url(#paint27_linear)"/>
<path fill-rule="evenodd" clip-rule="evenodd" d="M91.3893 57.3591V62.9708L96.9822 68.5825H102.575L91.3893 57.3591Z" stroke="#838383" stroke-width="2" stroke-linejoin="round"/>
<path fill-rule="evenodd" clip-rule="evenodd" d="M91.3893 57.3591V62.9708L96.9822 68.5825H102.575L91.3893 57.3591Z" fill="#CECECE"/>
<path fill-rule="evenodd" clip-rule="evenodd" d="M85 72.1942H90.5929L93.3893 69.3884L90.5929 66.5825L85 72.1942Z" stroke="#BF830A" stroke-width="2" stroke-linejoin="round"/>
<path fill-rule="evenodd" clip-rule="evenodd" d="M91.6901 65.0397L89.5928 67.5825L92.3892 70.3884L94.7487 68.547L91.6901 65.0397Z" stroke="#838383" stroke-width="2"/>
<path opacity="0.1" d="M104.449 76C113.908 76 121.577 74.6653 121.577 73.0188C121.577 71.3723 113.908 70.0376 104.449 70.0376C94.9892 70.0376 87.3207 71.3723 87.3207 73.0188C87.3207 74.6653 94.9892 76 104.449 76Z" fill="url(#paint28_radial)"/>
<path fill-rule="evenodd" clip-rule="evenodd" d="M91.6901 65.0397L89.5928 67.5825L92.3892 70.3884L94.7487 68.547L91.6901 65.0397Z" fill="#CECECE"/>
<path fill-rule="evenodd" clip-rule="evenodd" d="M85 72.1942H90.5929L93.3893 69.3884L90.5929 66.5825L85 72.1942Z" fill="#FCE94F"/>
<path opacity="0.5" d="M96.194 54.7275L113.584 37.2787" stroke="white" stroke-linecap="round"/>
<path opacity="0.5" d="M92.2239 62.5499L92.209 59.3818" stroke="white" stroke-linecap="round"/>
<path opacity="0.1" d="M105.108 63.8738L122.498 46.4249" stroke="black" stroke-linecap="round"/>
<path opacity="0.1" d="M97.8463 67.1172L100.284 68.0043" stroke="black" stroke-linecap="round"/>
<path d="M49.2062 73.1927C49.2067 73.7747 48.8266 74.3511 48.0878 74.8888C47.349 75.4266 46.2658 75.9152 44.9001 76.3268C43.5345 76.7383 41.9131 77.0648 40.1286 77.2876C38.3442 77.5103 36.4315 77.625 34.5 77.625C32.5684 77.625 30.6557 77.5103 28.8713 77.2876C27.0868 77.0648 25.4654 76.7383 24.0998 76.3268C22.7341 75.9152 21.6509 75.4266 20.9121 74.8888C20.1733 74.3511 19.7932 73.7747 19.7937 73.1927C19.7932 72.6107 20.1733 72.0344 20.9121 71.4967C21.6509 70.9589 22.7341 70.4703 24.0998 70.0587C25.4654 69.6472 27.0868 69.3207 28.8713 69.0979C30.6557 68.8751 32.5684 68.7605 34.5 68.7605C36.4315 68.7605 38.3442 68.8751 40.1286 69.0979C41.9131 69.3207 43.5345 69.6472 44.9001 70.0587C46.2658 70.4703 47.349 70.9589 48.0878 71.4967C48.8266 72.0344 49.2067 72.6107 49.2062 73.1927Z" fill="url(#paint29_radial)" fill-opacity="0.5"/>
<path d="M34.5 36.0004C24.2924 36.0004 16 44.2927 16 54.5003C16 64.7079 24.2924 73.0002 34.5 73.0002C44.7077 73.0002 53 64.7079 53 54.5003C53 44.2927 44.7077 36.0004 34.5 36.0004Z" fill="url(#paint30_radial)" fill-opacity="0.5"/>
<path opacity="0.75" d="M34.4987 47.1796C39.8095 47.1796 44.1147 45.1952 44.1147 42.7473C44.1147 40.2994 39.8095 38.315 34.4987 38.315C29.1879 38.315 24.8827 40.2994 24.8827 42.7473C24.8827 45.1952 29.1879 47.1796 34.4987 47.1796Z" fill="url(#paint31_linear)"/>
<path opacity="0.25" d="M34.4999 36C24.2924 36 16 44.2923 16 54.5C16 64.7077 24.2924 73 34.4999 73C44.7076 73 53 64.7077 53 54.5C53 44.2923 44.7076 36 34.4999 36V36Z" stroke="black" stroke-width="0.999995" stroke-linecap="round" stroke-linejoin="round"/>
</g>
<defs>
<radialGradient id="paint0_radial" cx="0" cy="0" r="1" gradientUnits="userSpaceOnUse" gradientTransform="translate(113.303 98.6814) rotate(-7.73281) scale(15.8194 5)">
<stop stop-color="#181818"/>
<stop offset="1" stop-color="#181818" stop-opacity="0"/>
</radialGradient>
<radialGradient id="paint1_radial" cx="0" cy="0" r="1" gradientUnits="userSpaceOnUse" gradientTransform="translate(25.7302 110.573) rotate(172.267) scale(15.8194 5)">
<stop stop-color="#181818"/>
<stop offset="1" stop-color="#181818" stop-opacity="0"/>
</radialGradient>
<linearGradient id="paint2_linear" x1="73.5058" y1="109.171" x2="72.1548" y2="99.2222" gradientUnits="userSpaceOnUse">
<stop stop-color="#181818" stop-opacity="0"/>
<stop offset="0.5" stop-color="#181818"/>
<stop offset="1" stop-color="#181818" stop-opacity="0"/>
</linearGradient>
<linearGradient id="paint3_linear" x1="72.2078" y1="124.445" x2="54.9849" y2="-2.39073" gradientUnits="userSpaceOnUse">
<stop stop-color="#EDEDED"/>
<stop offset="1" stop-color="white"/>
</linearGradient>
<linearGradient id="paint4_linear" x1="51.4779" y1="95.6484" x2="39.5645" y2="7.91299" gradientUnits="userSpaceOnUse">
<stop stop-color="#16538C"/>
<stop offset="0.362069" stop-color="#3594CA"/>
<stop offset="1" stop-color="#4EDFF3"/>
</linearGradient>
<radialGradient id="paint5_radial" cx="0" cy="0" r="1" gradientUnits="userSpaceOnUse" gradientTransform="translate(118.333 90.6608) rotate(-16.5074) scale(15.4897 5)">
<stop stop-color="#181818"/>
<stop offset="1" stop-color="#181818" stop-opacity="0"/>
</radialGradient>
<radialGradient id="paint6_radial" cx="0" cy="0" r="1" gradientUnits="userSpaceOnUse" gradientTransform="translate(35.3646 115.249) rotate(163.493) scale(15.4897 5)">
<stop stop-color="#181818"/>
<stop offset="1" stop-color="#181818" stop-opacity="0"/>
</radialGradient>
<linearGradient id="paint7_linear" x1="81.4176" y1="106.857" x2="78.5647" y2="97.2305" gradientUnits="userSpaceOnUse">
<stop stop-color="#181818" stop-opacity="0"/>
<stop offset="0.5" stop-color="#181818"/>
<stop offset="1" stop-color="#181818" stop-opacity="0"/>
</linearGradient>
<linearGradient id="paint8_linear" x1="82.5315" y1="122.13" x2="46.1616" y2="-0.593772" gradientUnits="userSpaceOnUse">
<stop stop-color="#EDEDED"/>
<stop offset="1" stop-color="white"/>
</linearGradient>
<linearGradient id="paint9_linear" x1="57.9845" y1="96.7342" x2="32.8266" y2="11.843" gradientUnits="userSpaceOnUse">
<stop stop-color="#16538C"/>
<stop offset="0.362069" stop-color="#3594CA"/>
<stop offset="1" stop-color="#4EDFF3"/>
</linearGradient>
<radialGradient id="paint10_radial" cx="0" cy="0" r="1" gradientUnits="userSpaceOnUse" gradientTransform="translate(114.985 96.158) rotate(-10.6156) scale(15.8194 5)">
<stop stop-color="#181818"/>
<stop offset="1" stop-color="#181818" stop-opacity="0"/>
</radialGradient>
<radialGradient id="paint11_radial" cx="0" cy="0" r="1" gradientUnits="userSpaceOnUse" gradientTransform="translate(28.121 112.439) rotate(169.384) scale(15.8194 5)">
<stop stop-color="#181818"/>
<stop offset="1" stop-color="#181818" stop-opacity="0"/>
</radialGradient>
<linearGradient id="paint12_linear" x1="75.7657" y1="108.636" x2="73.9161" y2="98.7675" gradientUnits="userSpaceOnUse">
<stop stop-color="#181818" stop-opacity="0"/>
<stop offset="0.5" stop-color="#181818"/>
<stop offset="1" stop-color="#181818" stop-opacity="0"/>
</linearGradient>
<linearGradient id="paint13_linear" x1="75.2375" y1="123.956" x2="51.6575" y2="-1.85329" gradientUnits="userSpaceOnUse">
<stop stop-color="#EDEDED"/>
<stop offset="1" stop-color="white"/>
</linearGradient>
<linearGradient id="paint14_linear" x1="53.0855" y1="96.2381" x2="36.7747" y2="9.21289" gradientUnits="userSpaceOnUse">
<stop stop-color="#16538C"/>
<stop offset="0.362069" stop-color="#3594CA"/>
<stop offset="1" stop-color="#4EDFF3"/>
</linearGradient>
<radialGradient id="paint15_radial" cx="0" cy="0" r="1" gradientUnits="userSpaceOnUse" gradientTransform="translate(110.13 102.803) rotate(-2.78664) scale(15.8194 5)">
<stop stop-color="#181818"/>
<stop offset="1" stop-color="#181818" stop-opacity="0"/>
</radialGradient>
<radialGradient id="paint16_radial" cx="0" cy="0" r="1" gradientUnits="userSpaceOnUse" gradientTransform="translate(21.8572 107.1) rotate(177.213) scale(15.8194 5)">
<stop stop-color="#181818"/>
<stop offset="1" stop-color="#181818" stop-opacity="0"/>
</radialGradient>
<linearGradient id="paint17_linear" x1="69.5759" y1="109.823" x2="69.0877" y2="99.7942" gradientUnits="userSpaceOnUse">
<stop stop-color="#181818" stop-opacity="0"/>
<stop offset="0.5" stop-color="#181818"/>
<stop offset="1" stop-color="#181818" stop-opacity="0"/>
</linearGradient>
<linearGradient id="paint18_linear" x1="66.9658" y1="124.928" x2="60.7428" y2="-2.92076" gradientUnits="userSpaceOnUse">
<stop stop-color="#EDEDED"/>
<stop offset="1" stop-color="white"/>
</linearGradient>
<linearGradient id="paint19_linear" x1="48.7959" y1="94.4509" x2="44.4913" y2="6.01504" gradientUnits="userSpaceOnUse">
<stop stop-color="#16538C"/>
<stop offset="0.362069" stop-color="#3594CA"/>
<stop offset="1" stop-color="#4EDFF3"/>
</linearGradient>
<radialGradient id="paint20_radial" cx="0" cy="0" r="1" gradientUnits="userSpaceOnUse" gradientTransform="translate(108.188 105) scale(15.8194 5)">
<stop stop-color="#181818"/>
<stop offset="1" stop-color="#181818" stop-opacity="0"/>
</radialGradient>
<radialGradient id="paint21_radial" cx="0" cy="0" r="1" gradientUnits="userSpaceOnUse" gradientTransform="translate(19.8116 105) rotate(180) scale(15.8194 5)">
<stop stop-color="#181818"/>
<stop offset="1" stop-color="#181818" stop-opacity="0"/>
</radialGradient>
<linearGradient id="paint22_linear" x1="67.3414" y1="110.04" x2="67.3414" y2="99.9992" gradientUnits="userSpaceOnUse">
<stop stop-color="#181818" stop-opacity="0"/>
<stop offset="0.5" stop-color="#181818"/>
<stop offset="1" stop-color="#181818" stop-opacity="0"/>
</linearGradient>
<linearGradient id="paint23_linear" x1="64" y1="125" x2="64" y2="-3" gradientUnits="userSpaceOnUse">
<stop stop-color="#EDEDED"/>
<stop offset="1" stop-color="white"/>
</linearGradient>
<linearGradient id="paint24_linear" x1="47.3333" y1="93.6757" x2="47.3333" y2="5.13513" gradientUnits="userSpaceOnUse">
<stop stop-color="#16538C"/>
<stop offset="0.362069" stop-color="#3594CA"/>
<stop offset="1" stop-color="#4EDFF3"/>
</linearGradient>
<linearGradient id="paint25_linear" x1="81.8704" y1="62.9903" x2="81.8704" y2="41.7785" gradientUnits="userSpaceOnUse">
<stop stop-color="#D4D4D4"/>
<stop offset="1" stop-color="#FAFAFA"/>
</linearGradient>
<linearGradient id="paint26_linear" x1="76.7927" y1="79.9903" x2="76.7927" y2="58.7785" gradientUnits="userSpaceOnUse">
<stop stop-color="#D4D4D4"/>
<stop offset="1" stop-color="#FAFAFA"/>
</linearGradient>
<linearGradient id="paint27_linear" x1="103.823" y1="44.8649" x2="115.396" y2="55.5542" gradientUnits="userSpaceOnUse">
<stop stop-color="#FCE94F"/>
<stop offset="1" stop-color="#D7B031"/>
</linearGradient>
<radialGradient id="paint28_radial" cx="0" cy="0" r="1" gradientUnits="userSpaceOnUse" gradientTransform="translate(104.449 73.0188) scale(17.1282 2.98121)">
<stop/>
<stop offset="1" stop-opacity="0"/>
</radialGradient>
<radialGradient id="paint29_radial" cx="0" cy="0" r="1" gradientUnits="userSpaceOnUse" gradientTransform="translate(34.5 73.1928) scale(14.7063 4.43115)">
<stop stop-color="#3D3D3D"/>
<stop offset="0.5" stop-color="#686868" stop-opacity="0.498039"/>
<stop offset="1" stop-color="#686868" stop-opacity="0"/>
</radialGradient>
<radialGradient id="paint30_radial" cx="0" cy="0" r="1" gradientUnits="userSpaceOnUse" gradientTransform="translate(34.5004 37.9563) rotate(90) scale(53.1689 70.1825)">
<stop stop-color="#C8C8C8"/>
<stop offset="0.625454" stop-color="#FCFCFC"/>
<stop offset="1" stop-color="#89898B"/>
</radialGradient>
<linearGradient id="paint31_linear" x1="35.0713" y1="47.5552" x2="35.0713" y2="38.2167" gradientUnits="userSpaceOnUse">
<stop stop-color="white" stop-opacity="0.2"/>
<stop offset="1" stop-color="white" stop-opacity="0.998934"/>
</linearGradient>
<clipPath id="clip0">
<rect width="128" height="128" fill="white"/>
</clipPath>
</defs>
</svg>
