<?xml version="1.0" encoding="UTF-8" standalone="no"?>
<!-- Generator: Adobe Illustrator 19.0.0, SVG Export Plug-In . SVG Version: 6.00 Build 0)  -->

<svg
   version="1.1"
   id="Layer_1"
   x="0px"
   y="0px"
   viewBox="0 0 512 512"
   style="enable-background:new 0 0 512 512;"
   xml:space="preserve"
   sodipodi:docname="glass-symbolic.svg"
   inkscape:version="1.1.1 (3bf5ae0d25, 2021-09-20)"
   xmlns:inkscape="http://www.inkscape.org/namespaces/inkscape"
   xmlns:sodipodi="http://sodipodi.sourceforge.net/DTD/sodipodi-0.dtd"
   xmlns="http://www.w3.org/2000/svg"
   xmlns:svg="http://www.w3.org/2000/svg"><defs
   id="defs568" /><sodipodi:namedview
   id="namedview566"
   pagecolor="#ffffff"
   bordercolor="#666666"
   borderopacity="1.0"
   inkscape:pageshadow="2"
   inkscape:pageopacity="0.0"
   inkscape:pagecheckerboard="0"
   showgrid="false"
   inkscape:zoom="1.5839844"
   inkscape:cx="255.68434"
   inkscape:cy="256"
   inkscape:window-width="1920"
   inkscape:window-height="1019"
   inkscape:window-x="0"
   inkscape:window-y="30"
   inkscape:window-maximized="1"
   inkscape:current-layer="Layer_1" />
<g
   id="g533"
   transform="scale(0.86038987)"
   style="stroke-width:0.99954687;stroke-miterlimit:4;stroke-dasharray:none">
	<g
   id="g531"
   style="stroke-width:0.99954687;stroke-miterlimit:4;stroke-dasharray:none">
		<path
   d="M 256,0 C 115.03,0 0,115.05 0,256 0,396.97 115.05,512 256,512 396.97,512 512,396.95 512,256 512,115.03 396.95,0 256,0 Z m 0,482 C 131.383,482 30,380.617 30,256 30,131.383 131.383,30 256,30 380.617,30 482,131.383 482,256 482,380.617 380.617,482 256,482 Z"
   id="path529"
   style="stroke-width:0.99954687;stroke-miterlimit:4;stroke-dasharray:none" />
	</g>
</g>
<g
   id="g535">
</g>
<g
   id="g537">
</g>
<g
   id="g539">
</g>
<g
   id="g541">
</g>
<g
   id="g543">
</g>
<g
   id="g545">
</g>
<g
   id="g547">
</g>
<g
   id="g549">
</g>
<g
   id="g551">
</g>
<g
   id="g553">
</g>
<g
   id="g555">
</g>
<g
   id="g557">
</g>
<g
   id="g559">
</g>
<g
   id="g561">
</g>
<g
   id="g563">
</g>
<path
   style="fill:none;stroke:#000000;stroke-width:27.8;stroke-linecap:butt;stroke-linejoin:miter;stroke-miterlimit:4;stroke-dasharray:none;stroke-opacity:1"
   d="m 357.05252,372.83465 c 144.66966,128.0867 144.66966,128.0867 144.66966,128.0867"
   id="path788" /></svg>
